<?xml version="1.0" encoding="UTF-8"?>
<!DOCTYPE svg PUBLIC "-//W3C//DTD SVG 1.0//EN" "http://www.w3.org/TR/2001/REC-SVG-20010904/DTD/svg10.dtd">
<!-- Creator: CorelDRAW -->
<svg xmlns="http://www.w3.org/2000/svg" xml:space="preserve" width="100%" height="100%" version="1.0" shape-rendering="geometricPrecision" text-rendering="geometricPrecision" image-rendering="optimizeQuality" fill-rule="evenodd" clip-rule="evenodd"
viewBox="0 0 19476.5 5267.06"
 xmlns:xlink="http://www.w3.org/1999/xlink"
 xmlns:xodm="http://www.corel.com/coreldraw/odm/2003">
 <g id="Layer_x0020_1">
  <metadata id="CorelCorpID_0Corel-Layer"/>
  <rect fill="white" width="19476.5" height="5267.06"/>
  <g id="_1358507696848">
   <g>
    <g>
     <path fill="#1E1A16" fill-rule="nonzero" d="M2522.04 4051.71l205.78 -1283.21 790.87 1.56 -204.14 1273.19c-46.39,289.23 83.42,412.54 292.76,412.95 209.35,0.43 377.01,-112.3 422.3,-394.89l206.83 -1289.81 790.85 1.51 -203.09 1266.59c-127.41,794.55 -639.38,1106.11 -1333.9,1104.69 -694.48,-1.31 -1091.92,-321.35 -968.26,-1092.58z"/>
     <path fill="#1E1A16" fill-rule="nonzero" d="M5273.35 2773.52l1046.71 2.04c618.07,1.22 995.86,277.95 907.37,829.84l-1.07 6.6c-90.09,561.82 -566.75,860.18 -1194.77,858.96l-252.54 -0.53 -101.28 631.65 -777.57 -1.51 373.15 -2327.05zm804.06 1142.18l0 0c199.39,0.38 346.68,-89.1 373.34,-255.33l1.07 -6.64c27.19,-169.55 -81.91,-256.22 -287.92,-256.63l-212.67 -0.42 -83.16 518.61 209.34 0.41z"/>
    </g>
    <g>
     <g>
      <g>
       <g>
        <path fill="#0092E0" fill-rule="nonzero" d="M7588.62 2768.85l1036.78 2.03c292.43,0.62 507.83,87.47 633.94,234.04 102.66,126.57 144.74,299.58 112.2,502.36l-1.04 6.61c-61.29,382.32 -327.36,611.26 -667.94,703.72l486.69 878.31 -481.8 0 -441.44 -809.32 -511.7 -1.03 -130.08 810.35 -408.75 0 373.14 -2327.07zm821.9 1155.52l0 0c292.42,0.57 503.02,-151.97 540.86,-387.99l1.06 -6.67c40,-249.33 -117.6,-385.95 -419.97,-386.55l-594.81 -1.17 -125.28 781.22 598.14 1.16z"/>
       </g>
      </g>
      <g>
       <g>
        <path fill="#0092E0" fill-rule="nonzero" d="M10552.17 2758.09l378.78 0.73 647.52 2337.1 -431.95 0 -145.74 -554.56 -1099.85 -2.17 -329.44 556.73 -418.67 0 1399.35 -2337.83zm357.22 1420.63l0 0 -252.84 -931.64 -547.99 930.07 800.83 1.57z"/>
       </g>
      </g>
      <g>
       <g>
        <path fill="#0092E0" fill-rule="nonzero" d="M11651.29 3947.39l1.05 -6.64c106.11,-661.52 688.07,-1202.46 1392.56,-1201.04 428.62,0.8 663.88,150.91 852.39,364.11l-311.01 301.99c-158.42,-173.25 -339.09,-289.94 -604.95,-290.49 -445.3,-0.85 -826.23,364.17 -899.26,819.6l-1.05 6.64c-73.07,455.48 189.57,828.4 634.85,829.31 285.81,0.56 487.19,-115.44 716.39,-301.2l219.92 266.45c-283.14,252.14 -574.5,411.26 -1009.85,410.34 -677.87,-1.31 -1098.21,-530.87 -991.04,-1199.07z"/>
       </g>
      </g>
      <g>
       <g>
        <polygon fill="#0092E0" fill-rule="nonzero" points="14151.79,2781.79 14560.56,2782.55 14187.39,5109.59 13778.68,5108.85 "/>
       </g>
      </g>
      <g>
       <g>
        <polygon fill="#0092E0" fill-rule="nonzero" points="14916.06,2783.26 15294.89,2784.02 16283,4395.45 16541.01,2786.47 16943.11,2787.23 16569.94,5114.3 16227.67,5113.64 15210.46,3455.56 14945,5111.12 14542.94,5110.31 "/>
       </g>
      </g>
      <g>
       <g>
        <path fill="#0092E0" fill-rule="nonzero" d="M16984.87 3957.87l1.05 -6.64c104.48,-651.59 691.42,-1202.45 1392.56,-1201.04 405.39,0.78 636.51,114.3 843.2,317.57l-308.73 308.65c-154.94,-153.26 -315.61,-250.05 -611.33,-250.62 -428.66,-0.87 -814.57,374.18 -885.96,819.65l-1.06 6.64c-76.81,478.69 182.4,831.72 657.57,832.63 219.31,0.45 429.92,-68.98 589.85,-175.07l69.79 -435.52 -594.81 -1.16 57.06 -355.7 990.24 1.97 -156.73 977.34c-260.78,195.68 -616.37,361.25 -1028.42,360.44 -727.67,-1.41 -1123.06,-520.97 -1014.28,-1199.14z"/>
       </g>
      </g>
     </g>
    </g>
    <path fill="#1E1A16" fill-rule="nonzero" d="M2849.42 112.23c0,0 -1089.6,-2.2 -1089.62,-2.2l-1298.29 1055.86 -206.69 1288.99 1221.43 -763.75 -551.95 3422.57 1119.61 2.21 805.51 -5003.68z"/>
    <g>
     <g>
      <polygon fill="#0092E0" fill-rule="nonzero" points="3775.43,1063.29 3106.68,376.45 2872.42,1855.53 3562.94,2386.81 "/>
     </g>
    </g>
   </g>
  </g>
 </g>
</svg>
