<?xml version="1.0" encoding="UTF-8"?>
<!DOCTYPE svg PUBLIC "-//W3C//DTD SVG 1.0//EN" "http://www.w3.org/TR/2001/REC-SVG-20010904/DTD/svg10.dtd">
<!-- Creator: CorelDRAW -->
<svg xmlns="http://www.w3.org/2000/svg" xml:space="preserve" width="100%" height="100%" version="1.0" shape-rendering="geometricPrecision" text-rendering="geometricPrecision" image-rendering="optimizeQuality" fill-rule="evenodd" clip-rule="evenodd"
viewBox="0 0 19476.72 5267.96"
 xmlns:xlink="http://www.w3.org/1999/xlink"
 xmlns:xodm="http://www.corel.com/coreldraw/odm/2003">
 <g id="Layer_x0020_1">
  <metadata id="CorelCorpID_0Corel-Layer"/>
  <rect fill="white" x="0.11" y="0.45" width="19476.5" height="5267.06"/>
  <g id="_2645504272128">
   <path fill="#010101" fill-rule="nonzero" d="M16442.53 3402.21l324.63 0c-24.52,69.57 -45.05,128.54 -62.28,176.89 -16.55,48.35 -31.15,88.77 -42.39,121.25 -11.27,32.45 -19.89,57.64 -25.17,76.85 -5.31,19.2 -9.94,33.12 -13.25,43.07 -3.3,9.94 -4.63,16.55 -5.3,19.88 0,3.3 -0.66,6.63 -0.66,8.61 -5.3,20.54 -7.96,34.46 -7.96,41.07 0,26.49 6.64,47.7 19.21,62.95 12.59,15.25 29.15,23.19 49.68,23.19l72.22 -0.03c21.21,0 41.06,-4.63 58.97,-13.92 17.88,-9.26 33.78,-19.88 48.35,-33.13 14.57,-12.59 26.49,-26.49 37.76,-42.39 10.59,-15.25 19.21,-29.15 25.17,-41.07l-1.33 3.31 163.64 -445.22 326 0 -143.75 387.57c-25.85,68.24 -51.01,128.54 -77.53,181.55 -25.84,52.33 -56.32,96.73 -90.1,133.16 -34.45,36.44 -73.54,63.61 -117.94,82.16 -44.39,18.56 -98.06,27.82 -159.66,27.82l-171.6 0c-72.22,0 -133.17,-4.63 -182.2,-13.24 -49.02,-8.62 -88.11,-22.54 -117.26,-40.42 -29.15,-18.55 -49.68,-42.39 -62.28,-72.22 -11.92,-29.82 -18.55,-65.58 -18.55,-108.65 0,-11.92 0.65,-24.51 1.98,-35.78 1.32,-11.92 3.3,-24.52 5.31,-39.09 5.96,-30.47 15.9,-67.58 29.14,-109.98 1.98,-7.96 4.64,-16.55 6.64,-25.84 2.65,-9.26 4.63,-18.55 6.63,-27.82l122.58 -338.55 -0.03 0 1.33 -1.98z"/>
   <path fill="#010101" fill-rule="nonzero" d="M17884.19 3930.9c0,0 0,-4.64 1.33,-4.64l-294.15 0c-32.45,0 -62.28,-7.96 -88.77,-23.18 -26.49,-15.25 -49.03,-35.11 -68.24,-58.98 -19.2,-23.86 -33.13,-50.35 -43.72,-78.85 -9.94,-28.49 -15.25,-56.31 -15.25,-84.13 0,-25.17 7.29,-54.34 21.86,-86.8 14.58,-32.45 34.46,-62.27 58.3,-90.77 23.86,-28.49 51.01,-52.33 80.83,-72.21 29.82,-19.21 60.3,-29.15 90.77,-29.15l794.36 0.02c-29.82,43.72 -62.27,86.14 -97.38,126.56 -35.11,40.41 -72.22,78.18 -111.3,113.96l-494.26 -0.03c-5.3,0 -9.26,4.64 -13.24,13.93 -3.31,9.26 -5.31,16.55 -5.31,21.21l0 7.96c0,0 0,-2.66 0.65,-5.31 0,-2.65 1.33,-3.31 1.98,-1.98l5.96 5.96c0,0 5.96,5.31 11.92,9.27l281.6 -0.03c36.44,0 67.59,8.61 92.75,25.17 25.17,16.55 45.73,37.76 60.95,62.27 15.9,24.52 27.17,51.01 34.46,79.51 7.29,28.49 10.59,54.99 10.59,79.5l0 9.27c0,27.82 -6.63,56.31 -19.21,87.46 -12.59,30.48 -29.82,58.97 -51,85.47 -21.21,26.49 -45.73,48.35 -73.55,65.58 -27.82,17.23 -56.31,25.84 -85.46,25.84l-787.1 0.02c5.96,-11.26 18.55,-29.82 37.76,-55.66 18.55,-25.84 39.09,-52.34 59.62,-79.51 21.21,-27.16 40.42,-51 58.3,-70.89 17.87,-20.53 29.14,-30.47 33.12,-30.47l502.22 0c0,0 4.63,-1.98 5.31,-5.96 0,-3.98 0.65,-8.61 0.65,-13.92l0 -25.84 0 0.02 2.65 -0.67z"/>
   <path fill="#010101" fill-rule="nonzero" d="M19278.83 4213.8l-307.42 0 -24.52 -128.53c-9.26,11.92 -19.88,25.84 -31.15,39.77 -11.92,14.57 -23.19,27.82 -35.11,39.76 -11.92,11.92 -22.53,23.19 -32.45,32.45 -9.94,9.27 -17.23,14.58 -22.54,16.55l-655.23 0 543.28 -716.18 -1.33 3.3c3.31,-5.96 9.94,-14.57 19.88,-25.16 9.94,-10.59 21.21,-21.21 33.78,-32.46 11.92,-10.59 24.52,-19.88 36.44,-28.49 11.92,-7.96 22.53,-11.92 30.47,-11.92l246.48 -0.03c15.25,0 27.82,5.96 38.43,17.88 9.94,11.92 19.21,25.85 26.5,42.4 7.96,16.55 13.92,33.13 19.2,51 5.31,17.88 9.27,33.13 11.92,46.38l102.69 653.91 0.03 0.03 0.65 -0.66zm-583.02 -237.18l238.51 0 -39.76 -263.03 -198.78 263.03 0.03 0z"/>
   <path fill="#010101" fill-rule="nonzero" d="M14652.35 3455.2l391.56 -337.22 -329.26 0 350.47 -977.91c-3.98,0 -8.61,0 -12.59,0l-129.19 0 -361.08 977.91 -1539.07 0 -1.98 2.65 -1610.61 0 1.97 -2.65 -1005.05 0 -15.25 -82.81 -31.15 82.81 -996.42 0 41.07 -110.66c-23.86,11.92 -47.7,23.19 -72.22,33.13 -121.24,51.01 -249.1,77.53 -380.29,77.53l-295.5 0c-109.98,0 -213.35,-9.27 -308.08,-27.17 -108,-20.54 -204.05,-57.65 -286.86,-110.66 -48.36,-31.15 -92.1,-68.23 -129.19,-111.3 -4.63,5.96 -9.26,11.92 -13.92,17.23 -50.36,62.27 -109.33,114.61 -174.91,156.35 -79.5,49.68 -164.31,75.52 -253.76,75.52l-3276.21 0.03 99.38 -268.34 -3.98 5.96c-7.96,11.92 -19.2,28.5 -33.78,49.68 -19.88,28.5 -41.74,55.67 -66.25,81.48 -23.87,25.17 -47.71,47.06 -72.22,66.91 -53.66,43.07 -111.31,64.93 -170.28,64.93l-298.13 0.03c-45.05,0 -187.5,-14.58 -253.76,-190.81 -19.21,27.82 -40.42,54.34 -62.95,80.15 -62.28,70.89 -143.76,110.66 -229.9,110.66l-300.79 0c-3.98,0 -7.96,0 -11.92,0 6.64,37.11 60.3,334.57 60.3,334.57l-938.15 0.02 -51.01 -335.24 -1590.07 0 1172.67 -1546.36c74.87,-100.04 101.37,-123.22 111.31,-131.84l6.63 -5.96c19.21,-16.55 38.44,-33.78 68.24,-53.66 66.26,-44.4 139.8,-51.01 178.21,-51.01l368.38 -0.02c55.66,0 95.4,0 133.16,7.28 101.37,19.21 174.26,86.79 194.12,181.55 0,1.98 1.97,11.27 4.63,25.84l0 -214 893.1 0 0 94.08 62.27 -94.08 739.4 0 7.29 107.33 68.91 -107.33 2563.33 0 0 1.98c11.92,-1.33 25.17,-1.98 37.76,-1.98l1734.52 0 -13.25 19.89c58.29,-13.25 117.26,-19.89 176.24,-19.89l373.65 0c113.96,0 219.96,10.59 314.71,32.46 107.33,23.86 200.75,64.93 278.28,120.57 60.3,43.07 110.65,95.4 151.07,155.7l115.28 -308.08 976.54 0 76.85 395.55 373.68 -395.55 1058.71 0 -242.49 648.63 306.1 -404.15c74.87,-100.04 101.36,-123.23 111.3,-131.84l6.64 -5.96c19.21,-16.56 38.44,-33.78 68.23,-53.67 66.26,-44.39 139.81,-50.35 178.22,-50.35l368.37 0c55.67,0 95.41,0 133.17,7.28 101.36,19.21 174.25,86.8 194.11,181.55 1.33,6.64 13.25,66.91 30.48,159.66 19.88,-25.84 42.39,-53.66 66.25,-82.81 35.79,-43.07 73.55,-86.14 112.64,-127.21 47.05,-49.68 88.77,-85.46 127.2,-109.98l49.68 -31.8 2850.25 0 62.28 153.7 459.79 -386.93 1268.73 0.03 -1394.63 1192.56 337.9 827.49 -1049.46 0 -67.58 -159.66 -579.72 496.91 -1263.42 -0.03 1.3 1.33zm-832.12 -999.75l0 0 115.94 -315.36 -175.56 -0.02c19.88,105.99 41.06,214.67 59.62,315.36l0 0.02zm2145.93 -133.19l0 0 196.12 -168.95 -72.87 -175.56 -123.23 344.51 -0.02 0zm-7067.89 -14.57l0 0c0,0 0.65,0 1.33,0 17.88,-8.62 37.76,-19.88 58.97,-34.46 21.86,-15.25 43.07,-31.8 62.95,-50.35 17.23,-16.56 23.19,-25.85 24.52,-27.17l2.65 -4.64 2.66 -4.63c0,0 2.65,-3.98 3.3,-5.31l7.29 -17.22c0,-4.64 1.32,-9.27 1.98,-13.93l0 -8.61 -198.78 0.02c0,0 -0.65,0 -1.32,0 -14.58,6.64 -29.15,15.9 -44.4,27.82 -16.55,12.6 -31.8,27.17 -45.72,43.07 -8.62,9.94 -15.91,19.21 -21.87,28.5 -7.28,15.25 -12.59,29.15 -17.22,41.07 0,0 0,0 0,0 0,2.65 1.32,5.96 2.65,10.59 1.98,6.63 4.63,11.92 7.29,15.9l153.72 0.02 0 -0.67zm-2552.09 0l0 0c-15.25,-29.15 -28.49,-58.97 -39.76,-89.45 -3.98,-11.26 -7.96,-22.53 -11.27,-33.78l-132.51 123.23 183.54 0z"/>
   <path fill="#ED2227" fill-rule="nonzero" d="M15933.03 3501.57l-1405.88 0 391.56 -337.22 -270.31 0 350.46 -977.91 -43.07 0.03 -360.41 977.91 -1550.98 -0.03 -1.98 2.66 -1724.57 0 1.97 -2.66 -2021.37 0 25.84 -69.56c-118.59,46.37 -242.5,69.56 -369.7,69.56l-295.51 0c-112.63,0 -219.3,-9.26 -316.68,-27.82 -113.96,-21.86 -215.98,-60.95 -303.45,-117.26 -36.43,-23.19 -70.23,-50.36 -101.36,-80.16 -49.03,56.32 -104.67,104.02 -166.3,142.46 -86.79,54.99 -180.21,82.16 -278.27,82.16l-3343.12 -0.03 31.8 -86.14c-4.63,3.98 -8.61,7.29 -13.25,10.59 -62.27,49.68 -129.18,75.53 -199.42,75.53l-298.13 0.02c-43.72,0 -177.57,-11.92 -262.38,-149.07 -6.63,7.97 -12.59,15.25 -19.21,23.19 -71.56,81.48 -165.64,126.56 -264.35,126.56l-256.39 -0.03 60.3 334.57 -1034.23 0 -51.01 -335.24 -1645.74 0.02 1228.99 -1619.9c77.53,-103.37 106,-128.53 117.94,-139.13l6.64 -5.96c19.21,-16.55 41.07,-35.78 72.87,-57.64 76.2,-51.01 160.33,-58.29 204.05,-58.29l368.38 -0.03c58.29,0 99.38,0 141.78,8.62 56.31,10.59 105.34,33.78 143.75,67.58l0 -74.87 1785.55 0 0 10.59c0,0 7.96,-10.59 7.96,-10.59l4448.89 0 -2.65 3.3c25.84,-2.65 52.33,-3.3 78.17,-3.3l373.68 0c117.27,0 226.6,11.27 325.31,33.78 113.28,25.84 212.67,68.91 294.82,127.86 40.42,29.14 76.85,62.27 109.33,98.71l97.38 -260.38 1047.45 0.03 66.91 344.51 325.3 -344.51 1145.54 0 -155.03 414.75 114.61 -151.07c77.53,-103.37 106,-128.54 117.94,-139.13l6.64 -5.96c19.2,-16.55 41.06,-35.78 72.87,-57.64 76.19,-51.01 160.33,-58.3 204.05,-58.3l368.37 0c58.3,0 99.39,0 141.78,8.62 120.57,22.53 207.37,104.02 231.23,217.98 0.65,3.98 4.63,24.51 11.92,61.62 1.33,-1.33 1.98,-2.65 3.3,-3.98 36.44,-44.4 74.88,-87.47 114.61,-129.19 49.69,-52.33 94.08,-90.77 135.83,-117.26l60.94 -39.09 2895.27 -0.02 49.68 123.22 424.02 -356.45 1411.21 0.02 -1464.85 1252.86 351.14 860.62 -1149.48 0 -54.99 -129.18 -544.61 467.08 0 0 0.65 -2.01zm-1155.45 -92.75l1121.02 0 614.82 -527.38 80.15 190.16 949.42 0 -324.65 -794.39 1324.4 -1132.93 -1125.63 0.02 -495.58 416.73 -74.19 -184.18 -2805.18 -0.02 -38.43 24.51c-35.11,22.54 -73.55,56.32 -118.6,103.37 -38.43,40.42 -75.52,82.16 -110.65,124.55 -23.19,28.5 -45.05,55.67 -64.93,81.49l-62.95 82.15 -19.21 -102.04c-25.84,-135.17 -29.82,-156.35 -30.47,-159 -16.56,-76.85 -73.55,-129.87 -157.03,-145.77 -33.78,-6.63 -71.57,-6.63 -124.56,-6.63l-368.32 0.02c-33.13,0 -96.05,5.31 -152.37,43.07 -27.17,17.88 -44.4,33.78 -62.95,49.68l-6.64 5.96c-7.96,7.29 -33.13,29.15 -104.67,125.23l-498.23 656.57 329.93 -883.16 -971.27 0 -422.03 447.2 -86.8 -447.2 -906.34 0 -135.82 363.06 -50.36 -75.52c-37.11,-55.66 -84.13,-104.02 -139.8,-143.76 -72.22,-52.33 -160.33,-90.09 -261.05,-112.63 -92.1,-20.53 -194.11,-31.15 -304.77,-31.15l-373.63 0c-54.99,0 -111.3,5.96 -166.29,18.55l-113.96 25.17 29.82 -43.72 -1647.07 0c-11.27,0 -23.19,0 -35.11,1.33l-82.8 7.28 4.63 -8.61 -2461.97 0 -131.19 204.05 -13.92 -204.05 -671.14 0 -133.84 201.4 0 -201.4 -800.32 0 0 167.62 -92.1 8.61c-2.66,-13.92 -3.98,-21.86 -4.63,-24.51 -16.56,-76.85 -73.55,-129.86 -157.03,-145.76 -33.78,-6.64 -71.57,-6.64 -124.56,-6.64l-368.37 0.03c-33.13,0 -96.05,5.31 -152.37,43.07 -27.17,17.88 -44.4,33.78 -63.6,49.68l-6.64 5.96c-7.96,7.28 -33.13,29.15 -104.67,124.55l-1117.69 1470.83 1537.07 0 51.01 335.25 842.74 0 -60.3 -337.22 58.3 2.65c0,0 6.63,0 9.94,0l300.81 -0.02c72.22,0 141.13,-33.78 194.79,-94.76 21.21,-24.51 41.74,-50.35 60.3,-76.2l50.36 -72.21 31.15 82.15c54.34,145.09 164.96,160.34 210.01,160.34l298.11 0.02c48.35,0 95.41,-18.55 141.13,-54.98 22.54,-17.88 45.72,-39.09 67.58,-62.28 22.54,-23.86 43.73,-49.03 61.63,-75.52 14.57,-21.21 25.84,-37.11 33.78,-49.03l225.26 -339.88 -215.32 581.69 3209.95 0c80.16,0 157.03,-23.18 228.58,-68.23 61.62,-38.44 116.61,-87.47 163.64,-145.76 4.63,-5.31 8.61,-10.59 12.59,-16.55l34.46 -45.05 37.76 43.07c34.45,39.09 74.19,73.54 119.27,102.69 77.52,49.68 168.27,84.81 270.31,104.02 92.1,17.23 192.79,26.49 299.46,26.49l295.48 -0.02c125.23,0 246.47,-24.52 362.41,-73.55 23.19,-9.94 46.38,-20.53 68.91,-31.8l106 -53.66 -59.62 159.66 897.05 0.02 78.18 -209.36 39.09 209.36 1060.07 0 -1.98 2.66 1496.65 0 1.98 -2.66 1526.47 0 361.09 -977.91 161.66 0c3.31,0 6.64,0 9.94,0l70.24 -3.98 -351.79 981.87 388.88 0.02 -391.56 337.22 0 0 -1.33 0zm-971.93 -778.46l0 0 -102.04 -536.64 298.14 -0.03 -196.77 536.65 0 0.02 0.67 0zm10.6 -443.24l0 0 17.88 94.75 34.45 -94.75 -52.98 0 0.65 0zm2046.57 286.21l0 0 222.61 -624.11 132.51 318.02 -355.12 306.09 0 0zm229.22 -365.72l0 0 -23.19 65.59 37.11 -31.81 -13.92 -33.12 0 0 0 -0.66zm-7372.66 247.13l0 0c-39.76,-3.31 -56.31,-73.54 -9.94,-133.84 21.21,-27.17 53.66,-66.26 80.83,-88.77 31.15,-25.17 64.26,-38.44 64.26,-38.44l255.09 0c0,0 4.63,40.42 -3.31,80.83 -15.25,76.2 -146.41,165.65 -198.1,180.22 0,0 -149.74,3.31 -189.48,0l0 0 0.65 0zm73.55 -92.75l94.07 0c13.93,-7.29 28.5,-15.9 45.05,-27.17 19.88,-13.92 39.09,-29.15 56.97,-45.72 0,0 1.33,-1.33 1.98,-1.98l-115.26 0c-9.27,4.63 -18.56,11.27 -28.5,18.55 -13.92,10.6 -27.17,23.19 -39.09,37.11 -5.96,6.64 -10.59,13.25 -15.25,19.21l0.03 0zm-2369.87 92.75l-378.99 0 274.29 -255.06 21.21 71.56c3.31,10.59 6.64,21.21 10.6,31.15 9.94,28.5 22.53,56.97 37.11,83.49l36.43 68.23 0 -0.05 -0.65 0.68z"/>
   <path fill="white" fill-rule="nonzero" d="M13656.59 2860.91l-525.4 0 -37.11 -217.3 -206.71 219.3 -1119.02 -0.02 928.21 -1223.71c0,0 62.27,-83.49 83.48,-101.36 21.21,-18.56 33.13,-29.83 54.34,-43.73 21.21,-13.92 52.33,-16.55 66.26,-16.55l368.34 0c88.12,0 124.56,1.33 130.52,29.83 5.96,28.49 257.06,1352.89 257.06,1352.89l0.03 0 0 0.65zm-991.16 -402.83l408.11 0 -68.23 -449.85 -339.88 449.85 0 0zm-10080.44 737.42l-525.38 0 -84.14 -554.55 -206.71 219.31 -1119.01 0 928.2 -1223.71c0,0 62.28,-83.49 83.49,-101.36 21.21,-18.56 33.13,-29.83 54.34,-43.73 21.21,-13.92 52.33,-16.55 66.25,-16.55l368.35 -0.02c88.12,0 124.55,1.33 130.51,29.82 5.96,28.5 304.77,1690.79 304.77,1690.79l0 0 -0.67 0zm-1038.84 -740.72l408.11 0 -68.23 -449.86 -339.88 449.86 0 0zm2479.85 -454.49l0 0 337.22 -525.38 535.99 -0.02 -802.32 1213.09c-7.29,10.59 -17.23,25.84 -31.15,45.72 -13.93,19.89 -29.83,39.09 -47.05,57.65 -17.23,18.55 -35.11,34.45 -52.34,48.35 -17.23,13.92 -32.45,21.21 -44.4,21.21l-298.1 0c-35.11,0 -59.63,-29.82 -74.2,-90.1 -14.57,-60.29 -29.15,-156.35 -43.07,-288.86 -3.31,-19.21 -5.96,-39.09 -6.64,-60.3 -0.65,-21.21 -3.3,-43.72 -6.63,-68.24l-240.49 337.22c-3.31,3.31 -7.96,9.27 -13.25,17.23 -5.31,7.97 -11.27,15.9 -18.55,24.52 -19.21,29.82 -41.07,58.29 -65.58,86.14 -24.52,27.82 -50.36,41.74 -78.18,41.74l-300.79 0c-19.21,0 -35.11,-9.27 -47.05,-27.17 -11.92,-18.55 -21.86,-40.42 -28.5,-66.91 -7.28,-25.84 -11.92,-54.34 -14.57,-84.81 -2.65,-30.48 -3.98,-57.64 -3.98,-82.16l0.02 -1123.65 491.6 0 0 559.19 371.03 -559.19 444.54 0 36.44 525.38 0 0 0 -0.65zm943.45 -525.4l1521.17 0c-13.92,27.82 -37.76,64.25 -71.57,109.98 -33.78,45.04 -69.56,90.09 -107.32,134.49 -37.76,44.4 -73.55,82.81 -108.65,115.29 -35.11,32.45 -60.3,48.35 -75.53,48.35l-749.99 0.02 -78.17 217.31 133.16 -130.51 693.03 0 -439.27 408.11 -491.59 0 -28.5 75.52 972.6 0c-3.3,7.29 -9.94,19.21 -19.88,36.43 -9.94,17.23 -19.88,35.11 -31.15,53.67 -11.27,18.55 -21.86,35.1 -31.15,51 -9.27,15.9 -15.25,24.52 -17.23,25.85l2.66 -5.31c-15.9,21.21 -37.77,45.04 -66.91,72.86 -28.5,27.83 -57.65,54.99 -86.14,80.84 -28.5,25.84 -54.34,47.7 -76.85,65.58 -22.54,17.23 -35.11,25.84 -36.44,25.84l-1317.76 0.05 512.13 -1385.35 0 -0.02 -0.65 0zm2321.52 901.71l0 0c0,-5.31 0.65,-7.96 2.65,-7.96l-502.21 0.02c-55.67,0 -106,-13.24 -151.72,-39.09 -45.05,-25.84 -84.14,-59.62 -116.62,-100.71 -32.45,-41.07 -56.97,-86.14 -74.19,-134.49 -17.23,-49.03 -25.85,-96.73 -25.85,-143.76 0,-43.72 12.6,-92.75 37.77,-147.74 25.16,-54.99 58.29,-106.67 99.38,-155.7 41.07,-49.03 87.47,-89.45 138.48,-122.58 51.68,-33.13 103.36,-49.68 155.7,-49.68l1356.87 -0.02c-50.35,74.87 -105.99,147.09 -166.29,215.97 -60.3,68.91 -123.23,133.85 -189.48,194.79l-844.1 0c-8.61,0 -15.9,7.97 -22.53,23.87 -5.96,15.9 -9.27,27.82 -9.27,36.43l0 13.25c0,0 0,-4.63 1.33,-9.27 0.65,-4.63 1.98,-5.96 3.98,-3.98l10.59 10.59c3.31,3.31 10.59,8.62 21.21,15.9l481.01 0c62.95,0 115.28,14.58 158.35,43.07 42.4,28.5 77.53,64.26 104.67,106 27.17,41.74 46.38,87.47 58.97,135.82 11.92,49.03 18.56,94.08 18.56,135.82l0 15.9c0,47.05 -10.59,96.73 -32.45,149.07 -21.86,52.33 -51.01,101.36 -87.47,146.41 -36.44,45.05 -78.18,82.81 -125.23,112.63 -47.05,29.83 -96.05,44.4 -146.41,44.4l-1343.63 0.03c10.59,-19.21 31.8,-51.01 64.25,-95.41 32.46,-44.4 66.26,-89.44 102.04,-135.82 35.79,-46.37 68.92,-86.79 99.39,-121.24 30.48,-35.11 49.03,-52.34 56.32,-52.34l857.31 0c5.31,0 7.97,-3.31 9.27,-10.59 0.65,-6.64 1.32,-14.58 1.32,-23.87l0 -44.39 0 0 -1.97 -1.33zm2475.89 -259.04l0 0c-15.91,97.38 -49.68,190.8 -102.04,279.57 -52.34,88.77 -117.27,167.63 -194.8,236.54 -77.52,68.91 -164.96,123.9 -261.69,164.96 -96.74,41.07 -197.45,61.63 -302.12,61.63l-295.48 0c-97.38,0 -187.5,-7.96 -270.31,-23.86 -82.81,-15.91 -154.38,-43.07 -215.98,-82.16 -60.95,-39.09 -108.65,-91.43 -142.45,-157.03 -33.78,-65.58 -51.01,-147.74 -51.01,-247.13 0,-21.21 0.65,-42.39 2.65,-64.25 1.98,-21.86 4.64,-45.05 7.97,-69.56 11.92,-94.08 43.72,-185.51 95.4,-274.3 51.68,-88.77 114.61,-167.62 189.48,-236.53 74.87,-68.91 158.36,-124.56 249.78,-167.62 91.43,-42.4 183.53,-64.26 275.62,-64.26l373.64 0c99.38,0 189.48,9.27 270.31,27.17 80.83,18.56 149.74,47.7 205.38,87.47 55.67,40.41 98.71,90.77 129.19,153.04 30.47,61.63 45.72,137.15 45.72,225.92 0,25.84 -0.65,51.69 -2.65,75.52 -1.98,24.52 -4.64,49.68 -7.97,75.53l0 -2.66 0.03 0 1.33 2.01zm-1280.68 102.01l0 0c0,25.84 4.63,53.01 14.57,80.83 9.27,27.82 22.54,53.01 39.09,74.2 16.55,21.86 36.44,40.41 58.97,54.99 22.54,14.57 46.38,22.53 70.89,22.53l209.37 0c11.92,0 32.45,-6.63 60.29,-19.88 27.82,-13.25 56.97,-29.82 87.47,-51.01 30.48,-21.21 58.97,-43.72 86.14,-69.56 27.17,-25.17 47.7,-50.36 61.63,-74.2 15.9,-24.51 24.51,-41.74 25.84,-52.33l10.59 -25.84c1.98,-8.62 3.3,-17.23 3.98,-24.52 0.65,-7.96 1.98,-15.9 3.98,-24.51l0 -47.05c0,-22.54 -1.98,-44.4 -6.63,-65.58 -4.64,-21.21 -11.92,-39.77 -23.19,-57.65 -11.27,-17.23 -27.82,-31.15 -49.68,-41.74 -21.86,-10.59 -49.03,-15.9 -82.16,-15.9l-245.85 0c-24.51,0 -50.36,6.63 -78.18,19.88 -27.82,13.25 -55.66,29.82 -82.15,51.01 -27.17,21.21 -51.69,44.4 -74.2,70.89 -22.54,25.84 -52.33,75.52 -52.33,75.52 -35.79,48.35 -36.44,120.57 -36.44,120.57l-0.02 0.03 -1.98 -0.68zm3178.83 640.69l-564.49 0 224.59 -614.17 -572.43 614.17 -224.59 0 -117.94 -630.07 -235.21 630.07 -567.09 0 517.44 -1385.35 671.79 -0.02 120.57 616.82 583.02 -616.82 682.43 0 -517.44 1385.34 0 0.03 -0.65 0zm2153.89 0l0 0 358.43 -977.91 -455.16 0 0 -41.74c1.98,-6.64 14.57,-27.17 39.09,-60.3 24.51,-33.13 53.01,-69.56 86.14,-109.98 33.13,-39.76 67.58,-78.85 103.36,-116.61 35.79,-37.77 65.59,-64.26 90.1,-79.51l1322.4 0.03c-13.93,27.82 -37.77,64.25 -70.89,109.98 -33.13,45.04 -68.24,90.09 -106,134.49 -37.76,44.4 -72.87,82.81 -107.33,115.29 -33.78,32.45 -58.97,48.35 -74.19,48.35l-269.01 0 -361.09 977.91 -556.53 0 0.68 0zm1134.27 0l0 0 496.9 -1385.35 538.62 -0.02 -494.25 1385.34 -541.27 0.03zm1573.5 -290.2l0 0 -732.09 627.42 -648.63 0 1210.44 -1043.49 -282.23 -679.75 622.11 0 115.28 284.88 615.5 -518.09 650.61 -0.02 -1091.2 933.51 279.58 685.06 -616.8 0 -122.57 -290.19 0 0 0 0.67z"/>
  </g>
 </g>
</svg>
