<?xml version="1.0" encoding="UTF-8"?>
<!DOCTYPE svg PUBLIC "-//W3C//DTD SVG 1.1//EN" "http://www.w3.org/Graphics/SVG/1.1/DTD/svg11.dtd">
<!-- Creator: CorelDRAW -->
<svg xmlns="http://www.w3.org/2000/svg" xml:space="preserve" width="100%" height="100%" version="1.1" style="shape-rendering:geometricPrecision; text-rendering:geometricPrecision; image-rendering:optimizeQuality; fill-rule:evenodd; clip-rule:evenodd"
viewBox="0 0 19476.5 5267.06"
 xmlns:xlink="http://www.w3.org/1999/xlink"
 xmlns:xodm="http://www.corel.com/coreldraw/odm/2003">
 <defs>
  <style type="text/css">
   <![CDATA[
    .fil1 {fill:#078870}
    .fil0 {fill:white}
   ]]>
  </style>
 </defs>
 <g id="Layer_x0020_1">
  <metadata id="CorelCorpID_0Corel-Layer"/>
  <rect class="fil0" width="19476.5" height="5267.06"/>
  <g id="_1833235176528">
   <path class="fil1" d="M1972.8 5007.54l-7.79 -62.48 -10.76 -41c-6.8,-25.61 -6.33,-42.25 -15.86,-69.19 -6.39,-20.89 -2.15,-20.77 -7.27,-37.11l-25.02 -115.5c-3.03,-29.3 -4.1,-0.54 -7.13,-29.85l-12.35 -54.2c-6.85,-23.92 -0.44,-18.88 -12.81,-53.76 -7.27,-20.46 -7.76,-52.86 -15.59,-76.85l-15.85 -69.21c-7.93,-29.3 -7.16,-45.26 -13.73,-63.92 -9.97,-28.26 -14.25,-67.52 -21.25,-93.38 -8.53,-31.5 -12.61,-62.62 -22.19,-96.14 -0.36,-1.16 -1.77,-4.11 -2.12,-5.28l-7.27 -37.1c-8.75,-27.94 -14.17,-79.01 -20.06,-98.27 -10.36,-33.86 -12.86,-65.86 -22.32,-96.02 -4.7,-17.6 -34.64,-162.22 -39.56,-167.51l-57.69 -49.55c-10.21,-8.8 -9.04,-12.68 -23.34,-21.04 -27.58,-16.12 -19.48,-17.87 -44.24,-33.41 -10.16,-6.38 -21.29,-20.84 -30.31,-28.85l-70.1 -55.63c-10.36,-9.01 -16.52,-9.65 -22.32,-14.65l-30.32 -28.85c-4.79,-3 -3.02,-1.35 -7.27,-3.83l-128.11 -104.85c-14.61,-10.49 -23.46,-21.78 -34.59,-28.27 -13.46,-7.86 -20.23,-20.48 -32.7,-30.16l-14.06 -8.13c-12.39,-7.78 -21.26,-19.72 -36.98,-29.58l-29.72 -29.45c-9.15,-13.82 -9.02,-29.04 -14.41,-44.75l-43.63 -137.57 -9.15 -35.22 -14.02 -41.45 -25.63 -85.3 -6.96 -26.33 -28.6 -93.78c-2.71,-12.38 9.16,-25.91 17.94,-43.47l66.95 -132.73c0.11,-0.16 3.54,-4.15 5,-6.09l77.1 -152.17c16.13,-32.61 44.22,-78.24 58.31,-108.09 9.26,-21.79 3.42,-710.37 3.42,-754.64 8.97,3.25 6.08,2.49 13.08,9.1l157.17 142.36c21.32,20.12 60.8,69.14 86.16,83.94 21.6,12.61 24.27,20.21 44.94,40.1l101.71 94.28c17.47,17.56 51.08,57.74 72.83,71.39l27.02 21.04 108.22 102.57c25.81,17.86 57.02,54.83 80.3,78.7l20.99 15.99c24.46,14.28 46.52,44.37 67.83,65.29 7.03,6.9 14.76,11.92 18.48,22.2l998.41 0c6.08,-16.78 74.05,-70.78 85.11,-81.29 30.24,-31.01 60.37,-68.26 97.21,-91.38l65.44 -63.99c14.63,-14.62 27.99,-28.57 45.5,-39.55l32.15 -30.71c21.7,-21.71 43.9,-49.99 69.27,-67.55l56.46 -50.78c23.1,-23.11 43.73,-48.08 71.38,-65.43 25.01,-19.41 69.83,-76.91 96.28,-92.32 1.56,-0.91 3.32,-1.61 4.88,-2.52 24.21,-14.13 77.17,-76.17 110.49,-103.98 16.39,-15.64 1.37,-4.98 19.76,-17.22 18.1,-13.01 30.79,-39.89 52.2,-47.64l0 776.55c12.53,4.53 16.45,18.03 23.42,32.04l62.76 125.83c9.32,18.78 14.24,21.35 14.79,22.2l70.35 140.42 30.83 54.22 15.08 29.31c2.17,6.49 6,24.59 4.08,31.49l-9.64 27.61 -51.77 170.1 -34.17 113.74 -36.99 122.01 -7.38 33.3c-9.94,0.22 -4.98,-1 -12.36,2.43 -9.04,4.2 -16.43,17.26 -24.91,23.16 -21.45,16.12 -32.25,29.53 -53.92,42.23 -18.7,10.95 -13.26,13.89 -34.54,28.32l-25.77 22.3 -35.24 27.63c-4.46,4.62 -5.81,6.49 -9.14,9.35l-20.44 12.84c-7.91,5.55 -7.62,11.35 -27.74,24.03 -15.88,9.02 -26.34,26.61 -41.94,35.71 -26.23,14.87 -15.11,14.49 -34.59,28.28l-76.95 63.57c-6.67,5.19 -21.23,13.82 -36.84,29.72 -10.52,10.7 -19.03,10.54 -35.25,27.61 -6.57,6.91 -1.12,2.89 -9.26,9.23l-56.04 43.8c-6.28,3.66 -21.05,23.44 -34.54,28.32l0 36.98c-12.34,4.98 -5.62,10.11 -12.23,32.15l-27.45 127.85c-10.86,34.66 -26.8,127.97 -38.03,172.74 -3.67,14.62 -2.32,20.45 -8.34,39.74l-8.35 32.33c-1.77,6.57 -0.98,6.61 -2.19,12.6l-5.34 16.84c-2.49,9.66 -0.65,14.14 -2.47,23.42l-9.24 35.14c-2.4,7.65 -2.55,-2.02 -4.56,17.62l-14.06 59.9c-1.5,7.64 -0.23,12.82 -1.73,20.46 -2.03,10.34 -1.98,5.89 -2.77,8.32l-23.25 106.18 -14.79 66.56 -3.7 18.48 -61.8 274.7c-12.04,43.78 -16.59,83.9 -30.81,128.21 -4.44,13.83 -2.53,17.35 -2.53,34.44 9.96,-3.61 10.3,-5.33 15.07,-14.51l205.56 -404.58 32.06 -56.7 84.26 -167.19c15.18,-20.95 6.68,-15.29 19.63,-35.83l134 -257.98 78.88 -157.77c9.22,-18.65 21.91,-46.68 41.63,-54.51l86.68 -31.66 26.23 -10.75 39.83 -15.64 28.28 -12.39c6.38,-2 4.98,-0.9 11.44,-3.35l71.22 -28.63 81.85 -32.78 26.23 -10.75 99.49 -41.02c19.34,-8.63 22.61,-16.7 29.55,-29.62l84.85 -140.72c12.22,-22.11 21.53,-28.99 33.48,-51.57l28.21 -49.44 140.52 -229.27 23.59 -39.27c1.13,-1.73 3.75,-4.59 6.52,-8.27l47.54 -78.19c10.3,-20.95 9.68,-11.18 23.36,-39.5l66.23 -107.57 17.65 -30.42 25.84 -37.02 33.32 -59.12 18.49 -29.59 28.54 -49.12c8.84,-10.57 -1.01,-3.17 10.97,-7.51l0 -14.79c-9.72,-3.93 -3.1,-0.03 -10.07,-12.11l-113.95 -181.88c-1.41,-1.89 -4.83,-5.96 -4.96,-6.14l-168.01 -268.33c-15.24,-25.05 -75.43,-111.75 -83.03,-127.74 -10.89,-22.98 -4.55,-388.62 -4.55,-424.4l0 -1316.43c0,-21.26 4.95,-54.75 -3.43,-74.23 -3.45,-8.01 1.14,6.98 -3.97,-7.12l-7.4 0c-5.56,15.35 -87.54,88.13 -103.1,100.27 -24.89,17.89 -57.65,56.69 -79.82,79.19 -16.46,14.79 -27.6,19.93 -48.2,40.54 -26.02,26.02 -50,58.45 -81.93,77.08 -23.31,13.61 -71.48,68.9 -91.74,89.46 -11.59,11.77 -25.75,17.81 -37.11,29.45 -25.26,25.88 -63.07,70.69 -93.02,88.17 -15.65,11.84 -91.09,91.81 -103.67,99.71 -4.79,3 -3.02,1.35 -7.26,3.83l-125.27 115.1c-24.62,25 -59.18,65.16 -84.94,85.16l-124.85 111.81c-26.48,18.33 -56.79,54.94 -80.36,78.64 -22.53,22.66 -33.99,26.62 -61,53.64l-61.32 60.7 -32.99 26.18 -85.05 81.35 -31.46 27.71c-20.64,20.87 -61.7,67.89 -82.05,80.65 -14.8,8.58 -9.31,3.05 -23.37,17.31l-38.78 38.87c-6.95,6.79 -13.01,10.35 -16.63,20.35l-702.59 0c-3.26,-9.02 -2.5,-6.02 -9.09,-13.09l-193.16 -184.02 -28.88 -22.88 -68.39 -68.44c-17.74,-17.84 -22.66,-17.05 -37.1,-29.47 -27.95,-24.04 -53.48,-53.09 -79.37,-79.63 -15.71,-16.1 -31.09,-23.63 -49.94,-42.51 -16.07,-16.09 -63.79,-66.96 -78.91,-76.4l-15.53 -10.35c-31.09,-29 -64.77,-74.98 -100.28,-95.7 -34.78,-20.3 -54.78,-63.52 -88.88,-84.92l-11.93 -6.56c-33.47,-23.26 -80.71,-91.01 -113.8,-111.77 -45.11,-28.31 -77.66,-77.33 -105.92,-97.46l-13.65 -8.54 -129.32 -122.13c-29.52,-30.02 -57.69,-65.12 -93.56,-87.63 -30.93,-19.4 -64.02,-71.34 -103.54,-96.14 -21.05,-13.21 -63.78,-62.18 -82.05,-80.66l-98.02 -86.87 0 1811.94c-10.39,3.76 -10,5.33 -15.06,14.51l-99.96 162.6c-21.97,32.03 -69.88,103.32 -82.13,128.64l-89.92 143.04 -50.59 78.83 -36.25 56.2c-8.75,12.93 -9.72,19.25 -18.06,22.62l0 14.79c11.91,4.31 11.78,10.6 18.95,21.73l96.85 158.3c15.02,27.22 69.69,107.51 79.02,128.05l124.36 204.75 65.26 108.54c13.48,23.62 21.25,26 34.58,54.17 10.05,21.26 67.59,105.05 81.35,133.12l5.11 9.69 90.86 145.79c5.18,8.32 1.47,8.39 10.22,15.67 14.7,12.22 34.99,15.64 49.08,21.18l108.05 43.56 67.2 25.24c0.18,0.08 9.47,5.08 9.64,5.16l238.47 94.33c36.56,11.25 40.15,33.87 57.47,68.26 9.94,19.72 19.27,42.84 32.18,60.26 6.69,9.02 1.99,0.03 5.65,9.14l80.5 159.87 97.38 187.35 149.14 290.9 65.33 123.26 71.49 142.98 35.75 64.1 18.28 37.19c5.58,9.11 -1.12,5.63 8.84,9.65z"/>
   <path class="fil1" d="M17074.76 2640.93c5.01,0 9.22,-0.36 14.15,0.63l57.28 27.77 74.01 33.23 98.6 45.62c25.53,12.97 37.09,14.84 64.11,28.33l24.65 12.33 0 73.96c-80.73,40.36 -170.41,86.15 -251.38,122.09l-22.33 7.26c-33.12,15.24 -27.47,17.49 -59.09,25.95l0 -81.35c7.97,-2.88 11.35,-9.02 34.38,-17.39l39.57 -19.59 0 -147.91 -42.35 -20.51 -22.64 -10.63c-5.71,-4.23 -1.07,-2.98 -8.96,-5.84l0 -73.95zm66.56 -81.36l-66.56 0 0 -258.84 332.8 0 0 251.45 -59.16 0c0,-28.35 0,-56.7 0,-85.05l0.41 -63.28c-2.33,-22.47 3.31,-9.89 -7.81,-14.38 -3.31,-8.19 0.68,-7.73 -29.58,-7.73 -30.2,0 -26.29,-0.43 -29.59,7.73 -9.64,3.9 -5.27,-0.24 -7.48,11l0.09 136.92 -59.17 0 0.42 -133.54c-2.33,-22.47 3.31,-9.89 -7.81,-14.38 -3.89,-9.64 0.25,-5.27 -11,-7.48l-55.56 0.09 0 177.49zm-155.31 939.25c4.59,11.38 -5.06,7.77 40.66,7.42 16.01,-0.13 32.07,-0.02 48.09,-0.02l0 -81.35 199.68 0c-0.53,-23.82 -16.78,-22.43 -46.08,-50.07l-33.29 -25.87c-9.83,-8.9 -0.59,-3.95 -24.17,-12.81l0 -51.77c9.02,-3.27 6.03,-2.5 13.1,-9.1l84.99 -70.31c4.36,-5.69 2.68,-1.68 5.45,-9.34l-174.28 0.48c-21.35,-0.85 -13.81,2.51 -18.01,-7.87 -9.64,-3.9 -5.27,0.24 -7.49,-11.01 -3.73,-19 0.1,-43.81 0.1,-62.95l332.8 0 0 66.56 -66.27 48.36 -69.29 56.44c-11.8,6.94 -15.58,16.74 -27.14,20.93l0 7.39c15.66,0.35 30.91,20.67 49.2,32.16 11.7,7.34 20.81,20.56 32.15,27.01 24.39,14.27 17.86,16.96 41.8,32.16 17.32,10.99 18.29,19.31 39.55,27l0 73.96 1797.15 0 0 -465.93 -1701.01 0 0 -192.28 1701.01 0 0 -391.98 -1701.01 0 0 -177.49 1701.01 0 0 -399.37 -1781.76 0.6c-10.12,3.44 -3.93,-3.27 -7.99,6.8 -11.47,4.63 -7.71,19.81 -7.49,33.19l0.09 292.22 -59.16 0 0 -118.33 -255.25 0.09c-11.24,-2.29 -7.09,2.2 -11,-7.49 -11.7,-4.72 -7.48,4.26 -7.48,-36.98 0,-41.24 -4.22,-32.25 7.48,-36.98 4.07,-10.07 13.47,-7.84 25.6,-7.68l240.65 0.29c0,-20.87 3.96,-88.26 0.09,-107.33 -2.29,-11.24 2.2,-7.09 -7.49,-11 -3.57,-8.86 -10.79,-7.77 -21.78,-7.81 -47.24,-0.17 -305.2,-3.4 -325.53,0.69 -19.61,3.95 6.41,-4.07 -5.7,1.7l-6.08 5.02c-10.05,14.47 -3.3,97.74 -3.3,122.43l0 1434.75c0,13.7 -2.85,30.87 -0.09,44.47 2.29,11.24 -2.2,7.09 7.49,11z"/>
   <path class="fil1" d="M12829.64 2345.1c21.5,-0.48 24.32,-17.26 39.54,-27.02 49.62,-31.78 21.74,-15.5 75.95,-34.99 30.34,-10.93 275.14,-4.55 320.86,-4.55 25.03,0 469.33,-5.78 495.72,3.48l61.53 23.52c12.07,5.98 17.62,14.54 31.96,23.51 27.87,17.41 18.34,14.59 41.22,43.83l40.24 70.69 7.16 37.22c3.16,9.55 6.67,392.8 2.39,422.51l-39.27 104.94c-5.66,8.74 -10.21,9.78 -15.71,17.57 -10.29,15.34 -8.65,18.06 -21.34,26.73 -11.81,8.08 -40.4,32.77 -54.48,37.97l-61.24 20.11 -750.73 3.63c-24.97,0.04 -57.4,-1.33 -80.33,-12.11 -16.01,-7.83 -52.4,-24.31 -64.04,-35.81l-46.06 -46.39 -31.65 -53.39 -18.49 -85.05c0.03,-11.15 0.21,-22.32 0.21,-33.49 0,-63.03 -5.6,-335.23 2.56,-359.83l36.88 -103.64c3.31,-6.75 22.17,-19.11 24.69,-27.08l2.43 -12.36zm1471.74 968.83c0.25,-11.46 4.46,-16.3 12.78,-24.19 4,-4.65 91.58,-127.77 98.16,-149.61 5.6,-18.58 6.86,-15.64 13.17,-31.2l4.19 -14.29c12.97,-36.25 32.34,-89.4 34.64,-128.07l4.59 -39.79c4.78,-14.2 5.5,-430.83 2.39,-452.08 -3.53,-24.13 -7.88,1.72 -7.36,-37.02 0.14,-9.88 1.16,-19.05 -1.4,-28.17l-13.67 -60.28 -6.96 -22.63 -54.35 -126.84c-9.28,-14.24 -19.69,-35.67 -30.71,-46.95 -10.11,-10.35 -15.27,-23.19 -25.89,-33.28 -16.77,-15.94 -12.88,-21.41 -25.73,-33.43l-97.32 -83.88c-22.49,-14.34 -27.92,-21.28 -49.58,-31.76l-109.28 -53.44c-5.2,-1.14 -7.62,-0.69 -12.94,-1.85l-107.09 -26.03c-10.92,-3.67 -17.5,-2.86 -30.7,-2.57l-33.29 -3.7c-23.84,-8.51 -52.21,-3.7 -77.65,-3.7 -91.83,0 -911.13,-4.37 -934.82,0.74 -29.82,6.43 -5.56,5.91 -52.77,6.39l-63.75 10.2c-22.87,7.19 -25.93,5.31 -54.31,15.95l-110.56 44.75 -83.57 53.26c-12.25,8.64 -16.7,17.65 -42.24,35.41 -19.56,13.59 -39.2,38.14 -44.67,47.78 -9.05,15.92 -30.66,32.34 -53.07,68.95 -67.22,110.36 -48.88,76.62 -90.05,209.48 -7.73,24.97 -14.14,92.79 -17.01,101.32 -6.37,18.9 -4.86,424.17 0,438.59l3.27 7.82c5.95,16.99 -3.92,36.98 5.23,61.33 8.71,23.16 25.67,103.54 34.05,124.97l38.67 79.66 35.79 56.65 23.51 31.96 103.4 99.98c13.71,8.05 25.88,22.23 56.73,39.41l27.05 17.33c45.4,24.84 90.68,38.25 140.21,55.77 17.87,6.32 52.68,10.68 69.41,11.95 30.74,2.33 -0.08,3.4 26.05,7.22 34.55,5.06 930.45,-1.18 1083.43,0.31 12.63,0.13 16.47,0.79 26.87,-2.7l38.78 -5.6c17.59,-3.54 0.86,-0.85 10.77,-4.02 13.38,-4.27 23.97,-2.47 37.22,-7.16 88.65,-30.29 68.19,-19.15 150.14,-60.63l73.72 -48.31c18.76,-12.19 36.59,-37.2 46.92,-45.53l29.6 -18.47z"/>
   <path class="fil1" d="M7793.19 3506.22l0 -340.21c0.14,-30.75 6.63,-38.71 -7.4,-44.37 -3.57,-8.85 -10.79,-7.76 -21.78,-7.8l-1431.47 0.41c-24.21,0.01 -37.95,1.74 -60.93,-5.63l-71.06 -28.78c-20.98,-10.28 -36.46,-30.78 -52.91,-46.93l-33.41 -47.94c-10.65,-14.78 -5.08,-14.33 -16.04,-35.73 -13.2,-25.8 -2.64,-37.03 -9.7,-56.86 -8.22,-23.08 -6.13,-374.55 -1.13,-389.4 3.45,-10.26 0.39,6.82 4.08,-10.71 2.98,-14.16 -0.35,-34.55 5.42,-46.35 8.59,-18.67 13.64,-38.9 26.57,-54.78l63.06 -70.06 80.35 -37.99c30.02,-10.81 158.94,-4.55 195.13,-4.55l1264.66 0c14.92,0 33.35,3.1 48.16,0.09 11.24,-2.28 7.09,2.2 11,-7.49 11.38,-4.59 7.77,5.06 7.42,-40.65 -0.76,-98.06 4.11,-234.89 0.46,-325.91 -0.86,-21.36 2.51,-13.82 -7.88,-18.01 -4.56,-11.3 4,-7.94 -36.93,-7.44 -237.84,2.91 -475.89,0.04 -713.73,0.04 -81.26,0 -828.96,-4.55 -853.46,0.74 -21.54,4.64 5.27,1.28 -16.26,5.92 -18.43,3.98 -39.32,-2.49 -57.7,1.47 -17.31,3.73 -1,0.88 -10.71,4.09 -15.28,5.05 -26.2,0.97 -41.87,6.2 -54.11,17.11 -77.75,20.75 -128.12,45.68l-54.26 27.09 -45.01 28.95c-4.77,4.52 -6.35,6.96 -11.77,10.41l-46.76 38.29c-4.25,2.48 -2.47,0.83 -7.26,3.83l-19.34 17.64c-13.41,13.37 -18.93,26.66 -36.97,44.38l-76.71 115.59c-3.56,7.12 -2.35,8.86 -5.27,16.91l-13.57 27.11c-9.85,23.52 -29.81,86.15 -35.22,112.69 -2.98,21.21 -7.96,38.76 -7.79,66.16 0.4,68.64 -5.34,495.21 2.58,518.84 7.17,21.37 2.33,26.25 6.32,41.75l34.11 106.41 44.05 85.37 23.86 35.32 31.31 42.64c15.25,16.35 70.46,75.72 89.61,87.88l172.84 97.1c23.31,8.1 51.67,21.23 76.18,23.67l63.85 10.1c2.56,0.85 2.6,1.39 5.15,2.25 23.92,8.02 1549.24,2.57 1676.25,2.57z"/>
   <path class="fil1" d="M7933.7 3506.22l606.45 0c5.49,-15.17 2.17,-1.03 10.71,-15.18l20.04 -39.13 48.91 -80.5 62.08 -104.33 25.83 -44.43 58.38 -100.62 105.63 -175.41c1.35,-2.76 2.75,-5.56 3.66,-7.43l120.73 -204.69 18.71 -29.35 83.31 -138.57 55.85 -88.36c0.6,26.97 1.56,2.24 19.65,39.51l66.53 110.97 12.54 24.45c20.18,32.54 86.09,149.55 100.97,168.97 13.61,17.77 45.97,80.2 60.33,102.37l14.98 22c30.86,56.64 72.91,121.78 104.62,180.11 17.04,31.36 49.36,78.85 66.56,110.94l89.62 150.73 59.94 102.77c9.51,13.53 5.81,1.65 10.71,15.18l606.44 0c-0.31,-0.87 -1.04,-3.01 -1.23,-2.47 -16.09,-32.18 -44.66,-74.02 -59.15,-103.55 -14.9,-30.33 -10.99,-16.97 -19.81,-31.97l-28.21 -49.44c-21.77,-39.91 -49.81,-76 -71.53,-120.75l-14.05 -22.93c-14.19,-18.92 10.52,16.74 -3.13,-4.27l-73.86 -125.83 -57.01 -98.29 -44.24 -74.09c-12.48,-25.67 -32,-48.63 -44.5,-73.83 -18.13,-36.91 -19.58,-37.79 -46.53,-79.19l-71.77 -120.52 -25.83 -44.44 -87.4 -145.56 -17.21 -34.55 -23.5 -39.37 -107.33 -177.4 -20.54 -34.93 -14.05 -26.62c-1.75,-2.68 -7.91,-9.86 -9.65,-12.54l-35.85 -63.99 -67.59 -113.61 -8.4 -13.79c-10.38,-14.3 -3.41,2.52 -9.07,-13.12l-510.3 0c-4.47,12.36 -4.74,4.95 -14.79,22.19l-39.54 63.99 -43.5 74.84 -18.81 32.96c-1.45,1.94 -4.9,5.95 -5,6.09 -14.15,20.02 -22.78,42.89 -36.24,63.6 -1.74,2.68 -7.9,9.86 -9.65,12.54l-96.14 162.71c-9.85,15.15 -2.89,10.84 -14.05,26.62l-66.17 111.32 -21.06 34.42 -63.99 109.8 -11.1 18.49c-13,27.22 -10.67,13.95 -21.03,34.44 -14.46,28.62 -38.49,64.08 -52.93,91.29 -15.32,32.15 -9.73,11.38 -23.35,39.51l-36.2 63.64c-0.11,0.16 -3.54,4.14 -5,6.09l-30.43 50.92 -110.09 185.74 -17.18 30.89 -29.58 51.77c-7.18,11.29 -18.91,23.55 -28.07,42.19 -27.09,55.17 -42.46,71.7 -70.23,118.36l-33.28 59.17 -12.25 21.02 -46.32 75.72c-5.47,7.92 -4.95,-5.75 -5.46,16.73z"/>
   <path class="fil1" d="M14612 2271.14l835.11 0.6c10.12,3.44 3.93,-3.27 7.99,6.8 7.87,3.17 8.12,-0.52 7.57,29.41 -3.38,183.57 -0.17,396.25 -0.17,580.73 0,205.85 0,411.69 0,617.54l525.09 0 0 -1235.08 850.5 0 0.01 -340.21c0.21,-47.01 4.39,-39.6 -7.4,-44.36 -2.04,-5.06 3.19,-8.07 -25.6,-7.69 -11.23,0.16 -22.32,0.29 -33.57,0.29l-2159.53 0 0 391.97z"/>
   <path class="fil1" d="M9982.31 1886.57l0 7.39c16.94,6.13 39.97,42.47 57.19,61.14l68.59 68.23 18.72 25.65c19.65,28.27 53.74,46.28 73.38,74.54l239.21 263.69c1.84,5.56 1.3,3.41 1.44,9.66l14.79 0c0.43,19.21 3.65,15.51 12.79,24.19l145.93 153.6c25.49,36.68 32.04,39.46 66.86,73.65 14.13,13.87 22.47,28.75 33.21,40.75 8.81,8.58 17.3,17.18 25.94,25.82l48.07 51.77 42.54 46.21c5.72,4.46 1.47,2.75 9.24,5.56l0 687.8 525.09 0 0 -687.8c14.34,-5.19 44.01,-35.51 44.37,-51.77l14.79 0 5.29 -16.9c10.9,-14.84 27.95,-27.4 40.95,-40.4 13.98,-15.41 25.8,-33.69 40.54,-48.21 20.1,-19.8 57.2,-51.07 71.94,-72.27l90.9 -105.09c19.69,-25.36 48.62,-48 72.25,-71.97l12.2 -17.38c19.59,-33.57 61.21,-54.24 81.35,-88.75 9.6,-16.44 50.65,-45.81 68.71,-71.81 11.26,-16.21 7.16,-14.27 22.46,-29.3l69.02 -71.51c23.06,-39.52 68.71,-62.38 91.26,-101.02l94.83 -104.86c11.49,-11.21 21.83,-27.71 37.04,-33.22l0 -7.39c-11.47,-4.16 -4.34,-7.79 -33.07,-7.61l-484.97 3.57c-16.4,6.74 -26.32,19.54 -38.61,31.65 -10.78,12.34 -14.45,22.3 -29.45,37.11l-55.49 55.44c-12.94,12.63 -20,27.77 -33.26,40.71 -22.41,21.87 -45.2,40.1 -62.15,63.57l-28.46 34.41c-17.57,19.3 -39.71,31.27 -55.46,59.16l-68.57 71.95c-9.13,8.68 -12.36,4.98 -12.78,24.2l-14.8 0c-0.54,24.52 -27.82,37.24 -48.07,59.16l-42.51 49.93c-18.65,18.21 -46.03,40.13 -60.74,61.3 -7.51,11.77 -5.51,12.5 -14.93,22.04 -11.31,11.48 -27.88,21.5 -33.43,36.83l-7.4 0c-4.77,-13.17 -29.19,-31.65 -38.81,-42.54 -8.14,-10.48 4.47,7.48 -2.99,-4.41l-54.34 -60.29c-7.03,-7.03 -22.75,-18.41 -27.15,-28.31l-2.43 -12.36 -14.79 0 -3.72 -14.77c-8.32,-14.05 -40.28,-40.62 -53.61,-53.63l-27.57 -35.3c-20.82,-21.11 -54.75,-46.68 -69.15,-71.36 -4.67,-8 -2.97,-8.01 -12.2,-17.38 -21.21,-21.51 -46.3,-40.68 -64.86,-64.58l-70.29 -77.62c-10.31,-9.92 -16.18,-7.96 -16.62,-27.75l-14.79 0 -2.43 -12.36 -58.85 -59.49c-5.71,-7.77 -4.84,2.79 -5.28,-16.9l-14.79 0 -2.43 -12.36c-3.93,-12.08 -29.73,-31.3 -44.21,-37.15 -16.37,-5.63 -39.04,-2.26 -56.9,-2.26 -43.83,0.01 -418.72,-4.31 -443.14,0.6 -20.68,4.16 5.91,4.57 -15.39,6.8z"/>
   <path class="fil1" d="M17207.88 2870.19c22.94,0 27.76,-6.45 51.77,-18.49 25.81,-12.94 28.16,-18.49 51.77,-18.49l0 -14.79 -86.41 -35.62c-7.18,-1.94 -9.6,-1.36 -17.13,-1.36l0 88.75z"/>
   <path class="fil1" d="M1972.8 5007.54c1.27,4.81 -0.97,7.39 7.39,7.39 -2.55,-9.6 1.37,-4.12 -7.39,-7.39z"/>
  </g>
 </g>
</svg>
