<?xml version="1.0" encoding="UTF-8"?>
<!DOCTYPE svg PUBLIC "-//W3C//DTD SVG 1.1//EN" "http://www.w3.org/Graphics/SVG/1.1/DTD/svg11.dtd">
<!-- Creator: CorelDRAW -->
<svg xmlns="http://www.w3.org/2000/svg" xml:space="preserve" width="100%" height="100%" version="1.1" style="shape-rendering:geometricPrecision; text-rendering:geometricPrecision; image-rendering:optimizeQuality; fill-rule:evenodd; clip-rule:evenodd"
viewBox="0 0 6874.24 5316.22"
 xmlns:xlink="http://www.w3.org/1999/xlink"
 xmlns:xodm="http://www.corel.com/coreldraw/odm/2003">
 <defs>
  <style type="text/css">
   <![CDATA[
    .fil3 {fill:#DA241A}
    .fil1 {fill:#090A0C}
    .fil5 {fill:#FEFEFE;fill-rule:nonzero}
    .fil2 {fill:#DA271A;fill-rule:nonzero}
    .fil0 {fill:#DA241A;fill-rule:nonzero}
    .fil4 {fill:#090A0C;fill-rule:nonzero}
   ]]>
  </style>
 </defs>
 <g id="Layer_x0020_1">
  <metadata id="CorelCorpID_0Corel-Layer"/>
  <g id="_2909097315088">
   <polygon class="fil0" points="4383.62,3877.68 2269.89,3877.68 2500.03,2604.27 4606.65,2604.27 "/>
   <g>
    <polygon class="fil1" points="6417.39,2922.62 6473.15,2604.26 6114.79,2604.26 6059.03,2922.62 "/>
    <polygon class="fil1" points="6719.99,3240.97 6775.75,2922.62 6417.39,2922.62 6361.63,3240.97 "/>
    <polygon class="fil1" points="6305.88,3559.32 6361.63,3240.97 6003.27,3240.97 5947.51,3559.32 "/>
    <polygon class="fil1" points="6608.48,3877.68 6664.24,3559.33 6305.88,3559.33 6250.11,3877.68 "/>
    <polygon class="fil1" points="5700.67,2922.62 5756.43,2604.26 5398.07,2604.26 5342.31,2922.62 "/>
    <polygon class="fil1" points="6003.27,3240.97 6059.03,2922.62 5700.67,2922.62 5644.91,3240.97 "/>
    <polygon class="fil1" points="5589.15,3559.32 5644.91,3240.97 5286.55,3240.97 5230.79,3559.32 "/>
    <polygon class="fil1" points="5891.76,3877.68 5947.52,3559.33 5589.15,3559.33 5533.39,3877.68 "/>
    <polygon class="fil1" points="4983.95,2922.62 5039.71,2604.26 4681.34,2604.26 4625.58,2922.62 "/>
    <polygon class="fil1" points="5286.55,3240.97 5342.31,2922.62 4983.95,2922.62 4928.19,3240.97 "/>
    <polygon class="fil1" points="4872.43,3559.32 4928.19,3240.97 4569.83,3240.97 4514.07,3559.32 "/>
    <polygon class="fil1" points="5175.03,3877.68 5230.79,3559.33 4872.43,3559.33 4816.67,3877.68 "/>
   </g>
   <path class="fil2" d="M1966.14 2702.34l-229.82 310.07c-25.8,33.7 -60.57,30.57 -92.49,11.76l-114.54 -62.34 7.69 476.28c3.98,87.02 -59.28,87.02 -83.7,49.39l-177.07 -235.16 -57.23 119.42c-6.94,15.68 -27.98,32.16 -54.39,28.23l-267.54 -55.85 27.09 253.64c5.4,56.44 13.35,79.8 -32.87,94.69l-107.01 44.48 155.68 140.74 1237.62 0 77.77 -444.1 -60.04 53.91c-38.03,37.63 -101.29,37.63 -65.85,-49.39l179.83 -476.28 -137.07 62.34c-38.73,18.81 -74.62,21.94 -88.25,-11.76l-117.81 -310.07z"/>
   <polygon class="fil0" points="45.43,3877.69 539.36,3877.69 769.5,2604.26 268.47,2604.26 "/>
   <polygon class="fil1" points="-0,4105.05 6571.55,4105.05 6593.01,3982.59 21.45,3982.59 "/>
   <polygon class="fil1" points="281.23,2499.36 6852.79,2499.36 6874.24,2376.89 302.68,2376.89 "/>
   <path class="fil3" d="M1833.89 1828.41c-3.52,12.73 -7.07,25.23 -10.73,37.35 -36.72,121.49 -92.99,275.97 -225.7,319.57 -105.39,34.61 -230.46,20.73 -338.35,5.87 -86.6,-11.92 -173.06,-27.08 -259.17,-42.15 -68,-11.9 -135.99,-23.93 -203.98,-35.88 22.44,69.02 44.96,138.05 67.27,207.13l-104.37 0c-33.2,-102.6 -69.44,-213.98 -107.51,-332.7 573.45,98.23 778.16,148.72 915.23,103.71 138.96,-45.65 171.14,-334.2 228.43,-469.83 223.27,276.7 421.8,531.22 570.25,698.82l-131.13 0c-137.03,-159.8 -268.6,-326.56 -400.24,-491.89zm120.41 2347.3c77.32,66.22 167.02,153.09 186.57,226.05 32.19,120.14 -29.33,300.18 -94.88,449.49l1368.76 -204.24 -11.37 570.25 67.48 0 -11.36 -570.25 1368.75 204.24c-65.55,-149.31 -127.06,-329.35 -94.86,-449.5 20.54,-76.66 118.51,-168.67 198.21,-235.95l157.09 -0.52c-144,115.01 -245.3,208.27 -259.72,262.09 -27.56,102.87 41.36,292.72 168,549.12l-1436.2 -214.32 11.04 554.05 -134.69 0 -134.69 0 11.04 -554.05 -1436.2 214.32c126.64,-256.4 195.57,-446.25 168.01,-549.12 -13.96,-52.1 -109.34,-141.16 -246.06,-251.14l155.08 -0.52zm4056.71 -1855.41c22.31,-69.08 44.83,-138.11 67.28,-207.13 -68,11.95 -135.98,23.98 -203.99,35.88 -86.1,15.07 -172.57,30.23 -259.16,42.15 -107.9,14.86 -232.97,28.74 -338.35,-5.87 -132.72,-43.6 -188.99,-198.09 -225.7,-319.58 -3.66,-12.11 -7.22,-24.62 -10.74,-37.35 -131.63,165.34 -263.2,332.1 -400.23,491.9l-131.14 0c148.45,-167.6 346.99,-422.12 570.25,-698.82 57.29,135.63 89.47,424.18 228.44,469.83 137.06,45.01 341.77,-5.48 915.22,-103.71 -38.07,118.72 -74.31,230.1 -107.5,332.7l-104.38 0zm-1869.33 0c4.92,-44.56 11.5,-89.44 18.91,-134.1l100.64 0c-8.28,49.21 -14.99,94.18 -19.8,134.1l-99.75 0zm209.26 -1058.11c6.36,-29.64 12.69,-59.28 18.94,-88.92 12.86,-60.85 25.54,-121.75 37.93,-182.7 -68.66,41.17 -138.62,80.05 -207.71,111.43 -86.98,39.53 -193.66,75.11 -284.43,25.85 -103.45,-56.14 -204.32,-268.41 -254.14,-371.36 -79.44,-164.17 -152.75,-333.19 -224.41,-502.14 -71.66,168.95 -144.96,337.97 -224.41,502.14 -49.81,102.95 -150.69,315.22 -254.14,371.36 -90.76,49.26 -197.45,13.68 -284.43,-25.84 -69.08,-31.39 -139.05,-70.27 -207.7,-111.44 12.38,60.95 25.07,121.84 37.92,182.7 6.51,30.83 13.09,61.66 19.71,92.49l-83.37 83.38c-40.53,-188.42 -81.13,-381.36 -115.24,-563.65 341.95,217.61 501.74,301.07 585.91,255.38 107.27,-58.21 283.52,-468.14 525.75,-1040.87 242.23,572.73 418.49,982.66 525.76,1040.87 84.16,45.69 243.96,-37.77 585.91,-255.38 -28.89,154.33 -62.41,316.31 -96.61,476.7l-101.24 0zm-1718.13 1058.11c-4.81,-39.92 -11.52,-84.89 -19.8,-134.1l100.65 0c7.41,44.66 13.99,89.54 18.9,134.1l-99.75 0z"/>
   <path class="fil4" d="M2343.69 2129.61l216.21 0 48.16 -270.25 162.14 0 91.65 -91.65 61.1 -344.26 -104.57 -104.56 -98.7 0 -31.71 180.94 5.86 0 -28.2 159.8 -164.48 0 -91.66 91.65 -65.8 378.33zm42.13 -35.43l56.66 -325.78 73.34 -73.34 179.53 0 40.71 -230.67 -5.92 0 19.3 -110.07 54.27 0 81.12 81.13 -55.92 315.1 -73.38 73.38 -177.15 0 -48.16 270.25 -144.4 0zm82.28 -531.08l21.37 -122.5 86.27 -86.28 79.43 0 -19.3 110.07 -5.8 0 -17.62 98.71 -144.35 0zm156.28 531.08l20.49 -117.13 145.19 0 -21.24 117.13 -144.44 0zm369.65 0l-81.15 -81.15 100.61 -572.43 86.27 -86.28 92.37 0 -19.3 110.07 -18.71 0 -92.51 519.72 18.9 0 -19.3 110.07 -67.18 0zm161.45 0l19.3 -110.07 17.56 0 92.51 -519.72 -17.73 0 19.3 -110.07 66.01 0 81.15 81.15 -100.63 572.43 -86.28 86.28 -91.19 0zm291.35 0l56.65 -325.78 73.34 -73.34 179.54 0 40.71 -230.67 -5.92 0 19.29 -110.07 54.28 0 81.12 81.13 -55.92 315.1 -73.39 73.38 -177.15 0 -48.16 270.25 -144.39 0zm82.27 -531.08l21.37 -122.5 86.28 -86.28 79.43 0 -19.3 110.07 -5.8 0 -17.62 98.71 -144.36 0zm156.29 531.08l20.49 -117.13 145.19 0 -21.24 117.13 -144.44 0zm529.92 0l19.3 -110.07 16.37 0 40.83 -229.5 -34.13 0 15.38 -87.22 22.84 -22.85 98.72 0 51.78 51.78 -54.79 311.58 -86.28 86.28 -90.02 0zm-160.28 0l-81.14 -81.15 100.61 -572.43 86.27 -86.28 90.02 0 -19.3 110.07 -17.62 0 -91.15 519.72 17.62 0 -19.29 110.07 -66.02 0zm275.09 -559.29l11.76 -70.5 -16.12 0 19.3 -110.07 66.01 0 81.17 81.15 -17.5 99.42 -144.62 0zm-1904.18 63.64l216.19 0 17.62 -98.7 5.88 0 31.73 -180.94 -136.29 0 -104.59 104.56 -30.54 175.08zm156.27 531.08l216.2 0 34.08 -187.99 -217.38 0 -32.9 187.99zm397.14 0l111.62 0 31.73 -180.94 -18.79 0 79.89 -448.84 18.79 0 31.73 -180.94 -149.23 0 -104.56 104.56 -105.74 601.6 104.56 104.56zm133.96 0l148.03 0 104.57 -104.56 105.76 -601.6 -104.57 -104.56 -110.44 0 -31.73 180.94 17.62 0 -79.89 448.84 -17.64 0 -31.71 180.94zm291.38 0l216.21 0 48.16 -270.25 162.15 0 91.65 -91.65 61.09 -344.26 -104.56 -104.56 -98.71 0 -31.71 180.94 5.86 0 -28.19 159.8 -164.49 0 -91.65 91.65 -65.81 378.33zm82.26 -531.08l216.19 0 17.62 -98.7 5.88 0 31.73 -180.94 -136.3 0 -104.58 104.56 -30.54 175.08zm156.26 531.08l216.21 0 34.07 -187.99 -217.37 0 -32.91 187.99zm529.93 0l146.87 0 104.56 -104.56 59.93 -340.74 -75.21 -75.21 -128.07 0 -41.12 41.13 -24.66 139.81 34.07 0 -28.21 158.63 -16.45 0 -31.71 180.94zm-132.78 0l110.45 0 31.73 -180.94 -17.62 0 78.71 -448.84 17.63 0 31.73 -180.94 -146.89 0 -104.57 104.56 -105.74 601.6 104.57 104.56zm247.92 -559.29l216.2 0 25.85 -146.87 -104.58 -104.56 -110.45 0 -31.71 180.94 16.45 0 -11.76 70.49z"/>
   <path class="fil5" d="M2469.07 3758.65l124 0 44.53 -247.58 -52.02 0 97.67 -540.19 52.03 0 44.52 -247.59 -151.08 0 -88.3 154.56 -130.57 726.25 59.22 154.55zm138.96 0l150.38 0 88.29 -154.55 46.68 -255.09 -159.63 0 -29.16 162.06 -52.02 0 -44.54 247.58zm164.65 -628.72l160.34 0 44.26 -252.08 -58.51 -154.56 -124 0 -44.53 247.59 52.02 0 -29.58 159.05zm183.13 628.72l127.56 0 44.53 -247.58 -55.59 0 97.67 -540.19 54.88 0 45.24 -247.59 -154.64 0 -88.3 154.56 -130.57 726.25 59.22 154.55zm141.81 0l153.22 0 89.02 -154.55 130.57 -726.25 -59.22 -154.56 -126.85 0 -44.54 247.59 54.88 0 -97.68 540.19 -54.87 0 -44.53 247.58zm590.07 0l141.11 0 43.95 -241.58 -39.2 0 -5.46 -172.56 88.3 -154.55 56.74 -315.12 -57.37 -151.55 -180.3 0 -41.08 226.58 106.18 0 -38.06 210.07 -105.47 0 -44.24 244.59 68.41 0 6.49 354.12zm-312.85 0l159.64 0 186.02 -1035.36 -158.92 0 -186.74 1035.36zm583.66 0l124 0 44.52 -247.58 -52.02 0 97.67 -540.19 52.03 0 44.53 -247.59 -151.09 0 -88.29 154.56 -130.58 726.25 59.23 154.55zm138.96 0l150.37 0 88.3 -154.55 46.67 -255.09 -159.62 0 -29.16 162.06 -52.03 0 -44.53 247.58zm164.65 -628.72l160.34 0 44.25 -252.08 -58.5 -154.56 -124.01 0 -44.53 247.59 52.03 0 -29.58 159.05z"/>
   <path class="fil4" d="M2476.53 4369.44l58.83 0 1.76 39.1 80.31 0 -21.84 -243.05 -69.04 0 6.34 145.12 -32.41 0 -23.95 58.83zm-101.45 39.1l78.91 0 67.28 -169.08 -1.77 -73.97 -38.74 0 -105.68 243.05zm378.32 -189.86l52.48 0 -10.56 61.29 -53.19 0 -9.52 54.6 102.16 0 35.57 -35.58 17.26 -97.93 -35.57 -35.57 -89.47 0 -9.16 53.19zm-119.77 189.86l78.91 0 42.62 -243.05 -78.55 0 -42.98 243.05zm398.4 0l69.75 0 10.21 -56.71 -19.37 0 -10.92 -40.51 36.28 -36.28 13.03 -73.98 -35.57 -35.57 -89.12 0 -9.51 53.19 52.48 0 -8.81 49.31 -52.13 0 -10.21 57.42 33.81 0 20.08 83.13zm-154.64 0l78.91 0 42.62 -243.05 -78.55 0 -42.98 243.05zm250.1 0l78.55 0 42.98 -243.05 -78.56 0 -42.97 243.05zm113.77 0l78.91 0 42.62 -243.05 -78.55 0 -42.98 243.05zm85.95 0l77.5 0 10.92 -60.23 -77.5 0 -10.92 60.23zm180 0l162.74 0 10.21 -57.42 -42.62 0 32.76 -185.63 -120.12 0 -10.21 57.41 41.56 0 -22.54 128.22 -41.57 0 -10.21 57.42zm298.7 0l77.14 0 35.58 -35.58 15.5 -88.06 -29.94 -29.94 -87.36 0 -14.79 15.15 -7.05 39.8 56.01 0 -7.4 42.62 -28.18 0 -9.51 56.01zm-72.91 0l65.51 0 9.87 -56.01 -28.18 0 22.89 -131.39 28.54 0 9.86 -55.65 -78.2 0 -34.87 34.87 -30.65 172.95 35.23 35.23zm130.68 -168.02l78.55 0 7.4 -40.51 -34.52 -34.52 -66.58 0 -9.51 55.65 27.83 0 -3.17 19.38zm84.19 75.03l101.1 0 10.57 -59.89 -101.1 0 -10.57 59.89zm91.94 92.99l162.74 0 10.21 -57.42 -42.62 0 32.76 -185.63 -120.12 0 -10.21 57.41 41.56 0 -22.54 128.22 -41.57 0 -10.21 57.42zm234.59 -89.47l87.36 0 15.15 -14.8 7.04 -40.15 -56.36 0 7.75 -42.98 27.83 0 9.86 -55.65 -77.49 0 -35.58 35.57 -15.5 88.07 29.94 29.94zm63.05 89.47l78.2 0 34.88 -35.23 30.64 -172.95 -35.22 -34.87 -65.52 0 -9.87 55.65 28.18 0 -23.24 131.74 -28.18 0 -9.87 55.66zm-73.62 0l66.23 0 9.86 -55.66 -27.83 0 3.52 -21.84 -78.55 0 -7.75 42.98 34.52 34.52z"/>
  </g>
 </g>
</svg>
