<?xml version="1.0" encoding="UTF-8"?>
<!DOCTYPE svg PUBLIC "-//W3C//DTD SVG 1.1//EN" "http://www.w3.org/Graphics/SVG/1.1/DTD/svg11.dtd">
<!-- Creator: CorelDRAW -->
<svg xmlns="http://www.w3.org/2000/svg" xml:space="preserve" width="100%" height="100%" version="1.1" style="shape-rendering:geometricPrecision; text-rendering:geometricPrecision; image-rendering:optimizeQuality; fill-rule:evenodd; clip-rule:evenodd"
viewBox="0 0 10159.98 2747.58"
 xmlns:xlink="http://www.w3.org/1999/xlink"
 xmlns:xodm="http://www.corel.com/coreldraw/odm/2003">
 <defs>
  <style type="text/css">
   <![CDATA[
    .fil2 {fill:#090A0C}
    .fil0 {fill:#FBFFFF}
    .fil4 {fill:#FEFEFE;fill-rule:nonzero}
    .fil3 {fill:#DA271A;fill-rule:nonzero}
    .fil1 {fill:#DA241A;fill-rule:nonzero}
   ]]>
  </style>
 </defs>
 <g id="Layer_x0020_1">
  <metadata id="CorelCorpID_0Corel-Layer"/>
  <polygon class="fil0" points="10081.03,451.19 10159.98,0 481.28,0 402.19,451.19 410.2,451.19 87.09,2296.39 79.08,2296.39 -0,2747.58 9678.84,2747.58 9757.79,2296.39 9753.1,2296.39 10076.2,451.19 "/>
  <g id="_2907873587360">
   <polygon class="fil1" points="6433.78,2284.49 3410.48,2284.49 3739.65,463.11 6752.79,463.11 "/>
   <g>
    <polygon class="fil2" points="9342.72,918.44 9422.48,463.1 8909.9,463.1 8830.15,918.44 "/>
    <polygon class="fil2" points="9775.54,1373.79 9855.29,918.45 9342.72,918.45 9262.96,1373.79 "/>
    <polygon class="fil2" points="9183.22,1829.14 9262.97,1373.79 8750.4,1373.79 8670.64,1829.14 "/>
    <polygon class="fil2" points="9616.04,2284.49 9695.79,1829.14 9183.22,1829.14 9103.46,2284.49 "/>
    <polygon class="fil2" points="8317.58,918.44 8397.34,463.1 7884.77,463.1 7805.01,918.44 "/>
    <polygon class="fil2" points="8750.4,1373.79 8830.15,918.45 8317.58,918.45 8237.83,1373.79 "/>
    <polygon class="fil2" points="8158.08,1829.14 8237.83,1373.79 7725.26,1373.79 7645.5,1829.14 "/>
    <polygon class="fil2" points="8590.9,2284.49 8670.65,1829.14 8158.08,1829.14 8078.32,2284.49 "/>
    <polygon class="fil2" points="7292.44,918.44 7372.2,463.09 6859.62,463.09 6779.87,918.44 "/>
    <polygon class="fil2" points="7725.26,1373.79 7805.02,918.45 7292.44,918.45 7212.69,1373.79 "/>
    <polygon class="fil2" points="7132.94,1829.14 7212.7,1373.79 6700.12,1373.79 6620.37,1829.14 "/>
    <polygon class="fil2" points="7565.76,2284.49 7645.51,1829.14 7132.94,1829.14 7053.18,2284.49 "/>
   </g>
   <path class="fil3" d="M2976.02 603.38l-328.71 443.5c-36.9,48.2 -86.63,43.73 -132.3,16.81l-163.83 -89.15 11 681.22c5.7,124.46 -84.78,124.46 -119.71,70.64l-253.27 -336.35 -81.85 170.81c-9.92,22.43 -40.03,45.99 -77.8,40.37l-382.67 -79.87 38.75 362.77c7.73,80.74 19.1,114.16 -47.01,135.44l-153.06 63.63 222.67 201.3 1770.19 0 111.24 -635.2 -85.88 77.1c-54.4,53.82 -144.88,53.82 -94.18,-70.64l257.21 -681.22 -196.05 89.15c-55.4,26.92 -106.74,31.39 -126.23,-16.81l-168.51 -443.5z"/>
   <polygon class="fil1" points="228.8,2284.5 935.28,2284.5 1264.45,463.09 547.82,463.09 "/>
   <polygon class="fil2" points="163.82,2609.7 9563.22,2609.7 9593.91,2434.55 194.51,2434.55 "/>
   <polygon class="fil2" points="566.07,313.05 9965.47,313.05 9996.16,137.89 596.75,137.89 "/>
   <path class="fil4" d="M3695.37 2114.24l177.37 0 63.69 -354.13 -74.41 0 139.7 -772.63 74.41 0 63.69 -354.14 -216.1 0 -126.29 221.07 -186.76 1038.77 84.7 221.06zm198.76 0l215.08 0 126.29 -221.06 66.77 -364.87 -228.32 0 -41.71 231.8 -74.41 0 -63.7 354.13zm235.51 -899.27l229.33 0 63.3 -360.56 -83.69 -221.07 -177.36 0 -63.68 354.14 74.4 0 -42.3 227.49zm261.92 899.27l182.45 0 63.7 -354.13 -79.51 0 139.7 -772.63 78.49 0 64.71 -354.14 -221.19 0 -126.29 221.07 -186.76 1038.77 84.7 221.06zm202.84 0l219.15 0 127.32 -221.06 186.76 -1038.77 -84.7 -221.07 -181.44 0 -63.69 354.14 78.48 0 -139.71 772.63 -78.48 0 -63.69 354.13zm843.99 0l201.82 0 62.86 -345.55 -56.06 0 -7.81 -246.81 126.3 -221.06 81.15 -450.71 -82.06 -216.77 -257.88 0 -58.76 324.09 151.88 0 -54.44 300.47 -150.87 0 -63.27 349.83 97.85 0 9.29 506.51zm-447.48 0l228.33 0 266.07 -1480.9 -227.31 0 -267.09 1480.9zm834.82 0l177.35 0 63.69 -354.13 -74.4 0 139.69 -772.63 74.42 0 63.69 -354.14 -216.1 0 -126.29 221.07 -186.76 1038.77 84.71 221.06zm198.76 0l215.07 0 126.3 -221.06 66.76 -364.87 -228.32 0 -41.71 231.8 -74.41 0 -63.69 354.13zm235.49 -899.27l229.35 0 63.28 -360.56 -83.67 -221.07 -177.37 0 -63.69 354.14 74.41 0 -42.31 227.49z"/>
  </g>
 </g>
</svg>
