<?xml version="1.0" encoding="UTF-8"?><svg id="Layer_1" xmlns="http://www.w3.org/2000/svg" viewBox="0 0 736.12 199.07"><defs><style>.cls-1{fill:#fff;}.cls-2{fill:#ed2224;}.cls-3{fill:#ed1c24;}.cls-4{fill:#fbffff;}.cls-4,.cls-5,.cls-6{fill-rule:evenodd;}.cls-6{fill:#1a091a;}</style></defs><polygon class="cls-4" points="730.4 32.69 736.12 0 34.87 0 29.14 32.69 29.72 32.69 6.31 166.38 5.73 166.38 0 199.07 701.26 199.07 706.98 166.38 706.64 166.38 730.05 32.69 730.4 32.69"/><polygon class="cls-3" points="466.14 165.51 247.11 165.51 270.96 33.56 489.25 33.56 466.14 165.51 466.14 165.51"/><polygon class="cls-4" points="719.75 33.56 496.81 34.64 473.7 166.6 696.64 165.51 719.75 33.56 719.75 33.56"/><g><polygon class="cls-6" points="676.88 66.55 682.66 33.56 645.53 33.56 639.75 66.55 676.88 66.55"/><polygon class="cls-6" points="708.24 99.54 714.02 66.55 676.88 66.55 671.1 99.54 708.24 99.54"/><polygon class="cls-6" points="665.33 132.53 671.1 99.54 633.97 99.54 628.19 132.53 665.33 132.53"/><polygon class="cls-6" points="696.68 165.51 702.46 132.53 665.33 132.53 659.55 165.51 696.68 165.51"/><polygon class="cls-6" points="602.61 66.55 608.39 33.56 571.26 33.56 565.48 66.55 602.61 66.55"/><polygon class="cls-6" points="633.97 99.54 639.75 66.55 602.61 66.55 596.84 99.54 633.97 99.54"/><polygon class="cls-6" points="591.06 132.53 596.84 99.54 559.7 99.54 553.93 132.53 591.06 132.53"/><polygon class="cls-6" points="622.42 165.51 628.19 132.53 591.06 132.53 585.28 165.51 622.42 165.51"/><polygon class="cls-6" points="528.35 66.55 534.12 33.56 496.99 33.56 491.21 66.55 528.35 66.55"/><polygon class="cls-6" points="559.7 99.54 565.48 66.55 528.35 66.55 522.57 99.54 559.7 99.54"/><polygon class="cls-6" points="516.79 132.53 522.57 99.54 485.44 99.54 479.66 132.53 516.79 132.53"/><polygon class="cls-6" points="548.15 165.51 553.93 132.53 516.79 132.53 511.01 165.51 548.15 165.51"/></g><polygon class="cls-1" points="16.61 165.51 237.55 165.51 260.66 33.56 39.72 33.56 16.61 165.51 16.61 165.51"/><path class="cls-2" d="m215.64,43.72l-23.81,32.13c-2.67,3.49-6.28,3.17-9.58,1.22l-11.87-6.46.8,49.35c.41,9.02-6.14,9.02-8.67,5.12l-18.35-24.37-5.93,12.37c-.72,1.62-2.9,3.33-5.64,2.92l-27.72-5.79,2.81,26.28c.56,5.85,1.38,8.27-3.41,9.81l-11.09,4.61,16.13,14.58h128.24l8.06-46.02-6.22,5.59c-3.94,3.9-10.5,3.9-6.82-5.12l18.63-49.35-14.2,6.46c-4.01,1.95-7.73,2.27-9.15-1.22l-12.21-32.13h0Z"/><polygon class="cls-3" points="16.61 165.51 67.79 165.51 91.64 33.56 39.72 33.56 16.61 165.51 16.61 165.51"/><polygon class="cls-5" points="11.91 189.07 692.86 189.07 695.08 176.39 14.13 176.39 11.91 189.07 11.91 189.07"/><path class="cls-1" d="m266.26,146.24h7.5l13.57-75.26,15.06,75.26h7.13l16.89-93.4h-7.5l-13.56,74.45-15.08-74.45h-7.13l-16.89,93.4h0Zm50.39,0h8.38l9.98-27.34h22.89l.4,27.34h8.13l-1.99-93.4h-12.51l-35.28,93.4h0Zm40.55-87.58l.58,52.66h-20.01l19.43-52.66h0Zm66.86,2.03l1.39-7.85h-45.15l-1.51,7.85h18.51l-15.38,85.55h8.38l15.38-85.55h18.38Zm-1.14,85.55h23.38l9.81-10.42,5.54-30.86-7.48-8.26-19.31-4.2-3.68-4.06,3.89-22.2,5.74-6.23h14.13l5.15,5.82-2.07,11.23h8.38l2.5-14.08-9.08-10.15h-22.64l-9.81,10.42-5.12,28.43,7.48,8.26,19.31,4.2,3.8,4.2-4.56,24.5-5.73,6.09h-14.88l-4.9-5.55,2.08-11.51h-8.25l-2.63,14.48,8.96,9.88h0Z"/><polygon class="cls-5" points="41.05 22.69 722 22.69 724.22 10 43.27 10 41.05 22.69 41.05 22.69"/></svg>