<?xml version="1.0" encoding="UTF-8"?><svg id="Layer_1" xmlns="http://www.w3.org/2000/svg" viewBox="0 0 318.07 338.34"><defs><style>.cls-1{fill:#fff;}.cls-2{fill:#ed2224;}.cls-3{fill:#ed1c24;}.cls-4{fill:#fbffff;}.cls-4,.cls-5,.cls-6{fill-rule:evenodd;}.cls-6{fill:#1a091a;}</style></defs><polygon class="cls-6" points="0 338.34 58.49 0 318.07 0 285.61 189.76 259.58 338.34 0 338.34"/><polygon class="cls-4" points="11.88 328.34 66.91 10 306.21 10 275.75 188.07 251.18 328.34 11.88 328.34"/><polygon class="cls-4" points="294.36 20 75.33 20 23.76 318.34 242.78 318.34 265.89 186.39 294.36 20"/><polygon class="cls-3" points="242.78 318.34 23.76 318.34 47.6 186.39 265.89 186.39 242.78 318.34 242.78 318.34"/><polygon class="cls-1" points="52.22 151.96 271.63 151.96 294.74 20 75.33 20 52.22 151.96 52.22 151.96"/><path class="cls-2" d="m249.73,30.17l-23.81,32.13c-2.67,3.49-6.28,3.17-9.58,1.22l-11.87-6.46.8,49.35c.41,9.02-6.14,9.02-8.67,5.12l-18.35-24.37-5.93,12.37c-.72,1.62-2.9,3.33-5.64,2.92l-27.72-5.79,2.81,26.28c.56,5.85,1.38,8.27-3.41,9.81l-11.09,4.61,16.13,14.58h128.24l8.06-46.02-6.22,5.59c-3.94,3.9-10.5,3.9-6.82-5.12l18.63-49.35-14.2,6.46c-4.01,1.95-7.73,2.27-9.15-1.22l-12.21-32.13h0Z"/><polygon class="cls-3" points="52.22 151.96 103.4 151.96 127.25 20 75.33 20 52.22 151.96 52.22 151.96"/><path class="cls-1" d="m42.91,299.06h7.5l13.57-75.26,15.06,75.26h7.13l16.89-93.4h-7.5l-13.56,74.45-15.08-74.45h-7.13l-16.89,93.4h0Zm50.39,0h8.38l9.98-27.34h22.89l.4,27.34h8.13l-1.99-93.4h-12.51l-35.28,93.4h0Zm40.55-87.58l.58,52.66h-20.01l19.43-52.66h0Zm66.86,2.03l1.39-7.85h-45.15l-1.51,7.85h18.51l-15.38,85.55h8.38l15.38-85.55h18.38Zm-1.14,85.55h23.38l9.81-10.42,5.54-30.86-7.48-8.26-19.31-4.2-3.68-4.06,3.89-22.2,5.74-6.23h14.13l5.15,5.82-2.07,11.23h8.38l2.5-14.08-9.08-10.15h-22.64l-9.81,10.42-5.12,28.43,7.48,8.26,19.31,4.2,3.8,4.2-4.56,24.5-5.73,6.09h-14.88l-4.9-5.55,2.08-11.51h-8.25l-2.63,14.48,8.96,9.88h0Z"/><polygon class="cls-5" points="48.92 175.52 267.86 175.52 270.08 162.83 51.14 162.83 48.92 175.52 48.92 175.52"/></svg>