<?xml version="1.0" encoding="UTF-8"?>
<!DOCTYPE svg PUBLIC "-//W3C//DTD SVG 1.0//EN" "http://www.w3.org/TR/2001/REC-SVG-20010904/DTD/svg10.dtd">
<!-- Creator: CorelDRAW -->
<svg xmlns="http://www.w3.org/2000/svg" xml:space="preserve" width="100%" height="100%" version="1.0" shape-rendering="geometricPrecision" text-rendering="geometricPrecision" image-rendering="optimizeQuality" fill-rule="evenodd" clip-rule="evenodd"
viewBox="0 0 19476.5 5267.06"
 xmlns:xlink="http://www.w3.org/1999/xlink"
 xmlns:xodm="http://www.corel.com/coreldraw/odm/2003">
 <g id="Layer_x0020_1">
  <metadata id="CorelCorpID_0Corel-Layer"/>
  <rect fill="none" width="19476.5" height="5267.06"/>
  <g id="_2845123258528">
   <path fill="#ED1C24" d="M9524.81 3958.46c-544.13,-548.93 -764.74,-1118.91 -883.44,-1629.06l-782.45 1217.02 -1828.16 0 645.58 -1003.56 -1137.55 1003.56 -64.61 0c-2171.76,0.47 -2627.35,-719.79 -2627.35,-1323.26 0,-1156.23 1396.46,-1995.17 3320.8,-1995.17l1345.27 0 -87.09 714.99 810.2 -714.99 2742.7 0c1262.46,0 1451.03,417.32 1451.03,665.7 0,301.97 -243.12,871 -1848.24,1336.65 137.36,394.35 407.75,727.9 682.92,1030.83l180.42 198.61 -1846.81 572.36 -72.74 -73.7 -0.48 0.02zm-3462.45 -2688.62c-1232.81,0 -1328.51,547.01 -1328.51,714.99 0,390.52 398.65,528.81 1523.29,528.81l437.4 0 805.43 -1252.41 -113.41 0 -0.96 9.1 -1323.24 0 0 -0.49zm2980.53 435.5c436.45,-147.88 933.21,-323.52 1152.4,-444.11l-867.18 0 -285.71 444.11 0.49 0zm5547.59 1841.55c-2171.27,0 -2626.88,-719.77 -2626.88,-1323.73 0,-1155.76 1396.46,-1995.17 3320.8,-1995.17l1345.27 0 -126.81 1041.85 -1323.26 0c-1232.81,0 -1328.51,547.01 -1328.51,714.99 0,390.52 398.65,528.81 1523.29,528.81l451.76 0 -1171.07 1033.25 -64.59 0z"/>
   <path fill="#1A091A" d="M9597.55 3886.19c-601.57,-606.82 -796.35,-1233.27 -906.9,-1822.88l-887.75 1380.68 -1584.54 0 1469.7 -2285.66 -351.75 0 938.46 -827.91 2703.94 0c857.12,0 1348.13,205.31 1348.13,563.27 0,226.37 -184.24,797.78 -1875.05,1266.77 129.22,456.09 429.28,831.28 736.52,1169.63l72.26 79.44 -1633.85 506.33 -29.19 -29.67 0.02 0zm-799.21 -1990.37c1001.64,-336.43 1607.04,-553.23 1607.04,-703.97 0,-20.1 -51.21,-33.5 -131.14,-33.5l-1002.11 -0.02 -474.26 737.47 0.47 0.02zm5792.14 1548.17c-2086.56,0 -2524.47,-664.26 -2524.47,-1221.32 0,-1096.41 1353.4,-1892.27 3218.39,-1892.27l1229.46 0.02 -101.95 837.03 -1232.31 -0.02c-1328.04,0 -1431.41,625.49 -1431.41,817.4 0,527.87 596.3,631.25 1626.18,631.25l180.91 0 -938.48 827.92 -25.85 -0.01 -0.47 0zm-9116.77 0c-2086.56,0 -2524.47,-664.26 -2524.47,-1221.32 0,-1096.39 1353.4,-1892.25 3218.39,-1892.25l1229.45 0 -101.94 837.03 -1232.78 -0.02c-1328.04,0 -1430.92,625.49 -1430.92,817.4 0,527.87 596.29,631.25 1626.17,631.25l180.9 0 -938.48 827.92 -25.85 -0.01 -0.47 0z"/>
   <path fill="white" d="M6343.75 3376.03l1421.84 0 1418.49 -2206.21 -1421.84 0 -1418.49 2206.21 0 0zm-86.14 -691.04c-1016,0 -1694.62,-95.23 -1694.62,-699.67 0,-317.76 228.29,-885.83 1499.37,-885.83l1172.01 -0.02 85.19 -700.15 -1152.4 0.01c-1813.79,-0.48 -3149.47,770.49 -3149.47,1823.83 0,691.06 709.72,1152.87 2456.02,1152.87l783.41 -691.06 0 0.02 0.49 0zm9116.77 0c-1016,0 -1694.62,-95.23 -1694.62,-699.67 0,-317.76 228.29,-885.83 1499.37,-885.83l1172.01 -0.02 85.19 -700.15 -1152.4 0.01c-1813.79,0 -3149.96,770.98 -3149.96,1824.31 0,691.06 709.72,1152.88 2456.02,1152.88l783.42 -691.06 0.01 0 0.96 -0.47zm-7857.18 -1594.61l2757.53 0c88.54,0 199.56,12.91 199.56,101.45 0,195.26 -461.34,369.46 -1728.12,793.94 120.61,677.19 324.48,1271.57 900.19,1852.55l1491.72 -462.31c-316.34,-347.91 -646.08,-756.14 -769.55,-1263.42 1384.04,-372.81 1889.88,-859.04 1889.88,-1218.45 0,-334.51 -540.3,-494.84 -1280.17,-494.84l-2678.09 0.03 -783.42 691.53 -0.01 0 0.48 -0.48z"/>
   <path fill="white" d="M9655.93 3799.57c-582.89,-595.34 -765.7,-1211.26 -870.99,-1790.81 1301.72,-436.45 1723.32,-597.72 1723.32,-816.91 0,-89.97 -78.48,-135.91 -233.55,-135.91l-2667.05 -0.02 705.89 -623.1 2665.16 0.01c780.06,0 1245.72,172.29 1245.72,460.86 0,330.21 -490.06,815.01 -1864.52,1185.42l-32.07 8.6 8.14 32.54c119.16,489.59 423.54,884.87 741.3,1238.54l-1420.39 440.29 -0.96 0.49zm-3249.96 -457.51l1374.94 -2137.77 1340.95 -0.02 -1374.94 2137.77 -1340.95 0.02zm8171.59 0c-1575.92,-1.92 -2409.12,-388.59 -2409.12,-1118.42 0,-1037.06 1310.33,-1789.85 3115.5,-1789.85l1113.63 0 -77.05 631.72 -1141.88 0c-1423.27,0 -1533.82,703.97 -1533.82,919.81 0,655.16 764.28,729.35 1638.62,733.66l-706.38 623.1 0.5 -0.02zm-9116.78 0c-1575.93,-1.92 -2409.13,-388.59 -2409.13,-1118.42 0.49,-1038.01 1310.33,-1790.34 3115.98,-1790.34l1113.64 0 -77.06 631.72 -1141.85 0c-1423.27,0 -1533.83,703.97 -1533.83,919.81 0,655.16 764.28,729.35 1638.63,733.66l-706.38 623.1 0 0.47z"/>
   <path fill="#1A091A" d="M6541.39 3278.41l1173.95 0 1284.48 -1997.08 -1173.95 0 -1284.48 1997.08 0 0zm607.31 -2276.56l59.82 -491.49 -1034.18 0c-677.66,0 -1417.05,110.55 -2030.59,411.1 -425.44,208.65 -850.41,544.62 -977.71,1022.22 -24.89,93.32 -37.33,189.53 -37.33,286.19 0,975.32 1621.4,1046.15 2312.46,1048.07l547.97 -483.36c-489.1,-7.18 -1163.89,-58.85 -1412.27,-417.32 -79.93,-114.85 -111.52,-247.42 -111.52,-386.21 0,-253.15 117.74,-480.01 310.12,-642.24 339.78,-285.71 867.18,-348.4 1293.58,-348.4l1079.65 0 0 1.44zm7957.21 1793.2c-489.09,-7.18 -1163.89,-58.85 -1412.27,-417.32 -79.93,-114.85 -111.51,-247.42 -111.51,-386.21 0,-253.15 117.73,-480.01 310.11,-642.24 339.78,-285.71 867.18,-348.4 1294.05,-348.4l1079.67 0.02 59.82 -491.5 -1034.18 0c-677.66,0 -1417.05,110.55 -2030.59,411.1 -425.44,208.66 -850.41,544.62 -977.71,1022.22 -24.89,93.32 -37.33,189.53 -37.33,286.19 0,975.32 1621.87,1046.16 2312.46,1048.07l547.97 -483.36 -0.02 0 -0.47 1.43zm-6759.35 -2284.69l-546.52 482.4 2481.38 0c134.49,0 303.9,37.33 303.9,206.27 0,208.17 -292.41,336.43 -451.29,406.3 -398.17,176.12 -844.21,318.73 -1262,457.51 126.34,655.65 337.88,1168.67 811.18,1663.51l1275.38 -395.3c-304.85,-348.88 -573.32,-727.91 -684.83,-1187.34l-23.94 -99.06 98.58 -26.32c468.04,-126.34 1031.8,-314.42 1430.92,-598.68 154.58,-110.07 381.91,-309.16 381.91,-519.25 0,-359.89 -951.89,-390.51 -1175.38,-390.51l-2638.33 -0.02 -0.96 0.49z"/>
   <g>
    <path fill="#ED1C24" fill-rule="nonzero" d="M12727.88 5038.6c-156.97,0 -267.52,-84.71 -313.95,-234.02l25.36 202.91 -29.66 10.53c-32.07,11.48 -89.5,18.66 -150.75,18.66 -291.93,0 -395.78,-204.82 -395.78,-396.73 0,-290.49 211.54,-420.67 421.14,-420.67 71.3,0 121.55,11.96 144.52,23.44l27.77 13.88 -48.82 213.92 -42.11 -15.79c-15.79,-6.22 -34.46,-11.49 -63.65,-11.49 -116.78,0 -141.18,102.9 -141.18,189.04 0,118.2 46.42,178.5 138.3,178.5 22.97,0 53.6,-3.83 72.26,-7.65l39.72 -8.14c-14.36,-49.77 -21.54,-106.24 -21.54,-168.93 0,-203.4 108.17,-408.7 350.32,-408.7 307.73,0 331.66,301.98 331.66,394.82 0,275.19 -121.55,426.89 -342.65,426.89l-1.43 0 0.47 -0.47zm5.26 -598.7c-3.34,0 -7.18,0.95 -12.91,6.69 -23.93,23.93 -38.29,91.88 -37.34,177.08 -1.91,93.8 11.02,161.27 35.42,185.69 4.79,4.79 9.1,7.18 14.83,7.18 18.18,0 44.99,-52.17 44.99,-195.73 0,-124.91 -22.5,-180.43 -44.99,-180.43l0 -0.48zm3540.94 596.78c-86.15,0 -162.71,-16.28 -197.64,-31.11l-28.72 -12.44 41.63 -223.98 45.48 20.09c32.07,14.36 90.92,24.4 140.21,24.4 49.29,0 73.22,-12.91 73.22,-25.36 0,-18.66 -17.71,-31.58 -93.8,-67.95 -127.3,-61.26 -191.91,-141.66 -191.91,-238.81 0,-7.18 0,-14.84 0.96,-22.02l-132.55 0.02 0 570.94 -285.22 0 0 -570.94 -116.31 0c0.47,7.18 0.96,14.83 0.96,22.01 0,90.46 -33.5,163.19 -100.03,216.8 -67.48,52.17 -168.45,71.79 -237.85,73.22l0 258.44 -284.27 -0.02 0 -787.72 33.03 -5.26c56.47,-9.1 132.57,-14.36 203.87,-14.36 119.16,0 213.43,11.01 287.61,64.61 22.5,15.32 41.64,34.92 56.96,57.42l0 -118.69 599.17 0 0 145.97c42.6,-83.28 139.75,-152.66 317.77,-152.66 69.38,0 133.99,15.32 164.63,29.19l28.24 12.92 -45.94 223.02 -45.48 -22.01c-28.72,-13.88 -62.69,-21.06 -100.49,-21.06 -37.81,0 -63.65,11.96 -63.65,23.44 0,6.23 0,18.18 97.15,62.23 156,70.34 188.56,170.36 188.56,242.63 0,159.37 -143.09,266.55 -355.59,266.55l0 0.49zm-1082.04 -477.62c38.76,-3.84 55.04,-22.97 55.04,-62.22 0,-42.11 -17.24,-61.27 -55.04,-62.23l0 124.43 0 0.02zm-1025.1 477.62c-291.94,0 -395.78,-204.82 -395.78,-396.73 0,-290.49 211.54,-420.67 421.14,-420.67 71.3,0 121.55,11.96 144.52,23.44l21.05 10.53 0 -27.28 491.05 0 0 222.54 -205.81 0 0 57.42 196.22 0 0 216.32 -196.22 0.01 0 85.2 220.64 -0.02 0 222.53 -505.86 0 0 -744.18 -42.11 184.24 -42.11 -15.79c-15.79,-6.22 -34.45,-11.49 -63.65,-11.49 -116.77,0 -141.17,102.91 -141.17,189.04 0,118.2 46.41,178.51 138.3,178.51 22.97,0 53.59,-3.84 72.26,-7.65l41.63 -8.14 26.32 212.96 -29.66 10.53c-32.07,11.48 -89.5,18.66 -150.74,18.66l-0.02 0.02zm-2757.53 0c-117.24,0 -208.17,-26.32 -276.61,-80.4 -89.01,-68.44 -138.3,-187.11 -135.45,-326.86 6.23,-302.46 241.2,-410.14 439.81,-410.14 64.61,0 127.77,9.57 168.94,25.36l32.07 12.44 -51.7 221.11 -42.6 -17.24c-22.01,-9.1 -51.69,-13.4 -88.05,-13.4 -112.47,0 -165.1,62.69 -165.1,197.64 0,112.94 44.98,161.76 88.54,171.33l0 -69.39 -65.55 0 0 -213.92 332.13 0.02 0 467.57 -27.77 8.61c-43.55,13.4 -138.3,27.76 -209.13,27.76l0.47 -0.49zm-1634.32 0c-291.93,0 -395.77,-204.82 -395.77,-396.73 0,-290.49 211.53,-420.67 421.13,-420.67 71.31,0 121.55,11.96 144.52,23.44l21.06 10.53 0 -27.28 285.24 0 0 804.47 -285.22 0.02 0 -744.18 -42.11 184.24 -42.11 -15.79c-14.83,-5.75 -33.03,-11.49 -63.65,-11.49 -116.77,0 -141.18,102.9 -141.18,189.04 0,118.2 46.42,178.5 138.3,178.5 22.98,0 53.6,-3.83 72.26,-7.65l41.64 -8.14 26.32 212.97 -29.66 10.53c-32.07,11.48 -89.5,18.66 -150.75,18.66l-0.02 -0.47zm-3607.46 0c-62.7,0 -123.96,-5.26 -160.33,-8.61l-36.38 -3.34 0 -35.42c0,0 0,-746.57 0,-746.57l32.54 -5.26c55.04,-9.1 130.18,-14.37 201.48,-14.37 128.73,0 221.58,24.41 290.98,77.06 87.58,64.61 130.65,170.37 130.65,323.03 0,152.66 -53.13,274.7 -149.32,340.26 -71.3,50.25 -169.41,73.71 -309.15,73.71l-0.47 -0.49zm87.11 -215.35c68.91,-13.87 79.44,-133.04 79.44,-206.27 0,-78.97 -13.88,-172.76 -79.44,-180.9l0 387.17zm-3012.13 215.35c-291.94,0 -395.78,-204.82 -395.78,-396.73 0,-290.49 211.53,-420.67 421.14,-420.67 71.79,0 121.54,11.96 144.52,23.44l27.76 13.88 -48.82 213.92 -42.11 -15.79c-14.83,-5.75 -33.02,-11.49 -63.65,-11.49 -116.77,0 -141.17,102.9 -141.17,189.04 0,118.2 46.41,178.5 138.3,178.5 22.97,0 53.59,-3.83 72.26,-7.65l41.64 -8.14 12.91 104.33 177.08 -672.86 312.52 0 181.85 804.47 -281.39 0 -29.19 -143.09 -81.85 0 -30.62 143.09 -282.84 0 1.92 -7.18c-33.03,8.61 -82.32,13.4 -134,13.4l-0.48 -0.47zm497.72 -356.05l-7.18 -44.52c-3.35,16.75 -6.23,33.03 -8.61,44.52l15.79 0zm9751.36 349.83c0,0 -134.49,-270.86 -135.91,-272.78 0.95,36.84 1.42,73.22 1.42,108.63l0 164.15 -258.9 0 0 -804.47 252.19 -0.02 137.36 282.35c-2.39,-44.98 -3.34,-86.62 -3.34,-125.87l0 -156.5 258.9 0.02 0 804.47 -251.72 0.02zm-2773.81 0c0,0 -134.48,-270.86 -135.91,-272.78 0.96,36.84 1.43,73.22 1.43,108.63l0 164.15 -258.91 0 0 -804.47 252.22 -0.02 137.35 282.35c-2.38,-44.98 -3.34,-86.62 -3.34,-125.87l0 -156.5 258.89 0.02 0 804.47 -251.73 0.02zm-1557.75 0l-29.19 -143.09 -81.83 0 -30.62 143.09 -492.93 0 -11.02 -20.1c-13.4,-23.93 -35.88,-103.84 -48.33,-184.24 -7.18,-47.86 -16.28,-64.12 -24.89,-70.34l0 274.7 -284.26 -0.02 0 -788.21 33.5 -4.79c63.65,-9.1 142.13,-14.36 215.35,-14.36 89.97,0 202.44,7.18 279.49,62.22 63.65,45.47 90.93,101.45 90.93,187.12 0,71.79 -36.38,138.29 -98.11,182.34 31.58,28.72 52.63,69.38 65.08,125.87 9.1,39.72 19.14,80.4 28.72,113.9l175.63 -667.6 312.51 -0.02 181.85 804.47 -281.39 0.02 -0.49 -0.96zm-59.82 -349.83l-7.18 -44.52c-3.34,16.75 -6.22,33.03 -8.61,44.52l15.79 0zm-660.41 -135.45c43.55,-6.22 48.33,-42.59 48.33,-58.85 0,-37.34 -13.88,-53.6 -48.33,-55.51l0 114.38 0 -0.02zm-783.44 485.28l-29.19 -143.09 -81.83 0 -30.62 143.09 -492.95 0 -11.01 -20.1c-13.41,-23.93 -35.89,-103.84 -48.33,-184.24 -7.18,-47.86 -16.28,-64.12 -24.89,-70.34l0 274.7 -284.25 -0.02 0 -788.21 33.5 -4.79c63.65,-9.1 142.13,-14.36 215.35,-14.36 89.97,0 202.44,7.18 279.49,62.22 63.65,45.47 90.93,101.45 90.93,187.12 0,71.79 -36.38,138.29 -98.11,182.34 31.58,28.72 52.64,69.38 65.08,125.87 9.1,39.72 19.14,80.4 28.72,113.9l175.64 -667.6 312.5 -0.02 181.85 804.47 -281.39 0.02 -0.49 -0.96zm-59.81 -349.83l-7.18 -44.52c-3.35,16.75 -6.23,33.03 -8.61,44.52l15.79 0zm-660.44 -135.45c43.55,-6.22 48.33,-42.59 48.33,-58.85 0,-37.34 -13.87,-53.6 -48.33,-55.51l0 114.38 0 -0.02zm-1292.62 485.28c0,0 -134.48,-270.86 -135.91,-273.27 0.96,37.33 1.43,73.71 1.43,109.12l0 164.15 -258.89 0 0 -804.47 252.19 -0.02 137.36 282.35c-2.39,-44.98 -3.34,-86.62 -3.34,-125.87l0 -156.5 258.9 0.02 0 804.47 -251.74 0.02zm-678.6 0l-29.19 -143.09 -81.85 0 -30.62 143.09 -738.92 0 0 -804.47 285.22 -0.02 0 584.81 220.64 0 0 30.16 161.76 -614.97 312.5 0 181.85 804.47 -281.39 0.02zm-59.83 -349.83l-7.18 -44.52c-3.35,16.75 -6.23,33.03 -8.61,44.52l15.79 0z"/>
    <path fill="#1A091A" fill-rule="nonzero" d="M12727.88 5024.24c-202.91,0 -323.99,-148.85 -323.99,-398.66 0,-196.21 103.84,-394.34 336.43,-394.34 294.8,0 317.3,290.97 317.3,380.45 0,266.09 -116.78,412.53 -328.29,412.53l-1.45 0.02zm5.26 -598.71c-8.61,0 -15.79,3.35 -22.97,11.02 -26.81,27.28 -42.6,97.15 -41.64,187.12 -1.91,98.58 12.45,167.98 39.72,195.72 7.65,7.66 15.79,11.49 24.89,11.49 36.85,0 59.35,-78.48 59.35,-210.09 0,-123.95 -21.54,-194.79 -59.35,-194.79l0 -0.47zm3540.94 596.79c-84.23,0 -158.41,-15.79 -191.91,-30.15l-18.17 -8.14 36.37 -194.79 28.72 12.92c33.5,14.83 95.24,25.84 145.97,25.84 53.6,0 87.09,-15.32 87.09,-39.72 0,-27.76 -22.97,-43.06 -101.94,-80.87 -122.04,-58.85 -183.77,-134.95 -183.77,-225.88 0,-114.38 86.15,-247.89 329.74,-247.89 67,0 129.22,14.36 158.88,28.24l18.18 8.14 -39.72 193.82 -28.72 -13.87c-30.63,-14.83 -66.53,-22.5 -106.72,-22.5 -46.41,0 -78.01,15.32 -78.01,37.33 0,15.79 7.65,30.63 105.75,75.14 148.85,67 180.43,161.76 180.43,229.24 0,150.75 -137.36,252.22 -341.7,252.22l-0.47 0.92zm-2107.14 0c-281.41,0 -381.91,-197.64 -381.91,-382.37 0,-280.45 204.36,-406.31 407.27,-406.31 68.91,0 117.73,11.96 137.82,22.01l17.71 8.61 -42.59 187.12 -26.81 -10.05c-17.24,-6.23 -37.33,-12.45 -68.91,-12.45 -100.03,0 -155.54,72.26 -155.54,203.4 0,131.13 52.63,192.87 152.66,192.87 23.93,0 56,-4.31 75.14,-8.14l26.31 -5.27 22.98 186.65 -18.67 6.69c-30.15,11.02 -86.15,17.71 -145.97,17.71l0.51 -0.47zm-1908.06 0c-281.41,0 -381.9,-197.64 -381.9,-382.37 0,-280.45 204.35,-406.31 407.26,-406.31 68.92,0 117.73,11.96 137.83,22.01l17.71 8.61 -42.6 187.12 -26.81 -10.05c-17.23,-6.23 -37.33,-12.45 -68.91,-12.45 -100.02,0 -155.54,72.26 -155.54,203.4 0,131.13 52.64,192.87 152.66,192.87 23.93,0 56,-4.31 75.14,-8.14l26.32 -5.27 22.97 186.65 -18.67 6.69c-30.15,11.02 -86.15,17.71 -145.96,17.71l0.5 -0.47zm-849.94 0c-114.39,0 -201.95,-25.36 -268.01,-77.52 -85.19,-65.57 -132.56,-180.43 -129.68,-315.38 6.22,-292.41 233.06,-396.27 425.93,-396.27 63.18,0 124.42,9.1 163.67,24.4l20.1 7.66 -44.99 192.86 -26.8 -11.01c-23.45,-9.57 -55.04,-14.36 -93.81,-14.36 -120.61,0 -179.46,69.38 -179.46,212 0,142.63 62.69,185.69 117.24,187.12l0 -100.02 -65.55 0.03 0 -185.69 303.89 0 0 443.15 -17.7 5.27c-42.6,12.91 -134.96,26.8 -204.83,26.8l0 0.96zm-1634.32 0c-281.4,0 -381.41,-197.64 -381.41,-382.37 0,-280.45 204.35,-406.31 406.79,-406.31 68.92,0 117.73,11.96 137.83,22.01l17.71 8.61 -42.6 187.12 -26.8 -10.05c-17.24,-6.23 -37.34,-12.45 -68.92,-12.45 -100.02,0 -155.54,72.26 -155.54,203.4 0,131.13 52.64,192.87 152.67,192.87 23.93,0 55.99,-4.31 75.13,-8.14l26.32 -5.27 22.97 186.65 -18.67 6.69c-30.15,11.02 -86.15,17.71 -145.96,17.71l0.48 -0.47zm-3607.46 0c-62.23,0 -122.51,-5.26 -158.89,-8.61l-23.44 -1.92 0 -22.5c0,0 0,-734.12 0,-734.12l21.06 -3.35c54.55,-9.1 128.73,-14.36 199.09,-14.36 125.87,0 215.35,23.44 282.35,74.18 83.74,62.22 124.91,164.14 124.91,311.54 0,147.4 -50.74,265.6 -143.09,328.78 -68.92,48.33 -164.64,71.3 -301.51,71.3l-0.48 -0.94zm76.09 -185.69c67.49,0 104.8,-78.97 104.8,-221.57 0,-89.5 -17.71,-195.73 -103.37,-195.73 0,0 -3.35,0 -4.31,0l0 417.32 3.35 -0.02 -0.47 0zm-3001.11 185.69c-281.41,0 -381.42,-197.64 -381.42,-382.37 0,-280.45 204.36,-406.31 406.79,-406.31 68.92,0 117.74,11.96 137.83,22.01l17.71 8.61 -43.07 187.12 -26.8 -10.05c-17.24,-6.23 -37.34,-12.45 -68.92,-12.45 -100.02,0 -155.53,72.26 -155.53,203.4 0,131.13 52.63,192.87 152.66,192.87 23.93,0 56,-4.31 75.13,-8.14l26.32 -5.27 20.1 162.23 192.87 -733.65 290.47 0.01 175.63 775.77 -251.71 0 -29.19 -143.09 -105.29 0 -30.63 143.09 -252.7 0 3.84 -14.36 -8.61 2.87c-30.16,11.02 -86.16,17.71 -145.97,17.71l0.49 0zm514.45 -327.82l-22.97 -139.75c-2.39,11.96 -27.28,139.75 -27.28,139.75l49.78 0 0.47 0zm11902.55 321.13l0 -570.94 -146.46 0c1.92,11.96 2.88,23.93 2.88,36.37 0,85.67 -32.07,155.07 -94.76,205.79 -67.49,51.69 -169.9,70.34 -237.37,70.34l-5.75 0 0 258.44 -255.54 0 0 -761.4 21.05 -3.35c55.51,-9.1 131.14,-14.36 201.95,-14.36 116.29,0 208.17,10.52 279,61.73 37.81,25.85 64.61,62.69 79.44,106.25l0 -164.64 570.94 0 0 204.83 -157.43 0 0 570.94 -257.01 0 -0.94 0zm-481.93 -442.21c56.47,0 83.75,-25.36 83.75,-77.52 0,-52.17 -23.93,-76.1 -71.31,-76.1 -3.83,0 -8.14,0 -12.44,0.47l0 153.15zm-805.92 442.21l0 -775.77 462.78 0 0 194.3 -205.79 0 0 85.67 196.22 0 0 187.6 -196.22 -0.02 0 113.9 220.64 0.02 0 194.3 -477.14 0 -0.49 0zm-870.99 0l-128.73 -258.44c-10.06,-20.09 -21.55,-44.51 -32.54,-69.87 2.38,62.22 3.83,121.08 3.83,178.51l0 149.78 -230.2 0.02 0 -775.77 228.75 0 133.53 274.7c8.61,17.24 19.62,40.68 31.58,66.04 -5.26,-74.18 -8.14,-139.26 -8.14,-198.6l0 -142.14 230.2 0 0 775.77 -228.75 0 0.47 0zm-2773.81 0l-128.73 -258.44c-10.06,-20.09 -21.54,-44.51 -32.54,-69.87 2.39,62.22 3.84,121.08 3.84,178.51l0 149.78 -230.21 0.02 0 -775.77 228.76 0 133.52 274.7c8.61,17.24 19.63,40.68 31.58,66.04 -5.26,-74.18 -8.14,-139.26 -8.14,-198.6l0 -142.14 230.21 0 0 775.77 -228.76 0 0.47 0zm-747.04 0l0 -775.77 256.99 0 0 775.77 -256.99 0zm-807.83 0l-29.2 -143.09 -105.27 0 -30.62 143.09 -473.32 0 -7.18 -12.92c-12.45,-22.5 -34.46,-101.45 -46.9,-179.46 -12.45,-79.93 -31.11,-85.2 -53.13,-85.67l0 278.05 -255.54 0 0 -761.89 21.54 -2.88c63.18,-9.1 140.71,-14.36 213.44,-14.36 87.58,0 197.64,6.69 270.86,59.82 60.31,43.06 85.2,94.27 85.2,175.16 0,73.7 -40.21,140.21 -108.17,180.89 37.33,27.28 61.26,68.92 75.61,130.18 11.95,54.55 29.19,121.08 43.55,162.23l185.69 -705.42 290.49 0.02 175.63 775.76 -251.73 0 -0.95 0.49zm-54.56 -321.13l-22.97 -139.75c-2.39,12.45 -27.27,139.75 -27.27,139.75l49.77 0 0.47 0zm-689.61 -134.48c55.51,0 75.14,-38.29 75.14,-74.18 0,-45.94 -20.59,-68.44 -65.08,-69.87 -4.31,0 -8.61,0 -11.96,0l0 143.58 1.9 0 0 0.47zm-759.01 456.08l-29.2 -143.09 -105.29 0 -30.62 143.09 -473.32 0 -7.18 -12.92c-12.44,-22.5 -34.46,-101.45 -46.9,-179.46 -12.44,-79.93 -31.11,-85.2 -53.12,-85.67l0 278.05 -255.55 0 0 -761.89 21.55 -2.88c63.18,-9.1 140.7,-14.36 213.43,-14.36 87.58,0 197.64,6.69 270.86,59.82 60.31,43.06 85.2,94.27 85.2,175.16 0,73.71 -40.21,140.21 -108.17,180.89 37.34,27.28 61.27,68.92 75.61,130.18 11.96,54.55 29.19,121.08 43.55,162.23l185.69 -705.42 290.51 0.03 175.63 775.77 -251.73 0 -0.95 0.47zm-54.57 -321.11l-22.98 -139.75c-2.38,11.96 -27.27,139.75 -27.27,139.75l49.78 0 0.47 0zm-689.62 -134.48c55.51,0 75.14,-38.3 75.14,-74.18 0,-45.95 -20.58,-68.45 -65.08,-69.88 -4.3,0 -8.61,0 -11.96,0l0 143.58 1.9 -0.01 0 0.49zm-1271.56 456.08l-128.26 -258.44c-10.06,-20.1 -21.55,-44.51 -33.03,-69.87 2.39,61.73 3.83,121.55 3.83,178.5l0 149.79 -230.18 0.02 0 -775.77 228.75 0 134 274.7c8.61,17.24 19.62,40.68 31.58,66.04 -5.26,-74.18 -8.14,-139.75 -8.14,-198.6l0 -142.14 230.2 0 0 775.77 -228.75 0zm-675.74 0l-29.2 -143.09 -105.28 -0.02 -30.63 143.09 -713.07 0.02 0 -775.77 256.99 0 0 584.81 220.62 0 0 125.88 187.11 -710.69 290.51 0 175.63 775.77 -251.72 0 -0.96 0zm-54.56 -321.13l-22.97 -139.75c-2.38,12.45 -27.27,139.75 -27.27,139.75l49.76 0 0.48 0z"/>
    <path fill="white" fill-rule="nonzero" d="M12727.88 5017.53c-198.6,0 -317.3,-146.44 -317.3,-391.47 0,-192.87 101.95,-387.17 329.25,-387.17 288.11,0 310.59,285.71 310.59,373.29 0,261.3 -113.9,405.35 -321.13,405.35l-1.41 0zm5.26 -598.69c-10.52,0 -19.62,4.31 -28.23,12.92 -28.24,28.72 -44.52,100.49 -43.56,191.91 -1.92,100.49 12.92,171.32 41.64,200.52 9.1,9.1 18.67,13.4 30.15,13.4 42.6,0 66.53,-78.97 66.53,-216.8 0,-75.61 -8.61,-201.95 -66.53,-201.95zm3540.94 596.79c-83.27,0 -156.49,-15.32 -189.03,-29.67l-12.91 -5.75 33.49 -180.42 20.59 9.1c34.45,15.32 97.15,26.31 148.84,26.31 59.35,0 94.27,-17.7 94.27,-46.9 0,-33.5 -29.19,-50.73 -106.24,-87.09 -119.16,-57.43 -179.94,-131.14 -179.94,-219.66 0,-111.02 84.23,-240.73 322.56,-240.73 66.04,0 126.81,14.36 155.54,27.28l12.91 5.75 -36.84 179.47 -20.59 -10.06c-31.58,-15.32 -68.44,-22.97 -109.59,-22.97 -51.7,0 -85.2,17.71 -85.2,44.51 0,19.14 7.66,35.42 109.6,81.83 145.48,65.57 176.12,157.46 176.12,223.02 0,146.44 -134.48,245.04 -334.52,245.04l0.94 0.94zm-2107.14 0c-276.13,0 -374.73,-193.83 -374.73,-375.68 0,-275.66 201.01,-399.13 400.09,-399.13 67.95,0 114.85,11.49 134.95,21.06l12.44 6.22 -39.72 173.71 -19.13 -7.18c-17.71,-6.69 -38.77,-12.91 -71.31,-12.91 -104.8,0 -162.71,74.66 -162.71,210.58 0,135.91 55.04,199.56 159.84,199.56 24.4,0 56.96,-4.31 76.56,-8.14l18.67 -3.84 21.54 173.25 -13.4 4.79c-29.66,10.53 -84.71,17.24 -143.58,17.24l0.49 0.47zm-1908.06 0c-276.12,0 -374.72,-193.83 -374.72,-375.68 0,-275.66 201.01,-399.13 400.08,-399.13 67.96,0 114.86,11.49 134.95,21.06l12.45 6.22 -39.72 173.71 -19.14 -7.18c-17.71,-6.69 -38.76,-12.91 -71.3,-12.91 -104.8,0 -162.72,74.66 -162.72,210.58 0,135.91 55.04,199.56 159.84,199.56 24.4,0 56.96,-4.31 76.57,-8.14l18.66 -3.84 21.55 173.25 -13.41 4.79c-29.66,10.53 -84.7,17.24 -143.58,17.24l0.49 0.47zm-849.94 0c-112.47,0 -198.6,-24.89 -263.7,-76.1 -83.75,-64.12 -130.18,-177.08 -127.3,-309.64 6.22,-287.14 229.24,-389.09 418.75,-389.09 62.22,0 122.5,9.1 161.27,23.93l14.36 5.76 -41.64 178.5 -19.14 -7.65c-24.4,-10.05 -56.95,-14.83 -96.19,-14.83 -125.38,0 -186.64,71.79 -186.64,219.19 0,147.4 67.95,194.3 126.34,194.3l4.79 -0.02 0 -113.9 -65.55 0 0 -171.33 289.53 0 0 430.73 -12.44 3.83c-42.11,12.92 -133.53,26.81 -202.91,26.81l0.47 -0.49zm-1634.32 0c-276.12,0 -374.72,-193.83 -374.72,-375.68 0,-275.66 201.01,-399.13 400.08,-399.13 67.96,0 114.86,11.49 134.96,21.06l12.44 6.22 -39.72 173.71 -19.14 -7.18c-17.71,-6.69 -38.76,-12.91 -71.3,-12.91 -104.8,0 -162.72,74.66 -162.72,210.58 0,135.91 55.52,199.56 159.85,199.56 24.4,0 56.95,-4.31 76.56,-8.14l18.67 -3.84 21.54 173.25 -13.4 4.79c-29.67,10.53 -84.71,17.24 -143.58,17.24l0.48 0.47zm-3607.46 0c-62.23,0 -123,-5.27 -158.89,-8.61l-16.28 -1.43 0 -16.28c0,0 0,-727.9 0,-727.9l14.84 -2.39c53.59,-9.1 127.77,-14.36 198.13,-14.36 123.95,0 212.49,22.97 278.04,72.75 81.83,60.77 122.04,160.8 122.04,306.28 0,145.48 -49.78,261.29 -140.21,322.55 -67.49,47.86 -162.23,69.88 -297.2,69.88l-0.47 -0.49zm76.09 -171.33c72.26,0 111.98,-81.36 111.98,-228.75 0,-92.85 -19.14,-202.91 -110.55,-202.91 -4.31,0 -8.14,0 -11.49,0l0 431.66c3.84,0 7.65,0 10.06,0zm-3001.11 171.33c-276.13,0 -374.73,-193.83 -374.73,-375.68 0,-275.66 201.01,-399.13 400.09,-399.13 67.95,0 114.85,11.49 134.95,21.06l12.44 6.22 -39.72 173.71 -19.14 -7.18c-17.7,-6.69 -38.76,-12.91 -71.3,-12.91 -104.8,0 -162.71,74.66 -162.71,210.58 0,135.91 55.51,199.56 159.84,199.56 24.4,0 56.96,-4.31 76.56,-8.14l18.67 -3.84 21.54 173.25 -13.4 4.79c-29.67,10.53 -84.71,17.24 -143.58,17.24l0.49 0.47zm12424.16 -6.71l0 -570.94 -156.48 0 0 -190.95 556.58 0.01 0 190.96 -157.45 -0.02 0 570.94 -242.65 0zm-737.47 0l0 -748 14.83 -2.39c55.04,-9.1 130.18,-14.36 200.52,-14.36 114.86,0 205.31,10.53 274.7,60.3 56.47,39.25 89.01,103.85 89.01,177.08 0,83.75 -31.11,150.75 -92.36,200.05 -66.04,50.74 -166.55,68.45 -233.06,68.45l-12.91 -0.04 0 258.44 -241.2 0 0.47 0.47zm247.42 -427.85c60.78,0 91.89,-28.23 91.89,-84.7 0,-38.3 -13.41,-83.28 -78.49,-83.28 -6.69,0 -13.4,0.47 -19.62,1.43l0 166.55 6.22 0zm-798.25 427.85l0 -761.4 448.42 0 0 179.93 -205.79 0 0 100.03 196.22 0 0 173.71 -196.22 0 0 128.26 220.62 0 0 179.94 -463.25 0.02 0 -0.49zm-873.87 0l-126.34 -254.6c-14.36,-29.2 -32.07,-67.49 -47.86,-105.29 2.87,60.77 5.75,135.44 5.75,217.27l0 142.62 -215.84 0 0 -761.4 217.27 0 131.61 270.86c12.44,25.36 30.62,63.18 47.86,101.94 -5.76,-67.48 -11.02,-153.15 -11.02,-237.36l0 -135.44 215.84 0 0 761.4 -217.27 0zm-2773.8 0l-126.35 -254.6c-14.36,-29.2 -32.07,-67.49 -47.86,-105.29 2.88,60.77 5.75,135.44 5.75,217.27l0 142.62 -215.84 0 0 -761.4 217.27 0 131.61 270.86c12.44,25.36 30.62,63.18 47.86,101.94 -5.75,-67.48 -11.02,-153.15 -11.02,-237.36l0 -135.44 215.84 0 0 761.4 -217.26 0zm-744.19 0l0 -761.4 242.65 0 0 761.4 -242.65 0zm-809.26 0l-29.19 -143.09 -116.76 0 -30.62 143.09 -463.27 0 -5.26 -9.1c-11.95,-22.01 -33.99,-100.03 -45.94,-177.08 -13.4,-85.19 -34.46,-91.41 -65.08,-91.41l-2.41 0.01 0 278.05 -241.2 0.02 0 -748.49 15.32 -2.39c62.7,-9.1 140.22,-14.36 212.5,-14.36 86.62,0 195.25,6.69 267.05,58.39 58.38,41.63 82.31,90.92 82.31,169.41 0,78.48 -43.06,142.13 -114.38,180.42 41.63,25.85 67.48,67.96 81.82,132.57 15.32,69.87 36.85,149.31 51.7,184.24l189.99 -721.68 278.99 0 172.28 761.4 -237.36 0 -0.49 0zm-51.68 -307.24l-19.13 -117.24c0,0 -10.53,-65.08 -11.49,-72.27 -5.26,28.24 -10.06,55.05 -13.4,72.75l-22.5 116.29 66.99 -0.02 -0.47 0.49zm-697.75 -134.48c60.78,0 82.32,-43.56 82.32,-81.36 0,-50.25 -23.44,-75.14 -71.79,-77.05 -7.65,0 -14.36,0 -19.14,0.95l0 157.46 9.08 0 -0.47 0zm-753.28 441.72l-29.19 -143.09 -116.78 0 -30.62 143.09 -463.26 0 -5.27 -9.1c-11.95,-22.01 -33.98,-100.03 -45.94,-177.08 -13.4,-85.19 -34.46,-91.41 -65.08,-91.41l-2.39 0.01 0 278.05 -241.2 0.02 0 -748.49 15.32 -2.39c62.7,-9.1 140.22,-14.36 212.5,-14.36 86.62,0 195.26,6.69 267.05,58.39 58.38,41.63 82.31,90.92 82.31,169.41 0,78.48 -43.06,142.13 -114.38,180.42 41.63,25.85 67.48,67.96 81.82,132.57 15.33,69.87 36.85,149.31 51.7,184.24l189.99 -721.68 278.99 0 172.28 761.4 -237.36 0 -0.49 0zm-51.68 -307.24l-19.13 -117.24c0,0 -10.53,-65.08 -11.49,-72.27 -5.26,28.24 -10.06,55.05 -13.4,72.75l-22.5 116.29 66.99 -0.02 -0.47 0.49zm-697.77 -134.48c60.78,0 82.32,-43.56 82.32,-81.36 0,-50.25 -23.44,-75.14 -71.79,-77.05 -7.65,0 -14.36,0 -19.14,0.95l0 157.46 9.1 0 -0.49 0zm-1266.77 441.72l-126.34 -254.6c-14.36,-28.73 -32.07,-67.49 -47.86,-105.29 2.87,60.77 5.75,135.44 5.75,217.27l0 142.62 -215.84 0 0 -761.4 217.27 0 131.6 270.86c12.45,25.36 30.63,63.18 47.86,101.94 -5.75,-67.48 -11.01,-153.15 -11.01,-237.36l0 -135.44 215.84 0 0 761.4 -217.27 0zm-674.31 0l-29.19 -143.09 -116.76 0 -30.62 143.09 -700.16 0 0 -761.4 242.63 0 0 584.81 220.61 0 0 173.71 199.57 -758.52 279.02 0 172.28 761.4 -237.38 0zm-51.68 -307.24l-19.13 -117.24c0,0 -10.53,-65.08 -11.49,-72.27 -5.26,28.24 -10.06,55.05 -13.4,72.75l-22.5 116.29 66.99 -0.02 -0.47 0.49zm-1114.6 307.24l-29.19 -143.09 -116.76 0 -30.62 143.09 -237.85 0 200.52 -761.4 279 0 172.29 761.4 -237.39 0zm-51.67 -307.24l-19.14 -117.24c0,0 -10.53,-65.08 -11.49,-72.27 -5.26,28.24 -10.05,55.05 -13.4,72.75l-22.5 116.29 67 -0.02 -0.47 0.49z"/>
    <path fill="#1A091A" fill-rule="nonzero" d="M3380.43 4981.17c-23.93,8.61 -74.66,16.28 -137.82,16.28 -253.65,0 -356.53,-168.94 -356.53,-357.49 0,-268 193.83,-381.41 381.9,-381.41 65.57,0 109.6,11.01 126.82,19.14l-32.07 140.21c-20.1,-7.65 -42.6,-13.87 -77.53,-13.87 -101.45,0 -180.42,67 -180.42,228.28 0,151.71 73.71,217.76 177.55,217.76 25.36,0 58.85,-4.3 79.93,-8.61l17.23 140.22 0.94 -0.51zm276.62 -133.52l-30.62 143.09 -200.52 0 190.95 -725.99 251.24 -0.02 164.14 725.99 -200.52 0.02 -29.19 -143.09 -145.48 0zm129.69 -128.26l-22.5 -137.83c-6.69,-40.68 -18.67,-119.65 -26.81,-164.64l-2.86 0c-9.56,44.99 -22.5,125.88 -30.62,164.64l-26.8 137.83 109.59 0zm337.88 -454.66l207.21 0 0 584.82 220.62 0.01 0 141.18 -427.36 0 0 -725.99 -0.47 -0.02zm698.71 582.92l-30.62 143.09 -200.52 0 190.95 -725.99 251.24 -0.02 164.14 725.99 -200.52 0.02 -29.19 -143.09 -145.48 0zm129.69 -128.26l-22.5 -137.83c-6.7,-40.68 -18.67,-119.65 -26.81,-164.64l-2.86 0c-9.57,44.99 -22.5,125.88 -30.62,164.64l-26.81 137.83 109.6 0zm337.88 271.35l0 -725.99 188.54 -0.02 126.82 260.83c22.5,46.41 65.56,137.83 88.05,193.83l2.89 0c-5.26,-59.35 -20.1,-200.52 -20.1,-336.92l0 -117.25 180.41 0 0 725.99 -188.54 0 -121.55 -244.55c-28.24,-56 -69.39,-151.7 -85.67,-205.78l-2.87 0c3.83,62.69 11.95,183.3 11.95,325.43l0 124.92 -180.42 -0.02 0.49 -0.47zm718.8 -714.99c45.47,-7.65 117.73,-13.87 195.26,-13.87 121.55,0 205.78,22.5 267.05,68.91 80.4,59.35 114.85,156.01 114.85,291.94 0,135.93 -45.47,248.85 -132.09,308.19 -62.69,44.03 -152.19,67 -287.14,67 -61.27,0 -121.55,-5.26 -157.46,-8.61l0 -713.07 -0.47 -0.49zm205.79 583.85c6.69,1.92 18.66,1.92 28.23,1.92 72.26,0 129.69,-67 129.69,-246.46 0,-134.48 -38.76,-220.62 -128.26,-220.62 -10.53,0 -20.1,0 -29.19,3.35l0 462.3 -0.47 -0.49zm477.13 -583.85c60.31,-8.61 136.4,-13.87 209.62,-13.87 99.07,0 193.83,9.57 256.52,55.04 58.86,42.11 74.67,90.45 74.67,155.06 0,70.84 -44.03,144.52 -136.4,178.98l0 2.39c58.85,21.54 88.05,64.61 104.33,135.91 16.28,72.26 42.59,174.67 60.3,202.44l-216.33 0c-10.52,-19.14 -32.07,-94.76 -44.02,-171.33 -13.41,-86.15 -37.34,-106.72 -82.79,-106.72l-20.11 -0.01 0 278.04 -205.79 0.02 0 -714.99 0 -0.96zm205.79 309.16l26.8 0c67,0 100.03,-46.42 100.03,-99.07 0,-52.65 -25.36,-92.85 -89.5,-94.76 -13.4,0 -29.19,0.96 -37.33,4.3l0 189.53zm615.92 262.74l-30.62 143.09 -200.52 0 190.95 -725.99 251.24 -0.02 164.14 725.99 -200.52 0.02 -29.19 -143.09 -145.48 0zm129.69 -128.26l-22.5 -137.83c-6.7,-40.68 -18.67,-119.65 -26.81,-164.64l-2.86 0c-9.57,44.99 -22.5,125.88 -30.62,164.64l-26.81 137.83 109.6 0zm551.8 -443.64c60.3,-8.61 136.4,-13.87 209.62,-13.87 99.06,0 193.83,9.57 256.52,55.04 58.86,42.11 74.66,90.45 74.66,155.06 0,70.84 -44.02,144.52 -136.4,178.98l0 2.39c58.86,21.54 88.06,64.61 104.33,135.91 16.28,72.26 42.6,174.67 60.31,202.44l-216.33 0c-10.53,-19.14 -32.07,-94.76 -44.03,-171.33 -13.4,-86.15 -37.33,-106.72 -82.78,-106.72l-20.12 -0.01 0 278.04 -205.78 0.02 0 -714.99 0 -0.96zm205.78 309.16l26.81 0c67,0 100.02,-46.42 100.02,-99.07 0,-52.65 -25.35,-92.85 -89.49,-94.76 -13.41,0 -29.2,0.96 -37.34,4.3l0 189.53zm615.93 262.74l-30.63 143.09 -200.53 0 190.95 -725.99 251.25 -0.02 164.15 725.99 -200.52 0.02 -29.19 -143.09 -145.48 0zm129.69 -128.26l-22.51 -137.83c-6.69,-40.68 -18.66,-119.65 -26.8,-164.64l-2.86 0c-9.57,44.99 -22.5,125.88 -30.62,164.64l-26.81 137.83 109.6 0zm765.7 261.78c-23.93,8.61 -74.66,16.28 -137.36,16.28 -253.64,0 -356.52,-168.94 -356.52,-357.49 0,-268 193.83,-381.41 381.9,-381.41 65.57,0 109.6,11.01 126.82,19.14l-32.07 140.21c-20.1,-7.65 -42.6,-13.87 -77.53,-13.87 -101.45,0 -180.42,67 -180.42,228.28 0,151.71 73.7,217.76 177.55,217.76 25.35,0 58.85,-4.3 80.4,-8.61l17.23 140.22 0 -0.51zm299.12 -716.44l0 725.99 -207.23 0.02 0 -725.99 207.23 -0.02zm152.19 726.01l0 -725.99 188.55 -0.02 126.81 260.83c22.5,46.41 65.57,137.83 88.05,193.83l2.89 0c-5.26,-59.35 -20.09,-200.52 -20.09,-336.92l0 -117.25 180.41 0 0 725.99 -188.55 0 -121.55 -244.55c-28.24,-56 -69.38,-151.7 -85.66,-205.78l-2.9 0c3.84,62.69 11.96,183.3 11.96,325.43l0 124.92 -180.41 -0.02 0.49 -0.47zm1242.84 -19.16c-38.76,11.96 -128.26,25.85 -197.64,25.85 -113.43,0 -193.83,-25.85 -252.69,-72.26 -82.78,-63.65 -122.99,-173.24 -120.12,-295.28 5.27,-256.52 195.26,-371.85 401.04,-371.85 73.71,0 126.82,11.96 155.07,22.5l-33.5 143.1c-26.8,-11.02 -61.26,-16.28 -102.9,-16.28 -121.55,0 -204.35,63.65 -204.35,236.89 0,153.15 74.66,212.01 144.52,212.01 8.14,0 16.27,0 22.5,-1.92l0 -147.4 -65.57 0 0 -135.91 253.64 0 0 399.61 0 0.94zm789.64 9.59c-23.93,8.61 -74.67,16.28 -137.36,16.28 -253.64,0 -356.52,-168.94 -356.52,-357.49 0,-268 193.82,-381.41 381.9,-381.41 65.57,0 109.59,11.01 126.81,19.14l-32.07 140.21c-20.09,-7.65 -42.59,-13.87 -77.52,-13.87 -101.46,0 -180.43,67 -180.43,228.28 0,151.71 73.71,217.76 177.55,217.76 25.36,0 58.86,-4.3 80.4,-8.61l17.24 140.22 0 -0.51zm331.17 18.18c-227.33,0 -299.1,-193.83 -299.1,-373.77 0,-179.93 93.31,-369.46 311.07,-369.46 244.55,0 292.41,217.76 292.41,355.59 0,274.7 -123,387.64 -303.42,387.64l-1.43 0 0.47 0zm6.71 -144.52c56,0 82.79,-86.15 82.79,-234.98 0,-124.91 -21.55,-219.66 -84.24,-219.66 -62.69,0 -90.92,94.77 -89.5,223.03 -2.87,145.47 29.2,231.63 89.5,231.63l1.45 -0.02zm403.43 135.91l0 -725.99 188.56 -0.02 126.82 260.83c22.5,46.41 65.56,137.83 88.05,193.83l2.87 0c-5.26,-59.35 -20.09,-200.52 -20.09,-336.92l0 -117.25 180.42 0 0 725.99 -188.56 0 -121.55 -244.55c-28.24,-56 -69.39,-151.7 -85.67,-205.78l-2.87 0c3.83,62.69 11.95,183.3 11.95,325.43l0 124.92 -180.4 -0.02 0.47 -0.47zm1166.28 -9.57c-23.93,8.61 -74.67,16.28 -137.36,16.28 -253.65,0 -356.53,-168.94 -356.53,-357.49 0,-268 193.83,-381.41 381.9,-381.41 65.57,0 109.6,11.01 126.82,19.14l-32.07 140.21c-20.1,-7.65 -42.6,-13.87 -77.53,-13.87 -101.45,0 -180.42,67 -180.42,228.28 0,151.71 73.71,217.76 177.55,217.76 25.36,0 58.86,-4.3 80.4,-8.61l17.24 140.22 0 -0.51zm495.8 -298.16l-196.22 0 0 163.68 220.62 0 0 144.52 -427.36 0 0 -725.99 413 0 0 144.52 -205.79 0 0 135.92 196.22 0.01 0 137.83 -0.47 -0.49zm146.92 -407.26c53.6,-8.61 126.82,-13.87 197.65,-13.87 113.43,0 200.52,11.01 264.64,56.96 57.43,39.72 81.36,102.41 81.36,162.71 0,84.24 -33.5,144.52 -85.66,186.16 -58.86,44.99 -152.19,64.61 -221.58,64.61l-30.62 -0.02 0 258.44 -205.8 0 0 -714.99 0.01 0zm205.79 322.07c8.14,0.96 16.28,0.96 23.93,0.96 82.79,0 109.59,-49.78 109.59,-102.41 0,-58.39 -29.19,-101.46 -96.19,-101.46 -13.4,0 -28.23,1.92 -37.33,5.27l0 197.17 0 0.47zm531.69 -177.55l-156.5 0 0 -155.06 521.16 0.01 0 155.07 -157.45 -0.02 0 570.94 -207.21 0 0 -570.94zm434.07 404.88c38.76,17.23 104.33,28.23 156.49,28.23 77.53,0 111.98,-28.23 111.98,-64.61 0,-44.98 -37.33,-65.57 -116.28,-103.37 -145.48,-69.87 -169.9,-149.78 -169.9,-203.4 0,-119.65 96.19,-223.02 304.85,-223.02 61.26,0 120.12,12.92 148.35,25.85l-29.19 143.09c-26.81,-12.91 -65.57,-24.89 -117.73,-24.89 -69.39,0 -102.9,29.2 -102.9,62.7 0,31.11 18.66,51.69 120.12,98.1 124.42,56 165.59,132.57 165.59,206.75 0,136.87 -126.81,227.32 -316.81,227.32 -77.52,0 -149.78,-13.87 -181.85,-28.23l26.81 -144.52 0.47 0z"/>
   </g>
  </g>
 </g>
</svg>
