<?xml version="1.0" encoding="UTF-8"?>
<!DOCTYPE svg PUBLIC "-//W3C//DTD SVG 1.0//EN" "http://www.w3.org/TR/2001/REC-SVG-20010904/DTD/svg10.dtd">
<!-- Creator: CorelDRAW -->
<svg xmlns="http://www.w3.org/2000/svg" xml:space="preserve" width="100%" height="100%" version="1.0" shape-rendering="geometricPrecision" text-rendering="geometricPrecision" image-rendering="optimizeQuality" fill-rule="evenodd" clip-rule="evenodd"
viewBox="0 0 19476.5 5267.06"
 xmlns:xlink="http://www.w3.org/1999/xlink"
 xmlns:xodm="http://www.corel.com/coreldraw/odm/2003">
 <g id="Layer_x0020_1">
  <metadata id="CorelCorpID_0Corel-Layer"/>
  <rect fill="white" width="19476.5" height="5267.06"/>
  <path fill="#FCCB98" fill-rule="nonzero" d="M16236.69 4416.18c-284.79,0 -585.59,-56 -919.48,-171.17 -529.34,-64.3 -918.1,-408.77 -1124.59,-996.65 -18.89,-45.28 -265.7,-660.64 -48.76,-1340.66 117.5,-368.35 267.29,-790.51 558.84,-1139.23 351.9,-420.91 840.01,-634.32 1450.78,-634.32 8.33,0 16.53,0.03 24.93,0.12 12.58,-0.14 26.08,-0.22 40.41,-0.22 312.13,0 1091.05,36.69 1581.2,376.59 616.35,435.34 917.96,957.95 896.91,1553.73 20.24,186.86 28.53,425.77 28.88,435.92l0.04 2.48c-0.18,21.3 -8.45,527.06 -359.24,1046.32 -145.76,286.38 -846.81,664.39 -1268.11,739.08 -66.61,11.81 -132.81,26.14 -202.89,41.29 -187.91,40.65 -400.91,86.72 -658.92,86.72z"/>
  <path fill="black" fill-rule="nonzero" d="M16218.85 76.03c-14.32,0 -27.86,0.08 -40.48,0.21 -8.38,-0.07 -16.57,-0.12 -24.9,-0.12 -335.82,0.02 -638.15,63.03 -898.59,187.26 -226.79,108.16 -427.54,265.59 -596.7,467.9 -298.29,356.77 -450.42,785.21 -569.61,1158.78 -220.69,691.77 25.27,1319.41 49.83,1379.03 213.67,607.01 616.5,963.81 1165.67,1032.76 337.77,115.96 642.93,172.34 932.6,172.34 264.24,0 480.45,-46.76 671.2,-88.02 69.53,-15.05 135.22,-29.24 200.76,-40.86 441.2,-78.21 1149.07,-462.02 1307.99,-766.58 358.56,-532.62 367.08,-1053.48 367.25,-1075.48l0.02 -2.47 -0.08 -2.47c-0.35,-10.17 -8.62,-247.74 -28.74,-436.06 12.51,-381.27 -104.08,-737.58 -346.59,-1059.24 -193.23,-256.27 -420.47,-430.62 -574.58,-539.48l-0.41 -0.29 -0.4 -0.28c-503.62,-349.23 -1296.66,-386.93 -1614.24,-386.93zm0 116.05c322.8,0 1078.14,40.35 1548.1,366.24 269.79,190.56 903.25,678.89 871.84,1508.15 20.57,187.44 29.04,435.79 29.04,435.79 0,0 -4.32,505.62 -351.39,1017.44 -125.85,255.04 -793.5,634.29 -1228.07,711.34 -253.31,44.9 -508.06,127.1 -851.7,127.1 -245.89,0 -537.31,-42.07 -906.39,-170 -696.86,-81.55 -971.65,-641.49 -1083.49,-960.62 0,0 -264.27,-623.19 -47.65,-1302.19 215.29,-674.85 594.8,-1733.07 1954.33,-1733.16 8.35,0 16.57,0.05 24.99,0.13 12.56,-0.14 26.07,-0.22 40.39,-0.22z"/>
  <path fill="#FCCB98" fill-rule="nonzero" d="M14184.65 3785.62c-97.43,0 -225.93,-14.98 -280.63,-32.71 -112.09,-36.36 -187,-183.81 -242.87,-478.07 -22.55,-118.72 -11.93,-205.53 32.5,-265.39 56.95,-76.73 150.19,-86.66 225.1,-94.65 16.84,-1.78 32.73,-3.48 46.88,-5.78 9.36,-1.52 18.65,-2.29 27.65,-2.29 102.53,0 156.78,97.06 166.87,194.16l30.13 35.83 3.21 6.77c0.57,1.21 57.57,121.83 109.25,247.44 106.75,259.46 96.82,307.41 74.33,339.85 -26.66,38.44 -84.21,54.84 -192.41,54.84l-0.01 0z"/>
  <path fill="black" fill-rule="nonzero" d="M13993.28 2848.71c-12.1,0 -24.54,1.02 -36.96,3.04 -12.57,2.04 -27.69,3.65 -43.7,5.36 -77.04,8.21 -193.46,20.61 -265.56,117.77 -54.63,73.58 -68.66,175.26 -42.93,310.78 60.33,317.62 147.29,478.74 281.99,522.44 60.44,19.59 194.36,35.54 298.52,35.54 129.51,0 201.32,-23.86 240.12,-79.81 37.27,-53.75 28.32,-118.39 1.78,-205.25 -15.14,-49.58 -38.73,-113.41 -70.14,-189.72 -52.25,-127.01 -108.12,-245.23 -110.47,-250.2l-6.41 -13.55 -9.66 -11.48 -14.35 -17.07c-17.84,-116.47 -90.21,-227.85 -222.23,-227.85zm0 116.05c104.06,0 110.38,159.1 110.38,159.1l37.38 44.46c0,0 225.33,476.06 188.35,529.39 -15.26,22.01 -74.87,29.88 -144.75,29.88 -99.48,0 -219.79,-15.97 -262.72,-29.88 -73.09,-23.71 -146.17,-130.37 -203.77,-433.69 -57.61,-303.33 135.1,-277.94 256.79,-297.72 6.44,-1.06 12.54,-1.54 18.34,-1.54z"/>
  <path fill="#FCCB98" fill-rule="nonzero" d="M18628.66 3594.39c-93.24,0 -168.52,-47.95 -206.54,-131.55l-8.17 -17.97 4.49 -19.24c32.31,-138.37 105.37,-283.54 169.81,-411.61 53.92,-107.17 109.68,-217.98 107.31,-265.92l-1.37 -27.63 20.61 -18.46c6.42,-5.75 65.13,-56.16 149.42,-56.16 66.01,0 162.15,31.77 245.22,183.15l1.4 2.54 1.12 2.67c60.17,141.49 156.07,489.88 -247.51,676.98 -80.96,54.44 -162.4,83.2 -235.79,83.2z"/>
  <path fill="black" fill-rule="nonzero" d="M18864.21 2587.83l0 0c-103.65,0 -174.9,59.11 -188.12,70.95l-41.22 36.92 2.73 55.28c-0.03,35.94 -58.5,152.13 -101.19,236.97 -65.91,130.96 -140.58,279.39 -174.47,424.49l-8.99 38.47 16.36 35.96c47.85,105.2 142.37,165.54 259.33,165.54 83.79,0 175.01,-31.27 264.35,-90.51 230.29,-108.35 303.5,-269.44 324.22,-386.23 25.06,-141.26 -14.36,-276.01 -51.86,-364.17l-2.26 -5.34 -2.79 -5.07c-96.71,-176.26 -214.4,-213.26 -296.09,-213.26zm-0.01 116.05c56.88,0 128.01,32.12 194.36,153.04 64.39,151.4 128.22,443.37 -222.71,603.55 -72.84,49.79 -145.2,75.89 -207.21,75.89 -68.06,0 -123.64,-31.45 -153.69,-97.53 61.33,-262.61 284.83,-566.81 278.56,-693.6 0,0 46.17,-41.35 110.69,-41.35z"/>
  <path fill="white" fill-rule="nonzero" d="M14892.62 2346.35c-192.73,0 -304.87,-30.85 -342.83,-94.29 -93.78,-156.74 -47.56,-414.89 -1.97,-518.27 50.44,-114.4 223.59,-203.76 396.62,-285.47 79.17,-37.39 199.83,-81.96 325.04,-81.96 133.89,0 311.32,53.6 396.16,308.94 137.89,415 -183.24,578.11 -208.22,590.03 -71.14,36.78 -338.06,81.02 -564.73,81.02l-0.07 0z"/>
  <path fill="black" fill-rule="nonzero" d="M15269.46 1331.55c-131.66,0 -257.49,46.38 -339.89,85.29 -178.97,84.52 -358.34,177.54 -413.61,302.91 -55.65,126.2 -92.88,388.34 3.96,550.19 45.4,75.88 163.83,111.22 372.7,111.22 213.93,0 494.18,-40.9 579.86,-84.43 16.05,-7.54 102.15,-50.99 170.95,-143.21 68.74,-92.15 134.12,-251.81 55.24,-489.2 -91.39,-275.04 -283.85,-332.77 -429.21,-332.77zm0 69.63c143.72,0 289.66,63.95 363.14,285.1 134.37,404.38 -190.75,547.9 -190.75,547.9 -63.14,33.16 -327.97,77.35 -549.23,77.35 -149.25,0 -278.71,-20.14 -312.95,-77.35 -84.97,-142.02 -45.4,-383.4 0,-486.35 45.4,-102.95 217.33,-191.38 379.63,-268.03 73.56,-34.73 191.08,-78.62 310.16,-78.62z"/>
  <path fill="white" fill-rule="nonzero" d="M17410.31 2408.56c-244.67,0 -485.31,-50.41 -628.02,-131.54 -71.92,-40.9 -118.32,-102.05 -137.86,-181.74 -59.57,-242.78 153.91,-577.75 163.03,-591.9l2.23 -3.47 2.99 -2.84c3.38,-3.23 84.05,-78.96 209.74,-90.84 15.87,-1.5 31.89,-2.25 47.61,-2.25 81.88,0 147.41,19.83 210.8,39 12.83,3.89 25.57,7.74 38.34,11.38 169.42,48.34 331.53,122.49 495.59,226.71 210.27,133.56 184.33,256.7 148.45,427.12 -6.29,29.85 -12.8,60.71 -18.65,94.2 -33.43,191.29 -417.33,206.17 -534.22,206.17l-0.03 0z"/>
  <path fill="black" fill-rule="nonzero" d="M17070.03 1369.15c-16.81,0 -33.93,0.81 -50.88,2.42 -137.58,12.99 -226.77,96.74 -230.5,100.3l-5.97 5.71 -4.48 6.94c-9.45,14.66 -230.68,361.88 -167.58,619.06 21.92,89.34 73.88,157.88 154.46,203.69 147.64,83.96 394.89,136.1 645.23,136.1 139.52,0 263.5,-16.23 358.59,-46.97 155.14,-50.17 199.8,-129.93 209.95,-188.02 5.76,-32.9 12.19,-63.46 18.41,-93.01 35.84,-170.19 66.81,-317.18 -163.83,-463.69 -166.96,-106.06 -332.06,-181.55 -504.7,-230.79 -12.61,-3.6 -25.17,-7.4 -37.84,-11.24 -62.73,-18.98 -133.84,-40.5 -220.86,-40.5zm0 69.63c93.08,0 165.94,28.05 239.6,49.07 84.97,24.23 262.68,80.46 486.45,222.61 223.78,142.14 153.53,260.81 114.19,485.93 -21,120.17 -246.45,177.35 -499.96,177.35 -221.39,0 -464.18,-43.61 -610.82,-126.99 -314.55,-178.86 37.23,-724.5 37.23,-724.5 0,0 73.87,-70.48 188.98,-81.35 15.3,-1.46 30.05,-2.12 44.33,-2.12z"/>
  <path fill="#4DA4B8" fill-rule="nonzero" d="M17214.73 2137.42c-178.08,0 -354.84,-72.28 -439.86,-179.87 -45.88,-58.07 -62.13,-122.53 -46.95,-186.38 23.88,-100.49 112.71,-334.22 420.6,-334.22 269.13,0 553.8,175.24 553.8,340.93 0,198.26 -218.73,359.54 -487.59,359.54z"/>
  <path fill="black" fill-rule="nonzero" d="M17148.51 1407.94c-129.99,0 -237.27,40.02 -318.84,118.96 -78.9,76.37 -114.23,171.33 -129.97,237.56 -17.31,72.79 0.81,145.79 52.42,211.08 90.21,114.18 276.13,190.9 462.61,190.9 134.57,0 261.78,-38.28 358.19,-107.77 102.16,-73.63 158.41,-173.35 158.41,-280.79 0,-90.88 -71.28,-185.8 -195.59,-260.41 -115.96,-69.61 -257.11,-109.53 -387.23,-109.53zm0 58.02c253.27,0 524.8,166.08 524.8,311.92 0,182.55 -205.32,330.53 -458.58,330.53 -253.26,0 -500.79,-152.93 -458.59,-330.53 33.82,-142.2 139.11,-311.92 392.37,-311.92z"/>
  <path fill="#4DA4B8" fill-rule="nonzero" d="M15205.85 2072.71c-268.87,0 -487.6,-161.29 -487.6,-359.55 0,-165.68 284.67,-340.92 553.8,-340.92 307.92,0 396.71,233.72 420.59,334.21 15.18,63.84 -1.05,128.3 -46.94,186.38 -85,107.59 -261.77,179.88 -439.85,179.88z"/>
  <path fill="black" fill-rule="nonzero" d="M15272.05 1343.22c-130.11,0 -271.25,39.93 -387.23,109.54 -124.29,74.61 -195.58,169.52 -195.58,260.4 0,107.45 56.26,207.17 158.41,280.8 96.41,69.49 223.61,107.77 358.2,107.77 186.47,0 372.39,-76.72 462.61,-190.9 51.59,-65.31 69.72,-138.29 52.42,-211.09 -15.75,-66.22 -51.09,-161.18 -129.99,-237.55 -81.57,-78.94 -188.84,-118.97 -318.84,-118.97zm0 58.03c253.27,0 358.57,169.71 392.37,311.91 42.22,177.6 -205.31,330.54 -458.57,330.54 -253.27,0 -458.59,-147.98 -458.59,-330.54 0,-145.83 271.54,-311.91 524.79,-311.91z"/>
  <path fill="#4CA4B8" fill-rule="nonzero" d="M15450.1 4506.55c-176.16,0 -667.47,-42.77 -823.47,-237.98 -164.04,-205.25 -280.96,-544.57 -331.24,-772.76 -57.79,-262.27 5.08,-850.08 189.97,-1098.29 -5.01,-20.77 -15.24,-42.16 -25.17,-62.97 -18.87,-39.46 -38.38,-80.28 -19.29,-118.6 17.87,-35.88 60.32,-48.23 90.69,-54.4 36.26,-7.37 60.73,-17.34 91.74,-29.97 81.24,-33.09 192.48,-78.41 607.76,-104.34l5.88 -0.36 5.66 1.59c31.06,8.69 187.21,56.32 211.55,140.19 6.14,21.17 6.93,53.63 -24.11,88.1 -45.69,50.77 -146.27,88.66 -262.74,132.52 -123.21,46.42 -262.88,99.04 -307.94,163.03 -17.08,24.25 -34.25,45.73 -50.84,66.51 -75.2,94.08 -134.6,168.4 -119.97,416.97 17.84,303.2 58.79,729.2 207.61,927.25 129.45,172.3 494.05,270.3 669.26,317.41 22.82,6.13 42.47,11.42 58.06,15.91 86.91,25.02 90.13,73.56 87.47,93.26 -8.73,64.9 -114.75,115.13 -246.62,116.84 -4.56,0.05 -9.34,0.09 -14.26,0.09z"/>
  <path fill="black" fill-rule="nonzero" d="M15240.68 1991.76l-11.76 0.73c-420.95,26.29 -535.26,72.85 -618.72,106.85 -29.32,11.94 -52.47,21.36 -85.53,28.08 -21.62,4.4 -87.41,17.77 -114.93,73 -26.67,53.53 -1.33,106.54 19.04,149.16 6.66,13.94 13.47,28.18 18.28,41.53 -188.1,270.06 -243.55,849.48 -185.68,1112.19 51.09,231.85 170.27,577.07 338.05,787.01 72.37,90.55 213.29,159.05 418.83,203.54 161.85,35.02 329.19,47.5 431.84,47.5 5.07,0 10,-0.03 14.7,-0.1 153.89,-1.98 269.32,-62.43 280.69,-147 3.01,-22.35 3.8,-97.91 -112.35,-131.35 -16.02,-4.61 -35.78,-9.92 -58.64,-16.09 -158.06,-42.48 -528.22,-141.99 -650.48,-304.69 -143.18,-190.54 -183.11,-609.69 -200.69,-908.38 -13.84,-235.22 39.12,-301.49 112.41,-393.19 16.93,-21.18 34.43,-43.08 52.12,-68.2 38.9,-55.23 179.09,-108.04 291.74,-150.48 120.72,-45.49 224.98,-84.76 276.35,-141.81 43.96,-48.82 38.71,-96.83 31.66,-121.09 -14.44,-49.81 -59.94,-91.72 -139.08,-128.12 -48.8,-22.45 -94.57,-35.38 -96.5,-35.91l-11.35 -3.18zm-7.43 70.23c0,0 259.83,72.76 170.95,171.48 -88.89,98.73 -480.08,166.45 -573.28,298.8 -93.18,132.34 -195.82,187.41 -177.09,505.57 18.72,318.14 60.52,741.16 214.52,946.11 154,204.95 608.34,306.35 745.53,345.86 137.19,39.51 33,139.46 -149.97,141.83 -4.42,0.05 -9.05,0.08 -13.81,0.08 -192.27,0 -654.56,-47.54 -796.27,-224.88 -145.23,-181.73 -266.98,-497.72 -324.44,-758.52 -57.47,-260.8 7.25,-849.96 192.98,-1081.77 -11.8,-95.72 -125.76,-182.05 16.16,-210.89 141.92,-28.84 127.52,-98.26 694.72,-133.67z"/>
  <path fill="#4CA4B8" fill-rule="nonzero" d="M17463.96 4459.65c-171.79,0 -362.22,-78.43 -397.63,-142.61l-24.36 -44.2 49.95 -7.08c477.07,-67.82 515.72,-181.05 600.44,-429.12 10.26,-30.08 20.89,-61.2 33.06,-94.7l0.43 -1.13c353.54,-876.22 -267.73,-1164.05 -601.51,-1318.67l-30.95 -14.37c-52.96,-24.72 -122.15,-64.44 -111.56,-123.78 9.61,-53.84 82.62,-90.95 236.71,-120.33 100.28,-19.13 196.89,-27.32 200.97,-27.66 10.45,-1.2 23.07,-1.88 36.44,-1.88 72.82,0 162.95,19.16 258.38,39.45 41.27,8.77 83.93,17.84 124.82,25.17 94.32,16.91 126.67,61.72 137.21,96.32 16.68,54.76 -12.15,107.78 -41.9,136.52 -13.72,13.27 12.21,73.32 42.84,114.21l2.04 2.73 1.5 3.09c1,2.08 100.96,210.02 224.64,448.64 141.46,272.95 14.27,836.51 -12.66,946.7 -45.89,187.74 -386.33,444.22 -606.95,498.64 -37.83,9.33 -78.84,14.06 -121.9,14.06l-0.01 0z"/>
  <path fill="black" fill-rule="nonzero" d="M17455.95 2099.31c-14.27,0 -27.85,0.71 -40.39,2.09 -11.52,0.99 -105.86,9.42 -203.55,28.06 -172.66,32.93 -251.76,77.32 -264.45,148.41 -16.53,92.55 94.6,144.4 131.11,161.44 10.02,4.67 20.37,9.48 31.05,14.42 168.41,78.02 399.06,184.88 547.02,379.1 175.05,229.78 187.1,522.53 36.85,894.96l-0.47 1.12 -0.42 1.15c-12.29,33.83 -22.96,65.09 -33.3,95.35 -84.75,248.19 -116.47,341.07 -572.39,405.87l-99.89 14.2 48.73 88.36c45.54,82.56 253.59,160.63 428.12,160.63 45.87,0 89.68,-5.08 130.24,-15.07 211.92,-52.3 579.56,-307.92 632.42,-524.17 27.46,-112.32 156.95,-686.98 9.76,-971 -123.41,-238.11 -223.17,-445.62 -224.17,-447.69l-2.98 -6.21 -4.15 -5.5c-18.22,-24.46 -35.64,-59.13 -38.76,-76.04 42.87,-46.33 59.87,-109.55 43.33,-163.87 -13.34,-43.9 -52.72,-100.43 -164.35,-120.45 -40.37,-7.24 -82.77,-16.26 -123.76,-24.96 -97.26,-20.67 -189.14,-40.2 -265.6,-40.2zm0 69.63c100.56,0 244.33,40.27 377.06,64.07 148.31,26.59 124.32,128.05 77.25,173.53 -47.07,45.5 39.2,160.15 39.2,160.15 0,0 99.73,207.66 225.11,449.58 125.38,241.92 27.87,744.65 -15.58,922.43 -43.46,177.77 -377.29,422.72 -581.45,473.08 -36.98,9.13 -75.34,13.06 -113.57,13.06 -172.86,0 -342.77,-80.4 -367.15,-124.63 555.62,-78.97 544.63,-225.23 661.32,-546.38 377.45,-935.47 -324.1,-1225.51 -650.03,-1377.62 -325.92,-152.1 314.28,-205.51 314.28,-205.51 10.54,-1.2 21.75,-1.76 33.56,-1.76z"/>
  <path fill="black" fill-rule="nonzero" d="M15860.61 2450.45c0,0 191.66,-43.91 258.56,-112.02 -50.19,-113.08 -95.21,-63.43 -139.11,-42.86 -51.25,24.03 -114.41,-26.59 -144.05,110.97 -8.85,31.77 24.6,43.91 24.6,43.91z"/>
  <path fill="black" fill-rule="nonzero" d="M14794.28 1200.9c0,0 30.65,-52.34 120.17,-74.32 89.53,-21.98 181.26,-33.89 181.26,-33.89l54.95 0.93c0,0 31.82,-66.43 78.48,-69.26 46.65,-2.84 89.83,-6.82 89.83,-6.82l9.83 30.76 -41.09 46.33 -48.39 5.52 -159.3 100.75 -285.74 0z"/>
  <path fill="black" fill-rule="nonzero" d="M17143.23 1046.08c-3.51,42.97 12.15,37.12 29,43.74 16.85,6.63 78.91,23.83 168.76,82.27 73.55,31.82 123.38,52.31 180.69,41.3 59.93,21.15 97.31,30.36 97.31,30.36l96.12 22.08 28.33 6.92 -28.33 -56.19 -60.57 -6.03c0,0 -16.11,-13.11 -63.98,-56.93 -47.87,-43.82 -90.83,-58.62 -170.09,-57.15 -55.63,-6.68 -118.35,-28.98 -162.4,-47.12 -33.96,-13.99 -111.33,-46.21 -114.84,-3.25z"/>
  <path fill="black" fill-rule="nonzero" d="M14194.02 3246.84c0,0 -154.83,-76.47 -339.27,-67.5 2.97,-56.21 62.69,-105.1 97.66,-98.41 34.96,6.69 71.98,39.98 71.98,39.98l50.97 18.86 50.52 0.67 25.07 0 54.92 51.59 -11.85 54.81z"/>
  <path fill="black" fill-rule="nonzero" d="M18580.76 3123.86c0,0 37.93,-157.78 178.69,-167.41 78.76,9.85 170.89,77.53 170.89,77.53l-21.62 -105.37 -36.12 -9.03 -55.42 -19.24 -42.13 -1.72 -28.98 10.44 -44.31 4.45 -40.79 2.95 -51.17 40.01 -29.04 54.76 -30.9 62.27 30.9 50.36z"/>
  <path fill="black" fill-rule="nonzero" d="M14982.85 1463.65c0,0 112.7,214.79 -124.86,376.28 27.79,38.92 -79.49,22.52 78.88,41.75 158.36,19.24 319.26,26.88 394.72,-57.26 75.45,-84.14 169.53,-196.9 92.46,-251.1 -77.09,-54.2 -126.97,-91.83 -206.79,-111.17 -79.81,-19.35 -160.92,-8.49 -234.41,1.5z"/>
  <path fill="black" fill-rule="nonzero" d="M17106.62 1543.21c0,0 286.67,141.89 28.62,280.1 -118.07,3.26 -261.18,0 -261.18,0 0,0 -58.04,133.9 78.27,139.74 136.32,5.82 557.26,67.75 583.08,-123.14 180.86,-268.9 -124.42,-349.06 -124.42,-349.06l-128.22 -22.01 -88.03 0 -88.12 74.37z"/>
  <path fill="black" fill-rule="nonzero" d="M15326.97 3141.16c0,0 944.27,-10.48 1034.66,15.74 90.39,26.23 459.57,150.67 525.94,483.34 62.41,312.82 -21.19,368.45 -21.19,368.45 0,0 -49.62,68.53 -247.52,52.69 -296.01,-23.68 -687.29,-2.47 -687.29,-2.47 0,0 -75.62,6.89 -256.86,-8 -181.26,-14.89 -282.75,-42.6 -359.18,-249.73 -76.44,-207.13 -293.15,-613.12 11.44,-660.02z"/>
  <path fill="#B2533D" fill-rule="nonzero" d="M15636.72 3921.12c0,0 116.91,-70.78 175.69,-87.17 58.77,-16.39 146.24,-37.47 316.2,-109.39 169.94,-71.91 377.56,-162.44 490.26,-160.08 112.71,2.36 162.58,32.31 220.22,90.66 57.67,58.37 112.29,325.06 34.62,436.53 -77.7,111.47 -179.24,9.72 -179.24,9.72 0,0 -294.83,-209.91 -494.75,-201.95 -199.94,7.95 -271.62,-3.02 -319.02,18.86 -47.39,21.89 -184.01,71.9 -243.98,2.82z"/>
  <path fill="black" fill-rule="nonzero" d="M16140.23 4611.44l78.62 0c367.62,0 735.26,-0.01 1102.89,0.05 23.82,0 47.74,-0.54 71.51,1.01 62.91,4.1 93.44,37.38 92.78,99.56 -0.82,77.88 -53.92,121.11 -151.25,121.15 -580.25,0.22 -1160.51,0.2 -1740.77,0.04 -110.19,-0.02 -150.16,-39.71 -150.85,-151.05 -0.83,-133.14 -0.75,-266.29 -0.04,-399.42 0.59,-115.59 33.45,-147.5 149.5,-147.51 709.42,-0.06 1418.84,-0.03 2128.25,-0.03l74.04 0 0 -255.87 -69.85 0c-753.13,0.01 -1506.26,0 -2259.4,0.05 -23.85,0 -47.86,-1.18 -71.5,1.11 -166.49,16.03 -263.3,136.41 -259.96,270.85 5.58,224.42 2.25,449.07 1.31,673.62 -0.46,115.8 57.94,192.8 160.11,234.12 48.27,19.53 103.97,28.41 156.39,28.7 415.31,2.24 830.63,1.26 1245.96,1.25 264.28,0 528.58,0.78 792.87,-0.3 171.67,-0.71 287.67,-88.55 303.8,-239.67 9.41,-88.1 3.47,-178.39 -1.54,-267.35 -5.2,-92.11 -59.32,-156.85 -141.07,-190.67 -51.52,-21.32 -110.54,-33.7 -166.31,-34.05 -427.22,-2.72 -854.46,-1.57 -1281.71,-1.35 -20.95,0.01 -41.88,2.49 -63.78,3.87l0 251.89zm-13430.1 -364.33c-0.01,-2.3 -0.02,-4.59 -0.03,-6.89l-1816.38 0c0.01,2.3 0.02,4.59 0.03,6.89l1816.38 0zm-938.02 -111.84c307.92,0.02 615.83,-0.38 923.75,0.27 94,0.18 128.87,40.25 123.14,133.26 -2.56,41.71 -22.75,67.41 -62.4,75.73 -28.86,6.06 -58.72,10.5 -88.13,10.52 -605.9,0.59 -1211.8,-0.43 -1817.67,1.77 -61.88,0.24 -77.65,-19.73 -76.42,-78.49 2.96,-143.04 0.41,-143.1 145.52,-143.1 284.07,0 568.14,0 852.21,0.04zm1358.27 953.73c-77.71,-166.32 -150.39,-321.82 -222.41,-475.97 7.94,-6.42 10.6,-9.68 14.01,-11.16 10.93,-4.67 22.14,-8.75 33.26,-12.98 98.84,-37.65 166.84,-103.19 172.38,-213.13 4.58,-90.86 3.59,-182.54 -3.02,-273.28 -6.46,-88.65 -59.68,-152.68 -139.51,-185.68 -51.7,-21.37 -110.47,-35.69 -166.12,-35.86 -761.11,-2.29 -1522.21,-1.58 -2283.33,-1.43 -20.99,0.02 -41.99,2.13 -62.48,3.24l0 1202.79 298.96 0c1.27,-24.49 3.26,-45.78 3.32,-67.07 0.34,-115.27 1.53,-230.54 -0.47,-345.77 -0.77,-44.49 10.71,-62.46 60.08,-62.31 558.42,1.7 1116.82,1.42 1675.23,0.28 37.02,-0.08 57.02,12.18 73.86,44.65 68.53,132.13 138.79,263.39 210.9,393.59 9.62,17.37 32.93,37.55 50.68,38.3 91.06,3.86 182.37,1.79 284.66,1.79zm-2250.48 -373.36c0,111.8 0.31,220.71 -0.08,329.62 -0.37,106.75 -36.28,142.53 -143.36,143.07 -81.42,0.42 -162.88,1.09 -244.29,-0.21 -85.31,-1.36 -125.61,-39.65 -125.8,-123.39 -0.87,-387.29 -1.05,-774.6 0.12,-1161.9 0.27,-92.24 34.51,-124.76 128.37,-124.83 778.57,-0.51 1557.15,-2.02 2335.72,0.87 254.3,0.95 401.47,156.74 401.62,408.98 0.03,33.76 0,67.53 0,101.29 -0.03,194 -33.25,261.25 -188.89,376.14 54.71,117 104.77,237.92 166.81,352.36 49.13,90.63 -0.73,173.53 -106.13,171.16 -85.38,-1.92 -170.82,-1.01 -256.22,-0.17 -63.24,0.63 -108.59,-22.4 -138.64,-81.89 -60.85,-120.36 -125.09,-239.1 -191.11,-356.73 -10.05,-17.89 -37.17,-37.25 -56.46,-37.32 -518.4,-1.95 -1036.77,-1.47 -1555.16,-1.28 -5.72,0 -11.45,1.77 -26.5,4.23zm2501.61 373.43c120.96,0 228.02,2.39 334.82,-1.64 27.73,-1.03 60.64,-15.84 80.99,-35.08 76.44,-72.35 147.06,-150.86 223.57,-223.14 20.55,-19.42 54.11,-35.29 81.8,-35.44 403.4,-2.25 806.83,-2.24 1210.23,0 27.69,0.15 61.35,15.87 81.79,35.31 77.69,73.9 150.67,152.76 226.55,228.62 13.23,13.23 31.83,29.41 48.25,29.77 116.25,2.57 232.57,1.36 360.22,1.36 -22.18,-24.59 -35.88,-40.68 -50.52,-55.87 -311.85,-323.18 -623.65,-646.41 -935.87,-969.23 -59.28,-61.29 -110.57,-144.68 -183.33,-174.54 -75.11,-30.81 -172.05,-11.94 -259.14,-8.05 -29.63,1.34 -65.63,16.02 -86.31,36.9 -167.79,169.39 -332.72,341.66 -498.36,513.21 -208.28,215.7 -416.4,431.55 -634.69,657.82zm2458.56 99.3c-284.16,-2.81 -206.22,33.38 -397.34,-171.62 -87.75,-94.14 -176.02,-129.24 -303.18,-125.8 -329.46,8.91 -659.32,3.66 -989.01,2.1 -39.19,-0.17 -66.33,11.61 -92.78,39.68 -65.34,69.38 -130.44,139.65 -202.21,201.99 -31.57,27.41 -78.33,48.56 -119.61,51.3 -106.8,7.12 -214.35,2.59 -321.61,2.31 -54.2,-0.15 -104.03,-10.29 -127.05,-68 -21.57,-54.06 9.76,-90.05 44.15,-125.58 372.96,-385.12 746.07,-770.11 1117.73,-1156.47 40.26,-41.86 83.08,-63.14 141.2,-61.28 81.35,2.59 163.46,-5.28 244.03,3.05 43.58,4.5 95.71,22.56 125.19,52.82 379.82,389.48 755.99,782.51 1133.93,1173.82 33.87,35.09 50.53,72.88 31.64,117.96 -18.87,45.01 -59.82,62.18 -106.34,63.31 -59.55,1.44 -119.17,0.35 -178.74,0.41zm-1120.04 -897.03c-53.1,52.41 -106.55,105.18 -150.01,148.06l298.7 0c-56.58,-56.35 -108.19,-107.7 -148.69,-148.06zm386.77 251.23l-784.99 0c132.26,-129.65 265.59,-260.37 390.56,-382.89 119.1,115.6 253.32,245.92 394.43,382.89zm3767.79 -230.6c0,-70.89 4.83,-138.15 -1.13,-204.45 -9.09,-101.08 -70.74,-168.07 -162.83,-201.3 -49.08,-17.73 -104.25,-25.56 -156.74,-25.73 -534.54,-1.81 -1069.12,-1.14 -1603.68,-1.09 -153.01,0.01 -306.04,-0.74 -459.04,0.69 -135.13,1.26 -282.16,98.97 -276.69,278.47 6.66,218.42 1.17,437.15 1.74,655.74 0.37,142.44 81.07,237.77 223.02,264.44 27.17,5.1 54.94,9.87 82.44,9.9 681.61,0.54 1363.24,1.19 2044.86,-0.27 126.05,-0.27 244.93,-36.74 289.15,-166.56 28.79,-84.54 22.7,-180.97 32.36,-273.15l-318.84 0c-1.1,16.6 -2.32,28.42 -2.59,40.24 -2.37,101.57 -44.29,144.16 -146.23,144.23 -586.22,0.37 -1172.46,0.36 -1758.69,-0.02 -92.27,-0.06 -136.16,-41.22 -137.6,-133.79 -2.25,-145.02 -2.22,-290.14 -0.03,-435.19 1.44,-94.49 38.51,-128.63 131.8,-128.77 230.53,-0.32 461.04,-0.12 691.56,-0.12 361.67,0 723.34,-0.14 1085.02,0.1 97.2,0.07 130.81,34.06 134.28,132.59 0.52,14.99 3.63,29.9 5.42,44.04l302.44 0zm-2241.96 415.43l1829.11 0c1.97,-13.24 4.36,-22.61 4.62,-32.06 3.4,-125.22 30.06,-150.82 157.74,-150.86 77.49,-0.01 155.01,-1.1 232.47,0.32 86.07,1.6 122.21,38.48 122.99,125.42 0.59,65.51 5,131.98 -4.01,196.39 -27.77,198.31 -182.75,321.3 -401.02,321.57 -540.45,0.7 -1080.9,0.23 -1621.35,0.23 -147.04,0 -294.61,7.56 -440.88,-3 -80.35,-5.8 -164.91,-29.96 -236.12,-67.55 -104.83,-55.31 -158.86,-155.73 -160.44,-275.21 -3.14,-238.39 -5.59,-476.94 0.21,-715.23 4.7,-192.93 147.09,-328.01 350.01,-346.7 23.71,-2.2 47.63,-2.93 71.44,-2.94 671.6,-0.15 1343.17,-0.59 2014.76,0.79 52.95,0.1 107.74,6.45 158.46,21.09 154.34,44.51 246.68,148.45 265.93,308.94 7.99,66.62 5.69,135.09 1.79,202.36 -4.01,69.04 -42.04,105.21 -111.14,107.29 -95.29,2.87 -190.8,3.17 -286.08,0.15 -81.81,-2.59 -112.46,-37.82 -114.43,-120.57 -0.44,-17.77 -0.06,-35.57 -0.06,-58.17l-1834 0 0 487.74zm2557.03 -845.42l0 255.36 1167.19 0c0,214.12 -1.79,420.54 1.21,626.88 0.8,54.57 -14.72,70.67 -69.81,70.3 -343.72,-2.37 -687.47,-1.24 -1031.21,-1.04 -22.8,0.01 -45.62,1.9 -66.39,2.84l0 247.63 2653.82 0 0 -250.61 -75.87 0c-343.74,0 -687.49,-0.89 -1031.22,0.98 -50.01,0.26 -69.73,-10.39 -68.76,-65.42 3.37,-190.7 1.2,-381.47 1.44,-572.22 0.03,-19 2.11,-38 3.65,-63.95l1170.97 0 0 -250.75 -2655.02 0zm1583.2 352.86l0 496.79 68.37 0c319.98,0 639.95,-0.11 959.93,0.05 114.43,0.06 147.75,33.98 147.95,149.61 0.1,63.6 1.48,127.24 -0.43,190.78 -2.3,76.66 -37.96,111.58 -114.44,116.1 -13.86,0.82 -27.82,0.23 -41.73,0.23 -850.6,0.02 -1701.21,0.03 -2551.81,0 -127.32,0 -157.75,-30.46 -157.86,-157.76 -0.04,-55.64 -0.77,-111.3 0.2,-166.93 1.75,-99.8 33.2,-131.64 133.9,-131.85 319.97,-0.63 639.95,-0.23 959.91,-0.23l75.4 0 0 -496.79 -62.79 0c-321.95,0 -643.91,0.07 -965.87,-0.03 -111.42,-0.04 -140.13,-29.03 -140.68,-142.11 -0.32,-65.59 -1.8,-131.23 0.59,-196.74 3.02,-83.35 34.88,-114.58 117.44,-117.83 45.62,-1.8 91.4,-0.47 137.11,-0.47 816.82,-0.02 1633.64,-0.03 2450.44,0.01 131.36,0 160.59,29.36 160.64,160.84 0.01,55.65 0.57,111.31 -0.14,166.95 -1.17,93 -37.49,129.14 -131.46,129.24 -325.93,0.37 -651.87,0.14 -977.79,0.14l-66.88 0zm1701.98 -74.41c35.37,15.44 55.18,23.76 74.7,32.67 613.42,279.72 1228.82,555.23 1838.73,842.38 145.78,68.63 288.54,43.78 437.09,54.26l0 -1204.79 -311.17 0 0 917.78c-31.57,-13.25 -54.99,-22.35 -77.82,-32.77 -609.74,-278.22 -1221.43,-552.32 -1827.66,-837.98 -145.94,-68.76 -288.74,-42.22 -436.98,-53.37l0 1206.54 303.11 0 0 -924.72zm103.15 157.83l0 75.3c0,220.49 0.53,441 -0.27,661.5 -0.31,92.86 -38.03,131.52 -129.18,133.03 -87.37,1.44 -174.83,1.64 -262.2,-0.08 -81.72,-1.64 -121.63,-40.29 -121.82,-121.27 -0.97,-387.36 -1.05,-774.72 -0.01,-1162.09 0.25,-93.27 33.73,-125.24 126.67,-126.65 89.37,-1.36 178.92,-3.3 268.1,1.14 38.32,1.92 78.11,14.36 113.43,30.4 592.5,269.13 1184.39,539.62 1776.47,809.7 19.49,8.9 39.42,16.83 67.83,28.9l0 -69.21c0,-222.48 -0.19,-444.97 0.09,-667.46 0.11,-102.06 29.7,-132.61 130.39,-133.62 87.4,-0.87 174.84,-1.3 262.2,0.25 78.08,1.37 119.59,39.29 119.85,116.91 1.43,393.32 1.36,786.64 0.03,1179.97 -0.25,73.23 -37.9,110.47 -111.04,112.52 -99.25,2.79 -198.73,3.43 -297.89,-0.74 -34.15,-1.43 -69.11,-16.68 -101.13,-31.25 -590.57,-268.61 -1180.73,-538.12 -1771.04,-807.33 -19.5,-8.9 -39.47,-16.8 -70.48,-29.92zm5321.9 560.1c-27.07,80.85 -53.45,161.6 -125.72,216.8 -80.39,61.39 -171.58,92.56 -271.33,92.7 -691.57,1.02 -1383.15,2.35 -2074.7,-0.5 -225.85,-0.93 -401.99,-147.77 -395.93,-396.09 5.05,-206.54 0.57,-413.3 1.16,-619.99 0.64,-233.25 139.86,-378.87 373.92,-392.19 17.84,-1.01 35.74,-1.38 53.63,-1.38 765.1,-0.07 1530.18,0.48 2295.28,-0.97 69.72,-0.12 119.96,19.14 143.69,88.03l0 286.19c-23.41,66.73 -73.37,84.68 -139.97,84.58 -713.01,-1.1 -1426.04,-0.69 -2139.06,-0.69l-70.34 0 0 488.47 1827.36 0c-0.01,-4.09 -0.02,-8.16 -0.04,-12.25l-380.76 0c-276.07,0 -552.15,0.38 -828.22,-0.24 -93.67,-0.21 -132.88,-37.54 -134.96,-127.14 -1.44,-61.52 -0.71,-123.14 -0.27,-184.7 0.82,-114.05 32.02,-146.53 144.84,-146.64 432.97,-0.47 865.97,-2.01 1298.92,1.67 69.64,0.61 142.42,16.79 207.9,41.4 123.42,46.34 186.08,148 214.6,272.9l0 310.04z"/>
  <path fill="#4CA4B8" fill-rule="nonzero" d="M16140.23 4611.44l0 -251.89c21.9,-1.38 42.83,-3.86 63.78,-3.87 427.25,-0.22 854.49,-1.37 1281.71,1.35 55.77,0.35 114.79,12.73 166.31,34.05 81.75,33.82 135.87,98.56 141.07,190.67 5.01,88.96 10.95,179.25 1.54,267.35 -16.13,151.12 -132.13,238.96 -303.8,239.67 -264.29,1.08 -528.59,0.3 -792.87,0.3 -415.33,0.01 -830.65,0.99 -1245.96,-1.25 -52.42,-0.29 -108.12,-9.17 -156.39,-28.7 -102.17,-41.32 -160.57,-118.32 -160.11,-234.12 0.94,-224.55 4.27,-449.2 -1.31,-673.62 -3.34,-134.44 93.47,-254.82 259.96,-270.85 23.64,-2.29 47.65,-1.11 71.5,-1.11 753.14,-0.05 1506.27,-0.04 2259.4,-0.05l69.85 0 0 255.87 -74.04 0c-709.41,0 -1418.83,-0.03 -2128.25,0.03 -116.05,0.01 -148.91,31.92 -149.5,147.51 -0.71,133.13 -0.79,266.28 0.04,399.42 0.69,111.34 40.66,151.03 150.85,151.05 580.26,0.16 1160.52,0.18 1740.77,-0.04 97.33,-0.04 150.43,-43.27 151.25,-121.15 0.66,-62.18 -29.87,-95.46 -92.78,-99.56 -23.77,-1.55 -47.69,-1.01 -71.51,-1.01 -367.63,-0.06 -735.27,-0.05 -1102.89,-0.05l-78.62 0zm-14368.11 -476.2l-852.23 0c-145.1,0 -142.55,0.05 -145.52,143.09 -1.22,58.76 14.54,78.72 76.42,78.5 605.89,-2.22 1211.78,-1.2 1817.67,-1.78 29.42,-0.03 59.27,-4.46 88.14,-10.53 39.65,-8.31 59.83,-34 62.41,-75.72 5.73,-93.02 -29.15,-133.07 -123.15,-133.26 -307.92,-0.65 -615.83,-0.25 -923.74,-0.3zm1358.26 953.77c-102.28,0 -193.6,2.06 -284.66,-1.81 -17.75,-0.74 -41.07,-20.91 -50.69,-38.29 -72.11,-130.2 -142.37,-261.47 -210.89,-393.6 -16.84,-32.46 -36.84,-44.71 -73.86,-44.63 -558.4,1.12 -1116.81,1.42 -1675.23,-0.29 -49.36,-0.14 -60.86,17.82 -60.08,62.31 2.01,115.22 0.81,230.51 0.48,345.77 -0.08,21.29 -2.07,42.58 -3.33,67.08l-298.96 0 0 -1202.81c20.5,-1.1 41.5,-3.21 62.48,-3.22 761.11,-0.16 1522.22,-0.87 2283.33,1.42 55.65,0.17 114.43,14.49 166.11,35.87 79.83,32.98 133.06,97.03 139.52,185.67 6.6,90.73 7.6,182.41 3.02,273.28 -5.55,109.94 -73.54,175.49 -172.38,213.14 -11.12,4.23 -22.32,8.3 -33.26,12.98 -3.42,1.48 -6.08,4.72 -14.01,11.15 72.03,154.14 144.69,309.64 222.41,475.98zm1976.42 -546.44c-141.11,-136.98 -275.33,-267.28 -394.43,-382.89 -124.97,122.51 -258.31,253.24 -390.56,382.89l784.99 0zm-1725.29 546.5c218.29,-226.27 426.41,-442.12 634.69,-657.82 165.64,-171.54 330.56,-343.82 498.36,-513.21 20.68,-20.88 56.68,-35.56 86.31,-36.9 87.09,-3.89 184.03,-22.75 259.14,8.05 72.76,29.86 124.04,113.25 183.32,174.54 312.23,322.82 624.03,646.05 935.87,969.24 14.65,15.17 28.35,31.27 50.53,55.87 -127.65,0 -243.98,1.21 -360.22,-1.36 -16.42,-0.36 -35.02,-16.56 -48.25,-29.78 -75.88,-75.86 -148.86,-154.72 -226.55,-228.63 -20.45,-19.43 -54.1,-35.14 -81.79,-35.29 -403.4,-2.24 -806.83,-2.25 -1210.23,0 -27.69,0.15 -61.25,16 -81.8,35.43 -76.51,72.29 -147.12,150.78 -223.58,223.14 -20.34,19.24 -53.26,34.04 -80.98,35.08 -106.8,4.03 -213.86,1.64 -334.82,1.64zm5493.08 -777.1l-302.44 0c-1.79,-14.14 -4.9,-29.05 -5.42,-44.04 -3.47,-98.53 -37.08,-132.52 -134.28,-132.59 -361.68,-0.24 -723.35,-0.1 -1085.02,-0.1 -230.52,0 -461.03,-0.2 -691.56,0.12 -93.29,0.14 -130.36,34.28 -131.8,128.77 -2.19,145.05 -2.22,290.17 0.03,435.19 1.44,92.57 45.33,133.73 137.6,133.79 586.23,0.38 1172.47,0.39 1758.69,0.02 101.94,-0.07 143.86,-42.66 146.23,-144.23 0.27,-11.82 1.49,-23.64 2.59,-40.24l318.84 0c-9.66,92.18 -3.57,188.61 -32.36,273.15 -44.22,129.82 -163.1,166.29 -289.15,166.56 -681.62,1.46 -1363.25,0.81 -2044.86,0.27 -27.5,-0.03 -55.27,-4.8 -82.44,-9.9 -141.95,-26.67 -222.65,-122 -223.02,-264.44 -0.57,-218.59 4.92,-437.32 -1.74,-655.74 -5.47,-179.5 141.56,-277.21 276.69,-278.47 153,-1.43 306.03,-0.68 459.04,-0.69 534.56,-0.05 1069.14,-0.72 1603.68,1.09 52.49,0.17 107.66,8 156.74,25.73 92.09,33.23 153.74,100.22 162.83,201.3 5.96,66.3 1.13,133.56 1.13,204.45zm315.07 -429.99l2655.02 0 0 250.75 -1170.97 0c-1.54,25.95 -3.62,44.95 -3.65,63.95 -0.24,190.75 1.93,381.52 -1.44,572.22 -0.97,55.03 18.75,65.68 68.76,65.42 343.73,-1.87 687.48,-0.98 1031.22,-0.98l75.87 0 0 250.61 -2653.82 0 0 -247.63c20.77,-0.94 43.59,-2.83 66.39,-2.84 343.74,-0.2 687.49,-1.33 1031.21,1.04 55.09,0.37 70.61,-15.73 69.81,-70.3 -3,-206.34 -1.21,-412.76 -1.21,-626.88l-1167.19 0 0 -255.36zm3285.18 278.45l0 924.72 -303.11 0 0 -1206.54c148.24,11.15 291.04,-15.39 436.98,53.37 606.23,285.66 1217.92,559.76 1827.66,837.98 22.83,10.42 46.25,19.52 77.82,32.77l0 -917.78 311.17 0 0 1204.79c-148.55,-10.48 -291.31,14.37 -437.09,-54.26 -609.91,-287.15 -1225.31,-562.66 -1838.73,-842.38 -19.52,-8.91 -39.33,-17.23 -74.7,-32.67z"/>
  <path fill="black" fill-rule="nonzero" d="M1753.48 1627.41c-5.62,-69.76 -15.07,-194.5 -25.99,-319.12 -5.17,-58.83 -49.17,-99.32 -111.28,-102.05 -33.61,-1.51 -67.7,-0.18 -101.12,3.7 -282.12,32.81 -531.09,144.66 -748.55,324.74 -179.22,148.43 -328.16,323.43 -374.19,557.97 -23.77,121.23 -18.08,248.86 -19.63,373.68 -3.52,279.57 76.04,536.31 222.97,772.98 8.24,13.28 18.41,25.97 29.9,36.49 140.17,128.32 300.09,198.64 494.55,167.57 27.4,-4.37 55.41,-4.78 83,-8.22 172.78,-21.56 340.42,-60.35 487.91,-158.58 135.93,-90.53 209.17,-214.56 193.73,-382.53 -4.73,-51.4 -5.55,-103.71 -16.21,-153.87 -14.35,-67.43 -33.07,-134.48 -56.57,-199.27 -15,-41.33 -48.49,-55.33 -91.13,-29.29 -42.3,25.83 -86.25,48.97 -128.36,75.11 -167.83,104.19 -340.44,103.08 -518.42,28.33 -40.56,-17.04 -59.16,-39.75 -56.69,-84.86 3.27,-59.43 -2.72,-119.47 2.31,-178.66 2.44,-28.87 14.75,-61.41 33.05,-83.73 117.22,-143.01 257.79,-252.17 443.54,-292.49 25.01,-5.41 48.96,-15.98 73.13,-24.91 173.49,-64.07 188.57,-85.97 184.05,-322.99zm11218.02 -371.12c6.17,102.74 14.26,199.46 17.3,296.34 6.68,213.68 52.97,417.34 155.85,605.23 31.96,58.37 72.64,115.02 120.66,160.49 34.77,32.92 46.51,62.31 44.34,107.16 -10.46,216.21 -17.38,432.6 -28.38,648.77 -2.6,50.88 10.66,90.25 52.62,117.68 86.26,56.42 171.53,114.76 260.89,165.89 65.1,37.25 135.54,65.55 204.73,95.21 36.72,15.74 65.17,9.8 70.29,-39.1 6.19,-59.15 18.27,-117.76 23,-176.99 19.47,-243.44 38.39,-486.97 54.29,-730.66 3.02,-46.33 20.19,-67.79 62.39,-86.24 140.12,-61.25 281,-124.88 387.75,-238.77 120.47,-128.58 235.2,-262.55 352.18,-394.38 9.19,-10.34 17.72,-21.66 24.45,-33.69 31.75,-56.96 48.39,-106.98 -24.79,-159.81 -154.44,-111.53 -306.85,-225.92 -463.21,-334.67 -89.78,-62.43 -161.33,-51.32 -222.89,39.91 -47.11,69.81 -76.66,151.34 -115.1,227.1 -65.87,129.78 -132.59,259.12 -198.96,388.64l-19.05 -1.69c-9.27,-43.26 -29.41,-87.45 -25.77,-129.6 10.86,-126.02 -24.38,-238.68 -79.53,-348.45 -30.24,-60.21 -55.82,-122.84 -87.99,-181.94 -8.62,-15.87 -34.28,-33.17 -51.11,-32.2 -168.26,9.58 -336.32,22.85 -513.96,35.77zm-508.4 1082.88c103.99,-36.91 170.48,-105.7 221.74,-190.44 72.73,-120.24 119.98,-250.16 144.14,-388.45 19.73,-112.95 0.05,-216.1 -71.35,-309.26 -88.9,-116.01 -204.07,-199.15 -327.7,-272.63 -8.08,-4.8 -18.55,-8.28 -27.79,-8.06 -142.8,3.41 -287.81,-6.46 -427.67,15.85 -115.35,18.38 -228.3,67.04 -335.81,116.46 -210.58,96.77 -417.39,201.95 -624.24,306.68 -100.33,50.79 -101.26,137.96 -32.22,199.79 122.1,109.34 165.39,235.1 162.87,393.28 -1.83,114.12 27.79,228.5 29.01,342.93 3,280.02 -2.13,560.13 -4.54,840.19 -0.38,45.19 13.08,63.61 64.21,56.56 74.42,-10.25 150.36,-14.99 225.49,-13.55 202.59,3.89 405.12,11.06 607.57,19.41 102.44,4.22 198.49,-18.37 297.71,-42.24 199.03,-47.88 317.89,-171.3 413.01,-345.5 116.44,-213.28 33.44,-545.84 -193.21,-655.18 -37.4,-18.03 -73.1,-39.57 -121.22,-65.84zm390.95 -960.99c0,-37.25 0.72,-61.04 -0.11,-84.79 -3.6,-102.24 38.38,-150.76 141.68,-158.73 160.38,-12.39 320.87,-23.52 481.37,-34.42 91.83,-6.23 130.15,17.92 167.76,100.7 53.13,116.91 107,233.47 164.15,358.07 9.66,-24.84 16.13,-45.02 25.13,-64.03 40.61,-85.81 75.4,-175.25 124.61,-255.89 68.85,-112.83 233.01,-199.61 390.53,-81.93 155.75,116.38 317.25,225.11 472.13,342.59 112.02,84.99 126.68,192.97 53.38,314.68 -12.23,20.31 -26.16,39.99 -41.78,57.79 -101.79,116.15 -205.06,230.99 -306.31,347.6 -109.42,125.99 -249.11,208.63 -398.32,275.51 -51.52,23.09 -65.69,52.99 -69.74,106.69 -20.66,273.1 -41.49,546.37 -72.58,818.42 -16.68,145.95 -95.63,185.73 -236.76,140.37 -9.42,-3.04 -19.37,-5.43 -27.89,-10.22 -148.35,-83.55 -298.47,-164.22 -443.97,-252.47 -83.7,-50.76 -121.5,-129.95 -115.38,-232.37 11.86,-198.23 17.04,-396.83 26.66,-595.2 1.74,-35.88 -6.6,-61.2 -32.33,-89.01 -107.36,-116.04 -168.33,-258.16 -216.12,-406.64 -6.05,-18.79 -11.35,-37.83 -14.22,-47.47 -69.61,133.89 -142.03,273.14 -215.81,415.04 173.41,121.83 247.52,312.08 239.89,530.63 -9.57,274.59 -235.4,532.01 -492.21,627.15 -260.82,96.64 -524.87,57.29 -788.89,60.18 -152.31,1.67 -304.69,1.21 -456.93,5.39 -87.97,2.4 -162.63,-75.61 -161.86,-176.09 2.21,-283.93 8.44,-567.93 4.45,-851.78 -1.84,-132.21 -31.31,-264.01 -33.64,-396.26 -1.53,-88.4 -27.51,-151.2 -92.25,-211.27 -42.6,-39.52 -74.45,-98.63 -92.48,-154.92 -36.25,-113.32 -9.51,-186.49 92.02,-250.01 112.37,-70.3 228.32,-136.42 348.06,-193.04 161.19,-76.21 326.78,-143.31 491.85,-211 122.31,-50.17 250,-77.27 383.36,-71.04 19.83,0.92 40.14,2.79 59.52,-0.28 258.4,-40.96 431.61,103.53 593.93,271.86 14.61,15.15 27.78,31.69 49.1,56.19zm-3799.52 2067.84c21.7,0 49.38,6.73 72.04,-1.07 181.68,-62.5 362.73,-126.93 543.31,-192.64 59.8,-21.77 90.23,-69.31 113.9,-128.44 26.89,-67.19 59.27,-136.14 105.34,-190.77 72.8,-86.31 195.69,-54.52 228.42,53.58 11.93,39.41 14.72,81.7 20.53,122.83 9.42,66.69 11.62,135.15 28.43,199.86 19.45,74.8 69.42,91.24 135.42,50.99 137.29,-83.71 270.89,-173.82 410.96,-252.44 67.32,-37.8 85.19,-86.14 76.06,-154.65 -1.3,-9.85 -1.99,-19.79 -3.55,-29.58 -77.42,-487.78 -205.54,-961.85 -391.95,-1419.25 -35.6,-87.36 -87.82,-168.57 -137.78,-249.26 -33.48,-54.08 -83.23,-73.31 -148.91,-49.1 -154.42,56.9 -309.55,112.07 -465.72,163.86 -104.33,34.61 -176.96,102.91 -210.48,203.32 -51.98,155.66 -103.61,312.7 -137.21,472.97 -56.13,267.83 -99.36,537.91 -194.88,796.52 -27.66,74.85 -37.49,158.62 -42.16,239.09 -6.86,118.31 -1.77,237.31 -1.77,364.18zm-537.7 -1105.89c100.25,-38.94 165.79,-102.81 216.04,-183.95 76.2,-123.06 126.03,-256.2 148.96,-398.66 13.73,-85.34 12.15,-169.76 -34.1,-248.42 -87.74,-149.21 -222.54,-245.67 -366.81,-331.86 -7.99,-4.77 -18.66,-6.99 -28.11,-7.06 -231.94,-1.92 -464.12,-15.24 -681.82,95.92 -232.77,118.85 -470.58,227.78 -704.71,344.04 -101.23,50.26 -97.44,140.82 -30.63,200.13 120.62,107.05 165.49,229.95 161.74,387.18 -2.76,115.87 28.29,232.25 29.6,348.57 3.14,279.85 -2.12,559.79 -4.51,839.69 -0.37,45.25 13.36,63.57 64.33,56.31 72.38,-10.33 146.31,-15.23 219.41,-13.87 230.26,4.27 460.49,19.29 690.62,17.52 275.36,-2.1 485.16,-112.43 625.08,-367.25 125.71,-228.91 47.35,-570.02 -203.11,-683.66 -30.55,-13.88 -59.34,-31.64 -101.98,-54.63zm228.26 -4.77c157.05,87.06 209.05,240.31 251.38,399.6 6.76,0.74 13.52,1.48 20.29,2.22 35.46,-143.2 72.85,-285.96 105.96,-429.7 48.95,-212.55 93.22,-426.2 143.22,-638.48 12.59,-53.45 37.51,-104.43 60.13,-155.01 53.33,-119.22 135.4,-207.86 263.5,-250.49 163.67,-54.45 325.19,-115.47 489.27,-168.58 119.39,-38.65 205.8,-14.31 272.56,93.19 73.85,118.86 142.24,243.97 192.09,374.36 168.38,440.38 288.34,894.65 360.45,1360.96 6,38.78 3.58,79.27 1.52,118.77 -3.1,59.51 -30.89,102.91 -83.74,134.88 -154.53,93.45 -308.78,187.6 -459.85,286.52 -127.37,83.4 -278.6,16.54 -309.79,-126.97 -16.78,-77.22 -22.64,-156.81 -33.68,-235.31 -4.32,-30.78 -9.3,-61.48 -16.72,-110.21 -26.07,27.17 -45.62,40.29 -54.91,58.62 -25.01,49.43 -40.1,104.6 -69.52,150.85 -30.85,48.47 -65.63,103.06 -112.88,130.94 -196.55,115.97 -416.3,176.02 -635.28,230.58 -131.77,32.83 -220.58,-29.52 -198.17,-180.09 10.15,-68.32 8.41,-138.42 11.08,-207.76 0.51,-13.24 -3.6,-26.64 -8.28,-58.21 -17.11,29.41 -27.19,44.45 -35.04,60.57 -87.58,179.69 -235.69,287.95 -422.42,341.05 -96.05,27.34 -198.09,45.79 -297.57,46.45 -222.33,1.5 -444.72,-12 -667.16,-16.5 -71.27,-1.44 -143.36,1.34 -213.93,10.83 -116.37,15.68 -195.59,-51.92 -194.53,-171.06 2.65,-299.93 8.19,-599.93 4.41,-899.77 -1.54,-122.31 -31.57,-244.16 -34.59,-366.56 -1.88,-76.58 -28.46,-126.93 -80.57,-179.86 -45.37,-46.11 -83.26,-107.23 -103.66,-168.62 -36.5,-109.83 -8.84,-183.27 90.12,-245.34 114,-71.51 231.6,-138.87 353.17,-196.36 161.22,-76.23 327.17,-142.72 492.3,-210.41 120.53,-49.4 246.33,-75.75 377.67,-70.12 29.76,1.29 59.78,2.22 89.4,-0.11 331.18,-26.06 514.63,183.69 671.42,427.66 52.49,81.69 55.44,181.9 38.79,278.13 -36.75,212.49 -108.07,410.44 -256.44,579.34zm-4657.54 -1079.11c6.6,109.08 8.31,212.4 20.23,314.54 13.74,117.79 27.51,236.9 57.57,351.15 38.47,146.26 96.21,288.29 211.63,393.12 39.11,35.51 51.06,67.97 48.66,116.93 -10.71,218.19 -19.92,436.47 -26.19,654.82 -0.79,28.27 10.24,66.83 30.14,84.14 145.25,126.33 313.84,214.39 492.12,284.4 37.33,14.67 59.78,1.04 64.27,-41.72 6.24,-59.15 18.24,-117.78 22.97,-177.01 19.47,-243.45 38.47,-486.95 54.26,-730.66 3.04,-46.69 20.86,-67.6 62.75,-85.98 140.05,-61.43 280.97,-124.98 387.66,-238.95 120.43,-128.64 235.18,-262.57 352.16,-394.42 9.19,-10.35 17.69,-21.67 24.38,-33.73 31.8,-57.16 48,-106.83 -25.25,-159.72 -152.82,-110.39 -303.5,-223.82 -458.34,-331.26 -96.92,-67.25 -170.09,-53.79 -235.1,46.44 -44.82,69.12 -72.52,149.18 -110,223.27 -64.75,127.98 -131.16,255.14 -196.86,382.63 -6.29,-0.65 -12.59,-1.31 -18.87,-1.96 -9.19,-43.28 -28.76,-87.32 -25.59,-129.65 9.09,-121.28 -20.61,-231.25 -74.35,-337.73 -33.02,-65.45 -61.34,-133.3 -95.12,-198.33 -6.9,-13.3 -29.27,-27.49 -43.61,-26.62 -170.2,10.26 -340.23,23.31 -519.52,36.3zm-1208.04 1674.93c6.2,-4.1 12.41,-8.22 18.62,-12.33 25.14,25.72 56.78,47.73 74.09,77.95 35.32,61.77 60.48,129.26 94.41,191.93 36.6,67.67 71.83,137.81 119.63,197.24 59.35,73.75 127.46,83.72 205.47,29.81 107.56,-74.32 211.74,-154.51 310.74,-239.85 64.11,-55.27 120.12,-121.29 172.83,-187.97 44.19,-55.91 35.39,-94.99 -25.15,-134.17 -46.32,-30.01 -100.01,-48.53 -146.87,-77.84 -51.52,-32.24 -106.65,-64.08 -146.53,-108.4 -70.63,-78.52 -46.97,-170.66 36.02,-234.65 56.87,-43.85 109.82,-98.2 149.43,-157.9 81.04,-122.08 121.19,-261.79 148.53,-405.27 22.63,-118.75 19.35,-231.45 -47.5,-338.68 -86.42,-138.63 -207.73,-238.85 -341.76,-326.53 -9.37,-6.11 -21.91,-10.14 -33.07,-10.35 -228.83,-4.54 -454.91,-5.18 -669.59,101.07 -241.83,119.71 -490.36,225.54 -713.93,379.69 -88.87,61.26 -101.95,115.37 -34.19,221.85 27.43,43.1 71.89,75.46 98.58,118.88 24.94,40.54 50.42,88.77 51.99,134.45 15.01,434.7 24.91,869.58 36.54,1304.41 1.23,46.1 31.1,65.56 73.76,50.13 54.09,-19.57 109.6,-35.73 162.33,-58.44 107.24,-46.21 214.58,-92.72 318.82,-145.19 63.18,-31.79 92.36,-88.01 87.7,-162.51 -4.3,-68.86 -0.9,-138.2 -0.9,-207.33zm2043.83 -1375.68c33.03,-77.95 61.68,-153.62 96.67,-226.23 52.43,-108.87 121.91,-204.6 252.66,-221.12 45.91,-5.79 104.73,-2.02 140.78,22.37 187.26,126.58 371.55,257.98 551.66,394.58 81.05,61.46 90.86,159.22 42.02,259.58 -14.61,30.01 -33.78,58.88 -55.67,84.11 -103.87,119.63 -209.88,237.39 -314.18,356.65 -111.27,127.23 -254.82,207.3 -405.14,276.41 -39.97,18.37 -53.24,40.99 -56.59,84.28 -21.35,275.09 -44.36,550.1 -70.88,824.73 -18.71,193.67 -133.49,198.32 -252.6,141.88 -162.3,-76.93 -316.87,-171.12 -470.72,-264.54 -76.06,-46.19 -108.07,-121.82 -103.09,-214.27 10.24,-190.4 14.41,-381.13 25.04,-571.5 3.03,-54.26 -6.18,-94.1 -44.75,-137.62 -111.37,-125.69 -171.79,-279.33 -216.05,-439.57 -5.99,-21.72 -12.07,-43.42 -21.2,-76.3 -29.48,104.23 -50.36,196.6 -81.82,285.22 -56.44,159.01 -131.7,306.42 -281.08,402.47 -10.91,7.03 -14.03,51.49 -4.05,61.03 30.84,29.48 68.64,52.43 105.86,74.28 56.24,33.05 117.74,58.11 170.83,95.36 97.8,68.63 115.1,176.27 50.17,277.22 -88.55,137.7 -213.76,239.58 -339.1,340.51 -58.65,47.24 -120.12,91.84 -184.33,131.07 -134.46,82.15 -270.72,59.47 -372,-62.35 -41.53,-49.97 -73.81,-107.64 -111.96,-164.26 -110,152.11 -286.89,199.42 -452.63,265.49 -53.37,21.28 -113.82,29.93 -161.34,59.79 -100.84,63.4 -240.7,-38.67 -242.92,-156.06 -8.19,-434.82 -20.66,-869.58 -34.73,-1304.27 -0.95,-29.09 -24.03,-61.15 -44.54,-85.27 -61.87,-72.76 -125.56,-141.93 -142.29,-242.55 -15.34,-92.33 9.88,-166.82 85.05,-218.91 94.46,-65.47 189.32,-132.27 290.97,-185.03 177.7,-92.23 359.57,-176.73 541.89,-259.66 146.66,-66.68 304.75,-75.22 463.53,-92.76 266.12,-29.38 433.6,113.35 588.87,291.2 41.42,47.48 73.67,102.96 119.07,167.42 -1.88,-38.64 -2.86,-66.38 -4.64,-94.06 -3.07,-47.56 -7.69,-95.05 -9.77,-142.66 -4.35,-99.71 36.89,-148.9 136.75,-157.03 166.29,-13.51 332.78,-24.91 499.3,-35.35 79.61,-4.99 118.6,21.9 152.81,96.92 53.91,118.2 108.07,236.28 164.14,358.8zm-4671.94 615.97c31.15,-160.92 79.68,-315.06 178.79,-448.74 278.19,-375.27 652.02,-584.02 1114.68,-633.23 53.27,-5.65 112.22,2.97 162.88,20.92 85.38,30.25 132.86,97.15 138.58,190.14 9.37,152.64 19.91,305.2 28,457.89 6.24,118 -47.05,205.39 -153.08,252.8 -97.46,43.57 -199.13,78.22 -300.18,113.24 -116.44,40.36 -200.58,124.28 -269.36,217.6 -28.71,38.95 -13.54,110.24 -18.13,164.78 137.34,64.79 263.76,57.24 387.29,-16.12 49.46,-29.36 98.31,-60.33 150.01,-85.21 106.54,-51.28 197.13,-24.62 246.6,84.27 33.93,74.66 56.84,157.65 66.63,239.11 12.41,103.29 20.68,210.88 5.54,312.88 -29.28,197.23 -168.41,314.48 -339.04,393.38 -218.31,100.95 -452.59,146.09 -690.31,127.31 -208.43,-16.47 -380.92,-120.07 -491.15,-305.73 -119.32,-200.96 -190.32,-418.43 -208.67,-652.28 -0.74,-9.37 -5.96,-18.4 -9.08,-27.57l0 -405.44zm2808.27 -265.03c-8.05,-5.04 -16.11,-10.1 -24.17,-15.15 -23.14,44.06 -46.26,88.13 -69.39,132.18 5.93,3.25 11.84,6.5 17.77,9.74 25.26,-42.26 50.52,-84.51 75.79,-126.77zm-221 346.25c-3.63,-119.29 -1.37,-233.45 47.18,-341.15 50.77,-112.64 137.04,-160.61 251.76,-143.59 41.93,6.22 62.3,25.22 60.97,70.52 -4.83,165.12 -189.67,383.14 -359.91,414.22zm8943.99 -98.22c-5.15,-18.55 -17.68,-41.08 -16.39,-62.78 6.73,-112.82 32.67,-220.88 112.79,-305.6 57.32,-60.58 133.74,-65.91 210.11,-47.07 16.48,4.08 36.98,31.6 38,49.34 1.63,28.05 -7.51,58.84 -19.55,85.06 -18.08,39.42 -42.34,76.05 -64.46,113.58 -56.06,95.15 -130.94,163.24 -260.5,167.47zm-1904 -133.97c131.28,82.82 160.77,261.08 58.67,353.59 -37.45,33.95 -78.34,46.89 -123.39,14.39 -8.87,-6.41 -20.65,-17.18 -20.77,-26.07 -1.8,-115.76 -25.31,-236.73 71.7,-331.1 4.2,-4.1 9.27,-7.31 13.79,-10.81zm-1933.97 819.07c9.4,4.99 18.78,9.97 28.17,14.96 20.98,-40.75 41.98,-81.51 62.96,-122.28 -8.58,-4.54 -17.16,-9.07 -25.74,-13.62 -21.81,40.32 -43.6,80.63 -65.39,120.94zm203.35 -138.27c2.49,163.45 -110.43,291.76 -273.96,314.02 -32.77,4.46 -46.22,-7.32 -55.08,-37.05 -25.95,-87.08 45.48,-307.63 125.63,-347.13 46.48,-22.91 107.16,-28.86 159.27,-23.01 22.41,2.52 39.27,54.36 58.64,83.78 -4.83,3.14 -9.67,6.26 -14.5,9.39zm-313.81 -547.62c-4.67,-23.77 -20.53,-55.69 -14.4,-82.6 17.5,-76.6 36.55,-154.52 68.7,-225.72 42.8,-94.83 128.09,-124.04 228.02,-113.27 59.62,6.43 82.96,35.47 61.27,94.17 -21.7,58.76 -55.99,113.14 -87.31,167.99 -54.17,94.87 -131,157.49 -256.28,159.43zm4057.53 685.89c9.39,4.99 18.77,9.98 28.16,14.97 20.98,-40.76 41.98,-81.54 62.96,-122.29 -8.58,-4.55 -17.15,-9.09 -25.72,-13.63 -21.81,40.32 -43.61,80.64 -65.4,120.95zm217.12 -141.4c-12.81,170.04 -131.7,303.35 -292.37,315.35 -15.58,1.17 -42.08,-18.68 -47.97,-34.56 -31.22,-84.05 41.78,-307.11 122.06,-346.77 47.92,-23.67 110.68,-28.68 164.71,-22.9 20.79,2.23 35.88,57.68 53.57,88.88z"/>
  <path fill="white" fill-rule="nonzero" d="M12971.5 1256.29c177.64,-12.92 345.7,-26.19 513.96,-35.77 16.83,-0.97 42.49,16.33 51.11,32.2 32.17,59.1 57.75,121.73 87.99,181.94 55.15,109.77 90.39,222.43 79.53,348.45 -3.64,42.15 16.5,86.34 25.77,129.6l19.05 1.69c66.37,-129.52 133.09,-258.86 198.96,-388.64 38.44,-75.76 67.99,-157.29 115.1,-227.1 61.56,-91.23 133.11,-102.34 222.89,-39.91 156.36,108.75 308.77,223.14 463.21,334.67 73.18,52.83 56.54,102.85 24.79,159.81 -6.73,12.03 -15.26,23.35 -24.45,33.69 -116.98,131.83 -231.71,265.8 -352.18,394.38 -106.75,113.89 -247.63,177.52 -387.75,238.77 -42.2,18.45 -59.37,39.91 -62.39,86.24 -15.9,243.69 -34.82,487.22 -54.29,730.66 -4.73,59.23 -16.81,117.84 -23,176.99 -5.12,48.9 -33.57,54.84 -70.29,39.1 -69.19,-29.66 -139.63,-57.96 -204.73,-95.21 -89.36,-51.13 -174.63,-109.47 -260.89,-165.89 -41.96,-27.43 -55.22,-66.8 -52.62,-117.68 11,-216.17 17.92,-432.56 28.38,-648.77 2.17,-44.85 -9.57,-74.24 -44.34,-107.16 -48.02,-45.47 -88.7,-102.12 -120.66,-160.49 -102.88,-187.89 -149.17,-391.55 -155.85,-605.23 -3.04,-96.88 -11.13,-193.6 -17.3,-296.34zm-11218.02 371.12c4.52,237.02 -10.56,258.92 -184.05,322.99 -24.17,8.93 -48.12,19.5 -73.13,24.91 -185.75,40.32 -326.32,149.48 -443.54,292.49 -18.3,22.32 -30.61,54.86 -33.05,83.73 -5.03,59.19 0.96,119.23 -2.31,178.66 -2.47,45.11 16.13,67.82 56.69,84.86 177.98,74.75 350.59,75.86 518.42,-28.33 42.11,-26.14 86.06,-49.28 128.36,-75.11 42.64,-26.04 76.13,-12.04 91.13,29.29 23.5,64.79 42.22,131.84 56.57,199.27 10.66,50.16 11.48,102.47 16.21,153.87 15.44,167.97 -57.8,292 -193.73,382.53 -147.49,98.23 -315.13,137.02 -487.91,158.58 -27.59,3.44 -55.6,3.85 -83,8.22 -194.46,31.07 -354.38,-39.25 -494.55,-167.57 -11.49,-10.52 -21.66,-23.21 -29.9,-36.49 -146.93,-236.67 -226.49,-493.41 -222.97,-772.98 1.55,-124.82 -4.14,-252.45 19.63,-373.68 46.03,-234.54 194.97,-409.54 374.19,-557.97 217.46,-180.08 466.43,-291.93 748.55,-324.74 33.42,-3.88 67.51,-5.21 101.12,-3.7 62.11,2.73 106.11,43.22 111.28,102.05 10.92,124.62 20.37,249.36 25.99,319.12zm1085.19 625.28c170.24,-31.08 355.09,-249.1 359.91,-414.22 1.33,-45.3 -19.04,-64.3 -60.97,-70.52 -114.72,-17.02 -200.99,30.95 -251.76,143.59 -48.55,107.7 -50.81,221.86 -47.18,341.15zm40.84 678.49c0,69.13 -3.4,138.46 0.9,207.33 4.67,74.5 -24.52,130.72 -87.69,162.51 -104.24,52.47 -211.59,98.98 -318.84,145.18 -52.72,22.71 -108.24,38.87 -162.31,58.45 -42.67,15.43 -72.54,-4.03 -73.77,-50.13 -11.62,-434.83 -21.52,-869.71 -36.53,-1304.41 -1.58,-45.67 -27.06,-93.91 -51.99,-134.46 -26.7,-43.4 -71.15,-75.77 -98.58,-118.87 -67.78,-106.49 -54.69,-160.58 34.17,-221.86 223.58,-154.13 472.11,-259.98 713.93,-379.67 214.69,-106.26 440.77,-105.61 669.6,-101.08 11.16,0.21 23.7,4.23 33.06,10.36 134.04,87.67 255.35,187.89 341.77,326.51 66.84,107.24 70.12,219.94 47.5,338.68 -27.35,143.48 -67.49,283.19 -148.53,405.29 -39.62,59.68 -92.56,114.05 -149.43,157.89 -82.99,63.98 -106.65,156.12 -36.01,234.65 39.87,44.32 95,76.17 146.53,108.39 46.85,29.32 100.55,47.84 146.87,77.85 60.53,39.17 69.33,78.26 25.14,134.16 -52.7,66.7 -108.71,132.71 -172.82,187.98 -99,85.34 -203.19,165.52 -310.74,239.85 -78.02,53.92 -146.12,43.94 -205.47,-29.82 -47.81,-59.42 -83.05,-129.57 -119.64,-197.23 -33.92,-62.67 -59.09,-130.16 -94.42,-191.93 -17.3,-30.21 -48.93,-52.23 -74.08,-77.95 -6.21,4.11 -12.42,8.22 -18.62,12.33zm1208.04 -1674.93c179.29,-12.99 349.32,-26.04 519.52,-36.3 14.34,-0.87 36.71,13.32 43.61,26.62 33.78,65.03 62.1,132.88 95.12,198.33 53.74,106.48 83.44,216.45 74.35,337.73 -3.17,42.33 16.4,86.37 25.59,129.65 6.28,0.65 12.58,1.31 18.87,1.96 65.7,-127.49 132.11,-254.65 196.86,-382.63 37.48,-74.09 65.18,-154.15 110,-223.27 65.01,-100.23 138.18,-113.69 235.1,-46.44 154.84,107.44 305.52,220.87 458.34,331.26 73.25,52.89 57.05,102.56 25.25,159.72 -6.69,12.06 -15.19,23.38 -24.38,33.73 -116.98,131.85 -231.73,265.78 -352.16,394.42 -106.69,113.97 -247.61,177.52 -387.66,238.95 -41.89,18.38 -59.71,39.29 -62.75,85.98 -15.79,243.71 -34.79,487.21 -54.26,730.66 -4.73,59.23 -16.73,117.86 -22.97,177.01 -4.49,42.76 -26.94,56.39 -64.27,41.72 -178.28,-70.01 -346.87,-158.07 -492.12,-284.4 -19.9,-17.31 -30.93,-55.87 -30.14,-84.14 6.27,-218.35 15.48,-436.63 26.19,-654.82 2.4,-48.96 -9.55,-81.42 -48.66,-116.93 -115.42,-104.83 -173.16,-246.86 -211.63,-393.12 -30.06,-114.25 -43.83,-233.36 -57.57,-351.15 -11.92,-102.14 -13.63,-205.46 -20.23,-314.54zm4060.49 1445.06c4.84,-3.14 9.67,-6.26 14.5,-9.39 -19.37,-29.43 -36.23,-81.26 -58.65,-83.78 -52.1,-5.86 -112.77,0.08 -159.26,23 -80.15,39.49 -151.59,260.04 -125.63,347.13 8.86,29.72 22.31,41.5 55.08,37.05 163.53,-22.25 276.45,-150.57 273.96,-314.01zm-313.81 -547.63c125.28,-1.94 202.11,-64.56 256.28,-159.43 31.32,-54.85 65.61,-109.23 87.31,-167.99 21.69,-58.69 -1.65,-87.74 -61.27,-94.17 -99.93,-10.77 -185.22,18.44 -228.02,113.27 -32.15,71.2 -51.2,149.12 -68.7,225.72 -6.13,26.91 9.73,58.83 14.4,82.6zm682.59 186.45c42.65,22.98 71.43,40.76 101.98,54.62 250.47,113.64 328.82,454.76 203.12,683.67 -139.92,254.82 -349.71,365.14 -625.07,367.25 -230.14,1.76 -460.37,-13.25 -690.62,-17.51 -73.1,-1.36 -147.04,3.53 -219.42,13.86 -50.98,7.26 -64.71,-11.05 -64.33,-56.31 2.39,-279.9 7.66,-559.84 4.51,-839.69 -1.31,-116.32 -32.37,-232.7 -29.6,-348.57 3.75,-157.23 -41.13,-280.12 -161.74,-387.18 -66.81,-59.3 -70.6,-149.87 30.64,-200.12 234.12,-116.27 471.93,-225.19 704.69,-344.05 217.72,-111.16 449.89,-97.85 681.84,-95.93 9.45,0.08 20.12,2.31 28.1,7.06 144.28,86.2 279.07,182.66 366.81,331.87 46.25,78.66 47.83,163.08 34.1,248.42 -22.93,142.46 -72.77,275.6 -148.97,398.66 -50.25,81.14 -115.78,145.02 -216.04,183.95zm1361.84 -319.63c-4.52,3.5 -9.59,6.71 -13.79,10.81 -97.01,94.37 -73.5,215.34 -71.7,331.1 0.12,8.89 11.9,19.66 20.77,26.07 45.05,32.5 85.94,19.56 123.39,-14.39 102.1,-92.51 72.61,-270.77 -58.67,-353.59zm-824.13 1425.52c0,-126.87 -5.1,-245.87 1.77,-364.18 4.67,-80.47 14.5,-164.24 42.16,-239.09 95.51,-258.61 138.75,-528.69 194.89,-796.52 33.58,-160.27 85.22,-317.31 137.2,-472.99 33.53,-100.39 106.15,-168.69 210.47,-203.3 156.19,-51.79 311.32,-106.96 465.74,-163.86 65.66,-24.21 115.42,-4.98 148.9,49.1 49.97,80.69 102.18,161.89 137.78,249.26 186.41,457.4 314.53,931.47 391.95,1419.25 1.56,9.79 2.25,19.73 3.54,29.57 9.14,68.53 -8.73,116.86 -76.05,154.66 -140.08,78.63 -273.67,168.74 -410.96,252.45 -66,40.24 -115.98,23.8 -135.42,-51 -16.81,-64.7 -19,-133.17 -28.42,-199.86 -5.82,-41.12 -8.61,-83.42 -20.55,-122.83 -32.72,-108.1 -155.61,-139.89 -228.41,-53.58 -46.07,54.63 -78.45,123.58 -105.34,190.77 -23.67,59.13 -54.1,106.68 -113.9,128.44 -180.58,65.71 -361.63,130.14 -543.31,192.65 -22.66,7.79 -50.34,1.06 -72.04,1.06zm3054.35 -747.84c-17.69,-31.21 -32.78,-86.67 -53.57,-88.89 -54.03,-5.79 -116.79,-0.78 -164.71,22.89 -80.28,39.67 -153.28,262.72 -122.07,346.79 5.9,15.86 32.4,35.72 47.98,34.55 160.67,-12.01 279.56,-145.31 292.37,-315.34zm-326.21 -543.72c129.55,-4.22 204.44,-72.3 260.49,-167.46 22.12,-37.54 46.37,-74.17 64.46,-113.57 12.03,-26.22 21.18,-57.02 19.56,-85.06 -1.03,-17.75 -21.53,-45.28 -38.02,-49.34 -76.36,-18.86 -152.79,-13.51 -210.09,47.06 -80.14,84.72 -106.07,192.79 -112.8,305.59 -1.3,21.71 11.24,44.24 16.4,62.78zm680.42 184.71c48.13,26.27 83.83,47.81 121.22,65.84 226.66,109.34 309.65,441.9 193.22,655.18 -95.11,174.2 -213.97,297.62 -413.02,345.5 -99.22,23.87 -195.25,46.46 -297.69,42.23 -202.46,-8.34 -405,-15.51 -607.57,-19.4 -75.14,-1.43 -151.08,3.3 -225.5,13.56 -51.13,7.04 -64.6,-11.38 -64.2,-56.57 2.4,-280.06 7.53,-560.17 4.54,-840.19 -1.24,-114.42 -30.85,-228.81 -29.03,-342.93 2.53,-158.19 -40.75,-283.94 -162.85,-393.28 -69.06,-61.83 -68.13,-149 32.21,-199.79 206.84,-104.74 413.66,-209.91 624.25,-306.68 107.49,-49.42 220.44,-98.08 335.79,-116.48 139.86,-22.28 284.88,-12.42 427.68,-15.82 9.24,-0.23 19.7,3.25 27.79,8.05 123.63,73.49 238.8,156.62 327.69,272.63 71.41,93.16 91.09,196.32 71.35,309.26 -24.15,138.3 -71.39,268.2 -144.14,388.45 -51.25,84.74 -117.75,153.53 -221.74,190.44z"/>
 </g>
</svg>
