<?xml version="1.0" encoding="UTF-8"?>
<!DOCTYPE svg PUBLIC "-//W3C//DTD SVG 1.0//EN" "http://www.w3.org/TR/2001/REC-SVG-20010904/DTD/svg10.dtd">
<!-- Creator: CorelDRAW -->
<svg xmlns="http://www.w3.org/2000/svg" xml:space="preserve" width="4in" height="2.24579in" version="1.0" shape-rendering="geometricPrecision" text-rendering="geometricPrecision" image-rendering="optimizeQuality" fill-rule="evenodd" clip-rule="evenodd"
viewBox="0 0 3872.76 2174.35"
 xmlns:xlink="http://www.w3.org/1999/xlink"
 xmlns:xodm="http://www.corel.com/coreldraw/odm/2003">
 <g id="Layer_x0020_1">
  <metadata id="CorelCorpID_0Corel-Layer"/>
  <path fill="#090A0C" d="M1716.31 2081.84c-8.15,7.3 -17.91,14.18 -30.57,21.94 -8.5,5.29 -24.47,29.4 -61.4,42.35 -15.88,5.57 -15.27,11.34 -48.41,16.74 -45.06,7.34 -84.67,-5.25 -112.47,-32.21 -10.15,-9.84 -25.76,-10.66 -36.89,-1.94 -42.6,33.38 -91.87,26.52 -111.85,21.98 -6.07,-1.38 -11.66,-0.86 -17.37,1.61 -34.72,15.01 -74.47,13.26 -108.95,-3.59 -16.55,-8.09 -26.17,4.03 -59.73,2.9l-33.87 2.84c-36.42,7.09 -73.18,-2.06 -102.09,-23.53 -10.69,-7.94 -25.06,-7.41 -35.13,1.3 -36.38,31.45 -90.98,40.63 -136.71,22.25 -7.02,-2.82 -14.05,-2.81 -21.06,0.04 -31.97,12.99 -69.8,12.91 -102.04,-0.73 -7.44,-3.15 -15.03,-3.08 -22.41,0.22 -36.3,16.21 -82.01,16.34 -117.59,-1.17 -7.23,-3.56 -14.79,-3.92 -22.33,-1.07 -31.97,12.07 -68.59,11.02 -101.62,-5.28 -14.21,-7.01 -30.97,2.45 -68.87,-21.04 -6.65,-4.12 -14.59,-4.38 -26.54,-8.82 -31.27,-11.63 -33.72,31.25 -105.71,36.76l-26.11 2.31c-46.13,10.48 -94.2,-5.88 -124.79,-42.8 -1.2,-1.45 -2.34,-2.58 -3.79,-3.78 -31.13,-25.61 -47.4,-63.31 -49.89,-103.93 -0.71,-11.53 1.09,-8.09 -1.08,-22.95l-13.57 -90.02 -3.48 -17.31c-4.39,-34.71 -14.87,-46.18 -7.28,-87.25 7.91,-42.79 28.94,-73.01 64.53,-96.85 52.92,-35.46 88.96,-21.39 141.68,-20.17l21.97 2.61c17.05,1.2 30.56,1.65 44.4,4.2 15.53,2.86 22.64,-9.7 75.47,-7.52 17.24,0.71 53.72,1.38 70.34,4.76 4.3,0.88 8.15,0.79 12.41,-0.27 22.68,-5.65 89.95,-5.32 116.4,-3.38 1.81,0.13 3.37,0.1 5.17,-0.1 24.3,-2.71 47.21,1.07 66.9,-0.83 27.22,-2.62 33.81,2.2 45.71,2.26l60.42 -0.14c16.95,-3.03 23.12,-1.28 32.16,-2.4l28.29 -3.36c23.4,-0.58 38.88,5.82 72.69,2.94l80.24 -1.49c20.34,1.57 37.08,8.56 48.12,5.93 20.14,-4.8 55.34,-3.46 78.32,-4.06l-1.01 -2.33c-71.04,-23.17 -136.46,-63 -168.35,-134.19 -18.5,-41.3 -26.54,-86.33 -19.71,-131.3 7,-46.12 37.91,-90.99 78.83,-116.01 12.51,-7.65 17.03,-23.53 10.43,-36.63 -6.87,-13.6 -16.15,-37.99 -16.79,-76.36 -1.12,-68.01 36.38,-132.35 93.82,-167.7 5.37,-3.3 9.05,-7.67 11.38,-13.53 19.07,-47.9 89.88,-117.44 172.9,-125.51 16.23,-1.57 27.61,-16.33 25.02,-32.42 -9.5,-59.12 6.16,-127.94 36.94,-178.33 14.06,-23.03 14.76,-108.69 12.03,-136.62 -1.03,-10.52 -4.07,-21.22 -5.21,-32.13 -1.72,-16.6 -1.27,-32.76 -1.76,-49.34 -1.87,-63.13 22.87,-118.44 50.46,-173.51l18.7 -32.66c30.02,-90.57 119.29,-163.92 208.1,-191.8 84.02,-26.38 169.67,-39.4 257.74,-39.4 110.46,0 243.31,27.15 335.38,90.33 37.4,25.67 80.9,69.83 109.57,105.12 53.86,66.31 67.96,132.96 83.09,215.05 14.34,77.78 26.06,173.55 16.34,253.57 -3.11,25.58 31.13,35.61 25.62,129.19 -1.14,19.36 16.98,33.96 35.66,28.71 38.83,-10.92 57.32,-3.78 68.2,-6.22 22.16,-4.96 41.86,-5.38 66.44,1.12 53.8,14.23 99.55,44.44 120.78,97.8 12.01,30.2 20.28,59.51 21.73,90.11 0.35,7.31 3.1,13.49 8.3,18.64 50.13,49.62 61.4,118.97 42.55,188.93 -9.64,35.77 -25.12,45.34 -17.02,64.5 27.46,64.86 7.29,132.72 -38.19,185.5 -11.47,13.32 -21.62,23.55 -17.24,40.03 11.92,44.8 5.22,88.05 -20.33,126.91 -11.69,17.79 -0.27,41.49 20.93,43.42 45,4.09 93.16,19.07 125.95,53.7 11.46,12.1 30.67,11.69 41.6,-0.88 28.05,-32.27 75.49,-55.1 120.84,-53.14l15.9 -1.27 83.63 -1.31c24.63,1.2 14.23,4.66 40.01,1.19 28.26,-3.81 69.61,-4.66 102.06,1.26 8.95,1.63 18.96,-2.75 38.49,-2.41 39.68,0.43 65.4,-5.12 102.4,8.37 6.11,2.23 12.01,2.34 18.2,0.36 41.39,-13.26 97.72,-13.2 141.17,-2.65 15.83,3.84 19.14,-5.55 32.61,-5.7 28.57,-0.32 40.46,0.55 67.32,-2.3 0.9,-0.1 1.67,-0.14 2.57,-0.16 43.58,-0.63 92.16,-1.17 131.53,19.87 38.86,20.77 49.2,31.53 76.88,67.02 24.28,31.13 30.49,55.75 35.25,91.62 3.88,29.32 0.9,25.58 2.59,47.88 6.86,90.72 -51.61,120.99 -60.18,133.53 -36.26,53.04 -58.1,30.57 -81.72,69.21 -34.81,66.72 -121.1,83.25 -179.64,50.59 -7.5,-4.18 -15.63,-4.78 -23.66,-1.73 -38.5,14.62 -79.97,16.09 -118.63,-3.41 -9.81,-4.95 -32.87,-4.42 -41.92,1.48 -38.81,25.3 -87.05,26.5 -127.38,5.6 -7.47,-3.87 -15.41,-4.28 -23.23,-1.2 -36.36,14.32 -75.84,11.71 -107.97,-5.89 -16.44,-9 -25.78,1.06 -44.41,6.41 -14.25,4.09 -20.59,12.13 -51.78,15.35 -23.13,2.39 -11.3,-2.41 -35.44,7.97 -13.7,5.89 -29.58,0.08 -36.24,-13.27 -8.97,-17.98 -44.06,-20.53 -63.69,-77.95 -7.28,-21.32 -36.52,-32.76 -52.41,-11.64 -21.11,28.06 -37.55,31.09 -45.37,40.34 -43.46,51.39 -96.17,41.71 -112.93,45.64 -30.5,7.15 -62.86,2.39 -90.59,-11.84 -22.55,-11.58 -31.86,12.67 -84.06,8.55l-33.31 3.04c-29.98,5.84 -59.8,1.28 -85.46,-12.05l-1.45 5.52 -95.57 4.67c-37.75,8.44 -79.57,2.15 -110.38,-20.42 -10.68,-7.83 -24.92,-7.25 -34.95,1.39 -41.08,35.42 -100.58,39.17 -150.05,11.7 -27.95,-15.52 -35.96,21.77 -98.48,20.42 -0.61,-0.02 -1.14,-0.01 -1.75,0.02 -50.96,2.07 -98.47,-27.97 -118.73,-74.58 -7.66,-17.63 -30.18,-22.55 -44.51,-9.74zm-24.9 -396.28l34.18 23.5c10.63,9.13 26.08,9.09 36.68,-0.08 33.18,-28.71 59.01,-32.31 96.76,-35.93 0.88,-0.09 1.62,-0.19 2.48,-0.35 28.01,-5.23 43.53,-1.26 64.7,-2.74 18.59,-1.32 35.37,-1.33 52.88,1.49 6.88,1.11 26.55,-3.14 49.56,-1.72 8.6,0.53 31.47,-5.31 57.59,-2.7 0.88,0.09 1.65,0.13 2.53,0.14 20.96,0.19 40.02,1.83 60.16,7.88 4.93,1.48 9.5,1.62 14.51,0.44 27.2,-6.39 55.91,-6.09 83.87,-6.13 30.95,-0.04 38.95,-43.15 10.09,-54.3 -82.74,-31.96 -140.14,-40.16 -223.31,-61.47 -24.53,-6.29 -49.25,-11.85 -74.05,-16.95 -5.76,-1.19 -11.02,-0.68 -16.46,1.57 -36.38,15.13 -72.31,31.38 -109.04,45.71 -41.99,16.39 -90.54,33.59 -138.85,50.54 -22.81,8 -25.45,39.4 -4.3,51.1z"/>
  <path fill="#FEFEFE" d="M3356.14 2077.29c-31.41,42.49 -90.83,40.97 -122.27,-6.03l-11.92 7.36c-5.77,5.84 -12.64,10.74 -20.38,14.54 -36.86,18.12 -76.27,5.13 -93.86,-28.09l-8.93 -7.89 -10.14 6.26c-11.88,17.64 -27.67,29.52 -48.12,33.03 -9.91,6.3 -21.69,10.43 -34.61,11.77 -16.32,1.69 -19.18,-1.81 -25.81,1.04l-0.9 -2.13c-29.88,-6.09 -49.72,-29 -53.82,-62.38 -9.8,-7.17 -14.35,-11.15 -20.72,-20.45 -12.43,-18.13 -17.65,-29.49 -21.43,-50.99 -0.07,-0.26 -0.16,-0.52 -0.24,-0.77 -7,-21.35 -4.14,-43.41 7.03,-60.7 -32.04,-46.09 -22.24,-103.81 9.86,-145.6 12.62,-16.42 30.25,-26.98 49.5,-33.35 11.24,-4.23 23.81,-5.44 36.85,-3.87 4.01,-0.81 7.7,-1.52 12.21,-1.81l79.38 -1.39c9.55,0.4 18.41,2.25 26.51,5.31 6.86,-2.26 14.29,-3.7 22.2,-4.24 26.27,-3.84 78.58,-4.63 101.23,4.4 3.89,1.55 10.99,-6 33.22,-5.34l37.86 -0.08c12.54,-2.29 25.05,-1.48 38.09,2.46 12.84,3.87 23.99,8.82 33.18,16.3 3.11,-1.4 6.25,-2.63 9.41,-3.7 17.99,-8.58 14.65,-9.37 37.6,-13.3l36.94 -3.73c15.5,-0.57 25.12,2.18 39.33,4 16.16,1.13 27.49,5.04 41.81,11.89l27.78 -13.55 47.87 -0.53 14.63 -1.84c30.57,-0.45 76.98,-2.04 105.53,13.22 3.69,1.97 7.07,4.11 10.25,6.47 22.57,9.09 34.49,27.14 48.82,45.57 11.68,14.93 19.57,32.43 22.2,51.25 0.95,4.57 1.48,9.28 1.56,14.08 4.23,16.7 1.35,27.99 2.32,43.36 5.24,63.87 -40.33,82.62 -45.36,89.47 -12.47,24.33 -34.1,37.45 -59.49,39.27 -2.99,1.9 -6.02,3.63 -9.11,5.14 -3.27,12.57 -9.69,23.23 -18.24,31.47 -10.61,28.1 -37.01,45.91 -71.46,44.04 -28.42,-0.53 -49.88,-14.39 -62.61,-38.57 -36.53,28.33 -84.87,46.16 -126.92,17.14 -5.3,1.08 -2.9,1.33 -12.85,-4.95 -15.31,4.19 -39.11,2.82 -53.97,-3.58zm-796.6 -345.94l36.99 -7.19 82.53 3.84c23.63,0.71 44.72,5.36 66.41,14.62 34.38,14.69 48.81,40.2 63.74,71.94 13.99,25 19.94,67.37 16.16,94.87 -5.63,40.95 -28.79,71.61 -29.49,74.04 -0.18,7.04 -0.99,14.06 -2.45,20.59 -6.17,27.58 -25.31,48.87 -49.69,57.25 -11.12,20.95 -32.78,35.05 -58.18,35.96 -7.86,1.36 -15.54,1.31 -22.82,0.06 -12.43,5.04 -26.71,6.54 -41.57,3.3 -20.95,-4.57 -37.64,-15.78 -47.59,-31.89 -3.02,-2.48 -5.86,-5.24 -8.52,-8.29 -15.69,27.11 -48.54,40.48 -78.89,34.12 -5.77,1.73 -11.96,2.77 -18.52,3.03 -5.11,0.82 -10.15,1.1 -15.09,0.88 -34.7,9.35 -66.14,-5.52 -83.34,-31.91 -10.33,13.93 -25.11,23.78 -42.23,27.37l-0.05 0.17 -58.15 2.58c-7.24,2.22 -15.07,3.47 -23.34,3.55 -26.67,1.88 -50.36,-9.14 -64.28,-30.9 -9.21,-10.59 -13.76,-22.95 -14.9,-36.56 -1.67,-3.75 -2.99,-7.63 -3.95,-11.61 -4.71,1.76 -9.62,3.11 -14.71,4.11 -5.68,4.75 -12.16,8.56 -19.22,11.29 -5.21,12.33 -13.24,20.94 -14.58,23.32 -10.05,32.39 -42.22,52.79 -78.16,46.87 -25.89,-4.05 -52.51,-22.35 -63.11,-45.16 -0.54,0.37 -1.07,0.75 -1.6,1.13 -12.12,15.62 -27.05,26.11 -42.71,31.04 -13.32,11.3 -30.44,17.18 -48.36,16.11 -30.36,2.44 -58.72,-15.97 -69.08,-44.51 -3.07,-6.82 -5.03,-14.1 -5.92,-21.74 -18.75,-13.07 -26.24,-26.06 -33.8,-45.15 -13.2,-26.97 -13.27,-61.34 1.15,-87.03 -16.15,-31.58 -30.33,-50.33 -18.25,-87.67 9.29,-32.77 34.85,-72.2 66.08,-86.12 21.79,-9.71 31.74,-7.4 48.84,-9.18 18.73,-4.16 39.78,-2.11 58.81,-2.34 42.13,-3.24 52.19,3.59 56.64,3.65 9.94,-3.01 20.5,-4.39 31.37,-4.45 6.87,-0.03 13.76,0.78 20.47,0.98 10.52,-2.41 22.28,-3.29 32.34,-3.76 5.33,-0.25 10.33,0.02 15.46,0.72 18.9,-0 34.86,0.79 52.31,6.64 7.28,1.24 14.11,3.66 20.66,7.03 26.9,-13.49 69.47,-11.32 97.89,-11.48l97.21 0.67c4.47,0.61 8.81,1.56 13,2.84 9.23,-2.97 18.43,-3.88 30.14,-2.12l98.95 -0.99c5.14,0.11 10.31,1.05 15.39,1.43 8.15,-1.94 16.65,-2.42 25.18,-1.39 9.34,0.35 17.44,2.19 24.84,5.43zm-1195.49 11.93c24.17,-29.81 59.38,-40.89 96.22,-30.71 16.09,4.45 27.35,12.15 39.39,22.6 11.45,-4.02 14.9,-6.87 30.76,-7.36 4.67,-0.14 9.11,-0.02 13.49,0.4 9.8,-1.71 18.58,-1.17 29.92,-0.95 17.66,-2.13 35.21,-1.81 52.99,-1.76 20.69,0.06 38.62,6.9 52.91,19.47 12.85,7.72 22.97,19.62 28.56,33.72 7.96,17.85 7.05,21.51 7.24,39.58 1.78,35 8.61,72.69 -9.6,105.74 9.28,27.11 12.25,52.98 -2.86,80.04 -13.89,27.38 -18.82,34.9 -47.4,52.31 -2.79,1.85 -5.71,3.5 -8.76,4.94 -0.34,0.28 -10,13.74 -25.45,24.01 -7.26,4.83 -15,8.11 -22.91,9.94 -8.87,6.38 -19.31,10.63 -30.59,12.04 -76.61,13.25 -87.73,-60.76 -87.82,-60.88 -2.05,-2.84 -42.89,-25.7 -45.08,-84.14 -0.38,-10.21 -1.35,-19.76 0.65,-29.48 -2,0.11 -4.01,0.14 -6.02,0.09 1.74,14.95 -0.3,29.89 -6.15,43.15l2.37 2.87c-2.26,9.82 -6.67,26.15 -6.41,36.15 3.56,19.25 -0.58,38.33 -13.05,54.29 -15.51,21.39 -39.71,31.95 -66.12,28.57 -16.54,-1.17 -28.97,-5.84 -40.51,-15.21 -27.46,30.66 -79.05,34.31 -113.8,-5.2 -14.4,11.04 -37.39,19.17 -57.23,17.92 -2.34,-0.15 -4.64,-0.41 -6.88,-0.77 -7.78,2.39 -16.25,3.48 -25.29,3.07l-5.05 -0.23c-32.06,9.8 -66.6,-3.38 -85.28,-33.26 -8.63,-13.81 -14.87,-30.02 -16.86,-44.13 -4.07,1.64 -8.36,2.93 -12.83,3.85 -6.16,5.22 -13.15,9.33 -20.58,12.26 -3.5,9.8 -9.09,18.38 -16.26,25.39 -10.63,29.31 -38.45,49.03 -76.52,45.83 -23.06,-1.94 -41.08,-13.51 -53.63,-30.64 -13.76,20.49 -34.38,31.37 -61.11,31.2 -18.19,-0.03 -34.83,-6.46 -47.35,-17.56 -6.32,-4.27 -11.92,-9.36 -16.69,-15.08 -0.18,-0.01 -0.37,-0.01 -0.56,-0.02 -15.01,21.73 -32.89,31.62 -58.21,34.1 -32.93,3.22 -58.77,-9.09 -74.59,-39.97 -18.96,31.33 -59.29,44.75 -95.11,25.31 -14.74,-8 -7.44,-8.31 -17.7,-7.56 -37.16,2.71 -45.26,-12.55 -53.25,-15.2 -16.41,-5.44 -39.22,-5.59 -59.94,-34.34 -9.05,11.3 -21.68,19.78 -37.6,24.4 -11.54,20.08 -32.56,33.31 -59.1,35.35l-29.39 2.25c-24.16,7.26 -51.4,1.79 -71.09,-19.29 -2.89,-3.09 -5.44,-6.36 -7.68,-9.78 -23.32,-15.29 -34.39,-40.91 -36.1,-68.83 -0.69,-11.21 0.82,-17.5 -1.8,-29.24l-13.39 -91.4c-0.63,-3.92 -2.65,-4.65 -3.14,-12.4l-4.24 -27.43c-5.45,-12.98 -6.69,-27.66 -3.67,-43.44 4.81,-26.54 17.99,-46.42 40.52,-60.34 16.25,-12.04 35.3,-17.14 54.2,-13.68l20.15 0.46c4.23,0.36 8.34,1.01 12.33,1.97l21.05 0.47 18.29 2.35c24.03,1.75 39.79,0.25 63.36,11.01 21.55,-15.41 38.96,-14.97 61.92,-14.02 8.35,-0.03 16.64,-0.25 25.02,0.08 5.45,0.21 10.65,0.8 15.66,1.87 13.61,-0.3 26.25,2.13 39.21,8.4 19.02,-10.97 30.72,-9.72 53.17,-9.93 17.85,-0.17 35.42,-1.48 53.31,-0.16l18.67 1.37c23.02,-4.23 48.73,-0.02 71.42,-1.58 11.29,-1.19 21.6,-0.51 31.05,2.18l53.36 1.64c6.51,-1.21 13.2,-1.46 19.84,-0.71 8.22,-2.31 16.92,-3.3 25.94,-3.02 13.9,0.44 15.07,-2.96 32.66,-3.58 10.86,-0.38 21.38,1.08 31.09,4.22 3.69,-0.59 7.25,-0.86 11.07,-1.01 11.79,-0.48 24.53,1.33 35.91,-0.45l69.12 -1.55c13.11,0.89 35.72,5.68 47.55,11.89 15.28,-8.43 32.46,-10.92 51.25,-8.9l61.73 -1.62c20.58,0.1 44.73,3.15 64.8,1.1 11.88,-1.22 23.29,0.26 33.55,3.94 5.85,-1.91 12,-3.16 18.37,-3.64 11.07,-0.82 21.83,-0.18 32.74,-0.34 44.93,-4.07 58.06,-5.76 97.34,7.39 6.75,2.26 13.67,5.57 20.49,9.64z"/>
  <path fill="#090A0C" d="M598.26 1982.4l3.87 2.52c0.67,14.57 -4.9,13.68 2.86,17.75 -0.54,3.75 -2.36,3.5 -1,6.8 0.62,1.5 2.45,2.67 3.65,4.47 0.03,5.84 -1.56,1.83 -1.81,7.55 -0.21,4.86 0.64,3.58 3.72,5.55 -0.12,20.31 6.72,15.19 10.28,15.08 4.91,-0.16 3.21,0.76 6.77,-2.9 4.76,-4.9 0.77,-0.31 0.59,-30.95 -0.03,-5.9 -1.01,-4.96 -1.84,-8.4l-0.88 -76.73c-0.12,-4.93 -1.36,-3.77 -1.47,-7.52 -0.11,-4.08 0.82,-2.24 1.12,-7.05 0.19,-3.18 -0.47,-3.77 5.27,-3.79 8.69,-0.02 3.17,1.7 7.54,2.49 2.59,0.47 -0.37,-1.03 2.27,0.09l10.83 17.67c5.12,9.88 -7.54,20.89 5.98,30.59 4.41,3.16 16.14,4.98 17.55,10.94 0.56,2.36 -0.31,31.66 -1.16,34.29 7.29,5.54 0.47,-0.4 5.02,6.24 3.94,0.64 4.25,-0.37 5.86,0.15 8.3,2.71 -1.4,0.51 2.61,-10.67 1.25,-3.47 3.4,-37.06 1.04,-42.84l4.19 -2.63 -1.4 -5.18c1.97,0.47 1.01,0.33 3.21,1.63 1.4,-11.22 -3.05,-3.45 10.54,-22.5 -1.67,-2.1 -1.66,-2.23 -0.27,-4.86 4.71,-8.93 5.3,-12.91 9.83,-14.83l-0.88 -5.58c3.83,-2.36 3.03,1.11 3.19,-3.48 0.07,-2.15 -1.17,-2.33 -0.47,-6.82l3.35 -0.94c-1.27,-2.58 -1.37,-1.21 -1.24,-4.2 7.6,-5.15 2.71,-4.95 13.41,-5.04l1.43 5.5c1.94,0.71 1.68,-0.26 3.62,0.93 -2.08,7.03 -1.69,2.34 -0.78,10.3 -2.8,5.63 3.12,-4.55 -1.43,1.73 -2.76,3.82 -1.73,23.67 -1.21,28.82 1.06,10.46 -0.69,19.5 -1.42,30.27l-0.98 48.67c0.13,8.82 -2.84,8.43 3.57,12.15 -0.61,4.83 -3.62,3.9 1.46,6.61 -2.53,9.4 8.57,12.33 8.65,12.37 4.54,2.21 0.19,3.95 5.3,3.95 4.75,0.02 4.47,0.59 7,-4.99 2.2,-4.86 4.58,-12.15 0.86,-15.39l3.24 -38.86c1.06,-4.28 1.72,-0.45 2.18,-4.66 0.01,-0.11 -0.43,-4.81 -0.43,-5.8 4.64,-4.97 1.64,-0.13 3.87,-7.12 1.75,-5.49 2.03,-1.73 1.11,-9.72 3.06,-5.32 -2.97,4.23 1.56,-1.7 1.96,-2.57 0.83,-3.97 2.29,-7.08 4.86,-10.34 0.32,7.2 1.94,-8.05 2.5,-10.52 5.75,-6.92 4.18,-18.73 1.36,-0.79 2.45,-1.26 3.51,-1.92 -3.07,-11 2.31,-1.39 2.1,-11.6l3.82 -12.51c2.38,-4.42 1.55,-2.79 0.46,-7.67 6.99,-7.35 -1.28,-4.17 5.86,-10.3 -0.76,-2.41 -0.66,-1.57 -1.79,-3.74 2.71,-3.32 4.23,-2.5 2.33,-8.42l4.06 -0.94c-1.32,-5.77 4.15,-17.2 3.97,-25.25 -0.2,-9.19 1.46,-7.99 2.22,-14.02 0.5,-3.95 -0.19,-10.84 -0.26,-15.01 3.56,-2.55 4.37,-0.08 3.49,-8.39 -1.66,-15.65 -30.89,-5.73 -34.93,-5.05 -15.17,1.43 -21.36,-2.77 -26.73,3.14 -9.78,-1.13 -13.14,0.26 -16.88,0.14 -8.21,-0.24 -1.72,-2.47 -8.24,1.99 -2.27,1.55 -3.51,-1.19 -11.23,10.38 -3.74,6.57 -8.98,8.9 -10.02,17.1l-3.16 -0.7c1.11,6.38 0.89,2.54 -3.08,5.79 4.1,19.11 -4.59,-1.48 -0.82,23.33l-7.14 9.58 -14.32 -0.15c-5.26,-8.89 -3.01,-4.77 -7.38,-7.55 0.84,-2.66 -0.35,-0.88 1.65,-2.81l-3.72 -1.87c1.22,-2.87 0.97,-1.19 1.07,-4.49l-3.61 -2.37 1.25 -5.3c-7.06,-4.08 -3.26,-1.19 -2.47,-9.36 -1.81,-0.54 -0.03,0.23 -3.53,0.82l-2.21 -15.44c-1.45,-4.97 -2.07,2.96 -1.98,-15.33 -3.87,-2.35 -3.08,-1.11 -2.74,-5.2 -3.6,-0.11 -1.45,-0.19 -4.38,1.35 -3.7,-4.47 -2.24,-4.26 -8.5,-3.57 -13.44,1.49 -62.01,-1.17 -67.99,1.27 -4.51,1.84 -11.28,9.39 -11.33,15.51 5.81,5.67 3.01,0.28 3.96,7.34l9.43 19.92c0.88,2.57 -1.67,0.55 3.06,2.84 -0.86,3.63 -0.82,0.11 -1.36,4.86l3.72 1.54c-1.3,14.69 6.05,19.09 -0.05,25.36 -1.93,1.99 0.09,7.17 0.61,10.14l-4.42 2.86c1.82,7.78 3,8.77 -0.36,14.97 2.61,3.63 3.4,0.81 1.72,6.93 -1.68,6.13 2.71,14.2 8.14,16.97 -0.54,3.51 -2.7,6.53 -1.94,10.63 1.2,6.5 3.05,-0.96 3.5,7.49 0.4,7.47 -0.28,15.88 -0.19,23.52 0.12,11.15 3.52,16.31 3.14,20.35 -0.91,9.77 -3.76,10.06 1.45,11.18 5.83,1.25 5.75,2.56 6.19,-2.74 1.12,-13.19 2.12,-6.88 4.44,-11.45 1.82,-3.59 0.87,-2.53 3.22,-3.06 1.07,1.64 0.43,-0.08 0.25,2.82zm546.79 26.83l3.76 -1.09c5.64,-12.97 7.73,-4.55 10.87,-11.6 0.13,-0.38 -0.57,0.03 0.36,-2.09 6.09,0.06 6.54,4.1 4.6,-2.07l3.53 -1.85c-6.75,-8.18 -6.6,-5.65 -11.98,-8.35 -6.18,-3.9 4.02,1.01 -1.76,-1.27 -8.18,0.45 -5.41,2.61 -14.93,2.48 -5.5,-0.08 -11.32,0.12 -16.89,0.11 -14.62,-0.03 -9.74,1.21 -15.07,2.2 -5.59,1.04 -9.54,-0.71 -15.81,0.78 -2.35,-3.73 3.96,0.16 -3.05,-4.98 -2.78,-2.04 -3.59,-2.71 -4.07,-6.89l-3.53 -0.93c2.21,-9.4 0.47,-8.25 -1.88,-19.31 -2.61,-12.36 1.24,-7.37 -0.61,-14.15 -1.1,-4.06 -2.09,-1.36 -2.4,-7.66 -1.05,-20.9 2.64,-12.61 7.11,-21.3 6.78,-0.64 0.62,2.24 6.63,-0.19 1.45,-0.59 -0.51,-2.42 6.48,-0.69 3.65,-6.88 2.65,-1.64 18.72,-4.77 8.74,6.58 16.63,5.73 18.96,19.3 -2.04,3.12 -1.88,12.03 -1.47,15.39 2.89,1.37 6.44,2.79 10.59,1.44 1.98,-5.49 -1.7,-2.15 3.31,-5.5 0.86,-9.77 -1.26,-0.76 -1.36,-9.99l3.62 -2.21 -1.12 -6.52c9.72,-3.34 7.86,-9.46 17.79,-10.62 -0.45,-5.75 0.06,-4.05 3.03,-6.23 -5.89,-10.43 -10.28,-8.53 -11.82,-8.9 -17.66,-4.23 -10.67,-1.41 -10.59,-5.97l-4.75 1.91 -2.81 -3.55c-4.52,0.3 -0.54,0.34 -4.68,1.31 -8.95,-9.1 -13.57,-2.18 -19.69,-1.35l-15.01 2.73c-1.93,0.72 -3.74,4.62 -12.64,0.45 -6.85,-3.2 -14.45,-12.98 -12.14,-26.03 1.54,-8.65 16.91,-18.17 19.33,-24.17 6.08,0.55 -1.6,1.14 8.38,0.8 10.89,-0.37 8.13,11.1 21.5,11.66 10.24,0.42 14.69,-9.66 22.46,-10.21 8.58,-0.61 5.85,0.11 9.6,5.77l6.31 10.63c-1.23,7.01 1.61,11.48 6.53,15.62 6.67,-1.11 17.1,1.89 19.49,-8.92 0.28,-4.87 -1.8,-2.22 -0.46,-7.17 0.74,-2.73 2.6,-3.89 2.54,-5.87 -0.1,-3.32 -0.56,2.54 -0.58,-3.02 -0.01,-5.4 0.5,0.11 0.55,-3 0.03,-1.66 -1.28,-2.46 -1.94,-5.57 -0.71,-3.36 0,-6.16 -0.03,-9.3 -0.08,-7.47 -1.27,-1.75 -3.26,-6.04 -2.36,-5.08 6.21,-7.06 -3.27,-11.05 3.11,-7.67 -0.65,-1.7 -4.13,-14.18 -10.3,-3.12 -0.02,-4.87 -8.97,-3.95 -22.28,2.28 -49.32,-0.63 -71.99,-0.75l-63.7 1.7c-6.3,-0.08 -13.43,-3.74 -20.27,3.75 -3.19,3.48 -2.31,3.66 -2.1,9 0.15,3.87 -0.8,10.18 -0.55,12.06 0.53,3.87 1.96,4.17 2.11,10.81 1.33,1.24 2.26,1.59 4.36,2.33l-2.07 7.64c5.25,5.18 4.67,1.9 2.51,10.3 6.95,4.06 1.09,2.85 3.75,9.59 1.33,3.37 2.55,-1.39 2.04,10.27l3.53 2.6c-1.56,16.22 4.12,1.78 0.76,16.84l3.77 2.81c-0.22,7.2 1.8,13.79 10.13,13.66l-1.58 3.19 3.9 2.91c-5.15,2.55 -7.85,5.65 -11.63,10.19 1.09,4.02 4.44,1.38 0.43,7.49 6.77,6.06 7.65,10.62 11.32,14.03 -2.68,13.73 4.24,3.69 0.72,16.85 2.49,2.82 1,0.84 4.14,2.81 0.15,4.18 -0.1,5.27 1.14,8.78 3.99,11.31 -2.61,2.18 2.85,12.27 1.93,4.11 -2.66,6.6 1.46,8.14 6.58,2.45 -4.1,5.72 4.1,10.12 0.27,8.83 -4.59,6.63 2.98,12.16 -2.25,8.27 -2.08,5.63 2.91,13.62 2.07,3.31 5.71,6.93 11.29,3.1 6.3,-4.33 2.16,-5.24 5.31,-9.72 1.48,-2.09 1.57,-0.99 3.21,-4.35 3.54,0.95 1.84,1.25 6.05,1.69l4.06 10.89c16.3,0.75 6.64,-1.01 14.82,-13.9 2.52,-3.88 7.83,-6.86 9.38,-11.15 11.77,5.45 3.74,-2.49 15.2,18.41 2.45,4.46 -2.31,5.21 2.06,4.41 18.44,-3.43 8.92,-8.9 10.25,-18.64zm-809.21 -142.09l8.8 -10.97 3.1 1.29c1.13,8.97 2.73,3.14 3.02,10.42 0.46,11.58 -2.41,25.55 -2.72,36.54 -0.46,16.36 1.72,12.9 -1.31,23.32 -2.28,7.87 0.34,17.07 -1.39,25.36 4.05,4.73 4.2,-1.64 3.12,6.17 -0.96,6.92 1.17,3.74 3.1,8.65 3.13,7.96 15.75,12.84 26.77,19.81 0.58,17.94 6.87,15.32 17.35,14.88 3.77,5.11 3.14,3.65 9.13,2.3 4.11,5.09 1.94,2.67 7.49,2.33 1.95,4 -3.83,2.44 2.34,4.01 14.42,3.68 9.51,9.92 17.77,8.63 4.57,-0.72 4.4,1.13 7.68,-1.57 4.88,-4.01 5.96,3.53 5.85,-4.33 5.76,1.44 7.04,-3.67 9.93,-5.83 4.23,-3.16 4.23,2.76 6.03,-3.85 9.53,-0.79 10.9,6.18 17.67,12.43 -1.11,6.78 -3.51,4.26 0.64,10.77 3.43,5.37 12.94,14.85 14.35,3.47l1.44 -11.52c0.31,-6.06 1.48,-3.96 2.5,-7.04 1.96,-5.9 -0.66,-20.66 0.37,-27.53 0.87,-5.78 1.79,-1.31 2.32,-7.47 0.3,-3.46 -0.81,-5.33 -0.95,-8.41 3.08,-5.13 2.17,0.95 2.89,-6.56 2.51,-8.06 3.79,-0.24 1.75,-11.23 5.77,-5.35 1.86,-1.93 3.23,-9.11 0.84,-4.39 2.23,-3.28 1.88,-10.54l3.51 -1.87c-0.62,-10.39 1.84,-3.83 2.53,-12.15l5.24 -24.02c1.58,-2.81 2.17,1.46 1.5,-5.46 -0.25,-2.6 -0.55,-2.95 -0.4,-6.1 4.17,-1.85 -0.19,1.76 4.24,-0.99l-1.62 -9.3c7.51,-5.42 3.01,-6.07 2.27,-14.04 4.18,-3.53 5.08,-0.02 2.68,-15.19l3.59 -2.6c0.21,-6.24 -0.66,-6.6 -1.07,-11.9 4.99,-3.15 3.08,-5.09 3.13,-12.43 3.34,-7.89 -3.66,5.56 1.33,-1.72 4.49,-6.52 -1.83,-14.22 -5.76,-20.3 -14.36,-1.06 -31.91,0.19 -47.73,0.34 -16.07,0.15 -15.94,-1.92 -22.79,2.57 -6.98,4.56 -7.32,3.24 -10.01,14.53 3.82,2.19 3.74,4.5 8.71,11.82 4.34,6.4 1.75,11.49 7.39,10.36 0.03,9.68 3.43,4.31 3.12,12.24 -0.83,21.81 0.08,9.76 1.58,21.7 0.56,4.45 0.54,20.08 -0.78,22.62l3.27 1.65 0.26 51.47 -3.71 1.87c0.62,11.54 -6.06,22.98 -13.82,31.34 -5.33,5.73 -6.66,-2.81 -4.03,5.08 -7.09,0.69 -4.01,-1.86 -5.55,1.64 -1.46,3.3 -2.69,0.48 -3.72,0.22 -7.57,-1.98 -1.12,1.62 -7.69,2.79 -5.7,1.03 -18.24,-0.46 -25.23,0.01l-1 -3.66 -5.36 1.64c0.83,-4.01 1.68,-0.35 0.27,-3.85 -0.56,-1.4 -1.15,-0.52 -2.45,-3.38 -0.79,-4.61 2.31,-4.02 2.71,-7.86 0.98,-9.35 -6.72,-17.16 -12.89,-14.78 -2.9,-6.35 -0.43,-2.9 -1.38,-8.82 -1.87,0.52 -2.2,1.14 -3.45,0.58l-0.2 -19.05 3.83 -2.47c-3.03,-17.26 1.36,-8.92 1.79,-17.77l2.45 -16.82c0.45,-3.76 -0.84,-10.2 0.16,-13.89 1.44,-5.29 3.52,0.25 3.01,-11.41 -0.33,-7.56 1.81,-5.18 2.25,-12.15 0.46,-7.22 -2.94,-7.6 0.64,-12.41 3.36,-4.51 1.68,-3.71 1.35,-11.01l3.44 -1.87c-1.02,-6.21 -2.73,-4.68 2.35,-8.42 -0.27,-4.11 -1.19,-3.37 -1.3,-7.51 -0.21,-7.24 3.39,-8.52 -5.21,-13.15 -9.21,-4.96 -15.8,-0.46 -20.69,-1.76 -5.07,-1.35 -1.24,-2.15 -8.63,-2.43 -8.26,-0.32 -16.23,-0.02 -24.46,-0.02 -6.57,-0.01 -23.46,-4.76 -24.3,8.9 -0.42,6.84 2.01,34.51 -0.08,38.48 -1.71,3.25 -0.93,-1.65 -1.73,3.7 -1.17,7.83 0.99,14.55 0.62,22.47 -0.22,4.86 -1.4,5.36 -1.92,9.86 12.69,-0.49 6.14,-4.22 13.51,-4.85l-0.71 -5.68 2.77 0.81zm638.12 60.92c3.79,-1.44 4.99,-4.14 6.47,-8.25l4.67 1.14 0.29 3.14c10.6,4.51 8.56,6.35 16.09,-6.05 3.12,-5.47 -0.03,-11.68 3.49,-18.06 7.06,-12.78 -7.85,-14.15 -1.16,-42.45l-3.79 -2.69c0.41,-7.52 2.67,-3.53 -1.69,-9.47 -4.03,-5.49 -9.04,-16.93 -14.9,-24.42 -5.26,-6.72 -21.58,-20.94 -30.19,-21.63 -0.03,-5.96 -0.21,-4.14 -6.55,-2.73 -0.82,-1.71 3.71,-4.06 -15.01,-5.33l-54.12 0.7c-20.53,3.22 -23.79,0.4 -43.61,1.21 -6.15,0.25 -1.04,0 -2.55,3.45 -5.89,0.39 -4.02,-3.38 -6.55,-0.16 -4.42,5.63 -5.56,10.87 -4.97,19.14 0.34,4.68 -0.31,2 3.35,4.63l-0.14 7.49 3.36 2.81c-1.83,10.62 -1.46,5.03 2.61,10.3 -0.36,2.82 -0.95,4.79 -1.78,6.55 3.77,4.06 2.29,-0.67 3.5,3.86 0.34,1.28 -0.19,4.56 0.05,6.33 0.61,4.67 3.04,3.32 1.56,11.33l3.57 1.87c-3.79,16.09 4.08,1.45 1.32,16.85 7.89,6.54 1.65,6.16 3.11,10.29 3.65,6.16 -3.67,-4.6 1.51,1.63 8.12,10.12 11.88,4.57 11.6,15.62 -7.76,4.2 -5.48,7.6 -11.54,6.88 0.87,6.41 1.53,2.3 -0.03,8.63 3.73,2.69 5.42,6.42 8.04,9.76 2.61,3.34 2.91,-1.89 3.27,13.65 0.08,3.54 -0.18,4.87 0.69,7.64 2.23,7.14 1.07,16.43 1.03,24.29l3.71 2.68c-0.42,5.01 -0.87,12.26 -1.33,18.22 -0.34,4.45 1.17,4.46 1.85,8 1.52,7.92 -2.02,7.96 1.47,16.05 1.51,3.49 3.85,8.95 8.25,9.32 16.74,1.41 3.7,-14.66 7.72,-19.66l4.95 -6.05c4.65,-0.06 12.18,3.18 11.06,-5 -1.49,-10.7 -13.17,-10.97 -9.08,-33.02 1.68,-9.08 2.56,-1.17 0.83,-13.14l5.24 -4.94c8.29,7.06 5.92,5.7 16.83,3.71 6.06,-1.11 2.17,-0.2 2.38,-4.82 10.48,0.68 7.44,-0.5 13.52,4.1 -0.52,2.92 -0.47,1.75 -1.36,4.77l4.28 4.61c1.9,5.58 9.9,5.13 8.45,-5.76 6.88,-3.54 2.04,-8.55 1.92,-16.63 5.42,-3.2 1.11,6.29 4.98,-5.27l5.15 -0.27c1.49,1.95 1.33,3.37 2.39,6.02 1.75,-0.3 2.02,-1.85 3.21,-0.45 1.76,2.09 -1.15,10.82 8.68,9.79 7.68,-0.8 3.54,-0.13 6.54,-8.83 1.88,-5.47 -0.3,-16.91 5.01,-17.74 2.96,-0.46 2.26,1.22 2.39,-3.62zm944.7 -68.84c0.09,5.59 -2.67,7.54 0.57,13.17l12.15 0.53c1.37,-7.28 -2.64,-6.83 1.49,-15.28l0.32 -7.49c4.73,-2.18 4.85,-2.28 10.15,-3.32 4,6.18 7.04,5.36 6.54,17.36l3.43 0.93c-0.29,4.7 -1.77,1.13 0.04,4.96 1.92,4.06 1.38,-1.83 1.91,4.19 0.64,7.3 1.9,1.43 2.43,7.96 0.21,2.57 4.29,14.93 9.98,15.04 3.96,-4.74 3.04,-4.61 5.07,-8.59 5.18,-10.13 3.8,-3.08 4.49,-9.45 0.64,-5.9 0.91,-36.58 -1.02,-43.55 -1.03,-3.73 -0.98,-0.52 -1.92,-4.37 -1.98,-8.12 4.05,-13.34 -1.08,-23.29 -0.35,-2.59 -0.04,-2.2 0.42,-4.67 -10.72,-10.56 -6.8,-10.53 -29.35,-11.09 -5.55,-0.14 -7.86,1.09 -13.07,1.21 -9.16,0.21 -41.77,-1.07 -48.45,0.98 -3.3,1.02 -2.31,1.35 -4.41,2.05 -5,1.68 -6,-1.48 -13.08,-0.42 -9.16,1.36 -6.76,-1.8 -10.84,3.32 -4.65,-1.73 -1.18,-2.76 -6.94,-0.19 -13.36,5.96 -26.6,37.05 -26.62,37.07 -1.79,1.79 -0.84,2.25 -0.05,6.61 -8.83,6.21 -0.14,14.82 0.14,15.38l5.76 12.91c5.6,10.59 5.69,7.2 12.4,12.96 7.35,6.3 2.74,4.84 17.56,15.05l17.29 16.54c2.68,3.31 -1.32,5.39 5.53,10.25 0.25,5.92 1.77,10.38 1.54,14.99 -0.59,12.05 6.77,13.89 9.86,12.73 1.37,-0.51 0.48,-2.42 3.5,-2.79 2.79,-0.33 1.47,3.66 8.37,-9.19l10.02 -0.16c6.93,10.67 6.25,5.33 9.07,11.3 1.01,2.14 3.19,18.78 0.65,21.55 -9.57,10.37 -18.49,12.28 -33.24,10.6 -17.21,-1.96 -20.27,-9.85 -28.36,-17.83 -6.33,-6.25 0.66,-3.34 -10.36,-13.05 -3.81,-3.35 -5.05,-9.34 -8.31,-13.43l-10.2 2.41c-3.46,1.84 -6.22,25.62 3.23,30.59 -2.72,13.83 20.42,19.46 31.69,32.4 6.3,7.24 4.33,19.18 4.71,28.46 0.22,5.6 1.94,2.51 2.34,7.35 0.2,2.39 0.16,-1.07 9.37,0.68 1.48,0.27 1.48,-0.43 2.42,-1.75 3.19,-4.44 1.47,-3.96 0.14,-11.17l3.84 -2.68c-0.85,-3.09 -3.41,-3.96 4.85,-10.15 11.68,2.55 8.57,24.91 24.05,3.26 13.6,-20.06 56.22,-25.94 53.76,-58.64 -0.79,-10.57 -2.97,-1.3 -2.77,-9.01 0.09,-3.62 2.87,-0.91 -3.54,-10.99 -6.47,-10.17 -13.46,-13.68 -14.42,-16.57 -1.77,-7.34 -3.47,-3.61 -15.96,-16.65 -6.83,-7.14 -5.38,-3.93 -9.05,-6.74 -2.3,-1.76 -4.96,-5.77 -7.23,-7.86 -5.1,-4.67 -1.81,1.14 -16.81,-14.08 -6.73,-6.82 -18.15,-15.56 -18.69,-25.68 -0.21,-3.96 1.99,-5.21 4.11,-8.06 4.8,-0.94 8.09,-0.41 12.83,-0.16 7.11,0.38 3.38,-2.58 7.76,2.68 3.16,-0.48 0.87,0.27 3.74,-1.34l4.4 5.04c-1.19,3.8 -1.45,0.7 -1.56,5.8l3.36 1.4zm331.65 170.61l-0.11 -3.95 3.56 -0.72 1.03 -4.09c5.26,-1.25 3.67,1.07 7.78,3.76 5.74,6.29 3.75,4.82 12.35,4.39 1.98,-7.22 1.96,-4.89 5.61,-6.87 -0.88,-6.46 -1.8,-3.12 10.96,-18.16 6.08,4.33 10.89,11.49 9.95,18.54 7.2,4.75 13.81,9.72 15.72,-1.49 0.74,-4.35 -0.1,0.01 1.25,-2.69 1.62,-3.28 0.04,-8.01 0.85,-11.84 0.9,-4.25 1.49,-0.02 1.98,-6.15 1.81,-0.51 1.88,-0.43 3.39,-1.25 5.83,-3.14 2.15,-1.55 7.1,-0.73 4.08,-5.25 0.56,-1.59 6.42,-4.3l1.43 -6.56c-22.42,-13.81 -14.84,-0.4 -24.78,-4.36 -4.89,-1.95 -27.56,-0.23 -31,1.47 -4.17,2.06 -13.71,-0.27 -19.45,1.04 -14.11,-18.08 -10.36,-20.29 -10.45,-30.97 -0.08,-9.27 -4.23,0.72 -2.83,-17.73 0.94,-12.31 -7.07,-18.94 8.87,-26.65 5.51,-2.67 3.08,-1.8 7.7,-0.94l3.26 -3.38c5.34,0.57 12.3,1.79 17.78,-0.16l0.94 3.7c9.21,-2.1 20.83,9.54 14.59,24.92 6.76,2.02 2,1.65 4.98,6.3 5.44,0.51 5.1,-2.02 8.62,-5.52 4.03,-4 -0.04,-8.4 1.16,-13.23 1.78,-2.92 1.36,-0.74 2.76,-3.36 2.58,-4.79 2.83,-5.61 9.55,-8.35 9.3,-3.79 7.45,-4.25 8.26,-13.95 -3.13,-1.66 -2.26,-1.98 -4.21,-3.19 -3.77,-2.33 -2.47,-0.21 -5.89,-1.69 -4.99,-2.16 -0.83,-5.45 -8.94,-1.2 -3.3,-2.41 -3.98,-1.56 -7.82,-2.82 -4.7,-1.55 1.43,-2.13 -7.65,-2.49l-0.44 -3.49c-4.94,-0.04 -7.94,-1.19 -12.17,1.06 -9.61,5.1 -4.83,0.59 -10.54,3.59 -3.43,1.81 1.17,1.8 -4.89,1.5 -6.98,-0.35 -0.46,1.86 -16.39,2.3l0.76 -3.22c-5.16,-0.16 -7.96,1.67 -10.03,-4.69l4.68 2.79c-8,-13.34 -8.39,2.95 -8.31,-30.16 3.38,-1.8 3.27,1.92 6.18,-3.78 5.6,-10.98 14.31,-13.09 25.16,-12.74 9.64,13.95 10.46,11.57 18.99,11.68 5.41,0.07 5.34,1.37 9.13,-1.91 6.13,-5.31 4.27,-1.84 10.61,-8.86 12.24,-0.13 6.88,1.06 15.4,5.41 -2.76,6.11 -0.64,6.19 2.37,16.02 1.28,5.2 -1.01,3.54 6.48,10.56 6.21,-1.41 6.16,-0.32 12.17,0.1 11.87,-12.01 7.65,-16.97 8.31,-37.07l-4.13 -7.49c2.23,-9.12 2.54,-5.78 -2.54,-11.24l1.36 -6.54 -3.98 -0.93c0.74,-3.87 2.29,-2.07 -0.53,-7.98 -4.73,-9.94 -13.92,-6.91 -24.67,-6.9 -15.62,0.02 -131.91,-1.95 -139.73,3.36l-6.9 12.49c-0.51,9.4 3.16,-1.05 2.51,15.86l4.01 1.97 -1.69 5.51c3.03,3.48 3.59,2.58 2.79,8.03 -0.95,6.46 -0.74,4.28 3.42,6.95 -3.79,14.96 2.74,1.24 0.78,18.05l3.49 1.6c-0.98,8.74 -2.26,3.86 0.79,8.82 2.63,4.3 1.32,3.32 1.49,9.17l3.36 1.65c-1.13,7.27 -3.83,5.31 2.4,10.3 -0.58,4.62 -0.24,0.77 -1.97,4.62 3.01,1.62 2.66,2.14 5.08,4.12 2.36,1.92 3.32,1.54 5.9,3.43 0.82,5.48 -1.79,6.86 -4.52,9.45 -5.59,5.3 0.78,3.9 -5.47,7.4 1.97,2.66 1.28,5.19 2.75,8.4 2.25,4.89 9.2,0.85 9.46,21.68l3.51 2.69 1.01 8.29c0.02,0.01 1.27,0.76 1.84,1.1l4.42 19.65c0,6.88 -0.38,5.21 1.76,10.47 2.71,6.65 -4.47,6.22 2.74,10.06l2.79 10.32c-1.83,11.42 -1.63,4.02 2.24,11 2.31,4.17 0.53,3.83 5.18,3.38 4.96,-0.5 11.79,1.21 8.88,-3.15zm-154.53 -57.32c5.39,6.17 11.14,-2.33 13.07,-3.5 0.8,-6.9 0.88,-9.81 -2.23,-10.43 2.35,-6.8 3.6,-0.82 5.42,-8.21 0.66,-2.65 1.46,-5.64 4.44,-6.83l11.24 16.47c19.57,-1.16 13.08,-5.23 12.98,-20.4 5.69,-4.03 9.96,-25.59 18.73,-19.24 3.78,2.73 -0.81,4.56 7.58,5.79 5.49,-5.99 3.57,-2.6 8,-5.18 -0.03,-0.96 -0.59,-4.62 -0.59,-4.65 0.18,-5.73 -0.45,-0.22 1.55,-3.76 3.05,-5.39 1.08,-46.24 0.76,-47.02 -5,-10.38 -0.84,-8.23 -1.88,-13.42 -0.89,-4.47 -2.31,1.26 -2.38,-8.41l-4.2 -1.21c0.63,-1.8 0.99,-2.11 1.82,-3.59 -8.53,-2.85 -0.06,-4.04 -8.36,-8.42 -0.77,-5.74 1.69,-4.26 -2.39,-8.19 -3.86,-3.72 -7.04,-8.74 -11.98,-10.68 -5.68,-2.24 -2.26,-1.58 -6.19,-4.88 -2.67,-2.25 -4.04,-1.72 -7.06,-4.22 -11.91,-9.92 -8.4,-4.13 -14.01,-6.65 -13.1,-5.88 -25.9,-5.27 -40.18,-5.19 -3.72,-0.1 -4.74,-0.98 -8.24,-0.81 -3.39,0.16 -18.75,1.25 -21.5,2.36 -12.76,5.13 -42.48,-5.47 -53.6,6.38 -3.08,3.28 -0.88,5.72 -4.54,11.3 1.18,2.36 1.05,1.72 3.25,3.17 -1.31,18.92 -1.75,6.12 0.94,12.25 2.73,6.24 -3.16,4.38 3.74,9.84 0.55,12.79 0.75,5.6 2.11,10.52 0.94,3.43 -0.39,5.85 1.8,8.51 4.6,5.6 -1.35,-3.79 1.47,1.54l-1.71 6.57 3.95 2.82 -1.06 7.47c2.68,2.17 3.6,0.27 3.77,3.74 0.1,8.29 2.89,8.52 1.2,16.85 6.18,4.34 4.15,1.83 2.28,7.43l10.52 5.68c0.2,11.4 1.68,11.72 -6.8,15.12 0.89,12.58 -2.23,9.97 7.7,17.11 -0.73,3.83 -2.42,3.44 -1.06,7.46 0.81,2.37 2.79,3.62 3.19,6.33 0.55,3.71 -1.54,10.99 -0.27,17.32 0.61,3.04 2.16,5.04 2.28,7.7 0.33,7.34 -3.05,18.5 2.99,23.47 -0.74,4.8 -0.24,9.17 -0.42,14.06 -0.29,7.43 -1.03,6.03 3.06,10.27 -1.35,11.07 -3.05,7.38 1.94,6.6 2.08,6.78 4.22,7.75 8.74,8.39 5.74,0.82 4.15,2.6 2.4,-22.47 6.82,-2.77 3.88,-3.74 13.51,-2.19 2.7,0.43 1.77,-0.97 3.05,-3.25 1.34,-2.41 2.67,-1.22 0.43,-3.32 -2.52,-2.35 -0.02,-0.99 -2.08,-4.28 -1.6,-2.55 -3.37,-1.69 -6.14,-7.72 -2.29,-5.71 1.06,-2.37 -3.7,-7.3l0.46 -8.44 3.8 -1.9 -1.8 -11.48 3.64 -1.62 1.08 -6.91c5.27,1.36 6.99,5.48 14.97,4.84 6.34,-0.51 3.91,-5.31 14.98,-5.02l2.25 3.97c4.07,2.63 0.53,6.33 3.27,9.46zm-862.19 48.66c1.31,7.57 -3.99,4.63 5.66,14.69 4.98,5.19 10.41,3.27 10.77,0.08 0.55,-4.9 1.18,-3.82 -0.98,-5.95 -0.14,-3.8 -1.08,-5.46 -0.85,-10.51 0.28,-6.35 0.59,-4.57 3.54,-7.37 19.94,0.61 8.84,4.07 8.69,-35.62 -0.03,-8.39 -1.32,-12.45 6.26,-13.34 6.77,-0.79 24.47,4.13 26.71,10.83 16.23,43.45 14.04,20.01 22.94,32.15 6.8,-0.15 -0.16,-4.06 10.08,1.19 3.42,1.75 8.89,15.81 12.78,20.04 4.44,4.83 11.06,5.04 13.11,1.84 1.29,-2.02 1.63,-0.67 0.24,-4.33 -3.77,-16.03 1.16,-14.39 0.07,-21.75 -0.69,-4.67 -0.9,-2.28 0.18,-6.97 -5.82,-7.05 -26.56,-28.87 -26.52,-36.25l-4.22 -0.25c2.07,-7.95 2.03,-8.05 9.83,-17.21 9.21,-10.22 3.7,-10.42 12.52,-14.33l-0.06 4.64 3.76 1.63c-0.82,7.51 0.97,3.01 1.64,8.38 0.35,2.88 2.15,10.94 2.15,2.81 4.69,2.73 2.69,4.62 6.55,6.56 7.94,-3.91 3.1,-16.83 3.1,-16.84 -0.25,-4.97 1.24,-5.68 0.47,-9.94 -3,-16.47 8.86,-21.73 12.79,-35.66 1.68,-12.82 4.31,2.52 1.75,-11.76 -2,-11.21 3.11,-4.56 -1.21,-18.68 -7.59,-24.78 -2.82,-9.96 -15.84,-29.9 -6.81,-10.43 -24.83,-27.62 -37.32,-31.81l-21.11 -6.02c-10.12,-0.64 -39.46,-0.72 -46.49,1.73 -8.78,3.05 -50.82,-8.65 -48.28,16.27 0.81,7.95 0.48,13.3 0.86,20.98 3.85,3.31 4.3,3.78 2.81,15.66 -1.18,9.4 4.11,5.49 2.86,14.88 -0.25,1.86 -1.73,6.58 -1.57,8.8 0.44,6.07 2.26,1.78 3.75,5.93 0.02,0.06 -0.48,15.46 -0.45,18.37 2.04,2.05 1.8,0.9 3.25,3.89 5.12,10.51 7.88,3.8 9.25,10.39 1.56,7.46 -4.19,8.2 -8.44,14.49 -2.39,3.54 -0.26,3.38 2.32,6.7 2.33,3 0.43,1.89 2.42,4.99 2.64,4.12 4.96,1.36 4.28,8.51 -1.81,19.26 0.95,14.12 2,19.57 0.79,4.07 -0.41,16.48 -0.15,20.04 1.04,14.01 2.5,0.42 2.61,26.52 0.01,2.5 -1.13,12.06 1.49,11.92zm371.96 -160.95c3.31,-1.99 1.5,1.08 1.58,-8.4 5.45,-3.51 4.92,-6.73 15.73,9.76 1.36,4.7 4.86,0.72 1.61,8.23 0.91,0.67 0.88,0.42 2.13,0.74 5.79,1.44 -2.98,-1.56 1.59,0.22l-1.11 6.53c0.72,0.44 1.26,0.37 2.18,0.58l0.67 5.97c1.38,0.56 2.05,-0.08 3.71,0.93 -1.2,3.38 -1.23,1.06 -1.69,4.68l8.17 8.08c6.67,-6.62 3.48,-0.47 6.74,-5.98 2.31,-4.14 0.69,-2.39 -0.14,-5.85 3.71,-2.95 3.8,0.81 3.72,-6.44l-0.18 -31.01c-0.16,-20.18 -2.56,-18.29 -1.82,-36.6 0.23,-5.65 -1.67,-1.96 -4.15,-3.62 0.53,-2.33 3.93,-6.58 -0.8,-4.57 -5.56,0.39 -3.83,-10.55 -16.87,-10.59 -15.76,-0.05 -32.16,-0.45 -46.63,1.52 -8.18,1.11 -19.88,-1.8 -27.29,1.07 -9.46,3.66 -7.21,-0.71 -20.19,-0.3 -3.98,0.12 -3.37,0.91 -5.65,4.3 -4.58,-1.07 -1.75,-3.07 -6.43,0.18 -3.05,2.11 -8.59,3.13 -11.53,10.36 -3.27,8.06 -6.22,3.62 -11.02,19.9 -1.49,5.04 -3.45,1.86 -4.99,12.65 -1.18,8.31 -3.62,1.97 -0.36,12.83 0.8,2.68 -0.14,3.42 -0.05,6.94 1.65,0.54 -0.31,-0.42 3.26,-0.74 0.88,8.71 1.33,2.19 4.39,10.13 3.08,7.99 33.38,28.7 45.03,45.41 6.51,9.33 0.42,5.89 6.55,8.36 -0.42,3.59 -0.74,2.48 -0.95,5.68l3.87 2.43c0.45,14.63 -2.17,11.53 4.75,16.69 -0.57,3.47 -1.18,2.06 -0.98,4.03 7.05,-0.83 8.48,1.81 12.21,-5.15 3.16,-5.89 4.49,-8.18 13.83,-7.52 2.75,2.94 2.33,2.5 5.63,5.31 7.1,6.06 6.08,17.96 7.13,26.8 -4.37,1.75 -3.51,3.27 -6.78,5.44 -4.99,3.33 -2.79,-1.24 -6.53,4.62 -4.63,-1.2 0.57,-1.14 -4.69,-1.53l-2.71 3.45c-3.13,0.07 -6.65,-0.71 -11.25,-0.64 -4.32,0.06 -6.94,0.98 -10.35,0.75l-0.31 -4.03c-7,0.21 -4.56,1.12 -8.55,-2.95 -10.46,-10.68 -5.67,-4.24 -15.1,-17.69 -3.25,-4.64 -7.88,-6.94 -10.25,-11.16 -1.48,-2.64 -2.86,-9.67 -7.06,-10.09 -4.6,-0.45 -2.65,0.35 -3.51,1.61 -7.58,6.66 -3.5,6.08 -7.17,4.73 -2.76,-1.01 -0.67,1.51 -0.35,5.93 0.18,2.48 -0.27,5.12 -0.18,7.52 0.36,9.51 4.19,0.8 2.61,11.16 -0.81,0.78 -3.25,-1.01 0.45,3.89 5.25,6.94 1.68,10.89 22.2,21.43 9.53,4.89 5.93,5.93 14.55,12.12 5.22,3.75 0.89,7.53 3.08,20.77 3.49,21.18 9.34,9.91 11.48,10.46 2.87,0.73 3.41,1.95 2.7,-1.74 -0.89,-4.63 -2.94,-3.73 2.77,-7.99 -0.21,-6.66 0.14,-10.47 4.89,-13.11 5.89,3.11 12.87,15.22 17.04,12.45 2.64,-1.75 3.01,-4.34 4.94,-4.82 8.25,-2.07 -8.67,0.71 14.35,-15.51 19.2,-13.54 14.44,-4.91 14.13,-11.72 7.85,0.43 2.98,1.45 10.27,-3.05 14,-8.66 12.21,-18.19 16.58,-23.6 3.85,-4.77 0.16,0.44 0.95,-10.55 0.33,-4.64 0.83,-2.6 -1.83,-5.77 -0.25,-0.61 1.22,-10.51 -9.92,-20.77 -3.02,-2.78 -1.51,-2.37 -3.64,-5.68l-67.03 -58.38 -6.9 -19.17c4.92,-2.7 1.04,3.21 4.45,-4.58 4.74,-0.52 6.95,-0 11.35,-0.09 4.92,-0.1 4.78,-1.26 8.11,-1.51l1.19 4.37c3.09,-0.96 1.52,-1.06 4.68,-1.56 5.25,4.05 2.11,4.74 3.72,8.96 0.86,2.26 2.88,8.29 0.13,12.89 2.1,3.59 8.93,7.33 13.29,3.42 2.98,-2.56 -0.95,0 -0.16,-5.71 0.33,-2.39 2.02,-3.46 2.72,-6.13zm2131.55 -29.43c-3.66,-4.65 -17.01,-23.4 -21.42,-24.83 -12.67,-2.95 -9.95,-5.94 -16.42,-9.4 -28.83,-7.63 -43.1,-5.71 -72.79,-5.28 -0.98,0.11 -5.93,1.57 -8.07,1.77l-40.14 0.45c-4.38,2.04 -0.18,0.4 -2.44,1.84 -1.83,1.17 -3.05,0.27 -4.28,1.27 -2.97,2.41 -8.28,12.04 -5.08,19.31 0.35,0.8 3.64,0.8 -0.19,8.96 1.18,1.75 1.84,1.79 1.87,1.84 2.49,3.58 0.38,4.18 1.51,7.93 1.16,3.85 2.4,-0.89 2.42,10.82 1.81,1.36 1.62,0.9 3.24,2.81 -1.32,7.32 -1.88,5.73 3.14,9.36 -0.95,2.77 -1.35,4.61 -2.04,7.49 4.22,2.86 4.31,0.8 3.27,7.16 -0.93,5.65 -0.91,3.26 3,5.94 0.43,14.33 2.79,3.77 1.87,16.84 4.35,3.05 3.11,2.28 3.69,8.76 6.13,-0.11 8.9,3.38 8.85,10.2 -2.71,2.26 -8.79,8.29 -8.7,12.86 0.18,8.74 8.26,0.86 8.87,22.5 0.08,2.94 4.38,18.19 1.24,28.04 7.67,7.11 2.41,11.77 3.38,24.44 0.22,2.81 1.53,2.75 2.32,6.6 1.77,8.66 -2.17,10.65 1.88,17.99 2.2,3.99 -0.68,1.4 2.57,8.95 2.36,5.49 1.62,4.2 7.34,4.55 12,0.73 2.28,-11.81 5.77,-19.86 2.12,-4.88 5.96,-5.71 9.3,-5.48 8,0.53 5.77,2.82 5.98,-9.12l-3.69 -0.94c1.26,-8.94 -6.4,-12.14 -6.64,-12.87 -1.23,-3.7 -0.32,-9.88 -0.23,-14.26 5.91,-4.18 2.04,-3.98 1.62,-11.31 4.58,-3.38 2.67,-0.29 4.46,-8.39 9.65,3.9 2.39,4.03 15.91,5.97 2.33,-2.63 2.21,-5.02 6.62,-5.66 12.59,-1.81 10.62,4.84 10.62,4.86 8.27,10.71 5.23,10.67 15.58,2.37 -0.38,-6.46 -1.48,-15.17 2.27,-19.16 8.47,-8.99 11.75,7.84 16.37,13.06 6.08,0.08 8.73,1.93 11.06,-2.81 1.88,-3.81 4.45,-5.43 1.15,-18.23 5.36,-1.38 4.15,-2.37 6.03,-7.93 5.39,-5.2 2.05,-10.62 11.82,-12.67 1.98,9.05 0.83,4.14 5.58,6.53 1.41,0.71 1.45,3.58 5.1,1.48 2.66,-1.54 3.59,-2.66 3.81,-7.46 4.27,0.55 3.28,0.52 2.65,-4.17 -0.91,-6.72 2.97,1.31 2.07,-8.58 -1.04,-11.34 0.64,-29.44 -0.66,-34.4 -0.48,-1.82 -3.57,-3.86 -2.19,-12.81 1.39,-9.09 -4.27,-2.6 -1.76,-9.82 1.32,-3.85 1.2,-2.79 -3.43,-3.75 0.06,-1.41 -0.05,-1.81 0.43,-2.69 2.79,-5.13 -2,-0.61 -1.41,-4.62 0.34,-2.35 -1.82,-4.51 -3.03,-6.43zm-1296 193.2c2.17,-1.18 3.2,-2.43 5.72,-3.18 7.31,5.82 4.35,12.13 11.95,9.88 6.35,-1.89 10.31,3.66 7.99,-9.1 10.07,-0.04 -3.62,-3.06 5.04,-6.93 3.04,-1.72 -0.8,-2.37 8.72,-10.45 2.84,0.81 -0.35,-0.18 1.65,1.61 2.98,2.68 1.02,0.73 5.21,1.28 0.27,5.48 4.12,8.91 6,13.37 5.71,13.55 14.73,9.1 13.44,0.74 -1.27,-8.23 0.32,-5.11 2.76,-9.14 0,-0.03 -2.04,-12.36 6.98,-14.21 4.13,-0.91 6.1,4.83 4.64,-3.12 6.78,-0.7 12.21,-6.01 1.34,-11.62 -11.59,-5.97 -10.67,0.97 -16.35,0.37 -1.81,-0.19 -7.18,-1.35 -9.06,-1.42l-41.88 4.04c-2.14,-2.74 -0.11,-3.46 -6.86,-3.63 -0.56,-8.48 -2.9,-9.47 -5.77,-11.6 -0.36,-4.51 -0.23,-7.78 -0.1,-12.23 0.23,-7.67 -0.06,-4.14 -3.26,-8.36 0.06,-3.58 0.91,-7.55 1.01,-12.19 0.37,-17.03 -7.15,0.19 -0.26,-15.91 1.4,-3.28 -0.94,0.04 -0.29,-5.59 8.68,-4.83 32.27,-18.88 39.98,-6.75 4.49,-0.36 1.06,-0.98 5.41,-1.44 1.27,2.96 2.09,3.23 4.44,5.69 6.85,7.19 5.57,0.84 4.27,22.14l4.48 5.46c4.22,0.19 6.31,-0.76 8.96,-2.23l-0.92 -6.4 3.5 -1.51c-0.19,-8.01 -0.34,-18.49 9.7,-19.01 -0.85,-4.35 -1.12,-0.15 -1.19,-3.93 9.42,-1.22 3.54,-4.78 11.04,-5.13 -1.96,-11.55 -8.82,-7.7 -13.2,-15.17l-6.95 1.96 -2.52 -3.61c-3.84,0.26 -0.65,-0.16 -4.68,1.25 -3.7,-5.34 1.47,-0.28 -9.53,-5.81 -3.95,-1.66 -8.39,-0.5 -13.17,-0.83l-0.71 1.65c-18.97,0.87 -25.88,15.22 -38.57,-5.45 -2.89,-4.71 -5.53,-21.58 7.04,-29.8 5.94,-3.88 -3.53,0.65 7.67,-6.98 2.17,-1.1 0.96,-0.03 -0.64,-3.76 6.66,0.16 0.95,1.48 7.87,1.12 7.16,-0.38 9.54,4.35 17.57,12.75 8.12,-0.26 0.09,-2.08 13.49,-1.22 3.88,-6.97 4.04,-3.06 9.3,-7.61 4.77,-4.12 5.83,-2.35 13.87,-2.95l5.95 6.44c-0.58,2.73 -0.82,1.68 -1.5,4.68l3.71 0.94c0.19,4.18 -0.79,3.68 -1.43,6.73l3.79 1.51 -1.05 5.79c3.81,1.92 -1.97,-1.14 3.66,0.53l1.69 4.66c6.07,-1.16 7.5,-0.11 13.1,0.13 9.78,-12.65 1.72,-5.55 6.14,-12.14 4.83,-7.2 -0.88,2.52 0.19,-8.31 0.31,-3.18 0.1,-5.26 0.16,-8.28 0.18,-9 4.88,-6.04 -3.31,-11.52 2.44,-10.29 2.75,-8.45 -1.85,-11.86 -0.43,-10.06 -0.7,-13.09 -7.88,-20.59 -6.18,-6.46 -2.56,-3.62 -10.75,-4.89 -3.27,-0.51 -1.65,1.13 -6.15,1.75 -15.05,1.06 -22.38,-1.24 -27.97,-1.35l-97.39 1.01c-15.94,-0.01 -6.64,-3.18 -18.37,3.02 -4.26,2.25 -2.17,-0.37 -4.28,2.97 -3,4.71 -2.13,9.89 -2.12,15.29 5.24,3.52 3.51,3.08 3.03,10.69l4.17 1.22 -2.41 7.74 3.89 2.81c-0.21,10.14 -0.04,3.83 3.12,16.5 2.45,9.84 0.43,8.99 2.77,12.49 1.54,2.31 0.5,-2.39 1.49,2.14 0.88,4.01 -1.33,0.82 -1.2,5.33 0.14,4.49 3.46,0.93 2.33,12.45l4.08 2.57c-1.94,6.28 -2.05,5.1 0.9,10.06 1.59,2.66 2.25,4.77 6.17,7.82 13.7,10.65 -8.33,9 -5.77,19.93 0.88,3.79 3.84,4.41 5.89,7.11 2.45,3.24 0.78,1.89 2.03,4.56 1.84,3.92 -0.78,0.15 3.16,2.93 -0.29,11.77 4.03,-0.01 0.6,15.1l4.33 3.69c-0.57,4.05 -1.51,2.16 -1.54,7.41l3.83 2.81c-4.19,11.48 1.44,1.85 1.11,16.84 6.22,5.56 1.51,3.17 3.74,9.91 1.38,4.18 4.41,2.58 1.55,9.74 1.8,2.66 0.91,0.71 3.78,2.81 -3.52,9.51 -0.45,5.28 1.25,9.77 0.04,0.11 -0.19,18.08 13.95,12.91 5.03,-1.84 2.64,-5.9 4.27,-8.88zm564.17 -162.54c-6.3,-19.35 12.04,-14.87 18.03,-15.64 10.63,8.97 15.48,6.99 11.47,21.19 5.14,4.56 3.07,-0.18 2.92,6.11 5.79,-1.21 9.64,-0.21 11.2,-0.18 -0.64,-6.06 -2.01,-2.31 2.45,-5.93 -0.21,-9.29 -1.33,-9.4 2.84,-15.86 5.65,-7.56 9.92,0.54 12.45,4.38 4.77,7.24 -4.57,1.27 4.24,6.8 -0.64,5.79 -2.82,4 2.68,7.66 -0.83,3.42 -0.98,0.57 -1.37,4.5l3.48 2.73c-0.62,3.03 -0.8,1.86 -1.43,4.43l4.41 1.81c-1.44,4.27 -1.26,0.79 -1.7,5.07l9.05 9.16c12.21,-7.36 9.03,-15.67 8.92,-19.41l0.74 -45.64c-0.26,-2.15 -0.95,-3.7 -1.2,-5.98 -0.27,-2.43 0.26,-6.74 0.19,-7.68 -0.23,-3.51 -0.93,-0.73 -2.39,-4.01 -0.34,-0.77 -1.18,-21.12 -17.48,-21.81 -5.28,-0.22 -9.56,-1.28 -14.96,-0.81 -7.49,0.66 -3.56,1.91 -13.25,1.03 -11.02,-1 -33,0.43 -43.92,1.11 -3.4,0.21 -11.52,3.65 -22.89,1.68 -8.33,-1.43 -3.04,-0.88 -7.78,1.88 -1.46,0.85 -1.07,-3 -8.43,1.7 -12.02,7.68 -7.94,4.13 -18.54,20.04 -1.91,2.87 -1.52,1.6 -0.58,4.64 1.28,4.1 -3.09,0.54 -4.13,9.8 -0.57,5.06 0.32,3.15 -0.85,4.35 -2.92,2.98 -1.55,12.71 -1.77,17.14 -0.59,12.12 19.5,32.37 28.57,37.4l24 24.92c0.01,0.11 -0.28,1.43 -0.33,1.87 3.35,1.14 4.39,2.9 7.17,4.27l-1.94 4.5 4.49 2.5c-3.22,5.88 0.95,15.12 1.06,15.61 0.61,2.57 -0.43,2.12 0.74,5.68l8.76 1.19c3.48,-4.35 6.95,-11.48 12.83,-12.84 8.24,-1.91 11.6,5.01 15.83,7.91 -0.16,4.63 -0.04,-0 -1.41,4.36l3.79 1.46c-0.02,1.93 0.32,11.22 0.29,11.55 -0.43,4.07 -0.59,-0.23 -0.99,4.57 -0.29,3.43 1.79,0.71 -1.2,4.03 -1.12,1.25 -2.25,1.64 -3.59,3.06 -2.06,2.18 -1.01,1.84 -2.77,3.76 -3.03,3.3 -5.74,1.22 -9.67,1.35 -4.11,3.27 -2.33,3.61 -10.26,2.83 -5.97,-0.59 -5.78,-0.34 -11.26,-0.11 -8.1,-9.03 -0.66,6.06 -19.82,-14.63 -3.19,-3.75 0.95,-2.12 -7.49,-10.2 -4.31,-4.14 -7.25,-3.99 -7.17,-10.58 -3.55,1.66 -1.94,3.9 -3.29,0.59 -1.03,-2.53 0.47,-1.61 1.15,-5.03 -6.8,1 -4.23,-0.11 -4.88,-5.35 -3.99,0.21 -1.41,1.79 -5.29,-0.26 -0.5,0.67 -1.64,-0.14 -0.08,3.48 -8.26,0.14 -1.95,-1.34 -6.62,3.82 -1.24,1.38 -2.58,0.06 -1.25,4.12 1.38,4.21 6.3,41.47 25.61,41.01 -1.01,5.96 0.45,1.28 9.75,8.94 6.53,6.8 5,11 9.9,13.11 -0.79,2.75 -0.64,12.36 -0.21,19.63 0.49,8.16 -0.83,7.76 6.93,6.96 9.94,-1.03 2.62,-1.83 6.26,-7.83 2.61,-4.31 1.71,-3.46 1.61,-9.62 7.2,-3.58 3.64,-5.05 5.2,-7.51 3,1.28 2.42,1.38 3.68,4.35l3.21 -1.38 8.08 10.94c3.79,0.1 4.48,-2.13 7.05,-6.46 8.05,-13.57 8.24,-10.2 18.43,-17.15l10.02 -6.82c1.83,-0.95 11.72,-4.41 16.18,-9.86 2.48,-3.03 3.6,-4.13 6.75,-6.36 -0.1,-2.78 -0.28,-1.37 -1.32,-4.2 0.19,-0.14 0.51,-0.53 0.62,-0.34l3.39 -1.53c-2.04,-5.86 1.22,-3.22 1.79,-12.11 0.31,-4.82 0.94,-11.21 -1.91,-13.5 -0.65,-12.66 -0.47,-6.42 -10.72,-21.89l-33.05 -30.65c-12.62,-7.46 -14.02,-15.54 -22.16,-15.82l-14.21 -14.88c-0.93,-3 -0.27,-5.06 -2.63,-7.13zm399.4 -57.54c-13,1.88 -32.04,19.12 -36.97,32.14 -1.72,4.55 -3.5,8.94 -7.45,10.37 2.84,6.55 -1.17,1.4 -1.57,8.8l-3.45 0.59 1.17 5.58 -3.54 0.92 1.04 6.56 -3.83 1.87c0.42,5.74 4.84,7.42 -2.84,11.19 2.01,11.48 0.49,25.07 0.8,37.62l3.48 2.66c-0.8,3.53 -0.14,0.18 -1.55,3.75 3.45,3.36 3.88,2.1 2.98,7.49 0.72,0.17 1.98,-0.37 3.59,0.99l-1.71 3.69 3.78 1.88c-0.86,1.64 -1.22,1.86 -0.97,4.46l3.39 -1.65c0.27,9.91 10.65,13.85 11.07,30.45l4.41 -0.07c-0.38,2.9 -0.49,0.95 -1.65,4.25 3.14,3.77 4.13,2.69 2.82,9.99 -1.38,7.72 0.03,3.71 1.92,9.06 1.6,4.53 -0.18,7.86 0.51,11.7 0.65,3.63 1.01,1.63 2.06,4.35 1.65,4.27 -1.72,2.49 5.08,2.79 5.07,0.22 5.53,2.78 6.3,-4.72l0.82 -7.9c3.91,-3.3 8.57,-9.88 13.46,-6.43 5.24,3.7 4.24,-0.15 7.68,6.25 3.06,5.68 4.92,6.61 10.02,6.95 -1.43,6.28 -0.87,1.52 3.5,3.06 2.52,0.88 -0.14,0.5 3.25,2.64 2.73,-0.56 5.79,-1.41 9.32,-0.97 6.83,0.86 -0.7,3.07 12.21,2.44 1.96,2.97 3.35,7.25 6.7,8.18 5.64,1.56 -2.54,-2.2 1.76,0.35 -0.54,4.87 -0.22,0.65 -1.69,4.68 3.07,2.72 16.62,5.23 19.07,1.53 1.18,-1.79 -0.46,-1.25 1.84,-1.25 6.69,0 2.67,0.43 6.88,-2.37 3.42,-2.26 7.78,-3.38 10.92,-5.83 1.8,-1.4 2.94,-3.29 4.85,-4.49 2.96,-1.86 3.05,-0.43 5.47,-2.89 1.85,-1.88 1.05,-2.18 3.91,-4.55 6.54,-5.39 4.33,-2.65 5.24,-7.94 10.57,-38.52 20.27,-7.12 33.72,-19 0.16,-12.93 -2.13,-9.56 -2.86,-14.14 -0.47,-2.9 -0.17,-12.17 -0.38,-16.09 5.78,-2.21 4.73,-1.68 2.65,-8.15l3.72 -0.94c-0.21,-4.53 1.99,-11.09 5.35,-13.1 -4.36,-8.21 4.93,-0.8 2.93,-31.04 -0.29,-4.39 1.04,-3.65 0.93,-8.25 -0.14,-5.79 -3.26,-18.68 -1.85,-24.34l-3.96 -2.85 1.56 -4.64 -4.04 -2.53c-1.63,-24.26 -39.84,-48.46 -48.45,-55.13 -3.58,-2.76 -3.4,-0.99 -7.49,-0.73 -1.45,-3.26 1.36,-4.43 -4.68,-2.02 -1.41,-2.96 -0.84,-3.86 -3.72,-3.78 -8.89,0.26 -23.01,-4.51 -35.62,-4.04 -9.94,0.37 -17.18,2.18 -17.8,2.19 -5.85,0.03 -2.43,-1.98 -7.47,0.57 -7.84,3.98 -8.39,-2.61 -9.96,3.64 -3.28,-0.08 -5.6,-1.47 -6.4,1.87 -1.02,4.31 -0.95,1.83 -3.46,1.99 -5.27,0.35 -1.31,1.59 -6.81,2.38zm-3112.58 32.11c0.34,-7.55 -2,-9.17 -4.3,-11.14 -4.79,-4.08 0.26,-11 -29.66,-24.26 -6.49,-2.88 -6.19,-2.41 -13.19,-1.92 -4.72,-0.29 0.14,-1.87 -21.67,-2.25 -3.69,-0.06 -12.71,0.73 -15.31,-0.24 -3.21,-1.2 -0.45,-1.87 -6.16,-2.24l-22.26 -0.43c-9.69,1.41 -5.24,-1.5 -12.45,-2.11l-21.77 -0.32c-6.27,0.37 -2.79,-2.9 -7.78,1.34 -3.98,3.38 -10.82,3.53 -13.34,17.45 -0.9,4.96 -1.59,4.99 2.37,7.74 2.13,1.49 1.76,8.1 3.5,11.01 -3.99,11.97 1.59,-0.06 1.06,20.44 -0.12,5.03 -0.45,3.69 3.82,6.72 -1.57,14.9 1.63,10.84 2.15,16.83 -2.73,18.49 2.25,9.2 2.01,19.87 -0.16,7.19 -2.93,7.78 2.69,11.95 -0.1,16.57 -3.24,5.2 1.65,16.22 1.04,2.97 -0.07,6.85 0.06,10.06 0.26,6.79 0.54,1.87 3.62,6.47 -3.57,12.54 -1.45,13.48 2.83,16.04 -2.11,19.2 0.4,9.29 1.3,17.63 1.24,11.34 -3.54,38.88 7.18,44.07l5.86 2.97c6.33,-2.96 8.99,0.94 12.06,4.46 -5.08,18.71 10.91,14.71 9.23,2.06 -0.93,-7 9.13,-14.73 11.18,-14.37 3.69,0.64 3.03,0.58 4.04,-2.79 0.88,0.06 7.38,0.77 8.4,0.97 2.85,0.56 8.91,5.86 9.24,8.6 0.41,3.44 -0.9,2.9 -1.57,6.46l6.4 6.92c6.44,-0.49 6.77,-1.81 6.65,-7.12 -0.57,-22.71 -2.35,-22.71 7.87,-31.23 3.76,-3.13 1.71,-0.8 4.27,-1.76 4.29,-1.61 -0.33,-0.81 3.68,-3.19 4.81,2.03 -0.46,1.55 4.81,2.12 4.57,0.5 5.5,-2.54 12.97,9.29 19.47,-2.17 6.5,-16.22 12.08,-26.62 3.84,-7.17 1.99,-1.13 0.42,-8.16 6.8,-5.51 -0.52,-9.8 15.85,-25.42 0.02,-7.33 -0.09,-1.84 2.83,-7.22 3.45,-6.35 -0.49,-1.64 5.06,-4.94 -2.26,-9.99 2.91,-0.72 1.24,-11.23l3.5 -0.94c0.39,-9.6 1.8,-17.26 1.57,-28.11 -0.14,-6.91 -2.1,-5.8 -1.62,-13.06 0.52,-8.02 1.48,-6.3 -3.38,-10.33l0.99 -6.53 -3.08 -0.03 1.12 -7.46 -4.11 -1.87c2.26,-6.97 0.64,-0.87 -2.69,-8.07 -1.09,-2.35 0.92,0.39 -1.19,-2.33zm3132.38 146.82c-4.63,-5.41 -14.61,-4.24 -22.12,-13.8l-18.75 -19.55c-2.94,-4.59 1.64,-1.39 -1.54,-7.04 -3.12,-5.55 -1.49,-3.12 -0.64,-8.89 -4.46,-2.53 -3.91,-1.47 -3.81,-8.54 0.1,-6.91 0.21,-5.94 3.73,-9.35 -2.41,-9.72 -2.38,-8.47 1.77,-11.23l2.4 -10.61 8.38 -16.56c3.06,-5.54 2.76,-18.9 16.99,-16.49 -0.96,-2.15 -1.07,-1.86 -1.78,-3.92 4.42,-0.24 2.58,0.95 4.66,0.99 3.32,0.06 -0.61,-0.53 3.79,-1.41 1.15,-0.23 8.87,0.45 11.91,0.41 3,2.9 8.87,8.17 11.05,11.25 2.66,3.74 1.47,4.06 6.96,4.6 3.99,0.4 7.08,-1.12 9.58,-2.44 0.04,-4.85 -1.13,0.57 -0.35,-4.06 0.55,-3.24 3.64,-3.2 1.51,-17.92l5.23 -8.11 8.13 -0.17c5.38,11.04 1.46,3.26 2.32,13.42 0.56,6.63 -0.97,3.42 -0.98,7.91 -0.01,4.26 2.25,3.07 0.12,8.04 18.41,12.84 12.65,-15.01 31,-12.38 -0.91,4.57 -2.34,1.68 1.67,5.79 10.29,10.59 -5.44,23.05 5.73,26.11 -1.49,9.37 2.08,7.33 6.91,13.72 1.58,2.09 1.51,3.15 3.11,5.34 2.26,3.09 3.53,1.03 8.32,12.47 2.29,6.78 -1.28,-4.22 0.35,1.61 1.63,5.83 0.57,0.47 3.1,4.86 -0.64,8.79 2.35,12.27 -3.53,16.84 0.18,12.16 1.12,3.8 -4.24,14.47 -2.82,5.62 -6.4,13.7 -11.89,16.49 -7.59,3.86 -14.15,8.65 -25.31,12.16 -6.67,2.1 -29.66,4.51 -39.24,3.27 -9.23,-1.2 3.76,-1.96 -11.16,-2.65 -5.2,-0.24 -4.14,-0.18 -6.52,-3.12 -3.02,0.99 -0.3,0.37 -3.74,1.7l-3.12 -3.22zm-1982.7 -204.43c-2.97,0.58 0.38,-3.43 -7.38,-1.65 -6.01,1.38 -2.1,-2.6 -8.66,2.18 -4.35,3.16 -5.17,-1.77 -6.05,7.12 -3.09,0.36 -4.53,-1.71 -3.2,2.84 1.67,5.68 -1.81,3.43 -2.66,8.07 -0.7,3.83 1.27,5.14 0.3,10.6 -0.63,3.56 -0.22,2.89 1.75,6.13 3.24,13.26 8.6,4.25 7.91,18.69 -0.26,5.37 0.71,5.96 0.96,10.3 -5.68,3.77 -3.95,0.58 -2.89,8.42 0.67,5 -0.58,7.88 0.13,12.17 13.43,5.15 12.96,1.98 17.06,-11.93 1.42,-5.68 1.29,0.51 1.76,-7.72 0.61,-10.67 3.04,2.14 1.74,-14 8.42,1.55 8.02,11.46 8.2,3.41 11.31,0.16 -1.24,1.16 8.24,-8.55 -0.8,-2.71 -1.36,-0.14 -1.49,-5.19l3.85 -1.87c-0.95,-11.72 5.65,-31.62 -16.49,-36.19 0.77,-3.83 1.32,-3.67 -3.09,-2.81zm2192.53 145.69c-3.58,-3.17 -3.38,-1.39 -3.32,-7.4 0.3,-37.63 -6.64,-57.29 17.46,-57.44 6,6.64 8.57,11.95 6.81,17.93 3.09,1.62 3.61,0.94 4.42,5.25 5.37,-0.43 6.22,0.38 8.42,-3.14 0.92,1.41 -1.25,1.67 0.01,3.54l2.92 -1.81c0.17,-3 -0.21,-3.33 -0.79,-5.6 2.94,-5.02 3.22,2.21 2.51,-6.96 -0.44,-5.67 -0.11,-1.6 1.89,-6.48 7.21,-0.6 10.54,-1.7 15.11,2.09 11.85,9.83 7.09,15.47 8.37,25.21 1.31,19.35 -0.9,11.81 -3.08,18.82 -2.95,9.5 -0.85,4.05 -8.24,12.23 -10.71,11.86 -9.58,10.68 -14.97,10.31 -5.69,8.25 -2.29,0.18 -11.23,8.93 -9.9,-4.08 -2.77,2.77 -19.57,-0.03 -8.42,-1.4 -6.85,-11.35 -6.74,-15.45zm-1564.84 -61.13c-0.67,-4.4 -0.74,-1.12 -2.09,-3.86 12.48,-0.19 13.26,-1.22 15.41,11.81 1.91,11.56 -0.54,2.78 5.03,11.48l8.08 0.08c3.1,-6.24 7.94,-13.82 7.87,-19.71 7.97,0.57 3.34,-3.43 12.64,1.49 5.2,2.76 9.24,11.16 9.24,11.18 -0.15,7.36 -2.09,6.25 1.09,12.19 3.51,6.54 0.45,3.41 1.11,12.39l-3.64 1.62c1.6,6.29 3.51,0.97 -0.58,8.25l-11.66 15.32 -23.75 13.61c-4.37,1.42 -1.02,-4.19 -11.03,3.08 -2.1,-1.14 -0.54,-0.6 -2.18,-1.62 -6.32,-3.91 -3.45,0.94 -7.97,-3.25 -6.75,-6.24 -4.28,-11.12 -5.86,-16.6 -2.27,-7.92 1.17,-7.88 -2.76,-18.73l-0.04 -32.2 2.79 -4.62c3.57,-4.7 2.85,-1.47 8.32,-1.91zm-1177.54 -1.03c4.73,-0.8 4.51,-1.84 10.37,-1.83 9.74,11.55 3.87,2.54 6.81,11 1.15,3.32 1.36,0.23 2.52,6.13 0.59,2.95 0.76,4.06 1.98,5.62l10.62 -0.31c4.04,-11.58 2.04,-4.63 1.64,-11.8 4.67,-5.11 2.29,0.77 2.77,-6.77l3.08 -2.05 0 3.2c12.31,-13.45 18.85,12.96 19.9,14.87 1.5,2.73 3.27,1.91 3.05,6.54 -0.18,3.92 -1.87,3.91 -1.65,8.54 0.19,4.08 2.26,4.64 1.36,7.9 -1.01,3.66 -1.38,-0.34 -2.82,7.28 -1.91,0.16 -1.13,-0.27 -3.08,-2.07 -0.77,7.98 -2.66,4.57 -5.44,9.93l4.18 -3.1c-0.99,3.4 -5.54,6.39 -8.08,9 -9.97,10.27 -7.4,2.3 -22.92,12.69 -3.74,2.5 -2.14,1.38 -6.86,1.9 -9.23,1.01 1.57,4.84 -9.21,1.12 -5.78,-2 -10.36,-1.47 -10.81,-8.63 -0.45,-7.15 0.17,0.01 -2.37,-5.14l-0.59 -47.44c-0.42,-10.63 2.83,-2.77 -0.21,-11.29 5.28,-0.65 4.51,-0.31 5.77,-5.31zm-702.17 48.21c1.67,-2.12 0.98,-4.84 0.79,-8.56 -0.42,-8.1 0.59,-4.35 3.18,-9.31 -0.2,-3.62 -1.01,-3.78 -1.12,-6.69 -0.19,-5.14 0.27,-2.41 2.05,-5.02 2.98,-4.36 0.81,-7.62 0.34,-11.63 4.19,0.2 8.29,0.1 12.44,0.11 6.75,0.02 4.17,1.78 8.93,1.39 -1.2,-4.12 -0.51,1.11 -2.2,-3.2 4,-2.02 1.49,-2.65 6.72,-2.64 -1.24,-7.21 3.76,-10.88 9.01,-11.19 0.98,26.42 -7.82,33.09 8.93,32.87l5.04 -7.96c7.52,-18.27 5.37,-10.02 12.95,-10.55 4.32,-0.31 0.13,-1.5 5.16,-1.08 0.35,4.73 -4.83,0.38 3.02,5.01 0.61,6.42 -1.37,3.01 0.43,9.99l-0.19 22.84c0.14,7.79 0.15,4.05 -3.93,7.4 0.09,15.57 -1.64,8.67 -2,13.99 -0.24,3.57 1.27,1.16 -0.55,6.52 -1.4,4.14 -0.68,1.5 -0.9,7.03l-4.23 -0.12c0.88,2.81 1.21,1.14 2.14,4.27 -6.19,3.88 -2.76,0.83 -3.36,4.01 -1.15,6.13 -19.89,31.78 -25.15,35.59 -17.11,12.35 -11.95,9.78 -26.44,9.93 -9.45,0.09 -10.87,-7.08 -15.66,-17.83 -2.07,-4.65 -1.24,-3.11 -1.44,-6.32 -0.47,-7.39 0.13,-1.35 -2.76,-6.54 -0,-7.47 1.47,-4.06 2.49,-7.86 0.75,-2.79 -0.32,-6.88 0.18,-9.91 0.71,-4.3 3.66,-3.42 1.75,-17.8 4.59,-3.57 4.02,-8.9 1.92,-14.97l2.45 -1.78zm1093.83 -50.98c6.13,17.93 4.7,11.18 3.42,18.14l4.68 0.25c-0.32,6.13 -1.65,-0.91 -1.12,4.88 11.26,1.37 8.84,-4.77 15.92,-10.19 -0.38,-8.36 2.76,-10.82 11.1,-10.26 7.78,0.52 3.29,0.21 7.91,2.41l-1.18 5.77 4.47 -0.75c-0.68,3.29 -0.87,1.65 -1.28,5.08 7.23,6.97 2.12,2.89 2.75,12.18 0.27,3.92 1.33,4.56 1.85,7.04 1.28,6.11 -0.18,2.63 -2.75,6.05l1.96 6.26 -3.91 1.22c1.25,5.57 1.15,4.09 -8.9,13.38l-20.81 15.59c-8.28,4.78 -5.43,2.53 -8.76,2.32 -5.61,-0.35 -2.82,2.7 -9.81,1.52 -14.61,-2.46 -10.59,-2.38 -12.81,-17.7 -0.82,-5.66 -2.57,-10.06 -2.62,-16.01 -0.05,-6.46 1.18,-12.29 0.82,-17.79 -0.43,-6.62 -0.27,-12.75 -0.27,-19.38 16.88,-10.61 3.32,-8.63 11.76,-9.61 2.61,-0.3 4.39,0.18 7.59,-0.41zm1394.33 -6.43c5.48,0.26 2.97,0.4 6.29,-1.4l-0.32 12.86c-0.34,8.3 -3.72,1.87 -2.29,9.32 1.28,6.7 1.23,5.15 -1.14,10.33 6.78,1.23 4.31,3.46 7.83,3.06 5.23,-0.6 6.79,-13.23 15.91,-20.53l10.47 1.52c1.24,7.35 0.39,3.75 4.17,6.58 -2.6,9.54 0.66,24.98 -2.13,31.11 -2.76,6.06 -1.94,4.99 -0.03,12.88 -2.06,3.13 -0.35,0.72 -3.99,2.81 0.39,8.6 1.69,1.95 -0.72,9.81 -6.61,23.23 -6.48,11.98 -12.7,26.95 -6.24,12.45 -11,15.74 -20.66,25.62 -5.06,5.17 -2.79,3.1 -9.48,6.27 -8.1,3.84 -1.54,3.64 -10.77,3.2 -15.78,-0.76 -15.65,-4.91 -15.94,-12.88 -2.45,-0.59 1.11,0.08 -3.49,0.96 -1.96,-8.29 -2.87,-2.06 -1.47,-11.25l-3.75 -1.88c0.13,-16.34 -1.7,-13.12 4.04,-16.87l-1.36 -12.14 3.89 -2.81 -1.52 -12.15c3.49,-2.45 4.8,-2.58 3.92,-8.81 -1.61,-11.49 0.64,-8.28 1.65,-12.01 1.32,-4.88 -1.43,-6.24 1.12,-12.84 1.88,-4.87 1.1,-7.46 0.69,-13.14 6.5,-4.73 -0.31,2.02 6.45,-7.81 4.9,-0.1 5.25,1.44 10.47,1.3 4.47,-0.12 5.25,-1.43 8.93,-2.33 -0.35,-5.28 -0.9,-3.41 2.53,-7.14l-1.8 -4.43c2.02,-0.82 1.9,-0.14 4.16,0.9l1.07 -5.07zm80.73 47.55c1.68,-12.24 -1.75,-42.56 -8.37,-53.08 -4.23,-6.72 -11.76,-34.27 -31.25,-42.59 -12.14,-5.19 -7.25,-2.52 -11.9,-3.44 -2.69,-0.53 -5.14,-5.04 -30.1,-5.8 -7.31,-0.22 -11.39,2.14 -17.38,-0.71l-63.17 -3.02c-6.52,0.3 -3.38,1.81 -7.35,1.91 -2.77,0.06 -2.73,-1.11 -5.55,1.44 -18.62,16.81 9.42,45.43 1.33,61.74 2.42,4.4 -2.59,-3.32 1.59,1.63 3.2,3.79 0.7,7.6 0.84,13.39 0.21,8.04 3.72,-1.11 2.2,17.74 2.58,1.65 1.49,0.42 3.49,2.81 -2.69,14.27 -0.42,13.61 3.22,17.78 -4.02,16.52 1.72,6.66 1.33,20.58 -0.22,8.35 0.87,6.15 2.09,11.32 0.9,3.79 -0.11,8.26 0.08,12.09 7.27,4.9 2.27,3.33 1.8,11.26 -0.31,5.24 2.6,7.73 3.63,12.85 0.54,2.65 -2.23,8.48 -1.04,14.15 1.04,5 2.02,0.96 1.7,6.46 -0.17,2.8 -0.96,2.58 -0.75,6.89 14.33,9.88 6.94,11.28 15.89,12.04 6.58,0.56 9.29,3.93 9.75,11.27 0.33,5.22 -1.1,4.58 4.81,5.87 4.36,0.95 0.34,-1.28 2.13,-6.68 0.82,-2.43 1.54,-1.83 3.16,-4.06l-2.2 -3.59c3.08,-1.85 9.16,-2.66 15.95,-13.8 6.34,0.5 -1.05,1.49 5.6,1.53 3.74,0.02 1.6,-0.83 5.63,-1.66 10.7,7.59 -4.04,7.14 6.97,12.16l-1.99 7.39c2.05,1.53 0.67,0.82 4.2,1.05 -1.27,6.35 -1.6,2.44 5.5,2.65 5.98,0.18 3.48,2.74 2.61,-16.15 -0.49,-10.73 6.08,-27.84 19.68,-26.44 13.18,1.35 6.33,7.27 15.05,10.12 11.49,3.74 11.39,-16.92 10.13,-24.17 -2.15,-12.33 26,-38.89 30.67,-72.87zm496.76 -103.65c-5.24,-0.08 -4.32,-2.98 -6.64,0.74 -7.23,11.59 9.34,18.75 11.13,26.76l4.25 41.01c3.34,2.49 4.83,-0.24 2.59,16.97l3.62 2.69c-1.32,15.68 4.3,2.51 2.09,20.74 -8.12,2.7 -28.29,2 -36.03,-0.1 -7.72,-2.1 -14.74,-1.22 -23.09,-1.25 -16.3,-0.05 -8.04,-3.38 -16.87,-1.25 -2.45,-2.93 -3.98,-3.6 -6.38,-5.98l3.36 -31.87 3.22 -1.83c-0.22,-3.83 -1.39,-4.33 -1.24,-7.56 0.21,-4.52 0.84,-1.8 2.39,-4.41 2.02,-3.43 -0.24,-3.92 -0.23,-6.87 0.01,-4.34 0.01,-0.84 1.35,-3 1.8,-2.92 0.88,-5.53 1.41,-8.96 0.38,-2.49 1.48,-3.28 1.96,-5.85 1.4,-7.43 -3.22,-6.81 3.76,-10.63 -0.66,-4.35 -0.66,-1.96 -1.58,-5.13 5.22,-2.43 3.75,-5.74 4.49,-11.23l-6.12 -5.71c-6.22,-2.48 -54.92,-2.39 -60.52,-1.44 -4.2,0.71 -1.15,1.28 -5.81,1.54 -8.21,0.47 -16.49,-2.84 -14.9,13.13 0.71,7.11 1.24,2.5 2.33,5.97 1.68,5.33 -2.71,4.25 3.78,4.61 -0.64,8.18 -3.21,2.69 2.25,6.24 -2.95,4.86 -1.41,4.65 2.73,4.54 -1.28,14.82 4.12,-2.18 0.9,14.18 5.97,4.69 2.74,7.64 2.04,19.91 5.13,2.57 4.13,5.94 3.47,16.57 -1.03,16.58 3.63,-1.54 1.99,15.13 -1.36,13.76 0.33,11.7 2.17,17.76 1.17,3.87 -0.19,6.46 -0.2,10.31 -0.01,4.22 1.29,3.42 3.93,5.49 -2.2,7.48 -1.17,7.2 2.41,11.21l0.55 6.27c3.54,2.17 2.29,3.72 1.5,6.62 -0.89,3.25 -0.37,6.71 -0.72,10.6l3.74 3.66c-1.53,4.23 -1.41,11.14 0.6,15.24 3.87,7.9 0.96,7.47 1.03,13.9 0.08,7.64 1.11,0.46 2.71,5.8 0.8,2.67 -0.61,3.62 -0.69,7.26 -0.17,6.75 2.8,3.32 3.03,13.96 3.38,2.99 3.32,1.45 4.53,5.78 1.66,5.9 0.35,7.43 6.19,4.56 5.2,-2.56 -0.67,-1.91 6.93,-6.6 -0.75,-4.23 -1.58,-33.83 -0.38,-35.82 6,-9.92 10.36,-13.09 18.26,-20.33 -1.15,-5.05 -1.22,-16.1 -0.53,-19.41l-3.51 -2.11c0.41,-13.63 1.79,-9.24 8.43,-9.23 2.46,0.01 3.1,-0.71 6.03,-1.09l1.46 4.05 4.51 -1.07c-0.67,8.09 2.02,2.37 2.2,14.88 0.02,1.6 2.76,16.43 13.33,7.43 -2.17,-12.2 2.37,-5.82 2.03,-20.59 8.88,-7.94 10.14,-3.06 10.65,-2.78 6.51,3.56 4.82,-0.5 7.89,6.13 5.47,11.82 4.59,1.05 13.78,1.75 -1.62,-18.04 10.11,-6.62 13.84,1.65 4.15,9.19 0.29,3.2 0.3,17.57 0.02,20.03 -2.19,11.24 4.19,25.91 5.98,13.76 1.51,17.55 3.67,22.2 1.92,4.12 2.77,-0.8 2.24,6.3 -0.29,3.66 -1.89,4.24 0.5,8.61 3.26,5.97 8.07,14.2 13.35,8.09 1.66,-1.93 1.21,-0.08 -0.17,-5.6 3.45,-4.13 3.46,1.31 3.43,-5.46 -0.01,-2.85 -1.03,-2.51 -0.98,-6.7 4.72,-4.09 4.09,-5.89 3.15,-18.62 -0.33,-4.46 2.47,-9.81 2.49,-17.88 0.03,-18.12 0.51,-9.72 1.72,-16.91 0.85,-5.02 -0.29,-12.71 0.08,-17.72 4.31,-3.9 3.57,-2.1 3.49,-9.32 -0.3,-26.47 -3.27,-12.25 1.55,-21 3.45,-6.26 -2.52,-6.9 5.1,-7.3l-0.11 13.28 5.73 1.72c0.77,-1.81 -0.33,-2.44 1.43,-4.87 4.4,-6.05 -1.15,3.88 1.35,-1.52l-1.46 -28.91 0.79 -56.25c0.59,-20.17 -4.33,-6.06 3.18,-32.75 -8.09,-6.39 1.05,-4.93 -14.31,-9.56 -9.94,-3 -9.53,3.17 -18.77,0.95 -4.8,-1.15 -6.04,-0.63 -10.36,0.39l-29.38 -0.87c-3.48,-0.11 -2.62,-0.27 -3.61,3.29z"/>
  <path fill="#FEFEFE" d="M2189.49 1083.46c29.67,-11.82 59.03,-23.26 90.23,-32.91 9.88,-3.05 29.45,-10.44 38.09,-19.09 1.55,-8.02 2.28,-15.93 4.63,-24.43 6.21,-22.51 17.71,-41.69 33.51,-58.79 11.24,-12.16 24.87,-21.64 35.61,-33.2 23.34,-25.12 51.07,-41.12 85.7,-43.17 10.43,-0.62 18.17,0.71 27.38,2.07 18.34,-5.41 31.8,-8.3 52.69,-2.78 35.9,9.5 68.49,27.9 82.96,64.27 14.78,37.16 22.28,69.33 15.48,105.74 22.33,16.15 40.64,30.06 52.82,61.43 12.88,33.18 11.4,61.15 2.25,95.13 -7.09,26.3 -20.89,47.52 -39.24,63.53 5.01,5.7 9.66,11.56 13.78,17.53 21.07,30.58 23.71,65.76 11.16,100.07 -6.56,17.92 -16.87,32.5 -29.22,46.83 -3.96,4.59 -10.46,11.13 -13.59,16.17 -9.58,15.42 -18.2,31.23 -25.41,47.86 8.79,19.24 14.81,38 13.67,60.47 -1.11,21.86 -9.96,40.63 -23.38,57.58 -10.39,13.14 -18.77,17.75 -29.4,28.07 -6.77,6.65 -11.54,12.91 -19.3,19.36 -29.58,24.62 -70.66,31.57 -105.36,12.96 -19.55,-10.49 -38.27,-22.08 -55.98,-35.46 -12.43,-9.4 -26.51,-26.37 -37.71,-33.49 -9.93,-5.81 -26.94,-11.64 -38.05,-15.85 -20.43,-7.75 -41.04,-15.1 -61.37,-23.11 -70.75,-27.87 -149.68,-42.17 -223.39,-61.06 -33.73,-8.64 -67.78,-15.97 -101.96,-22.62 -44.29,17.55 -87.54,37.7 -131.95,55.03 -37.53,14.65 -75.77,27.23 -113.68,40.83 -24.42,8.77 -48.84,17.52 -73.26,26.3 -34.18,12.29 -68.35,24.6 -102.53,36.91 -24.32,8.75 -48.26,18.58 -72.31,28.02 -14.28,5.61 -30.37,10.89 -43.79,18.36 -2.25,1.25 -4.84,2.52 -7.25,3.85 -16.15,24.11 -35.48,43.16 -63.98,52.81 -30.51,10.33 -55.92,5.03 -85.53,-4.06 -16.04,-4.92 -30.73,-2.7 -49.66,-8.97 -31.01,-10.27 -56.25,-32.26 -73.19,-59.9 -8.81,-14.37 -14.26,-28.63 -18.93,-43.82 -28.89,-8.4 -56.69,-17.1 -83.7,-32.58 -33.28,-19.07 -60.59,-43.38 -76.57,-79.05 -14.11,-31.51 -20.66,-65.56 -15.44,-99.93 5.74,-37.83 39.32,-77.95 77.04,-86.85 4.13,-0.97 9.18,-1.74 13.39,-2.89 4.52,-2.73 9.2,-5.31 14,-7.75 -7.76,-19.02 -8.85,-39.3 -6.05,-60.58 0.08,-0.62 0.11,-1.51 0.04,-2.3 -5.81,-11.02 -12.43,-19.26 -17.36,-32.21 -5.65,-14.84 -7.7,-30.01 -7.96,-45.78 -0.84,-50.71 29.42,-98.76 73.64,-122.73 5.53,-3 14.43,-7.58 21.66,-12.41 1.68,-14.44 4.72,-26.45 14.88,-41.06 16.56,-23.81 39.08,-41.48 63.85,-56.02 22.47,-13.18 48.76,-20.27 74.86,-17.8 27.62,2.61 54.98,9.54 77.12,27.13 34.17,27.16 60.53,66.68 68.73,109.86 2.49,13.11 3.34,25.76 2.46,37.87 16.26,3.72 32.15,7.04 47.98,12.55 18.56,6.46 36.06,15.82 53.96,23.16 -1.37,-4.91 -2.7,-10.3 -4.35,-16.71 -4.17,-11.92 -28.43,-41.5 -36.3,-51.19 -7.33,-9.02 -23.45,-19.13 -32.71,-26.06 -27.26,-20.39 -47.8,-42.25 -64.06,-72.49 -12.89,-23.96 -22.15,-47.27 -32.46,-72.31 -9.44,-22.9 -19.56,-34.51 -25.39,-61.15 -10.48,-47.84 3.23,-108.44 28.95,-149.55 11.63,-18.59 17.66,-64.06 19.27,-85.75 2.12,-28.51 2.51,-55.55 -0.28,-83.99 -1.04,-10.63 -4.09,-21.4 -5.24,-32.45 -1.57,-15.1 -1.04,-30.09 -1.49,-45.21 -1.55,-52.42 21.68,-101.05 44.54,-146.7 5.63,-11.25 13.1,-21.05 18.9,-31.72 1.67,-4.54 2.96,-9.22 4.78,-13.81 6.54,-16.52 14.41,-32.05 24.75,-46.53 13.96,-19.55 30.89,-36.81 49.71,-51.71 29.37,-23.26 59.29,-40.96 95.28,-52.26 78.79,-24.74 158.25,-36.82 240.91,-36.82 98.28,0 221.12,23.87 303.61,80.48 18.65,12.8 33.63,26.43 49.74,42.07 17.12,16.63 32.95,33.6 48.02,52.15 15.16,18.66 27.42,39.6 37.47,61.4 18.59,40.34 25.99,85.04 33.99,128.43 10.07,54.66 17.42,113.53 19.15,169.14 0.53,17.03 -1.04,33.96 -1.92,50.94 -0.88,16.84 -2.87,29.69 -6.7,43.6 3.57,5.26 7.5,10.63 10.42,15.45 13.52,22.34 22.05,46.85 21.01,73.27 -3.85,98.02 -19.17,153.17 -89.95,228.24 -16.98,18 -39.47,36.42 -61.47,49.86 -1.13,10.55 -2.86,21.41 -5.24,32.28zm-873.59 280.73c11.2,9.13 21.7,19.01 31.95,29.16 16.26,-5.37 32.54,-10.68 48.74,-16.18 -26.8,-4.86 -53.73,-9.04 -80.69,-12.98zm257.67 -700.61c1.96,18.65 4.4,37.57 8.08,56.13 1.05,5.31 2.5,13.2 4.36,19.5 20.52,16.83 57.87,34.61 81.67,36.91 3.15,-0.28 6.58,-0.51 9.91,-0.79 0.9,-3.74 1.6,-7.55 2.03,-10.07 0.93,-5.52 2.55,-10.93 3.47,-16.29 0.5,-6.11 -0.17,-13.26 -0.26,-19.58 -0.95,-2.5 -4,-6.01 -5.69,-7.59 -27.28,-25.39 -65.46,-42.55 -99.54,-57.07 -1.36,-0.41 -2.7,-0.79 -4.02,-1.14zm474.32 42.16c-6.04,3.57 -12.59,8.32 -16.79,11.47 -9.78,7.31 -18.69,11.53 -29.32,15.02 -3.62,2.68 -7.35,5.72 -9.69,8.49 -13.99,16.56 -32.06,44.86 -30.63,67.46 0.08,1.2 0.16,2.69 0.29,4.31 3.83,0.37 7.67,0.69 11.49,1.09 1.65,0.18 3.25,0.4 4.83,0.66 1.8,-0.34 3.61,-0.68 5.44,-0.95 5.35,-0.79 10.09,-0.93 15.13,-0.93 3.99,-0.91 7.87,-1.58 12.03,-1.93 3.75,-1.01 7.49,-2.25 11.28,-3.21 7.07,-1.78 14.2,-3.63 21.28,-5.63 2.9,-6.28 5.66,-12.66 8.61,-18.71 10.22,-20.95 23.3,-42.61 32.18,-64.48 0.1,-1.61 0.24,-3.22 0.45,-4.86 -0.11,-0.07 -0.21,-0.14 -0.32,-0.21 -4.32,-0.03 -8.65,-0.37 -13.36,-1.19 -8.53,-1.49 -15.63,-4.11 -22.92,-6.41z"/>
  <path fill="#090A0C" d="M1831.39 123.53c120.04,0 217,35.38 265.48,68.65 18.1,12.42 29.33,23.6 40.92,34.85 10.87,10.55 25.19,24.79 42.66,46.29 11.03,13.58 20.48,29.57 28.57,47.12 15.07,32.7 21.89,74.35 28.92,112.43 11.2,60.81 16.9,121.69 18.07,159.04 0.42,13.48 -1.13,31.21 -1.86,45.32 -1.88,35.97 -10.44,40.7 -10.44,51.24 0,23.61 36.44,48.49 35.13,81.95 -2.57,65.31 -4.76,113.72 -71.65,184.66 -13.97,14.82 -35.85,32.42 -54.41,42.55 -13.15,7.18 -23.11,15.4 -24.02,33.56 -1.83,36.49 -14.2,84.24 -37.42,104.71 -11.76,10.38 -26.46,23.45 -33.29,33.69 -10.47,15.7 -28.84,28.5 -45.09,30.97 -17.04,2.6 -19.24,14.87 -39.68,15.93 -7.89,0.41 -15.79,0.72 -23.69,0.96 -16.26,0.49 -32.54,-1.21 -48.81,-1.15 -11.95,0.04 -23.91,-0.35 -35.86,-0.35 -5.5,0 -11.02,2.39 -16.54,2.59 -4.71,0.17 -9.43,1.09 -14.15,1.06 -5.96,-0.05 -11.94,-1.06 -17.9,-0.82 -4.78,0.2 -9.56,1.52 -14.33,1.67 -23.31,0.75 -46.59,2.04 -69.65,-0.92 -17.99,-2.31 -34.69,-6.45 -50.9,-11.02 -17.35,-4.9 -32.91,-11.19 -51.3,-19.54 -14.72,-6.69 -37.15,-36.76 -50.49,-57.14 -23,-35.15 8.92,-22.98 -61.43,-109.65 -25.81,-31.79 -63.4,-39.02 -89.74,-87.99 -12.85,-23.9 -18.46,-39.24 -29.48,-66.03 -5.38,-13.07 -17.9,-31.73 -21.89,-49.93 -8.08,-36.86 8.86,-81.19 20.24,-99.38 18.59,-29.71 26.75,-81.55 29.34,-116.51 3.28,-44.2 1.94,-71.56 -0.41,-95.54 -1.15,-11.73 -4.06,-21.14 -5.28,-32.83 -1.2,-11.63 -0.72,-25.55 -1.15,-40.26 -1.27,-42.87 29.29,-98.26 37.44,-114.53 4.67,-9.32 14.18,-22.69 19.03,-31.91 3.05,-5.8 4.62,-12.85 7.05,-18.98 4.56,-11.5 9.8,-22.2 16.94,-32.2 8.47,-11.87 20.26,-25.02 36.69,-38.03 18.23,-14.43 41.48,-30.7 73.65,-40.8 48.06,-15.09 122.13,-33.73 220.73,-33.73zm-260.04 469.48c7.44,3.49 23.4,5.79 30.99,9.01 47.33,20.13 88.02,40.02 120.7,70.45 15.28,14.23 27.14,34.64 27.15,55.52 0,7.21 0.84,17.8 -0.04,27.52 -0.67,7.39 -2.89,13.77 -4.09,20.91 -4.27,25.34 -12.49,48.81 -27.59,57.53 -13.79,7.96 -30.88,7.26 -46.57,9.45 -17.08,2.38 -93.27,-15.66 -139.7,-62.09 -7.36,-7.36 -12.55,-27.84 -16.65,-48.51 -4.61,-23.27 -7.57,-47.78 -9.67,-68.92 -1.51,-15.15 2.93,-35.29 10.12,-44.54 5.72,-7.36 16.87,-8.39 23.93,-14.47 3.42,-2.95 6.52,-7.24 6.61,-11.85 0.06,-2.84 3.88,-0.53 5.56,-0.53 6.59,0 13.28,-2.26 19.24,0.53zm471.82 43.14c13.46,0 25.97,7.31 39.23,9.62 5.23,0.91 10.71,-1.04 15.91,0 5.48,1.1 10.9,3.18 15.54,6.29 13.5,9.06 26.98,18.48 38.48,29.97 5.08,5.08 4.33,12.73 2.49,17.3 -1.88,4.68 0.05,9.01 0.07,14.5 0.01,2.34 -2.9,4.9 -3.45,7.47 -0.71,3.38 0.81,6.81 -0.22,9.8 -9.89,28.68 -25.51,54.05 -38.81,81.31 -6.33,12.98 -11.73,26.47 -19.01,38.95 -2.11,3.61 -4.92,6.6 -8.88,7.95 -14.2,4.85 -31.26,9.49 -46.08,13.23 -8.2,2.07 -14.68,4.8 -21.69,5 -3.32,0.09 -6.7,1.75 -10.12,2.07 -4.4,0.42 -8.87,-0.32 -13.31,0.34 -5.37,0.79 -10.74,2.3 -15.99,2.31 -3.79,0 -7.52,-1.3 -11.15,-1.68 -4.92,-0.52 -12.75,-1.17 -17.77,-1.78 -42.79,-5.18 -51.69,-27.01 -54.18,-66.39 -2.61,-41.31 19.69,-83.58 46.4,-115.2 7.27,-8.6 17.77,-17.15 29.35,-25 5.46,-3.71 12.08,-2.48 20.76,-8.98 22.98,-17.19 42.81,-27.1 52.42,-27.1zm-246.43 285.57c1.11,-2.49 2.57,-2 2.31,1.99 -0.27,4.13 -0.87,9.71 -0.87,12.54 0,2.87 1.21,6.12 1.27,9.5 0.08,4.81 1.34,6.89 1.34,9.87 0,4.28 -2.06,2.39 -2.06,6.67 0,1.73 0.4,7.94 0.32,9.87 -0.14,3.14 -1.35,6.48 -1.21,9.75 0.16,3.87 1.24,7.67 0.86,10.96 -0.22,1.99 -3.14,1.11 -4.09,2.93 -0.81,1.56 -0.19,3.13 -0.39,4.84 -0.25,2.12 2.61,4.07 1.98,6.11 -0.79,2.54 -4.05,1.7 -4.35,4.35 -0.42,3.67 1.76,3.34 1.2,10.42 -0.19,2.37 -3.74,0.23 -3.74,4.27 0,1.4 1.68,3.16 1.68,4.94 0,2.15 -3.12,4.34 -3.26,5.93 -0.41,4.62 1,4.76 0.41,7.13 -0.45,1.81 -0.91,3.62 -1.13,5.41 -0.36,3.07 2.83,5.82 2.13,9.43 -0.54,2.79 -2.82,6.5 -2.57,8.87 0.4,3.79 4.63,4.83 4.26,8.62 -0.56,5.75 -0.71,12.29 -0.56,17.91 0.11,4.38 0.87,8.66 -1.15,8.66 -11.39,0 -22.43,-8.69 -33.47,-15.86 -3.01,-1.96 -3.43,-6.7 -3.22,-10.29 0.24,-3.94 0.47,-7.89 0.73,-11.84 0.23,-3.44 -0.49,-7.87 -0.18,-11.3 0.22,-2.49 -0.03,-5.49 0.58,-7.66 0.42,-1.51 1.69,-2.18 2.01,-3.82 0.29,-1.45 -0.18,-3.7 0.14,-5.14 0.35,-1.56 0.11,-3.85 0.71,-5.25 0.58,-1.35 2.01,-1.81 2.2,-3.32 0.21,-1.67 -1.18,-4 -0.69,-5.7 0.46,-1.57 1.73,-2.37 2.21,-3.95 9.68,-31.64 21.22,-64.27 33.3,-94.07 0.5,-1.22 2.77,-1.57 3.31,-2.77zm54.87 0.49c8.54,22.87 14.1,39.58 20.54,62.36 4.37,15.47 9.98,30.64 11.9,46.5 0.24,1.96 1.4,6.01 1.69,10.07 1.16,16.53 -1.9,28.61 -8.61,43.11 -4,8.64 -13.77,13.92 -21.9,18.88 -2.1,1.28 -7.73,1.53 -8.26,-0.87 -0.66,-2.98 0.34,-7.34 0.22,-10.39 -0.14,-3.78 -1.29,-6.27 -1.03,-10.09 0.28,-4.22 2.35,-6.78 2.49,-10.96 0.35,-10.18 0.17,-20.95 0.68,-30.99 0.64,-12.6 0.3,-26.16 0.61,-38.93 0.14,-6.08 -0.97,-12.65 -1.13,-18.68 -0.14,-5.39 1.25,-10.83 0.93,-16.39 -0.26,-4.53 -1.01,-9.59 -1.14,-14.13 -0.16,-5.69 1.43,-7.46 0.91,-17.1 -0.11,-1.99 -1.18,-5.08 -1.2,-7.06 -0.02,-1.6 -0.03,-3.2 -0.03,-4.79 0,-4.24 1.84,-4.62 3.36,-0.55zm-533.43 204.55c-9.83,8.22 5.63,10.1 30.37,22.48 25.42,12.72 55.05,14.46 81.9,23.81 22.9,7.97 44.15,20.33 67.13,28.09 45.09,15.22 91.26,27.03 136.82,40.78 47.91,14.45 95.45,30.15 143.58,43.83 25.5,7.25 42.75,11.41 77.98,0 44.94,-14.55 85.44,-30.62 128.07,-46.15 35.62,-12.97 71.6,-28.81 106.7,-39.33 31.23,-9.36 42.07,-21.92 89.08,-40.43 39.68,-15.63 70.64,-29.7 119.81,-44.91 28.68,-8.87 59.43,-23.83 76.11,-48.13 14.83,-21.62 1.2,-41.99 29.71,-72.82 10.97,-11.87 24.48,-21.22 35.49,-33.06 14.03,-15.1 26.33,-20.95 40.32,-21.77 9.01,-0.53 17.92,3.03 26.95,2.82 12.45,-0.28 21.47,-8.42 31.91,-5.66 14.37,3.8 32.08,10.22 37.57,24.03 10.74,26.99 19.85,51.69 6.56,86.9 -4.21,11.16 2.53,26.45 11.98,33.73 18.45,14.21 41.39,25.01 49.55,46.02 6.66,17.17 6.23,30.1 0,53.22 -7.29,27.05 -29.84,45.78 -68.01,49.38 -37.65,3.56 -51.12,-23.56 -87.76,-25.91 -9.64,-0.62 -25.48,6.99 -38.11,10.87 -46.42,14.26 -93.18,27.53 -139.02,43.56 -66.5,23.24 -121.47,43.02 -189.27,69.49 -11.32,4.42 -3.19,9.17 5.01,10.46 27.55,4.36 87.66,12.16 120.62,19.22 35.44,7.58 63.58,17.21 108.75,0 22.36,-8.52 41.95,-22.88 61.57,-36.9 10.4,-7.43 26.76,-5.64 37.7,-5.73 11.39,-0.09 20.22,-2.65 32.82,-9.68 18.47,-10.3 36.28,-23.69 55.31,-32.28 13.43,-6.06 33.39,-5.15 44.16,3.58 14.77,11.97 31.14,27.41 40.35,40.77 8.8,12.78 8.21,25.43 3.36,38.68 -7.02,19.19 -25.99,33.26 -36.77,50.62 -12.37,19.93 -23.27,40.19 -32.46,62.44 -5.13,12.41 -7.49,27.41 -1.15,40.27 5.83,11.82 12.49,24.58 11.82,37.74 -0.36,7.07 -4.33,13.39 -8.93,19.2 -8.48,10.72 -14.92,13.21 -23.51,21.56 -5.4,5.25 -8.9,10.45 -15.44,15.89 -8.29,6.9 -20.08,10.91 -30.4,5.37 -16.61,-8.91 -32.16,-18.48 -47.19,-29.84 -14.43,-10.91 -26.21,-26.44 -42.36,-36.7 -17.95,-11.41 -73.69,-30.09 -110.71,-44.68 -71.63,-28.22 -153.88,-43.79 -231.36,-63.65 -38.7,-9.91 -77.82,-18.18 -117.07,-25.65 -4.53,-0.86 -9.51,-0.91 -13.81,0.74 -48.61,18.62 -95.76,40.9 -144.26,59.83 -36.93,14.41 -74.63,26.79 -111.94,40.18 -24.43,8.77 -48.87,17.53 -73.29,26.31 -34.19,12.29 -68.37,24.61 -102.55,36.91 -24.7,8.89 -49.68,19.11 -74.12,28.7 -17.94,7.04 -35.11,12.83 -51.95,22.21 -10.49,5.85 -20.96,10.3 -27.79,21.12 -9.46,15 -18.62,25.96 -32.27,30.58 -14.59,4.94 -29.43,-0.13 -44.16,-4.65 -25.57,-7.84 -32.24,-3.22 -48.23,-8.52 -14.78,-4.89 -27.68,-16.07 -36.92,-31.14 -8.06,-13.15 -11.65,-26.62 -16.71,-44.83 -4.36,-15.71 -8.09,-18.92 -18,-21.84 -31.2,-9.2 -63.64,-16.79 -91.86,-32.97 -19.21,-11.01 -38.35,-25.29 -48.59,-48.14 -8.82,-19.68 -13.55,-40.95 -10.31,-62.27 1.97,-12.99 17.45,-29.4 25.89,-31.39 10.68,-2.52 21.62,-3.83 30.91,-9.66 13.67,-8.58 31.47,-15.91 48.34,-20.63 13.59,-3.8 28.03,-6.07 42.07,-4.65 19.17,1.94 38.67,6.04 55.95,14.56 24.44,12.04 46.11,29.22 67.4,46.21 17.7,14.13 35.97,33.33 49.21,46.85 5.18,5.29 14.77,6.79 21.78,4.41 33.37,-11.36 58.2,-19.1 87.13,-29.13 41.61,-14.42 83.05,-29.34 124.5,-44.24 24.22,-8.7 49.85,-14.34 72.49,-26.57 3.26,-1.76 2.5,-7.77 -6.12,-9.3 -63.6,-11.29 -125.38,-29.22 -188.53,-41.67 -43.05,-8.49 -86.49,-14.99 -129.94,-21.16 -21.51,-3.06 -43.2,-8.32 -64.86,-6.53 -13.92,1.15 -25.36,4.84 -39.09,15.13 -12.95,9.71 -30.2,16.4 -46.29,14.69 -17.85,-1.89 -36.06,-7.04 -47.85,-24.7 -5.9,-8.85 -6.07,-19.31 -4.45,-31.6 1.41,-10.71 0.56,-22.01 -2.68,-32.32 -3.95,-12.57 -13.78,-22.63 -18.47,-34.95 -2.75,-7.22 -3.43,-15.19 -3.56,-22.92 -0.56,-33.97 25.95,-55.64 38.38,-62.37 18.3,-9.92 37.12,-20.15 50.53,-36.07 8.43,-10.01 1.74,-27.43 9.21,-38.17 10.67,-15.34 26.53,-26.93 42.64,-36.38 10.21,-5.99 22.62,-9.95 34.4,-8.83 14.61,1.38 31.1,4.49 41.56,12.8 21.57,17.14 39.31,42.61 44.45,69.67 3.8,20.02 2.61,38.16 -17.78,55.2z"/>
 </g>
</svg>
