<?xml version="1.0" encoding="UTF-8"?>
<!DOCTYPE svg PUBLIC "-//W3C//DTD SVG 1.0//EN" "http://www.w3.org/TR/2001/REC-SVG-20010904/DTD/svg10.dtd">
<!-- Creator: CorelDRAW -->
<svg xmlns="http://www.w3.org/2000/svg" xml:space="preserve" width="100%" height="100%" version="1.0" shape-rendering="geometricPrecision" text-rendering="geometricPrecision" image-rendering="optimizeQuality" fill-rule="evenodd" clip-rule="evenodd"
viewBox="0 0 19476.5 5267.06"
 xmlns:xlink="http://www.w3.org/1999/xlink"
 xmlns:xodm="http://www.corel.com/coreldraw/odm/2003">
 <g id="Layer_x0020_1">
  <metadata id="CorelCorpID_0Corel-Layer"/>
  <rect fill="white" width="19476.5" height="5267.06"/>
  <g id="_1391140308480">
   <g>
    <path fill="none" fill-rule="nonzero" stroke="#BF00BF" stroke-width="89.92" stroke-miterlimit="4" d="M15632 3892.3l128.82 -352.38c6.86,-18.54 22.74,-33.8 47.59,-45.78 22.42,-10.49 44.58,-15.7 66.41,-15.7l854.65 0c17.08,0 32.51,3.76 46.26,11.23 17.08,8.36 25.61,20.17 25.61,35.47 0,4.77 -0.92,9.69 -2.74,14.78l-127.9 352.38 -266.63 0 102.33 -281.45 -119.41 0 -102.33 281.45 -266.68 0 102.38 -281.45 -119.85 0 -101.89 281.45 -266.62 0zm-229.82 -281.44l-119.41 0 -53.43 149.03 119.41 0 53.43 -149.03zm296.26 -85.27c0,5.09 -0.93,9.99 -2.7,14.77l-106.84 290.48c-6.55,18.26 -22.61,33.52 -47.99,45.77 -22.47,10.48 -44.5,15.69 -66.03,15.69l-468.61 0c-17.07,0 -32.51,-3.71 -46.26,-11.23 -17.01,-8.35 -25.6,-20.16 -25.6,-35.47 0,-4.77 0.94,-9.69 2.75,-14.76l105.47 -290.48c6.89,-18.53 22.86,-33.91 48.02,-46.21 22.47,-10.45 44.46,-15.71 65.99,-15.71l469.1 0c16.76,0 31.97,3.76 45.77,11.23 17.95,8.68 26.93,20.61 26.93,35.92zm-662.08 -47.14l-144.52 132.41 -298.53 0 -53.42 149.04 394.13 0 -144.08 132.41 -473.57 0c-16.13,0 -31.13,-3.76 -44.88,-11.23 -9.25,-4.31 -16.13,-9.55 -20.63,-15.69l-9.93 26.94 -197.51 0 44.01 -119.41 181.27 0 84.48 -232.55c6.89,-18.53 22.85,-33.92 48.03,-46.22 22.46,-10.48 44.4,-15.7 65.97,-15.7l569.18 0zm-924.24 0l-144.53 132.41 -298.52 0 -53.38 149.04 394.09 0 -144.09 132.41 -473.56 0c-16.14,0 -31.14,-3.76 -44.89,-11.23 -17.95,-8.36 -26.98,-20.17 -26.98,-35.46 0,-5.36 1.07,-10.31 3.15,-14.78l105.52 -290.47c6.89,-18.53 22.86,-33.92 48.02,-46.22 22.47,-10.48 44.41,-15.7 65.99,-15.7l569.18 0zm-648.17 0l-144.53 132.41 -229.84 0 -101.89 281.45 -265.75 0 127.5 -351.94c6.85,-18.53 22.86,-33.92 47.98,-46.22 22.47,-10.48 44.5,-15.7 66.03,-15.7l500.5 0zm-971.85 132.41l-119.41 0 -8.97 26.04 119.41 0 8.97 -26.04zm296.27 -85.27c0,5.09 -18.13,56.88 -54.36,155.32 -6.54,18.27 -22.86,33.53 -48.9,45.77 -22.43,10.48 -44.4,15.7 -65.99,15.7l-294.45 0 -5.39 17.51 394.58 0 -144.54 132.41 -473.12 0c-17.07,0 -32.5,-3.71 -46.25,-11.23 -17.04,-8.35 -25.62,-20.16 -25.62,-35.47 0,-4.77 0.93,-9.69 2.75,-14.76l105.48 -290.48c6.89,-18.53 22.85,-33.91 48.03,-46.21 22.46,-10.45 44.44,-15.71 65.97,-15.71l469.1 0c16.76,0 31.98,3.76 45.78,11.23 17.96,8.68 26.93,20.61 26.93,35.92zm-763.12 -51.64l-38.6 106.85 -137.8 0 -64.65 178.19 133.32 0 47.14 133.34 -403.54 0c-17.06,0 -32.5,-3.77 -46.26,-11.24 -16.45,-8.97 -24.67,-21.1 -24.67,-36.35 0,-4.46 0.87,-9.42 2.69,-14.82l89.34 -249.12 -66 0 -114.03 311.51 -560.63 0c-17.08,0 -32.47,-3.76 -46.26,-11.23 -17.04,-8.36 -25.56,-20.17 -25.56,-35.46 0,-5.67 16.76,-54.76 50.28,-147.23 6.86,-18.53 22.9,-33.97 48.03,-46.22 21.57,-10.17 43.51,-15.26 65.98,-15.26l294.5 0 8.92 -26.05 -386.04 0 48.92 -132.41 560.68 0c16.77,0 31.98,3.76 45.82,11.23 17.25,8.34 26.17,19.69 26.85,34.14l18.02 -49.87 69.08 0 48.51 -133.28 266.63 0 -48.46 133.28 137.79 0zm-835.37 268.44l-119.86 0 -5.35 17.51 119.37 0 5.84 -17.51zm-304.32 -263.94l-144.53 132.41 -229.84 0 -101.9 281.45 -265.74 0 127.49 -351.94c6.86,-18.53 22.87,-33.92 47.99,-46.22 22.47,-10.48 44.49,-15.7 66.03,-15.7l500.5 0zm-971.8 132.41l-119.41 0 -8.98 26.04 119.41 0 8.98 -26.04zm296.26 -85.27c0,5.09 -18.13,56.88 -54.35,155.32 -6.54,18.27 -22.86,33.53 -48.92,45.77 -22.42,10.48 -44.4,15.7 -65.97,15.7l-294.46 0 -5.4 17.51 394.58 0 -144.53 132.41 -473.12 0c-17.08,0 -32.51,-3.71 -46.26,-11.23 -17.02,-8.35 -25.6,-20.16 -25.6,-35.47 0,-4.77 0.93,-9.69 2.73,-14.76l105.48 -290.48c6.9,-18.53 22.87,-33.91 48.03,-46.21 22.47,-10.45 44.45,-15.71 65.99,-15.71l469.1 0c16.76,0 31.97,3.76 45.77,11.23 17.95,8.68 26.93,20.61 26.93,35.92zm-672.9 -184.95l-200.66 551.67 -265.74 0 199.76 -551.67 266.64 0zm-671.08 270.22l-119.4 0 -8.98 26.04 119.4 0 8.98 -26.04zm296.25 -85.27c0,5.09 -18.12,56.88 -54.34,155.32 -6.54,18.27 -22.87,33.53 -48.92,45.77 -22.42,10.48 -44.4,15.7 -65.99,15.7l-294.43 0 -5.4 17.51 394.57 0 -144.53 132.41 -473.11 0c-17.07,0 -32.51,-3.71 -46.26,-11.23 -17.02,-8.35 -25.61,-20.16 -25.61,-35.47 0,-4.77 0.93,-9.69 2.74,-14.76l105.48 -290.48c6.9,-18.53 22.87,-33.91 48.03,-46.21 22.47,-10.45 44.44,-15.71 65.98,-15.71l469.1 0c16.76,0 31.96,3.76 45.77,11.23 17.95,8.68 26.92,20.61 26.92,35.92zm-662.08 -47.14l-144.53 132.41 -298.51 0 -53.38 149.04 394.09 0 -144.09 132.41 -473.56 0c-16.15,0 -31.14,-3.76 -44.89,-11.23 -17.96,-8.36 -26.98,-20.17 -26.98,-35.46 0,-5.36 1.06,-10.31 3.14,-14.78l105.52 -290.47c6.9,-18.53 22.87,-33.92 48.03,-46.22 22.46,-10.48 44.4,-15.7 65.99,-15.7l569.17 0zm-684.99 0l-291.31 206.94 140.5 206.92 -301.21 0 -42.59 -62.4 -88.05 62.4 -300.7 0 290.39 -206.92 -140.51 -206.94 301.66 0 42.19 62.85 88.46 -62.85 301.17 0zm-1100.2 132.41l-119.41 0 -8.98 26.04 119.41 0 8.98 -26.04zm296.27 -85.27c0,5.09 -18.13,56.88 -54.36,155.32 -6.54,18.27 -22.86,33.53 -48.9,45.77 -22.43,10.48 -44.41,15.7 -65.99,15.7l-294.46 0 -5.39 17.51 394.58 0 -144.53 132.41 -473.12 0c-17.07,0 -32.5,-3.71 -46.26,-11.23 -17.03,-8.35 -25.61,-20.16 -25.61,-35.47 0,-4.77 0.93,-9.69 2.75,-14.76l105.46 -290.48c6.91,-18.53 22.87,-33.91 48.04,-46.21 22.47,-10.45 44.45,-15.71 65.98,-15.71l469.1 0c16.76,0 31.98,3.76 45.77,11.23 17.96,8.68 26.94,20.61 26.94,35.92zm-751.44 247.33l-44 119.41 -197.51 0 44 -119.41 197.51 0zm-208.73 -294.47l-128.82 352.39c-6.86,18.54 -22.74,33.79 -47.59,45.78 -22.43,10.48 -44.58,15.69 -66.42,15.69l-854.65 0c-17.07,0 -32.5,-3.76 -46.26,-11.23 -17.07,-8.36 -25.61,-20.17 -25.61,-35.46 0,-4.78 0.93,-9.69 2.75,-14.78l127.89 -352.39 266.64 0 -102.34 281.45 119.41 0 102.34 -281.45 266.68 0 -102.38 281.45 119.84 0 101.9 -281.45 266.62 0zm-2206.74 0l-128.82 352.39c-6.86,18.54 -22.74,33.79 -47.59,45.78 -22.43,10.48 -44.58,15.69 -66.42,15.69l-854.65 0c-17.07,0 -32.51,-3.76 -46.26,-11.23 -17.07,-8.36 -25.61,-20.17 -25.61,-35.46 0,-4.78 0.93,-9.69 2.75,-14.78l127.89 -352.39 266.64 0 -102.34 281.45 119.41 0 102.33 -281.45 266.69 0 -102.38 281.45 119.84 0 101.9 -281.45 266.62 0zm1103.37 0l-128.82 352.39c-6.86,18.54 -22.74,33.79 -47.59,45.78 -22.43,10.48 -44.58,15.69 -66.42,15.69l-854.65 0c-17.07,0 -32.51,-3.76 -46.26,-11.23 -17.07,-8.36 -25.61,-20.17 -25.61,-35.46 0,-4.78 0.93,-9.69 2.75,-14.78l127.89 -352.39 266.64 0 -102.34 281.45 119.41 0 102.33 -281.45 266.69 0 -102.38 281.45 119.84 0 101.9 -281.45 266.62 0z"/>
    <g>
     <path fill="white" fill-rule="nonzero" d="M6051.13 3478.45l-128.83 352.39c-6.85,18.54 -22.74,33.79 -47.58,45.78 -22.43,10.48 -44.58,15.69 -66.43,15.69l-854.65 0c-17.07,0 -32.51,-3.76 -46.26,-11.23 -17.07,-8.36 -25.61,-20.17 -25.61,-35.46 0,-4.78 0.93,-9.69 2.74,-14.78l127.9 -352.39 266.63 0 -102.33 281.46 119.41 0 102.33 -281.46 266.68 0 -102.38 281.46 119.85 0 101.89 -281.46 266.64 0z"/>
     <polygon fill="white" fill-rule="nonzero" points="6259.85,3772.92 6215.85,3892.33 6018.34,3892.33 6062.35,3772.92 "/>
     <path fill="white" fill-rule="nonzero" d="M6715.02 3610.86l-119.41 0 -8.97 26.04 119.41 0 8.97 -26.04zm296.27 -85.27c0,5.09 -18.13,56.88 -54.36,155.33 -6.54,18.26 -22.86,33.52 -48.9,45.77 -22.43,10.48 -44.4,15.69 -65.99,15.69l-294.45 0 -5.39 17.51 394.58 0 -144.54 132.41 -473.11 0c-17.08,0 -32.51,-3.71 -46.26,-11.23 -17.04,-8.35 -25.61,-20.16 -25.61,-35.47 0,-4.77 0.92,-9.69 2.74,-14.76l105.47 -290.48c6.91,-18.53 22.87,-33.91 48.04,-46.21 22.46,-10.44 44.44,-15.71 65.98,-15.71l469.09 0c16.76,0 31.98,3.76 45.77,11.23 17.96,8.68 26.94,20.61 26.94,35.92z"/>
     <polygon fill="white" fill-rule="nonzero" points="7815.22,3478.45 7523.91,3685.39 7664.4,3892.31 7363.2,3892.31 7320.61,3829.91 7232.56,3892.31 6931.86,3892.31 7222.25,3685.39 7081.74,3478.45 7383.4,3478.45 7425.59,3541.3 7514.04,3478.45 "/>
     <path fill="white" fill-rule="nonzero" d="M8500.21 3478.45l-144.53 132.41 -298.51 0 -53.38 149.05 394.09 0 -144.1 132.4 -473.55 0c-16.15,0 -31.14,-3.76 -44.9,-11.23 -17.95,-8.36 -26.97,-20.17 -26.97,-35.46 0,-5.36 1.06,-10.31 3.14,-14.78l105.52 -290.47c6.9,-18.53 22.87,-33.92 48.03,-46.22 22.46,-10.48 44.4,-15.7 65.99,-15.7l569.17 0z"/>
     <path fill="white" fill-rule="nonzero" d="M8866.04 3610.86l-119.41 0 -8.97 26.04 119.41 0 8.97 -26.04zm296.26 -85.27c0,5.09 -18.13,56.88 -54.35,155.33 -6.54,18.26 -22.86,33.52 -48.91,45.77 -22.43,10.48 -44.41,15.69 -65.99,15.69l-294.44 0 -5.4 17.51 394.57 0 -144.53 132.41 -473.12 0c-17.07,0 -32.5,-3.71 -46.25,-11.23 -17.03,-8.35 -25.62,-20.16 -25.62,-35.47 0,-4.77 0.93,-9.69 2.75,-14.76l105.48 -290.48c6.9,-18.53 22.87,-33.91 48.03,-46.21 22.46,-10.44 44.44,-15.71 65.97,-15.71l469.11 0c16.76,0 31.97,3.76 45.77,11.23 17.95,8.68 26.93,20.61 26.93,35.92z"/>
     <polygon fill="white" fill-rule="nonzero" points="9537.12,3340.64 9336.47,3892.31 9070.72,3892.31 9270.49,3340.64 "/>
     <path fill="white" fill-rule="nonzero" d="M9913.76 3610.86l-119.41 0 -8.97 26.04 119.4 0 8.98 -26.04zm296.26 -85.27c0,5.09 -18.13,56.88 -54.35,155.33 -6.54,18.26 -22.86,33.52 -48.91,45.77 -22.43,10.48 -44.41,15.69 -65.98,15.69l-294.45 0 -5.41 17.51 394.58 0 -144.53 132.41 -473.12 0c-17.07,0 -32.5,-3.71 -46.26,-11.23 -17.02,-8.35 -25.6,-20.16 -25.6,-35.47 0,-4.77 0.93,-9.69 2.74,-14.76l105.48 -290.48c6.89,-18.53 22.86,-33.91 48.02,-46.21 22.47,-10.44 44.46,-15.71 66,-15.71l469.09 0c16.76,0 31.97,3.76 45.77,11.23 17.95,8.68 26.93,20.61 26.93,35.92z"/>
     <path fill="white" fill-rule="nonzero" d="M10885.56 3478.45l-144.53 132.41 -229.84 0 -101.9 281.45 -265.74 0 127.49 -351.94c6.86,-18.53 22.87,-33.92 47.99,-46.22 22.47,-10.48 44.49,-15.7 66.03,-15.7l500.5 0z"/>
     <path fill="white" fill-rule="nonzero" d="M11189.88 3742.39l-119.86 0 -5.36 17.52 119.37 0 5.85 -17.52zm343.84 -216.79c0,5.08 -0.89,10 -2.69,14.77l-128.84 351.94 -560.63 0c-17.08,0 -32.47,-3.76 -46.26,-11.23 -17.04,-8.36 -25.56,-20.17 -25.56,-35.46 0,-5.67 16.76,-54.76 50.28,-147.23 6.86,-18.53 22.9,-33.97 48.03,-46.22 21.57,-10.17 43.51,-15.26 65.97,-15.26l294.51 0 8.92 -26.05 -386.04 0 48.92 -132.41 560.68 0c16.76,0 31.98,3.77 45.82,11.24 17.95,8.67 26.89,20.61 26.89,35.91z"/>
     <path fill="white" fill-rule="nonzero" d="M12025.25 3473.95l-38.59 106.85 -137.82 0 -64.65 178.19 133.34 0 47.14 133.34 -403.56 0c-17.06,0 -32.49,-3.76 -46.26,-11.24 -16.44,-8.97 -24.67,-21.09 -24.67,-36.35 0,-4.46 0.88,-9.42 2.7,-14.82l89.33 -249.12 -69.12 0 38.61 -106.85 69.07 0 48.52 -133.28 266.63 0 -48.46 133.28 137.79 0z"/>
     <path fill="white" fill-rule="nonzero" d="M12492.1 3610.86l-119.4 0 -8.98 26.04 119.41 0 8.97 -26.04zm296.27 -85.27c0,5.09 -18.12,56.88 -54.35,155.33 -6.55,18.26 -22.87,33.52 -48.91,45.77 -22.42,10.48 -44.4,15.69 -65.99,15.69l-294.45 0 -5.39 17.51 394.58 0 -144.53 132.41 -473.12 0c-17.07,0 -32.51,-3.71 -46.26,-11.23 -17.04,-8.35 -25.61,-20.16 -25.61,-35.47 0,-4.77 0.93,-9.69 2.74,-14.76l105.49 -290.48c6.89,-18.53 22.85,-33.91 48.02,-46.21 22.47,-10.44 44.44,-15.71 65.98,-15.71l469.09 0c16.76,0 31.98,3.76 45.79,11.23 17.95,8.68 26.92,20.61 26.92,35.92z"/>
     <path fill="white" fill-rule="nonzero" d="M13463.95 3478.45l-144.53 132.41 -229.84 0 -101.89 281.45 -265.75 0 127.5 -351.94c6.86,-18.53 22.86,-33.92 47.99,-46.22 22.46,-10.48 44.49,-15.7 66.03,-15.7l500.49 0z"/>
     <path fill="white" fill-rule="nonzero" d="M14112.12 3478.45l-144.54 132.41 -298.51 0 -53.38 149.05 394.09 0 -144.09 132.4 -473.56 0c-16.14,0 -31.14,-3.76 -44.89,-11.23 -17.95,-8.36 -26.98,-20.17 -26.98,-35.46 0,-5.36 1.07,-10.31 3.15,-14.78l105.52 -290.47c6.89,-18.53 22.86,-33.92 48.02,-46.22 22.47,-10.48 44.41,-15.7 65.99,-15.7l569.18 0z"/>
     <polygon fill="white" fill-rule="nonzero" points="14284.94,3772.92 14240.93,3892.33 14043.42,3892.33 14087.43,3772.92 "/>
     <path fill="white" fill-rule="nonzero" d="M15036.36 3478.45l-144.53 132.41 -298.52 0 -53.42 149.05 394.13 0 -144.08 132.4 -473.57 0c-16.14,0 -31.13,-3.76 -44.88,-11.23 -17.95,-8.36 -26.98,-20.17 -26.98,-35.46 0,-5.36 1.07,-10.31 3.13,-14.78l105.54 -290.47c6.89,-18.53 22.85,-33.92 48.02,-46.22 22.47,-10.48 44.4,-15.7 65.98,-15.7l569.18 0z"/>
     <path fill="white" fill-rule="nonzero" d="M15402.18 3610.86l-119.4 0 -53.43 149.03 119.4 0 53.43 -149.03zm296.26 -85.27c0,5.09 -0.93,9.99 -2.69,14.77l-106.85 290.48c-6.54,18.26 -22.6,33.52 -47.99,45.77 -22.46,10.48 -44.49,15.69 -66.03,15.69l-468.6 0c-17.08,0 -32.51,-3.71 -46.26,-11.23 -17.03,-8.35 -25.61,-20.16 -25.61,-35.47 0,-4.77 0.94,-9.69 2.74,-14.76l105.48 -290.48c6.9,-18.53 22.87,-33.91 48.03,-46.21 22.46,-10.44 44.45,-15.71 65.99,-15.71l469.09 0c16.76,0 31.97,3.76 45.77,11.23 17.95,8.68 26.93,20.61 26.93,35.92z"/>
     <path fill="white" fill-rule="nonzero" d="M6051.13 3478.45l-128.83 352.39c-6.85,18.54 -22.74,33.79 -47.58,45.78 -22.43,10.48 -44.58,15.69 -66.43,15.69l-854.65 0c-17.07,0 -32.51,-3.76 -46.26,-11.23 -17.07,-8.36 -25.61,-20.17 -25.61,-35.46 0,-4.78 0.93,-9.69 2.74,-14.78l127.9 -352.39 266.63 0 -102.33 281.46 119.41 0 102.33 -281.46 266.68 0 -102.38 281.46 119.85 0 101.89 -281.46 266.64 0z"/>
     <polygon fill="white" fill-rule="nonzero" points="6259.85,3772.92 6215.85,3892.33 6018.34,3892.33 6062.35,3772.92 "/>
     <path fill="white" fill-rule="nonzero" d="M6715.02 3610.86l-119.41 0 -8.97 26.04 119.41 0 8.97 -26.04zm296.27 -85.27c0,5.09 -18.13,56.88 -54.36,155.33 -6.54,18.26 -22.86,33.52 -48.9,45.77 -22.43,10.48 -44.4,15.69 -65.99,15.69l-294.45 0 -5.39 17.51 394.58 0 -144.54 132.41 -473.11 0c-17.08,0 -32.51,-3.71 -46.26,-11.23 -17.04,-8.35 -25.61,-20.16 -25.61,-35.47 0,-4.77 0.92,-9.69 2.74,-14.76l105.47 -290.48c6.91,-18.53 22.87,-33.91 48.04,-46.21 22.46,-10.44 44.44,-15.71 65.98,-15.71l469.09 0c16.76,0 31.98,3.76 45.77,11.23 17.96,8.68 26.94,20.61 26.94,35.92z"/>
     <polygon fill="white" fill-rule="nonzero" points="7815.22,3478.45 7523.91,3685.39 7664.4,3892.31 7363.2,3892.31 7320.61,3829.91 7232.56,3892.31 6931.86,3892.31 7222.25,3685.39 7081.74,3478.45 7383.4,3478.45 7425.59,3541.3 7514.04,3478.45 "/>
     <path fill="white" fill-rule="nonzero" d="M8500.21 3478.45l-144.53 132.41 -298.51 0 -53.38 149.05 394.09 0 -144.1 132.4 -473.55 0c-16.15,0 -31.14,-3.76 -44.9,-11.23 -17.95,-8.36 -26.97,-20.17 -26.97,-35.46 0,-5.36 1.06,-10.31 3.14,-14.78l105.52 -290.47c6.9,-18.53 22.87,-33.92 48.03,-46.22 22.46,-10.48 44.4,-15.7 65.99,-15.7l569.17 0z"/>
     <path fill="white" fill-rule="nonzero" d="M8866.04 3610.86l-119.41 0 -8.97 26.04 119.41 0 8.97 -26.04zm296.26 -85.27c0,5.09 -18.13,56.88 -54.35,155.33 -6.54,18.26 -22.86,33.52 -48.91,45.77 -22.43,10.48 -44.41,15.69 -65.99,15.69l-294.44 0 -5.4 17.51 394.57 0 -144.53 132.41 -473.12 0c-17.07,0 -32.5,-3.71 -46.25,-11.23 -17.03,-8.35 -25.62,-20.16 -25.62,-35.47 0,-4.77 0.93,-9.69 2.75,-14.76l105.48 -290.48c6.9,-18.53 22.87,-33.91 48.03,-46.21 22.46,-10.44 44.44,-15.71 65.97,-15.71l469.11 0c16.76,0 31.97,3.76 45.77,11.23 17.95,8.68 26.93,20.61 26.93,35.92z"/>
     <polygon fill="white" fill-rule="nonzero" points="9537.12,3340.64 9336.47,3892.31 9070.72,3892.31 9270.49,3340.64 "/>
     <path fill="white" fill-rule="nonzero" d="M9913.76 3610.86l-119.41 0 -8.97 26.04 119.4 0 8.98 -26.04zm296.26 -85.27c0,5.09 -18.13,56.88 -54.35,155.33 -6.54,18.26 -22.86,33.52 -48.91,45.77 -22.43,10.48 -44.41,15.69 -65.98,15.69l-294.45 0 -5.41 17.51 394.58 0 -144.53 132.41 -473.12 0c-17.07,0 -32.5,-3.71 -46.26,-11.23 -17.02,-8.35 -25.6,-20.16 -25.6,-35.47 0,-4.77 0.93,-9.69 2.74,-14.76l105.48 -290.48c6.89,-18.53 22.86,-33.91 48.02,-46.21 22.47,-10.44 44.46,-15.71 66,-15.71l469.09 0c16.76,0 31.97,3.76 45.77,11.23 17.95,8.68 26.93,20.61 26.93,35.92z"/>
     <path fill="white" fill-rule="nonzero" d="M10885.56 3478.45l-144.53 132.41 -229.84 0 -101.9 281.45 -265.74 0 127.49 -351.94c6.86,-18.53 22.87,-33.92 47.99,-46.22 22.47,-10.48 44.49,-15.7 66.03,-15.7l500.5 0z"/>
     <path fill="white" fill-rule="nonzero" d="M11189.88 3742.39l-119.86 0 -5.36 17.52 119.37 0 5.85 -17.52zm343.84 -216.79c0,5.08 -0.89,10 -2.69,14.77l-128.84 351.94 -560.63 0c-17.08,0 -32.47,-3.76 -46.26,-11.23 -17.04,-8.36 -25.56,-20.17 -25.56,-35.46 0,-5.67 16.76,-54.76 50.28,-147.23 6.86,-18.53 22.9,-33.97 48.03,-46.22 21.57,-10.17 43.51,-15.26 65.97,-15.26l294.51 0 8.92 -26.05 -386.04 0 48.92 -132.41 560.68 0c16.76,0 31.98,3.77 45.82,11.24 17.95,8.67 26.89,20.61 26.89,35.91z"/>
     <path fill="white" fill-rule="nonzero" d="M12025.25 3473.95l-38.59 106.85 -137.82 0 -64.65 178.19 133.34 0 47.14 133.34 -403.56 0c-17.06,0 -32.49,-3.76 -46.26,-11.24 -16.44,-8.97 -24.67,-21.09 -24.67,-36.35 0,-4.46 0.88,-9.42 2.7,-14.82l89.33 -249.12 -69.12 0 38.61 -106.85 69.07 0 48.52 -133.28 266.63 0 -48.46 133.28 137.79 0z"/>
     <path fill="white" fill-rule="nonzero" d="M12492.1 3610.86l-119.4 0 -8.98 26.04 119.41 0 8.97 -26.04zm296.27 -85.27c0,5.09 -18.12,56.88 -54.35,155.33 -6.55,18.26 -22.87,33.52 -48.91,45.77 -22.42,10.48 -44.4,15.69 -65.99,15.69l-294.45 0 -5.39 17.51 394.58 0 -144.53 132.41 -473.12 0c-17.07,0 -32.51,-3.71 -46.26,-11.23 -17.04,-8.35 -25.61,-20.16 -25.61,-35.47 0,-4.77 0.93,-9.69 2.74,-14.76l105.49 -290.48c6.89,-18.53 22.85,-33.91 48.02,-46.21 22.47,-10.44 44.44,-15.71 65.98,-15.71l469.09 0c16.76,0 31.98,3.76 45.79,11.23 17.95,8.68 26.92,20.61 26.92,35.92z"/>
     <path fill="white" fill-rule="nonzero" d="M13463.95 3478.45l-144.53 132.41 -229.84 0 -101.89 281.45 -265.75 0 127.5 -351.94c6.86,-18.53 22.86,-33.92 47.99,-46.22 22.46,-10.48 44.49,-15.7 66.03,-15.7l500.49 0z"/>
     <path fill="white" fill-rule="nonzero" d="M14112.12 3478.45l-144.54 132.41 -298.51 0 -53.38 149.05 394.09 0 -144.09 132.4 -473.56 0c-16.14,0 -31.14,-3.76 -44.89,-11.23 -17.95,-8.36 -26.98,-20.17 -26.98,-35.46 0,-5.36 1.07,-10.31 3.15,-14.78l105.52 -290.47c6.89,-18.53 22.86,-33.92 48.02,-46.22 22.47,-10.48 44.41,-15.7 65.99,-15.7l569.18 0z"/>
     <polygon fill="white" fill-rule="nonzero" points="14284.94,3772.92 14240.93,3892.33 14043.42,3892.33 14087.43,3772.92 "/>
     <path fill="white" fill-rule="nonzero" d="M15036.36 3478.45l-144.53 132.41 -298.52 0 -53.42 149.05 394.13 0 -144.08 132.4 -473.57 0c-16.14,0 -31.13,-3.76 -44.88,-11.23 -17.95,-8.36 -26.98,-20.17 -26.98,-35.46 0,-5.36 1.07,-10.31 3.13,-14.78l105.54 -290.47c6.89,-18.53 22.85,-33.92 48.02,-46.22 22.47,-10.48 44.4,-15.7 65.98,-15.7l569.18 0z"/>
     <path fill="white" fill-rule="nonzero" d="M15402.18 3610.86l-119.4 0 -53.43 149.03 119.4 0 53.43 -149.03zm296.26 -85.27c0,5.09 -0.93,9.99 -2.69,14.77l-106.85 290.48c-6.54,18.26 -22.6,33.52 -47.99,45.77 -22.46,10.48 -44.49,15.69 -66.03,15.69l-468.6 0c-17.08,0 -32.51,-3.71 -46.26,-11.23 -17.03,-8.35 -25.61,-20.16 -25.61,-35.47 0,-4.77 0.94,-9.69 2.74,-14.76l105.48 -290.48c6.9,-18.53 22.87,-33.91 48.03,-46.21 22.46,-10.44 44.45,-15.71 65.99,-15.71l469.09 0c16.76,0 31.97,3.76 45.77,11.23 17.95,8.68 26.93,20.61 26.93,35.92z"/>
     <path fill="white" fill-rule="nonzero" d="M4947.76 3478.45l-128.83 352.39c-6.85,18.54 -22.74,33.79 -47.58,45.78 -22.43,10.48 -44.58,15.69 -66.43,15.69l-854.65 0c-17.08,0 -32.51,-3.76 -46.26,-11.23 -17.07,-8.36 -25.61,-20.17 -25.61,-35.46 0,-4.78 0.93,-9.69 2.74,-14.78l127.9 -352.39 266.63 0 -102.33 281.46 119.41 0 102.33 -281.46 266.68 0 -102.38 281.46 119.85 0 101.89 -281.46 266.64 0z"/>
     <path fill="white" fill-rule="nonzero" d="M3844.38 3478.45l-128.82 352.39c-6.86,18.54 -22.74,33.79 -47.59,45.78 -22.42,10.48 -44.57,15.69 -66.43,15.69l-854.64 0c-17.08,0 -32.51,-3.76 -46.26,-11.23 -17.08,-8.36 -25.61,-20.17 -25.61,-35.46 0,-4.78 0.93,-9.69 2.74,-14.78l127.9 -352.39 266.63 0 -102.33 281.46 119.41 0 102.33 -281.46 266.68 0 -102.38 281.46 119.85 0 101.89 -281.46 266.63 0z"/>
     <path fill="white" fill-rule="nonzero" d="M15631.99 3892.3l128.82 -352.38c6.86,-18.54 22.74,-33.8 47.59,-45.79 22.43,-10.48 44.58,-15.69 66.43,-15.69l854.65 0c17.07,0 32.5,3.76 46.26,11.23 17.07,8.36 25.61,20.17 25.61,35.47 0,4.77 -0.93,9.69 -2.75,14.78l-127.89 352.38 -266.64 0 102.34 -281.45 -119.41 0 -102.33 281.45 -266.69 0 102.38 -281.45 -119.84 0 -101.9 281.45 -266.63 0z"/>
    </g>
    <g>
     <path fill="none" fill-rule="nonzero" stroke="black" stroke-width="33.73" stroke-miterlimit="4" d="M6051.13 3478.45l-128.83 352.39c-6.85,18.54 -22.74,33.79 -47.58,45.78 -22.43,10.48 -44.58,15.69 -66.43,15.69l-854.65 0c-17.07,0 -32.51,-3.76 -46.26,-11.23 -17.07,-8.36 -25.61,-20.17 -25.61,-35.46 0,-4.78 0.93,-9.69 2.74,-14.78l127.9 -352.39 266.63 0 -102.33 281.46 119.41 0 102.33 -281.46 266.68 0 -102.38 281.46 119.85 0 101.89 -281.46 266.64 0z"/>
     <polygon fill="none" fill-rule="nonzero" stroke="black" stroke-width="33.73" stroke-miterlimit="4" points="6259.85,3772.92 6215.85,3892.33 6018.34,3892.33 6062.35,3772.92 "/>
     <path fill="none" fill-rule="nonzero" stroke="black" stroke-width="33.73" stroke-miterlimit="4" d="M6715.02 3610.86l-119.41 0 -8.97 26.04 119.41 0 8.97 -26.04zm296.27 -85.27c0,5.09 -18.13,56.88 -54.36,155.33 -6.54,18.26 -22.86,33.52 -48.9,45.77 -22.43,10.48 -44.4,15.69 -65.99,15.69l-294.45 0 -5.39 17.51 394.58 0 -144.54 132.41 -473.11 0c-17.08,0 -32.51,-3.71 -46.26,-11.23 -17.04,-8.35 -25.61,-20.16 -25.61,-35.47 0,-4.77 0.92,-9.69 2.74,-14.76l105.47 -290.48c6.91,-18.53 22.87,-33.91 48.04,-46.21 22.46,-10.44 44.44,-15.71 65.98,-15.71l469.09 0c16.76,0 31.98,3.76 45.77,11.23 17.96,8.68 26.94,20.61 26.94,35.92z"/>
     <polygon fill="none" fill-rule="nonzero" stroke="black" stroke-width="33.73" stroke-miterlimit="4" points="7815.22,3478.45 7523.91,3685.39 7664.4,3892.31 7363.2,3892.31 7320.61,3829.91 7232.56,3892.31 6931.86,3892.31 7222.25,3685.39 7081.74,3478.45 7383.4,3478.45 7425.59,3541.3 7514.04,3478.45 "/>
     <path fill="none" fill-rule="nonzero" stroke="black" stroke-width="33.73" stroke-miterlimit="4" d="M8500.21 3478.45l-144.53 132.41 -298.51 0 -53.38 149.05 394.09 0 -144.1 132.4 -473.55 0c-16.15,0 -31.14,-3.76 -44.9,-11.23 -17.95,-8.36 -26.97,-20.17 -26.97,-35.46 0,-5.36 1.06,-10.31 3.14,-14.78l105.52 -290.47c6.9,-18.53 22.87,-33.92 48.03,-46.22 22.46,-10.48 44.4,-15.7 65.99,-15.7l569.17 0z"/>
     <path fill="none" fill-rule="nonzero" stroke="black" stroke-width="33.73" stroke-miterlimit="4" d="M8866.04 3610.86l-119.41 0 -8.97 26.04 119.41 0 8.97 -26.04zm296.26 -85.27c0,5.09 -18.13,56.88 -54.35,155.33 -6.54,18.26 -22.86,33.52 -48.91,45.77 -22.43,10.48 -44.41,15.69 -65.99,15.69l-294.44 0 -5.4 17.51 394.57 0 -144.53 132.41 -473.12 0c-17.07,0 -32.5,-3.71 -46.25,-11.23 -17.03,-8.35 -25.62,-20.16 -25.62,-35.47 0,-4.77 0.93,-9.69 2.75,-14.76l105.48 -290.48c6.9,-18.53 22.87,-33.91 48.03,-46.21 22.46,-10.44 44.44,-15.71 65.97,-15.71l469.11 0c16.76,0 31.97,3.76 45.77,11.23 17.95,8.68 26.93,20.61 26.93,35.92z"/>
     <polygon fill="none" fill-rule="nonzero" stroke="black" stroke-width="33.73" stroke-miterlimit="4" points="9537.12,3340.64 9336.47,3892.31 9070.72,3892.31 9270.49,3340.64 "/>
     <path fill="none" fill-rule="nonzero" stroke="black" stroke-width="33.73" stroke-miterlimit="4" d="M9913.76 3610.86l-119.41 0 -8.97 26.04 119.4 0 8.98 -26.04zm296.26 -85.27c0,5.09 -18.13,56.88 -54.35,155.33 -6.54,18.26 -22.86,33.52 -48.91,45.77 -22.43,10.48 -44.41,15.69 -65.98,15.69l-294.45 0 -5.41 17.51 394.58 0 -144.53 132.41 -473.12 0c-17.07,0 -32.5,-3.71 -46.26,-11.23 -17.02,-8.35 -25.6,-20.16 -25.6,-35.47 0,-4.77 0.93,-9.69 2.74,-14.76l105.48 -290.48c6.89,-18.53 22.86,-33.91 48.02,-46.21 22.47,-10.44 44.46,-15.71 66,-15.71l469.09 0c16.76,0 31.97,3.76 45.77,11.23 17.95,8.68 26.93,20.61 26.93,35.92z"/>
     <path fill="none" fill-rule="nonzero" stroke="black" stroke-width="33.73" stroke-miterlimit="4" d="M10885.56 3478.45l-144.53 132.41 -229.84 0 -101.9 281.45 -265.74 0 127.49 -351.94c6.86,-18.53 22.87,-33.92 47.99,-46.22 22.47,-10.48 44.49,-15.7 66.03,-15.7l500.5 0z"/>
     <path fill="none" fill-rule="nonzero" stroke="black" stroke-width="33.73" stroke-miterlimit="4" d="M11189.88 3742.39l-119.86 0 -5.36 17.52 119.37 0 5.85 -17.52zm343.84 -216.79c0,5.08 -0.89,10 -2.69,14.77l-128.84 351.94 -560.63 0c-17.08,0 -32.47,-3.76 -46.26,-11.23 -17.04,-8.36 -25.56,-20.17 -25.56,-35.46 0,-5.67 16.76,-54.76 50.28,-147.23 6.86,-18.53 22.9,-33.97 48.03,-46.22 21.57,-10.17 43.51,-15.26 65.97,-15.26l294.51 0 8.92 -26.05 -386.04 0 48.92 -132.41 560.68 0c16.76,0 31.98,3.77 45.82,11.24 17.95,8.67 26.89,20.61 26.89,35.91z"/>
     <path fill="none" fill-rule="nonzero" stroke="black" stroke-width="33.73" stroke-miterlimit="4" d="M12025.25 3473.95l-38.59 106.85 -137.82 0 -64.65 178.19 133.34 0 47.14 133.34 -403.56 0c-17.06,0 -32.49,-3.76 -46.26,-11.24 -16.44,-8.97 -24.67,-21.09 -24.67,-36.35 0,-4.46 0.88,-9.42 2.7,-14.82l89.33 -249.12 -69.12 0 38.61 -106.85 69.07 0 48.52 -133.28 266.63 0 -48.46 133.28 137.79 0z"/>
     <path fill="none" fill-rule="nonzero" stroke="black" stroke-width="33.73" stroke-miterlimit="4" d="M12492.1 3610.86l-119.4 0 -8.98 26.04 119.41 0 8.97 -26.04zm296.27 -85.27c0,5.09 -18.12,56.88 -54.35,155.33 -6.55,18.26 -22.87,33.52 -48.91,45.77 -22.42,10.48 -44.4,15.69 -65.99,15.69l-294.45 0 -5.39 17.51 394.58 0 -144.53 132.41 -473.12 0c-17.07,0 -32.51,-3.71 -46.26,-11.23 -17.04,-8.35 -25.61,-20.16 -25.61,-35.47 0,-4.77 0.93,-9.69 2.74,-14.76l105.49 -290.48c6.89,-18.53 22.85,-33.91 48.02,-46.21 22.47,-10.44 44.44,-15.71 65.98,-15.71l469.09 0c16.76,0 31.98,3.76 45.79,11.23 17.95,8.68 26.92,20.61 26.92,35.92z"/>
     <path fill="none" fill-rule="nonzero" stroke="black" stroke-width="33.73" stroke-miterlimit="4" d="M13463.95 3478.45l-144.53 132.41 -229.84 0 -101.89 281.45 -265.75 0 127.5 -351.94c6.86,-18.53 22.86,-33.92 47.99,-46.22 22.46,-10.48 44.49,-15.7 66.03,-15.7l500.49 0z"/>
     <path fill="none" fill-rule="nonzero" stroke="black" stroke-width="33.73" stroke-miterlimit="4" d="M14112.12 3478.45l-144.54 132.41 -298.51 0 -53.38 149.05 394.09 0 -144.09 132.4 -473.56 0c-16.14,0 -31.14,-3.76 -44.89,-11.23 -17.95,-8.36 -26.98,-20.17 -26.98,-35.46 0,-5.36 1.07,-10.31 3.15,-14.78l105.52 -290.47c6.89,-18.53 22.86,-33.92 48.02,-46.22 22.47,-10.48 44.41,-15.7 65.99,-15.7l569.18 0z"/>
     <polygon fill="none" fill-rule="nonzero" stroke="black" stroke-width="33.73" stroke-miterlimit="4" points="14284.94,3772.92 14240.93,3892.33 14043.42,3892.33 14087.43,3772.92 "/>
     <path fill="none" fill-rule="nonzero" stroke="black" stroke-width="33.73" stroke-miterlimit="4" d="M15036.36 3478.45l-144.53 132.41 -298.52 0 -53.42 149.05 394.13 0 -144.08 132.4 -473.57 0c-16.14,0 -31.13,-3.76 -44.88,-11.23 -17.95,-8.36 -26.98,-20.17 -26.98,-35.46 0,-5.36 1.07,-10.31 3.13,-14.78l105.54 -290.47c6.89,-18.53 22.85,-33.92 48.02,-46.22 22.47,-10.48 44.4,-15.7 65.98,-15.7l569.18 0z"/>
     <path fill="none" fill-rule="nonzero" stroke="black" stroke-width="33.73" stroke-miterlimit="4" d="M15402.18 3610.86l-119.4 0 -53.43 149.03 119.4 0 53.43 -149.03zm296.26 -85.27c0,5.09 -0.93,9.99 -2.69,14.77l-106.85 290.48c-6.54,18.26 -22.6,33.52 -47.99,45.77 -22.46,10.48 -44.49,15.69 -66.03,15.69l-468.6 0c-17.08,0 -32.51,-3.71 -46.26,-11.23 -17.03,-8.35 -25.61,-20.16 -25.61,-35.47 0,-4.77 0.94,-9.69 2.74,-14.76l105.48 -290.48c6.9,-18.53 22.87,-33.91 48.03,-46.21 22.46,-10.44 44.45,-15.71 65.99,-15.71l469.09 0c16.76,0 31.97,3.76 45.77,11.23 17.95,8.68 26.93,20.61 26.93,35.92z"/>
     <path fill="none" fill-rule="nonzero" stroke="black" stroke-width="33.73" stroke-miterlimit="4" d="M4947.76 3478.45l-128.83 352.39c-6.85,18.54 -22.74,33.79 -47.58,45.78 -22.43,10.48 -44.58,15.69 -66.43,15.69l-854.65 0c-17.08,0 -32.51,-3.76 -46.26,-11.23 -17.07,-8.36 -25.61,-20.17 -25.61,-35.46 0,-4.78 0.93,-9.69 2.74,-14.78l127.9 -352.39 266.63 0 -102.33 281.46 119.41 0 102.33 -281.46 266.68 0 -102.38 281.46 119.85 0 101.89 -281.46 266.64 0z"/>
     <path fill="none" fill-rule="nonzero" stroke="black" stroke-width="33.73" stroke-miterlimit="4" d="M3844.38 3478.45l-128.82 352.39c-6.86,18.54 -22.74,33.79 -47.59,45.78 -22.42,10.48 -44.57,15.69 -66.43,15.69l-854.64 0c-17.08,0 -32.51,-3.76 -46.26,-11.23 -17.08,-8.36 -25.61,-20.17 -25.61,-35.46 0,-4.78 0.93,-9.69 2.74,-14.78l127.9 -352.39 266.63 0 -102.33 281.46 119.41 0 102.33 -281.46 266.68 0 -102.38 281.46 119.85 0 101.89 -281.46 266.63 0z"/>
     <path fill="none" fill-rule="nonzero" stroke="black" stroke-width="33.73" stroke-miterlimit="4" d="M15631.99 3892.3l150.92 -413.86 946.57 0c17.07,0 32.5,3.76 46.26,11.23 17.07,8.36 25.61,20.17 25.61,35.47 0,4.77 -0.93,9.69 -2.75,14.78l-127.89 352.38 -266.64 0 102.34 -281.45 -119.41 0 -102.33 281.45 -266.69 0 102.38 -281.45 -119.84 0 -101.9 281.45 -266.63 0z"/>
    </g>
   </g>
   <g>
    <path fill="none" fill-rule="nonzero" stroke="#BF00BF" stroke-width="268.68" stroke-miterlimit="4" d="M19283.12 1908.19c0,14.68 -52.28,164.04 -156.69,448.01 -19.02,52.67 -66.03,96.72 -141.17,132.1 -64.74,30.2 -128.16,45.28 -190.3,45.28l-849.44 0 -15.56 50.51 1138.19 0 -416.96 381.97 -1364.75 0c-49.18,0 -93.67,-10.76 -133.39,-32.34 -49.18,-24.19 -73.76,-58.29 -73.76,-102.33 0,-13.8 2.6,-28.04 7.78,-42.72l304.27 -837.75c19.86,-53.52 66.03,-97.96 138.55,-133.34 64.75,-30.21 128.17,-45.33 190.35,-45.33l1353.07 0c48.34,0 92.39,10.79 132.11,32.37 51.79,25.03 77.7,59.57 77.7,103.57zm-17339.56 1057.87l1063.73 -787.94 -500.21 -803.4 947.27 0 200.04 324.08 437.52 -324.08 923.52 0 -1069.53 796.32 490.76 795.03 -938.8 -0.01 -196.29 -315.28 -423.44 315.28 -934.57 0zm4979.17 -1193.81l-416.95 381.98 -861.05 0 -154.08 429.87 1136.84 0 -415.63 381.96 -1366.02 0c-46.62,0 -89.82,-10.75 -129.5,-32.34 -51.79,-24.19 -77.7,-58.28 -77.7,-102.33 0,-15.52 3.01,-29.76 9.07,-42.72l304.26 -837.75c19.86,-53.51 66.08,-97.96 138.57,-133.34 64.75,-30.2 128.16,-45.33 190.34,-45.33l1641.85 0zm1909.9 135.94c0,14.68 -52.28,164.04 -156.69,448.01 -19.02,52.67 -66.03,96.72 -141.18,132.1 -64.73,30.2 -128.15,45.28 -190.3,45.28l-849.43 0 -15.56 50.51 1138.18 0 -416.95 381.97 -1364.76 0c-49.18,0 -93.67,-10.76 -133.38,-32.34 -49.18,-24.19 -73.77,-58.29 -73.77,-102.33 0,-13.8 2.61,-28.04 7.79,-42.72l304.27 -837.75c19.86,-53.52 66.03,-97.96 138.55,-133.34 64.75,-30.21 128.17,-45.33 190.35,-45.33l1353.07 0c48.34,0 92.39,10.79 132.11,32.37 51.78,25.03 77.7,59.57 77.7,103.57zm1081.17 -533.47l-578.78 1591.35 -766.55 0 576.16 -1591.35 769.17 0zm1940.97 533.47c0,14.68 -52.28,164.04 -156.69,448.01 -19.02,52.67 -66.03,96.72 -141.18,132.1 -64.73,30.2 -128.15,45.28 -190.3,45.28l-849.43 0 -15.57 50.51 1138.18 0 -416.96 381.97 -1364.74 0c-49.18,0 -93.67,-10.76 -133.38,-32.34 -49.18,-24.19 -73.77,-58.29 -73.77,-102.33 0,-13.8 2.61,-28.04 7.78,-42.72l304.28 -837.75c19.86,-53.52 66.03,-97.96 138.55,-133.34 64.75,-30.21 128.17,-45.33 190.35,-45.33l1353.07 0c48.34,0 92.39,10.79 132.11,32.37 51.79,25.03 77.7,59.57 77.7,103.57zm1948.69 -135.94l-416.96 381.98 -662.93 0 -293.92 811.83 -766.55 0 367.73 -1015.14c19.86,-53.51 66.03,-97.96 138.55,-133.34 64.75,-30.2 128.17,-45.33 190.3,-45.33l1443.78 0zm1869.75 135.95c0,2.65 -0.08,5.29 -0.25,7.91l52 -156.81 202.77 0 139.24 -384.58 769.16 0 -139.88 384.58 391.4 0 -115.54 308.17 -387.93 0 -185.6 510.31 377.65 0 138.1 388.29 -1423.52 0 325.34 -898.6 -193.37 0 -328.96 898.6 -1617.23 0c-49.18,0 -93.7,-10.8 -133.38,-32.38 -49.22,-24.15 -73.82,-58.28 -73.82,-102.29 0,-16.41 48.34,-157.98 145.02,-424.69 19.86,-53.5 66.07,-97.96 138.56,-133.37 62.18,-29.33 125.6,-44.02 190.35,-44.02l849.43 0 25.88 -75.09 -1113.6 0 141.21 -381.97 1617.18 0c48.38,0 92.38,10.79 132.09,32.37 51.79,25.03 77.7,59.53 77.7,103.57zm-13276.01 -0.01c0,14.68 -52.28,164.04 -156.69,448.01 -19.02,52.67 -66.03,96.72 -141.17,132.1 -64.74,30.2 -128.16,45.28 -190.3,45.28l-849.44 0 -15.56 50.51 1138.19 0 -416.96 381.97 -1364.75 0c-49.18,0 -93.67,-10.76 -133.39,-32.34 -49.18,-24.19 -73.76,-58.29 -73.76,-102.33 0,-13.8 2.61,-28.04 7.78,-42.72l304.27 -837.75c19.86,-53.52 66.03,-97.96 138.55,-133.34 64.75,-30.21 128.17,-45.33 190.35,-45.33l1353.07 0c48.34,0 92.4,10.79 132.11,32.37 51.79,25.03 77.7,59.57 77.7,103.57z"/>
    <path fill="black" fill-rule="nonzero" d="M6922.73 1772.25l-416.95 381.98 -861.05 0 -154.08 429.87 1136.84 0 -415.63 381.96 -1366.02 0c-46.62,0 -89.82,-10.75 -129.5,-32.34 -51.79,-24.19 -77.7,-58.28 -77.7,-102.33 0,-15.52 3.01,-29.76 9.07,-42.72l304.26 -837.75c19.86,-53.51 66.08,-97.96 138.57,-133.34 64.75,-30.2 128.16,-45.33 190.34,-45.33l1641.85 0zm-1907.3 -397.53l-1069.53 796.32 490.76 795.03 -938.8 -0.01 -196.29 -315.28 -418.3 311.45 -939.71 3.83 1063.73 -787.94 -500.21 -803.4 947.27 0 200.04 324.08 437.52 -324.08 923.52 0zm11820.7 0l-139.88 384.58 391.4 0 -115.54 308.17 -387.93 0 -185.6 510.31 377.65 0 138.1 388.29 -1423.52 0 325.34 -898.6 -193.37 0 -328.96 898.6 -1617.23 0c-49.18,0 -93.7,-10.8 -133.38,-32.38 -49.22,-24.15 -73.82,-58.28 -73.82,-102.29 0,-16.41 48.34,-157.98 145.02,-424.69 19.86,-53.5 66.07,-97.96 138.56,-133.37 62.18,-29.33 125.6,-44.02 190.35,-44.02l849.43 0 25.88 -75.09 -1113.6 0 141.21 -381.97 1617.18 0c48.38,0 92.38,10.79 132.09,32.37 51.79,25.03 77.7,59.53 77.7,103.57 0,2.65 -0.08,5.29 -0.25,7.91l52 -156.81 202.77 0 139.24 -384.58 769.16 0zm1592.38 779.5l-344.43 0 -25.91 75.09 344.42 0 25.92 -75.09zm854.61 -246.03c0,14.68 -52.28,164.04 -156.69,448.01 -19.02,52.67 -66.03,96.72 -141.17,132.1 -64.74,30.2 -128.16,45.28 -190.3,45.28l-849.44 0 -15.56 50.51 1138.19 0 -416.96 381.97 -1364.75 0c-49.18,0 -93.67,-10.76 -133.39,-32.34 -49.18,-24.19 -73.76,-58.29 -73.76,-102.33 0,-13.8 2.6,-28.04 7.78,-42.72l304.27 -837.75c19.86,-53.52 66.03,-97.96 138.55,-133.34 64.75,-30.21 128.17,-45.33 190.35,-45.33l1353.07 0c48.34,0 92.39,10.79 132.11,32.37 51.79,25.03 77.7,59.57 77.7,103.57zm-17740.53 246.03l-344.42 0 -25.92 75.09 344.43 0 25.91 -75.09zm854.61 -246.03c0,14.68 -52.28,164.04 -156.69,448.01 -19.02,52.67 -66.03,96.72 -141.17,132.1 -64.74,30.2 -128.16,45.28 -190.3,45.28l-849.44 0 -15.56 50.51 1138.19 0 -416.96 381.97 -1364.75 0c-49.18,0 -93.67,-10.76 -133.39,-32.34 -49.18,-24.19 -73.76,-58.29 -73.76,-102.33 0,-13.8 2.61,-28.04 7.78,-42.72l304.27 -837.75c19.86,-53.52 66.03,-97.96 138.55,-133.34 64.75,-30.21 128.17,-45.33 190.35,-45.33l1353.07 0c48.34,0 92.4,10.79 132.11,32.37 51.79,25.03 77.7,59.57 77.7,103.57zm12284.19 625.41l-345.75 0 -15.52 50.5 344.42 0 16.85 -50.5zm-877.93 -761.35l-416.96 381.98 -662.93 0 -293.92 811.83 -766.55 0 367.73 -1015.14c19.86,-53.51 66.03,-97.96 138.55,-133.34 64.75,-30.2 128.17,-45.33 190.3,-45.33l1443.78 0zm-2803.31 381.97l-344.42 0 -25.92 75.09 344.43 0 25.91 -75.09zm854.62 -246.03c0,14.68 -52.28,164.04 -156.69,448.01 -19.02,52.67 -66.03,96.72 -141.18,132.1 -64.73,30.2 -128.15,45.28 -190.3,45.28l-849.43 0 -15.57 50.51 1138.18 0 -416.96 381.97 -1364.74 0c-49.18,0 -93.67,-10.76 -133.38,-32.34 -49.18,-24.19 -73.77,-58.29 -73.77,-102.33 0,-13.8 2.61,-28.04 7.78,-42.72l304.28 -837.75c19.86,-53.52 66.03,-97.96 138.55,-133.34 64.75,-30.21 128.17,-45.33 190.35,-45.33l1353.07 0c48.34,0 92.39,10.79 132.11,32.37 51.79,25.03 77.7,59.57 77.7,103.57zm-1940.97 -533.47l-578.78 1591.35 -766.55 0 576.16 -1591.35 769.17 0zm-1935.79 779.5l-344.42 0 -25.91 75.09 344.42 0 25.91 -75.09zm854.62 -246.03c0,14.68 -52.28,164.04 -156.69,448.01 -19.02,52.67 -66.03,96.72 -141.18,132.1 -64.73,30.2 -128.15,45.28 -190.3,45.28l-849.43 0 -15.56 50.51 1138.18 0 -416.95 381.97 -1364.76 0c-49.18,0 -93.67,-10.76 -133.38,-32.34 -49.18,-24.19 -73.77,-58.29 -73.77,-102.33 0,-13.8 2.61,-28.04 7.79,-42.72l304.27 -837.75c19.86,-53.52 66.03,-97.96 138.55,-133.34 64.75,-30.21 128.17,-45.33 190.35,-45.33l1353.07 0c48.34,0 92.39,10.79 132.11,32.37 51.78,25.03 77.7,59.57 77.7,103.57z"/>
    <g>
     <path fill="none" fill-rule="nonzero" stroke="white" stroke-width="53.73" stroke-miterlimit="4" d="M1542.59 2154.21l-344.43 0 -25.91 75.09 344.42 0 25.92 -75.09zm854.6 -246.02c0,14.68 -52.27,164.04 -156.69,448.01 -19.01,52.66 -66.02,96.71 -141.17,132.09 -64.73,30.2 -128.16,45.28 -190.3,45.28l-849.43 0 -15.56 50.51 1138.18 0 -416.95 381.98 -1364.75 0c-49.18,0 -93.67,-10.76 -133.39,-32.33 -49.18,-24.2 -73.76,-58.29 -73.76,-102.33 0,-13.81 2.61,-28.05 7.79,-42.73l304.26 -837.76c19.86,-53.52 66.03,-97.96 138.55,-133.33 64.75,-30.22 128.17,-45.33 190.35,-45.33l1353.07 0c48.34,0 92.39,10.79 132.1,32.36 51.79,25.04 77.7,59.58 77.7,103.58z"/>
     <polygon fill="none" fill-rule="nonzero" stroke="white" stroke-width="53.73" stroke-miterlimit="4" points="5015.43,1374.72 3945.9,2171.04 4436.66,2966.07 3497.86,2966.06 3301.57,2650.78 2878.13,2966.06 1943.56,2966.06 3007.29,2178.12 2507.08,1374.72 3454.35,1374.72 3654.39,1698.8 4091.91,1374.72 "/>
     <path fill="none" fill-rule="nonzero" stroke="white" stroke-width="53.73" stroke-miterlimit="4" d="M6922.73 1772.25l-416.95 381.97 -861.05 0 -154.09 429.87 1136.85 0 -415.62 381.97 -1366.03 0c-46.62,0 -89.82,-10.74 -129.5,-32.33 -51.79,-24.2 -77.7,-58.28 -77.7,-102.33 0,-15.52 3.01,-29.77 9.06,-42.73l304.27 -837.76c19.86,-53.5 66.08,-97.96 138.57,-133.33 64.75,-30.2 128.15,-45.33 190.33,-45.33l1641.86 0z"/>
     <path fill="none" fill-rule="nonzero" stroke="white" stroke-width="53.73" stroke-miterlimit="4" d="M7978.01 2154.21l-344.42 0 -25.91 75.09 344.42 0 25.91 -75.09zm854.61 -246.02c0,14.68 -52.28,164.04 -156.69,448.01 -19.02,52.66 -66.03,96.71 -141.17,132.09 -64.74,30.2 -128.16,45.28 -190.3,45.28l-849.43 0 -15.56 50.51 1138.18 0 -416.96 381.98 -1364.74 0c-49.18,0 -93.67,-10.76 -133.39,-32.33 -49.18,-24.2 -73.76,-58.29 -73.76,-102.33 0,-13.81 2.6,-28.05 7.78,-42.73l304.27 -837.76c19.86,-53.52 66.03,-97.96 138.55,-133.33 64.75,-30.22 128.17,-45.33 190.35,-45.33l1353.06 0c48.34,0 92.4,10.79 132.11,32.36 51.79,25.04 77.7,59.58 77.7,103.58z"/>
     <polygon fill="none" fill-rule="nonzero" stroke="white" stroke-width="53.73" stroke-miterlimit="4" points="9913.8,1374.72 9335.02,2966.07 8568.47,2966.07 9144.64,1374.72 "/>
     <path fill="none" fill-rule="nonzero" stroke="white" stroke-width="53.73" stroke-miterlimit="4" d="M11000.15 2154.21l-344.42 0 -25.92 75.09 344.43 0 25.91 -75.09zm854.61 -246.02c0,14.68 -52.27,164.04 -156.69,448.01 -19.02,52.66 -66.03,96.71 -141.17,132.09 -64.74,30.2 -128.16,45.28 -190.3,45.28l-849.43 0 -15.57 50.51 1138.18 0 -416.96 381.98 -1364.73 0c-49.18,0 -93.67,-10.76 -133.39,-32.33 -49.18,-24.2 -73.76,-58.29 -73.76,-102.33 0,-13.81 2.61,-28.05 7.77,-42.73l304.28 -837.76c19.86,-53.52 66.03,-97.96 138.55,-133.33 64.75,-30.22 128.17,-45.33 190.35,-45.33l1353.06 0c48.34,0 92.4,10.79 132.11,32.36 51.79,25.04 77.7,59.58 77.7,103.58z"/>
     <path fill="none" fill-rule="nonzero" stroke="white" stroke-width="53.73" stroke-miterlimit="4" d="M13803.46 1772.25l-416.96 381.97 -662.93 0 -293.92 811.84 -766.56 0 367.74 -1015.15c19.86,-53.5 66.03,-97.96 138.55,-133.33 64.75,-30.2 128.17,-45.33 190.3,-45.33l1443.78 0z"/>
     <path fill="none" fill-rule="nonzero" stroke="white" stroke-width="53.73" stroke-miterlimit="4" d="M14681.39 2533.6l-345.75 0 -15.52 50.49 344.42 0 16.85 -50.49zm991.83 -625.4c0,14.68 -2.61,28.92 -7.77,42.72l-371.63 1015.15 -1617.23 0c-49.18,0 -93.71,-10.79 -133.38,-32.38 -49.22,-24.14 -73.82,-58.28 -73.82,-102.28 0,-16.41 48.34,-157.98 145.02,-424.7 19.86,-53.51 66.07,-97.96 138.55,-133.38 62.18,-29.32 125.6,-44.01 190.35,-44.01l849.44 0 25.87 -75.1 -1113.59 0 141.2 -381.96 1617.19 0c48.38,0 92.38,10.79 132.1,32.37 51.79,25.03 77.7,59.53 77.7,103.57z"/>
     <polygon fill="none" fill-rule="nonzero" stroke="white" stroke-width="53.73" stroke-miterlimit="4" points="16836.13,1374.72 16696.26,1759.3 17087.65,1759.3 16972.12,2067.46 16584.18,2067.46 16398.58,2577.77 16776.24,2577.77 16914.34,2966.07 15490.81,2966.07 15816.16,2067.46 15622.76,2067.46 15724.96,1759.3 15927.73,1759.3 16066.97,1374.72 "/>
     <path fill="none" fill-rule="nonzero" stroke="white" stroke-width="53.73" stroke-miterlimit="4" d="M18428.5 2154.21l-344.42 0 -25.91 75.09 344.42 0 25.91 -75.09zm854.61 -246.02c0,14.68 -52.27,164.04 -156.69,448.01 -19.01,52.66 -66.03,96.71 -141.17,132.09 -64.73,30.2 -128.16,45.28 -190.3,45.28l-849.43 0 -15.56 50.51 1138.18 0 -416.95 381.98 -1364.75 0c-49.18,0 -93.67,-10.76 -133.39,-32.33 -49.18,-24.2 -73.76,-58.29 -73.76,-102.33 0,-13.81 2.61,-28.05 7.78,-42.73l304.27 -837.76c19.86,-53.52 66.03,-97.96 138.55,-133.33 64.75,-30.22 128.17,-45.33 190.35,-45.33l1353.07 0c48.34,0 92.39,10.79 132.1,32.36 51.79,25.04 77.7,59.58 77.7,103.58z"/>
    </g>
   </g>
  </g>
 </g>
</svg>
