<?xml version="1.0" encoding="UTF-8"?>
<!DOCTYPE svg PUBLIC "-//W3C//DTD SVG 1.0//EN" "http://www.w3.org/TR/2001/REC-SVG-20010904/DTD/svg10.dtd">
<!-- Creator: CorelDRAW -->
<svg xmlns="http://www.w3.org/2000/svg" xml:space="preserve" width="100%" height="100%" version="1.0" shape-rendering="geometricPrecision" text-rendering="geometricPrecision" image-rendering="optimizeQuality" fill-rule="evenodd" clip-rule="evenodd"
viewBox="0 0 19476.72 5267.96"
 xmlns:xlink="http://www.w3.org/1999/xlink"
 xmlns:xodm="http://www.corel.com/coreldraw/odm/2003">
 <g id="Layer_x0020_1">
  <metadata id="CorelCorpID_0Corel-Layer"/>
  <rect fill="white" x="0.11" y="0.45" width="19476.5" height="5267.06"/>
  <path fill="black" d="M2887.72 3345.18l-638.13 -638.1 1902.61 0 0 1902.59 -558.05 -558.04c-351.68,294.49 -795.95,459.68 -1261.59,459.68 -1094.66,0 -1985.73,-814.56 -1985.73,-1927.18 0,-1106.41 843,-1927.21 1943.52,-1927.21 1070.73,0 1639.24,666.83 1859.26,1475.78l-1032.44 0c-162.21,-289.43 -379.08,-503.5 -808.04,-503.5 -553.81,0 -971.25,396.24 -971.25,954.93 0,564.21 447.81,936.13 994.68,936.13 199.42,0 393.25,-63.25 555.16,-175.08zm375.75 -1482.75c-198.99,-304.7 -497.73,-503.51 -954.34,-503.51 -702.71,0 -1241.54,516.89 -1241.54,1225.21 0,713.88 568.46,1206.42 1264.97,1206.42 368.18,0 713.67,-166.78 946.59,-436.18l-377.02 -377.01 979.78 0 0 979.78 -284.08 -284.09c-308.69,344.19 -759.45,567.98 -1265.27,567.98 -940.69,0 -1715.45,-689.28 -1715.45,-1656.9 0,-967.65 732.56,-1656.92 1673.24,-1656.92 702.05,0 1288.86,387.45 1479.2,935.22l-506.08 0z"/>
  <path fill="black" fill-rule="nonzero" d="M6322.19 3072.68c0,117.17 -58.2,204.31 -174.66,261.43 -89.74,44.56 -200.05,66.93 -330.59,66.93l-533.57 0c-140.66,0 -258.21,-20.23 -352.58,-60.33 -131.33,-55.42 -197.19,-143.29 -197.19,-264.1l0 -646.65c0,-114.32 67.99,-200.39 203.69,-257.61 99.46,-41.51 215.54,-62.55 348.33,-62.55l211.88 0c57.24,0 86.1,31.45 86.1,94.82 0,63.97 -28.86,96.13 -86.1,96.13 -4.29,0 -23.88,-0.36 -58.21,-1.06 -34.69,-0.71 -65.11,-1.07 -91.45,-1.07 -253.27,0 -379.8,43.75 -379.8,131.7l0 645.93c0,87.94 105.95,131.69 318.28,131.69l531 0c49.53,0 102.64,-9.45 159.13,-28.6 74.16,-24.96 111.37,-57.48 111.37,-97.66l0 -182.58 -123.42 0c-42.46,0 -69.12,-16.21 -78.49,-48.47 -3.21,-10.96 -4.34,-45.98 -4.34,-103.46 0,-54.96 27.52,-82.51 82.83,-82.51l237.48 0 37.91 -0.36c54.93,0 82.4,27.46 82.4,82.79l0 325.59zm11209.87 -480.37c0,116.46 -61.95,201.47 -185.9,255.38 -90.92,39.38 -202.99,59.34 -336.8,59.34l-388.89 0 788.17 334.15c41.66,17.73 62.6,44.91 62.6,81.44 0,50.26 -31.43,76.27 -94.35,78.42 -71.32,2.22 -115.07,-0.36 -131.34,-7.57l-1074.27 -459 0 382.72c0,56.04 -27.47,83.85 -82.4,83.85 -57.56,0 -91.89,-1.78 -102.38,-5.35 -32.93,-9.81 -49.64,-35.82 -49.64,-78.5l0 -1124.52c0,-55.33 27.63,-82.87 83,-82.87l947.25 0c146.39,0 267.24,19.16 362.34,57.2 134.93,55.34 202.61,144.99 202.61,269.46l0 155.85zm-234.41 1.78l0 -163.77c0,-86.52 -110.36,-129.57 -331.34,-129.57l-795.03 0 0 414.53 837.81 0c192.28,0 288.56,-40.46 288.56,-121.19zm1856.92 -376.47c0,55.33 -27.47,83.13 -82.83,83.13l-838.73 0c-203.68,0 -305.25,40.9 -305.25,122.26l0 640.58c0,96.25 112.76,144.35 338.02,144.35l800.87 0c57.13,0 85.73,31.82 85.73,95.89 0,64.67 -28.6,97.21 -85.73,97.21l-800.01 0c-108.27,0 -185.91,-4.28 -233.35,-12.66 -50.6,-8.64 -104.84,-27.8 -162.13,-58.19 -62.86,-32.61 -107.68,-67.99 -134.5,-106.03 -28.81,-40.46 -43.32,-92.58 -43.32,-156.92l0 -642.36c0,-80.64 37.59,-150.14 112.5,-207.97 63.29,-48.12 138.46,-79.94 225.69,-95.52 45.94,-7.57 111.8,-11.59 197.79,-11.59l842.79 0c34.32,0 57.83,10.17 69.72,30.74 8.35,13.72 12.74,39.48 12.74,77.08zm-4077.04 34.76l-637.02 609.04 0 455.77c0,42.68 -16.12,68.69 -48.78,78.5 -10.39,3.57 -44.44,5.35 -101.58,5.35 -56.16,0 -83.9,-27.45 -83.9,-82.78l0 -456.84 -636.59 -609.04c-24.31,-24.25 -36.2,-48.48 -36.2,-72.36 0,-46.7 31.43,-70.22 94.03,-70.22 70.14,0 113.62,8.38 129.84,24.59l566.08 541.85 566.82 -542.21c16.12,-16.29 59.59,-24.23 130.11,-24.23 63.29,0 95.15,23.17 95.15,69.07 0,25.03 -12.58,49.26 -37.96,73.51zm-1635.79 -34.76c0,55.33 -27.63,83.13 -82.56,83.13l-522.97 0 0 1016.44c0,56.04 -27.21,83.85 -81.82,83.85 -57.83,0 -92.58,-1.78 -103.72,-5.35 -32.6,-9.81 -48.83,-35.82 -48.83,-78.5l0 -1016.44 -517.61 0c-55.69,0 -83.59,-27.8 -83.59,-83.13 0,-37.6 4.39,-63.36 12.64,-78.15 11.94,-19.87 35.82,-29.67 70.95,-29.67l1274.95 0c34.75,0 57.93,9.8 69.82,29.67 8.62,14.79 12.74,40.55 12.74,78.15zm-1575.28 1099.57c0,56.04 -27.52,83.85 -82.51,83.85 -57.51,0 -92.26,-1.78 -103.45,-5.35 -32.18,-9.81 -48.51,-35.82 -48.51,-78.5l0 -1124.52c0,-42.69 16.33,-68.7 48.51,-78.5 11.19,-2.95 45.94,-4.37 103.45,-4.37 54.99,0 82.51,27.54 82.51,82.87l0 1124.52zm-428.62 -1077.92l-762.8 1085.14c-37.64,50.96 -84.33,76.63 -141.09,76.63 -57.94,0 -104.89,-25.67 -140.66,-76.98l-765.37 -1084.43c-16.27,-24.24 -24.25,-45.18 -24.25,-63.26 0,-45.89 38.71,-68.7 115.76,-68.7 59.27,0 98.04,12.3 115.39,37.24l700.2 997.89 695.92 -997.17c17.4,-25.32 55.69,-37.96 115.07,-37.96 77.69,0 116.46,22.81 116.46,68.7 0,18.79 -8.41,39.83 -24.63,62.9zm-1342.74 1041.74c2.84,10.87 4.39,21.3 4.39,31.81 0,33.24 -11.24,60.41 -33.68,82.07 -22.49,21.37 -49.21,32.26 -79.94,32.26 -44.12,0 -80.64,-21.4 -109.61,-64.42l-207.96 -302.35 -993.52 0 -209.15 303.41c-22.38,33.32 -46.96,49.89 -73.09,49.89 -14.78,0 -31.8,-4.26 -50.97,-13 -43,-18.81 -64.68,-44.82 -64.68,-77.35 0,-6.86 2.14,-14.16 6.53,-21.02l743.57 -1137.89c28.27,-43.03 76.36,-66.2 144.36,-69.77 55.69,-2.93 96.59,12.66 122.99,46.6 2.46,5.8 6.85,13.47 12.64,23.17l788.12 1116.59zm-567.52 -415.95l-355.86 -526.25 -359.92 526.25 715.78 0zm-1405.38 -269.9c0,116.47 -61.85,201.46 -185.86,255.39 -90.81,39.38 -202.88,59.33 -336.74,59.33l-388.84 0 788.12 334.15c41.61,17.74 62.54,44.91 62.54,81.44 0,50.25 -31.43,76.28 -94.34,78.41 -71.27,2.24 -115.02,-0.35 -131.35,-7.57l-1074.15 -458.98 0 382.71c0,56.05 -27.53,83.84 -82.52,83.84 -57.45,0 -91.88,-1.78 -102.37,-5.34 -32.88,-9.8 -49.59,-35.81 -49.59,-78.5l0 -1124.52c0,-55.34 27.58,-82.86 82.89,-82.86l947.31 0c146.5,0 267.3,19.14 362.39,57.2 134.88,55.33 202.51,144.97 202.51,269.46l0 155.84zm-234.31 1.78l0 -163.77c0,-86.52 -110.36,-129.56 -331.34,-129.56l-794.97 0 0 414.51 837.65 0c192.38,0 288.66,-40.45 288.66,-121.18z"/>
 </g>
</svg>
