<?xml version="1.0" encoding="UTF-8"?>
<!DOCTYPE svg PUBLIC "-//W3C//DTD SVG 1.0//EN" "http://www.w3.org/TR/2001/REC-SVG-20010904/DTD/svg10.dtd">
<!-- Creator: CorelDRAW -->
<svg xmlns="http://www.w3.org/2000/svg" xml:space="preserve" width="100%" height="100%" version="1.0" shape-rendering="geometricPrecision" text-rendering="geometricPrecision" image-rendering="optimizeQuality" fill-rule="evenodd" clip-rule="evenodd"
viewBox="0 0 13844.18 10706.44"
 xmlns:xlink="http://www.w3.org/1999/xlink"
 xmlns:xodm="http://www.corel.com/coreldraw/odm/2003">
 <g id="Layer_x0020_1">
  <metadata id="CorelCorpID_0Corel-Layer"/>
  <g id="_2143349625408">
   <polygon fill="#1E1A16" fill-rule="nonzero" points="8828.27,7809.34 4571.38,7809.34 5034.86,5244.79 9277.44,5244.79 "/>
   <g>
    <polygon fill="#FEFEFE" points="12924.12,5885.91 13036.42,5244.78 12314.71,5244.78 12202.41,5885.91 "/>
    <polygon fill="#FEFEFE" points="13533.54,6527.05 13645.84,5885.92 12924.12,5885.92 12811.83,6527.05 "/>
    <polygon fill="#FEFEFE" points="12699.54,7168.19 12811.84,6527.06 12090.13,6527.06 11977.82,7168.19 "/>
    <polygon fill="#FEFEFE" points="13308.96,7809.34 13421.26,7168.2 12699.54,7168.2 12587.24,7809.34 "/>
    <polygon fill="#FEFEFE" points="11480.71,5885.91 11593,5244.78 10871.29,5244.78 10758.99,5885.91 "/>
    <polygon fill="#FEFEFE" points="12090.13,6527.05 12202.42,5885.92 11480.71,5885.92 11368.41,6527.05 "/>
    <polygon fill="#FEFEFE" points="11256.12,7168.19 11368.42,6527.06 10646.7,6527.06 10534.4,7168.19 "/>
    <polygon fill="#FEFEFE" points="11865.54,7809.34 11977.84,7168.2 11256.12,7168.2 11143.82,7809.34 "/>
    <polygon fill="#FEFEFE" points="10037.28,5885.91 10149.58,5244.77 9427.86,5244.77 9315.57,5885.91 "/>
    <polygon fill="#FEFEFE" points="10646.7,6527.05 10759,5885.92 10037.28,5885.92 9924.98,6527.05 "/>
    <polygon fill="#FEFEFE" points="9812.69,7168.19 9925,6527.06 9203.28,6527.06 9090.98,7168.19 "/>
    <polygon fill="#FEFEFE" points="10422.11,7809.34 10534.41,7168.2 9812.69,7168.2 9700.4,7809.34 "/>
   </g>
   <path fill="#FEFEFE" fill-rule="nonzero" d="M3959.65 5442.29l-462.84 624.46c-51.96,67.87 -121.98,61.58 -186.27,23.68l-230.68 -125.54 15.49 959.18c8.02,175.25 -119.37,175.25 -168.56,99.47l-356.61 -473.58 -115.25 240.49c-13.97,31.59 -56.36,64.76 -109.54,56.85l-538.81 -112.47 54.56 510.8c10.88,113.68 26.9,160.73 -66.2,190.7l-215.5 89.6 313.52 283.43 2492.48 0 156.62 -894.38 -120.92 108.56c-76.59,75.78 -204,75.78 -132.61,-99.47l362.16 -959.18 -276.04 125.54c-78.01,37.9 -150.29,44.19 -177.74,-23.68l-237.26 -624.46z"/>
   <polygon fill="#FEFEFE" fill-rule="nonzero" points="91.49,7809.36 1086.23,7809.36 1549.71,5244.77 540.68,5244.77 "/>
   <polygon fill="#1E1A16" points="-0,8267.24 13234.6,8267.24 13277.8,8020.63 43.2,8020.63 "/>
   <path fill="#FEFEFE" fill-rule="nonzero" d="M7988.31 7434.72l454.49 0 190.72 -202.58 107.73 -599.86 -145.45 -160.47 -375.32 -81.56 -71.54 -78.92 75.64 -431.47 111.47 -121.02 274.68 0 100.09 113.13 -40.29 218.35 162.85 0 48.55 -273.61 -176.4 -197.31 -439.94 0 -190.72 202.58 -99.59 552.49 145.44 160.48 375.3 81.55 73.93 81.57 -88.57 476.19 -111.42 118.38 -289.26 0 -95.33 -107.85 40.39 -223.64 -160.4 0 -51.14 281.5 174.09 192.07zm22.09 -1662.73l26.98 -152.59 -877.44 0 -29.42 152.59 359.75 0 -298.93 1662.73 162.85 0 298.93 -1662.73 357.28 0zm-1299.37 -39.47l11.21 1023.43 -388.88 0 377.67 -1023.43zm-788.19 1702.2l162.85 0 194.05 -531.45 444.77 0 7.7 531.45 157.99 0 -38.67 -1815.32 -243.06 0 -685.63 1815.32zm-979.26 0l145.85 0 263.82 -1462.77 292.77 1462.77 138.54 0 328.34 -1815.32 -145.83 0 -263.56 1446.99 -293.05 -1446.99 -138.53 0 -328.35 1815.32z"/>
   <polygon fill="#1E1A16" points="566.38,5033.5 13800.98,5033.5 13844.18,4786.87 609.57,4786.87 "/>
   <path fill="#1E1A16" d="M3693.3 3682.27c-7.09,25.64 -14.24,50.82 -21.6,75.22 -73.95,244.67 -187.27,555.79 -454.55,643.59 -212.23,69.7 -464.13,41.75 -681.41,11.83 -174.4,-24.01 -348.53,-54.55 -521.93,-84.9 -136.96,-23.97 -273.88,-48.19 -410.81,-72.25 45.19,139 90.55,278.01 135.48,417.14l-210.2 0c-66.85,-206.62 -139.84,-430.95 -216.52,-670.04 1154.89,197.83 1567.15,299.53 1843.21,208.87 279.85,-91.93 344.66,-673.05 460.03,-946.2 449.65,557.24 849.47,1069.83 1148.45,1407.37l-264.09 0c-275.97,-321.82 -540.94,-657.67 -806.06,-990.63zm242.51 4727.28c155.72,133.35 336.35,308.3 375.73,455.24 64.83,241.96 -59.06,604.54 -191.08,905.25l2756.58 -411.34 -22.89 1148.45 135.9 0 -22.89 -1148.45 2756.56 411.34c-132,-300.71 -255.89,-663.29 -191.05,-905.26 41.37,-154.39 238.68,-339.7 399.19,-475.19l316.37 -1.06c-290.02,231.63 -494.02,419.46 -523.06,527.84 -55.51,207.18 83.31,589.52 338.34,1105.88l-2892.4 -431.61 22.23 1115.8 -271.25 0 -271.25 0 22.24 -1115.8 -2892.41 431.61c255.05,-516.36 393.87,-898.7 338.35,-1105.88 -28.11,-104.92 -220.19,-284.29 -495.54,-505.78l312.33 -1.04zm8169.9 -3736.65c44.93,-139.13 90.29,-278.14 135.49,-417.14 -136.95,24.06 -273.85,48.28 -410.83,72.25 -173.39,30.35 -347.53,60.89 -521.92,84.9 -217.29,29.92 -469.19,57.87 -681.41,-11.83 -267.28,-87.8 -380.61,-398.93 -454.53,-643.6 -7.37,-24.39 -14.54,-49.58 -21.63,-75.22 -265.1,332.97 -530.06,668.82 -806.04,990.64l-264.1 0c298.97,-337.54 698.8,-850.13 1148.44,-1407.37 115.37,273.15 180.18,854.27 460.05,946.2 276.04,90.66 688.3,-11.04 1843.19,-208.87 -76.68,239.09 -149.66,463.42 -216.51,670.04l-210.2 0zm-3764.68 0c9.89,-89.73 23.15,-180.13 38.08,-270.07l202.67 0c-16.66,99.11 -30.19,189.68 -39.86,270.07l-200.89 0zm421.42 -2130.95c12.82,-59.69 25.55,-119.39 38.15,-179.08 25.89,-122.55 51.44,-245.19 76.39,-367.95 -138.27,82.91 -279.18,161.22 -418.31,224.43 -175.19,79.6 -390.03,151.25 -572.82,52.05 -208.34,-113.07 -411.49,-540.55 -511.83,-747.9 -159.98,-330.62 -307.63,-671 -451.94,-1011.26 -144.31,340.26 -291.95,680.64 -451.94,1011.26 -100.32,207.35 -303.47,634.83 -511.82,747.9 -182.79,99.2 -397.64,27.55 -572.82,-52.04 -139.12,-63.22 -280.03,-141.53 -418.3,-224.44 24.93,122.76 50.5,245.38 76.37,367.95 13.11,62.08 26.36,124.18 39.71,186.28l-167.92 167.91c-81.62,-379.46 -163.38,-768.04 -232.08,-1135.15 688.66,438.25 1010.47,606.34 1179.98,514.33 216.03,-117.24 571,-942.82 1058.82,-2096.24 487.82,1153.42 842.8,1979 1058.84,2096.24 169.5,92.01 491.32,-76.08 1179.98,-514.33 -58.18,310.8 -125.7,637.02 -194.57,960.04l-203.89 0zm-3460.18 2130.95c-9.68,-80.39 -23.2,-170.95 -39.87,-270.07l202.69 0c14.93,89.94 28.18,180.34 38.08,270.07l-200.9 0z"/>
   <path fill="#FEFEFE" fill-rule="nonzero" d="M4863.05 8878.44l151.86 0 85.87 -489.66 -151.16 0 -86.57 489.66zm-444.24 0l133.41 0 49.68 -281.73 2.13 -207.93 -97.94 0 -87.28 489.66zm197.28 0l107.16 0 29.09 -489.66 -133.41 0 -2.84 489.66zm122.06 0l59.61 0 99.35 -276.05 37.61 -213.61 -86.58 0 -100.77 326.44 -9.22 163.22z"/>
   <path id="_1" fill="#FEFEFE" fill-rule="nonzero" d="M5253.35 8799.67l118.51 0 3.55 78.77 161.8 0 -44 -489.66 -139.09 0 12.78 292.38 -65.29 0 -48.26 118.51zm-204.38 78.77l158.97 0 135.54 -340.63 -3.55 -149.03 -78.06 0 -212.9 489.66z"/>
   <path id="_2" fill="#FEFEFE" fill-rule="nonzero" d="M5881.39 8878.44l140.51 0 20.58 -114.25 -39.03 0 -22 -81.61 73.1 -73.1 26.25 -149.02 -71.67 -71.68 -179.54 0 -19.16 107.16 105.74 0 -17.75 99.35 -105.02 0 -20.58 115.67 68.12 0 40.45 167.48zm-311.53 0l158.96 0 85.87 -489.66 -158.26 0 -86.57 489.66z"/>
   <path id="_3" fill="#FEFEFE" fill-rule="nonzero" d="M6151.06 8878.44l123.48 0 20.58 -117.09 -51.81 0 45.42 -255.48 51.8 0 20.58 -117.09 -150.44 0 -73.1 73.1 -60.32 343.47 73.81 73.09zm138.38 0l149.74 0 73.09 -73.09 22 -120.64 -158.96 0 -13.49 76.64 -51.8 0 -20.58 117.09zm103.61 -297.34l159.67 0 19.87 -119.22 -73.09 -73.1 -123.48 0 -20.58 117.09 51.8 0 -14.19 75.23z"/>
   <path id="_4" fill="#FEFEFE" fill-rule="nonzero" d="M6556.27 8878.44l158.96 0 85.87 -489.66 -158.26 0 -86.57 489.66zm202.96 -167.48l91.54 0 24.84 -139.09 -91.55 0 -24.83 139.09zm77.35 167.48l158.25 0 86.58 -489.66 -158.25 0 -86.58 489.66z"/>
   <path id="_5" fill="#FEFEFE" fill-rule="nonzero" d="M7239.66 8878.44l158.96 0 29.1 -166.06 204.38 0 63.16 -63.16 33.35 -188.76 -71.68 -71.68 -117.8 0 -19.16 112.13 43.29 0 -15.61 87.99 -205.09 0 -63.16 63.16 -39.74 226.38zm53.93 -326.44l158.26 0 9.22 -51.09 44 0 19.16 -112.13 -144.77 0 -69.54 69.55 -16.33 93.67zm119.93 326.44l241.29 0 21.29 -117.8 -242 0 -20.58 117.8z"/>
   <path id="_6" fill="#FEFEFE" fill-rule="nonzero" d="M7796.03 8878.44l127.02 0 20.58 -117.09 -55.35 0 45.42 -255.48 54.64 0 21.29 -117.09 -153.99 0 -73.1 73.1 -60.32 343.47 73.81 73.09zm141.22 0l152.57 0 73.81 -73.09 60.32 -343.47 -73.81 -73.1 -126.32 0 -20.57 117.09 54.64 0 -45.42 255.48 -54.64 0 -20.58 117.09z"/>
   <polygon id="_7" fill="#FEFEFE" fill-rule="nonzero" points="8226.08,8691.09 8429.75,8691.09 8451.04,8570.45 8247.37,8570.45 "/>
   <path id="_8" fill="#FEFEFE" fill-rule="nonzero" d="M8436.14 8878.44l158.96 0 29.1 -166.06 204.38 0 63.16 -63.16 33.35 -188.76 -71.68 -71.68 -117.8 0 -19.16 112.13 43.29 0 -15.61 87.99 -205.09 0 -63.16 63.16 -39.74 226.38zm53.93 -326.44l158.26 0 9.22 -51.09 44 0 19.16 -112.13 -144.77 0 -69.54 69.55 -16.33 93.67zm119.93 326.44l241.29 0 21.29 -117.8 -242 0 -20.58 117.8z"/>
   <path id="_9" fill="#FEFEFE" fill-rule="nonzero" d="M9133.02 8878.44l163.22 0 68.12 -68.13 21.29 -122.77 -50.38 -50.38 70.96 -70.97 19.16 -109.28 -68.12 -68.13 -138.38 0 -19.16 109.29 60.32 0 -13.49 77.35 -194.44 0 -19.87 111.41 195.15 0 -14.19 80.9 -60.32 0 -19.87 110.71zm-154 0l139.1 0 19.87 -110.71 -61.03 0 9.22 -53.93 -158.25 0 -17.03 96.51 68.12 68.13zm-22 -328.57l158.26 0 9.22 -51.8 60.32 0 19.16 -109.29 -161.8 0 -68.83 68.13 -16.33 92.96z"/>
   <path fill="#FEFEFE" fill-rule="nonzero" d="M4720.01 4288.86l435.44 0 97.03 -544.3 326.58 0 184.59 -184.59 123.06 -693.4 -210.62 -210.62 -198.79 0 -63.9 364.45 11.84 0 -56.8 321.85 -331.32 0 -184.59 184.59 -132.52 762.02zm102.4 -86.13l110.31 -634.27 140.08 -140.08 367.9 0 87.2 -494.11 -11.95 0 33.7 -192.19 90.76 0 153.65 153.65 -110.48 622.5 -140.19 140.2 -363.05 0 -97.02 544.3 -260.91 0zm165.72 -1069.68l39.23 -224.84 166.13 -166.13 136.3 0 -33.7 192.19 -11.6 0 -35.5 198.78 -260.86 0zm314.8 1069.68l36.12 -206.38 262.29 0 -37.4 206.38 -261.01 0zm733.05 0l-153.7 -153.71 200.52 -1140.76 166.17 -166.18 162.33 0 -33.7 192.19 -37.67 0 -191.59 1076.28 38.14 0 -33.7 192.18 -116.8 0zm336.66 0l33.7 -192.18 35.3 0 191.59 -1076.28 -35.77 0 33.7 -192.19 114.43 0 153.71 153.71 -200.53 1140.77 -166.17 166.17 -159.96 0zm586.76 0l110.31 -634.27 140.08 -140.08 367.9 0 87.2 -494.11 -11.95 0 33.69 -192.19 90.77 0 153.65 153.65 -110.48 622.5 -140.2 140.2 -363.04 0 -97.03 544.3 -260.9 0zm165.72 -1069.68l39.23 -224.84 166.13 -166.13 136.3 0 -33.7 192.19 -11.6 0 -35.5 198.78 -260.86 0zm314.8 1069.68l36.12 -206.38 262.29 0 -37.41 206.38 -261 0zm1055.51 0l33.69 -192.18 30.19 0 104.97 -572.21 -64.22 0 28.99 -160.75 38.53 -38.53 179.5 0 94.49 94.49 -124.69 702.96 -166.22 166.22 -155.23 0zm-329.56 0l-153.7 -153.7 38.86 -220.7 259.95 0 -33.14 182.22 31.43 0 -33.7 192.18 -109.7 0zm-60.79 -681.56l137.6 -779.09 778.37 0 -39.86 220.58 -516.11 0 -95.46 536.63 -21.88 21.88 -242.66 0zm-3219.42 -301.98l435.45 0 35.5 -198.79 11.83 0 63.9 -364.45 -274.52 0 -210.62 210.62 -61.54 352.62zm314.76 1069.67l435.44 0 68.63 -378.64 -437.81 0 -66.26 378.64zm799.89 0l224.82 0 63.89 -364.44 -37.86 0 160.93 -904.02 37.86 0 63.9 -364.45 -300.55 0 -210.63 210.62 -212.98 1211.67 210.62 210.62zm269.78 0l298.19 0 210.62 -210.62 212.99 -1211.67 -210.62 -210.62 -222.46 0 -63.9 364.45 35.5 0 -160.92 904.02 -35.5 0 -63.9 364.44zm586.91 0l435.44 0 97.03 -544.3 326.58 0 184.59 -184.59 123.06 -693.4 -210.62 -210.62 -198.79 0 -63.9 364.45 11.84 0 -56.8 321.85 -331.32 0 -184.59 184.59 -132.52 762.02zm165.65 -1069.67l435.45 0 35.49 -198.79 11.84 0 63.89 -364.45 -274.51 0 -210.63 210.62 -61.53 352.62zm314.75 1069.67l435.45 0 68.63 -378.64 -437.81 0 -66.27 378.64zm1055.48 0l293.45 0 210.62 -210.62 137.27 -773.86 -151.46 -151.46 -250.86 0 -82.83 82.83 -52.06 288.72 63.9 0 -73.37 399.95 -30.76 0 -63.9 364.44zm-262.68 0l217.72 0 63.89 -364.44 -30.76 0 33.13 -182.23 -435.44 0 -59.17 336.05 210.63 210.62zm-127.8 -681.56l381.02 0 66.26 -66.26 87.56 -492.24 515.91 0 70.99 -392.85 -953.71 0 -168.03 951.35z"/>
  </g>
 </g>
</svg>
