<svg xmlns="http://www.w3.org/2000/svg" xml:space="preserve" width="284.929mm" height="78.5444mm" style="shape-rendering:geometricPrecision;text-rendering:geometricPrecision;image-rendering:optimizeQuality;fill-rule:evenodd;clip-rule:evenodd" viewBox="0 0 5898242 1625926">
  <defs>
    <style>
      .fil2{fill:#fefefe;fill-rule:nonzero}.fil0,.fil1,.fil3{fill:#ed3237;fill-rule:nonzero}.fil1,.fil3{fill:#a35036}.fil3{fill:#212123}
    </style>
  </defs>
  <g id="Ebene_x0020_1">
    <path d="m5803313 1495495-496345-547052-416347 344655-36377-48514 191579-539295h-35688l-182129 512146h-493447l-36369-48481-95213-267830h-21113l-112411 316249h-243846l-19479-25996c-18869 16420-43320 26058-69505 26058l-1544384-35c-68687 0-113407-88229-120631-100463l-35758 100498h-502448l-36377-48481 164807-463665h-35974l-182065 512146H757649c-17896 0-34651-4629-49423-12509-2685-1064-11853-7200-12004-7289-46610-33717-71258-91243-71258-91243-5966-13193-16631-42975-2314-81037l113543-320068h-35690l-182065 512146H274592l-36404-48481 164865-463665H75290l-36379-48508 199089-210945h1018445c79661 0 120731 89052 128017 101688l36255-101937h428093c78077 0 120296 89452 127620 102245l36369-102280h243848l19299 25774c18291-15701 41689-25180 66524-25712h947851c82323 0 120704 88990 127955 101624l10702-29896c14379-42699 54420-71755 99459-71755v656c6067-656 946069-718 946069-718 38408 0 72152 20641 90675 51390l48233-51079h525560l135120-383373 36379 48481 119160 334867h391293l36377 48541-317350 261322 263363 739821zm-3737313-273866 13700-38381c12582 15666 25648 28459 39199 38381h-52899zm-592055 0 8164-22901 17138 22901h-25302zm-925355 0 42726-120110c1656 5629 3774 11162 6250 16641 1126 2660 28459 65398 81010 103468H548590zm4438243 252845H2552223l-84202-111784-2167500-111254h3793231l97022-272838 96960 272838h531388l65965 87767 421622-349000-319876 484271zm911409-975244-62398-83227h-385158L5336987 96713 5264452 1l-146594 416002h-517305l-33939 35970c-24808-22901-57774-36226-92112-36226-642145 35-848984 284-916257 567l-29811-532c-48293 0-92021 25739-115854 65938-33966-43790-75001-65938-122263-65938h-948532c-20490 470-40660 5728-58873 15107l-11383-15143h-279808l-23150 65158c-42347-52613-86953-65122-119766-65122h-449154l-22953 64590c-34276-42761-74564-64369-120259-64369H225201L-2 654556l60374 80540h300446l-156071 438957 54927 73192 39338 33966 2153587 110571 84726 112537h2465580l323575-489999 554897 611607-306333-860552 323196-266145z" class="fil0"/>
    <path d="m2997678 901185-20171 56861h294768l22791-64147c-11818 4567-24549 7287-37839 7349l-259550-62zM2385417 958046h36253l20206-56861-36253 27zM2724838 705288s27903 32432 31256 38222l13571-38222h-44827zM980320 958046l89860-252758h-36409l-89866 252758zM3605944 958046l89831-252758h-36156l-89831 252758zM4502962 916073c29053-15020 52327-40571 64936-72757 0 0 20295-55795 39155-108221h63311l-115889 325949-51514-144971zm83138-210785c-20425 56956-46227 127833-46227 127833-13327 33904-41319 57647-74786 65344l89361 251657 158174-444834h-126523z" class="fil0"/>
    <path d="m4538836 578146 219-532-27 27c-68 221-130 284-193 505z" class="fil1"/>
    <path d="M3631621 994388h-167024l132961-373985h167030l-132967 373985zm2087898-512173h-334671l-110606-310778-109499 310778h-535631l-90056 95399-184 532c60-186 89-319 157-505l27-27s4815-17643 4815-26306c0-38319-31059-69376-69368-69376 62 0-946315 35-946069 35-30587 0-55989 20082-65182 47539l-165275 464882h-334302l-49100 138188h785704c28708 0 53356-17449 63899-42354l89-337 166933-469517 425603-27-20488 57674h-334203l-161337 454464h166620l112415-316249h91580l112438 316346h166686l-112415-316309h26839c29339-62 54234-18337 64369-44039 0 0 33941-93371 54768-151825h257358l-182067 512173h166585l182096-512173h216664l-80356 85169-151666 426818 341492-282627 397479 438042-210961-592492 258821-213097z" class="fil2"/>
    <path d="m4554476 1150122-89388-251657c33467-7697 61483-31405 74786-65344 0 0 25801-70842 46227-127860h126523l-158147 444861zm1117158 137720-397481-438079-341465 282627 151666-426818 80356-85169h-216691l-182069 512173h-166620l182065-512173h-257320c-20827 58455-54768 151825-54768 151825-10135 25702-35065 43977-64369 44039h-26803l112343 316309h-166649l-112403-316309-91588-62-112442 316309h-166620l161300-454472h334240l20514-57736-425592 62-166935 469517-124 337c-10543 24870-35191 42354-63899 42354h-785739l49135-138188h334302l165246-464882c9259-27457 34624-47539 65211-47539-246 0 946131-62 946069-62 38309 0 69368 31057 69368 69403 0 8636-4842 26271-4842 26271l90083-95329h535598l109505-310813 110633 310778h334671l-258794 213097 210909 592529zM3295067 893864l-22791 64120h-294768l20171-56799 259577 62c13263-62 25961-2782 37812-7384zm-909650 64120 20171-56799h36253l-20206 56799h-36218zm339421-252723h44827l-13571 38249c-3354-5817-31256-38249-31256-38249zm-68242 427315 161292-454472h334238l20527-57701h-759462l-20523 57701s235593 132 235307 132c38346 0 69430 31059 69430 69405 0 10754-3714 22520-3714 22520l-128870 362414h-406610c-36193-2350-64936-32183-64936-68996 0-11890 3538-21963 3538-21963l59554-167614h166682l-42824 120385h167084l63313-178121-333741 62s103593-290955 104470-292921c10568-23957 34187-40820 61930-41441h947035c38319 0 69376 31084 69376 69430 0 9204-5566 27281-5566 27281l-68971 193639c-10172 25710-35030 43950-64369 44012h-285130l-112450 316247h-166612zm-682803-62h-166614l231264-650582h166651l-231302 650582zm-425249 62 182094-512173h-166800l-182104 512173H721267c-38346 0-69405-31119-69405-69405 0-8785 1818-17049 4761-24806l148285-417962H638445l-182067 512173H289758l182067-512173H123295l130464-138152h1002644c38346 0 69441 31022 69441 69368 0 10978-5163 26244-5163 26244l-148037 416525h91578l182193-512422h402426c38000 408 68714 31244 68714 69341 0 9417-5283 26927-6285 29650l-196115 551618h-166612zm4308756-638259-36415-48506h-391219l-119232-334832-36379-48516-135085 383348h-525598l-48169 51139c-18550-30809-52267-51425-90702-51425 0 0-939966 62-946069 718v-656c-45039 0-85107 29056-99494 71720l-10667 29968c-7251-12671-45597-101688-127955-101688h-947876c-24810 559-48235 10038-66472 25774l-19355-25810h-243846l-36342 102280c-7324-12820-49578-102245-127585-102245h-428128l-36228 101972c-7314-12706-48384-101748-128082-101748H238022L38906 656779l36379 48481h327728l-164830 463657 36377 48516h243873l182065-512173h35690l-113508 320060c-14325 38135-3687 67880 2279 81108 0 0 24686 57490 71258 91207 151 89 9319 6225 12004 7351 14772 7846 31564 12447 49423 12447h686144l182065-512173h36007l-164840 463657 36377 48516h502485l35721-100498c7225 12234 51944 100436 120669 100436l1544373 62c26122 0 50609-9603 69478-26085l19479 26023h243846l112438-316249h21086l95178 267795 36377 48516h493474l182096-512173h35756l-191641 539357 36377 48479 416374-344655 496312 547017-263330-739786 317350-261357z" class="fil3"/>
    <path d="M1005997 994388H838719l132930-373985h167303l-132955 373985zm911558-443080c0-38098-30714-68969-68749-69341h-402418l-182166 512422h-91578l148066-416499s5099-15294 5099-26236c0-38346-31084-69439-69368-69439H253725L123271 620403h348530l-182042 512173h166647l182069-512173h166461l-148312 417997c-2979 7659-4761 15985-4761 24735 0 38346 31059 69441 69405 69441h660467l182067-512173h166837l-182067 512173h166620l196079-551618c1002-2722 6285-20233 6285-29650zM2038444 481931l-231265 650583h166614l231302-650583zM3220565 816329h224c29339-62 54197-18302 64369-44012l68971-193639s5566-18078 5566-27281c0-38346-31057-69430-69403-69430h-947008c-27743 621-51363 17484-61930 41441-878 1967-104470 292921-104470 292921l333741-62-63313 178121h-167084l42824-120385h-166682l-59554 167614s-3538 10073-3538 21963c0 36812 28743 66646 64936 68996h406610l128870-362414s3714-11766 3714-22520c0-38346-31084-69405-69430-69405 286 0-235307-132-235307-132l20523-57701h759462l-20527 57701h-334201l-161329 454472h166612l112450-316247h284906z" class="fil2"/>
    <path d="m1070180 705288-89860 252696h-36415l89866-252696h36408zM838719 994388h167278l132930-373985H971649L838719 994388z" class="fil3"/>
    <path d="m4538836 578146 219-532-27 27c-68 221-130 284-193 505z" class="fil1"/>
    <path d="m3695801 705288-89858 252696h-36191l89866-252696h36183zm-231204 289100h167024l132967-373985h-167030l-132961 373985zM3751321 1323217h-35560l-12758 36315h32902c17138-505 20516-4912 26555-22023 1126-3219 3465-9912 2128-11880-816-1099-3726-2412-13267-2412zM3547673 1323217h-35595l-12795 36315h32939c17111-505 20550-4912 26553-22023 1128-3219 3503-9912 2128-11880-778-1099-3722-2412-13230-2412zM4494895 1322277c-16147 0-21581 2971-28805 23363l-13735 38975c-3130 8785-3875 14416-2217 16730 1621 2350 7351 2722 13290 2784h14640c14948-124 21297-2066 28335-22015l13795-38940c2217-6287 4912-15018 2784-18051-1818-2501-8512-2846-13362-2846h-14724zM3821728 1380802h37379l-913-50741zM4247484 1380802h37379l-902-50741zM2713517 1345640l-13698 38940c-3155 8821-3912 14451-2277 16703 1654 2412 7349 2784 13317 2846h14700c14954-124 21243-2066 28283-22015l13758-38940c2254-6287 4912-15018 2784-18078-1782-2474-8448-2757-13362-2757h-14724c-16136 0-21581 2908-28780 23301z" class="fil3"/>
    <path d="m4409726 1403252-6506 18397h-76040l41254-116820h20303l-34754 98424h55743zm129899-57612-13768 38940c-9603 27306-24083 37911-51613 37911h-14724c-14327 0-23088-2908-27530-9133-4631-6568-4370-16198 938-31244l13772-38940c10220-29029 23361-38913 52006-39224h14762c14896 186 23460 2971 27745 9131 4637 6570 4132 16323-1588 32558zm107814 76009h-25774l-24178-90773-32026 90773h-20274l41225-116820h25936l23793 91356 32248-91356h20268l-41217 116820zm133364-68722-6190 17670h-55397l-11543 32655h57871l-6483 18397h-78191l41257-116820h78162l-6471 18388h-57896l-10508 29710h55389zm-500666-48098h23090l2337 116820h-20268l-406-23212h-49696l-16641 23212h-22173l83757-116820zm-1667110 0 13354 47690 47009-47690h25302l-69716 69492-16739 47328h-20268l17486-49518-18612-67302h22183zm173965 40811-13698 38940c-9638 27306-24118 37911-51640 37911h-14735c-14325 0-23085-2908-27530-9133-4654-6568-4343-16198 977-31244l13733-38940c10257-29029 23363-38913 52044-39224h14762c14890 186 23425 2971 27743 9131 4604 6570 4099 16323-1656 32558zm35278 55333c2004 2784 11793 3157 22183 3157 21705 0 28273 0 34651-18105l28681-81197h20303l-29561 83724c-11100 31438-31937 33939-57958 33939-14480 0-29436 0-35936-9133-4229-6001-4132-14921 213-27333l28718-81197h20295l-29550 83724c-1571 4353-3440 10417-2039 12420zm280501 20676h-25766l-24152-90773-32059 90773h-20268l41190-116820h25961l23769 91356 32256-91356h20295l-41225 116820zm133400-68722-6250 17670h-55399l-11508 32655h57836l-6448 18397h-78191l41257-116820h78162l-6506 18388h-57859l-10483 29710h55389zm118329-48098h22392l-82631 116820h-23309l-530-116820h20798l-778 92172 64058-92172zm97022 48098-6254 17670h-55395l-11510 32655h57863l-6446 18397h-78224l41263-116820h78156l-6475 18388h-57894l-10506 29710h55422zm107379 19179c2842 4378 2904 10257 159 18016l-11174 31527h-20268l9951-28151c900-2633 3720-10444 1718-13263-1126-1534-4283-2350-9355-2350h-37121l-15455 43763h-20328l41290-116820h53046c14724 0 22831 2528 27087 8502 4219 6003 3997 14640-658 27965-4219 11853-9131 22955-21082 28337 840 716 1567 1559 2190 2474zm295482-67277h23077l2387 116820h-20303l-410-23212h-49692l-16645 23212h-22148l83734-116820zm-91837 67277c2844 4378 2919 10257 161 18016l-11102 31527h-20268l9876-28151c940-2633 3722-10444 1755-13263-1064-1534-4318-2350-9355-2350h-37156l-15447 43763h-20303l41257-116820h53081c14724 0 22864 2528 27052 8564 4289 5941 4033 14577-685 27903-4194 11853-9104 22955-21057 28337 878 716 1569 1559 2190 2474zm239814-47452c-720-1064-3157-2376-10417-2376h-7007c-24835 0-33001 2722-39311 20579l-10605 30091c-3970 11261-8475 24054-5506 28248 1339 1933 5034 2935 10940 2935h14735c19368 0 24241-2687 28969-15888l3970-11261h20295l-5374 15207c-9922 27989-29906 30304-51274 30304h-17482c-13106 0-19452-5063-22485-9317-4912-6943-5159-17362-693-30057l14925-42256c12011-34098 35872-36909 61336-36909h10193c11890 0 19266 2598 23179 8067 4194 5976 3946 14702-907 28399l-2128 5976h-20295l2813-8042c1753-4753 3784-11383 2128-13698zm117980 28273-6221 17670h-55397l-11570 32655h57894l-6479 18397h-78191l41225-116820h78220l-6498 18388h-57898l-10481 29710h55395zm764747-13787-66000-87705h-531352l-96960-272838-97022 272838H300522l2167465 111254 84237 111784h2434610l319876-484244-421622 348911z" class="fil3"/>
    <path d="m3865270 1307478-754 1102h783z" style="fill:#9a9c9f;fill-rule:nonzero"/>
  </g>
</svg>
