<?xml version="1.0" encoding="UTF-8"?>
<!DOCTYPE svg PUBLIC "-//W3C//DTD SVG 1.0//EN" "http://www.w3.org/TR/2001/REC-SVG-20010904/DTD/svg10.dtd">
<!-- Creator: CorelDRAW -->
<svg xmlns="http://www.w3.org/2000/svg" xml:space="preserve" width="5.4283in" height="4.19799in" version="1.0" shape-rendering="geometricPrecision" text-rendering="geometricPrecision" image-rendering="optimizeQuality" fill-rule="evenodd" clip-rule="evenodd"
viewBox="0 0 5428.3 4197.99"
 xmlns:xlink="http://www.w3.org/1999/xlink"
 xmlns:xodm="http://www.corel.com/coreldraw/odm/2003">
 <g id="Layer_x0020_1">
  <metadata id="CorelCorpID_0Corel-Layer"/>
  <path fill="white" fill-rule="nonzero" d="M3461.56 3062.04l-1669.12 0 181.73 -1005.56 1663.52 0 -176.13 1005.56zm-329.34 -146.89l178.21 0 74.78 -79.43 42.24 -235.21 -57.03 -62.92 -147.16 -31.98 -28.06 -30.94 29.66 -169.18 43.7 -47.46 107.71 0 39.24 44.36 -15.79 85.62 63.85 0 19.04 -107.29 -69.17 -77.36 -172.5 0 -74.79 79.43 -39.04 216.63 57.03 62.92 147.15 31.98 29 31.98 -34.73 186.71 -43.68 46.42 -113.42 0 -37.38 -42.28 15.83 -87.69 -62.89 0 -20.05 110.38 68.26 75.31zm8.67 -651.95l10.57 -59.83 -344.04 0 -11.54 59.83 141.06 0 -117.21 651.95 63.85 0 117.22 -651.95 140.09 0zm-509.48 -15.48l4.4 401.29 -152.49 0 148.09 -401.29zm-309.05 667.43l63.85 0 76.08 -208.38 174.4 0 3.02 208.38 61.94 0 -15.16 -711.78 -95.3 0 -268.84 711.78zm-383.96 0l57.19 0 103.44 -573.55 114.8 573.55 54.32 0 128.74 -711.78 -57.17 0 -103.35 567.37 -114.9 -567.37 -54.32 0 -128.74 711.78z"/>
  <g id="_2790346766096">
   <polygon fill="white" points="5067.54,2307.86 5111.57,2056.47 4828.59,2056.47 4784.56,2307.86 "/>
   <polygon fill="white" points="5306.5,2559.25 5350.53,2307.86 5067.54,2307.86 5023.51,2559.25 "/>
   <polygon fill="white" points="4979.48,2810.65 5023.52,2559.26 4740.53,2559.26 4696.5,2810.65 "/>
   <polygon fill="white" points="5218.44,3062.04 5262.47,2810.65 4979.48,2810.65 4935.45,3062.04 "/>
   <polygon fill="white" points="4501.58,2307.86 4545.61,2056.47 4262.63,2056.47 4218.59,2307.86 "/>
   <polygon fill="white" points="4740.53,2559.25 4784.56,2307.86 4501.58,2307.86 4457.55,2559.25 "/>
   <polygon fill="white" points="4413.52,2810.65 4457.55,2559.26 4174.57,2559.26 4130.54,2810.65 "/>
   <polygon fill="white" points="4652.47,3062.04 4696.5,2810.65 4413.52,2810.65 4369.49,3062.04 "/>
   <polygon fill="white" points="3935.61,2307.86 3979.65,2056.47 3696.66,2056.47 3652.63,2307.86 "/>
   <polygon fill="white" points="4174.57,2559.25 4218.6,2307.86 3935.61,2307.86 3891.58,2559.25 "/>
   <polygon fill="white" points="3847.56,2810.65 3891.59,2559.26 3608.6,2559.26 3564.57,2810.65 "/>
   <polygon fill="white" points="4086.51,3062.04 4130.54,2810.65 3847.56,2810.65 3803.52,3062.04 "/>
  </g>
  <path fill="white" fill-rule="nonzero" d="M1552.57 2133.92l-181.48 244.85c-20.37,26.61 -47.83,24.14 -73.04,9.28l-90.45 -49.22 6.07 376.09c3.15,68.71 -46.8,68.71 -66.09,39l-139.83 -185.69 -45.19 94.3c-5.48,12.39 -22.1,25.39 -42.95,22.29l-211.27 -44.1 21.39 200.29c4.27,44.57 10.55,63.02 -25.96,74.77l-84.5 35.13 122.93 111.13 977.3 0 61.41 -350.69 -47.41 42.57c-30.03,29.71 -79.99,29.71 -52,-39l142 -376.09 -108.24 49.22c-30.59,14.86 -58.93,17.33 -69.69,-9.28l-93.04 -244.85z"/>
  <polygon fill="white" fill-rule="nonzero" points="35.87,3062.04 425.91,3062.04 607.64,2056.47 212,2056.47 "/>
  <polygon fill="#C59955" points="-0,3241.58 5189.28,3241.58 5206.22,3144.88 16.94,3144.88 "/>
  <polygon fill="#C59955" points="222.08,1973.63 5411.36,1973.63 5428.3,1876.93 239.01,1876.93 "/>
  <path fill="#C59955" d="M1448.14 1443.81c-2.78,10.06 -5.58,19.93 -8.47,29.49 -29,95.94 -73.43,217.93 -178.23,252.35 -83.22,27.33 -181.98,16.37 -267.18,4.64 -68.38,-9.41 -136.66,-21.39 -204.65,-33.29 -53.7,-9.4 -107.39,-18.9 -161.07,-28.33 17.72,54.5 35.5,109.01 53.12,163.56l-82.42 0c-26.21,-81.02 -54.83,-168.98 -84.89,-262.72 452.83,77.57 614.48,117.44 722.72,81.9 109.73,-36.05 135.14,-263.9 180.38,-371.01 176.31,218.5 333.08,419.48 450.31,551.83l-103.55 0c-108.21,-126.19 -212.11,-257.87 -316.06,-388.43zm95.09 1853.56c61.06,52.29 131.89,120.89 147.33,178.5 25.42,94.87 -23.16,237.04 -74.92,354.95l1080.85 -161.29 -8.97 450.31 53.28 0 -8.97 -450.31 1080.84 161.29c-51.76,-117.91 -100.33,-260.08 -74.91,-354.95 16.22,-60.54 93.59,-133.19 156.52,-186.32l124.05 -0.41c-113.72,90.82 -193.7,164.47 -205.09,206.96 -21.77,81.24 32.66,231.15 132.66,433.61l-1134.11 -169.24 8.72 437.51 -106.36 0 -106.36 0 8.72 -437.51 -1134.11 169.24c100,-202.46 154.44,-352.38 132.67,-433.61 -11.02,-41.14 -86.34,-111.47 -194.3,-198.31l122.46 -0.41zm3203.41 -1465.14c17.62,-54.55 35.41,-109.06 53.13,-163.56 -53.7,9.43 -107.37,18.93 -161.08,28.33 -67.99,11.9 -136.27,23.88 -204.65,33.29 -85.2,11.73 -183.97,22.69 -267.18,-4.64 -104.8,-34.43 -149.24,-156.42 -178.22,-252.36 -2.89,-9.56 -5.7,-19.44 -8.48,-29.49 -103.95,130.56 -207.84,262.24 -316.05,388.43l-103.55 0c117.22,-132.35 274,-333.33 450.3,-551.83 45.24,107.11 70.65,334.96 180.39,371.01 108.23,35.54 269.88,-4.33 722.71,-81.9 -30.07,93.75 -58.68,181.71 -84.89,262.72l-82.42 0zm-1476.13 0c3.88,-35.19 9.08,-70.63 14.93,-105.89l79.47 0c-6.54,38.86 -11.83,74.37 -15.63,105.89l-78.77 0zm165.24 -835.54c5.03,-23.41 10.02,-46.81 14.96,-70.22 10.15,-48.05 20.17,-96.13 29.95,-144.27 -54.22,32.51 -109.47,63.21 -164.02,88 -68.69,31.21 -152.93,59.31 -224.6,20.41 -81.69,-44.33 -161.35,-211.95 -200.69,-293.25 -62.73,-129.63 -120.62,-263.1 -177.2,-396.52 -56.58,133.42 -114.47,266.88 -177.2,396.52 -39.33,81.3 -118.99,248.92 -200.69,293.25 -71.67,38.9 -155.92,10.8 -224.6,-20.41 -54.55,-24.79 -109.8,-55.49 -164.02,-88 9.78,48.13 19.8,96.21 29.94,144.27 5.14,24.35 10.33,48.69 15.57,73.04l-65.84 65.84c-32,-148.79 -64.06,-301.15 -91,-445.09 270.02,171.83 396.2,237.74 462.67,201.67 84.7,-45.97 223.89,-369.68 415.16,-821.93 191.28,452.26 330.46,775.96 415.17,821.93 66.46,36.07 192.65,-29.83 462.67,-201.67 -22.81,121.86 -49.28,249.77 -76.29,376.43l-79.94 0zm-1356.73 835.54c-3.8,-31.52 -9.09,-67.03 -15.63,-105.89l79.48 0c5.85,35.26 11.05,70.71 14.93,105.89l-78.77 0z"/>
  <path fill="white" fill-rule="nonzero" d="M1881.8 3488.98l57.62 0 1.72 38.3 78.66 0 -21.39 -238.06 -67.62 0 6.21 142.15 -31.74 0 -23.46 57.62zm-99.37 38.3l77.28 0 65.9 -165.61 -1.72 -72.45 -37.95 0 -103.5 238.06z"/>
  <path id="_1" fill="white" fill-rule="nonzero" d="M2152.98 3341.31l51.41 0 -10.35 60.04 -52.09 0 -9.32 53.48 100.06 0 34.85 -34.85 16.91 -95.91 -34.85 -34.85 -87.63 0 -8.97 52.09zm-117.31 185.96l77.28 0 41.75 -238.06 -76.94 0 -42.09 238.06z"/>
  <path id="_2" fill="white" fill-rule="nonzero" d="M2425.89 3527.28l68.31 0 10.01 -55.55 -18.98 0 -10.7 -39.68 35.54 -35.54 12.77 -72.45 -34.85 -34.85 -87.29 0 -9.31 52.09 51.41 0 -8.63 48.3 -51.06 0 -10 56.24 33.12 0 19.67 81.43zm-151.46 0l77.28 0 41.75 -238.06 -76.94 0 -42.09 238.06z"/>
  <polygon id="_3" fill="white" fill-rule="nonzero" points="2519.39,3527.28 2596.33,3527.28 2638.42,3289.22 2561.48,3289.22 "/>
  <path id="_4" fill="white" fill-rule="nonzero" d="M2630.83 3527.28l77.28 0 41.75 -238.06 -76.94 0 -42.09 238.06zm84.19 0l75.91 0 10.69 -59 -75.9 0 -10.7 59z"/>
  <path id="_5" fill="white" fill-rule="nonzero" d="M3013.11 3527.28l76.94 0 10.01 -56.93 22.08 0 10.35 -59.69 -22.08 0 21.74 -121.44 -77.28 0 -41.75 238.06zm-119.37 -56.93l122.13 0 10.35 -59.69 -39.33 0 51.06 -121.44 -70.39 0 -65.9 134.56 -7.93 46.57z"/>
  <polygon id="_6" fill="white" fill-rule="nonzero" points="3230.47,3436.2 3329.49,3436.2 3339.84,3377.54 3240.82,3377.54 "/>
  <path id="_7" fill="white" fill-rule="nonzero" d="M3440.58 3349.94l94.54 0 51.41 -60.72 -134.9 0 -11.04 60.72zm18.29 177.34l76.59 0 14.83 -83.49 86.6 -104.54 8.97 -50.02 -50.72 0 -120.41 146.98 -15.87 91.08z"/>
  <path fill="white" fill-rule="nonzero" d="M1842.81 1681.66l170.74 0 38.04 -213.43 128.06 0 72.38 -72.38 48.25 -271.88 -82.59 -82.59 -77.94 0 -25.06 142.9 4.64 0 -22.27 126.2 -129.91 0 -72.38 72.38 -51.96 298.79zm64.96 -419.43l170.74 0 13.92 -77.94 4.64 0 25.06 -142.9 -107.64 0 -82.59 82.59 -24.13 138.26zm123.41 419.43l170.74 0 26.91 -148.47 -171.67 0 -25.98 148.47z"/>
  <path id="_1_0" fill="white" fill-rule="nonzero" d="M2344.82 1681.66l88.15 0 25.06 -142.9 -14.85 0 63.1 -354.47 14.85 0 25.06 -142.9 -117.85 0 -82.59 82.59 -83.51 475.1 82.58 82.59zm105.78 0l116.92 0 82.59 -82.59 83.51 -475.1 -82.59 -82.59 -87.22 0 -25.06 142.9 13.92 0 -63.1 354.47 -13.92 0 -25.06 142.9z"/>
  <path id="_2_1" fill="white" fill-rule="nonzero" d="M2680.73 1681.66l170.74 0 38.04 -213.43 128.06 0 72.38 -72.38 48.25 -271.88 -82.59 -82.59 -77.94 0 -25.06 142.9 4.64 0 -22.27 126.2 -129.91 0 -72.38 72.38 -51.96 298.79zm64.96 -419.43l170.74 0 13.92 -77.94 4.64 0 25.06 -142.9 -107.64 0 -82.59 82.59 -24.13 138.26zm123.41 419.43l170.74 0 26.91 -148.47 -171.67 0 -25.98 148.47z"/>
  <path id="_3_2" fill="white" fill-rule="nonzero" d="M3301.52 1681.66l170.74 0 27.84 -159.6 35.26 0 25.06 -145.69 -34.33 0 59.39 -334.98 -170.74 0 -113.21 640.27zm-204.14 -159.6l214.35 0 25.98 -145.69 -44.54 0 99.29 -334.98 -147.54 0 -127.13 360.04 -20.41 120.63z"/>
 </g>
</svg>
