<?xml version="1.0" encoding="UTF-8"?>
<!DOCTYPE svg PUBLIC "-//W3C//DTD SVG 1.1//EN" "http://www.w3.org/Graphics/SVG/1.1/DTD/svg11.dtd">
<!-- Creator: CorelDRAW -->
<svg xmlns="http://www.w3.org/2000/svg" xml:space="preserve" width="118.239mm" height="91.44mm" version="1.1" style="shape-rendering:geometricPrecision; text-rendering:geometricPrecision; image-rendering:optimizeQuality; fill-rule:evenodd; clip-rule:evenodd"
viewBox="0 0 7228.97 5590.54"
 xmlns:xlink="http://www.w3.org/1999/xlink"
 xmlns:xodm="http://www.corel.com/coreldraw/odm/2003">
 <defs>
  <style type="text/css">
   <![CDATA[
    .fil3 {fill:black}
    .fil1 {fill:white}
    .fil0 {fill:black;fill-rule:nonzero}
    .fil2 {fill:white;fill-rule:nonzero}
   ]]>
  </style>
 </defs>
 <g id="Layer_x0020_1">
  <metadata id="CorelCorpID_0Corel-Layer"/>
  <polygon class="fil0" points="4609.83,4077.78 2387.02,4077.78 2629.03,2738.65 4844.37,2738.65 "/>
  <g id="_2326658617632">
   <polygon class="fil1" points="6748.55,3073.42 6807.19,2738.64 6430.33,2738.64 6371.69,3073.42 "/>
   <polygon class="fil1" points="7066.77,3408.21 7125.4,3073.43 6748.55,3073.43 6689.91,3408.21 "/>
   <polygon class="fil1" points="6631.28,3742.99 6689.92,3408.21 6313.06,3408.21 6254.42,3742.99 "/>
   <polygon class="fil1" points="6949.5,4077.78 7008.13,3742.99 6631.28,3742.99 6572.64,4077.78 "/>
   <polygon class="fil1" points="5994.84,3073.42 6053.48,2738.64 5676.63,2738.64 5617.99,3073.42 "/>
   <polygon class="fil1" points="6313.06,3408.21 6371.7,3073.43 5994.84,3073.43 5936.2,3408.21 "/>
   <polygon class="fil1" points="5877.57,3742.99 5936.21,3408.21 5559.35,3408.21 5500.72,3742.99 "/>
   <polygon class="fil1" points="6195.79,4077.78 6254.43,3742.99 5877.57,3742.99 5818.93,4077.78 "/>
   <polygon class="fil1" points="5241.13,3073.42 5299.77,2738.64 4922.92,2738.64 4864.28,3073.42 "/>
   <polygon class="fil1" points="5559.35,3408.21 5617.99,3073.43 5241.13,3073.43 5182.49,3408.21 "/>
   <polygon class="fil1" points="5123.86,3742.99 5182.5,3408.21 4805.64,3408.21 4747.01,3742.99 "/>
   <polygon class="fil1" points="5442.08,4077.78 5500.72,3742.99 5123.86,3742.99 5065.22,4077.78 "/>
  </g>
  <path class="fil2" d="M2067.6 2841.78l-241.68 326.08c-27.13,35.44 -63.69,32.15 -97.27,12.36l-120.45 -65.55 8.09 500.85c4.19,91.51 -62.33,91.51 -88.02,51.94l-186.2 -247.29 -60.18 125.58c-7.3,16.5 -29.43,33.82 -57.2,29.68l-281.36 -58.72 28.49 266.72c5.68,59.35 14.04,83.93 -34.57,99.57l-112.53 46.79 163.71 147.99 1301.49 0 81.79 -467.02 -63.14 56.69c-40,39.57 -106.52,39.57 -69.24,-51.94l189.1 -500.85 -144.14 65.55c-40.73,19.79 -78.48,23.08 -92.8,-12.36l-123.89 -326.08z"/>
  <polygon class="fil2" points="47.77,4077.78 567.19,4077.78 809.2,2738.64 282.32,2738.64 "/>
  <polygon class="fil3" points="-0.01,4316.88 6910.67,4316.88 6933.23,4188.1 22.55,4188.1 "/>
  <path class="fil2" d="M4171.23 3882.16l237.32 0 99.59 -105.78 56.25 -313.23 -75.95 -83.79 -195.98 -42.59 -37.36 -41.21 39.5 -225.3 58.2 -63.19 143.43 0 52.26 59.08 -21.04 114.01 85.04 0 25.35 -142.87 -92.11 -103.03 -229.72 0 -99.59 105.78 -52 288.49 75.94 83.8 195.97 42.59 38.6 42.59 -46.25 248.65 -58.18 61.82 -151.04 0 -49.78 -56.32 21.09 -116.78 -83.76 0 -26.7 146.99 90.9 100.29zm11.54 -868.22l14.09 -79.68 -458.17 0 -15.36 79.68 187.85 0 -156.09 868.22 85.04 0 156.09 -868.22 186.56 0zm-678.49 -20.61l5.85 534.4 -203.06 0 197.21 -534.4zm-411.57 888.83l85.04 0 101.33 -277.5 232.25 0 4.02 277.5 82.49 0 -20.19 -947.9 -126.91 0 -358.02 947.9zm-511.34 0l76.16 0 137.75 -763.81 152.88 763.81 72.34 0 171.45 -947.9 -76.15 0 -137.62 755.57 -153.02 -755.57 -72.34 0 -171.45 947.9z"/>
  <polygon class="fil3" points="295.74,2628.33 7206.41,2628.33 7228.97,2499.54 318.29,2499.54 "/>
  <path class="fil3" d="M1928.52 1922.76c-3.71,13.39 -7.43,26.53 -11.28,39.28 -38.62,127.76 -97.79,290.21 -237.35,336.06 -110.83,36.39 -242.35,21.8 -355.81,6.18 -91.07,-12.53 -181.99,-28.48 -272.54,-44.33 -71.51,-12.52 -143.01,-25.16 -214.51,-37.72 23.59,72.58 47.28,145.17 70.74,217.81l-109.76 0c-34.9,-107.89 -73.02,-225.03 -113.06,-349.87 603.05,103.3 818.32,156.41 962.46,109.07 146.13,-48.01 179.97,-351.44 240.21,-494.08 234.8,290.98 443.57,558.63 599.69,734.88l-137.9 0c-144.1,-168.05 -282.47,-343.42 -420.9,-517.27zm126.62 2468.43c81.31,69.63 175.64,160.98 196.2,237.71 33.85,126.34 -30.84,315.67 -99.78,472.68l1439.39 -214.79 -11.95 599.69 70.96 0 -11.95 -599.69 1439.39 214.79c-68.93,-157.02 -133.62,-346.35 -99.76,-472.7 21.61,-80.62 124.63,-177.38 208.44,-248.13l165.2 -0.55c-151.44,120.94 -257.96,219.02 -273.13,275.62 -28.99,108.18 43.49,307.82 176.67,577.45l-1510.31 -225.38 11.61 582.64 -141.64 0 -141.64 0 11.62 -582.64 -1510.32 225.38c133.18,-269.63 205.67,-469.27 176.67,-577.45 -14.68,-54.79 -114.98,-148.45 -258.75,-264.11l163.08 -0.54zm4266.05 -1951.16c23.47,-72.65 47.15,-145.24 70.75,-217.81 -71.51,12.56 -142.99,25.21 -214.52,37.72 -90.54,15.85 -181.47,31.8 -272.53,44.33 -113.46,15.63 -244.99,30.21 -355.8,-6.18 -139.57,-45.85 -198.74,-208.31 -237.34,-336.07 -3.85,-12.74 -7.59,-25.89 -11.3,-39.28 -138.42,173.86 -276.78,349.23 -420.89,517.28l-137.9 0c156.11,-176.25 364.89,-443.91 599.68,-734.88 60.24,142.64 94.08,446.07 240.22,494.08 144.13,47.34 359.41,-5.77 962.45,-109.07 -40.04,124.85 -78.15,241.98 -113.06,349.87l-109.76 0zm-1965.79 0c5.17,-46.86 12.09,-94.06 19.88,-141.02l105.83 0c-8.71,51.75 -15.77,99.05 -20.82,141.02l-104.9 0zm220.05 -1112.71c6.69,-31.17 13.34,-62.34 19.93,-93.51 13.51,-63.99 26.86,-128.02 39.88,-192.13 -72.2,43.29 -145.77,84.18 -218.42,117.18 -91.48,41.57 -203.66,78.99 -299.11,27.18 -108.78,-59.04 -214.87,-282.26 -267.26,-390.53 -83.53,-172.63 -160.63,-350.37 -235.98,-528.04 -75.35,177.67 -152.44,355.41 -235.98,528.04 -52.39,108.27 -158.47,331.49 -267.26,390.53 -95.45,51.8 -207.64,14.39 -299.11,-27.17 -72.65,-33.02 -146.23,-73.9 -218.42,-117.2 13.02,64.1 26.37,128.13 39.88,192.13 6.84,32.42 13.76,64.84 20.73,97.27l-87.68 87.68c-42.62,-198.15 -85.31,-401.05 -121.19,-592.74 359.59,228.84 527.63,316.61 616.15,268.56 112.8,-61.22 298.16,-492.31 552.88,-1094.59 254.72,602.28 440.08,1033.37 552.89,1094.59 88.5,48.04 256.55,-39.73 616.15,-268.56 -30.38,162.29 -65.63,332.63 -101.6,501.3l-106.46 0zm-1806.79 1112.71c-5.06,-41.98 -12.12,-89.27 -20.82,-141.02l105.84 0c7.8,46.97 14.72,94.17 19.88,141.02l-104.9 0z"/>
  <path class="fil2" d="M2706.8 4594.9l61.87 0 1.85 41.12 84.47 0 -22.97 -255.63 -72.61 0 6.67 152.64 -34.08 0 -25.19 61.87zm-106.7 41.12l82.98 0 70.76 -177.83 -1.85 -77.8 -40.75 0 -111.14 255.63zm397.9 -199.69l55.2 0 -11.12 64.46 -55.94 0 -10 57.43 107.44 0 37.42 -37.42 18.15 -102.99 -37.42 -37.42 -94.11 0 -9.63 55.94zm-125.96 199.69l82.99 0 44.83 -255.63 -82.62 0 -45.2 255.63zm419.02 0l73.35 0 10.75 -59.65 -20.38 0 -11.49 -42.61 38.16 -38.16 13.71 -77.81 -37.42 -37.42 -93.74 0 -10 55.94 55.2 0 -9.26 51.87 -54.83 0 -10.74 60.39 35.56 0 21.12 87.43zm-162.64 0l82.99 0 44.83 -255.63 -82.62 0 -45.2 255.63zm263.04 0l82.62 0 45.2 -255.63 -82.62 0 -45.2 255.63zm119.67 0l82.99 0 44.83 -255.63 -82.62 0 -45.2 255.63zm90.4 0l81.5 0 11.48 -63.35 -81.5 0 -11.48 63.35zm242.66 -94.11l91.88 0 15.93 -15.56 7.41 -42.23 -59.27 0 8.15 -45.2 29.27 0 10.38 -58.53 -81.51 0 -37.42 37.42 -16.3 92.63 31.49 31.49zm66.32 94.11l82.25 0 36.68 -37.05 32.23 -181.91 -37.05 -36.68 -68.91 0 -10.38 58.53 29.64 0 -24.45 138.57 -29.64 0 -10.38 58.53zm-77.43 0l69.66 0 10.37 -58.53 -29.27 0 3.71 -22.97 -82.62 0 -8.15 45.19 36.3 36.31zm229.71 -97.81l106.33 0 11.12 -62.98 -106.33 0 -11.12 62.98zm96.69 97.81l171.16 0 10.75 -60.39 -44.83 0 34.46 -195.25 -126.34 0 -10.74 60.39 43.71 0 -23.71 134.86 -43.71 0 -10.75 60.39zm195.25 0l82.99 0 15.19 -86.69 106.7 0 32.97 -32.97 17.41 -98.55 -37.42 -37.42 -61.5 0 -10 58.53 22.6 0 -8.15 45.94 -107.07 0 -32.97 32.98 -20.75 118.18zm28.16 -170.42l82.62 0 4.82 -26.67 22.97 0 10 -58.53 -75.58 0 -36.3 36.31 -8.52 48.9zm62.61 170.42l125.96 0 11.12 -61.5 -126.34 0 -10.74 61.5z"/>
  <path class="fil2" d="M2464.63 2239.5l227.36 0 50.67 -284.2 170.52 0 96.39 -96.39 64.25 -362.05 -109.97 -109.97 -103.8 0 -33.36 190.29 6.18 0 -29.65 168.05 -172.99 0 -96.38 96.38 -69.2 397.88zm86.49 -558.52l227.36 0 18.53 -103.8 6.18 0 33.36 -190.29 -143.34 0 -109.97 109.97 -32.13 184.11zm164.34 558.52l227.36 0 35.83 -197.7 -228.6 0 -34.6 197.7zm417.65 0l117.39 0 33.36 -190.29 -19.77 0 84.03 -472.02 19.77 0 33.36 -190.29 -156.93 0 -109.98 109.97 -111.21 632.66 109.97 109.97zm140.86 0l155.7 0 109.97 -109.97 111.21 -632.66 -109.98 -109.97 -116.15 0 -33.36 190.29 18.54 0 -84.02 472.02 -18.54 0 -33.36 190.29zm306.45 0l227.36 0 50.67 -284.2 170.52 0 96.39 -96.39 64.25 -362.05 -109.97 -109.97 -103.8 0 -33.36 190.29 6.18 0 -29.65 168.05 -172.99 0 -96.38 96.38 -69.2 397.88zm86.49 -558.52l227.36 0 18.53 -103.8 6.18 0 33.36 -190.29 -143.34 0 -109.97 109.97 -32.13 184.11zm164.34 558.52l227.36 0 35.83 -197.7 -228.6 0 -34.6 197.7zm557.28 0l154.46 0 109.98 -109.97 63.02 -358.34 -79.08 -79.08 -134.69 0 -43.25 43.25 -25.95 147.04 35.83 0 -29.65 166.82 -17.3 0 -33.36 190.29zm-139.63 0l116.15 0 33.36 -190.29 -18.54 0 82.79 -472.02 18.53 0 33.36 -190.29 -154.46 0 -109.98 109.97 -111.21 632.66 109.97 109.97zm260.73 -588.17l227.36 0 27.18 -154.46 -109.97 -109.97 -116.15 0 -33.36 190.29 17.3 0 -12.36 74.14z"/>
 </g>
</svg>
