<?xml version="1.0" encoding="UTF-8"?>
<!DOCTYPE svg PUBLIC "-//W3C//DTD SVG 1.0//EN" "http://www.w3.org/TR/2001/REC-SVG-20010904/DTD/svg10.dtd">
<!-- Creator: CorelDRAW -->
<svg xmlns="http://www.w3.org/2000/svg" xml:space="preserve" width="100%" height="100%" version="1.0" shape-rendering="geometricPrecision" text-rendering="geometricPrecision" image-rendering="optimizeQuality" fill-rule="evenodd" clip-rule="evenodd"
viewBox="0 0 19476.5 5267.06"
 xmlns:xlink="http://www.w3.org/1999/xlink"
 xmlns:xodm="http://www.corel.com/coreldraw/odm/2003">
 <g id="Layer_x0020_1">
  <metadata id="CorelCorpID_0Corel-Layer"/>
  <rect fill="black" width="19476.5" height="5267.06"/>
  <path fill="#0C2CBA" d="M6111.91 2767.46c35.9,-71.96 -51.67,-34.79 96.89,-54.72 19.16,-2.57 110.37,0.45 136.37,0.72 688.94,7.14 399.27,-37.69 692.99,-85.93 211.43,-34.71 258.47,80.47 423.04,89.76 127.07,7.18 392.8,18.01 486.95,-27.5l-3.69 -115.42c-64.68,-21.57 -1782.31,-32.25 -1860.24,-3.75 -104.13,38.06 -183.69,306.39 -176.5,411.23 212.92,14.22 453.48,-12.84 550.36,141.47 187.38,298.41 -623.07,947.09 -484.78,1487.68 126.13,10.85 1199.81,29.77 1241,-17.08 1.81,-2.05 60.72,-206.08 -199.64,-211.57 -364.46,-7.69 -682.67,255.42 -154.38,-855.95 -61.29,-99.24 -172.74,-137.77 -210.92,-304.5 -48.44,-211.52 21.38,-256.11 64.78,-418.25 -107.05,-0.43 -544.36,29.18 -602.23,-36.19zm1485.17 305.63c131.64,-28.49 264.27,-131.65 302.4,-265.06l-406.45 -2.01 104.05 267.07z"/>
  <path fill="white" d="M7515.11 2321.03l6.62 175.28 118.28 2.41c16.32,-195.21 26.75,-787.38 -13.66,-896.91l-72.28 -10.68c-78.05,77.18 -37.92,183.18 -38.24,328.09 -0.3,133.92 -0.41,267.87 -0.72,401.81z"/>
  <polygon fill="#0C2CBA" fill-rule="nonzero" points="9034.88,4598.1 9034.88,4299.22 9078.43,4299.22 9078.43,4447.41 9241.45,4299.22 9300.28,4299.22 9162.62,4420.41 9306.24,4598.1 9248.94,4598.1 9132.14,4447.27 9078.43,4494.58 9078.43,4598.1 "/>
  <polygon id="_1" fill="#0C2CBA" fill-rule="nonzero" points="9598.09,4598.1 9598.09,4299.22 9835.07,4299.22 9835.07,4334.28 9641.63,4334.28 9641.63,4426.12 9822.69,4426.12 9822.69,4461.18 9641.63,4461.18 9641.63,4563.04 9842.86,4563.04 9842.86,4598.1 "/>
  <polygon id="_2" fill="#0C2CBA" fill-rule="nonzero" points="10158.55,4598.1 10158.55,4299.22 10395.52,4299.22 10395.52,4334.28 10202.09,4334.28 10202.09,4426.12 10383.15,4426.12 10383.15,4461.18 10202.09,4461.18 10202.09,4563.04 10403.31,4563.04 10403.31,4598.1 "/>
  <path id="_3" fill="#0C2CBA" fill-rule="nonzero" d="M10718.08 4598.1l0 -298.88 123.92 0c21.77,0 38.42,0.97 49.96,2.85 16.12,2.44 29.64,7.1 40.56,13.92 10.93,6.88 19.71,16.49 26.36,28.8 6.64,12.31 9.94,25.88 9.94,40.7 0,25.32 -8.87,46.82 -26.67,64.35 -17.72,17.6 -49.88,26.37 -96.33,26.37l-84.19 0 0 121.89 -43.55 0zm43.55 -156.95l84.79 0c28.11,0 47.98,-4.73 59.83,-14.27 11.76,-9.53 17.64,-22.88 17.64,-40.21 0,-12.45 -3.43,-23.17 -10.39,-32.07 -6.95,-8.91 -16.12,-14.82 -27.43,-17.67 -7.33,-1.74 -20.85,-2.65 -40.48,-2.65l-83.96 0 0 106.87z"/>
  <polygon id="_4" fill="#0C2CBA" fill-rule="nonzero" points="11532.32,4598.1 11532.32,4299.22 11575.87,4299.22 11575.87,4598.1 "/>
  <polygon id="_5" fill="#0C2CBA" fill-rule="nonzero" points="11990.48,4598.1 11990.48,4334.28 11882.31,4334.28 11882.31,4299.22 12142.2,4299.22 12142.2,4334.28 12034.03,4334.28 12034.03,4598.1 "/>
  <polygon id="_6" fill="#0C2CBA" fill-rule="nonzero" points="12687.77,4598.1 12687.77,4299.22 12732.38,4299.22 12904.58,4533.82 12904.58,4299.22 12946.3,4299.22 12946.3,4598.1 12901.68,4598.1 12729.48,4363.5 12729.48,4598.1 "/>
  <path id="_7" fill="#0C2CBA" fill-rule="nonzero" d="M13237.97 4598.1l125.91 -298.88 47.75 0 133.69 298.88 -49.5 0 -37.97 -90.58 -138.2 0 -35.6 90.58 -46.08 0zm94.43 -122.72l111.85 0 -34.23 -82.86c-10.31,-25.19 -18.1,-45.99 -23.53,-62.41 -4.5,19.48 -10.54,38.61 -18.11,57.54l-35.98 87.73z"/>
  <path id="_8" fill="#0C2CBA" fill-rule="nonzero" d="M14049.4 4299.22l43.54 0 0 172.61c0,30.05 -3.75,53.92 -11.15,71.59 -7.49,17.6 -20.94,32 -40.34,43.06 -19.48,11.06 -44.93,16.63 -76.55,16.63 -30.64,0 -55.77,-4.8 -75.25,-14.47 -19.56,-9.67 -33.46,-23.59 -41.78,-41.88 -8.34,-18.3 -12.53,-43.28 -12.53,-74.93l0 -172.61 43.54 0 0 172.54c0,25.95 2.67,45.15 7.95,57.39 5.27,12.32 14.28,21.85 27.2,28.46 12.82,6.68 28.57,10.02 47.13,10.02 31.77,0 54.47,-6.61 67.99,-19.76 13.52,-13.22 20.25,-38.54 20.25,-76.11l0 -172.54z"/>
  <path id="_9" fill="#0C2CBA" fill-rule="nonzero" d="M14573.7 4480.8l0 -35.06 138.89 0 0 110.76c-21.31,15.44 -43.31,27.13 -66.01,34.92 -22.68,7.79 -45.99,11.69 -69.82,11.69 -32.24,0 -61.5,-6.26 -87.85,-18.85 -26.29,-12.53 -46.22,-30.76 -59.6,-54.48 -13.44,-23.79 -20.17,-50.37 -20.17,-79.66 0,-29.08 6.66,-56.21 20.02,-81.47 13.38,-25.18 32.55,-43.9 57.61,-56.07 25.06,-12.25 53.94,-18.37 86.63,-18.37 23.68,0 45.15,3.48 64.32,10.51 19.17,7.02 34.23,16.76 45.08,29.22 10.92,12.52 19.17,28.87 24.83,48.97l-39.2 9.74c-4.96,-15.16 -11.07,-27.13 -18.33,-35.89 -7.34,-8.7 -17.73,-15.66 -31.32,-20.88 -13.53,-5.21 -28.57,-7.86 -45.15,-7.86 -19.79,0 -36.9,2.79 -51.42,8.28 -14.44,5.5 -26.04,12.73 -34.98,21.78 -8.86,8.97 -15.75,18.85 -20.63,29.57 -8.33,18.57 -12.53,38.61 -12.53,60.24 0,26.72 5.04,49.05 15.05,67.07 10.08,17.95 24.75,31.31 43.92,40.01 19.25,8.69 39.66,13.08 61.28,13.08 18.79,0 37.12,-3.34 55,-9.95 17.88,-6.68 31.4,-13.71 40.64,-21.29l0 -56.01 -96.26 0z"/>
  <polygon id="_10" fill="#0C2CBA" fill-rule="nonzero" points="15033.23,4598.1 15033.23,4299.22 15076.78,4299.22 15076.78,4422.36 15246.38,4422.36 15246.38,4299.22 15289.92,4299.22 15289.92,4598.1 15246.38,4598.1 15246.38,4457.43 15076.78,4457.43 15076.78,4598.1 "/>
  <polygon id="_11" fill="#0C2CBA" fill-rule="nonzero" points="15700.55,4598.1 15700.55,4334.28 15592.38,4334.28 15592.38,4299.22 15852.27,4299.22 15852.27,4334.28 15744.1,4334.28 15744.1,4598.1 "/>
  <path id="_12" fill="#0C2CBA" fill-rule="nonzero" d="M16244.35 4598.1l0 -126.62 -126.51 -172.26 52.26 0 64.86 90.44c12.07,16.7 23.3,33.54 33.54,50.3 10,-15.65 22.14,-33.18 36.28,-52.66l63.56 -88.08 50.65 0 -131.09 172.26 0 126.62 -43.55 0z"/>
  <path fill="#0C2CBA" fill-rule="nonzero" d="M5208.14 2815.51c76.44,-128.72 76.44,-386.15 0,-522.92 -150.14,-268.16 -496.81,-273.52 -649.68,-273.52l-1449.52 0 -5.45 45.59c35.48,10.72 54.59,18.77 76.44,50.95 10.91,18.77 8.18,64.36 8.18,77.76l0 1802.05c0,8.04 2.73,67.04 -2.73,72.4 -21.83,29.5 -49.14,45.59 -76.44,45.59l0 40.22 1457.7 -2.68c171.99,-5.36 461.34,-10.73 655.15,-244.03 122.84,-144.8 141.95,-343.24 114.65,-480 -38.21,-227.94 -152.86,-289.62 -363.06,-402.25 114.65,-67.04 180.17,-117.99 234.76,-209.16zm-799.82 -447.83c103.73,0 343.95,-21.45 420.39,115.31 40.94,72.4 21.83,209.16 -8.2,265.48 -73.7,131.4 -368.51,112.63 -428.57,112.63l-783.44 0 0 -493.42 799.82 0zm-797.09 842.02l786.17 0c13.65,0 401.28,-21.45 491.36,136.77 46.4,80.45 49.13,209.16 -5.46,294.97 -95.55,155.54 -387.63,142.13 -469.52,142.13l-802.55 0 0 -573.87z"/>
  <path fill="#0C2CBA" fill-rule="nonzero" d="M8513.63 2059.29c101,29.5 70.98,5.37 141.95,99.22l821.66 1115.55 0 729.4c-2.73,10.73 0,64.36 -5.46,77.77 -16.37,32.18 -43.68,40.22 -65.51,40.22l0 29.5 565.06 0 2.73 -29.5c-38.22,-13.41 -49.13,0 -65.51,-40.22 -2.74,-13.41 -2.74,-69.72 -2.74,-77.77l0 -777.67 742.5 -1043.14c73.71,-93.86 76.44,-93.86 163.79,-123.36l0 -40.22 -603.28 0 0 29.5 46.41 24.13c0,34.86 -10.93,34.86 -30.03,72.41l-535.03 732.08 -570.53 -777.67 0 -26.82 35.49 -13.41 5.45 -40.22 -646.95 0 0 40.22z"/>
  <path fill="white" fill-rule="nonzero" d="M11477.37 2053.93c45.96,16.09 62.18,-8.05 81.11,50.95 0,26.82 -2.71,75.08 2.69,96.53l0 1794.01c0,8.04 2.71,75.08 -2.69,85.81 -29.75,42.9 -48.67,21.45 -81.11,32.17l0 37.55 589.37 0 0 -37.55c-40.56,0 -56.77,-13.4 -78.4,-45.58 -5.41,-10.73 -2.71,-75.08 -2.71,-77.77l0 -742.8 594.77 0 562.34 788.39 18.92 32.18c8.11,16.08 8.11,16.08 8.11,26.81l-48.66 26.82 0 29.5 651.54 0 5.41 -29.5c-91.93,-29.5 -67.59,-10.73 -135.17,-99.21l-540.71 -756.23c164.91,-37.53 364.97,-101.9 486.64,-289.61 113.55,-185.02 113.55,-453.2 18.91,-616.77 -181.13,-327.16 -548.8,-340.56 -778.6,-340.56l-1351.76 0 0 34.86zm1257.13 319.11c73,0 397.42,-18.77 489.35,128.71 45.95,72.42 45.95,182.36 5.4,249.4 -105.44,179.67 -392.01,147.49 -470.41,147.49l-778.62 0 0 -525.6 754.28 0z"/>
  <path fill="white" fill-rule="nonzero" d="M16279.31 2204.1l-69.28 -24.14 -55.42 -21.45c-498.81,-206.49 -1097.38,-265.47 -1601.73,16.09 -365.79,201.12 -509.88,490.73 -543.13,777.67 -33.26,254.75 16.61,627.5 310.36,892.97 371.33,337.89 961.59,375.43 1363.41,305.71 144.1,-24.13 285.43,-69.72 390.73,-123.35 33.26,-18.78 88.67,-50.96 196.75,-120.68 16.63,-13.41 85.9,-58.99 96.99,-64.36 55.41,-42.9 36.02,-16.08 91.44,-16.08 16.64,-13.42 16.64,-16.1 5.54,-32.19 -5.54,-8.04 -16.61,-21.45 -19.38,-26.81l-277.13 -378.11 -30.48 16.09c11.09,85.81 24.94,99.23 -55.41,179.67 -44.35,40.22 -110.86,83.13 -180.14,120.67 -318.69,166.26 -811.94,163.58 -1083.51,24.13 -268.81,-136.76 -371.34,-345.92 -393.51,-555.08 -16.62,-158.23 24.94,-474.65 238.32,-646.28 274.35,-222.58 781.47,-219.89 1050.27,-142.13 80.36,18.78 157.95,48.28 205.06,72.41 63.73,32.19 91.45,53.64 99.76,64.35 47.12,48.28 44.33,59 44.33,101.91l22.17 8.04 293.75 -447.82 -27.71 -13.42c-24.93,32.19 -44.33,32.19 -72.05,32.19z"/>
  <g id="_1394302885536">
   <path fill="white" fill-rule="nonzero" d="M3093.33 502.53c15.15,5.83 22.13,2.33 31.45,24.28 4.65,9.31 3.49,30.28 3.49,38.43l0 776.2c0,7 1.16,27.77 -3.49,34.76 -5.83,17.47 -19.81,16.31 -31.45,19.8l0 15.15 222.49 0 2.34 -12.82c-22.14,-8.15 -23.3,-8.15 -30.3,-22.13 -1.16,-4.66 -1.16,-31.26 -1.16,-33.59l0 -599.33 575.46 610.98c15.14,13.79 22.13,20.77 17.47,33.59l-26.79 6.99 0 17.47 237.64 0 0 -13.98c-16.32,-8.15 -22.14,-2.33 -31.46,-25.63 -3.5,-9.12 -2.33,-30.09 -2.33,-37.08l0 -778.53c0,-6.99 -1.17,-30.28 1.16,-34.95 8.16,-13.78 20.97,-17.28 30.3,-17.28l0 -18.64 -225.99 0 0 18.64c12.8,0 29.11,5.82 32.61,16.11 2.33,3.51 1.16,32.63 1.16,36.12l0 569.04 -562.64 -602.82 0 -9.13 30.3 -8.15 0 -19.81 -250.46 0c-9.32,-1.16 -11.65,-1.16 -18.64,-1.16l-1.16 17.47z"/>
   <path fill="white" fill-rule="nonzero" d="M4642.14 503.7c20.97,8.15 29.12,12.82 25.63,27.95 0,1.17 -13.98,37.29 -13.98,37.29l-336.65 778.14c-4.66,10.49 -8.16,23.29 -13.98,30.28 -8.15,10.49 -24.47,16.31 -30.29,16.31l0 18.64 224.83 0 0 -22.13 -19.8 -12.82c0,-22.12 1.16,-13.97 8.15,-33.78l83.87 -186.38 428.68 0 102.5 225.99 -23.3 13.97 0 15.15 251.62 0 0 -17.47c-15.13,0 -25.62,-4.66 -32.61,-11.65 -5.82,-8.16 -13.98,-26.79 -15.15,-32.62l-378.58 -788.63c-1.17,-3.5 -15.15,-31.45 -13.99,-34.94 2.33,-19.81 13.99,-17.48 27.97,-27.96l0 -10.49 -274.92 0 0 15.15zm128.14 187.55l152.6 322.67 -295.88 0 143.28 -322.67z"/>
   <path fill="white" fill-rule="nonzero" d="M5374.32 503.7c13.99,0 27.96,4.66 32.61,19.8 2.33,4.66 8.17,36.11 8.17,37.27l0 499.75c0,109.5 -4.67,223.65 137.46,305.2 143.28,82.71 519.53,86.2 656.99,-4.66 131.63,-87.37 135.13,-209.68 130.46,-326.17l0 -469.45c0,-5.83 0,-34.95 2.33,-40.77 8.16,-26.79 13.98,-18.64 31.46,-18.64l0 -19.81 -251.62 0 0 17.48c17.48,6.98 22.13,-1.17 34.95,20.97 3.5,9.31 3.5,32.61 3.5,38.44l0 478.77c0,50.08 15.13,149.1 -66.4,196.87 -94.36,53.58 -330.83,54.75 -424.02,0 -94.36,-55.92 -76.89,-113 -79.22,-192.22l0 -485.76c0,-5.82 -1.17,-31.45 1.16,-37.27 7,-18.64 17.48,-19.8 33.79,-19.8l0 -17.48 -251.62 0 0 17.48z"/>
   <path fill="white" fill-rule="nonzero" d="M7454.94 580.39c-3.49,0 -23.3,-9.32 -29.12,-11.66l-17.48 -6.98c-207.35,-91.83 -503.22,-111.63 -703.59,13.98 -168.9,106.78 -208.51,245.2 -209.68,379.94 -1.16,132.8 46.6,283.08 203.86,386.75 208.52,136.29 506.72,99.01 737.37,-3.49l24.46 -8.17c13.98,-6.98 25.63,-12.8 78.06,-44.25l0 -13.98 -22.14 -11.66c-2.33,-6.98 -3.49,-17.46 -3.49,-19.79l0 -251.62c0,-12.82 -3.51,-32.62 13.97,-43.1l9.33 0 0 -18.64 -412.38 0c-2.33,0 -31.44,0 -31.44,0 -17.48,-8.15 -15.15,-18.44 -20.97,-25.44l-13.99 -2.33 0 219.97 15.15 2.34 2.33 -16.31c6.98,-16.31 11.64,-13.99 24.46,-17.48l25.63 0 210.84 0 0 103.68c-57.07,41.93 -92.03,53.59 -126.97,64.06 -116.48,33.79 -315.69,31.46 -429.85,-65.23 -94.35,-80.37 -114.16,-213.18 -105.99,-281.7 12.8,-96.5 57.07,-177.84 166.57,-232.4 117.66,-58.25 347.14,-52.41 462.47,12.62 27.95,16.31 41.92,27.95 47.76,37.28 20.96,23.3 11.64,25.63 11.64,47.56l16.31 4.65 122.31 -206.75 -16.31 -8.16c-10.48,11.65 -16.3,16.31 -29.12,16.31z"/>
   <path fill="white" fill-rule="nonzero" d="M7726.06 499.04c18.64,6.99 27.95,5.82 36.1,25.63 3.51,9.31 8.17,30.28 8.17,40.77l0 779.31c0,6.98 1.16,25.62 -3.5,32.61 -8.16,12.82 -20.97,17.48 -29.13,17.48l0 17.47 243.47 0 0 -16.31c-20.97,-6.98 -30.28,-1.16 -30.28,-22.13 -4.67,-9.32 -3.51,-25.63 -3.51,-36.11l0 -330.82 568.48 0 0 365.76 -27.96 17.48 0 22.13 249.28 0 0 -18.64c-43.1,-18.64 -43.1,-20.97 -43.1,-60.56l0 -778.16c0,-5.82 -1.17,-27.95 1.17,-33.77 6.99,-19.81 11.65,-12.82 27.96,-17.48l0 -17.48 -246.96 0 0 17.48c13.98,4.66 20.97,-1.17 32.62,15.15 1.16,2.33 3.49,29.12 3.49,31.44l0 33.78c0,10.49 0,23.3 0,30.3l0 232.97 -569.64 0 0 -232.97 0 -64.08c0,-6.98 -1.16,-23.29 3.5,-31.44 9.32,-13.99 15.15,-16.32 26.8,-16.32l3.49 -16.31 -250.45 0 0 12.82z"/>
   <path fill="white" fill-rule="nonzero" d="M8854.03 669.11l18.65 0c0,-20.97 3.49,-25.62 16.3,-31.45 3.5,-1.16 31.46,-1.16 32.62,-1.16l32.61 0c5.82,0 12.82,0 18.64,0l249.29 0 0 708.25c0,11.65 -1.16,20.97 -1.16,32.61 -8.16,19.8 -9.33,18.64 -24.46,18.64l0 16.31 239.96 0 1.16 -15.15c-15.14,0 -18.64,-2.32 -30.28,-20.96 -2.33,-4.66 -1.16,-31.45 -1.16,-37.27l0 -702.43 232.97 0c12.81,0 40.77,0 64.06,1.16 7,1.17 25.63,2.33 30.3,5.83 13.97,4.65 19.8,17.47 19.8,26.79l12.81 0 0 -212.01 -17.47 0c-5.83,20.97 0,19.8 -20.97,27.95l-32.62 0 -769.99 0c-11.65,0 -19.8,2.33 -27.95,-1.16 -11.66,0 -18.64,-5.82 -24.46,-16.31l0 -11.65 -18.65 0 0 212.01z"/>
   <path fill="white" fill-rule="nonzero" d="M9838.86 503.7c43.1,12.82 30.28,2.33 60.58,43.1l350.63 484.6 0 316.84c-1.17,4.66 0,27.96 -2.34,33.79 -6.99,13.97 -18.63,17.46 -27.96,17.46l0 12.82 241.14 0 1.17 -12.82c-16.32,-5.82 -20.97,0 -27.97,-17.46 -1.17,-5.83 -1.17,-30.3 -1.17,-33.79l0 -337.81 316.86 -453.15c31.45,-40.76 32.61,-40.76 69.89,-53.58l0 -17.48 -257.44 0 0 12.82 19.81 10.48c0,15.15 -4.66,15.15 -12.82,31.46l-228.32 318.01 -243.46 -337.81 0 -11.66 15.15 -5.82 2.33 -17.48 -276.08 0 0 17.48z"/>
  </g>
  <path fill="none" stroke="#1E1A16" stroke-width="17.64" stroke-miterlimit="22.9256" d="M7575.84 1591.13l9.23 0c35.47,0 64.41,28.94 64.41,64.41l0 843.18 -138.05 0 0 -843.18c0,-35.47 28.94,-64.41 64.41,-64.41z"/>
  <path fill="#0C2CBA" d="M6991.72 1562.96c148.06,0 291.28,20.44 426.9,58.63 -2.37,10.94 -3.62,22.3 -3.62,33.95l0 150.44c-133.32,-42.61 -275.56,-65.68 -423.28,-65.68 -758,0 -1372.49,605.86 -1372.49,1353.24 0,344.64 130.76,659.13 345.92,898.06 -28.85,58.15 -55.17,117.79 -76.83,178.43 -277.53,-276.51 -448.95,-656.74 -448.95,-1076.49 0,-845.33 695.01,-1530.58 1552.35,-1530.58zm325.82 2845.33c600.7,-144.23 1046.66,-678.09 1046.66,-1314.75 0,-472.68 -245.85,-888.67 -618.29,-1130.67l0 -207.33c476.06,261.44 798.15,762.59 798.15,1338 0,724.55 -510.62,1331.44 -1196.4,1490.08 5.6,-47.67 -0.73,-98.95 -13.08,-135.43 -4.81,-14.2 -10.52,-27.47 -17.04,-39.9z"/>
  <path fill="white" d="M7103.69 2691.36c225.18,0 407.73,182.55 407.73,407.73 0,225.19 -182.55,407.73 -407.73,407.73 -225.18,0 -407.73,-182.54 -407.73,-407.73 0,-225.18 182.55,-407.73 407.73,-407.73zm0 110.48c106.41,0 199.74,55.92 252.26,139.97 -40.72,-41.48 -97.44,-67.22 -160.17,-67.22 -124,0 -224.5,100.51 -224.5,224.5 0,124 100.5,224.5 224.5,224.5 62.73,0 119.45,-25.74 160.17,-67.21 -52.52,84.04 -145.85,139.97 -252.26,139.97 -164.18,0 -297.25,-133.08 -297.25,-297.26 0,-164.17 133.07,-297.25 297.25,-297.25z"/>
  <path fill="white" d="M6997.82 2041.21c158.55,0 308.92,34.93 443.93,97.4 -63.03,-13.94 -128.51,-21.33 -195.72,-21.33 -270.97,0 -514.03,119.36 -679.57,308.34 -56.61,0.44 -113.2,1.1 -169.78,1.98 -72.77,1.12 -145.73,2.48 -218.45,5.67l-2.82 0.11c194.06,-239.23 490.35,-392.17 822.41,-392.17zm-139.21 1795.21c117.41,55.85 248.75,87.13 387.42,87.13 266.29,0 505.63,-115.27 670.93,-298.6 -182.43,318.57 -525.71,533.23 -919.14,533.23 -87.15,0 -171.81,-10.61 -252.82,-30.47l4.59 -14.04c30.92,-92.23 68.63,-185.35 109.02,-277.25zm-730.44 -133.28c-116.78,-167.97 -186.12,-371.37 -188.69,-590.83 89.28,3.86 181.47,2.4 268.53,14.99 47.39,6.86 113.41,20.16 141.19,64.39 54.23,86.36 -166.45,422.95 -221.03,511.45z"/>
 </g>
</svg>
