<?xml version="1.0" encoding="UTF-8"?>
<!DOCTYPE svg PUBLIC "-//W3C//DTD SVG 1.0//EN" "http://www.w3.org/TR/2001/REC-SVG-20010904/DTD/svg10.dtd">
<!-- Creator: CorelDRAW -->
<svg xmlns="http://www.w3.org/2000/svg" xml:space="preserve" width="100%" height="100%" version="1.0" shape-rendering="geometricPrecision" text-rendering="geometricPrecision" image-rendering="optimizeQuality" fill-rule="evenodd" clip-rule="evenodd"
viewBox="0 0 19476.5 5267.06"
 xmlns:xlink="http://www.w3.org/1999/xlink"
 xmlns:xodm="http://www.corel.com/coreldraw/odm/2003">
 <g id="Layer_x0020_1">
  <metadata id="CorelCorpID_0Corel-Layer"/>
  <rect fill="white" width="19476.5" height="5267.06"/>
  <path fill="black" d="M1020.65 909.79c924.44,-65.27 1855.76,-65.27 2773.37,0 451.96,32.12 739.89,372.55 780.87,823.7 53.21,585.86 53.21,1171.72 0,1757.5 -40.98,451.15 -329.6,813.88 -780.87,854.68 -910.75,82.42 -1838.67,78.94 -2773.37,0 -451.52,-38.11 -750.68,-403.88 -796.36,-854.68 -58.37,-575.5 -58.37,-1161.36 0,-1757.5 44.08,-450.8 344.35,-791.85 796.36,-823.7zm30.12 427.29c-247.18,17.42 -377.16,203.23 -400.16,438.2 -54.46,556.35 -56.61,1116.19 -0.12,1672.45 23.56,232.2 155.49,449.93 406.15,471.07 897.43,75.81 1801.59,81.46 2698.8,0.27 249.32,-22.54 371.81,-235.14 392.85,-466.81 50.82,-558.97 50.82,-1120.97 0,-1679.94 -21.04,-232.01 -138.49,-417.75 -384.66,-435.24 -902.34,-64.14 -1810.52,-63.69 -2712.86,0zm9839.54 -427.29c924.49,-65.27 1540.03,-65.27 2457.61,0 451.93,32.12 739.92,372.55 780.89,823.7 8.44,93.05 15.49,185.98 21.34,278.93l-429.41 0c-5.13,-80.08 -11.3,-160.13 -18.6,-240.1 -21.07,-232.01 -138.47,-417.75 -384.59,-435.24 -902.36,-64.14 -1494.83,-63.69 -2397.12,0 -247.16,17.42 -377.19,203.23 -400.15,438.2 -54.47,556.35 -56.57,1116.19 -0.18,1672.45 23.59,232.2 155.62,449.93 406.25,471.07 897.4,75.81 1485.71,81.46 2382.94,0.27 249.33,-22.54 371.78,-235.14 392.85,-466.81 7.65,-83.97 14.18,-168.04 19.49,-252.21l429.21 0c-5.92,96.95 -13.15,194 -22.03,290.94 -40.97,451.15 -329.75,813.88 -780.89,854.68 -910.72,82.42 -1522.86,78.94 -2457.61,0 -451.49,-38.11 -750.7,-403.88 -796.38,-854.68 -58.4,-575.5 -58.4,-1161.36 0,-1757.5 44.13,-450.8 344.37,-791.85 796.38,-823.7zm8405.69 3488.28l-542.27 0 -415.62 -733.73 -2867.51 0 -415.57 733.73 -542.17 0 1994.38 -3521.78c264.74,0 529.46,0 794.21,0l1994.55 3521.78zm-1202.78 -1166.25l-1115.87 -1970.27 -145.94 0 -1115.85 1970.27 2377.66 0zm-12278.3 -633.47l2485.65 0c487.63,0 645.32,-182.13 645.32,-666.08 0,-462.47 -155.79,-645.22 -645.32,-645.22l-2485.65 0 0 1311.3zm2561.21 -1722.06c658.96,0 1042.31,367.42 1042.31,806.65l0 583.59c0,308.16 -303.47,602.22 -518.76,602.22 219.04,0 453.49,301.2 453.49,619.98l0 909.34 -465.67 0 0 -891.16c0,-208.78 -234.11,-442.96 -442.98,-442.96l-2629.6 0 0 1334.12 -465.63 0 0 -3521.78c1008.88,0 2017.89,0 3026.84,0z"/>
 </g>
</svg>
