<?xml version="1.0" encoding="UTF-8"?>
<!DOCTYPE svg PUBLIC "-//W3C//DTD SVG 1.0//EN" "http://www.w3.org/TR/2001/REC-SVG-20010904/DTD/svg10.dtd">
<!-- Creator: CorelDRAW -->
<svg xmlns="http://www.w3.org/2000/svg" xml:space="preserve" width="100%" height="100%" version="1.0" shape-rendering="geometricPrecision" text-rendering="geometricPrecision" image-rendering="optimizeQuality" fill-rule="evenodd" clip-rule="evenodd"
viewBox="0 0 19476.5 5267.06"
 xmlns:xlink="http://www.w3.org/1999/xlink"
 xmlns:xodm="http://www.corel.com/coreldraw/odm/2003">
 <g id="Layer_x0020_1">
  <metadata id="CorelCorpID_0Corel-Layer"/>
  <rect fill="white" width="19476.5" height="5267.06"/>
  <g id="_2194274306336">
   <path fill="#01FF03" fill-rule="nonzero" d="M10152.16 566.09l5370.41 -4.51c233.61,-0.2 503.71,30.38 684.62,193.09 238.99,214.94 220.97,554.7 -1.06,773.8l-601.2 593.26c-99.22,97.91 -196.04,179.59 -309.92,245.64l1204.21 1062.64c172.14,151.89 202.65,219.36 124.32,398.33l-448.81 1025.47c-125.16,285.97 -333.29,327.38 -616.38,327.38l-840.73 0 70.25 -154.54 -1172.04 0 0.14 -0.29c-55.24,0.28 -110.55,-0.17 -164.78,-7.5l-3.5 7.79 -573.57 0c-21.87,1.91 -43.82,2.65 -65.76,2.65 -23.19,0 -46.38,-0.78 -69.49,-2.65l-1451.71 0 23.82 -52.37c-127.34,55.28 -269.57,54.98 -406.48,54.98 -73.83,0 -148.89,-4.63 -220.36,-21.71l-8.69 19.1 -1202.08 0c-26.67,0.74 -53.36,0.93 -79.93,0.93 -127.19,0 -266.83,5.45 -385.14,-48.32 -108.68,44.28 -228.06,51.44 -347.38,51.44l-105.26 0c-112.97,0 -233.68,1.05 -341.23,-37.58 -112.78,-40.51 -190.65,-116.56 -230.18,-209.2 -138.38,205.71 -324.54,244.73 -599.37,244.73 -81.64,0 -164.98,2.38 -245.62,-10.66l-3.94 8.66 -1324.56 0 0.13 -0.28c-102.68,0.49 -205.54,-1.86 -301.27,-46.32 -0.87,-0.41 -1.74,-0.82 -2.61,-1.22 -116.21,135.81 -247.34,196.57 -444.78,196.57l-794.52 0 67.71 -150.85c-115.71,-10.67 -228.08,-42.37 -317.45,-123.66 -38.03,-34.61 -67.63,-73.89 -88.86,-116.51l-110.15 242.27 -1006.87 0 676.74 -1488.37 630.27 0c123.49,0 251.42,1.54 362.93,62.69 47.07,25.81 87.38,59.25 119.01,99.38 49.78,-4.1 99.83,-5.19 150.19,-6.06 73.86,-1.29 149.43,-2.2 223.12,7.97l977.42 0c74.65,-10.2 151.53,-10.27 226.66,-10.27 78.51,0 155.92,0.12 233.23,13.15l86.08 -189.3 -3213.49 -187.52c-178.16,-10.39 -322.17,-145.32 -344.12,-322.44 -21.96,-177.08 84.8,-343.14 255,-396.71l1367.51 -430.39c125.65,-39.54 159.84,-76.69 250.46,-170.26l1010.61 -1043.46 -1131.92 -442.93c-351.09,-120.67 -219.59,-436.26 44.74,-436.26l4670.47 0c221.58,0 449.44,58.6 605.43,225.05 68.59,73.17 116.11,161.05 139.73,255.17zm4103.92 3052.3l-1004.85 -878.4 -807.25 800.18 74.55 0c138.04,0 301.61,-9.25 427.66,54.3 49.91,25.16 92.77,59.99 126.27,102.27 51.67,-3.63 103.67,-3.88 155.34,-3.88 120.93,0 247.88,-6.41 361.94,41.36 5.27,2.2 10.5,4.52 15.67,6.94 116.94,-48.57 245.6,-49.17 375.96,-49.17 79.14,0 157.18,0.12 235.12,13.46l39.59 -87.06zm-5794.68 12.06l-1029.19 -60.07 -66.25 145.72c111.64,-29.77 219.39,-22.97 333.1,-22.97 124.9,0 249.98,-8.31 365.8,50.38 77.76,39.4 136.39,101.52 170.53,176.21l9.88 -21.74c56.68,-124.67 128.77,-210.25 216.13,-267.53zm-409.11 -1282.79c-346.28,35.71 -700.99,16.26 -1045.63,16.26l-137.22 0c-16.62,29.71 -37.26,57.22 -61.46,81.72l-157.6 159.49 1324.23 -0.31c-1.6,-93.46 28.76,-179.66 77.68,-257.16z"/>
   <path fill="black" d="M9955.83 773.42l5566.91 -4.67c174.17,0 409.81,17.54 545.92,139.96 150.75,135.58 128.78,337.28 -8.05,472.3l-601.19 593.26c-118.67,117.09 -228.82,206.49 -384.3,271.22 -54.58,22.73 -112.04,41.24 -171.06,56.51l1338.55 1163.65c29.57,25.72 39.58,65.11 25.85,101.83 -13.73,36.71 -47.12,59.88 -86.33,59.88l-1601.02 0 -1346.02 -1176.65c-10.93,19.72 -24.74,38.1 -41.28,54.51l-998.87 990.11c-89.49,88.7 -206.63,133.28 -332.47,126.07l-8566.14 -499.89c-78.4,-4.57 -140.95,-63.18 -150.61,-141.12 -9.66,-77.93 36.69,-150.03 111.6,-173.61l1367.51 -430.39c163.52,-50.26 220.26,-103.12 337.09,-223.75l1197.79 -1236.73c1.55,-1.6 3.34,-3.47 5.3,-5.54 5.36,-5.67 7.42,-12.94 5.84,-20.57 -1.58,-7.63 -6.36,-13.47 -13.52,-16.55 -17.88,-7.65 -34.78,-14.07 -45.08,-17.77 -0.22,-0.07 -0.4,-0.14 -0.61,-0.22l-1005.11 -393.3c-39.54,-15.47 -61.96,-55.96 -54.09,-97.68 7.89,-41.72 43.5,-71.24 85.96,-71.24l4268.6 0c439.21,0 589.23,265.31 548.83,480.38zm-1527.66 1366.35c-455.08,124.61 -989.25,86.03 -1421.51,86.03l-231.71 0c-9.05,45.58 -31.25,88.39 -65.22,122.76l-390.05 394.76 1833.64 -0.43c-17.18,-27.77 -29.65,-59.33 -36.09,-94.98 -23.48,-129.83 47.6,-240.68 134.48,-328.92l176.46 -179.22z"/>
   <path fill="white" d="M12036.05 975.91l3486.69 0c449.75,0 505.83,145.67 392.36,257.64l-601.2 593.26c-204.08,201.39 -350.44,292.51 -883.71,337.74l1444.37 1255.65 -1215.67 0 -1422.83 -1243.8 -738.52 -2.64c-5.89,-0.02 -10.85,4.46 -11.45,10.35 -0.6,5.89 3.32,11.32 9.12,12.43l535.17 103.46c12.75,2.45 22.32,11.38 26.08,23.81 3.76,12.44 0.73,25.13 -8.49,34.27l-998.87 990.11c-47.93,47.51 -107.39,70.24 -174.78,66.38l-7687.4 -440.58c-6.21,-0.36 -11.02,-5.61 -10.84,-11.82 0.18,-6.23 5.28,-11.18 11.5,-11.18l6235.35 -1.47c636.38,-0.16 938.87,-209.08 1239.18,-510.35l1029.49 -1032.78c57.88,-58.06 149.13,-192.93 -113.01,-270.32l-542.54 -160.16zm-6301.04 -475.71l3671.99 0c449.75,0 391.56,335.91 232.09,335.91l-1154.49 0c-11.06,0 -20.36,7.56 -22.62,18.38 -2.26,10.82 3.22,21.47 13.35,25.9l729.07 319.48c21.53,9.44 35.76,27.29 40.18,50.36 4.4,23.08 -2.26,44.93 -18.79,61.63l-348.99 352.5c-437.02,441.44 -1318.6,354.28 -1870.14,354.28l-961.19 0c-5.94,0 -10.86,4.45 -11.46,10.35 -0.59,5.89 3.33,11.24 9.13,12.43l501.64 103.46c12.72,2.63 22.31,11.37 26.07,23.81 3.76,12.44 0.65,25.02 -8.48,34.27l-530.45 536.84 -1884.37 0 538.15 -165.38c205.41,-63.13 287.97,-136.13 425.03,-277.65l1197.79 -1236.73c157.92,-163.05 169.93,-293.37 -126.67,-399.68l-446.84 -160.16zm1988.47 441.36l-539.1 -87.16c-4.75,-0.77 -8.09,-5.02 -7.7,-9.82 0.38,-4.8 4.37,-8.47 9.18,-8.47l1098.73 0c18.98,0 35.19,10.77 42.53,28.27 7.35,17.51 3.68,36.62 -9.62,50.17l-645.94 657.79c-91.41,93.08 -174.7,127.39 -370.14,127.39l-212.45 0c-9.49,0 -17.6,-5.38 -21.28,-14.13 -3.69,-8.76 -1.88,-18.32 4.75,-25.12l663.88 -679.96c6.18,-6.34 8.18,-14.98 5.42,-23.38 -2.78,-8.4 -9.53,-14.17 -18.26,-15.58zm1354.95 39.03l2489.63 0c19.92,0 36.93,2.65 55.91,8.69l820.45 261.27c15.79,5.02 26.91,16.96 30.83,33.06 3.91,16.09 -0.5,31.81 -12.22,43.52l-250.26 250.15 -1168.84 0 248.71 -248.83c30.67,-30.7 8.04,-78.45 -68.41,-78.45l-1107.91 0c-4.81,0 -8.8,3.68 -9.18,8.48 -0.38,4.79 2.97,9.11 7.71,9.82l583.77 87.15c8.71,1.31 15.49,7.18 18.26,15.58 2.76,8.4 0.81,17.1 -5.42,23.38l-968.87 977.16c-37.57,37.9 -33.95,90.39 34.61,90.39l212.45 0c168,0 217.48,-47.44 309.67,-139.68l263.97 -264.1 1168.36 0 -320.44 320.3c-283.93,283.8 -551.74,340.78 -1143.18,361.32 -440.56,15.31 -881.93,15.7 -1324.2,0 -421.01,-14.94 -791.31,-24.77 -544.49,-275.46l1075.1 -1091.98c141.69,-143.91 -28.25,-236.02 -94.11,-263.92l-301.9 -127.85zm4933.77 364.81l-535.01 -83.07c-4.73,-0.73 -8.08,-5.03 -7.7,-9.82 0.38,-4.8 4.37,-8.48 9.18,-8.48l1079.01 0c18.98,0 35.19,10.78 42.53,28.28 7.34,17.5 3.87,36.88 -9.62,50.17l-466.28 459.2c-92.91,91.51 -165.27,136.86 -360.67,136.86l-212.45 0c-9.47,0 -17.61,-5.39 -21.29,-14.14 -3.68,-8.76 -1.93,-18.37 4.76,-25.11l490.38 -494.94c6.23,-6.28 8.19,-14.98 5.42,-23.38 -2.76,-8.4 -9.55,-14.22 -18.26,-15.57z"/>
   <path fill="black" d="M14927.54 3862.13l254.32 0c21.6,-3.61 43.53,-5.53 65.71,-5.53 25.04,0 50.33,1.66 75.18,5.53l1.66 0 -0.11 0.25c59.7,9.53 116.74,31.91 161.54,74.71 75.56,-55.83 170.4,-79.87 279.2,-79.87 31.53,0 61.41,1.35 89.78,5.58l0.02 -0.03 577.76 0 -405.48 926.44c-95.8,218.88 -249.97,230.85 -468.77,230.85l-590.49 0 70.25 -154.54 -1172.06 0 4.93 -10.85c-58.01,8.14 -122.27,10.24 -193.72,10.24 -91.49,0 -213.14,7.87 -296.83,-31 -6.35,-2.94 -12.49,-6.13 -18.42,-9.54l-18.51 41.15 -476.98 0c-17.98,1.85 -37.09,2.65 -58.16,2.65 -20.76,0 -41.78,-0.75 -62.6,-2.65l-26.62 0 1.66 -2.88c-37.8,-5.35 -74.25,-15.19 -106.38,-32.16l-15.93 35.04 -1061.07 0 529.32 -1164.22 451.79 0c101.66,0 264.02,-8.89 355.13,37.05 56.4,28.43 94.44,75.83 109.7,132.69 74.88,-16.33 158.1,-17.05 244.44,-17.05 91.35,0 215.21,-6.53 299.71,28.85 27.24,11.41 51.3,27.05 71.35,46.24 96.63,-73.14 217.52,-75.96 382.51,-75.96 75.06,0 154.7,-0.55 228.26,15.04 34.22,7.25 65.98,19.25 93.84,35.28l99.06 -217.85 605.27 0 -80.26 176.54zm-3901.15 3.39c62.04,-8.19 125.67,-9.13 183.32,-10.13 92.53,-1.6 214.49,-4.51 300.05,33.26 141.33,62.4 163.11,203.7 103.59,334.61l-78.17 171.96 -14.75 0c0.96,52.67 -19.01,105.64 -44.5,158.61 -49.81,103.53 -97.89,203.21 -203.66,260.29 -105.49,56.93 -250.64,54.01 -367.77,54.01 -100.24,0 -218.3,-8.28 -302.19,-69.9l-30.59 67.29 -1001.63 0 3.28 -7.21c-53.72,6.68 -113.33,8.14 -179.93,8.14 -103.89,0 -258.54,8.32 -347.85,-49.94 -10.92,-7.12 -20.91,-14.97 -29.96,-23.46 -87.95,61.87 -198.71,76.52 -354.71,76.52l-105.26 0c-88.67,0 -203.13,1.94 -286.77,-28.09 -146.86,-52.76 -188.03,-192.64 -125.79,-329.51l248.84 -547.3c106.86,-235.01 273.52,-276.81 512.89,-276.81l105.26 0c96.67,0 227.74,0.87 314.83,46.45 60.57,31.71 96.43,78.14 111.36,131.3 73.01,-15.85 156.95,-16.64 254.8,-16.64 96.52,0 230.18,-0.03 318.37,50.18l91.13 -200.44 1001.66 0 -75.85 166.81zm-3743.82 66.05c34.65,-26.02 74.76,-45.98 121.58,-58.88 92.85,-25.57 199.09,-18.43 294.91,-18.43 90.79,0 210.87,-8.63 292.97,32.98 75.04,38.01 117.37,110.59 116.24,194.55 -0.77,57.66 -21.74,114.52 -45.34,166.43l-155.33 341.61c-116.73,256.72 -264.81,277.69 -522.72,277.69 -93.91,0 -216.18,6.07 -302.84,-31.99 -10.67,-4.68 -20.62,-9.78 -29.9,-15.24l-20.57 45.23 -970.5 0 4.79 -10.54c-57.44,7.88 -120.98,9.93 -191.54,9.93 -91.49,0 -213.14,7.87 -296.83,-31 -42.79,-19.86 -76.33,-50.56 -98.06,-88.58l-50.66 71.62c-100.43,142 -191.75,197.32 -366.54,197.32l-545.58 0 66.4 -147.93c-46.28,2.17 -92.08,1.79 -134.24,1.79 -108.59,0 -238.08,-9.71 -322.41,-86.43 -67.03,-60.98 -85.1,-138.66 -73.58,-217.55 -61.01,4.92 -128.19,2.64 -201.71,2.46l-135.89 298.91 -652.87 0 530.22 -1166.11 526.53 0c90.14,0 204.83,-1.38 285.45,42.84 60.48,33.16 93.66,80.44 106.37,133.82 79.78,-18.13 166.7,-19.36 243.1,-20.68 79.37,-1.38 180.39,-3.71 261.52,19.49l1.88 -11.49 945.93 0c62.48,-9.58 133.38,-10.27 215.08,-10.27 75.06,0 154.71,-0.55 228.27,15.04 33.56,7.11 64.75,18.8 92.21,34.37l89.1 -195.94 605.27 0 -70.77 155.65c59.49,7.68 116.16,27.25 160.06,69.33z"/>
   <path fill="white" fill-rule="nonzero" d="M15333.45 4545.44c-40.58,89.27 -21.9,158.1 136,158.1 57.89,0 99.83,-14.12 139.69,-36.01 8.88,-4.87 19.41,-3.58 26.84,3.31 7.42,6.89 9.51,17.3 5.32,26.52l-12.66 27.84c-12.44,27.38 -44.4,42.25 -70.33,42.25l-298.63 0 -41.59 91.48 340.26 0c229.2,0 272.19,-22.43 321.16,-134.33l306.68 -700.7 -232.6 0 -13.95 27.37c-3.51,6.88 -9.58,11.24 -17.22,12.37 -7.65,1.13 -14.71,-1.3 -20.06,-6.87 -28.31,-29.56 -59.21,-38.42 -137.32,-38.42 -117.14,0 -206.08,31.09 -258.63,146.68l-172.96 380.41zm-11533.53 -255.53l139.14 -306.01 47.81 0c43.57,0 55.88,18.97 45.99,40.72l-76.72 168.74c-23.88,52.53 -65.98,96.55 -106.72,96.55l-49.5 0zm-487.3 414.48l298.85 0 135.91 -298.92 95.08 0c252.97,0 307.03,13.11 370.95,-127.48l122.49 -269.44c61.84,-136.04 -13.11,-148.01 -216.8,-148.01l-422.8 0 -383.68 843.85zm920.22 -182.9c-58.52,128.72 -8.15,185.51 215.97,185.51 306.96,0 327.65,-18.14 426.24,-223.03 51.96,-108 46,-115.46 -133.66,-175.31 -125.56,-41.83 -145.57,-55.07 -108.21,-121.99 28.64,-51.31 41.08,-66.28 88.62,-66.28 39.05,0 45.17,17.94 31.45,48.13l-29.8 65.57 252.3 0 35.23 -77.51c59.46,-130.79 -33.37,-143.91 -254.17,-140.09 -303.78,5.27 -314.53,35.39 -404.36,230.74 -39.38,85.62 -17.67,94.72 142.47,148.03 125.29,41.7 137.46,47.58 109.27,119.96 -19.2,49.3 -42.03,90.05 -87.88,90.05 -45.84,0 -57.4,-27.66 -13.33,-124.49l8.37 -18.4 -251.63 0 -26.88 59.11zm816.91 142.19c-9.9,60.51 -25.25,99.34 -71.02,99.34l-172.69 0 -40.45 90.12 296.64 0c113.5,0 159.75,-22.85 235,-129.24l494.65 -699.38 -251.28 0 -248.48 461.54c-5.73,10.65 -18.61,15.07 -29.67,10.19 -11.07,-4.89 -16.48,-17.39 -12.48,-28.8l155.62 -442.93 -251.27 0 -104.57 639.16zm591.89 -126.44c-83.04,179.36 15.36,166.54 232.68,166.54 269.95,0 330.08,-40.11 397.01,-187.22l40.82 -89.73 -252.12 0 -54.39 119.59c-20.29,44.63 -26.29,59.94 -75.53,59.94 -49.24,0 -59.96,-31.33 -39.34,-75.85l168.57 -364.04c20.62,-44.53 28.94,-48.51 78.18,-48.51 53.09,0 54.5,22.44 38.3,57.12l-49.64 106.32 241.88 0 76.14 -167.43c46.46,-102.18 -146.92,-99.72 -265.77,-99.72 -227.51,0 -294.37,-0.57 -371.31,165.59l-165.48 357.4zm669.69 167.15l251.27 0 242.33 -532.97c13.14,-28.9 28.46,-45.97 72.6,-45.97 38.11,0 54.47,17.11 41.35,45.97l-242.33 532.97 251.28 0 239.51 -526.79c52.56,-115.6 12.92,-158.42 -115.37,-158.42 -66.22,0 -121.44,17 -157.27,31.63 -7.13,2.91 -14.89,1.27 -20.23,-4.27 -5.34,-5.55 -6.68,-13.38 -3.49,-20.4l72.04 -158.42 -251.28 0 -380.41 836.67zm1244.04 -526.13c18.47,-40.74 26.98,-60.03 76.21,-60.03 49.25,0 43.1,19.35 24.66,60.03l-160.89 354.88c-18.44,40.69 -22.52,67.01 -71.76,67.01 -49.23,0 -47.57,-26.27 -29.11,-67.01l160.89 -354.88zm-423.49 356.44c-81.79,179.9 37.38,171.69 253,171.69 215.62,0 294.21,-3.27 376.04,-183.25l155.33 -341.61c81.83,-179.98 -1.57,-166.14 -217.19,-166.14 -215.62,0 -322.1,-19.69 -403.92,160.25l-163.26 359.06zm1157.89 43.96c-56.1,123.41 57.06,129.78 265.89,129.78l105.26 0c237.69,0 294.4,-33.14 370.95,-201.26l69.9 -153.55 -294.45 0 -81.36 178.96c-13.12,28.86 -30.78,50.32 -78.32,50.32 -47.54,0 -58.03,-21.42 -44.89,-50.32l230.26 -506.42c13.14,-28.9 27.78,-55.24 77.01,-55.24 45.85,0 59.31,26.38 46.19,55.24l-50.15 110.29 294.46 0 67.54 -148.55c50.18,-110.35 -11.83,-138.92 -257.97,-138.92l-105.26 0c-208.79,0 -296.95,30.02 -366.21,182.37l-248.85 547.3zm859.79 -55.82c-81.8,179.93 -42.01,182.48 243.88,182.48 254.68,0 304.16,-29.82 368.05,-170.4l35.12 -77.28 -254.66 0 -32.14 70.71c-17.9,39.39 -29.06,75.02 -78.29,75.02 -64.53,0 -48.8,-38.23 -32.67,-73.7l71.92 -158.23 365.04 0 99.04 -219.01c47.57,-105.2 31.27,-142.33 -243.77,-142.33 -215.62,0 -304.58,-8.4 -386.39,171.56l-155.13 341.18zm411.34 -349.61c12.54,-27.59 20.04,-50.78 77.76,-50.78 57.73,0 52.85,23.22 40.32,50.78l-33.16 72.93c-7.65,16.85 -23.48,27.04 -41.98,27.04l-52.5 0c-8.09,0 -15.04,-3.79 -19.43,-10.59 -4.38,-6.81 -4.95,-14.71 -1.61,-22.08l30.6 -67.3zm259.45 531.16l251.27 0 383.98 -844.55 -251.27 0 -383.98 844.55zm396.36 0l251.27 0 383.99 -844.55 -251.27 0 -383.99 844.55zm471.82 -182.9c-58.52,128.72 -8.15,185.51 215.97,185.51 306.96,0 327.65,-18.14 426.24,-223.03 51.96,-108 46.01,-115.46 -133.66,-175.31 -125.56,-41.83 -145.57,-55.07 -108.21,-121.99 28.64,-51.31 41.08,-66.28 88.62,-66.28 39.05,0 45.17,17.94 31.45,48.13l-29.8 65.57 252.3 0 35.23 -77.51c59.46,-130.79 -33.37,-143.91 -254.17,-140.09 -303.78,5.27 -314.53,35.39 -404.36,230.74 -39.38,85.62 -17.67,94.72 142.47,148.03 125.29,41.7 137.46,47.58 109.27,119.96 -19.2,49.3 -42.03,90.05 -87.88,90.05 -45.84,0 -57.4,-27.66 -13.33,-124.49l8.37 -18.4 -251.63 0 -26.88 59.11zm1099.15 182.9l281.82 0 157.32 -346.03c50.48,0 136.53,-9.14 98.68,74.1l-123.63 271.93 292.88 0 117.68 -258.79c46.33,-101.91 -2.58,-132.41 -49.18,-146.63 -4.1,-1.25 -6.74,-5.01 -6.51,-9.29 0.23,-4.28 3.23,-7.74 7.44,-8.56 96.66,-18.76 148.37,-59.57 205.69,-186.28l26.55 -58.7c80.89,-178.81 24.3,-173.72 -277.89,-173.72l-348.05 0 -382.8 841.97zm611.45 -725.02c54.88,0 129.07,-11.58 86.89,81.24l-36.34 79.99c-38.61,84.96 -66.85,72.47 -156.79,72.47l106.24 -233.7zm433.07 262.04l240.67 0 39.36 -86.53c11.34,-24.95 40.01,-35.74 77.36,-35.74 42.44,0 59.71,10.54 49.58,32.84l-39.14 86.09c-18.75,41.24 -149.57,64.93 -208.86,79.8 -189.76,47.6 -221.17,48.24 -284.91,188.44 -67.53,148.54 -71.09,200.73 102.1,200.73 66.61,0 89.74,-10.23 128.01,-31.62 22.06,-12.33 87.97,-16.3 61.83,28.97l241.1 0 239.86 -533.18c74.01,-164.52 -27.25,-156.09 -251.36,-156.09 -191.85,0 -293.5,1.76 -350.45,127.01l-45.15 99.28zm142.87 231.77c20.31,-44.67 47.09,-50.67 86.62,-60.49 46.24,-11.48 50.54,18.47 35.03,52.61l-39.95 87.84c-11.94,26.27 -30.59,48.61 -83.22,48.61 -17.21,0 -46.08,-23.93 -31.27,-56.49l32.79 -72.08zm469.51 64.06c-83.04,179.36 15.36,166.54 232.68,166.54 269.95,0 330.08,-40.11 397.01,-187.22l40.82 -89.73 -252.12 0 -54.39 119.59c-20.29,44.63 -26.29,59.94 -75.53,59.94 -49.24,0 -59.96,-31.33 -39.35,-75.85l168.58 -364.04c20.62,-44.53 28.94,-48.51 78.17,-48.51 53.1,0 54.51,22.44 38.31,57.12l-49.64 106.32 241.88 0 76.13 -167.43c46.47,-102.18 -146.92,-99.72 -265.76,-99.72 -227.51,0 -294.37,-0.57 -371.31,165.59l-165.48 357.4zm671.73 167.15l251.27 0 309.68 -681.13 -251.27 0 -309.68 681.13zm344.64 -758.01l251.27 0 45.32 -99.66 -251.28 0 -45.31 99.66zm52.14 758.01l251.27 0 242.23 -532.78c13.14,-28.9 30.45,-45.8 74.59,-45.8 47.54,0 56.95,32.84 41.4,67.05l-232.57 511.53 251.27 0 239.51 -526.79c52.56,-115.6 -22.86,-159.87 -133.22,-159.87 -55.7,0 -106.48,20.88 -144.37,42.53 -8.85,5.06 -19.5,3.89 -27.04,-2.99 -7.53,-6.87 -9.69,-17.36 -5.46,-26.64l3.35 -7.37 -251.27 0 -309.69 681.13zm1242.1 -533.91c13.14,-28.9 31.13,-43.37 76.97,-43.37 45.85,0 44.4,24.86 31.52,53.83l-155.66 350.04c-12.88,28.97 -18.33,56.88 -64.17,56.88 -45.84,0 -65.69,-27.98 -52.55,-56.88l163.89 -360.5z"/>
  </g>
 </g>
</svg>
