<?xml version="1.0" encoding="UTF-8"?>
<!DOCTYPE svg PUBLIC "-//W3C//DTD SVG 1.0//EN" "http://www.w3.org/TR/2001/REC-SVG-20010904/DTD/svg10.dtd">
<!-- Creator: CorelDRAW -->
<svg xmlns="http://www.w3.org/2000/svg" xml:space="preserve" width="100%" height="100%" version="1.0" shape-rendering="geometricPrecision" text-rendering="geometricPrecision" image-rendering="optimizeQuality" fill-rule="evenodd" clip-rule="evenodd"
viewBox="0 0 19476.5 5267.06"
 xmlns:xlink="http://www.w3.org/1999/xlink"
 xmlns:xodm="http://www.corel.com/coreldraw/odm/2003">
 <g id="Layer_x0020_1">
  <metadata id="CorelCorpID_0Corel-Layer"/>
  <rect fill="white" width="19476.5" height="5267.06"/>
  <path fill="black" fill-rule="nonzero" d="M12058.85 3744.52l-2322.66 0 -1183.36 -918.73 -2644.9 0 0 918.73 -1684.05 0 0 -1862.92 4676.26 0c285.69,0 521.27,-28.8 706.68,-87.15 235.57,-75.28 353.36,-186.96 353.36,-334.18 0,-287.63 -353.36,-431.43 -1060.04,-431.43l-4676.26 0 1097.68 -944.19 3420.71 0c847.01,0 1533.66,108.27 2059.89,324.86 591.48,247.03 887.22,598.99 887.22,1055.87 0,257.21 -119.12,489.88 -357.16,697.94 -238.07,208.15 -567.63,324.1 -988.62,435.78l1715.25 1145.42zm3216.31 404.5l-297.53 262.58 -1053.89 0c-56.49,0 -84.68,13.83 -84.68,41.61 0,27.78 28.19,41.71 84.68,41.71l758.34 0c180.45,0 331.34,30.06 452.6,90.3 125.34,64.01 187.98,146.8 187.98,248.48 0,100.74 -63.32,182.1 -189.78,244.22 -118.41,59.3 -268.56,88.94 -450.05,88.94l-1362.44 0 297.19 -262.58 1064.91 0c48.2,0 91.27,-5.64 129.8,-16.9 49.56,-14.1 74.34,-33.43 74.34,-57.87 0,-25.46 -24.78,-44.76 -74.34,-57.91 -37.18,-9.42 -80.58,-14.12 -130.21,-14.12l-758.34 0c-168.1,0 -308.56,-26.4 -421.52,-79.04 -121.25,-56.48 -181.83,-131.32 -181.83,-224.45 0,-94.18 60.58,-169.46 181.83,-225.94 112.96,-52.7 253.42,-79.03 421.52,-79.03l1351.42 0zm-2005.44 1017.84l-701.52 0 -714.94 -340.26 0 340.26 -462.96 0 0 -1017.84 462.96 0 0 348.71 714.94 -348.71 693.57 0 -1063.14 516.95 1071.09 500.89zm-1959.91 0l-671.63 0 -450.49 -255.48 -636.41 0 0 255.48 -462.89 0 0 -518.06 1285.3 0c78.52,0 143.27,-8.04 194.23,-24.27 64.76,-20.93 97.12,-52.03 97.12,-92.87 0,-80.07 -97.12,-120.06 -291.35,-120.06l-1285.3 0 301.7 -262.58 940.19 0c232.79,0 421.55,30.15 566.15,90.32 162.6,68.79 243.86,166.62 243.86,293.68 0,71.52 -32.73,136.29 -98.17,194.06 -65.37,57.91 -155.94,102.43 -271.69,133.46l539.38 306.32zm-2376.44 -463.03c0,308.72 -309.93,463.03 -929.85,463.03l-97.1 0c-619.94,0 -929.88,-154.31 -929.88,-463.03l0 -554.81 462.85 0 0 554.81c0,92.18 59.27,151.5 177.37,177.8 63.39,15.14 192.53,22.65 387.83,22.65 155.3,0 265.85,-11.29 331.97,-33.91 89.21,-29.14 133.97,-84.68 133.97,-166.54l0 -554.81 462.84 0 0 554.81zm-2060.15 -554.81l-386.43 903.52c-15.16,35.7 -46.12,65.88 -92.98,90.32 -50.96,26.4 -108.15,39.55 -171.51,39.55 -97.83,0 -182.53,-39.55 -254.16,-118.58l-454.6 -506.81 -456.67 506.81c-70.27,79.03 -154.31,118.58 -252.12,118.58 -63.34,0 -119.51,-12.74 -168.41,-38.19 -48.9,-25.39 -80.92,-55.98 -96.06,-91.68l-386.45 -903.52 506.27 0 196.34 537.88 417.38 -458.85c55.1,-60.24 130.91,-90.32 227.29,-90.32 50.99,0 99.55,8.48 145.69,25.38 46.17,17.01 81.63,38.64 106.43,64.94l417.43 458.85 194.25 -537.88 508.31 0zm8398.69 -404.5l-1728.69 0 0 -2715.68 -1350.57 0 1031.94 -944.19 2047.32 0 0 3659.87z"/>
 </g>
</svg>
