<?xml version="1.0" encoding="UTF-8"?>
<!DOCTYPE svg PUBLIC "-//W3C//DTD SVG 1.0//EN" "http://www.w3.org/TR/2001/REC-SVG-20010904/DTD/svg10.dtd">
<!-- Creator: CorelDRAW -->
<svg xmlns="http://www.w3.org/2000/svg" xml:space="preserve" width="100%" height="100%" version="1.0" shape-rendering="geometricPrecision" text-rendering="geometricPrecision" image-rendering="optimizeQuality" fill-rule="evenodd" clip-rule="evenodd"
viewBox="0 0 19476.5 5267.06"
 xmlns:xlink="http://www.w3.org/1999/xlink"
 xmlns:xodm="http://www.corel.com/coreldraw/odm/2003">
 <defs>
   <radialGradient id="id0" gradientUnits="userSpaceOnUse" gradientTransform="matrix(3.18627E-17 0.520358 -2.02453 1.23967E-16 9936 -4962)" cx="9730.23" cy="101.65" r="7729.85" fx="9730.23" fy="101.65">
    <stop offset="0" stop-opacity="1" stop-color="#0099FF"/>
    <stop offset="0.470588" stop-opacity="1" stop-color="#0099FF"/>
    <stop offset="1" stop-opacity="1" stop-color="white"/>
   </radialGradient>
   <radialGradient id="id1" gradientUnits="userSpaceOnUse" gradientTransform="matrix(2.91775E-17 0.476504 -2.02453 3.33563E-06 15777 -1651)" cx="9731.65" cy="2985.86" r="2793.95" fx="9731.65" fy="2985.86">
    <stop offset="0" stop-opacity="1" stop-color="#0099FF"/>
    <stop offset="0.470588" stop-opacity="1" stop-color="#0099FF"/>
    <stop offset="1" stop-opacity="1" stop-color="white"/>
   </radialGradient>
 </defs>
 <g id="Layer_x0020_1">
  <metadata id="CorelCorpID_0Corel-Layer"/>
  <rect fill="white" width="19476.5" height="5267.06"/>
  <path fill="black" d="M13608.77 848.57l574.11 0 125.95 608.13 124.5 -608.13 502.41 0 -378.14 951.48 0 943.61 -539.81 0 0 -943.13 -367.45 -855.21 0 232.38 -318.92 0 0 1565.96 -539.81 0 0 -1565.96 -317.18 0 0 -329.13 1134.34 0zm-7577.6 2965.12c2.3,2.03 4.63,4.05 6.96,6.04l0.91 0.81 0.88 0.86c31.96,30.97 64.62,61.24 97.42,90.41 36.05,30.11 71.09,62.34 105.41,95.26l1.07 1.02 1 1.12c36.43,40.71 66.61,86.79 92.15,134.98 29.91,56.47 51.15,117.62 66.44,180.16 17.63,82.42 23.39,168.14 23.39,251.71l0 178.02c-1.88,129.72 -44.48,246.29 -156.31,319.05 -106.86,66.32 -227.19,92.81 -351.61,92.81 -122.82,0 -241.23,-26.7 -346.12,-92.17 -114.37,-71.38 -160.38,-185.72 -161.79,-317.86l0 -505.28 411.44 0c-9.45,-12.14 -19.28,-23.98 -29.52,-35.48 -32.36,-31.86 -65.84,-62.81 -101.12,-91.41l-0.92 -0.75 -0.88 -0.81c-33.85,-31.07 -67.03,-62.84 -100.95,-93.8 -33.08,-30.19 -64.81,-61.87 -93.8,-97 -30.35,-39.68 -52.62,-83.68 -68.74,-130.08 -22.28,-51.07 -30.78,-107.03 -30.78,-162.48l0 -256.14c1.88,-133.03 46.59,-251.28 162.84,-323.84 106.37,-61.67 223.99,-86.59 345.56,-86.59 122.3,0 243.01,23.56 350.11,86.27 114.01,72.8 156.43,190.31 158.28,321.31l0 433.86 -381.32 0zm-96.26 -446.72c-6.63,-11.73 -17.26,-15.72 -30.86,-16.79 -11.47,0.86 -21.33,3.51 -25.09,15.86 -8.47,26.24 -13.37,52.74 -13.46,79.98 3.9,90.63 21.06,196.7 77.2,271.96l0 -271.15c0,-26.88 -2.8,-53.49 -7.79,-79.86zm-55.11 968.57l0 355.83c0,25.25 4.12,49.55 12.84,73.25l0.73 1.95 0.5 2.06c3.71,14.83 9.19,19.47 24.54,19.47 16.7,0 24.74,-6.58 30.62,-21.31 5.45,-24.72 8.22,-49.67 7.97,-75.03 -1.16,-117.15 -17.23,-252.81 -77.2,-356.22zm1420.53 -103.64c-49.02,34.86 -104.53,58.38 -162.43,74.06 -63.04,17.07 -127.93,24.72 -193.15,24.72l-32.41 0 0 795.24 -469.8 0 0 -2113.64 507.62 0c124.21,-1.86 245.13,23.93 351.62,91.8 119.15,82.34 155.3,221.15 156.58,358.75l0 417.76c-1.29,137.03 -38.29,272.51 -158.03,351.31zm698.84 -850.36l0 388.82 326.86 0 0 368.77 -326.86 0 0 617.53 342.11 0 0 369.26 -810.94 0 0 -2113.64 810.94 0 0 369.26 -342.11 0zm845.75 0l0 388.82 326.87 0 0 368.77 -326.87 0 0 617.53 342.11 0 0 369.26 -810.94 0 0 -2113.64 810.94 0 0 369.26 -342.11 0zm347.38 1744.38l0 -2113.64 507.91 0c122.22,0 242.41,23.36 349.2,84.76l0.98 0.58 0.93 0.61c112.98,73.92 155.41,192.53 156.82,324.06l0 1293.59c-1.42,129.95 -45.01,245.21 -157.26,318.65 -106.65,65.78 -226.87,91.39 -350.67,91.39l-507.91 0zm2230.95 -1184.8l71.91 -928.84 482.69 0 -292.41 2113.64 -533.14 0 -106.34 -1105.47 -120.46 1105.47 -522.55 0 -213.23 -2113.64 483.49 0 58.52 947.49 104.21 -947.49 507.78 0 79.53 928.84zm1074.56 629.7l-113.84 0 -61 555.1 -428.41 0 304.29 -2113.64 586.13 0 243.92 2113.64 -486.31 0 -44.78 -555.1zm801.24 -498.5l-338.39 -1060.04 496.73 0 93.51 607.58 92.43 -607.58 437.47 0 -312.9 1059.59 0 1054.05 -468.85 0 0 -1053.6zm-6386.71 -690.78l0 580.35 13.83 0 0.93 0.04c55.9,2.72 62.43,-42.22 62.43,-89.62l0 -401.19c0,-48.02 -7.52,-91.16 -63.78,-89.58l-13.41 0zm2749.74 0l0 1375.12 38.62 0c16.73,0 24.78,-6.65 30.67,-21.45 5.53,-24.26 7.93,-48.95 7.93,-73.86l0 -1184.54c0,-26.39 -2.73,-52.47 -7.77,-78.33 -6.78,-12.11 -17.87,-16 -32.03,-16.94l-37.42 0zm2761.51 820.5l44.35 0 -19.83 -316.21 -24.52 316.21zm-6576.1 -2875.02c83.44,17.3 163.49,46.33 215.71,95.53 91.9,86.62 113.55,219.8 110.87,340.1l0.01 500.28c0,81.9 5.59,184.33 35.16,261.55l0.44 1.24c19.54,57.56 39.63,115.13 61.56,171.85l17.82 46.09 -731.44 0 -9.99 -15.66c-26.33,-41.3 -45.53,-88.29 -60.56,-134.77 -26.36,-64.19 -33.08,-140.41 -33.08,-209.12l0 -575.63 0.01 -0.51c1.83,-61.44 -2.85,-129.45 -27.51,-186.63 -25.99,-44.79 -106.38,-55.97 -164.05,-58.54l0 1180.86 -721.68 0 0 -2592.89 816.47 0c192.8,-2.13 389.45,25.85 565.18,109.06l1.07 0.53c173.37,89.71 248.22,243.66 250.6,434.77l0 223.65c0,49.9 -6.48,99.53 -19.47,147.72l-0.67 2.52 -1.06 2.4c-22.44,50.68 -54.28,95.81 -92.25,136.03l-0.51 0.53 -0.53 0.54c-47.93,46.49 -108.54,80.1 -170.41,104.17 -13.57,5.3 -27.51,10.05 -41.69,14.33zm5106.61 -752.1c-17.8,-25.88 -52.72,-32.79 -82.36,-34.2 -25.11,1.2 -62.09,6.5 -72.77,33.07l-0.44 1.06c-14.12,31.98 -22.58,65.94 -22.58,100.99l0 1542.75c0,32.76 7.39,63.79 21.93,93.12l1.03 2.07 0.74 2.17c10.7,31.86 41.94,37.81 72.09,37.81 34.17,0 65.52,-8.51 82.21,-39.72 9.21,-31.04 13.58,-63.07 13.58,-95.45l0 -533.93 720.06 0 0 615.75c-2.62,179.22 -90.38,307.74 -251.8,383.32 -175.49,82.17 -372.57,109.59 -564.84,109.59 -190.92,0 -383.33,-29.94 -557.58,-110.73 -163.26,-75.69 -255.54,-203.27 -259.08,-385.05l0 -1702.39c3.48,-183.37 94.01,-313.44 259.01,-390.37l0.92 -0.42c175.12,-75.4 367.07,-103.25 556.73,-103.25 191.45,0 387.32,26.44 564,103.31l1 0.46c163.08,77.4 249.06,208.72 251.64,389.75l0 512.9 -720.06 0 0 -431.69c0,-34.09 -4.81,-67.97 -13.43,-100.92zm-4662.13 1838.61l0 -1236.25c2.61,-136.14 70.41,-232.55 192.94,-289.21l0.82 -0.38c127.85,-55.04 268.16,-75.05 406.59,-75.05 139.87,0 282.8,19.39 411.86,75.54l1.12 0.51c121.06,57.91 185.43,156.08 187.34,290.81l0 1231.97c-1.95,133.58 -67.36,230.3 -187.51,287.03 -128.26,60.56 -272.04,81.1 -412.81,81.1 -139.36,0 -279.96,-21.52 -407.35,-80.11 -121.29,-55.78 -190.35,-150.81 -193,-285.96zm1806.56 -453.25c-11.1,-10.52 -22.54,-20.71 -34.31,-30.5 -39.92,-29.24 -80.84,-57.26 -123.26,-82.82l-0.82 -0.5 -0.78 -0.52c-40.82,-27.85 -81.08,-56.49 -121.98,-84.22 -38.88,-26.37 -76.89,-54.38 -111.86,-85.83l-0.97 -0.91c-34.52,-33.59 -61.97,-72.66 -82.38,-116.27 -26.66,-45.42 -37.82,-96.41 -37.82,-148.84l0 -230.02c2.59,-136.63 70.45,-234.26 193.48,-291.34l0.86 -0.39c128.1,-55.16 267.82,-75.48 406.56,-75.48 139.54,0 283.1,19.08 411.89,75.12l1.01 0.46c120.94,57.4 185.46,154.57 188.02,289.06l0 388.38 -458.74 0c2.41,1.57 4.82,3.13 7.24,4.67l0.85 0.54 0.8 0.58c38.96,28.07 78.53,55.31 118.2,81.51 43.03,26.7 85.27,55.56 126.89,85.21l1.03 0.71 0.97 0.81c42.29,35.13 79.39,75.8 110.69,120.61 35.6,48.98 61.62,104.54 80.59,162.2l0.39 1.24c21.08,73.29 28.37,151.45 28.37,227.51l0 159.88c-2.59,132.94 -67.04,229.67 -186.37,287.37 -129.49,59.71 -272.6,81.1 -413.97,81.1 -139.43,0 -280.16,-21.56 -407.44,-80.57 -121.31,-56.24 -190.92,-150.89 -192.9,-286.27l0 -452.48 495.76 0zm154.8 459.49c6.2,-21.08 9.45,-42.5 9.16,-64.56 -1.48,-112.06 -23.66,-231.07 -95.59,-320.56 -7.86,-9.81 -15.98,-19.41 -24.32,-28.8l0 348.92c0,22.27 5,42.87 14.9,62.79l1.02 2.07 0.74 2.18c6.25,18.61 25.99,20.98 43.29,20.98 20.75,0 40.31,-4.34 50.8,-23.02zm-8.12 -916.73l0 -265.55c0,-23.34 -3.27,-46.29 -8.96,-68.87 -11.35,-14.5 -33.64,-18.24 -51,-19.12 -13.55,0.69 -38.21,3.54 -44.03,17.82l-0.3 0.7c-9.5,21.86 -15.46,44.65 -15.61,68.54 5.42,92.75 30.92,186.27 102.18,250.35l0.52 0.49c5.66,5.3 11.39,10.5 17.2,15.64zm1179.39 -325.34l0 351.43 394.91 0 0 328.67 -394.91 0 0 556.77 413.33 0 0 329.09 -953.13 0 0 -1895.09 953.13 0 0 329.13 -413.33 0zm2984.04 1565.96l-539.82 0 0 -1895.09 539.82 0 0 1895.09zm-7146.2 -2163.97l0 624.99 53.44 0 0.61 0.01c91.87,3.33 137.5,-31.72 137.5,-125.72l0 -373.57c0,-93.65 -47.17,-127.6 -138.02,-125.71l-53.53 0zm1681.43 589.25c-11.24,-14.81 -33.47,-18.55 -50.99,-19.44 -13.78,0.69 -38.09,3.46 -43.96,18.04l-0.44 1.08c-9.69,21.93 -15.54,45.24 -15.54,69.29l0 1116.43c0,22.26 5.01,43.3 14.9,63.22l1.03 2.07 0.74 2.18c6.26,18.61 25.96,20.98 43.27,20.98 20.76,0 40.33,-4.34 50.82,-23.01 6.22,-21.28 9.14,-43.24 9.14,-65.44l0 -1116.43c0,-23.29 -3.22,-46.44 -8.97,-68.97z"/>
  <g>
   <path fill="#0099FF" fill-rule="nonzero" d="M5228.55 2709.79l0 -1181.58c124.1,0 199.68,26 228.31,78.03 23.87,54.37 33.41,121.75 31.02,202.74l0 575.12c0,82.17 10.34,147.78 31.02,197.43 16.71,52.01 35.79,94.56 57.28,128.26l663.45 0c-18.3,-47.28 -38.98,-105.21 -62.06,-173.19 -24.64,-64.43 -37.38,-156.05 -37.38,-273.67l0 -500.65c1.09,-49.44 -2.11,-94.29 -9.62,-134.53l-0.01 0c-548.19,-55.77 -1068.83,-123.88 -1555.9,-202.87l0 1284.91 653.89 0zm615.67 -1417.44c3.4,-1.06 6.76,-2.12 10.08,-3.22 -3.32,1.1 -6.68,2.16 -10.08,3.22zm10.08 -3.23c3.32,-1.1 6.6,-2.19 9.84,-3.33l-9.84 3.33zm9.84 -3.34c4.32,-1.52 8.56,-3.07 12.75,-4.65l6.22 -2.51 -6.23 2.5c-4.19,1.58 -8.43,3.14 -12.74,4.66zm18.97 -7.17c6.18,-2.53 12.26,-5.1 18.2,-7.73 -5.95,2.63 -12.01,5.2 -18.2,7.73zm65.84 -31.33c3.51,-1.95 6.96,-3.91 10.36,-5.89 -3.4,1.98 -6.85,3.95 -10.36,5.89zm122.49 -104.8c1.96,-2.58 3.89,-5.17 5.78,-7.76 -1.89,2.59 -3.82,5.18 -5.78,7.76zm9.98 -13.65c1.84,-2.61 3.65,-5.25 5.42,-7.87 -1.77,2.62 -3.58,5.26 -5.42,7.87zm5.42 -7.88c4.88,-7.25 9.49,-14.57 13.85,-21.98 -4.35,7.4 -8.98,14.73 -13.85,21.98zm-636.77 2146.66c-1.44,5.21 -2.77,10.51 -4.01,15.89 1.24,-5.38 2.57,-10.68 4.01,-15.89zm-9.37 43.48c-1.2,7.54 -2.21,15.23 -3.05,23.07 0.84,-7.84 1.85,-15.53 3.05,-23.07zm-5.93 71.87l-0.01 0 0 255.88c0,5.31 0.08,10.57 0.25,15.76 -0.17,-5.19 -0.24,-10.46 -0.24,-15.78l0 -255.86zm20.8 385.9c2.25,6.2 4.7,12.26 7.31,18.17 15.74,45.74 36.69,85.75 62.89,120.06 27.17,32.88 57.19,63.38 89.58,92.44 32.88,30.5 66.23,61.95 101.02,93.86 35.26,28.6 70.05,60.53 104.83,94.83 32.39,36.21 62.41,77.18 89.57,122.93 54.8,91.47 83.38,218.22 85.29,380.22 0,30.97 -3.34,59.57 -9.53,86.73 -11.91,32.41 -34.77,49.08 -68.13,49.08 -33.36,0 -54.33,-16.67 -62.42,-49.08 -10.01,-27.16 -15.24,-55.76 -15.24,-86.73l0 -401.68 -390.71 0 0 466c1.43,131.53 49.54,226.34 143.41,284.94 92.44,57.67 201.07,86.23 325.43,86.23 127.7,0 237.76,-29.05 330.67,-86.7 90.06,-58.6 136.28,-154.37 138.19,-286.37l0 -177.73c0,-92.89 -7.64,-173.91 -22.4,-243 -16.21,-66.23 -37.17,-122.93 -62.9,-170.58 -25.26,-48.6 -54.32,-91 -86.72,-127.21 -34.57,-33.15 -68.66,-64.41 -103.24,-93.33 -238.68,-52.81 -458.7,-110.68 -656.9,-173.08zm448.52 -457.83c2.61,0.15 5.15,0.37 7.63,0.67 -2.47,-0.3 -5.01,-0.53 -7.62,-0.68l-0.01 0.01zm19.03 2.74c1.36,0.33 2.7,0.68 4.02,1.07 -1.32,-0.39 -2.66,-0.74 -4.02,-1.07zm11.64 3.74c2.04,0.83 4.01,1.74 5.92,2.72 1.91,0.98 3.75,2.03 5.53,3.17 -1.78,-1.14 -3.62,-2.19 -5.53,-3.17 -1.91,-0.98 -3.88,-1.89 -5.92,-2.72zm23.99 16.28c1.14,1.22 2.25,2.49 3.31,3.8 -1.06,-1.31 -2.16,-2.58 -3.31,-3.8zm914.51 8.69l51.95 0c68.59,-1.9 103.38,40.96 103.38,128.65l0 401.18c0,33.41 -4.88,60.33 -14.61,80.74 9.74,-20.42 14.63,-47.33 14.63,-80.74l0 -401.19c0,-87.68 -34.79,-130.56 -103.4,-128.66l-51.95 0 0 0.02zm140.71 610.57c-1.62,3.4 -3.37,6.62 -5.26,9.66 1.89,-3.04 3.64,-6.26 5.26,-9.66zm-5.27 9.66c-1.42,2.28 -2.9,4.46 -4.47,6.54 1.57,-2.07 3.05,-4.26 4.47,-6.54zm-4.48 6.54c-1.04,1.38 -2.12,2.72 -3.23,4.02l3.23 -4.02zm-6.69 7.77c-1.15,1.18 -2.33,2.32 -3.55,3.41 1.22,-1.09 2.4,-2.23 3.55,-3.41zm-3.76 3.6c-1.2,1.07 -2.44,2.1 -3.7,3.08l3.7 -3.08zm-120.51 1106.23l0 -795.25 71.46 0c64.35,0 125.32,-7.61 182.99,-23.33 56.7,-15.26 107.2,-37.65 150.55,-68.62 22.74,-14.89 42.73,-32.55 59.99,-52.98 -302.29,-36.84 -589.05,-80.34 -856.65,-129.87l0 1070.05 391.66 0zm474.6 -952.23c1.55,-2.06 3.08,-4.14 4.58,-6.25 -1.5,2.11 -3.03,4.19 -4.58,6.25zm53.97 -114.1c0.73,-2.69 1.43,-5.4 2.11,-8.14 -0.68,2.74 -1.38,5.45 -2.11,8.14zm900.39 1066.33l0 -291.13 -342.11 0 0 -584.89c-132.64,-11.34 -262.92,-23.93 -390.69,-37.68l0 913.7 732.8 0zm-342.11 -1744.37l342.11 0 0 -0.02 -342.11 0 0 0.02zm1187.87 1744.37l0 -291.13 -342.11 0 0 -531.18c-131.93,-5.62 -262.21,-12.41 -390.72,-20.33l0 842.64 732.83 0zm-15.27 -986.78l0.02 0 0 -290.65 -0.02 0 0 290.65zm-326.84 -757.59l342.11 0 0 -0.02 -342.11 0 0 0.02zm425.5 1744.37l468.84 0c128.17,0 237.76,-28.58 329.73,-85.28 91.02,-59.55 137.7,-154.87 139.13,-285.91l0 -435.92c-129.01,2.56 -259.35,3.91 -390.72,4.2l0 377.42c0,30.97 -3.33,59.08 -9.52,85.28 -11.9,32.41 -34.78,49.08 -68.13,49.08l-77.67 0 0 -511.95c-131.74,-0.66 -262.36,-2.48 -391.66,-5.41l0 808.49zm391.66 -1744.37l77.67 0 3.1 0.2 -3.1 -0.22 -77.67 0 0 0.02zm80.77 0.21c4.6,0.38 8.99,1 13.17,1.89 -4.18,-0.89 -8.57,-1.51 -13.17,-1.89zm13.17 1.9c1.39,0.29 2.76,0.61 4.11,0.96 -1.35,-0.35 -2.72,-0.67 -4.11,-0.96zm1137.35 -142.17l-130.15 1183.53 -5.24 0 -72.72 -1177.24 65.07 1053.53c-117,5.26 -235.39,9.56 -354.89,12.94l81.89 811.67 452.19 0 154.85 -1421.34 -63.49 582.71c-80.61,4.71 -161.95,8.94 -243.9,12.74l116.39 -1058.54zm252.05 1038.17l81.41 846.26 463.62 0 124.7 -901.43c-109.9,11.08 -221.59,21.26 -334.94,30.58l-13.23 170.92 -5.71 0 -14.41 -168.23c-99.29,8 -199.74,15.34 -301.44,21.9zm1274.99 0.52l10.02 -129.2c-103.75,14.47 -209.48,28.15 -317.26,40.91l77.01 -534.94 -211.48 1468.97 348.31 0 60.99 -555.1 184.89 0 44.77 555.1 406.46 0 -211.53 -1832.93 90.47 784.02c-117.81,20.62 -239.14,40.07 -363.55,58.36l-43.33 -690.47 -10.97 0 0 0.01 10.96 0 52.4 835.27 -128.16 0zm956.77 845.74l390.72 0 0 -1020.61 299.69 -1014.89 -0.01 0 -230.16 779.41c-154.93,43.21 -320.68,83.97 -496.48,121.95l36.24 113.53 0 1020.61zm210.11 -1227.4l-124.34 -808.1 -0.02 0 124.36 808.1zm-534.1 -808.1l-0.01 0 148.9 466.42 -148.89 -466.42zm-2012.78 -1332.82l0 500.06c0,38.43 -5.56,74.5 -15.9,108.17 -19.89,40.21 -58.07,60.89 -113.75,60.89 -55.7,0 -90.68,-20.68 -104.22,-60.89 -16.71,-33.67 -25.46,-69.74 -25.46,-108.17l0 -429.42c-215.76,5.67 -433.87,9.44 -653.86,11.48l0 -1205.19c2.09,-109.77 37.39,-199.19 105.48,-268.22 -68.11,69.04 -103.42,158.44 -105.51,268.23l0 1701.74c3.18,163.74 83.53,281.95 239.45,354.65 155.11,71.52 336.49,107.58 543.31,107.58 214,0 396.96,-35.45 550.49,-106.39 151.94,-72.13 229.9,-189.74 232.3,-352.89l0 -545.96c-214.74,10.92 -432.27,20.03 -652.29,27.29l0 -62.96 -0.04 0zm-129.65 -1211.73c55.68,2.37 93.86,20.7 113.75,54.39 10.34,37.83 15.9,76.25 15.9,114.66l0 397.8 0.04 0 0 -397.8c0,-38.42 -5.56,-76.85 -15.91,-114.68 -19.89,-33.69 -58.07,-52.01 -113.75,-54.38l-0.03 0.01zm-635.58 -216.8c-5.75,4.37 -11.32,8.85 -16.73,13.43 5.41,-4.58 10.98,-9.06 16.73,-13.43zm-22.13 18.07c-7.07,6.21 -13.84,12.59 -20.32,19.15 6.48,-6.57 13.25,-12.95 20.32,-19.15zm-3888.16 2105.3c2.3,118.06 60.45,203.18 173.28,255.36 112.26,51.33 243.5,77 393.18,77 154.85,0 287.26,-26.11 398.36,-77.86 109.95,-52.61 166.37,-138.15 168.09,-256.64l0 -676.31c-159.04,-9.66 -316.42,-20.3 -472.03,-31.89l0 -465.12c0,-27.8 -4.03,-55.61 -11.52,-82.98 -3.37,-5.71 -7.47,-10.82 -12.29,-15.3 4.81,4.49 8.91,9.6 12.28,15.31 7.49,27.37 11.52,55.18 11.52,82.98l0 1116.42c0,27.8 -4.03,53.9 -11.52,78.27 -14.38,29.08 -42.03,44.06 -82.32,44.06 -40.29,0 -65.63,-14.98 -75.4,-44.06 -12.1,-24.37 -18.44,-50.47 -18.44,-78.27l0 -665.81c-159.78,-12.84 -317.47,-26.75 -473.18,-41.58l0 -469.35 -0.01 0.01 0 1235.76zm561.48 -1297.47l5.55 -0.3c11.97,0.5 22.81,2.02 32.52,4.55 -9.7,-2.54 -20.54,-4.06 -32.5,-4.57l-5.57 0.32zm38.09 4.25c3.06,0.8 6.02,1.7 8.85,2.7 -2.83,-1 -5.79,-1.9 -8.85,-2.7zm8.87 2.7c2.84,0.99 5.56,2.1 8.17,3.3 -2.61,-1.2 -5.33,-2.3 -8.17,-3.3zm8.18 3.3c3.49,1.59 6.76,3.38 9.84,5.33 -3.08,-1.95 -6.36,-3.73 -9.84,-5.33zm11 6.07c3.4,2.24 6.55,4.72 9.44,7.41 -2.89,-2.69 -6.04,-5.17 -9.44,-7.41zm1798.82 399.57l0 -0.01 -473.18 0 0 -294.3c0,-27.8 -4.03,-55.18 -11.51,-82.98 -6.75,-11.23 -16.4,-20.1 -28.91,-26.54 12.5,6.44 22.14,15.33 28.89,26.56 7.48,27.79 11.51,55.17 11.51,82.97l0 294.3 473.2 0zm-1046.59 -556.54c-2.51,2.28 -4.97,4.59 -7.37,6.94 2.4,-2.35 4.86,-4.65 7.37,-6.94zm-33.67 36.77c-1.98,2.62 -3.9,5.28 -5.77,7.96 1.87,-2.68 3.79,-5.34 5.77,-7.96zm-5.78 7.97c-9.32,13.43 -17.3,27.7 -23.92,42.8 6.62,-15.1 14.6,-29.36 23.92,-42.8zm-23.93 42.81c-3.3,7.55 -6.27,15.3 -8.9,23.27 2.63,-7.97 5.6,-15.72 8.9,-23.27zm-8.91 23.27c-9.47,28.68 -14.54,60.05 -15.19,94.1l0 229.7c0,33.4 4.96,64.05 14.72,91.8 -9.75,-27.75 -14.69,-58.4 -14.69,-91.8l0 -229.7c0.64,-34.05 5.69,-65.42 15.16,-94.1zm-0.46 415.6c1.39,3.97 2.88,7.87 4.47,11.71 -1.59,-3.85 -3.08,-7.74 -4.47,-11.71zm6.09 15.55c1.11,2.54 2.25,5.04 3.44,7.53 -1.19,-2.49 -2.33,-4.99 -3.44,-7.53zm4.34 9.4c1.21,2.47 2.46,4.9 3.76,7.32 -1.3,-2.42 -2.55,-4.84 -3.76,-7.32zm4.74 9.15c1.32,2.41 2.67,4.79 4.08,7.14l1.8 3.82 -1.8 -3.84c-1.4,-2.35 -2.76,-4.72 -4.08,-7.12zm11.5 22.3c17.99,34.81 40.84,65.67 68.56,92.63 32.81,29.51 69.07,56.89 108.23,82.98l25.84 17.85 -25.83 -17.86c-39.14,-26.09 -75.41,-53.47 -108.22,-82.98 -27.7,-26.95 -50.57,-57.82 -68.58,-92.62zm204.82 194.99c30.67,21.26 61.84,42.94 94.01,64.88 42.59,25.68 84.61,54.32 126.64,85.13 39.14,32.5 75.4,69.29 108.23,110.34 66.2,82.14 100.74,195.93 103.04,341.36 0,27.79 -4.03,53.47 -11.51,77.84 -14.39,29.08 -42.02,44.06 -82.33,44.06 -40.29,0 -65.62,-14.98 -75.41,-44.06 -12.08,-24.37 -18.42,-50.05 -18.42,-77.84l0 -360.6 -472.05 0 0 418.34c1.74,118.05 59.87,203.18 173.28,255.79 111.68,51.76 242.93,77.43 393.19,77.43 154.26,0 287.25,-26.11 399.5,-77.86 108.8,-52.61 164.64,-138.58 166.94,-257.07l0 -159.56c0,-83.4 -9.21,-156.11 -27.05,-218.14 -19.56,-59.45 -44.9,-110.36 -75.98,-153.14 -24.53,-35.07 -52.03,-66.54 -82.22,-94.43 -240.81,-7.15 -478.77,-16.49 -713.39,-28l-6.47 -4.47zm296.54 -634.71c1.57,-0.32 3.18,-0.6 4.82,-0.86 -1.64,0.26 -3.25,0.54 -4.82,0.86zm4.84 -0.87c1.64,-0.27 3.31,-0.5 5.02,-0.71 -1.71,0.22 -3.38,0.44 -5.02,0.71zm5.04 -0.72c2.28,-0.28 4.62,-0.51 7.01,-0.71 -2.39,0.2 -4.73,0.43 -7.01,0.71zm8.84 -0.86l5.55 -0.3c21.41,0.9 39.26,5.07 53.42,12.36 -14.16,-7.29 -32,-11.47 -53.4,-12.38l-5.57 0.32zm1624.33 1593.89l0 -261.36 -413.32 0 0 -624.49 394.91 0 0 -21.64c-18.49,0.03 -36.87,0.17 -55.38,0.17 -273.55,0 -544.12,-3.01 -811.55,-8.61l0 -911.39 -0.03 0 0 1827.32 885.37 0zm-413.3 -1565.96l413.3 0 0 -0.02 -413.3 0 0 0.02zm2983.98 1565.96l0 -999.64c-155.63,11.15 -313.02,21.32 -472.01,30.52l0 -858.2 -0.04 0 0 1827.32 472.05 0zm922.84 -1565.96l318.88 0 0 -0.02 -318.88 0 0 0.02zm-789.24 -261.36l-0.05 0 0 261.36 317.21 0 0 1565.96 472.03 0 0 -1078.66c-155.12,15.59 -312.65,30.11 -472,43.71l0 -531.03 -317.19 0 0 -261.34zm1543.32 1827.32l472.05 0 0 -916.23 132.15 -332.52c-106.11,16.12 -213.87,31.69 -322.88,46.79l128.03 -625.36 -0.05 0 -148.51 725.45 -6.92 0 -19.37 -93.55c-110.4,15.07 -222.47,29.53 -335.69,43.53l-290.2 -675.43 -0.05 0 391.44 911.09 0 916.23z"/>
  </g>
  <path fill="url(#id0)" fill-rule="nonzero" d="M6130.57 1627.75c-14.39,-77.18 -44.59,-137.41 -90.61,-180.53 -69.2,-65.61 -209.21,-102.85 -419.23,-111.13l0 -6.5c104.22,-7.09 189.33,-23.05 256.15,-48.47 66.83,-26.6 120.12,-59.11 159.11,-96.94 37.38,-39.6 66.01,-81.57 85.91,-126.49 12.73,-47.29 18.29,-93.98 18.29,-138.91l0 -223.43c-2.38,-191.51 -80.34,-326.28 -232.29,-404.89 -153.52,-72.71 -336.48,-108.17 -550.48,-105.81l-782.77 0 0 1240.23c487.07,78.99 1007.72,147.1 1555.92,202.87zm8525.3 -166.72c-106.13,16.13 -213.9,31.7 -322.93,46.8l128.03 -625.38 424.84 0 -229.94 578.58zm-369.7 53.33c-110.41,15.08 -222.5,29.54 -335.74,43.54l-290.21 -675.45 495.07 0 130.88 631.91zm-988.63 116.76c-155.14,15.6 -312.68,30.12 -472.05,43.72l0 -531.03 -317.19 0 0 -261.36 1108.16 0 0 261.36 -318.92 0 0 487.31zm-922.79 79.03c-155.65,11.15 -313.05,21.32 -472.06,30.52l0 -858.22 472.06 0 0 827.7zm-721.04 44.05c-214.75,10.92 -432.28,20.03 -652.31,27.29l0 -62.96 652.31 0 0 35.67zm-911.64 34.97c-215.77,5.67 -433.9,9.44 -653.9,11.48l0 -1205.19c3.18,-167.28 83.53,-287.27 239.45,-359.98 155.12,-66.79 336.49,-100.48 543.32,-100.48 213.99,0 396.96,33.69 550.49,100.48 151.93,72.12 229.89,192.11 232.28,359.39l0 478.78 -652.31 0 0 -397.8c0,-38.42 -5.56,-76.85 -15.91,-114.68 -19.89,-33.69 -58.07,-52.01 -113.75,-54.38 -55.69,2.37 -90.69,20.69 -104.21,54.38 -16.71,37.83 -25.46,76.26 -25.46,114.68l0 1113.32zm-956.44 13.13c-18.5,0.03 -36.88,0.17 -55.4,0.17 -273.55,0 -544.12,-3.01 -811.55,-8.61l0 -911.41 885.37 0 0 261.36 -413.33 0 0 419.19 394.91 0 0 239.3zm-1201.31 -16.77c-240.82,-7.15 -478.79,-16.49 -713.42,-28 -11.57,-8.02 -23.05,-15.98 -34.49,-23.86 -39.14,-26.09 -75.41,-53.47 -108.22,-82.98 -31.66,-30.8 -57,-66.73 -76,-107.8 -22.45,-37.64 -33.95,-82.12 -33.95,-133.02l0 -229.7c2.29,-121.06 60.44,-208.32 173.85,-260.93 112.25,-48.33 242.93,-72.72 393.17,-72.72 154.29,0 287.26,23.96 398.37,72.3 109.94,52.18 166.36,138.15 168.67,258.78l0 354.18 -473.2 0 0 -294.3c0,-27.8 -4.03,-55.18 -11.51,-82.98 -14.4,-23.95 -42.02,-37.21 -82.33,-38.92 -40.29,1.71 -65.62,14.97 -75.41,38.92 -12.09,27.8 -18.42,55.18 -18.42,82.98 6.91,121.48 44.9,213.02 113.41,274.62 35.11,32.94 71.95,61.6 111.68,86.83 37.99,27.38 78.29,55.18 119.74,82.55 42.02,26.1 83.47,54.33 125.49,84.27 7.69,6.38 15.21,12.97 22.57,19.78zm-1125.55 -50.61c-159.05,-9.66 -316.43,-20.3 -472.05,-31.89l0 -465.12c0,-27.8 -4.03,-55.61 -11.52,-82.98 -14.38,-24.38 -42.02,-37.64 -82.31,-39.35 -40.3,1.71 -65.63,14.97 -75.41,39.35 -12.09,27.37 -18.43,55.18 -18.43,82.98l0 450.62c-159.79,-12.84 -317.48,-26.75 -473.2,-41.58l0 -469.35c2.3,-120.63 60.44,-206.6 173.28,-258.78 112.25,-48.34 243.5,-72.3 393.18,-72.3 154.86,0 287.26,24.39 398.36,72.72 109.95,52.61 166.37,139.45 168.1,260.5l0 555.18zm-2230.22 -1189.11l86.71 0c114.55,-2.37 172.62,50.83 172.62,159.59l0 373.57c0,110.54 -58.07,163.73 -172.62,159.59l-86.71 0 0 -692.75z"/>
  <path fill="url(#id1)" fill-rule="nonzero" d="M6373.42 3774.63l0 -394.52c-1.89,-134.37 -48.6,-230.14 -139.6,-288.27 -91.96,-53.84 -202.02,-80.53 -329.73,-80.53 -124.35,0 -232.52,27.16 -325.42,81.01 -93.88,58.61 -142,155.8 -143.91,290.65l0 255.86c0,48.72 7.05,92.16 20.81,130.04 198.2,62.39 418.23,120.26 656.91,173.07l-0.64 -0.53c-34.3,-30.5 -67.66,-61.48 -99.11,-91.97 -32.88,-28.12 -63.36,-60.04 -92.43,-96.72 -56.7,-68.63 -88.15,-170.59 -93.87,-305.9 0,-30.97 5.24,-61.47 15.25,-92.44 8.09,-26.68 29.07,-41.45 62.41,-43.36 33.36,1.91 56.23,16.68 68.15,43.36 6.2,30.97 9.52,61.47 9.52,92.44l0 327.81 391.66 0zm3404.94 509.32c131.37,-0.29 261.69,-1.65 390.71,-4.2l0 -857.24c-1.43,-134.83 -48.12,-232.04 -139.14,-291.59 -91.95,-52.89 -201.54,-79.57 -329.71,-79.57l-468.85 0 0 1227.01c129.3,2.94 259.92,4.74 391.66,5.4l0 -941.29 77.66 0c33.36,1.9 56.23,16.68 68.13,43.36 6.2,30.02 9.54,60.04 9.54,91l0 807.12zm578.03 -8.77c119.5,-3.38 237.89,-7.67 354.89,-12.95l-74.79 -1210.88 -403.57 0 123.47 1223.83zm381.53 -14.22c81.95,-3.8 163.29,-8.03 243.91,-12.74l63.49 -582.7 5.72 0 55.32 575.07c101.7,-6.56 202.16,-13.9 301.45,-21.9l-99.95 -1167.34 -436.93 0 -133.01 1209.61zm703.23 -44.96c113.34,-9.32 225.04,-19.5 334.96,-30.57l156.88 -1134.08 -401.67 0 -90.17 1164.65zm632.96 -63.16c107.8,-12.78 213.53,-26.47 317.28,-40.92l54.76 -706.08 10.97 0 43.32 690.47c124.44,-18.29 245.76,-37.75 363.57,-58.37l-113.85 -986.59 -517.47 0 -158.58 1101.49zm1227.78 -200.12c175.8,-37.98 341.55,-78.75 496.49,-121.95l230.16 -779.42 -351.63 0 -122.94 808.1 -5.72 0 -124.36 -808.1 -409.76 0 287.76 901.37zm-6820.29 64.07c267.6,49.54 554.35,93.05 856.66,129.88 52.88,-62.61 79.97,-151.3 81.04,-266.26l0 -417.39c-1.43,-154.38 -48.12,-263.5 -139.13,-326.4 -91.95,-58.59 -201.55,-87.18 -329.72,-85.27l-468.85 0 0 965.44zm1087.81 156.37c127.77,13.74 258.06,26.34 390.71,37.67l0 -110.76 326.85 0 0 -290.65 -326.85 0 0 -466.95 342.11 0 0 -291.12 -732.82 0 0 1121.81zm845.75 71.05c128.51,7.92 258.78,14.72 390.71,20.33l0 -164.47 326.85 0 0 -290.65 -326.85 0 0 -466.95 342.11 0 0 -291.12 -732.82 0 0 1192.86zm-1541.9 -901.74l51.94 0c68.61,-1.9 103.39,40.98 103.39,128.65l0 401.19c0,89.1 -34.78,131.98 -103.39,128.64l-51.94 0 0 -658.48z"/>
 </g>
</svg>
