<?xml version="1.0" encoding="UTF-8"?>
<!DOCTYPE svg PUBLIC "-//W3C//DTD SVG 1.0//EN" "http://www.w3.org/TR/2001/REC-SVG-20010904/DTD/svg10.dtd">
<!-- Creator: CorelDRAW -->
<svg xmlns="http://www.w3.org/2000/svg" xml:space="preserve" width="3.25303in" height="1.585in" version="1.0" shape-rendering="geometricPrecision" text-rendering="geometricPrecision" image-rendering="optimizeQuality" fill-rule="evenodd" clip-rule="evenodd"
viewBox="0 0 3253.06 1585.01"
 xmlns:xlink="http://www.w3.org/1999/xlink"
 xmlns:xodm="http://www.corel.com/coreldraw/odm/2003">
 <defs>
   <radialGradient id="id0" gradientUnits="userSpaceOnUse" gradientTransform="matrix(3.18626E-17 0.520355 -2.02453 1.764E-06 1624 -845)" cx="1624.01" cy="0.17" r="3043.27" fx="1624.01" fy="0.17">
    <stop offset="0" stop-opacity="1" stop-color="#0099FF"/>
    <stop offset="0.470588" stop-opacity="1" stop-color="#0099FF"/>
    <stop offset="1" stop-opacity="1" stop-color="white"/>
   </radialGradient>
   <radialGradient id="id1" gradientUnits="userSpaceOnUse" gradientTransform="matrix(2.91778E-17 0.47651 -2.02453 2.11653E-06 3452 129)" cx="1624.46" cy="902.77" r="1099.99" fx="1624.46" fy="902.77">
    <stop offset="0" stop-opacity="1" stop-color="#0099FF"/>
    <stop offset="0.470588" stop-opacity="1" stop-color="#0099FF"/>
    <stop offset="1" stop-opacity="1" stop-color="white"/>
   </radialGradient>
 </defs>
 <g id="Layer_x0020_1">
  <metadata id="CorelCorpID_0Corel-Layer"/>
  <path fill="black" d="M2837.78 233.92l179.66 0 39.41 190.31 38.96 -190.31 157.23 0 -118.34 297.76 0 295.3 -168.93 0 0 -295.15 -114.99 -267.63 0 72.72 -99.8 0 0 490.07 -168.93 0 0 -490.07 -99.26 0 0 -102.99 354.99 0zm-2428.86 149.73c26.11,5.41 51.17,14.5 67.5,29.9 28.76,27.1 35.53,68.78 34.7,106.43l0 156.56c0,25.63 1.75,57.69 11,81.85l0.14 0.38c6.11,18.02 12.4,36.04 19.26,53.78l5.58 14.43 -228.9 0 -3.12 -4.9c-8.24,-12.92 -14.25,-27.63 -18.95,-42.18 -8.26,-20.08 -10.35,-43.94 -10.35,-65.44l0 -180.14 0 -0.16c0.57,-19.23 -0.9,-40.52 -8.61,-58.4 -8.13,-14.02 -33.29,-17.52 -51.34,-18.32l0 369.55 -225.84 0 0 -811.43 255.51 0c60.34,-0.67 121.87,8.08 176.87,34.13l0.33 0.17c54.26,28.07 77.68,76.25 78.42,136.06l0 69.99c0,15.61 -2.03,31.15 -6.09,46.22l-0.21 0.79 -0.33 0.75c-7.02,15.86 -16.99,29.98 -28.87,42.57l-0.16 0.17 -0.17 0.17c-15,14.56 -33.96,25.07 -53.33,32.61 -4.25,1.65 -8.61,3.14 -13.05,4.48zm1598.09 -235.36c-5.57,-8.1 -16.5,-10.26 -25.77,-10.7 -7.86,0.37 -19.44,2.04 -22.78,10.35l-0.14 0.33c-4.42,10 -7.06,20.63 -7.06,31.6l0 482.79c0,10.25 2.31,19.96 6.86,29.14l0.32 0.64 0.23 0.69c3.35,9.96 13.13,11.83 22.56,11.83 10.69,0 20.5,-2.66 25.72,-12.43 2.89,-9.71 4.25,-19.74 4.25,-29.87l0 -167.1 225.34 0 0 192.7c-0.82,56.08 -28.29,96.3 -78.8,119.96 -54.92,25.72 -116.59,34.3 -176.77,34.3 -59.75,0 -119.96,-9.36 -174.49,-34.65 -51.09,-23.69 -79.97,-63.61 -81.08,-120.5l0 -532.76c1.09,-57.38 29.42,-98.08 81.06,-122.16l0.29 -0.13c54.8,-23.59 114.87,-32.31 174.22,-32.31 59.91,0 121.21,8.27 176.5,32.33l0.31 0.14c51.03,24.22 77.95,65.32 78.75,121.97l0 160.51 -225.34 0 0 -135.1c0,-10.67 -1.5,-21.27 -4.2,-31.58zm-1458.99 575.38l0 -386.88c0.82,-42.61 22.04,-72.78 60.38,-90.51l0.26 -0.11c40.01,-17.23 83.91,-23.49 127.24,-23.49 43.77,0 88.5,6.06 128.9,23.64l0.35 0.16c37.89,18.13 58.03,48.85 58.63,91.01l0 385.54c-0.61,41.81 -21.08,72.08 -58.68,89.83 -40.14,18.95 -85.14,25.37 -129.19,25.37 -43.61,0 -87.61,-6.73 -127.47,-25.06 -37.96,-17.46 -59.58,-47.2 -60.4,-89.5zm565.36 -141.84c-3.47,-3.3 -7.05,-6.48 -10.74,-9.55 -12.5,-9.15 -25.3,-17.92 -38.58,-25.92l-0.26 -0.15 -0.24 -0.17c-12.78,-8.71 -25.37,-17.68 -38.17,-26.35 -12.17,-8.25 -24.07,-17.02 -35.01,-26.86l-0.3 -0.28c-10.8,-10.51 -19.4,-22.74 -25.78,-36.39 -8.35,-14.22 -11.84,-30.17 -11.84,-46.58l0 -71.98c0.81,-42.76 22.04,-73.31 60.55,-91.17l0.27 -0.12c40.09,-17.26 83.82,-23.62 127.24,-23.62 43.66,0 88.59,5.97 128.89,23.5l0.32 0.15c37.85,17.96 58.04,48.37 58.84,90.46l0 121.54 -143.56 0c0.76,0.49 1.51,0.98 2.27,1.46l0.26 0.17 0.26 0.18c12.19,8.78 24.57,17.31 36.99,25.51 13.46,8.36 26.68,17.39 39.71,26.67l0.32 0.23 0.3 0.25c13.24,10.99 24.84,23.72 34.64,37.74 11.14,15.33 19.28,32.72 25.22,50.76l0.12 0.39c6.6,22.94 8.88,47.4 8.88,71.2l0 50.03c-0.81,41.6 -20.98,71.88 -58.32,89.93 -40.52,18.69 -85.31,25.38 -129.55,25.38 -43.63,0 -87.67,-6.74 -127.5,-25.21 -37.96,-17.6 -59.75,-47.23 -60.37,-89.59l0 -141.6 155.15 0zm48.44 143.79c1.94,-6.6 2.96,-13.3 2.87,-20.2 -0.46,-35.08 -7.4,-72.32 -29.91,-100.32 -2.46,-3.06 -5,-6.07 -7.61,-9.01l0 109.19c0,6.97 1.57,13.42 4.66,19.65l0.32 0.65 0.23 0.68c1.96,5.83 8.13,6.57 13.55,6.57 6.49,0 12.62,-1.35 15.9,-7.2zm-2.54 -286.89l0 -83.1c0,-7.3 -1.02,-14.48 -2.8,-21.55 -3.55,-4.54 -10.53,-5.71 -15.96,-5.99 -4.25,0.22 -11.96,1.11 -13.78,5.58l-0.09 0.22c-2.97,6.84 -4.83,13.97 -4.88,21.45 1.69,29.03 9.67,58.29 31.98,78.35l0.16 0.15c1.77,1.66 3.56,3.29 5.38,4.89zm369.08 -101.82l0 109.98 123.58 0 0 102.86 -123.58 0 0 174.23 129.35 0 0 102.99 -298.28 0 0 -593.06 298.28 0 0 102.99 -129.35 0zm933.84 490.07l-168.93 0 0 -593.06 168.93 0 0 593.06zm-2236.37 -677.21l0 195.59 16.72 0 0.19 0.01c28.75,1.04 43.03,-9.93 43.03,-39.35l0 -116.91c0,-29.31 -14.76,-39.93 -43.2,-39.34l-16.75 0zm526.2 184.4c-3.52,-4.63 -10.47,-5.8 -15.96,-6.08 -4.31,0.22 -11.92,1.08 -13.75,5.65l-0.14 0.33c-3.04,6.86 -4.87,14.15 -4.87,21.68l0 349.38c0,6.96 1.57,13.55 4.67,19.78l0.32 0.65 0.23 0.68c1.96,5.83 8.13,6.57 13.55,6.57 6.49,0 12.61,-1.35 15.9,-7.2 1.94,-6.66 2.87,-13.54 2.87,-20.48l0 -349.38c0,-7.29 -1.01,-14.53 -2.81,-21.59z"/>
  <path fill="#0099FF" fill-rule="nonzero" d="M215.23 816.37l0 -369.77c38.83,0 62.49,8.14 71.45,24.42 7.47,17.02 10.45,38.11 9.71,63.45l0 179.98c0,25.71 3.24,46.24 9.71,61.78 5.23,16.28 11.2,29.59 17.93,40.14l207.62 0c-5.72,-14.8 -12.2,-32.93 -19.42,-54.2 -7.72,-20.16 -11.7,-48.84 -11.7,-85.65l0 -156.67c1,-45.13 -9.46,-78.06 -31.37,-98.59 -21.66,-20.54 -65.47,-32.19 -131.19,-34.78l0 -2.03c32.61,-2.22 59.25,-7.22 80.16,-15.17 20.91,-8.32 37.59,-18.5 49.79,-30.33 11.7,-12.39 20.66,-25.53 26.89,-39.59 3.98,-14.8 5.72,-29.41 5.72,-43.47l0 -69.92c-0.75,-59.93 -25.14,-102.11 -72.69,-126.71 -48.04,-22.75 -105.3,-33.85 -172.27,-33.11l-244.96 0 0 790.23 204.63 0zm0 -677.2l27.14 0c35.85,-0.74 54.02,15.91 54.02,49.95l0 116.9c0,34.59 -18.17,51.24 -54.02,49.95l-27.14 0 0 -216.79zm1806.58 366.99l0 156.49c0,12.02 -1.74,23.31 -4.98,33.85 -6.22,12.58 -18.17,19.05 -35.6,19.05 -17.43,0 -28.38,-6.47 -32.61,-19.05 -5.22,-10.54 -7.96,-21.83 -7.96,-33.85l0 -482.79c0,-12.02 2.74,-24.05 7.96,-35.89 4.23,-10.54 15.19,-16.28 32.61,-17.02 17.43,0.74 29.37,6.47 35.6,17.02 3.24,11.84 4.98,23.86 4.98,35.89l0 124.49 204.14 0 0 -149.84c-0.75,-52.35 -25.15,-89.9 -72.69,-112.47 -48.05,-20.9 -105.3,-31.45 -172.27,-31.45 -64.73,0 -121.49,10.54 -170.03,31.45 -48.79,22.75 -73.94,60.3 -74.93,112.65l0 532.55c1,51.24 26.14,88.23 74.93,110.99 48.54,22.38 105.3,33.67 170.03,33.67 66.97,0 124.22,-11.1 172.27,-33.3 47.55,-22.57 71.95,-59.38 72.69,-110.43l0 -182.02 -204.14 0zm-1463.18 217.44c0.72,36.95 18.92,63.58 54.23,79.91 35.13,16.06 76.2,24.09 123.04,24.09 48.46,0 89.9,-8.16 124.67,-24.36 34.41,-16.46 52.06,-43.24 52.6,-80.32l0 -385.38c-0.54,-37.88 -18.19,-65.06 -52.6,-81.52 -34.77,-15.13 -76.21,-22.76 -124.67,-22.76 -46.84,0 -87.91,7.5 -123.04,22.62 -35.31,16.33 -53.51,43.24 -54.23,80.98l0 386.72zm206.82 -18.47c0,8.7 -1.26,16.87 -3.61,24.5 -4.5,9.1 -13.15,13.79 -25.76,13.79 -12.61,0 -20.54,-4.69 -23.6,-13.79 -3.78,-7.63 -5.77,-15.8 -5.77,-24.5l0 -349.38c0,-8.7 1.98,-17.4 5.77,-25.97 3.06,-7.63 10.99,-11.78 23.6,-12.32 12.61,0.54 21.26,4.69 25.76,12.32 2.34,8.57 3.61,17.27 3.61,25.97l0 349.38zm552.52 -257.41l0 -110.84c-0.72,-37.75 -18.37,-64.65 -52.78,-80.98 -34.77,-15.13 -76.38,-22.62 -124.67,-22.62 -47.02,0 -87.91,7.63 -123.04,22.76 -35.49,16.46 -53.69,43.77 -54.41,81.65l0 71.89c0,15.93 3.61,29.85 10.63,41.63 5.94,12.85 13.87,24.09 23.78,33.73 10.27,9.24 21.62,17.8 33.87,25.97 12.43,8.57 25.04,17.4 38.19,26.37 13.33,8.03 26.48,17 39.63,26.64 12.25,10.17 23.6,21.69 33.87,34.54 20.72,25.7 31.53,61.31 32.25,106.82 0,8.7 -1.26,16.73 -3.61,24.36 -4.5,9.1 -13.15,13.79 -25.76,13.79 -12.61,0 -20.54,-4.69 -23.6,-13.79 -3.78,-7.63 -5.76,-15.66 -5.76,-24.36l0 -112.84 -147.73 0 0 130.91c0.54,36.95 18.74,63.58 54.22,80.05 34.95,16.2 76.02,24.23 123.04,24.23 48.28,0 89.89,-8.16 125.02,-24.36 34.05,-16.46 51.52,-43.37 52.24,-80.45l0 -49.93c0,-26.1 -2.88,-48.86 -8.47,-68.27 -6.13,-18.61 -14.05,-34.54 -23.78,-47.92 -9.55,-13.65 -20.54,-25.57 -32.79,-35.74 -13.15,-9.37 -26.12,-18.2 -39.27,-26.37 -12.97,-8.57 -25.58,-17.27 -37.47,-25.83 -12.43,-7.9 -23.96,-16.87 -34.95,-27.17 -21.44,-19.28 -33.33,-47.93 -35.49,-85.94 0,-8.7 1.98,-17.27 5.76,-25.97 3.06,-7.5 10.99,-11.65 23.6,-12.18 12.61,0.54 21.26,4.69 25.76,12.18 2.34,8.7 3.6,17.27 3.6,25.97l0 92.1 148.08 0zm329.14 368.65l0 -81.79 -129.35 0 0 -195.43 123.58 0 0 -81.65 -123.58 0 0 -131.19 129.35 0 0 -81.79 -277.07 0 0 571.85 277.07 0zm804.48 0l0 -571.85 -147.73 0 0 571.85 147.73 0zm288.78 -490.06l99.81 0 0 -81.79 -346.79 0 0 81.79 99.26 0 0 490.06 147.72 0 0 -490.06zm236 490.06l147.72 0 0 -286.73 113.32 -285.12 -132.95 0 -46.48 227.03 -2.16 0 -47.02 -227.03 -154.93 0 122.5 285.12 0 286.73z"/>
  <path fill="url(#id0)" fill-rule="nonzero" d="M497.52 477.75c-4.5,-24.15 -13.96,-43 -28.36,-56.49 -21.66,-20.53 -65.47,-32.19 -131.19,-34.78l0 -2.04c32.61,-2.22 59.25,-7.21 80.16,-15.17 20.91,-8.32 37.59,-18.5 49.79,-30.33 11.7,-12.39 20.66,-25.53 26.89,-39.59 3.98,-14.8 5.72,-29.41 5.72,-43.47l0 -69.92c-0.74,-59.93 -25.14,-102.11 -72.69,-126.71 -48.04,-22.76 -105.3,-33.85 -172.27,-33.11l-244.97 0 0 388.12c152.43,24.72 315.36,46.04 486.92,63.48zm2667.94 -52.17c-33.21,5.05 -66.94,9.92 -101.06,14.64l40.07 -195.71 132.95 0 -71.96 181.06zm-115.7 16.69c-34.55,4.72 -69.63,9.24 -105.07,13.63l-90.82 -211.38 154.93 0 40.95 197.75zm-309.38 36.54c-48.55,4.89 -97.85,9.43 -147.73,13.68l0 -166.18 -99.26 0 0 -81.79 346.79 0 0 81.79 -99.8 0 0 152.5zm-288.78 24.74c-48.71,3.48 -97.97,6.67 -147.73,9.55l0 -268.57 147.73 0 0 259.03zm-225.64 13.78c-67.21,3.42 -135.28,6.27 -204.14,8.54l0 -19.7 204.14 0 0 11.17zm-285.3 10.94c-67.52,1.78 -135.78,2.95 -204.63,3.59l0 -377.16c1,-52.35 26.14,-89.9 74.93,-112.65 48.54,-20.9 105.3,-31.45 170.03,-31.45 66.97,0 124.23,10.54 172.27,31.45 47.55,22.57 71.95,60.12 72.69,112.47l0 149.83 -204.14 0 0 -124.49c0,-12.02 -1.74,-24.05 -4.98,-35.89 -6.22,-10.54 -18.17,-16.28 -35.6,-17.02 -17.43,0.74 -28.38,6.47 -32.61,17.02 -5.23,11.84 -7.97,23.87 -7.97,35.89l0 348.41zm-299.31 4.11c-5.79,0.01 -11.54,0.06 -17.33,0.06 -85.61,0 -170.28,-0.94 -253.97,-2.69l0 -285.22 277.07 0 0 81.79 -129.35 0 0 131.19 123.58 0 0 74.89zm-375.94 -5.25c-75.36,-2.24 -149.84,-5.16 -223.26,-8.76 -3.62,-2.51 -7.22,-5 -10.8,-7.46 -12.25,-8.17 -23.6,-16.73 -33.87,-25.97 -9.91,-9.64 -17.83,-20.88 -23.78,-33.73 -7.02,-11.78 -10.63,-25.7 -10.63,-41.63l0 -71.88c0.72,-37.89 18.92,-65.19 54.41,-81.66 35.13,-15.13 76.02,-22.76 123.04,-22.76 48.28,0 89.89,7.5 124.67,22.62 34.41,16.33 52.06,43.24 52.78,80.99l0 110.84 -148.09 0 0 -92.1c0,-8.7 -1.26,-17.27 -3.6,-25.96 -4.5,-7.5 -13.15,-11.65 -25.76,-12.18 -12.61,0.53 -20.54,4.68 -23.6,12.18 -3.79,8.7 -5.77,17.27 -5.77,25.96 2.16,38.02 14.05,66.67 35.49,85.94 10.99,10.31 22.52,19.28 34.95,27.17 11.89,8.57 24.5,17.27 37.47,25.83 13.15,8.17 26.12,17 39.28,26.37 2.41,2 4.76,4.06 7.06,6.19zm-352.23 -15.84c-49.77,-3.02 -99.03,-6.35 -147.73,-9.98l0 -145.56c0,-8.7 -1.26,-17.4 -3.61,-25.96 -4.5,-7.63 -13.15,-11.78 -25.76,-12.32 -12.61,0.53 -20.54,4.68 -23.6,12.32 -3.78,8.56 -5.77,17.27 -5.77,25.96l0 141.02c-50,-4.02 -99.35,-8.37 -148.08,-13.01l0 -146.88c0.72,-37.75 18.91,-64.66 54.22,-80.99 35.13,-15.13 76.21,-22.62 123.04,-22.62 48.46,0 89.9,7.63 124.67,22.76 34.41,16.46 52.06,43.64 52.61,81.52l0 173.74zm-697.94 -372.12l27.14 0c35.85,-0.74 54.02,15.91 54.02,49.94l0 116.91c0,34.59 -18.17,51.24 -54.02,49.94l-27.14 0 0 -216.79z"/>
  <path fill="black" d="M466.4 1161.84c0.72,0.63 1.45,1.26 2.18,1.89l0.29 0.25 0.27 0.27c10,9.69 20.22,19.17 30.48,28.3 11.28,9.43 22.25,19.51 32.99,29.81l0.34 0.32 0.31 0.35c11.4,12.74 20.84,27.16 28.83,42.24 9.36,17.67 16.01,36.81 20.8,56.38 5.51,25.8 7.32,52.62 7.32,78.77l0 55.71c-0.59,40.6 -13.92,77.08 -48.91,99.85 -33.45,20.76 -71.1,29.04 -110.04,29.04 -38.43,0 -75.49,-8.35 -108.32,-28.84 -35.79,-22.34 -50.19,-58.13 -50.63,-99.47l0 -158.13 128.76 0c-2.96,-3.8 -6.03,-7.51 -9.24,-11.1 -10.13,-9.97 -20.6,-19.66 -31.65,-28.61l-0.29 -0.24 -0.28 -0.26c-10.59,-9.72 -20.97,-19.67 -31.59,-29.35 -10.35,-9.44 -20.28,-19.36 -29.36,-30.35 -9.5,-12.42 -16.46,-26.19 -21.51,-40.71 -6.97,-15.98 -9.63,-33.5 -9.63,-50.84l0 -80.16c0.59,-41.63 14.58,-78.63 50.96,-101.34 33.29,-19.3 70.09,-27.1 108.14,-27.1 38.28,0 76.06,7.37 109.57,27 35.68,22.78 48.96,59.55 49.53,100.55l0 135.78 -119.34 0zm-30.12 -139.8c-2.07,-3.67 -5.4,-4.92 -9.65,-5.26 -3.59,0.27 -6.68,1.1 -7.85,4.97 -2.65,8.21 -4.19,16.5 -4.22,25.03 1.22,28.36 6.59,61.56 24.16,85.11l0 -84.86c0,-8.41 -0.88,-16.73 -2.44,-24.99zm-17.24 303.11l0 111.36c0,7.9 1.29,15.51 4.02,22.92l0.22 0.61 0.16 0.64c1.16,4.64 2.87,6.1 7.67,6.1 5.23,0 7.74,-2.07 9.59,-6.67 1.7,-7.74 2.57,-15.54 2.49,-23.48 -0.36,-36.67 -5.4,-79.12 -24.16,-111.48zm444.55 -32.43c-15.34,10.91 -32.71,18.27 -50.83,23.18 -19.73,5.34 -40.04,7.73 -60.45,7.73l-10.14 0 0 248.87 -147.02 0 0 -661.45 158.86 0c38.87,-0.58 76.71,7.49 110.04,28.72 37.29,25.77 48.6,69.21 49,112.27l0 130.74c-0.41,42.88 -11.98,85.28 -49.46,109.94zm218.7 -266.12l0 121.68 102.29 0 0 115.41 -102.29 0 0 193.25 107.06 0 0 115.56 -253.78 0 0 -661.45 253.78 0 0 115.56 -107.06 0zm264.68 0l0 121.68 102.29 0 0 115.41 -102.29 0 0 193.25 107.06 0 0 115.56 -253.78 0 0 -661.45 253.78 0 0 115.56 -107.06 0zm108.71 545.89l0 -661.45 158.95 0c38.24,0 75.86,7.31 109.28,26.53l0.31 0.18 0.3 0.19c35.35,23.13 48.63,60.25 49.07,101.42l0 404.82c-0.44,40.66 -14.08,76.74 -49.21,99.72 -33.38,20.58 -71,28.6 -109.74,28.6l-158.95 0zm698.16 -370.77l22.5 -290.68 151.05 0 -91.51 661.45 -166.84 0 -33.28 -345.95 -37.69 345.95 -163.53 0 -66.73 -661.45 151.31 0 18.31 296.51 32.61 -296.51 158.91 0 24.89 290.68zm336.27 197.06l-35.63 0 -19.09 173.72 -134.07 0 95.22 -661.45 183.43 0 76.33 661.45 -152.19 0 -14.01 -173.72zm250.75 -156l-105.9 -331.73 155.45 0 29.26 190.14 28.93 -190.14 136.9 0 -97.92 331.59 0 329.86 -146.72 0 0 -329.71zm-1998.7 -216.18l0 181.62 4.33 0 0.3 0.02c17.5,0.85 19.54,-13.22 19.54,-28.05l0 -125.55c0,-15.03 -2.36,-28.53 -19.96,-28.04l-4.2 0zm860.53 0l0 430.34 12.08 0c5.24,0 7.76,-2.08 9.6,-6.71 1.73,-7.59 2.48,-15.33 2.48,-23.12l0 -370.69c0,-8.26 -0.85,-16.42 -2.43,-24.52 -2.12,-3.79 -5.59,-5 -10.02,-5.3l-11.7 0zm864.19 256.77l13.89 0 -6.21 -98.95 -7.68 98.95z"/>
  <path fill="#0099FF" fill-rule="nonzero" d="M573.52 1149.61l0 -123.47c-0.59,-42.05 -15.21,-72.02 -43.69,-90.21 -28.78,-16.85 -63.22,-25.2 -103.19,-25.2 -38.91,0 -72.76,8.5 -101.84,25.35 -29.38,18.34 -44.44,48.76 -45.03,90.96l0 80.08c0,17.74 2.98,33.25 8.8,46.37 4.93,14.32 11.48,26.84 19.69,37.58 8.5,10.29 17.89,19.83 28.03,28.93 10.29,9.54 20.73,19.39 31.61,29.38 11.03,8.94 21.92,18.94 32.8,29.67 10.14,11.33 19.53,24.16 28.03,38.47 17.15,28.63 26.09,68.29 26.69,118.99 0,9.69 -1.04,18.64 -2.98,27.14 -3.72,10.14 -10.88,15.36 -21.32,15.36 -10.44,0 -17,-5.22 -19.54,-15.36 -3.13,-8.5 -4.77,-17.45 -4.77,-27.14l0 -125.7 -122.27 0 0 145.84c0.45,41.15 15.51,70.83 44.88,89.17 28.93,18.04 62.93,26.99 101.84,26.99 39.96,0 74.41,-9.09 103.48,-27.14 28.19,-18.34 42.65,-48.31 43.24,-89.61l0 -55.62c0,-29.08 -2.39,-54.42 -7.01,-76.04 -5.07,-20.73 -11.63,-38.47 -19.69,-53.38 -7.9,-15.21 -17,-28.48 -27.14,-39.81 -10.88,-10.44 -21.62,-20.28 -32.51,-29.37 -10.73,-9.54 -21.17,-19.24 -31.01,-28.78 -10.29,-8.8 -19.83,-18.79 -28.93,-30.27 -17.74,-21.48 -27.59,-53.39 -29.38,-95.73 0,-9.69 1.64,-19.24 4.78,-28.93 2.53,-8.35 9.09,-12.97 19.53,-13.57 10.44,0.59 17.6,5.22 21.33,13.57 1.94,9.69 2.98,19.24 2.98,28.93l0 102.59 122.57 0zm156.42 -135.24l16.26 0c21.47,-0.6 32.35,12.82 32.35,40.26l0 125.55c0,27.89 -10.89,41.3 -32.35,40.26l-16.26 0 0 -206.07zm0 545.89l0 -248.87 22.37 0c20.13,0 39.22,-2.38 57.26,-7.31 17.74,-4.77 33.55,-11.78 47.11,-21.47 28.93,-18.94 43.69,-52.19 44.14,-99.91l0 -130.62c-0.45,-48.31 -15.06,-82.46 -43.54,-102.14 -28.78,-18.33 -63.07,-27.28 -103.18,-26.69l-146.73 0 0 637 122.57 0zm447.19 0l0 -91.11 -107.06 0 0 -217.7 102.29 0 0 -90.96 -102.29 0 0 -146.13 107.06 0 0 -91.11 -229.33 0 0 637 229.33 0zm264.67 0l0 -91.11 -107.06 0 0 -217.7 102.29 0 0 -90.96 -102.29 0 0 -146.13 107.06 0 0 -91.11 -229.33 0 0 637 229.33 0zm26.1 0l146.72 0c40.11,0 74.41,-8.95 103.19,-26.69 28.48,-18.63 43.09,-48.46 43.54,-89.47l0 -404.69c-0.44,-42.19 -15.06,-72.61 -43.54,-91.25 -28.78,-16.55 -63.08,-24.9 -103.19,-24.9l-146.72 0 0 637zm122.57 -545.89l24.3 0c10.44,0.59 17.6,5.22 21.32,13.57 1.94,9.39 2.98,18.79 2.98,28.48l0 370.69c0,9.69 -1.05,18.49 -2.98,26.69 -3.72,10.14 -10.88,15.36 -21.32,15.36l-24.3 0 0 -454.79zm390.52 -91.11l-45.93 417.66 -1.64 0 -25.8 -417.66 -126.29 0 64.26 637 141.51 0 48.46 -444.8 1.79 0 42.79 444.8 145.09 0 88.12 -637 -125.7 0 -32.36 417.96 -1.78 0 -35.79 -417.96 -136.73 0zm472.68 372.33l20.28 -261.39 3.43 0 16.4 261.39 -40.11 0zm-138.23 264.68l109 0 19.09 -173.72 57.85 0 14.02 173.72 127.19 0 -73.51 -637 -161.94 0 -91.71 637zm437.64 0l122.27 0 0 -319.4 93.79 -317.6 -110.04 0 -38.47 252.89 -1.79 0 -38.92 -252.89 -128.23 0 101.39 317.6 0 319.4z"/>
  <path fill="url(#id1)" fill-rule="nonzero" d="M573.52 1149.61l0 -123.47c-0.59,-42.05 -15.21,-72.02 -43.69,-90.21 -28.78,-16.85 -63.22,-25.2 -103.19,-25.2 -38.91,0 -72.76,8.5 -101.84,25.35 -29.38,18.34 -44.44,48.76 -45.03,90.96l0 80.08c0,15.24 2.2,28.83 6.51,40.69 62.02,19.53 130.88,37.64 205.58,54.17l-0.2 -0.17c-10.73,-9.54 -21.17,-19.24 -31.01,-28.78 -10.29,-8.8 -19.83,-18.79 -28.93,-30.27 -17.74,-21.48 -27.59,-53.39 -29.38,-95.73 0,-9.69 1.64,-19.24 4.78,-28.93 2.53,-8.35 9.09,-12.97 19.53,-13.57 10.44,0.59 17.6,5.22 21.33,13.57 1.94,9.69 2.98,19.24 2.98,28.93l0 102.59 122.57 0zm1065.56 159.39c41.11,-0.09 81.89,-0.52 122.27,-1.31l0 -268.27c-0.44,-42.19 -15.06,-72.61 -43.54,-91.25 -28.78,-16.55 -63.08,-24.9 -103.19,-24.9l-146.72 0 0 383.99c40.46,0.92 81.34,1.48 122.57,1.69l0 -294.57 24.3 0c10.44,0.59 17.6,5.22 21.32,13.57 1.94,9.39 2.98,18.79 2.98,28.48l0 252.58zm180.89 -2.74c37.39,-1.06 74.45,-2.4 111.06,-4.05l-23.41 -378.94 -126.29 0 38.64 382.99zm119.39 -4.45c25.65,-1.19 51.1,-2.51 76.34,-3.98l19.87 -182.36 1.79 0 17.31 179.97c31.83,-2.06 63.26,-4.35 94.34,-6.85l-31.28 -365.31 -136.73 0 -41.63 378.54zm220.07 -14.07c35.47,-2.92 70.43,-6.1 104.83,-9.57l49.09 -354.9 -125.7 0 -28.22 364.47zm198.08 -19.76c33.73,-4 66.82,-8.28 99.29,-12.81l17.14 -220.97 3.43 0 13.56 216.08c38.94,-5.72 76.91,-11.81 113.78,-18.26l-35.63 -308.75 -161.94 0 -49.63 344.71zm384.23 -62.63c55.01,-11.89 106.89,-24.65 155.37,-38.17l72.03 -243.92 -110.04 0 -38.47 252.89 -1.79 0 -38.92 -252.89 -128.23 0 90.06 282.08zm-2134.37 20.05c83.74,15.5 173.48,29.12 268.08,40.64 16.55,-19.59 25.03,-47.35 25.37,-83.32l0 -130.62c-0.45,-48.31 -15.06,-82.46 -43.54,-102.14 -28.78,-18.33 -63.07,-27.28 -103.18,-26.69l-146.73 0 0 302.13zm340.42 48.93c39.98,4.3 80.76,8.24 122.27,11.79l0 -34.66 102.29 0 0 -90.96 -102.29 0 0 -146.13 107.06 0 0 -91.11 -229.33 0 0 351.06zm264.67 22.24c40.22,2.48 80.99,4.61 122.27,6.36l0 -51.47 102.29 0 0 -90.96 -102.29 0 0 -146.13 107.06 0 0 -91.11 -229.33 0 0 373.3zm-482.53 -282.19l16.26 0c21.47,-0.6 32.35,12.82 32.35,40.26l0 125.55c0,27.89 -10.89,41.3 -32.35,40.26l-16.26 0 0 -206.07z"/>
 </g>
</svg>
