<?xml version="1.0" encoding="UTF-8"?>
<!DOCTYPE svg PUBLIC "-//W3C//DTD SVG 1.1//EN" "http://www.w3.org/Graphics/SVG/1.1/DTD/svg11.dtd">
<!-- Creator: CorelDRAW -->
<svg xmlns="http://www.w3.org/2000/svg" xml:space="preserve" width="100%" height="100%" version="1.1" style="shape-rendering:geometricPrecision; text-rendering:geometricPrecision; image-rendering:optimizeQuality; fill-rule:evenodd; clip-rule:evenodd"
viewBox="0 0 19476.5 5267.06"
 xmlns:xlink="http://www.w3.org/1999/xlink"
 xmlns:xodm="http://www.corel.com/coreldraw/odm/2003">
 <defs>
  <style type="text/css">
   <![CDATA[
    .fil1 {fill:black}
    .fil0 {fill:#FFCC00}
    .fil2 {fill:#00CCFF;fill-rule:nonzero}
    .fil3 {fill:url(#id0);fill-rule:nonzero}
   ]]>
  </style>
  <radialGradient id="id0" gradientUnits="userSpaceOnUse" gradientTransform="matrix(2.13069E-17 0.347968 -1.96541 4.38421E-06 11862 -2299)" cx="9728.08" cy="1085.81" r="8092.99" fx="9728.08" fy="1085.81">
   <stop offset="0" style="stop-opacity:1; stop-color:#00CCFF"/>
   <stop offset="0.45098" style="stop-opacity:1; stop-color:#00CCFF"/>
   <stop offset="1" style="stop-opacity:1; stop-color:#FEFEFE"/>
  </radialGradient>
 </defs>
 <g id="Layer_x0020_1">
  <metadata id="CorelCorpID_0Corel-Layer"/>
  <rect class="fil0" width="19476.5" height="5267.06"/>
  <path class="fil1" d="M2188.76 2484.08c102.59,21.6 200.72,57.6 265.02,118.21 114.3,107.74 141.28,273.36 137.99,423l0 621.35c0,101.6 6.92,228.72 43.58,324.54l0.56 1.54c24.26,71.49 49.22,143.01 76.46,213.41l22.63 58.46 -910.25 0 -12.66 -19.87c-32.72,-51.33 -56.61,-109.77 -75.27,-167.57 -32.8,-79.8 -41.12,-174.59 -41.12,-260.02l0.02 -715.57c2.23,-76.18 -3.56,-160.51 -34.11,-231.38 -31.93,-54.97 -130.85,-68.92 -202.11,-72.18l0 1466.59 -898.05 0 0 -3222.12 1014.92 0c239.58,-2.63 483.96,32.13 702.33,135.56l1.35 0.66c215.62,111.57 308.74,303.07 311.72,540.76l0 277.77c0,62.04 -8.09,123.77 -24.21,183.68l-0.86 3.2 -1.34 3.03c-27.91,63.04 -67.53,119.19 -114.76,169.21l-1.32 1.33c-59.6,57.85 -134.97,99.64 -211.93,129.6 -15.84,6.16 -32.07,11.75 -48.59,16.81zm1893.04 -933.56c-21.94,-31.78 -65.03,-40.24 -101.48,-41.99 -30.78,1.47 -76.47,7.94 -89.56,40.54l-0.57 1.37c-17.49,39.58 -27.96,81.63 -27.96,125.06l0 1916.08c0,40.52 9.14,78.96 27.15,115.26l1.29 2.61 0.94 2.77c13.17,39.14 51.69,46.36 88.71,46.36 42.07,0 80.69,-10.38 101.29,-48.81 11.41,-38.43 16.81,-78.09 16.81,-118.19l0 -664.03 896.07 0 0 765.65c-3.27,222.91 -112.46,382.85 -313.24,476.86 -218.07,102.12 -462.98,136.19 -701.92,136.19 -237.25,0 -476.33,-37.19 -692.88,-137.6 -203.07,-94.17 -317.88,-252.9 -322.27,-479.02l0 -2114.38c4.34,-228.07 116.97,-389.92 322.2,-485.61l1.16 -0.52c217.6,-93.7 456.13,-128.31 691.79,-128.31 237.9,0 481.3,32.85 700.84,128.37l1.29 0.59c202.82,96.25 309.81,259.66 313.03,484.84l0 637.9 -896.07 0 0 -537.01c0,-42.22 -5.95,-84.17 -16.62,-124.98zm2462.12 672.27c17.51,12.47 35.36,24.49 53.56,36.06l1.06 0.67 1.01 0.74c67.04,48.29 135.14,95.15 203.57,140.36 73.74,45.77 145.96,95.1 217.14,145.8l1.3 0.93 1.22 1.01c71.55,59.43 134.29,128.24 187.35,204.12 60.24,82.9 104.17,176.87 136.24,274.33l0.49 1.56c35.78,124.4 48.1,257.2 48.1,386.28l0 274.24c-4.32,222.28 -111.61,383.16 -311.13,479.63 -220.08,101.49 -463.61,137.73 -704.01,137.73 -237.03,0 -476.49,-36.52 -692.88,-136.87 -202.88,-94.07 -318.96,-251.29 -322.28,-477.65l0 -761.25 872.97 0c-27.66,-27.84 -56.61,-54.4 -86.81,-79.54 -69.03,-50.57 -139.77,-99.01 -213.07,-143.18l-1.04 -0.62 -1 -0.68c-70.07,-47.78 -139.16,-96.97 -209.35,-144.56 -66.18,-44.87 -130.89,-92.53 -190.38,-146.03l-1.21 -1.15c-58.11,-56.51 -104.27,-122.31 -138.53,-195.75 -44.64,-75.77 -63.19,-160.87 -63.19,-248.35l0 -394.64c4.35,-228.5 117.37,-390.86 323.24,-486.37l1.09 -0.49c217.96,-93.85 455.75,-128.31 691.8,-128.31 237.32,0 481.79,32.33 700.84,127.64l1.29 0.58c202.36,96.04 309.72,257.63 314.01,482.55l0 651.21 -821.4 0zm-93.23 -672.88c-22.12,-31.23 -65.4,-39.64 -101.51,-41.38 -30.36,1.46 -76.58,8.01 -89.85,40.49 -17.4,40.01 -28.04,81.28 -28.23,124.56 9.48,163.53 54.82,327.64 180.73,440.85 18.08,16.97 36.56,33.35 55.45,49.14l0 -488.81c0,-42.33 -6.06,-83.93 -16.59,-124.85zm-189.96 1404.43l0 637.97c0,40.58 9.15,78.25 27.14,114.53l1.3 2.61 0.94 2.77c13.16,39.14 51.7,46.36 88.72,46.36 42.06,0 80.7,-10.39 101.29,-48.81 11.35,-38.14 17.33,-77 16.8,-116.89 -2.59,-195.94 -41.67,-403.11 -167.38,-559.5 -21.89,-27.25 -44.85,-53.63 -68.81,-79.04zm2481.43 296.39c-73.79,39.05 -155.3,63.89 -236.92,80.31 -93.12,18.74 -188.1,26.88 -283.02,26.88l-64.3 0 0 886.67 -673.62 0 0 -2355.44 746.26 0c175.11,-1.94 353.72,23.62 513.39,99.23l1.22 0.61c159.79,82.04 229.92,225.02 232.11,401.85l0 465.92c-2.21,176.6 -74.41,315.51 -235.12,393.97zm1046.62 -951.08l0 434.73 490.49 0 0 409.97 -490.49 0 0 689.73 513.35 0 0 410.51 -1185.52 0 0 -2355.44 1185.52 0 0 410.5 -513.35 0zm1269.08 0l0 434.73 490.49 0 0 409.97 -490.49 0 0 689.73 513.35 0 0 410.51 -1185.53 0 0 -2355.44 1185.53 0 0 410.5 -513.35 0zm552.57 1944.94l0 -2355.44 746.48 0c173.5,0 351.11,23.58 511.64,92.16l0.97 0.42 0.94 0.46c150.29,73.09 230.55,195.61 232.94,363.45l0 1442.46c-2.43,166 -84.95,285.1 -233.38,357.28 -160.49,73.54 -338.25,99.21 -513.11,99.21l-746.48 0zm3332.76 -1178.17l122.66 -1177.27 693.13 0 -438.54 2355.44 -769.1 0 -174.12 -1344.68 -197.18 1344.68 -753.13 0 -319.82 -2355.44 694.28 0 98.98 1190.64 176.2 -1190.64 730.98 0 135.66 1177.27zm1627.15 559.25l-201.79 0 -91.52 618.92 -611.79 0 456.36 -2355.44 848.68 0 365.83 2355.44 -698.55 0 -67.22 -618.92zm1202.49 -553.15l-508.45 -1183.37 715.06 0 155.72 751.81 153.92 -751.81 625.99 0 -470.06 1182.75 0 1172.69 -672.18 0 0 -1172.07zm-16313.33 -1515.58l0 774.5 65.53 0 0.76 0.02c113.61,4.1 169.91,-39.04 169.91,-155.29l0 -463.97c0,-115.82 -58.21,-157.59 -171.01,-155.26l-65.19 0zm6698.42 742.71l0 648.29 35.75 0 0.78 0.03c75.48,2.73 110.64,-23.25 110.64,-100.51l0 -447.32c0,-76.9 -36.74,-102.04 -111.76,-100.49l-35.41 0zm4126.12 0l0 1534.43 73.59 0c25.45,0 49.52,-5.23 62.37,-28.21 7.74,-25.61 11.22,-51.85 11.22,-78.65l0 -1320.71c0,-28.37 -3.9,-56.07 -10.97,-83.43 -14.13,-18 -42.23,-22.44 -63.57,-23.43l-72.64 0zm4143.73 916.05l97.93 0 -43.8 -518.54 -54.13 518.54z"/>
  <path class="fil2" d="M1416.55 4201.63l0 -1467.52c154.12,0 248,32.3 283.55,96.9 29.65,67.54 41.5,151.24 38.55,251.81l0 714.31c0,102.04 12.83,183.53 38.52,245.2 20.76,64.61 44.46,117.46 71.14,159.3l824.01 0c-22.73,-58.73 -48.42,-130.67 -77.08,-215.1 -30.62,-80.02 -46.43,-193.81 -46.43,-339.89l0 -621.82c3.95,-179.13 -37.55,-309.8 -124.49,-391.28 -85.96,-81.5 -259.86,-127.75 -520.68,-138.03l0 -8.07c129.42,-8.8 235.14,-28.63 318.13,-60.2 82.99,-33.03 149.19,-73.41 197.6,-120.39 46.45,-49.19 82.02,-101.32 106.72,-157.11 15.8,-58.73 22.72,-116.73 22.72,-172.52l0 -277.5c-2.97,-237.86 -99.79,-405.24 -288.5,-502.88 -190.68,-90.3 -417.93,-134.34 -683.71,-131.41l-972.2 0 0 3136.2 812.15 0zm0 -2687.64l107.7 0c142.27,-2.94 214.4,63.13 214.4,198.21l0 463.97c0,137.29 -72.13,203.35 -214.4,198.22l-107.7 0 0 -860.4zm2724.82 1456.51l0 621.08c0,47.7 -6.92,92.49 -19.77,134.34 -24.7,49.92 -72.11,75.61 -141.28,75.61 -69.15,0 -112.62,-25.69 -129.42,-75.61 -20.76,-41.85 -31.62,-86.64 -31.62,-134.34l0 -1916.08c0,-47.72 10.86,-95.45 31.62,-142.42 16.8,-41.85 60.27,-64.61 129.42,-67.54 69.17,2.93 116.58,25.69 141.28,67.54 12.85,46.97 19.77,94.7 19.77,142.42l0 494.06 810.17 0 0 -594.65c-2.98,-207.75 -99.8,-356.78 -288.5,-446.34 -190.68,-82.96 -417.94,-124.81 -683.71,-124.81 -256.88,0 -482.14,41.85 -674.8,124.81 -193.65,90.29 -293.44,239.33 -297.4,447.09l0 2113.56c3.96,203.35 103.75,350.18 297.4,440.47 192.66,88.83 417.92,133.61 674.8,133.61 265.77,0 493.03,-44.05 683.71,-132.14 188.7,-89.57 285.52,-235.66 288.5,-438.28l0 -722.38 -810.17 0zm3181 -790.66l0 -607.86c-3.96,-207.03 -100.77,-354.59 -289.48,-444.14 -190.68,-82.97 -418.92,-124.08 -683.71,-124.08 -257.86,0 -482.14,41.85 -674.81,124.81 -194.63,90.29 -294.41,240.06 -298.37,447.82l0 394.23c0,87.35 19.76,163.7 58.28,228.31 32.61,70.47 76.09,132.15 130.43,185 56.31,50.65 118.56,97.64 185.75,142.42 68.16,46.98 137.33,95.44 209.45,144.63 73.11,44.04 145.24,93.23 217.36,146.09 67.18,55.79 129.43,118.92 185.75,189.4 113.61,140.95 172.91,336.23 176.85,585.84 0,47.72 -6.92,91.76 -19.76,133.61 -24.7,49.92 -72.13,75.61 -141.28,75.61 -69.16,0 -112.63,-25.69 -129.43,-75.61 -20.76,-41.85 -31.62,-85.89 -31.62,-133.61l0 -618.88 -810.17 0 0 717.98c2.98,202.62 102.76,348.72 297.4,439.01 191.66,88.83 416.94,132.88 674.81,132.88 264.78,0 493.01,-44.78 685.67,-133.61 186.73,-90.29 282.57,-237.85 286.52,-441.22l0 -273.82c0,-143.15 -15.82,-267.96 -46.44,-374.41 -33.58,-102.05 -77.06,-189.41 -130.41,-262.82 -52.37,-74.88 -112.64,-140.22 -179.82,-196.01 -72.13,-51.39 -143.26,-99.84 -215.39,-144.62 -71.12,-46.99 -140.3,-94.71 -205.5,-141.69 -68.17,-43.31 -131.41,-92.5 -191.67,-149.03 -117.58,-105.72 -182.78,-262.81 -194.63,-471.31 0,-47.72 10.85,-94.71 31.6,-142.43 16.8,-41.1 60.28,-63.86 129.43,-66.79 69.16,2.93 116.59,25.69 141.29,66.79 12.85,47.72 19.76,94.71 19.76,142.43l0 505.08 812.14 0zm792.6 76.85l77.92 0c102.97,-2.12 155.15,45.7 155.15,143.45l0 447.32c0,99.35 -52.18,147.16 -155.15,143.44l-77.92 0 0 -734.21zm0 1944.94l0 -886.66 107.25 0c96.51,0 188.03,-8.5 274.54,-26.03 85.08,-17 160.88,-41.98 225.94,-76.51 138.71,-67.47 209.49,-185.94 211.62,-355.94l0 -465.38c-2.13,-172.13 -72.19,-293.79 -208.76,-363.91 -137.99,-65.34 -302.45,-97.23 -494.76,-95.09l-703.54 0 0 2269.52 587.71 0zm2144.21 0l0 -324.6 -513.35 0 0 -775.63 490.49 0 0 -324.07 -490.49 0 0 -520.64 513.35 0 0 -324.58 -1099.62 0 0 2269.52 1099.62 0zm1269.08 0l0 -324.6 -513.35 0 0 -775.63 490.49 0 0 -324.07 -490.49 0 0 -520.64 513.35 0 0 -324.58 -1099.63 0 0 2269.52 1099.63 0zm125.12 0l703.53 0c192.33,0 356.78,-31.87 494.77,-95.09 136.56,-66.41 206.63,-172.67 208.77,-318.76l0 -1441.83c-2.14,-150.35 -72.21,-258.72 -208.77,-325.13 -137.99,-58.96 -302.44,-88.71 -494.77,-88.71l-703.53 0 0 2269.52zm587.71 -1944.94l116.54 0c50.05,2.13 84.37,18.61 102.24,48.36 9.29,33.47 14.3,66.93 14.3,101.46l0 1320.71c0,34.53 -5.01,65.88 -14.3,95.09 -17.87,36.13 -52.19,54.72 -102.24,54.72l-116.54 0 0 -1620.34zm1872.53 -324.58l-220.22 1488.04 -7.86 0 -123.69 -1488.04 -605.59 0 308.17 2269.52 678.5 0 232.37 -1584.73 8.58 0 205.2 1584.73 695.67 0 422.54 -2269.52 -602.73 0 -155.14 1489.11 -8.57 0 -171.61 -1489.11 -655.62 0zm2266.47 1326.55l97.25 -931.3 16.44 0 78.65 931.3 -192.34 0zm-662.77 942.97l522.64 0 91.52 -618.92 277.41 0 67.21 618.92 609.88 0 -352.49 -2269.52 -776.46 0 -439.71 2269.52zm2098.46 0l586.28 0 0 -1137.95 449.72 -1131.57 -527.65 0 -184.47 901 -8.57 0 -186.62 -901 -614.89 0 486.2 1131.57 0 1137.95z"/>
  <path class="fil3" d="M2494.6 2728.39c-18.65,-36.78 -42.06,-68.41 -70.28,-94.85 -85.96,-81.5 -259.86,-127.75 -520.68,-138.03l0 -8.07c129.42,-8.8 235.14,-28.63 318.13,-60.2 82.99,-33.03 149.19,-73.41 197.6,-120.39 46.45,-49.19 82.02,-101.32 106.72,-157.11 15.8,-58.73 22.72,-116.73 22.72,-172.52l0 -277.5c-2.97,-237.86 -99.79,-405.24 -288.5,-502.88 -190.68,-90.3 -417.93,-134.34 -683.71,-131.41l-972.2 0 0 1451.97c604.82,78.14 1236.24,148.59 1890.2,210.99zm16112.8 -181.37c-138.66,17.28 -278.35,34.24 -419.56,50.74l136.29 -665.65 527.65 0 -244.38 614.91zm-522.61 62.58c-146.23,16.81 -294.17,33.07 -443.05,49.02l-312.16 -726.51 614.89 0 140.32 677.49zm-1029.14 109.03c-173.14,16.81 -348.4,32.85 -524.73,48.5l-37.14 -439.77 -16.44 0 -46.86 448.65c-147.07,12.82 -295.08,25.28 -444.18,37.31l170.73 -881.21 776.46 0 122.16 786.52zm-1518.89 129.42c-175.68,12.96 -353.09,25.16 -531.47,36.95l99.27 -952.89 602.73 0 -170.53 915.94zm-656.75 45.17c-151.33,9.79 -303.52,19.18 -456.72,28.08l-39.41 -304.4 -8.58 0 -45.43 309.85c-121.62,6.92 -243.69,13.64 -366.42,20.02l150.17 -1014.66 655.62 0 110.77 961.11zm-1033.34 59.34c-181.66,9.15 -364.51,17.68 -548.36,25.69l-142.05 -1046.14 605.59 0 84.82 1020.45zm-786.22 35.73c-194.2,7.84 -389.72,14.93 -586.28,21.39l0 -603.17c0,-34.53 -5.01,-67.99 -14.3,-101.46 -17.87,-29.75 -52.19,-46.23 -102.24,-48.36l-116.54 0 0 760.46c-194.79,5.86 -390.83,10.93 -587.71,15.44l0 -1100.48 703.53 0c192.33,0 356.78,29.75 494.77,88.71 136.56,66.41 206.63,174.78 208.77,325.13l0 642.34zm-1555.05 47.71c-355.71,7.51 -714.85,12.66 -1076.77,15.65l0 -1119.54 1099.63 0 0 324.58 -513.35 0 0 520.64 490.49 0 0 258.67zm-1269.08 17.13c-170.43,1.02 -341.3,1.69 -512.95,1.69 -188.77,0 -376.57,-0.83 -563.81,-2.09l0 -1120.62 1099.62 0 0 324.58 -513.35 0 0 520.64 490.49 0 0 275.8zm-1344.46 -2.45c-459.84,-4.54 -915.07,-12.65 -1364.6,-24.43l0 -1094.14 703.54 0c192.31,-2.14 356.77,29.75 494.76,95.09 136.57,70.12 206.63,191.78 208.76,363.91l0 465.38c-0.93,74.66 -15.12,139.37 -42.46,194.19zm-1593.22 -30.89c-320.1,-9.28 -637.62,-20.18 -951.67,-33.02 -52.03,-62.59 -108.85,-119.16 -169.7,-169.7 -72.12,-52.86 -144.25,-102.05 -217.36,-146.09 -72.12,-49.19 -141.29,-97.65 -209.45,-144.63 -67.19,-44.78 -129.44,-91.77 -185.75,-142.42 -54.34,-52.85 -97.82,-114.53 -130.43,-185 -38.52,-64.61 -58.28,-140.96 -58.28,-228.31l0 -394.23c3.96,-207.76 103.74,-357.53 298.37,-447.82 192.67,-82.96 416.95,-124.81 674.81,-124.81 264.79,0 493.03,41.11 683.71,124.08 188.71,89.55 285.52,237.11 289.48,444.14l0 607.86 -812.14 0 0 -505.08c0,-47.72 -6.91,-94.71 -19.76,-142.43 -24.7,-41.1 -72.13,-63.86 -141.29,-66.79 -69.15,2.93 -112.63,25.69 -129.43,66.79 -20.75,47.72 -31.6,94.71 -31.6,142.43 11.85,208.5 77.05,365.59 194.63,471.31 60.26,56.53 123.5,105.72 191.67,149.03 65.2,46.98 134.38,94.7 205.5,141.69 72.13,44.78 143.26,93.23 215.39,144.62 67.18,55.79 127.45,121.13 179.82,196.01 49.75,68.46 90.92,149.06 123.48,242.37zm-1080.86 -38.5c-59.75,-2.54 -119.3,-5.18 -178.82,-7.86l178.82 0 0 7.86zm-2398.5 -140.13c-274.18,-20.6 -544.92,-42.61 -812.15,-65.96l0 -1199.54c3.96,-207.76 103.75,-356.8 297.4,-447.09 192.66,-82.96 417.92,-124.81 674.8,-124.81 265.77,0 493.03,41.85 683.71,124.81 188.7,89.56 285.52,238.59 288.5,446.34l0 594.65 -810.17 0 0 -494.06c0,-47.72 -6.92,-95.45 -19.77,-142.42 -24.7,-41.85 -72.11,-64.61 -141.28,-67.54 -69.15,2.93 -112.62,25.69 -129.42,67.54 -20.76,46.97 -31.62,94.7 -31.62,142.42l0 1165.66zm-2402.73 -1327.17l107.7 0c142.27,-2.94 214.4,63.13 214.4,198.21l0 463.97c0,137.29 -72.13,203.35 -214.4,198.22l-107.7 0 0 -860.4zm6698.42 742.7l0 734.21 77.92 0c102.97,3.72 155.15,-44.09 155.15,-143.44l0 -447.32c0,-97.75 -52.18,-145.57 -155.15,-143.45l-77.92 0z"/>
 </g>
</svg>
