<?xml version="1.0" encoding="UTF-8"?>
<!DOCTYPE svg PUBLIC "-//W3C//DTD SVG 1.0//EN" "http://www.w3.org/TR/2001/REC-SVG-20010904/DTD/svg10.dtd">
<!-- Creator: CorelDRAW -->
<svg xmlns="http://www.w3.org/2000/svg" xml:space="preserve" width="100%" height="100%" version="1.0" shape-rendering="geometricPrecision" text-rendering="geometricPrecision" image-rendering="optimizeQuality" fill-rule="evenodd" clip-rule="evenodd"
viewBox="0 0 19476.5 5267.06"
 xmlns:xlink="http://www.w3.org/1999/xlink"
 xmlns:xodm="http://www.corel.com/coreldraw/odm/2003">
 <defs>
   <radialGradient id="id0" gradientUnits="userSpaceOnUse" gradientTransform="matrix(2.0732E-06 0.287717 -1.72188 3.10979E-06 11867 -1558)" cx="9730.29" cy="1241.11" r="14585.61" fx="9730.29" fy="1241.11">
    <stop offset="0" stop-opacity="1" stop-color="#0099FF"/>
    <stop offset="0.529412" stop-opacity="1" stop-color="#0099FF"/>
    <stop offset="1" stop-opacity="1" stop-color="white"/>
   </radialGradient>
 </defs>
 <g id="Layer_x0020_1">
  <metadata id="CorelCorpID_0Corel-Layer"/>
  <rect fill="white" width="19476.5" height="5267.06"/>
  <path fill="black" d="M8221.85 2090.87l524.63 0 111.01 536.04 109.74 -536.04 459.87 0 -342.3 861.27 0 853.04 -492.68 0 0 -852.56 -325.09 -756.61 0 197.64 -287.47 0 0 1411.53 -492.68 0 0 -1411.53 -285.92 0 0 -302.78 1020.89 0zm-6979.2 433.76c71.58,15.95 139.39,41.89 184.55,84.45 83.48,78.68 103.31,199.52 100.89,308.81l0.01 450.9c0,73.41 4.99,165.45 31.48,234.67l0.45 1.21c17.59,51.85 35.68,103.73 55.44,154.78l17.69 45.73 -665.47 0 -9.91 -15.53c-23.84,-37.41 -41.26,-79.97 -54.86,-122.1 -23.91,-58.2 -30,-127.23 -30,-189.54l0 -518.91 0.02 -0.49c1.62,-54.87 -2.53,-115.69 -24.5,-166.75 -22.31,-38.15 -91.38,-48.37 -142.07,-50.93l0 1064.25 -656.62 0 0 -2343.3 738.99 0c174.23,-1.92 351.94,23.4 510.76,98.6l1.06 0.53c157.3,81.38 225.38,221.17 227.54,394.6l0 201.6c0,45.24 -5.89,90.25 -17.64,133.94l-0.67 2.5 -1.06 2.37c-20.36,46 -49.26,86.98 -83.73,123.48l-0.5 0.54 -0.53 0.5c-43.5,42.22 -98.45,72.72 -154.62,94.59 -8.75,3.4 -17.66,6.56 -26.7,9.5zm4588.17 -676.07c-15.51,-22.03 -45.99,-27.83 -71.42,-29.07 -21.2,1.02 -53.72,5.4 -62.75,27.89l-0.45 1.07c-12.55,28.42 -20.08,58.61 -20.08,89.79l0 1390.59c0,29.05 6.55,56.56 19.45,82.57l1.02 2.05 0.73 2.17c9.17,27.27 36.37,31.99 62.08,31.99 29.51,0 56.72,-7.06 71.26,-33.93 8.16,-27.59 12.02,-56.07 12.02,-84.85l0 -484.35 655.18 0 0 558.12c-2.39,162.74 -82.18,279.63 -228.74,348.27 -158.61,74.27 -336.66,99.07 -510.44,99.07 -172.55,0 -346.39,-27.07 -503.87,-100.08 -148.23,-68.74 -232.09,-184.79 -235.3,-349.84l0 -1534.56c3.17,-166.48 85.45,-284.77 235.23,-354.61l0.91 -0.41c158.24,-68.13 331.66,-93.31 503.03,-93.31 173,0 349.95,23.91 509.6,93.37l1 0.45c148.04,70.26 226.23,189.68 228.58,354.05l0 465.4 -655.18 0 0 -392.16c0,-30.29 -4.25,-60.39 -11.86,-89.68zm-4202.57 1656l0 -1114.37c2.36,-123.93 64.19,-211.88 175.68,-263.45l0.82 -0.36c115.63,-49.78 242.49,-67.9 367.69,-67.9 126.5,0 255.75,17.55 372.48,68.34l1.1 0.5c110.17,52.71 168.87,142.25 170.6,264.88l0 1110.5c-1.75,121.62 -61.41,209.85 -170.76,261.48 -116.04,54.79 -246.07,73.39 -373.42,73.39 -126.06,0 -253.21,-19.48 -368.44,-72.48 -110.4,-50.76 -173.36,-137.5 -175.75,-260.53zm1623.71 -411.62c-8.15,-7.55 -16.51,-14.9 -25.06,-22.03 -35.9,-26.28 -72.69,-51.47 -110.81,-74.44l-0.81 -0.49 -0.78 -0.53c-36.78,-25.1 -73.07,-50.92 -109.93,-75.9 -35.17,-23.85 -69.54,-49.19 -101.17,-77.63l-0.95 -0.9c-31.36,-30.49 -56.3,-65.98 -74.84,-105.57 -24.26,-41.39 -34.44,-87.83 -34.44,-135.59l0 -207.36c2.36,-124.35 64.2,-213.41 176.16,-265.35l0.86 -0.39c115.86,-49.89 242.19,-68.28 367.68,-68.28 126.2,0 256,17.28 372.48,67.95l1.01 0.46c110.06,52.24 168.89,140.88 171.22,263.3l0 353.16 -406.3 0c34.94,25.16 70.42,49.58 105.95,73.06 38.8,24.08 76.93,50.1 114.51,76.88l1.01 0.72 0.95 0.79c38.34,31.84 71.95,68.72 100.33,109.29 32.25,44.38 55.84,94.75 73.05,147.03l0.38 1.21c19.08,66.35 25.69,137.08 25.69,205.93l0 144.14c-2.35,121.01 -61.1,209.25 -169.73,261.78 -117.16,54.03 -246.57,73.39 -374.46,73.39 -126.12,0 -253.41,-19.52 -368.54,-72.91 -110.41,-51.19 -173.85,-137.57 -175.65,-260.8l0 -410.92 442.19 0zm144.44 416.02c5.43,-18.6 8.28,-37.49 8.02,-56.95 -1.33,-100.29 -21.08,-206.97 -85.47,-287.07 -5.37,-6.69 -10.87,-13.28 -16.49,-19.76l0 306.39c0,19.61 4.42,37.71 13.11,55.25l1.01 2.04 0.73 2.16c5.14,15.28 22.05,16.83 36.13,16.83 17.38,0 34.04,-3.34 42.96,-18.89zm-7.55 -831.95l0 -232.53c0,-20.56 -2.85,-40.77 -7.82,-60.67 -9.7,-11.81 -28.79,-14.83 -43.15,-15.58 -10.85,0.57 -32.29,2.93 -36.89,14.17l-0.28 0.68c-8.39,19.29 -13.66,39.4 -13.81,60.49 4.85,82.71 27.51,166.3 91.08,223.45l0.52 0.49c3.42,3.2 6.87,6.37 10.35,9.5zm1069.19 -283.36l0 310.64 355.97 0 0 302.4 -355.97 0 0 495.72 372.57 0 0 302.77 -865.27 0 0 -1714.31 865.27 0 0 302.78 -372.57 0zm2689.74 1411.53l-492.7 0 0 -1714.31 492.7 0 0 1714.31zm4893.49 -721.55c-53.76,28.44 -113.12,46.53 -172.57,58.5 -67.73,13.63 -136.82,19.55 -205.88,19.55l-44.23 0 0 643.5 -493.73 0 0 -1714.31 544 0c127.45,-1.41 257.44,17.22 373.64,72.25l0.96 0.48c116.77,59.95 168.17,164.53 169.78,293.78l0 338.17c-1.63,129.1 -54.53,230.72 -171.97,288.08zm760.92 -689.98l0 310.64 355.96 0 0 302.4 -355.96 0 0 495.72 372.56 0 0 302.77 -865.26 0 0 -1714.31 865.26 0 0 302.78 -372.56 0zm921.04 0l0 310.64 355.96 0 0 302.4 -355.96 0 0 495.72 372.56 0 0 302.77 -865.26 0 0 -1714.31 865.26 0 0 302.78 -372.56 0zm396.17 1411.53l0 -1714.31 544.2 0c126.25,0 255.46,17.17 372.27,67.09l0.75 0.32 0.74 0.36c109.89,53.44 168.68,143.2 170.42,265.94l0 1046.9c-1.77,121.41 -62.2,208.68 -170.42,261.3l-0.7 0.33c-116.47,53.36 -245.81,72.07 -373.06,72.07l-544.2 0zm2421.06 -879.73l86.96 -834.58 508.15 0 -319.18 1714.31 -562.34 0 -124.38 -960.61 -140.85 960.61 -550.8 0 -232.77 -1714.31 508.89 0 70.28 845.4 125.1 -845.4 534.77 0 96.17 834.58zm1178.85 430.55l-142.18 0 -66.42 449.18 -449.04 0 332.14 -1714.31 620.02 0 266.24 1714.31 -511.98 0 -48.78 -449.18zm872.46 -403.38l-370.27 -861.75 524.62 0 111.01 536.06 109.75 -536.06 459.86 0 -342.29 861.27 0 853.04 -492.68 0 0 -852.56zm-8139.32 -614.76c10.66,7.46 21.5,14.69 32.52,21.69l0.83 0.53 0.8 0.58c48.62,35.02 98,69.02 147.61,101.79 53.55,33.23 106.01,69.05 157.7,105.89l1.01 0.72 0.96 0.8c52.1,43.27 97.77,93.36 136.39,148.59 43.86,60.34 75.84,128.77 99.21,199.74l0.38 1.22c26.03,90.51 35.01,187.1 35.01,281.01l0 199.07c-3.16,162.26 -81.55,279.83 -227.2,350.26 -160.07,73.81 -337.15,100.19 -511.98,100.19 -172.39,0 -346.49,-26.59 -503.87,-99.55 -148.1,-68.67 -232.89,-183.62 -235.3,-348.85l0 -554.93 630.13 0c-18.76,-18.63 -38.31,-36.45 -58.64,-53.39 -50.03,-36.63 -101.28,-71.74 -154.41,-103.74l-0.81 -0.49 -0.78 -0.53c-50.84,-34.68 -101,-70.37 -151.94,-104.91 -48.12,-32.62 -95.16,-67.28 -138.41,-106.19l-0.96 -0.89c-42.35,-41.2 -76,-89.15 -100.98,-142.67 -32.58,-55.34 -46.14,-117.5 -46.14,-181.39l0 -286.42c3.17,-166.8 85.75,-285.46 236.01,-355.17l0.85 -0.38c158.48,-68.25 331.38,-93.31 503.02,-93.31 172.58,0 350.3,23.53 509.6,92.82l1.01 0.46c147.7,70.1 226.15,188.2 229.28,352.38l0 475.07 -590.9 0zm-77.56 -489.72c-15.63,-21.65 -46.25,-27.43 -71.43,-28.66 -20.91,1.02 -53.8,5.46 -62.83,27.57l-0.29 0.68c-12.34,28.4 -20,58 -20.15,89.04 6.85,117.99 39.51,236.53 130.12,317.99l0.51 0.49c11.72,10.99 23.7,21.66 35.92,32l0 -349.55c0,-30.37 -4.33,-60.21 -11.85,-89.56zm-133.2 1024.36l0 456.86c0,29.08 6.56,56.05 19.45,82.04l1.02 2.05 0.73 2.17c9.17,27.27 36.38,31.99 62.09,31.99 29.5,0 56.72,-7.06 71.26,-33.94 8.12,-27.36 12.4,-55.24 12.01,-83.86 -1.87,-141.63 -30.06,-291.52 -120.93,-404.57 -14.58,-18.14 -29.79,-35.73 -45.63,-52.74zm-9535.32 -1017.88l0 557.23 45.16 0 0.61 0.02c81.07,2.93 120.78,-27.31 120.78,-110.27l0 -336.73c0,-82.67 -41.12,-111.91 -121.3,-110.26l-45.25 0.01zm1509.73 529.44c-9.6,-12.06 -28.64,-15.08 -43.14,-15.83 -11.03,0.57 -32.17,2.82 -36.8,14.36l-0.44 1.05c-8.56,19.38 -13.74,39.97 -13.74,61.23l0 1006.31c0,19.59 4.41,38.1 13.11,55.64l1.01 2.04 0.73 2.16c5.14,15.28 22.05,16.83 36.13,16.83 17.37,0 34.03,-3.34 42.95,-18.88 5.46,-18.81 8.03,-38.19 8.03,-57.79l0 -1006.31c0,-20.53 -2.8,-40.93 -7.84,-60.81zm9402.49 9.58l0 465.65 23.56 0 0.6 0.02c53.42,1.93 77.8,-15.86 77.8,-70.52l0 -324.65c0,-54.4 -25.56,-71.59 -78.31,-70.5l-23.65 0zm3088.55 1089.76c5.49,-18.28 7.95,-37.01 7.95,-56.12l0 -958.51c0,-20.2 -2.75,-39.94 -7.75,-59.44 -9.85,-12.08 -29.5,-15.01 -43.97,-15.68l-50.24 0 0 1108.76 50.98 0c17.42,0 34.12,-3.36 43.03,-19.01zm2913.56 -429.79l65.74 0 -29.39 -348.08 -36.35 348.08z"/>
  <path fill="#0099FF" fill-rule="nonzero" d="M672.77 3771.58l0 -1065.05c111.85,0 179.97,23.44 205.79,70.33 21.51,49.01 30.12,109.75 27.96,182.74l0 518.41c0,74.06 9.32,133.2 27.97,177.95 15.05,46.89 32.26,85.25 51.62,115.62l598.02 0c-16.49,-42.62 -35.13,-94.84 -55.92,-156.11 -22.23,-58.07 -33.71,-140.65 -33.71,-246.68l0 -451.27c2.87,-130.01 -27.24,-224.85 -90.35,-283.99 -62.38,-59.14 -188.58,-92.7 -377.88,-100.16l0 -5.86c93.94,-6.4 170.65,-20.78 230.89,-43.7 60.22,-23.97 108.27,-53.27 143.41,-87.37 33.7,-35.7 59.51,-73.52 77.44,-114.02 11.47,-42.62 16.49,-84.71 16.49,-125.21l0 -201.39c-2.15,-172.63 -72.42,-294.11 -209.38,-364.97 -138.39,-65.53 -303.31,-97.5 -496.2,-95.37l-705.57 0 0 2276.1 589.42 0zm0 -1950.56l78.16 0c103.25,-2.13 155.59,45.82 155.59,143.85l0 336.73c0,99.63 -52.34,147.58 -155.59,143.85l-78.16 0 0 -624.43zm5203.51 1057.06l0 450.75c0,34.63 -5.02,67.13 -14.34,97.5 -17.93,36.23 -52.35,54.88 -102.54,54.88 -50.19,0 -81.75,-18.65 -93.93,-54.88 -15.06,-30.37 -22.95,-62.87 -22.95,-97.5l0 -1390.59c0,-34.64 7.89,-69.27 22.95,-103.37 12.18,-30.37 43.74,-46.88 93.93,-49.01 50.19,2.13 84.61,18.64 102.54,49.01 9.32,34.1 14.34,68.73 14.34,103.37l0 358.56 587.98 0 0 -431.56c-2.16,-150.78 -72.42,-258.94 -209.39,-323.94 -138.38,-60.2 -303.3,-90.57 -496.19,-90.57 -186.43,0 -349.91,30.37 -489.74,90.57 -140.54,65.54 -212.96,173.69 -215.84,324.47l0 1533.92c2.88,147.59 75.3,254.14 215.84,319.68 139.83,64.47 303.31,96.97 489.74,96.97 192.89,0 357.81,-31.97 496.19,-95.9 136.97,-65.01 207.23,-171.03 209.39,-318.08l0 -524.28 -587.98 0zm-4214.43 626.31c2.07,106.41 54.48,183.14 156.19,230.18 101.18,46.27 219.48,69.4 354.4,69.4 139.59,0 258.93,-23.52 359.07,-70.17 99.11,-47.43 149.97,-124.54 151.52,-231.34l0 -1110.02c-1.55,-109.12 -52.41,-187.39 -151.52,-234.82 -100.14,-43.56 -219.48,-65.54 -359.07,-65.54 -134.92,0 -253.22,21.59 -354.4,65.16 -101.71,47.04 -154.12,124.54 -156.19,233.26l0 1113.89zm595.69 -53.21c0,25.06 -3.63,48.58 -10.38,70.56 -12.97,26.22 -37.88,39.71 -74.2,39.71 -36.32,0 -59.16,-13.49 -67.98,-39.71 -10.89,-21.98 -16.6,-45.5 -16.6,-70.56l0 -1006.31c0,-25.07 5.71,-50.13 16.6,-74.8 8.82,-21.97 31.66,-33.93 67.98,-35.47 36.32,1.54 61.23,13.5 74.2,35.47 6.75,24.67 10.38,49.73 10.38,74.8l0 1006.31zm1591.44 -741.43l0 -319.25c-2.07,-108.72 -52.92,-186.22 -152.03,-233.26 -100.15,-43.57 -220.01,-65.16 -359.08,-65.16 -135.43,0 -253.22,21.98 -354.4,65.54 -102.22,47.43 -154.63,126.09 -156.7,235.2l0 207.04c0,45.89 10.38,85.99 30.61,119.92 17.12,37.01 39.95,69.4 68.49,97.16 29.58,26.6 62.27,51.27 97.56,74.79 35.8,24.68 72.12,50.12 110,75.96 38.4,23.14 76.28,48.96 114.16,76.73 35.29,29.3 67.97,62.45 97.55,99.47 59.67,74.03 90.81,176.58 92.88,307.68 0,25.06 -3.63,48.19 -10.38,70.17 -12.97,26.22 -37.87,39.71 -74.2,39.71 -36.32,0 -59.15,-13.49 -67.98,-39.71 -10.89,-21.98 -16.6,-45.11 -16.6,-70.17l0 -325.03 -425.49 0 0 377.08c1.55,106.42 53.96,183.14 156.19,230.56 100.66,46.66 218.97,69.79 354.4,69.79 139.06,0 258.93,-23.52 360.12,-70.17 98.06,-47.43 148.4,-124.92 150.47,-231.72l0 -143.82c0,-75.18 -8.3,-140.73 -24.38,-196.63 -17.65,-53.6 -40.48,-99.48 -68.5,-138.03 -27.5,-39.33 -59.15,-73.65 -94.43,-102.95 -37.89,-26.99 -75.24,-52.44 -113.13,-75.95 -37.36,-24.68 -73.68,-49.74 -107.93,-74.42 -35.8,-22.74 -69.01,-48.58 -100.66,-78.27 -61.75,-55.52 -95.99,-138.03 -102.22,-247.53 0,-25.06 5.7,-49.74 16.59,-74.8 8.83,-21.58 31.66,-33.54 67.98,-35.08 36.33,1.54 61.23,13.5 74.2,35.08 6.75,25.06 10.38,49.74 10.38,74.8l0 265.27 426.53 0zm948.03 1061.83l0 -235.57 -372.57 0 0 -562.92 355.97 0 0 -235.2 -355.97 0 0 -377.84 372.57 0 0 -235.58 -798.07 0 0 1647.11 798.07 0zm2317.17 0l0 -1647.11 -425.5 0 0 1647.11 425.5 0zm831.78 -1411.53l287.47 0 0 -235.58 -998.87 0 0 235.58 285.92 0 0 1411.53 425.48 0 0 -1411.53zm679.76 1411.53l425.48 0 0 -825.87 326.39 -821.24 -382.94 0 -133.88 653.91 -6.23 0 -135.42 -653.91 -446.26 0 352.86 821.24 0 825.87zm2959.27 -1411.53l56.55 0c74.72,-1.54 112.61,33.15 112.61,104.09l0 324.65c0,72.1 -37.89,106.8 -112.61,104.1l-56.55 0 0 -532.84zm0 1411.53l0 -643.5 77.83 0c70.06,0 136.47,-6.17 199.25,-18.89 61.75,-12.34 116.76,-30.46 163.97,-55.52 100.67,-48.97 152.04,-134.94 153.6,-258.33l0 -337.75c-1.56,-124.92 -52.4,-213.22 -151.52,-264.1 -100.14,-47.43 -219.49,-70.56 -359.07,-69.02l-510.6 0 0 1647.11 426.54 0zm1556.16 0l0 -235.57 -372.56 0 0 -562.92 355.96 0 0 -235.2 -355.96 0 0 -377.84 372.56 0 0 -235.58 -798.06 0 0 1647.11 798.06 0zm921.04 0l0 -235.57 -372.56 0 0 -562.92 355.96 0 0 -235.2 -355.96 0 0 -377.84 372.56 0 0 -235.58 -798.06 0 0 1647.11 798.06 0zm90.81 0l510.6 0c139.58,0 258.92,-23.13 359.07,-69.01 99.11,-48.2 149.96,-125.31 151.51,-231.34l0 -1046.41c-1.55,-109.11 -52.4,-187.77 -151.51,-235.96 -100.15,-42.8 -219.49,-64.39 -359.07,-64.39l-510.6 0 0 1647.11zm426.53 -1411.53l84.58 0c36.33,1.54 61.24,13.49 74.21,35.08 6.74,24.29 10.37,48.58 10.37,73.64l0 958.51c0,25.06 -3.63,47.81 -10.37,69.01 -12.97,26.22 -37.88,39.72 -74.21,39.72l-84.58 0 0 -1175.96zm1358.99 -235.58l-159.83 1079.95 -5.7 0 -89.77 -1079.95 -439.5 0 223.65 1647.11 492.42 0 168.64 -1150.12 6.24 0 148.91 1150.12 504.89 0 306.66 -1647.11 -437.43 0 -112.6 1080.72 -6.22 0 -124.54 -1080.72 -475.82 0zm1644.89 962.74l70.58 -675.88 11.93 0 57.08 675.88 -139.59 0zm-481.01 684.37l379.32 0 66.42 -449.17 201.32 0 48.78 449.17 442.61 0 -255.81 -1647.11 -563.52 0 -319.12 1647.11zm1522.97 0l425.48 0 0 -825.87 326.38 -821.24 -382.93 0 -133.88 653.91 -6.24 0 -135.42 -653.91 -446.25 0 352.86 821.24 0 825.87zm-7615.62 -1467.32l0 -441.15c-2.86,-150.25 -73.13,-257.35 -210.09,-322.35 -138.39,-60.2 -304.03,-90.03 -496.2,-90.03 -187.15,0 -349.91,30.36 -489.73,90.57 -141.27,65.53 -213.69,174.22 -216.55,325l0 286.11c0,63.4 14.34,118.82 42.3,165.7 23.66,51.15 55.21,95.91 94.65,134.27 40.87,36.77 86.05,70.86 134.8,103.36 49.48,34.1 99.68,69.26 152.01,104.96 53.07,31.97 105.42,67.67 157.75,106.03 48.76,40.49 93.94,86.31 134.81,137.46 82.46,102.3 125.48,244.02 128.35,425.17 0,34.63 -5.02,66.6 -14.34,96.97 -17.93,36.23 -52.34,54.88 -102.53,54.88 -50.2,0 -81.75,-18.65 -93.94,-54.88 -15.06,-30.37 -22.95,-62.34 -22.95,-96.97l0 -449.15 -587.97 0 0 521.08c2.14,147.05 74.57,253.08 215.83,318.61 139.11,64.47 302.59,96.44 489.74,96.44 192.17,0 357.81,-32.5 497.63,-96.97 135.52,-65.54 205.08,-172.62 207.95,-320.21l0 -198.74c0,-103.89 -11.48,-194.46 -33.7,-271.72 -24.39,-74.06 -55.93,-137.46 -94.65,-190.74 -38.01,-54.35 -81.75,-101.77 -130.51,-142.26 -52.34,-37.29 -103.97,-72.46 -156.32,-104.96 -51.63,-34.1 -101.82,-68.73 -149.14,-102.83 -49.48,-31.44 -95.36,-67.13 -139.11,-108.16 -85.33,-76.72 -132.65,-190.74 -141.25,-342.05 0,-34.64 7.89,-68.73 22.94,-103.36 12.2,-29.84 43.74,-46.36 93.93,-48.49 50.19,2.13 84.62,18.65 102.54,48.49 9.32,34.63 14.34,68.72 14.34,103.36l0 366.56 589.41 0z"/>
  <path fill="url(#id0)" fill-rule="nonzero" d="M1407.62 2636.85l-3.47 -3.32c-62.38,-59.14 -188.58,-92.7 -377.88,-100.16l0 -5.86c93.94,-6.4 170.65,-20.78 230.89,-43.7 60.22,-23.97 108.27,-53.27 143.41,-87.37 33.7,-35.7 59.51,-73.52 77.44,-114.02 11.47,-42.62 16.49,-84.71 16.49,-125.21l0 -201.39c-2.15,-172.63 -72.42,-294.11 -209.38,-364.97 -138.39,-65.53 -303.31,-97.5 -496.2,-95.37l-705.57 0 0 953.37c402.59,67.2 845.76,130.04 1324.27,188zm17831.76 -165.5c-106.2,17.08 -215.01,33.87 -326.41,50.36l81.33 -397.24 382.93 0 -137.85 346.88zm-435.04 66.34c-109,15.71 -220.69,31.09 -334.43,46.21l-197.4 -459.43 446.25 0 85.58 413.22zm-739.93 97.77c-123.03,14.94 -248.2,29.57 -375.86,43.85l-22.63 -267.98 -11.93 0 -28.72 274.96c-105.03,11.59 -211.22,23 -319.21,34.13l115.46 -595.95 563.52 0 79.37 510.99zm-1086.29 117.51c-128.12,12.31 -257.8,24.35 -389.65,36.02l69.23 -664.52 437.43 0 -117.01 628.5zm-486.24 44.39c-109.15,9.43 -219.36,18.68 -330.86,27.68l-26.35 -203.58 -6.24 0 -30.6 208.73c-88.25,7.02 -177.12,13.94 -266.81,20.68l107.5 -726.4 475.82 0 77.54 672.89zm-747.75 59.89c-130.99,9.65 -263.23,19.04 -397.1,28.07l-103.31 -760.85 439.5 0 60.91 732.78zm-569.95 39.46c-140.44,9.12 -282.09,17.97 -425.49,26.4l0 -454.34c0,-25.06 -3.63,-49.35 -10.37,-73.64 -12.97,-21.59 -37.88,-33.54 -74.21,-35.08l-84.58 0 0 572.72c-140.9,7.92 -283,15.56 -426.53,22.82l0 -831.12 510.6 0c139.58,0 258.92,21.59 359.07,64.39 99.11,48.19 149.96,126.85 151.51,235.96l0 471.89zm-1128.59 64.21c-84.93,4.18 -170.32,8.23 -256.14,12.17l-99.82 0 0 4.58c-140.64,6.27 -282.62,12.16 -425.5,17.78l0 -870.98 798.06 0 0 235.58 -372.56 0 0 377.84 355.96 0 0 223.03zm-1277 52.6c-140.79,4.7 -282.74,9.01 -425.5,13.03l0 -902.08 798.06 0 0 235.58 -372.56 0 0 377.84 355.96 0 0 235.2 -355.96 0 0 40.43zm-707.95 20.59c-297.06,7.48 -597.95,13.52 -902.19,18.16l0 -927.8 510.6 0c139.58,-1.54 258.93,21.59 359.07,69.02 99.12,50.88 149.96,139.18 151.52,264.1l0 337.75c-1.36,108.35 -41.16,187.85 -119,238.77zm-1037.92 20.19c-206.41,2.85 -414.47,4.97 -623.81,6.46 -20.91,-59.71 -49.4,-111.9 -85.41,-156.57 -40.87,-51.15 -86.05,-96.97 -134.81,-137.46 -52.33,-38.36 -104.68,-74.06 -157.75,-106.03 -52.33,-35.7 -102.53,-70.86 -152.01,-104.96 -48.75,-32.5 -93.93,-66.59 -134.8,-103.36 -39.44,-38.36 -70.99,-83.12 -94.65,-134.27 -27.96,-46.88 -42.3,-102.3 -42.3,-165.7l0 -286.11c2.86,-150.78 75.28,-259.47 216.55,-325 139.82,-60.21 302.58,-90.57 489.73,-90.57 192.17,0 357.81,29.83 496.2,90.03 136.96,65 207.23,172.1 210.09,322.35l0 441.15 -589.41 0 0 -366.56c0,-34.64 -5.02,-68.73 -14.34,-103.36 -17.92,-29.84 -52.35,-46.36 -102.54,-48.49 -50.19,2.13 -81.73,18.65 -93.93,48.49 -15.05,34.63 -22.94,68.72 -22.94,103.36 8.6,151.31 55.92,265.33 141.25,342.05 43.75,41.03 89.63,76.72 139.11,108.16 47.32,34.1 97.51,68.73 149.14,102.83 52.35,32.5 103.98,67.67 156.32,104.96 48.76,40.49 92.5,87.91 130.51,142.26 38.72,53.28 70.26,116.68 94.65,190.74 11.09,38.55 19.51,80.42 25.15,125.6zm-814.63 7.53c-158.55,0.82 -317.71,1.33 -477.8,1.33 -36.83,0 -73.41,-0.14 -110.17,-0.19l0 -182.76 587.97 0 0 181.62zm-1156.89 -1.16c-142.51,-1.03 -284.29,-2.41 -425.48,-4.06l0 -110.9 -352.86 -821.24 446.26 0 135.42 653.91 6.23 0 133.88 -653.91 382.94 0 -326.39 821.24 0 114.96zm-1105.24 -14.47c-142.6,-2.72 -284.53,-5.71 -425.48,-9.07l0 -677.08 -285.92 0 0 -235.58 998.87 0 0 235.58 -287.47 0 0 686.15zm-831.78 -19.74c-142.67,-4.05 -284.7,-8.35 -425.5,-13.04l0 -888.95 425.5 0 0 901.99zm-649.92 -20.91c-198.03,-7.15 -394.12,-14.9 -587.98,-23.29l0 -104.18 587.98 0 0 127.47zm-821.74 -33.78c-198.86,-9.2 -395.43,-19.03 -589.42,-29.5l0 -1076.5c2.88,-150.78 75.3,-258.93 215.84,-324.47 139.83,-60.2 303.31,-90.57 489.74,-90.57 192.89,0 357.81,30.37 496.19,90.57 136.97,65 207.23,173.16 209.39,323.94l0 431.56 -587.98 0 0 -358.56c0,-34.64 -5.02,-69.27 -14.34,-103.37 -17.93,-30.37 -52.35,-46.88 -102.54,-49.01 -50.19,2.13 -81.75,18.64 -93.93,49.01 -15.06,34.1 -22.95,68.73 -22.95,103.37l0 1033.53zm-862.11 -44.75c-265.59,-15.35 -526.19,-31.9 -781.47,-49.59l0 -752.96 798.07 0 0 235.58 -372.57 0 0 377.84 355.97 0 0 189.13zm-1214.24 -81.04c-225.86,-17.21 -447.33,-35.3 -663.64,-54.31 -17.94,-21.63 -32.98,-45.59 -45.15,-71.89 -20.23,-33.93 -30.61,-74.03 -30.61,-119.92l0 -207.04c2.07,-109.11 54.48,-187.77 156.7,-235.2 101.18,-43.56 218.97,-65.54 354.4,-65.54 139.07,0 258.93,21.59 359.08,65.16 99.11,47.04 149.96,124.54 152.03,233.26l0 319.25 -426.53 0 0 -265.27c0,-25.06 -3.63,-49.74 -10.38,-74.8 -12.97,-21.58 -37.87,-33.54 -74.2,-35.08 -36.32,1.54 -59.15,13.5 -67.98,35.08 -10.89,25.06 -16.59,49.74 -16.59,74.8 6.23,109.5 40.47,192.01 102.22,247.53 31.65,29.69 64.86,55.53 100.66,78.27 34.25,24.68 70.57,49.74 107.93,74.42l2.06 1.28zm-883.14 -74.1c-144.24,-13.28 -286.02,-26.98 -425.49,-41.05l0 -285.96c0,-25.07 -3.63,-50.13 -10.38,-74.8 -12.97,-21.97 -37.88,-33.93 -74.2,-35.47 -36.32,1.54 -59.16,13.5 -67.98,35.47 -10.89,24.67 -16.6,49.73 -16.6,74.8l0 268.6c-144.85,-15.14 -287.18,-30.68 -426.53,-46.65l0 -276.32c2.07,-108.72 54.48,-186.22 156.19,-233.26 101.18,-43.57 219.48,-65.16 354.4,-65.16 139.59,0 258.93,21.98 359.07,65.54 99.11,47.43 149.97,125.7 151.52,234.82l0 379.44zm-2010.26 -950.86l78.16 0c103.25,-2.13 155.59,45.82 155.59,143.85l0 336.73c0,99.63 -52.34,147.58 -155.59,143.85l-78.16 0 0 -624.43zm10912.22 539.03l0 532.84 56.55 0c74.72,2.7 112.61,-32 112.61,-104.1l0 -324.65c0,-70.94 -37.89,-105.63 -112.61,-104.09l-56.55 0z"/>
 </g>
</svg>
