<?xml version="1.0" encoding="UTF-8"?>
<!DOCTYPE svg PUBLIC "-//W3C//DTD SVG 1.0//EN" "http://www.w3.org/TR/2001/REC-SVG-20010904/DTD/svg10.dtd">
<!-- Creator: CorelDRAW -->
<svg xmlns="http://www.w3.org/2000/svg" xml:space="preserve" width="100%" height="100%" version="1.0" shape-rendering="geometricPrecision" text-rendering="geometricPrecision" image-rendering="optimizeQuality" fill-rule="evenodd" clip-rule="evenodd"
viewBox="0 0 19476.5 5267.06"
 xmlns:xlink="http://www.w3.org/1999/xlink"
 xmlns:xodm="http://www.corel.com/coreldraw/odm/2003">
 <g id="Layer_x0020_1">
  <metadata id="CorelCorpID_0Corel-Layer"/>
  <rect fill="none" width="19476.5" height="5267.06"/>
  <g id="_1731174344704">
   <g>
    <path fill="#47403D" fill-rule="nonzero" d="M11935.65 533.81c-124.28,-221.82 -525.53,-381.69 -525.53,-381.69l-59.83 275.4c95,25.63 191.51,74.89 247.58,106.29l337.84 0 -0.06 0z"/>
    <polygon fill="#ED1C24" fill-rule="nonzero" points="14220.24,556.29 13644.23,1160.05 12818.34,1160.05 12512.99,2877.75 11794.67,2877.75 12096.55,1160.05 11006.98,1160.05 11582.99,556.29 "/>
    <g>
     <path fill="#47403D" fill-rule="nonzero" d="M8760.96 1635.9l319.31 19.5 308.57 18.83c14.21,-114.32 41.36,-225.41 80.42,-331.65l-275.83 -106.84 -281.59 -109.09c-72.53,159.38 -124.22,330.18 -150.88,509.19l0 0.06z"/>
     <path fill="#47403D" fill-rule="nonzero" d="M12318.44 2900.22c-75.68,144.32 -239.56,319.14 -308.63,387.47l-89.29 -133.69 -90.13 -134.78c45.49,-37.24 88.5,-76.96 129.01,-119l359.04 0z"/>
     <path fill="#47403D" fill-rule="nonzero" d="M11460.78 3241.95c-48.84,20.66 -98.41,39.06 -148.76,54.24 -23.02,6.93 -46.28,11.85 -69.43,17.62l29.34 208.83 29.46 209.31c102.53,-36.38 203.42,-81.58 301.4,-136.79l-71.31 -177.36 -70.71 -175.85 0.01 0z"/>
     <path fill="#47403D" fill-rule="nonzero" d="M11746.56 3082.69c-40.45,28.61 -82.12,55.82 -125.67,80.54 -20.9,11.91 -42.89,21.14 -64.2,32.01l67.24 175.06 66.08 172.2c87.59,-55.58 169.65,-118.02 246.19,-185.99l-93.48 -135.03 -96.09 -138.79 -0.07 0z"/>
     <path fill="#47403D" fill-rule="nonzero" d="M11135.63 3336.22c-84.07,14.34 -168.38,21.26 -252.44,21.02l-24.42 237.07 -24.72 239.93c123.61,-11.12 246.91,-34.32 368.45,-70.16l-33.41 -213.74 -33.46 -214.06 0 -0.06z"/>
     <path fill="#47403D" fill-rule="nonzero" d="M9513.96 1234.04c41.31,-90.08 90.75,-175.97 148.46,-256.09l-220.92 -161.08 -223.77 -163.22c-100.34,114.2 -187.33,240.24 -258.58,375.93l281.11 103.56 273.76 100.89 -0.06 0.01z"/>
     <path fill="#47403D" fill-rule="nonzero" d="M10769.24 3352.68c-97.37,-7.71 -193.4,-24.96 -287,-51.02l-97.01 249.65 -98.46 253.41c144.2,28.73 291.74,41.06 439.95,36.14l21.32 -244.66 21.2 -243.51 0 -0.01z"/>
     <path fill="#47403D" fill-rule="nonzero" d="M9407.12 2153.72l-649.14 0 -3.34 3.34c-9.29,-74.05 -14.46,-148.94 -14.76,-224.02 -0.3,-62.62 2.49,-124.39 7.96,-185.68l320.04 25.39 310.88 24.42c-0.85,22.41 -2.5,44.64 -2.31,67.24 0.49,97.3 11.3,194.31 30.73,289.31l-0.06 0z"/>
     <path fill="#47403D" fill-rule="nonzero" d="M9880.54 3345.82l-186.18 235.13c152.04,88.31 315.01,155.07 484.11,199.05l95.37 -258.21 94.75 -256.63c-106.66,-38.88 -208.83,-89.42 -304.55,-151.01l-183.5 231.73 0 -0.06z"/>
     <path fill="#47403D" fill-rule="nonzero" d="M9999.89 638.17c64.75,-47.2 133.51,-89.35 205.85,-125.92l-101.98 -196.92 -102.84 -198.63c-112.85,41.31 -220.67,93 -322.47,153.74l161.69 184.96 159.81 182.77 -0.06 0z"/>
     <path fill="#47403D" fill-rule="nonzero" d="M10979.95 356.45c16.04,0.91 32.19,0.73 48.11,2 74.1,7.42 146.2,21.75 217.09,39.36l33.95 -141.46 34.07 -141.95c-110.54,-39.79 -226.2,-69.67 -345.92,-88.87l6.38 165.58 6.32 165.34z"/>
     <path fill="#47403D" fill-rule="nonzero" d="M10628.81 373.76c79.57,-13.42 160.35,-21.26 241.87,-21.99 0.91,0 1.82,0.12 2.79,0.12l-3.34 -171.47 -3.28 -168.43c-5.65,-0.61 -11.18,-1.52 -16.83,-2.07 -66.75,-6.5 -134.36,-10.2 -201.54,-9.9 -41,0.24 -81.57,2.25 -121.9,5.04l51.51 185.63 50.77 183.07 -0.05 0z"/>
     <path fill="#47403D" fill-rule="nonzero" d="M10301.53 468.52c46.9,-19.62 94.58,-37.78 143.96,-52.67 26.54,-8.01 53.45,-14.57 80.42,-21.07l-49.08 -189.39 -49.5 -190.91c-114.07,13.85 -225.05,37.53 -332.07,70.46l103.62 192.67 102.65 190.85 0 0.06z"/>
     <path fill="#47403D" fill-rule="nonzero" d="M9731.23 889.69c55.95,-66.75 117.11,-129.19 183.93,-185.62l-159.93 -188.66 -162.06 -191.22c-110.18,73.8 -212.35,158.54 -304.8,252.99l222.68 157.08 220.24 155.37 -0.06 0.06z"/>
    </g>
    <path fill="#47403D" fill-rule="nonzero" d="M9075.9 3005.25c4.8,7.16 9.72,14.27 14.52,21.13l15.42 21.93c12.94,18.28 26.73,36.87 42.04,56.31 2.97,4.01 6.13,8.14 9.29,12.27 126.89,159.75 275.82,294.59 439.89,403.38l184.35 -241.45 180.52 -236.64c-26.67,-20.53 -86.92,-68.03 -147.66,-123.55 -214.36,57.22 -461.09,86.25 -738.43,86.62l0.06 0z"/>
    <path fill="#ED1C24" fill-rule="nonzero" d="M10930.63 556.29l-718.33 0 -225.53 1266.57c-13.91,83.27 -38.14,153.86 -72.89,211.68 -34.68,57.82 -83.88,105.33 -147.48,142.25 -63.65,37.06 -143.47,63.66 -239.44,79.82 -96.03,16.21 -213.38,24.29 -352.24,24.29l-558.57 0.01c-9.66,37.35 -21.38,73.74 -35.23,109.09 -46.89,119.9 -122.64,224.8 -225.11,311.66 -85.58,72.59 -192.61,131.63 -318.77,176.09l1033.58 0c969.3,0 1514.09,-351.63 1634.42,-1054.89l118.02 -662.81 50.35 0 576.01 -603.76 -518.85 0 0.06 0z"/>
    <path fill="#ED1C24" fill-rule="nonzero" d="M7789.34 1482.77c252.14,0 443.59,44.58 574.31,133.57 130.65,89.11 196.07,220.37 196.07,393.84 0,124.95 -20.83,240.66 -62.44,347.02 -41.67,106.42 -108.18,198.38 -199.53,275.88 -91.42,77.51 -209.38,137.64 -353.94,180.47 -144.63,42.82 -319.86,64.2 -525.72,64.2l-2161.89 0 565.62 -596.84 1759.3 0c97.19,0 167.71,-16.16 211.68,-48.6 43.92,-32.37 65.91,-82.06 65.91,-149.18 0,-92.5 -72.89,-138.79 -218.61,-138.79l-1266.57 0c-263.74,0 -456.89,-50.84 -579.47,-152.7 -122.64,-101.74 -183.92,-237.13 -183.92,-406 0,-117.95 20.83,-227.29 62.44,-327.94 41.66,-100.64 108.12,-188.54 199.53,-263.74 91.36,-75.13 208.77,-133.56 352.24,-175.23 143.41,-41.67 316.89,-62.44 520.49,-62.44l2016.12 0 -569.08 603.76 -1610.13 0c-97.18,0 -167.77,14.46 -211.68,43.37 -43.98,28.98 -65.9,78.05 -65.9,147.48 0,87.95 73.98,131.87 222.07,131.87l1263.1 0z"/>
   </g>
   <g>
    <polygon fill="#47403D" fill-rule="nonzero" points="5232.81,4342.52 4327.83,4342.52 4327.83,4154.04 6325.24,4154.04 6325.24,4342.52 5421.23,4342.52 5421.23,5247.5 5232.75,5247.5 5232.75,4342.52 "/>
    <polygon fill="#47403D" fill-rule="nonzero" points="7156,4155.98 7344.48,4155.98 7344.48,5247.44 7156,5247.44 7156,4155.98 "/>
    <path fill="#47403D" fill-rule="nonzero" d="M8363.59 4900l0 347.44 -188.48 0 0 -859.85c0,-77.2 27.15,-137.4 81.45,-180.59 44.47,-35.35 95.18,-53.02 152.16,-53.02l1165.07 0c90.93,0 171.78,28.12 242.42,84.43 87.04,68.7 130.53,164.91 130.53,288.58 0,90.99 -28.12,171.78 -84.43,242.42 -43.18,54.3 -96.82,91.6 -160.96,111.88l177.67 188.48 64.81 67.73 -136.43 129.56 -64.81 -67.73 -225.77 -238.53 -56.92 -60.86 -1096.37 0 0.06 0.06zm1210.27 -188.48c71.97,0 123.66,-25.51 155.07,-76.53 11.11,-17.68 18.95,-37.96 23.57,-60.86 1.94,-9.18 3.28,-17.98 3.94,-26.49 1.28,-7.17 1.95,-14.09 1.95,-20.59 0,-71.98 -25.51,-123.67 -76.54,-155.07 -17.67,-10.45 -37.96,-18.28 -60.86,-23.57 -9.17,-1.94 -17.98,-3.28 -26.48,-3.95 -7.23,-0.66 -14.09,-1.27 -20.59,-1.94l-1165.08 0c-19.62,0 -32.74,6.25 -39.24,18.65 -2.61,4.61 -4.25,9.47 -4.92,14.7l-0.97 6.86 0 328.79 1210.27 0 -0.12 0z"/>
    <path fill="#47403D" fill-rule="nonzero" d="M10965.98 4801.84l0 150.15c0,29.46 10.45,54.67 31.4,75.57 20.96,20.95 46.1,31.4 75.56,31.4l1249.51 0c29.46,0 54.6,-10.45 75.56,-31.4 20.96,-20.96 31.4,-46.11 31.4,-75.57l0 -2.91 188.48 0 0 2.91c0,81.82 -28.79,151.49 -86.37,209.08 -54.97,54.97 -120.76,83.76 -197.29,86.37l-1273.07 0c-76.53,-2.61 -142.32,-31.4 -197.29,-86.38 -57.58,-57.58 -86.37,-127.25 -86.37,-209.07l0 -502.57c0,-81.15 28.79,-150.52 86.37,-208.1 54.97,-55.64 120.76,-84.73 197.29,-87.34l1273.07 0c76.54,2.61 142.32,31.77 197.29,87.35 57.58,57.58 86.37,126.94 86.37,208.09l0 352.36 -1651.91 0 0 0.06zm106.96 -459.38c-29.46,0 -54.67,10.45 -75.56,31.4 -20.95,20.96 -31.4,46.11 -31.4,75.56l0 163.94 1463.49 0 0 -163.94c0,-29.45 -10.45,-54.6 -31.4,-75.56 -20.96,-20.95 -46.1,-31.4 -75.56,-31.4l-1249.51 0 -0.06 0z"/>
    <path fill="#47403D" fill-rule="nonzero" d="M15119.15 4342.52l-1379.07 0c-13.12,0.67 -25.51,2.31 -37.29,4.92 -16.34,3.95 -31.1,9.84 -44.16,17.67 -34.01,22.24 -51.02,58.56 -51.02,108.97 0,13.12 1.64,25.51 4.92,37.3 3.28,17 9.17,31.76 17.67,44.15 22.24,34.02 58.56,51.03 108.97,51.03l1089.51 0c78.54,0 147.91,24.24 208.1,72.65 74.59,58.92 111.89,141.71 111.89,248.31 0,77.87 -23.87,147.23 -71.68,208.1 -58.92,74.59 -141.71,111.88 -248.31,111.88l-1380.03 0 0 -188.48 1380.03 0c50.36,0 86.68,-17.01 108.97,-51.02 8.51,-12.45 14.7,-27.15 18.65,-44.16 2.61,-11.78 3.95,-23.87 3.95,-36.32 0,-51.02 -17.01,-87.65 -51.02,-109.94 -12.45,-7.84 -26.85,-13.73 -43.19,-17.68 -12.45,-2.61 -24.9,-4.25 -37.29,-4.92l-1089.52 0c-105.99,0 -188.78,-37.3 -248.31,-111.89 -47.74,-60.19 -71.67,-129.56 -71.67,-208.09 0,-106.67 37.29,-189.46 111.88,-248.31 60.86,-48.41 130.23,-72.65 208.1,-72.65l1380.04 0 0 188.48 -0.12 0z"/>
   </g>
  </g>
 </g>
</svg>
