<?xml version="1.0" encoding="UTF-8"?>
<!DOCTYPE svg PUBLIC "-//W3C//DTD SVG 1.0//EN" "http://www.w3.org/TR/2001/REC-SVG-20010904/DTD/svg10.dtd">
<!-- Creator: CorelDRAW -->
<svg xmlns="http://www.w3.org/2000/svg" xml:space="preserve" width="100%" height="100%" version="1.0" shape-rendering="geometricPrecision" text-rendering="geometricPrecision" image-rendering="optimizeQuality" fill-rule="evenodd" clip-rule="evenodd"
viewBox="0 0 19476.72 5267.96"
 xmlns:xlink="http://www.w3.org/1999/xlink"
 xmlns:xodm="http://www.corel.com/coreldraw/odm/2003">
 <defs>
    <linearGradient id="id0" gradientUnits="userSpaceOnUse" x1="10431.61" y1="1406.26" x2="10431.66" y2="3295.43">
     <stop offset="0" stop-opacity="1" stop-color="white"/>
     <stop offset="0.388235" stop-opacity="1" stop-color="white"/>
     <stop offset="0.690196" stop-opacity="1" stop-color="#A1A1A1"/>
     <stop offset="0.780392" stop-opacity="1" stop-color="white"/>
     <stop offset="1" stop-opacity="1" stop-color="#D6D6D6"/>
    </linearGradient>
 </defs>
 <g id="Layer_x0020_1">
  <metadata id="CorelCorpID_0Corel-Layer"/>
  <rect fill="none" width="19476.72" height="5267.96"/>
  <g id="_2541338151248">
   <path fill="#006699" d="M9773.05 3506.59c-28.67,27.16 -61.87,50.28 -99.07,68.04 -275.78,131.61 -663.14,184.42 -916.35,-3.95 -66.68,54.28 -151.58,85.15 -244.9,85.61l-504.05 2.49c-181.97,57.07 -379.82,44.07 -546.07,-47.1 -132.33,48.49 -270.05,81.44 -411.98,81.44 -171.65,0 -346.22,-45.52 -483.48,-145.07 -68.57,68.24 -162.48,108.24 -271.94,108.24l-535.83 0c-58.39,0 -115.48,-12.97 -167.46,-37.57 -429.92,162.86 -905.01,48.52 -1158.73,-305.68l-65.78 145.34c-180.4,398.64 -391.95,753.14 -883.96,753.14 -179.2,0 -358.63,-51.21 -487.44,-181.05 -98.97,-99.76 -153.45,-234.77 -149.3,-374.18l-127.62 0c-38.48,0 -76.56,-5.63 -113.09,-16.65 -36.55,11.02 -74.64,16.65 -113.11,16.65l-535.83 0c-78.01,0 -153.03,-23.2 -216.38,-65.19 -272.66,136.32 -610.95,144.31 -896.19,48.15 -0.17,-0.06 -0.35,-0.11 -0.52,-0.17 -82.24,46.56 -167.59,48.37 -273.42,48.37 -191.09,0 -354.19,-137.68 -386.25,-326.06l-103.74 -609.46c-27.62,-162.24 49.01,-318.35 181.19,-399.66 -93.93,-145.27 -141.45,-317.73 -130.33,-495.24 13.44,-214.53 109.81,-414.08 268.51,-558.88 185.79,-169.52 428.86,-241.72 677.05,-241.72 115.33,0 209.05,15.78 313.45,43.75 82.06,-38.06 178.74,-50.09 266.27,-38.68 112.32,14.63 210.67,67.04 275.78,150.49 39.82,-16.51 78.13,-36.34 116.56,-56.97 77.1,-41.41 149.57,-79.74 239.18,-87.07 78.81,-6.44 152.71,13.59 220.59,53.14 120.75,70.34 194.59,198.82 194.59,338.56l0 273.82 1086.2 0c62.69,0 123.65,14.96 178.25,42.89 54.61,-27.93 115.57,-42.89 178.25,-42.89l487.67 0c71.85,0 141.35,19.67 201.59,55.85 275.64,-120.57 612.83,-106.41 876.65,37.87 73.5,-27.71 139.04,-58.82 211.51,-99.74 117.41,-66.3 261.89,-66.95 379.47,-6.25 180.92,-38.09 378.6,-16.68 530.58,87.66 272.84,-128.06 639.03,-145.51 910.66,-13.06 11.12,-7.17 22.6,-13.77 34.4,-19.78 81.43,-424.48 366.3,-711.09 829.33,-711.09 238.52,0 507.55,83.09 641.18,291.68 135.97,63.48 226.05,201.17 226.05,355.08l0 21.89c211.89,4.99 382.43,178.61 382.43,391.7l0 93.91c0,212.88 -170.22,386.37 -381.83,391.68l0.54 155.15c126.14,-0.87 246.35,59.6 320.61,162.73 49.91,-52.56 114.43,-91.43 187.64,-109.96l0 -882.38c-171.55,-43.41 -295.36,-198.49 -295.36,-379.77l0 -65.9c0,-216.21 175.58,-391.81 391.8,-391.81 704.56,0 1409.12,0 2113.68,0 216.22,0 391.81,175.59 391.81,391.81l0 66.13c0,71.46 -19.24,138.87 -53.07,196.98 5.13,-1.68 10.28,-3.33 15.45,-4.94 168.12,-52.3 350.4,-61.61 523.79,-27.95 -1.69,-14.69 -2.54,-29.59 -2.54,-44.65l0 -59.85c0,-174.79 115.4,-328.14 283.36,-376.53 64.1,-18.45 123.5,-43.58 182.22,-75.1 57.49,-30.85 109.01,-62.27 172.44,-81.61 39.86,-12.14 80.8,-18.29 122.47,-18.29 216.23,0 391.82,175.59 391.82,391.81l0 247.05c78.46,-2.88 156.5,3.9 232.28,20.21 -1.92,-15.67 -2.9,-31.59 -2.9,-47.69l0 -59.85c0,-174.79 115.41,-328.14 283.37,-376.53 64.1,-18.45 123.5,-43.59 182.22,-75.1 57.49,-30.85 109.01,-62.27 172.44,-81.61 39.86,-12.14 80.79,-18.29 122.47,-18.29 216.22,0 391.8,175.6 391.8,391.81l0 247c175.5,-6.49 349.06,35.23 500.45,124.63 -43.04,-75.45 -67.1,-162.07 -67.1,-252.43 0,-284.17 226.83,-511.01 511,-511.01 223.52,0 412.4,135.62 483.4,347.34 45.89,136.81 33.92,281.57 -29.9,402.82 317.31,-159.51 723.04,-148.8 1023,41.98 192.79,-149.54 458.5,-193.66 691.62,-118.28 83.35,-30.52 177.04,-33.81 262.36,-10.86 143.98,38.73 250.47,146.91 282.72,293.09l79.34 359.52c19.8,89.73 6.98,182.16 -33.49,261.82 64.45,106.02 97.27,228.49 94.01,354.8 -5.51,213.7 -111.69,416.58 -281.31,546.04 -198.85,151.77 -449.32,179.17 -685.49,109.25 -1.09,-0.33 -2.19,-0.66 -3.28,-0.99 -61.91,18.12 -118.57,16.17 -189.87,16.17 -107.67,0 -199.17,-38.46 -268.09,-106.09 -285.33,157.18 -643.85,172.55 -938.85,32.96 -62.3,39.89 -135.37,61.79 -211.17,61.79l-547.17 0c-81.85,0 -160.25,-25.55 -225.3,-71.29 -251.39,133.21 -541.68,135.14 -806.36,26.12 -70.73,34.46 -116.18,45.17 -222.55,45.17 -108.64,0 -206.62,-42.9 -277.44,-114.82 -261.47,173 -585.97,191.29 -881.67,69.64 -70.75,34.46 -116.2,45.18 -222.59,45.18 -97.63,0 -189.48,-36.36 -259.76,-98.55 -291.22,165.79 -668.32,177.17 -970.15,31.86 -63.81,42.93 -139.68,66.69 -218.63,66.69 -703.61,0 -1407.23,0 -2110.84,0 -124.88,0 -236.2,-58.57 -307.97,-149.7z"/>
   <path fill="white" d="M18035.91 2045.66c165.84,-192.38 455.27,-249.63 686.98,-149.67 63.76,-39.06 146.94,-47.17 218.39,-27.96 91.48,24.61 158.08,90.69 178.72,184.25l79.35 359.52c18.66,84.58 -8.9,172.45 -70.78,231.67 86.27,96.83 131.3,219.69 127.94,349.96 -4.39,169.81 -89.63,331.66 -224.31,434.45 -162.31,123.88 -363.98,142.39 -556.26,85.45 -16.08,-4.76 -31.87,-10.55 -47.78,-15.89 -62.3,30.56 -118.86,25.1 -186.58,25.1 -112.45,0 -188.08,-61.99 -229.04,-159.73 -281.49,218.62 -693.4,245.64 -996.87,56.31 -46.69,57.98 -117.04,92.08 -192.2,92.08l-547.15 0c-82.75,0 -159.2,-41.36 -204.81,-109.19 -250.24,179.08 -558.22,182.73 -831.16,48.02 -92.46,49.18 -105.27,61.17 -218.25,61.17 -117.73,0 -210.89,-77.53 -238.4,-187.85 -251.25,248.95 -610.22,281.96 -925.04,126.68 -92.46,49.18 -105.27,61.17 -218.25,61.17 -99.77,0 -188.97,-60.17 -227.25,-150.54 -282.08,227.81 -719.45,245.9 -1023.68,51.47 -46.4,62.05 -119.32,99.07 -197.62,99.07 -703.61,0 -1407.23,0 -2110.84,0 -136.14,0 -246.72,-110.58 -246.72,-246.72l0 -65.91c0,-125.18 93.7,-230.47 218.02,-245.03 23.54,-2.76 53.05,-6.63 77.34,-13.1l0 -1125.67c-24.28,-6.47 -53.8,-10.34 -77.33,-13.1 -124.34,-14.56 -218.03,-119.84 -218.03,-245.03l0 -65.9c0,-136.14 110.58,-246.72 246.72,-246.72 704.56,0 1409.12,0 2113.68,0 136.14,0 246.72,110.58 246.72,246.72l0 66.13c0,124.5 -92.63,229.42 -216.16,244.83 -24.82,3.1 -54.7,7.13 -80,13.82l-3.12 416.08c102.38,-167.15 260.86,-285.35 449.85,-344.15 266.3,-82.85 577.15,-40.9 801.62,128.08l-0.11 -102.16c-105.1,-30.23 -178.27,-126.67 -178.27,-237.06l0 -59.85c0,-110.15 72.59,-206.62 178.43,-237.1 75.1,-21.63 142,-49.83 210.68,-86.69 46.84,-25.14 95.13,-55.12 146.13,-70.67 26.26,-8.01 52.7,-11.99 80.17,-11.99 136.14,0 246.72,110.59 246.72,246.73l0 411.47c251.48,-56.09 508.52,4.37 697.94,178.86l-0.1 -133.7c-105.11,-30.23 -178.28,-126.67 -178.28,-237.06l0 -59.85c0,-110.15 72.6,-206.62 178.43,-237.1 75.1,-21.63 142,-49.83 210.68,-86.69 46.85,-25.14 95.13,-55.12 146.13,-70.67 26.26,-8.01 52.71,-11.99 80.17,-11.99 136.14,0 246.72,110.59 246.72,246.73l0 411.47c239.51,-53.43 485.54,-1.76 674.03,157.81 25.86,-18.41 55.03,-31.63 85.99,-39.02 62.83,-14.98 128.14,-43.83 187.78,-73.82 -134.07,-56.63 -224.28,-189.19 -224.28,-337.25 0,-204.07 161.82,-365.92 365.9,-365.92 353.87,0 491.79,445.24 229.86,651.42 77.85,47.56 102.68,120.64 108.78,206.94 305.47,-281.02 834.96,-295.6 1148.8,-22.71zm-8887.31 -571.96c106.63,29.19 181.5,126.63 181.5,237.99l0 166.86 135.71 0c136.14,0 246.72,110.59 246.72,246.73l0 93.9c0,136.14 -110.58,246.73 -246.72,246.73l-135.61 0 1.65 478.32c24.78,-6.25 49.43,-14.27 73.63,-21.83 121.83,-38.05 252.6,23.09 301.48,141l26.18 63.13c49.86,120.26 -4.15,261.09 -121.64,317.16 -264.58,126.26 -687.07,185.4 -868.49,-99.1 -33.69,100.57 -119.59,166.07 -231,166.61l-527.08 2.6c-169.87,59.61 -359.91,43.42 -506.79,-63.8 -135.65,55.66 -279.87,98.02 -427.51,98.02 -196.88,0 -403.58,-70.49 -515.26,-238.49 -25.12,117.4 -109.16,201.67 -240.16,201.67l-535.83 0c-56.71,0 -111.16,-19.35 -155.04,-54.86 -477.53,219.14 -1033,33.33 -1174.67,-487.4l-194.43 429.62c-154.32,340.99 -326.73,667.87 -751.79,667.87 -139.43,0 -283.64,-36.55 -384.44,-138.14 -78.05,-78.68 -117.78,-186.93 -105.13,-297.43 4.78,-41.77 16.95,-82.28 35.91,-119.66l-310.71 0c-39.47,0 -78.11,-9.38 -113.09,-27.45 -34.96,18.09 -73.64,27.45 -113.11,27.45l-535.82 0c-78.06,0 -150.74,-36.78 -197.18,-98.49 -248.62,165.2 -590.82,182.86 -869.04,89.06 -23.52,-7.92 -46.74,-17.34 -70.13,-25.93 -74.75,72.11 -151.97,66.53 -250.16,66.53 -120.37,0 -223.03,-86.65 -243.22,-205.33l-103.74 -609.45c-22.84,-134.21 67.63,-261.79 201.84,-284.62 31.91,-5.43 63.93,-11.04 96.22,-13.37 -166.06,-139.31 -259.15,-344.24 -245.43,-563.51 11.08,-176.95 90.6,-341.32 221.51,-460.76 158.66,-144.78 367.71,-203.81 579.25,-203.81 127.32,0 214.01,19.73 332.8,54.9 61.91,-46.32 153.45,-60.79 228.18,-51.05 107.49,14 195.35,76.42 222.89,184.4 10.42,-4.39 21.14,-8.07 32.06,-11.02 81.87,-22.04 150.69,-56.14 224.77,-95.91 55.97,-30.06 117.94,-65.01 182.37,-70.29 49.05,-4 93.56,9.34 135.74,33.91 76.12,44.35 122.52,125.08 122.52,213.19l0 455.71c38.79,-24 83.48,-36.81 129.61,-36.81l1101.68 0c67.78,0 131.86,27.7 178.25,76.23 46.4,-48.53 110.47,-76.23 178.25,-76.23l487.67 0c70.57,0 137.04,30.04 183.75,82.16 263.32,-152.91 624.75,-141.74 878.48,26.05 115.01,-38.36 191.67,-72.44 298.86,-132.96 89.04,-50.27 203.76,-40.76 283.02,23.36 181.17,-54.16 402.57,-38.21 537.5,106.3 260.36,-162.43 689.61,-190.83 946.13,-9.64 36.5,-46.86 88.76,-79.26 147.22,-90.69 47.79,-397.45 276.2,-673.12 699.23,-673.12 199.66,0 447.49,69.35 540.64,263.69z"/>
   <path fill="black" d="M18049.5 2077.46c152.27,-187.9 436.35,-254.16 668.42,-149.97 4.97,2.23 10.3,1.79 14.84,-1.23 112.05,-74.6 318.77,-41.23 357.14,132.66l79.35 359.52c17.74,80.39 -12.4,161.74 -72.51,212.19 -3.38,2.82 -5.22,6.51 -5.48,10.91 -0.26,4.4 1.19,8.26 4.23,11.46 335.59,354.65 -15.54,1007.05 -610.8,830.78 -15.97,-4.72 -34.83,-11.71 -52.99,-17.64 -4.1,-1.33 -8.11,-1 -11.94,1 -58.44,30.65 -113.99,24.57 -178.18,24.57 -109.41,0 -174.44,-65.48 -207.71,-159.21 -1.74,-4.88 -5.4,-8.3 -10.38,-9.68 -4.99,-1.4 -9.9,-0.35 -13.91,2.92 -280.46,229.69 -693.23,251.99 -989.23,59.82 -6.91,-4.49 -16.14,-2.74 -20.93,3.98 -39.15,54.95 -103.42,90.84 -175.95,90.84l-547.15 0c-79.98,0 -149.87,-43.62 -187.18,-108.31 -2.28,-3.96 -5.77,-6.47 -10.24,-7.39 -4.46,-0.93 -8.68,0.02 -12.33,2.75 -240.17,179.5 -541.86,191.3 -819.5,51.5 -4.6,-2.31 -9.58,-2.26 -14.13,0.14 -97.76,51.7 -100.13,61.31 -210.84,61.31 -110.52,0 -198.32,-78.18 -213.56,-191.03 -0.81,-6.03 -4.76,-10.77 -10.55,-12.62 -5.8,-1.86 -11.76,-0.31 -15.94,4.14 -234.94,250.2 -589.92,302.54 -916.67,138.06 -4.6,-2.31 -9.58,-2.26 -14.14,0.14 -97.75,51.7 -100.12,61.31 -210.83,61.31 -96.22,0 -177.85,-63.14 -205.69,-150.18 -1.63,-5.08 -5.35,-8.68 -10.48,-10.14 -5.12,-1.44 -10.19,-0.32 -14.23,3.14 -274.42,235.19 -716.6,254.69 -1016.04,55.04 -3.54,-2.36 -7.45,-3.13 -11.63,-2.28 -4.17,0.85 -7.46,3.08 -9.8,6.65 -38.57,58.85 -105.15,97.77 -180.68,97.77 -1790.91,0 -316.66,0 -2110.84,0 -119.12,0 -215.89,-96.77 -215.89,-215.9l0 -65.91c0,-109.55 81.97,-201.67 190.78,-214.41 17.99,-2.12 65.94,-8.44 93.92,-17.53 6.46,-2.1 10.66,-7.86 10.66,-14.66l0 -1148.73c0,-6.8 -4.2,-12.56 -10.66,-14.66 -27.98,-9.09 -75.93,-15.43 -93.92,-17.53 -108.81,-12.74 -190.78,-104.85 -190.78,-214.41l0 -65.9c0,-119.13 96.77,-215.9 215.89,-215.9 1784.88,0 329.1,0 2113.68,0 119.13,0 215.9,96.77 215.9,215.9l0 66.13c0,108.95 -81.05,200.75 -189.16,214.25 -18.5,2.3 -67.04,8.92 -96.13,18.08 -6.5,2.04 -10.74,7.79 -10.79,14.59l-3.65 487.53c-0.05,7.21 4.68,13.32 11.68,15.07 7.04,1.75 14.12,-1.5 17.42,-7.96 242.74,-474.14 893.16,-539.68 1259.32,-239.23 4.72,3.87 10.88,4.64 16.39,2.02 5.51,-2.62 8.81,-7.84 8.79,-13.94l-0.15 -145.83c-0.02,-7.23 -4.85,-13.33 -11.9,-14.98 -96.79,-22.75 -166.37,-109.24 -166.37,-210.16l0 -59.85c0,-96.41 63.5,-180.79 156.14,-207.48 238.85,-68.8 297.44,-168.14 428.45,-168.14 119.12,0 215.89,96.77 215.89,215.9l0 430.93c0,4.9 2.06,9.11 5.91,12.13 3.85,3.03 8.44,4.01 13.2,2.83 266.79,-65.86 529.91,4.97 714.15,191.63 4.5,4.55 10.93,5.86 16.84,3.43 5.9,-2.44 9.55,-7.89 9.54,-14.27l-0.16 -181.97c-0.01,-7.24 -4.84,-13.33 -11.89,-14.98 -96.8,-22.75 -166.38,-109.24 -166.38,-210.16l0 -59.85c0,-96.41 63.5,-180.79 156.14,-207.48 238.85,-68.8 297.44,-168.14 428.45,-168.14 119.12,0 215.9,96.77 215.9,215.9l0 430.94c0,4.89 2.05,9.1 5.91,12.12 3.84,3.03 8.43,4.01 13.19,2.83 245.99,-60.73 491.22,-5.99 674.95,154.76 5.65,4.95 13.84,5.14 19.73,0.47 24.12,-19.15 52.67,-33.35 84.21,-40.87 71.66,-17.09 153.13,-54.36 226.15,-92.54 5.64,-2.95 8.79,-8.69 8.22,-15.03 -0.59,-6.35 -4.7,-11.44 -10.79,-13.33 -136.49,-42.39 -236.41,-170.23 -236.41,-320.16 0,-187.06 148.01,-335.09 335.08,-335.09 336.79,0 452.26,430.65 192.55,609.81 -4.63,3.2 -7.05,8.22 -6.64,13.83 0.42,5.6 3.54,10.21 8.58,12.69 99.75,49.03 113.09,138.31 114.85,226.35 0.13,6.31 3.81,11.63 9.67,13.99 5.88,2.35 12.22,1.02 16.67,-3.48 300.12,-303.25 842.19,-308.46 1143.02,-34.88 3.25,2.96 7.15,4.31 11.53,3.98 4.38,-0.34 8.03,-2.26 10.8,-5.67zm-8915.41 -575.66c94.69,22.84 165.19,108.24 165.19,209.89l0 182.28c0,8.48 6.93,15.41 15.41,15.41l151.12 0c119.12,0 215.89,96.77 215.89,215.9l0 93.9c0,119.13 -96.77,215.9 -215.89,215.9l-151.07 0c-4.25,0 -7.91,1.52 -10.91,4.54 -3.01,3.01 -4.51,6.67 -4.5,10.92l1.77 513.14c0.01,4.8 1.99,8.92 5.73,11.93 3.72,3.02 8.16,4.09 12.86,3.1 32.25,-6.81 72.78,-19.95 94.98,-26.88 106.61,-33.31 221.03,20.19 263.82,123.38l26.18 63.13c43.78,105.6 -3.28,228.3 -106.45,277.54 -268.18,127.98 -689.49,181.04 -846.98,-118.51 -3.1,-5.9 -9.3,-9.07 -15.9,-8.09 -6.59,0.98 -11.6,5.78 -12.87,12.33 -20.87,107.94 -101.83,178.77 -210.61,178.77l-529.7 2.61c-1.82,0.01 -3.37,0.29 -5.09,0.9 -166.51,59.22 -349.24,40.93 -487.43,-63.74 -4.49,-3.4 -10.02,-4.12 -15.22,-1.96 -134.95,56.02 -278.16,99.01 -423.79,99.01 -218.8,0 -418.29,-87.54 -510.57,-259.81 -3.27,-6.1 -9.89,-9.22 -16.68,-7.82 -6.78,1.38 -11.65,6.85 -12.25,13.76 -10.29,118.61 -81.31,217.05 -215.92,217.05l-535.83 0c-54.55,0 -104.43,-20.3 -142.46,-53.75 -4.71,-4.14 -11.06,-5.03 -16.73,-2.36 -493.4,232.16 -1036.77,14.31 -1151.14,-505.61 -1.44,-6.6 -6.73,-11.35 -13.46,-12.04 -6.71,-0.68 -12.84,2.84 -15.62,8.98l-212.81 470.25c-149.17,329.61 -313.75,649.76 -723.71,649.76 -412.73,0 -540.96,-323.08 -414.29,-531.83 2.96,-4.89 3.07,-10.59 0.25,-15.56 -2.8,-4.98 -7.71,-7.84 -13.42,-7.84l-336.91 0c-38.32,0 -74.33,-10.04 -105.55,-27.57 -4.83,-2.71 -10.28,-2.7 -15.1,0.01 -31.2,17.53 -67.23,27.56 -105.55,27.56l-535.82 0c-75.39,0 -141.82,-38.76 -180.45,-97.42 -2.36,-3.59 -5.71,-5.83 -9.94,-6.65 -4.23,-0.82 -8.16,0.02 -11.71,2.48 -230.65,160.04 -565.9,190.99 -854.28,93.77 -18.61,-6.27 -49.49,-18.65 -78.78,-29.06 -5.83,-2.08 -11.94,-0.63 -16.24,3.81 -69.97,72.34 -145.75,64.23 -235.11,64.23 -105.35,0 -195.15,-75.81 -212.84,-179.67l-103.73 -609.45c-19.99,-117.44 59.17,-229.09 176.62,-249.06 42.88,-7.3 89.03,-15.66 133.76,-13.78 6.87,0.29 12.87,-3.76 15.17,-10.23 2.31,-6.49 0.19,-13.43 -5.35,-17.53 -498.25,-369.77 -287.27,-1199.48 502.8,-1199.48 135.33,0 211.88,20.2 331.63,55.89 5.03,1.5 10.04,0.5 14.12,-2.82 103.97,-84.61 363.01,-79.81 409.27,116.12l3.25 13.77c1.13,4.79 4.11,8.44 8.57,10.48 4.47,2.05 9.18,1.94 13.53,-0.33 13.64,-7.09 28.24,-12.8 43.57,-16.93 255.44,-68.77 350.84,-233.59 519.34,-135.42 66.65,38.83 107.22,109.41 107.22,186.55l0 485.49c0,6.08 3.28,11.29 8.77,13.91 5.48,2.62 11.59,1.91 16.32,-1.9 37.04,-29.87 84.12,-47.77 135.35,-47.77l1101.68 0c66.91,0 126.77,30.53 166.38,78.4 3.04,3.66 7.13,5.59 11.87,5.59 4.76,0 8.84,-1.93 11.87,-5.59 39.61,-47.87 99.48,-78.4 166.38,-78.4l487.67 0c68.06,0 128.81,31.6 168.41,80.88 4.87,6.06 13.34,7.55 19.99,3.54 257.91,-156.11 617,-143.61 862.89,22.73 4.09,2.76 8.79,3.42 13.49,1.87 133.39,-44.11 184.44,-66.04 311.46,-137.76 80.29,-45.34 184.71,-35.19 254.26,25.33 4.15,3.62 9.46,4.72 14.71,3.08 179.74,-56.19 396.24,-39.8 522.07,104.54 5.09,5.83 13.55,7.01 20.03,2.79 262.82,-171.08 695.11,-188.43 934.55,-8.71 3.5,2.62 7.47,3.6 11.78,2.89 4.3,-0.72 7.75,-2.93 10.2,-6.53 33.32,-48.92 86.2,-83.51 147.33,-92.41 7.04,-1.02 12.32,-6.48 13.1,-13.55 41.1,-370.9 244.66,-657.23 669.92,-657.23 191.29,0 431.15,66.18 515.71,252.34 2.03,4.47 5.65,7.46 10.42,8.62z"/>
   <path fill="url(#id0)" fill-rule="nonzero" d="M9114.33 2941.33l0 -660.25c0,-17.04 13.91,-30.95 30.94,-30.95l320.54 0c17.04,0 30.94,-13.91 30.94,-30.95l0 -93.9c0,-17.04 -13.9,-30.95 -30.94,-30.95l-320.54 0c-17.03,0 -30.94,-13.91 -30.94,-30.95l0 -351.69c0,-17.04 -13.91,-30.95 -30.95,-30.95l-49.01 0c-13.31,0 -24.62,7.96 -29.12,20.47 -64.12,178.21 -172.97,302.63 -335.66,384.78 -10.7,5.39 -17.01,15.66 -17.01,27.62l0 105.57c0,17.04 13.91,30.95 30.95,30.95l153.4 0c17.04,0 30.94,13.91 30.94,30.95l0 626.26c0,288.94 48.16,424.91 308.78,424.91 110.75,0 223.96,-27 341.91,-83.29 14.87,-7.1 21.57,-24.56 15.26,-39.78l-26.18 -63.13c-6.15,-14.84 -22.48,-22.48 -37.82,-17.68 -82.19,25.68 -141.45,39.58 -179.86,39.58 -124.65,0 -175.63,-70.82 -175.63,-226.62zm-747.16 56.66l0 -722.58c0,-17.04 13.91,-30.95 30.95,-30.95l184.55 0c17.04,0 30.95,-13.91 30.95,-30.94l0 -88.24c0,-17.04 -13.91,-30.95 -30.95,-30.95l-184.55 0c-17.04,0 -30.95,-13.91 -30.95,-30.95l0 -190.01c0,-206.79 19.83,-311.6 133.14,-311.6 96.32,0 229.46,164.3 345.6,164.3 67.98,0 118.98,-50.99 118.98,-113.32 0,-93.48 -138.81,-186.96 -356.93,-186.96 -320.11,0 -492.91,212.46 -492.91,620.38l0 17.21c0,17.04 -13.91,30.95 -30.95,30.95l-127.9 0c-17.03,0 -30.94,13.91 -30.94,30.95l0 88.24c0,17.03 13.91,30.94 30.94,30.94l127.9 0c17.04,0 30.95,13.91 30.95,30.95l0 722.58c0,124.5 -37.16,169.73 -162.43,184.34 -15.68,1.82 -27.36,14.96 -27.36,30.74l0 51.41c0,17.04 13.91,30.95 30.94,30.95l555.66 0c17.03,0 30.94,-13.91 30.94,-30.95l0 -52.26c0,-15.41 -11.08,-28.28 -26.32,-30.59 -114.84,-17.35 -149.31,-64.81 -149.31,-183.64zm-835.31 15.1c-137.73,109.61 -275.11,160.53 -399.07,160.53 -133.15,0 -209.64,-67.98 -209.64,-172.8 0,-154.44 198.69,-252.5 588.2,-268.03 8.74,-0.36 16.37,2.56 22.68,8.61 6.3,6.06 9.51,13.58 9.51,22.32l0 225.16c0,9.74 -4.05,18.14 -11.68,24.21zm6.71 198.83c72,85.62 148.25,120.33 254.25,120.33 41.33,0 82.68,-8.36 124.02,-23.25 12.5,-4.51 20.44,-15.83 20.44,-29.12l0 -59.88c0,-16.11 -12.23,-29.45 -28.28,-30.83 -110.1,-9.48 -124.68,-63.5 -124.68,-202.51l0 -325.78c0,-203.95 -2.84,-342.76 -79.32,-444.74 -73.65,-99.15 -209.62,-150.14 -407.92,-150.14 -325.76,0 -552.39,201.13 -552.39,368.27 0,65.14 45.33,110.47 116.14,110.47 79.32,0 110.49,-90.64 172.81,-201.13 59.49,-104.8 138.81,-150.13 274.78,-150.13 172.8,0 240.78,87.81 240.78,280.45 0,26.05 -1.67,53.77 -3.72,83.15 -1.09,15.65 -13.47,27.87 -29.13,28.75 -562.63,31.74 -845.31,184.01 -845.31,443.31 0,184.14 138.8,303.11 379.59,303.11 133.26,0 276.95,-47 451.15,-128.45 12.86,-6.02 27.65,-2.75 36.79,8.12zm-1385.22 -1093.37l0 -49.92c0,-17.04 -13.91,-30.95 -30.95,-30.95l-6.22 0c-5.58,0 -10.37,1.26 -15.22,4 -131.77,74.42 -247,125.11 -350,154.21 -13.53,3.83 -22.52,15.73 -22.52,29.79l0 59.8c0,15.33 10.92,28.13 26.05,30.56 121.88,19.5 146.74,67.35 146.74,194.71l0 487.24c0,115.8 -39.12,165.59 -146.9,183.42 -15.06,2.49 -25.89,15.27 -25.89,30.54l0 52.53c0,17.04 13.9,30.95 30.94,30.95l535.83 0c17.03,0 30.94,-13.91 30.94,-30.95l0 -52.26c0,-15.41 -11.07,-28.28 -26.31,-30.59 -114.49,-17.35 -146.49,-64.81 -146.49,-183.64l0 -439.09c0,-209.62 11.33,-320.09 189.79,-320.09 82.15,0 158.64,93.48 249.28,93.48 62.33,0 104.82,-42.5 104.82,-96.32 0,-101.98 -87.81,-172.81 -226.62,-172.81 -83.11,0 -174.66,27.44 -271.01,82.29 -9.84,5.6 -21.07,5.55 -30.86,-0.15 -9.79,-5.69 -15.4,-15.41 -15.4,-26.75zm-444.05 982.45l-47.16 -58.18c-10.11,-12.46 -27.91,-15.16 -41.25,-6.23 -124.1,83 -238.31,125.7 -345,125.7 -240.79,0 -402.25,-184.13 -402.25,-495.74 0,-283.28 133.14,-447.57 322.93,-447.57 101.99,0 161.47,48.15 229.47,141.63 48.15,67.99 82.14,110.48 155.8,110.48 76.48,0 124.63,-48.16 124.63,-124.64 0,-118.98 -198.29,-277.62 -487.23,-277.62 -325.77,0 -606.22,271.95 -606.22,654.38 0,362.6 249.29,609.04 589.22,609.04 164.44,0 336.57,-61.57 501.76,-187.12 6.91,-5.26 10.94,-12.31 11.99,-20.94 1.04,-8.63 -1.22,-16.43 -6.69,-23.19zm-2475.17 -889.8c120.25,21.67 170.65,105.8 237.98,248.56l393.02 833.41c4.19,8.87 4.08,18.27 -0.31,27.04l-75.44 150.85c-67.98,138.81 -135.97,206.79 -198.29,206.79 -70.82,0 -96.32,-50.99 -127.47,-79.32 -42.5,-36.82 -84.99,-56.65 -130.32,-56.65 -73.65,0 -124.63,53.83 -124.63,130.31 0,104.81 101.98,178.47 274.78,178.47 274.78,0 396.59,-186.97 555.21,-541.07l351.28 -776.18c75.4,-166.97 125.21,-282.72 254.05,-327.81 12.64,-4.41 20.73,-15.81 20.73,-29.21l0 -51.11c0,-17.04 -13.91,-30.95 -30.95,-30.95l-487.67 0c-17.04,0 -30.94,13.91 -30.94,30.95l0 46.14c0,15.63 11.43,28.65 26.94,30.68 105.48,13.75 151.51,48.55 151.51,124.52 0,48.16 -22.65,99.14 -53.82,167.14l-210.65 471.45c-5.04,11.28 -15.51,18.17 -27.85,18.33 -12.35,0.15 -22.99,-6.46 -28.32,-17.6l-251.57 -526.01c-25.5,-50.99 -42.49,-90.65 -42.49,-130.31 0,-61.2 39.03,-97.15 115,-107.84 15.37,-2.16 26.64,-15.11 26.64,-30.64l0 -45.86c0,-17.04 -13.91,-30.95 -30.95,-30.95l-549.98 0c-17.04,0 -30.95,13.91 -30.95,30.95l0 55.47c0,15.11 10.59,27.77 25.46,30.45zm-1129.54 -312.33l0 1099.12c0,115.79 -41.56,168.03 -151.95,183.94 -15.32,2.21 -26.52,15.14 -26.52,30.62l0 51.93c0,17.04 13.9,30.95 30.94,30.95l535.82 0c17.04,0 30.95,-13.91 30.95,-30.95l0 -51.81c0,-15.55 -11.32,-28.53 -26.73,-30.65 -112.92,-15.52 -154.57,-65.47 -154.57,-184.03l0 -165.04c0,-10.49 4.75,-19.52 13.4,-25.48l135.83 -93.52c13.33,-9.19 31.4,-6.58 41.6,6.01l259.58 320.52c22.67,28.32 36.84,50.99 36.84,79.32 0,46.22 -34.94,57.53 -115.36,69.79 -15.23,2.32 -26.28,15.2 -26.28,30.6l0 44.29c0,17.04 13.91,30.95 30.94,30.95l595.32 0c17.04,0 30.94,-13.91 30.94,-30.95l0 -49.2c0,-14.32 -9.38,-26.42 -23.25,-29.97 -130.64,-33.52 -235.12,-124.78 -350.68,-258.14l-271.83 -313.67c-5.99,-6.92 -8.49,-15.19 -7.3,-24.27 1.19,-9.08 5.7,-16.43 13.27,-21.58l370.68 -252.36c74.77,-51.56 149.54,-86.7 226.43,-107.55 13.68,-3.7 22.85,-15.69 22.85,-29.87l0 -52.59c0,-17.04 -13.9,-30.95 -30.94,-30.95l-606.65 0c-17.04,0 -30.95,13.91 -30.95,30.95l0 57.25c0,16.78 13.41,30.52 30.19,30.94 90.21,2.22 134.12,27.91 134.12,81.99 0,48.15 -36.83,70.82 -93.48,110.47l-336.98 227.96c-9.73,6.58 -21.47,7.21 -31.84,1.7 -10.39,-5.51 -16.45,-15.6 -16.45,-27.34l0 -1148.6c0,-11.32 -5.58,-21.03 -15.36,-26.74 -9.78,-5.69 -21,-5.76 -30.84,-0.18 -125.08,70.84 -238.76,125.15 -347.31,154.38 -13.69,3.69 -22.9,15.69 -22.9,29.88l0 58.93c0,15.52 11.25,28.46 26.62,30.63 122.1,17.24 151.85,65.14 151.85,192.32zm-1534.04 1427.72l81.28 0c12.06,0 22.4,-6.42 27.74,-17.23 22.32,-45.16 52.94,-67.75 85.81,-67.75 93.48,0 240.79,101.97 441.92,101.97 416.41,0 640.2,-201.12 640.2,-535.39 0,-167.13 -50.98,-288.95 -169.96,-393.75 -84.99,-76.49 -226.63,-133.15 -413.59,-203.97 -339.93,-133.13 -509.9,-186.95 -509.9,-365.42 0,-141.64 116.15,-246.46 291.78,-246.46 243.32,0 421.88,148.44 598.87,447.95 7.68,13 23.2,18.52 37.36,13.29l80.27 -29.66c14.75,-5.45 23,-20.83 19.39,-36.13l-129.73 -550.06c-3.34,-14.14 -15.59,-23.85 -30.12,-23.85l-60.68 0c-10.4,0 -19.34,4.65 -25.33,13.16 -23.86,33.99 -52.74,51.99 -90.62,51.99 -56.65,0 -175.63,-67.99 -368.26,-67.99 -359.75,0 -583.54,212.47 -583.54,490.07 0,164.31 90.64,317.27 243.62,407.93 96.31,56.65 240.78,116.14 430.58,195.46 246.45,101.98 424.91,150.13 424.91,365.43 0,155.8 -155.8,283.28 -337.1,283.28 -286.28,0 -498.94,-163.67 -680.78,-501.64 -6.41,-11.9 -19.12,-18.12 -32.44,-15.85l-80.61 13.72c-16.81,2.86 -28.18,18.89 -25.31,35.7l103.73 609.45c2.55,15 15.29,25.75 30.51,25.75zm17671.03 -19.83l78.03 0c7.69,0 14.3,-2.44 20.14,-7.45 20.63,-17.69 43.75,-26.54 71.29,-26.54 53.82,0 147.3,56.65 266.27,56.65 203.97,0 362.59,-155.8 362.59,-351.26 0,-220.96 -189.79,-291.78 -509.88,-447.58 -127.48,-62.32 -189.81,-118.98 -189.81,-195.46 0,-79.32 65.16,-141.64 158.64,-141.64 115.45,0 246.92,104.02 391.77,304.31 8.11,11.21 22.04,15.63 35.13,11.13l42.74 -14.69c14.95,-5.14 23.55,-20.5 20.15,-35.93l-79.34 -359.53c-3.17,-14.34 -15.54,-24.27 -30.23,-24.27l-25.79 0c-9.28,0 -17.27,3.64 -23.36,10.66 -30.52,35.15 -58.28,51.66 -78.96,51.66 -50.98,0 -127.47,-73.66 -257.78,-73.66 -220.95,0 -371.09,144.48 -371.09,342.77 0,212.46 144.47,288.96 379.59,393.76 201.13,87.82 308.77,133.14 308.77,249.28 0,90.66 -65.14,150.15 -169.96,150.15 -148.41,0 -296.83,-98.68 -437.47,-298.58 -7.93,-11.27 -21.7,-15.87 -34.82,-11.64l-37.27 12.03c-15.94,5.14 -24.92,22.07 -20.21,38.14l101.17 345.45c3.92,13.38 15.74,22.24 29.69,22.24zm-1108.63 -796.89c44.73,-200.03 170.62,-310.72 346.81,-310.72 170.99,0 286.54,105.83 334.78,310.37 2.24,9.52 0.21,18.64 -5.85,26.31 -6.07,7.67 -14.49,11.75 -24.28,11.75l-621.25 0c-9.73,0 -18.09,-4.02 -24.17,-11.6 -6.06,-7.59 -8.16,-16.63 -6.04,-26.11zm782.86 457.89c-111.27,130.5 -231.54,194.53 -385.07,194.53 -245.73,0 -399.36,-157.89 -415.22,-443.24 -0.48,-8.81 2.36,-16.58 8.42,-22.99 6.07,-6.42 13.67,-9.68 22.49,-9.68l910.63 0c8.76,0 16.3,-3.22 22.35,-9.55 6.06,-6.33 8.96,-13.98 8.58,-22.73 -15.73,-366.07 -253.37,-588.1 -616.74,-588.1 -368.25,0 -626.04,254.95 -626.04,623.22 0,373.92 263.44,640.2 626.04,640.2 227.51,0 405.8,-93.23 552.24,-284.6 5.45,-7.12 7.45,-15.31 5.91,-24.16 -1.55,-8.83 -6.23,-15.86 -13.79,-20.7l-59.55 -38.18c-13.1,-8.41 -30.14,-5.88 -40.25,5.98zm-1639.49 327.67l547.15 0c17.04,0 30.95,-13.91 30.95,-30.95l0 -52.24c0,-15.43 -11.09,-28.3 -26.35,-30.6 -115.54,-17.35 -154.95,-64.79 -154.95,-183.65l0 -929.36c0,-17.04 -13.91,-30.95 -30.94,-30.95l-3.38 0c-5.58,0 -10.36,1.26 -15.23,4 -147.22,83.23 -266.73,134.29 -354.44,155.21 -14.1,3.36 -23.76,15.59 -23.76,30.1l0 57.79c0,15.59 11.37,28.59 26.82,30.67 131.64,17.71 151.65,71.58 151.65,217.96l0 464.58c0,115.79 -41.55,168.03 -151.94,183.94 -15.33,2.21 -26.53,15.14 -26.53,30.62l0 51.93c0,17.04 13.91,30.95 30.95,30.95zm122.02 -1719.5c0,82.15 67.99,150.14 150.13,150.14 82.16,0 150.15,-65.15 150.15,-150.14 0,-84.98 -65.16,-150.14 -150.15,-150.14 -84.97,0 -150.13,65.16 -150.13,150.14zm-1321.12 1715.95l150.56 -78.98c9.83,-5.15 20.76,-4.85 30.29,0.87 127.18,76.25 241.53,115.65 350.63,115.65 342.76,0 597.71,-269.11 597.71,-654.36 0,-356.94 -252.11,-611.9 -569.39,-611.9 -104.47,0 -218.13,32.12 -349.18,96.29 -9.87,4.84 -20.66,4.28 -29.99,-1.53 -9.33,-5.82 -14.57,-15.27 -14.57,-26.26l0 -674.92c0,-17.04 -13.91,-30.95 -30.95,-30.95l-8.82 0c-5.73,0 -10.63,1.32 -15.59,4.2 -120.08,69.93 -235.48,122.91 -352.85,156.72 -13.46,3.87 -22.37,15.74 -22.37,29.75l0 59.85c0,15.38 11,28.23 26.2,30.58 127.29,19.75 152.25,70.52 152.25,206.14l0 1351.45c0,17.04 13.91,30.95 30.95,30.95l40.75 0c5.24,0 9.73,-1.11 14.37,-3.55zm177.72 -949.23c109.22,-87.06 215.71,-129.34 316.94,-129.34 212.45,0 365.42,178.46 365.42,447.57 0,337.11 -150.13,518.41 -359.77,518.41 -218.11,0 -334.25,-127.48 -334.25,-373.93l0 -438.51c0,-9.74 4.04,-18.13 11.66,-24.2zm-1559.41 949.23l150.56 -78.98c9.83,-5.15 20.76,-4.85 30.29,0.87 127.18,76.25 241.53,115.65 350.63,115.65 342.76,0 597.71,-269.11 597.71,-654.36 0,-356.94 -252.11,-611.9 -569.39,-611.9 -104.48,0 -218.13,32.12 -349.18,96.29 -9.87,4.84 -20.66,4.28 -29.99,-1.53 -9.33,-5.82 -14.58,-15.27 -14.58,-26.26l0 -674.92c0,-17.04 -13.9,-30.95 -30.94,-30.95l-8.83 0c-5.72,0 -10.63,1.32 -15.58,4.2 -120.08,69.93 -235.48,122.91 -352.85,156.72 -13.46,3.87 -22.38,15.74 -22.38,29.75l0 59.85c0,15.38 11.01,28.23 26.21,30.58 127.29,19.75 152.25,70.52 152.25,206.14l0 1351.45c0,17.04 13.91,30.95 30.95,30.95l40.75 0c5.24,0 9.73,-1.11 14.37,-3.55zm177.72 -949.23c109.22,-87.06 215.71,-129.34 316.94,-129.34 212.45,0 365.42,178.46 365.42,447.57 0,337.11 -150.13,518.41 -359.77,518.41 -218.12,0 -334.26,-127.48 -334.26,-373.93l0 -438.51c0,-9.74 4.05,-18.13 11.67,-24.2zm-1367.87 355.06c0,-320.1 133.14,-495.74 356.93,-495.74 237.96,0 365.43,172.81 365.43,498.57 0,322.94 -130.31,495.74 -359.77,495.74 -232.28,0 -362.59,-172.8 -362.59,-498.57zm-271.94 -2.82c0,373.91 257.78,634.53 631.71,634.53 376.75,0 631.7,-260.62 631.7,-634.53 0,-373.94 -254.95,-631.73 -631.7,-631.73 -373.93,0 -631.71,257.79 -631.71,631.73zm-1602.65 206.78l0 -413.8c0,-17.04 13.91,-30.94 30.95,-30.94l952.23 0c17.04,0 30.95,13.9 30.95,30.94l0 413.8c0,181.98 -65.08,241.56 -270.17,266.13 -15.64,1.86 -27.27,14.97 -27.27,30.72l0 65.96c0,17.04 13.91,30.95 30.95,30.95l813.43 0c17.04,0 30.95,-13.91 30.95,-30.95l0 -66.1c0,-15.72 -11.57,-28.8 -27.16,-30.72 -215.37,-26.56 -270.28,-80.91 -270.28,-265.99l0 -1048.13c0,-185 60.11,-239.37 273.16,-265.96 15.59,-1.94 27.12,-15.01 27.12,-30.71l0 -66.13c0,-17.04 -13.91,-30.95 -30.95,-30.95l-816.27 0c-17.04,0 -30.95,13.91 -30.95,30.95l0 65.9c0,15.77 11.68,28.91 27.35,30.74 207.54,24.34 270.09,81.43 270.09,266.16l0 388.31c0,17.04 -13.91,30.95 -30.95,30.95l-952.23 0c-17.04,0 -30.95,-13.91 -30.95,-30.95l0 -388.31c0,-185 57.49,-239.37 270.32,-265.96 15.58,-1.94 27.12,-15.01 27.12,-30.7l0 -66.14c0,-17.04 -13.91,-30.95 -30.95,-30.95l-816.26 0c-17.04,0 -30.94,13.91 -30.94,30.95l0 65.9c0,15.77 11.67,28.89 27.35,30.73 207.77,24.34 272.91,81.44 272.91,266.17l0 1048.13c0,184.75 -65.14,241.83 -272.91,266.17 -15.67,1.84 -27.35,14.96 -27.35,30.73l0 65.91c0,17.04 13.9,30.95 30.94,30.95l816.26 0c17.04,0 30.95,-13.91 30.95,-30.95l0 -66.1c0,-15.72 -11.57,-28.8 -27.16,-30.72 -215.37,-26.56 -270.28,-80.91 -270.28,-265.99z"/>
  </g>
 </g>
</svg>
