<?xml version="1.0" encoding="UTF-8"?>
<!DOCTYPE svg PUBLIC "-//W3C//DTD SVG 1.0//EN" "http://www.w3.org/TR/2001/REC-SVG-20010904/DTD/svg10.dtd">
<!-- Creator: CorelDRAW -->
<svg xmlns="http://www.w3.org/2000/svg" xml:space="preserve" width="100%" height="100%" version="1.0" shape-rendering="geometricPrecision" text-rendering="geometricPrecision" image-rendering="optimizeQuality" fill-rule="evenodd" clip-rule="evenodd"
viewBox="0 0 10160 5080"
 xmlns:xlink="http://www.w3.org/1999/xlink"
 xmlns:xodm="http://www.corel.com/coreldraw/odm/2003">
 <g id="Layer_x0020_1">
  <metadata id="CorelCorpID_0Corel-Layer"/>
  <rect fill="white" width="10160" height="5080"/>
  <g id="_2645442697792">
   <g id="_1920127062512">
    <path fill="#C52D42" d="M4029.63 2103.74c163.22,1.61 489.73,155.1 710.25,266.28 362.6,182.8 722.79,393.75 1006.8,391.63 276.23,-2.08 469.88,-173.58 615.53,-171.07 218.89,3.77 171.2,321.6 610.59,321.6 -79.56,544.12 -720.45,1718.1 -1445.42,2107.75 -61.41,-850.75 -576.05,-1557.43 -1031.17,-1908.33 166,40.54 356.45,134.57 480.6,219.29 -187.62,-416.9 -610.59,-887.38 -989.32,-1096.88 -66.12,118.54 -289.2,98.73 -322.78,-69.92 -19.04,19.05 -46.2,38.06 -65.24,57.09 47.66,32.82 95.27,109.52 94.37,199.26 -1.96,197.96 -294.59,307.94 -435.79,132.83 124.68,46.28 239.05,-84.19 186.44,-205.07 -175.83,63.41 -441.36,-63.6 -556.98,-207.4 55.94,19.16 86.19,28.47 153.88,28.06 156.17,-1 221.11,-224.65 407.73,-221.47 80.56,1.36 203.83,27.63 237.71,67.58 81.7,-176.19 352.92,-74.52 342.76,88.8l0.04 -0.03z"/>
    <path fill="#DA241A" d="M5619.98 4816.32c460.52,-298.42 1073.6,-1115.91 1223.95,-1800.24 -239.08,3.83 -381.59,-230.37 -505.99,-232.49 -160.86,-3.67 -260.68,126.52 -632.28,125.8 -289.92,5.94 -480.78,-48.13 -909.19,-245.11 362.74,255.98 753.84,697.21 946.69,1216.13 -146.23,-111.85 -315.78,-188.77 -494.65,-237.71 314.88,392.86 393.45,888.1 371.48,1173.7l-0.01 -0.08z"/>
    <path fill="#090A0C" d="M4360.93 965.26c195.86,-557.85 424,-905.67 625.24,-905.18 294.69,0.71 446.44,658.38 1073.14,569.24 -165.87,-22.93 -364.56,-84.89 -410.58,-177.3 56.88,18.05 81.12,24.15 122.9,24.68 208.53,2.71 405.59,-286.11 646.56,-284.17 335.51,2.67 581.68,1033.43 624.57,1605.69 -15.65,24.8 -63.39,41.04 -118.87,39.61 -149.23,-3.84 -1674.23,-789.16 -2562.95,-872.58l-0.01 0.01zm-2184.17 627.86c-4.73,-158.84 961.91,-503.18 1712.89,-498.71 1350.68,8.03 2731.5,897.75 3032.84,902.01 244.34,3.45 441.6,-326.43 695.22,-326.61 226.49,-0.19 814.7,364.16 811.86,536.56 -2.14,129.9 -241.6,145.89 -382.61,149.32 -720.74,17.48 -3262.39,-601.44 -4488.57,-629.88 -121.06,-2.79 -238.83,22.07 -358.56,21.13 -343.26,-2.67 -1019.57,-36.56 -1023.08,-153.8l0.01 -0.02z"/>
    <path fill="#C52D42" d="M4516.51 882.34c110.29,-406.26 336.97,-740.56 470.76,-736.42 173.15,5.39 460.65,761.28 981.1,764.39 -227.6,30.3 -473.87,18.64 -829.64,-181.77 224.49,206.63 458.32,399.3 722.45,591.92 -343.36,-162.35 -903.44,-392.29 -1344.67,-438.12z"/>
    <path fill="#DA241A" d="M6639.63 2568.03c8.42,52.28 41.16,106.85 93,134.26 88.33,13.79 174.61,-56.63 174.61,-148.13 0,-48.78 -26.17,-88.43 -66.02,-111.3l-201.63 125.17 0.04 0zm-663.95 -54.33c-37.59,26.23 -88.5,42.35 -144.5,42.35 -115.66,0 -208.12,-85.85 -208.12,-170.51 0,-56.88 42.87,-98.23 103.89,-115.78l346.96 174.3 -98.22 69.63 -0.01 0.01z"/>
    <path fill="#090A0C" d="M6359.91 2362.17c-123.5,136.71 -360.53,279.56 -531.35,277.32 -130.73,-1.71 -185.65,-62.92 -247.01,-132.83 71.12,23.02 136.94,54.76 209.75,51.27 77.94,-3.73 153.8,-38.52 214.97,-92.66 -195.9,5.08 -280.75,-228.41 -524.94,-228.97 -102.18,-0.25 -198.85,19.51 -291.29,95.55 38.24,-127.69 240.79,-231.83 379.85,-233.04 230.34,-2 393.59,284.45 650.2,284.29 70.69,-0.04 97.85,-4.67 139.83,-20.97l-0.01 0.04zm83.88 -9.33c49.75,42.32 121.01,88.74 191.11,88.58 88.64,-0.22 117.61,-103.98 213.23,-103.73 93.78,0.25 232.11,89.86 241.19,217.93 -46.23,-69.04 -85.53,-120.3 -153.8,-118.87 -66.71,1.41 -117.8,136.66 -258.69,149.17 16.83,74.89 154.17,190.45 242.38,109.53 -1.49,32.89 -30.37,88.23 -88.21,88.2 -157.81,-0.06 -327.91,-244.15 -387.18,-430.77l-0.03 -0.04z"/>
   </g>
   <g id="_1920127064576">
    <path fill="#090A0C" d="M2469.55 3915.46l-237.16 0c-185.7,0 -358.47,151.93 -383.95,337.63l-4.2 30.67 -113.85 86.99 90.95 79.87 -6.06 44.31c-25.48,185.69 105.63,337.62 291.32,337.62l237.12 0c185.7,0 358.47,-151.93 383.95,-337.62l5.57 -40.76 108.77 -80.05 -86.53 -82.11 5.32 -38.96c25.47,-185.72 -105.63,-337.62 -291.33,-337.62l0.08 0.03zm-135.23 224.56l-47.91 0c-75.14,0 -143.28,71.03 -151.99,145.95l-19.88 170.63c-8.71,74.89 26.29,148.29 124.14,148.29l44.81 0c75.14,0 143.19,-72.59 152.05,-147.54l23.58 -199.51c8.87,-74.93 -49.68,-117.8 -124.83,-117.8l0.03 -0.02zm1136.21 -224.56l455.43 0 -22.01 240.26 -80.86 0 -19.83 140.57 80.56 75.61 -102.55 80.3 -7.5 53.05c-23.64,167.73 -99.47,327.29 -388.74,327.29l-168.39 0c-203.46,0 -306.91,-121.69 -290.92,-248.11l17.28 -136.47 -80.97 -73.83 101 -84.38 16.95 -134.04 -67.02 0 22.03 -240.26 469.54 0 -22.03 240.26 -104.79 0 -58.68 359.41c-7.12,43.62 28.5,76.11 97.7,76.11l50.72 0c78.34,0 122.31,-26.76 128.94,-79.34l44.74 -356.17 -92.65 0 22 -240.26 0.05 0zm2163.63 523.67l281.15 0 -51.44 393.47 -853.12 0 33.57 -241.36 76.67 0 18.13 -143.25 -80.96 -73.84 101 -84.37 16.95 -134.04 -67.02 0 22.03 -240.26 469.54 0 -22.03 240.26 -104.79 0 -18.76 139.36 87.74 78.91 -108.53 75.38 -19.1 141.83 197.75 0 21.16 -152.09 0.06 0zm2359.6 -523.67l435.85 0 -22.03 240.26 -80.87 0 -62.75 159.68 58.06 93.59 -117.7 58.15 -143.67 365.41 -318.33 0 -29.55 -340.4 -131.84 340.4 -304.54 0 -46.05 -367.4 -108.06 -58 88.21 -100.35 -18.95 -151.13 -67.02 0 22.01 -240.26 469.54 0 -22 240.26 -100.88 0 26.76 235.61 161.96 -393.26 245.58 0 50.03 395.49 89.23 -237.87 -94.99 0 22.02 -240.26 -0.02 0.08zm-3297.51 367l263.88 0 44.34 -367 -942.61 0 -49.85 367 262.23 0 23.37 -150.07 59.43 0 -20.63 154.82 -108.8 81.52 88.21 72.94 -20.07 150.66 -101.49 0 -32.27 240.26 489.15 0 32.26 -240.26 -89.92 0 12.73 -139.37 105.56 -78.9 -87.58 -79.32 17.36 -162.33 73.71 0 -19.05 150.07 0.04 -0.02zm1807.1 550.14l509.37 0 29.8 -240.26 -92.59 0 -41.23 -161.64 80.69 -101.65 -117.81 -43.99 -94.27 -369.55 -308.9 0 -201.65 369.42 -123.28 35.82 45.99 105.73 -90.53 165.87 -80.34 0 -32.14 240.26 447.33 0 39.11 -240.26 -100.87 0 12.32 -22.96 257.41 0 6.69 27.1 -110.67 0 -34.41 236.12 -0.02 -0.01zm-17.18 -452.84l74.59 -138.93 34.26 138.93 -108.84 0 -0.01 0z"/>
    <path fill="#C52D42" d="M1770.81 4372.17l77.82 68.33 -7.97 57.94c-23.15,168.85 94.46,308.52 265.96,308.52l237.12 0c174.05,0 334.97,-143.62 358.56,-315.5l7.06 -51.46 92.84 -68.32 -73.87 -70.08 7.13 -51.96c23.14,-168.86 -94.47,-308.53 -265.94,-308.53l-237.16 0c-174.05,0 -334.97,143.63 -358.56,315.5l-5.63 41.14 -97.39 74.42 0.03 0zm563.49 -257.75c86.25,0 161.39,52.58 150.28,146.42l-23.62 199.53c-10.18,86.09 -87.68,170.13 -177.51,170.13l-44.8 0c-104.89,0 -161.23,-77.07 -149.6,-176.88l19.88 -170.61c10.05,-86.33 87.84,-168.61 177.44,-168.61l47.92 0 0.01 0.02zm1159.6 -173.32l-17.33 189.02 93.61 0 -48.35 385.01c-10.02,79.81 -84.07,101.75 -154.36,101.75l-50.72 0c-45.17,0 -98.81,-13.69 -118.01,-59.58 -6.16,-14.72 -7.53,-30.59 -4.98,-46.27l62.17 -380.91 103.18 0 17.33 -189.02 -418.08 0 -17.34 189.02 68.02 0 -21.87 172.87 -86.19 72.04 69.11 63 -18.95 149.66c-2.53,19.97 -1.68,40.26 2.8,59.93 10.6,46.64 40.01,84.54 79.33,110.99 53.28,35.81 120.14,48.38 183.36,48.38l168.39 0c125.33,0 248.82,-29.68 314.53,-145.9 27.42,-48.5 41.14,-104.54 48.85,-159.36l8.93 -63.29 87.15 -68.27 -68.44 -64.24 24.8 -175.79 79.74 0 17.3 -189.03 -403.96 0 -0.02 -0.01zm2162.54 523.67l-21.15 152.08 -249.38 0 24.52 -182.05 91.23 -63.34 -73.75 -66.33 23.56 -175.02 103.83 0 17.33 -189.02 -418.08 0 -17.34 189.02 68.02 0 -21.9 172.87 -86.19 72.04 69.1 63 -22.66 178.85 -76.95 0 -26.45 190.1 801.17 0 44.75 -342.19 -229.66 0 0 -0.01zm2360.65 -523.67l-17.33 189.02 103.89 0 -138.65 369.52 -60.2 -475.89 -205.83 0 -193.35 469.46 -41.19 -363.07 106.19 0 17.3 -189.03 -418.09 0 -17.29 189.03 61.55 0 23.21 185 -74.52 84.79 91.28 48.97 44.9 358.1 264.38 0 165.35 -426.98 37.05 426.98 277.38 0 140.89 -358.37 101.31 -50.03 -49.97 -80.56 73.87 -187.87 74.93 0 17.3 -189.02 -384.36 0 0 -0.05zm-3291.81 315.76l212.07 0 38.18 -315.75 -891.34 0 -42.87 315.75 210.93 0 23.37 -150.07 110.64 0 -25.92 194.49 -91.35 68.45 74.08 61.23 -24.93 187 -101.52 0 -25.39 189.03 437.43 0 25.4 -189.03 -88.68 0 16.3 -178.68 89.8 -67.12 -74.18 -67.18 21.19 -198.2 125.82 0 -19.05 150.07 0.02 0.01zm1807.62 550.13l457.1 0 23.46 -189.03 -83.52 0 -49.28 -193.25 66.65 -84 -97.35 -36.37 -92.65 -363.26 -273.81 0 -199.45 365.44 -105.57 30.67 39.39 90.52 -103.83 190.23 -73.12 0 -25.27 189.02 396.28 0 30.78 -189.02 -113.6 0 39.83 -74.2 292.81 0 19.32 78.34 -121.23 0 -26.94 184.88 0 0.03zm-89.66 -401.59l126.39 -235.38 58.02 235.38 -184.41 0z"/>
    <path fill="#DA241A" d="M1838.18 4374.47l55.88 49.1 -11.07 80.68c-19.64,143.1 78.09,260.02 223.65,260.02l237.12 0c152.8,0 295.59,-127.94 316.25,-278.6l9.52 -69.38 61.88 -45.52 -216.8 0 -11.2 94.61c-12.72,107.63 -108.28,207.81 -219.92,207.81l-44.81 0c-129.93,0 -206.66,-98.69 -192.04,-224.51l9.08 -77.95 -212.72 0 -4.86 3.71 0.04 0.03zm1744.85 -3.7l-18.78 149.66c-12.98,103.18 -104.18,139.11 -196.74,139.11l-50.72 0c-63.41,0 -131.06,-22.8 -157.41,-85.78 -9.24,-22.13 -11.58,-46.05 -7.71,-69.63l21.78 -133.39 -200.71 0 -6.79 5.67 49.31 44.99 -21.72 171.66c-1.89,15 -1.28,30.31 2.09,45.1 8.18,35.93 31.3,64.69 61.51,85 45.93,30.86 105.07,41.14 159.55,41.14l168.39 0c108.44,0 219.82,-22.44 277.35,-124.21 24.68,-43.62 36.78,-95.02 43.72,-144.31l11.32 -80.34 57 -44.65 -191.45 0 0.01 -0.02zm2110.62 136.71l-21.15 152.09 -335.42 0 33.57 -249.11 57.19 -39.71 -258.96 0 -6.79 5.67 49.31 44.99 -30.14 238.16 -77.42 0 -14.56 104.7 714.63 0 33.57 -256.78 -143.8 0 -0.03 -0.01zm2365.42 -136.71l-114.66 305.6 -38.65 -305.6 -134.92 0 34.17 393.5 209.11 0 136.25 -346.68 73.93 -36.52 -6.38 -10.33 -158.84 0 -0.01 0.03zm-456.74 0l-120.31 292.16 -33.17 -292.16 -203.52 0 -14.87 16.92 63.35 33.98 42.97 342.57 197.42 0 152.4 -393.51 -84.19 0 -0.08 0.04zm-3263.46 0l-0.82 0.59 50.5 41.75 -32.98 247.54 -101.55 0 -13.91 103.61 351.25 0 13.91 -103.61 -86.62 0 22.27 -244.21 61.11 -45.69 -263.16 0 0 0.02zm2243.47 393.5l370.01 0 12.85 -103.61 -68.36 0 -62.73 -245.92 34.91 -44 -205.89 0 19.07 77.32 -310.29 0 41.5 -77.32 -173.68 0 25.7 59.09 -125.99 230.83 -61.08 0 -13.85 103.61 311.18 0 16.86 -103.61 -134.79 0 85.69 -159.61 351.81 0 40.39 163.75 -138.81 0 -14.5 99.47z"/>
   </g>
   <g id="_1920127068944">
    <path fill="#090A0C" d="M2499.48 3634.72l11.18 -88.21 -50.75 -46.27 63.29 -52.87 10.42 -82.39 -41.69 0 13.85 -151.01 530.22 0 -23.09 181.56 -173.87 0 4.26 -30.55 -122.9 0 -8.03 59.71 154.64 0 -19.2 151.01 -155.76 0 -7.93 59.02 121.72 0 4.26 -30.55 176.36 0 -23.15 182.23 -532.58 0 21.09 -151.68 47.72 0 -0.06 0zm1311.47 0.69l38.77 -98.63 -36.37 -58.62 73.75 -36.43 89.49 -227.69 199.32 0 18.17 209.52 81.15 -209.52 190.7 0 28.72 228.97 67.73 36.34 -55.29 62.88 11.71 93.17 41.85 0 -13.81 151 -293.76 0 13.85 -151 62.66 0 -16.24 -143.2 -99.97 242.73 -153.95 0 -30.9 -244.03 -54.21 144.46 58.9 0 -13.84 151 -272.75 0 13.85 -151 50.49 0 -0.02 0.05zm-1564.25 -284.95l-44.46 0 -10.7 100.07 54.88 49.72 -66.14 49.44 -7.81 85.68 56 0 -20.29 151.01 -305.95 0 20.29 -151.01 63.19 0 12.36 -92.82 -55.3 -45.7 68.21 -51.09 12.69 -95.31 -35.6 0 -14.52 93.44 -164.65 0 31.2 -229.88 588.25 0 -27.78 229.88 -165.69 0 11.85 -93.44 -0.03 0.01zm1196.98 287.52l-3.83 -15.46 -159.27 0 -6.91 12.89 62.45 0 -24.58 151 -279.9 0 20.19 -151 50.21 0 56.01 -102.59 -28.84 -66.24 77.22 -22.44 125.58 -230.12 193.28 0 58.74 230.25 73.9 27.59 -50.63 63.76 25.46 99.75 57.9 0 -18.73 151.01 -318.55 0 21.62 -148.42 68.61 0 0.07 0.02zm-98.97 -134.9l65.71 0 -20.66 -83.85 -45.05 83.85z"/>
    <path fill="#C52D42" d="M3316.85 3519.73l78.69 -146.52 36.12 146.52 -114.78 0 -0.03 0zm-492.35 101.12l-4.22 30.55 -155.27 0 12.44 -92.35 155.66 0 14.97 -117.68 -154.76 0 12.51 -93 156.59 0 -4.22 30.55 140.07 0 18.85 -148.23 -496.12 0 -10.76 117.68 42.34 0 -13.63 107.63 -53.67 44.83 43.03 39.24 -14.09 111.32 -47.92 0 -16.45 118.35 498.79 0 18.95 -148.88 -142.98 0 -0.11 -0.01zm1179.64 148.91l10.76 -117.71 -64.69 0 86.32 -230.02 37.48 296.27 128.13 0 120.35 -292.27 25.68 226.02 -66.12 0 -10.79 117.71 260.3 0 10.77 -117.71 -38.3 0 -14.44 -115.15 46.39 -52.77 -56.84 -30.49 -27.94 -222.94 -164.59 0 -102.96 265.82 -23.09 -265.82 -172.69 0 -87.71 223.13 -63.04 31.18 31.12 50.15 -45.99 116.97 -46.65 0 -10.76 117.7 239.3 0 0 -0.07zm-1750.4 -342.48l132.02 0 23.78 -196.58 -554.9 0 -26.7 196.58 131.31 0 14.56 -93.43 68.85 0 -16.11 121.06 -56.88 42.63 46.11 38.12 -15.5 116.39 -63.18 0 -15.81 117.68 272.34 0 15.81 -117.68 -55.23 0 10.14 -111.23 55.88 -41.79 -46.18 -41.81 13.2 -123.37 78.32 0 -11.86 93.43 0.03 0zm1118.93 342.48l284.58 0 14.58 -117.68 -51.98 0 -30.68 -120.29 41.5 -52.3 -60.61 -22.62 -57.68 -226.14 -170.44 0 -124.19 227.51 -65.71 19.11 24.51 56.35 -64.65 118.42 -45.52 0 -15.75 117.67 246.71 0 19.13 -117.67 -70.73 0 24.8 -46.18 182.3 0 12.01 48.79 -75.45 0 -16.76 115.09 0.03 -0.06z"/>
    <path fill="#DA241A" d="M2847.71 3647.48l-4.26 30.56 -208.93 0 19.6 -145.62 155.48 0 4.51 -35.53 -282.65 0 -5.79 4.81 30.68 27.97 -18.79 148.35 -48.19 0 -9.06 65.06 444.69 0 12.16 -95.61 -89.52 0 0.07 0.01zm1132.13 95.62l5.92 -64.37 -73.96 0 68.2 -181.83 -104.08 0 22.03 35.53 -57.53 146.3 -40.48 0 -5.88 64.37 185.78 0zm93.07 -246.24l24.64 194.78 86.78 0 80.21 -194.78 -52.43 0 -45.06 116.31 -10.11 -116.31 -84.07 0 0.04 0zm284.51 0l20.62 181.83 -71.62 0 -5.92 64.37 206.79 0 5.91 -64.37 -32.63 0 -18.85 -150.41 27.63 -31.43 -131.89 0 -0.04 0.01zm-2342.43 0l-2.24 1.68 31.43 25.98 -20.54 154.21 -63.22 0 -8.65 64.37 218.55 0 8.65 -64.37 -53.92 0 13.87 -152.15 39.48 -29.53 -0.22 -0.19 -163.2 0 0.01 0zm1388.52 246.24l230.22 0 8 -64.37 -42.53 0 -39.08 -153.18 22.74 -28.65 -129.37 0 12.2 49.5 -193.37 0 26.57 -49.5 -109.28 0 16.59 38.08 -78.47 143.75 -38.02 0 -8.62 64.37 193.59 0 10.49 -64.37 -83.95 0 53.39 -99.51 219.11 0 25.17 102.06 -86.44 0 -8.99 61.79 0.05 0.03z"/>
   </g>
  </g>
 </g>
</svg>
