<?xml version="1.0" encoding="UTF-8"?>
<!DOCTYPE svg PUBLIC "-//W3C//DTD SVG 1.0//EN" "http://www.w3.org/TR/2001/REC-SVG-20010904/DTD/svg10.dtd">
<!-- Creator: CorelDRAW -->
<svg xmlns="http://www.w3.org/2000/svg" xml:space="preserve" width="100%" height="100%" version="1.0" shape-rendering="geometricPrecision" text-rendering="geometricPrecision" image-rendering="optimizeQuality" fill-rule="evenodd" clip-rule="evenodd"
viewBox="0 0 19476.72 5267.96"
 xmlns:xlink="http://www.w3.org/1999/xlink"
 xmlns:xodm="http://www.corel.com/coreldraw/odm/2003">
 <g id="Layer_x0020_1">
  <metadata id="CorelCorpID_0Corel-Layer"/>
  <rect fill="none" x="0.11" y="0.45" width="19476.5" height="5267.06"/>
  <g id="Tekin_x0020_Logo_x0020_VER01-REV00.cdr">
   <path fill="#090A0C" d="M9230.5 4479.75c-39.57,11.64 -80.71,17.56 -122.05,17.56l-2686.46 0c-52.97,181.72 -221.14,311.71 -415.69,311.71l-1565.33 0c-238.74,0 -432.95,-194.21 -432.95,-432.95l0 -2494.68 -1834 0c-238.74,0 -432.95,-194.22 -432.95,-432.96l0 -956.98c0,-238.74 194.21,-432.95 432.95,-432.95l6084.86 0c238.74,0 432.95,194.21 432.95,432.95l0 735.4 436.64 0c37.86,0 75.55,4.96 112.05,14.75 36.5,-9.79 74.19,-14.75 112.05,-14.75l1070.9 0c190.62,0 353.37,124.01 410.82,296.14l315.65 -218.95c73.83,-51.22 156.89,-77.19 246.75,-77.19l2477 0c50.64,0 100.81,8.88 148.22,26.18 47.41,-17.3 97.56,-26.18 148.2,-26.18l935.55 0c128.66,0 245.56,53.88 329.14,151.7l447.95 524.2 0 -242.95c0,-238.74 194.21,-432.95 432.95,-432.95l987 0c238.74,0 432.95,194.21 432.95,432.95l0 2404.56c0,238.74 -194.21,432.95 -432.95,432.95l-937.93 0c-128.15,0 -244.63,-53.45 -328.21,-150.59l-450.25 -523.38 0 241.02c0,238.74 -194.21,432.95 -432.95,432.95l-537.08 0c92.35,109 126.21,258.75 84,401.75 -54.69,185.35 -221.99,310.4 -415.25,310.4l-1643.48 0c-88.72,0 -170.82,-25.35 -244.1,-75.4l-1563.31 -1067.3c-1.3,237.63 -195.02,430.55 -432.95,430.55l-1048.62 0c-41.35,0 -82.47,-5.92 -122.07,-17.56z"/>
   <path fill="#DA241A" d="M14021.91 1335.07c45.96,-21.02 96.38,-32.27 148.2,-32.27l935.55 0c106.44,0 202.24,44.16 271.4,125.09l581.64 680.68 0 -448.77c0,-196.82 160.19,-357 357,-357l987 0c196.81,0 356.99,160.18 356.99,357l0 2404.56c0,196.82 -160.18,357 -356.99,357l-937.93 0c-106.04,0 -201.48,-43.8 -270.63,-124.18l-583.79 -678.6 0 445.78c0,196.82 -160.18,357 -356.99,357l-760.13 0 85.63 55.35c133.89,86.57 193.7,247.92 148.58,400.85 -45.19,153.06 -182.81,255.95 -342.41,255.95l-1643.48 0c-73.5,0 -140.58,-20.71 -201.28,-62.17l-1682.09 -1148.41 0 141.43c0,196.82 -160.18,357 -356.99,357l-1048.62 0c-42,0 -83.25,-7.37 -122.07,-21.53 -38.8,14.16 -80.05,21.53 -122.05,21.53l-2748.02 0c-22.33,175.52 -172.66,311.7 -354.13,311.7l-1565.33 0c-196.82,0 -357,-160.18 -357,-356.99l0 -2570.64 -1909.95 0c-196.82,0 -357,-160.18 -357,-357l0 -956.98c0,-196.82 160.18,-357 357,-357l6084.86 0c196.81,0 356.99,160.18 356.99,357l0 811.35 512.6 0c38.35,0 76.14,6.16 112.05,18.06 35.92,-11.9 73.7,-18.06 112.05,-18.06l1070.9 0c194.48,0 353.19,156.4 356.93,350.01l412.83 -286.36c61.16,-42.42 129.02,-63.65 203.46,-63.65l2477 0c51.82,0 102.26,11.25 148.22,32.27z"/>
   <path fill="#FEFEFE" d="M9240.52 1497.33c31.88,-22.07 70.5,-35.02 112.05,-35.02l1070.9 0c108.77,0 197.48,88.71 197.48,197.49l0 297.74 663.18 -460.02c34.51,-23.92 70.56,-35.21 112.56,-35.21l2477 0c58.93,0 111.98,26.03 148.22,67.19 36.23,-41.16 89.28,-67.19 148.2,-67.19l935.55 0c59.81,0 111.29,23.73 150.13,69.2l862.42 1009.26 0 -880.97c0,-108.78 88.71,-197.49 197.49,-197.49l987 0c108.77,0 197.48,88.71 197.48,197.49l0 2404.56c0,108.78 -88.71,197.49 -197.48,197.49l-937.93 0c-59.58,0 -110.85,-23.53 -149.71,-68.69l-864.22 -1004.56 0 875.76c0,108.78 -88.71,197.49 -197.48,197.49l-983.25 0c-58.92,0 -111.97,-26.03 -148.2,-67.19 -36.24,41.16 -89.29,67.19 -148.22,67.19l-20.99 0 539.56 348.82c74.65,48.26 107.35,136.48 82.19,221.73 -25.17,85.28 -100.51,141.6 -189.42,141.6l-1643.48 0c-41.47,0 -77.09,-11 -111.34,-34.39l-1931.54 -1318.72 0 443.47c0,108.78 -88.71,197.49 -197.48,197.49l-1048.62 0c-46,0 -88.42,-15.86 -122.07,-42.42 -33.62,26.56 -76.04,42.42 -122.05,42.42l-2827.99 0c-27.17,0 -53.08,-5.53 -76.68,-15.53l0 129.75c0,108.77 -88.71,197.49 -197.48,197.49l-1565.33 0c-108.78,0 -197.49,-88.72 -197.49,-197.49l0 -2730.15 -2069.46 0c-108.78,0 -197.49,-88.71 -197.49,-197.49l0 -956.98c0,-108.78 88.71,-197.49 197.49,-197.49l6084.86 0c108.77,0 197.48,88.71 197.48,197.49l0 956.98c0,4.67 -0.16,9.29 -0.48,13.88l672.59 0c41.55,0 80.17,12.95 112.05,35.02z"/>
   <path fill="#090A0C" d="M16315.7 1659.8l987 0 0 2404.56 -142.33 0 -795.6 0 -1211.41 -1408.15 0 1408.15 -983.25 0 0 -2404.56 126.03 0 809.52 0 1210.04 1416.07 0 -1416.07zm-10309.4 -211.37l0 2927.64 -1565.33 0 0 -2927.64 -2266.95 0 0 -956.98 6084.86 0 0 956.98 -2252.58 0zm1322.88 842.21l0 227.87 1529.63 0 0 579.74 -1548.24 0 0 273.36 1797.88 0 0 692.75 -1797.88 0 -776.08 0 -254.03 0 0 -2404.56 515.06 0 515.05 0 1817.9 0 0 630.84 -1799.29 0zm2023.39 -630.84l1048.62 0 22.28 0 0 675.06 973.22 -675.06 1385.91 0 150.97 0 940.12 0 0 2404.56 -690.23 0 1101.57 712.15 -1643.48 0 -2240.36 -1529.57 0 817.42 -1048.62 0 0 -1255.98 0 -1148.58zm3430.03 101.94l-1546.12 1043.95 1546.12 999.53 0 -2043.48z"/>
  </g>
 </g>
</svg>
