<?xml version="1.0" encoding="UTF-8"?>
<!DOCTYPE svg PUBLIC "-//W3C//DTD SVG 1.1//EN" "http://www.w3.org/Graphics/SVG/1.1/DTD/svg11.dtd">
<!-- Creator: CorelDRAW -->
<svg xmlns="http://www.w3.org/2000/svg" xml:space="preserve" width="100%" height="100%" version="1.0" shape-rendering="geometricPrecision" text-rendering="geometricPrecision" image-rendering="optimizeQuality" fill-rule="evenodd" clip-rule="evenodd"
viewBox="0 0 19476.5 5267.06"
 xmlns:xlink="http://www.w3.org/1999/xlink"
 xmlns:xodm="http://www.corel.com/coreldraw/odm/2003">
 <defs>
  <style type="text/css">
   <![CDATA[
    .fil0 {fill:white}
    .fil3 {fill:black;fill-rule:nonzero}
    .fil4 {fill:black;fill-rule:nonzero}
    .fil5 {fill:#9A9C9F;fill-rule:nonzero}
    .fil1 {fill:#ED3237;fill-rule:nonzero}
    .fil2 {fill:#FEFEFE;fill-rule:nonzero}
   ]]>
  </style>
 </defs>
 <g id="Layer_x0020_1">
  <metadata id="CorelCorpID_0Corel-Layer"/>
  <rect class="fil0" width="19476.5" height="5267.06"/>
  <g id="_1833146640464">
   <path class="fil1" d="M18788.6 4797.77l-1573.86 -1734.65 -1320.2 1092.87 -115.35 -153.84 607.48 -1710.05 -113.15 0 -577.52 1623.97 -1564.66 0 -115.33 -153.73 -301.91 -849.27 -66.94 0 -356.45 1002.8 -773.21 0 -61.77 -82.43c-59.83,52.06 -137.36,82.63 -220.39,82.63l-4897.08 -0.12c-217.8,0 -359.6,-279.76 -382.51,-318.55l-113.39 318.67 -1593.21 0 -115.35 -153.73 522.59 -1470.24 -114.07 0 -577.31 1623.97 -2175.69 0c-56.75,0 -109.88,-14.68 -156.72,-39.67 -8.51,-3.37 -37.58,-22.83 -38.06,-23.11 -147.8,-106.92 -225.95,-289.32 -225.95,-289.32 -18.92,-41.84 -52.74,-136.27 -7.34,-256.96l360.03 -1014.91 -113.17 0 -577.31 1623.97 -773.21 0 -115.43 -153.73 522.77 -1470.24 -1039.3 0 -115.36 -153.81 631.29 -668.89 3229.39 0c252.6,0 382.83,282.38 405.93,322.45l114.96 -323.24 1357.44 0c247.57,0 381.45,283.65 404.67,324.21l115.32 -324.32 773.22 0 61.2 81.73c58,-49.79 132.19,-79.84 210.94,-81.53l3005.53 0c261.04,0 382.74,282.18 405.74,322.24l33.93 -94.8c45.59,-135.39 172.56,-227.53 315.37,-227.53l0 2.09c19.24,-2.09 2999.89,-2.28 2999.89,-2.28 121.79,0 228.79,65.45 287.53,162.95l152.94 -161.97 1666.49 0 428.45 -1215.64 115.36 153.73 377.84 1061.83 1240.75 0 115.35 153.92 -1006.28 828.63 835.09 2345.9 -0.01 0zm-11850.63 -868.41l43.44 -121.7c39.89,49.68 81.32,90.24 124.29,121.7l-167.73 0zm-1877.35 0l25.89 -72.61 54.34 72.61 -80.23 0zm-2934.21 0l135.48 -380.85c5.26,17.85 11.97,35.39 19.82,52.77 3.57,8.43 90.24,207.37 256.88,328.08l-412.18 0zm14073.22 801.75l-7719.9 0 -267 -354.46 -6872.92 -352.77 12027.95 0 307.65 -865.14 307.45 865.14 1684.98 0 209.16 278.3 1336.93 -1106.64 -1014.3 1535.57zm2889.98 -3092.4l-197.86 -263.9 -1221.29 0 -360.53 -1012.44 -230 -306.66 -464.84 1319.1 -1640.31 0 -107.62 114.05c-78.66,-72.61 -183.19,-114.87 -292.08,-114.87 -2036.18,0.12 -2692.04,0.9 -2905.35,1.8l-94.53 -1.68c-153.13,0 -291.79,81.61 -367.36,209.08 -107.7,-138.86 -237.82,-209.08 -387.68,-209.08l-3007.71 0c-64.97,1.49 -128.93,18.16 -186.68,47.9l-36.09 -48.02 -887.24 0 -73.41 206.61c-134.28,-166.83 -275.72,-206.49 -379.76,-206.49l-1424.23 0 -72.78 204.81c-108.69,-135.6 -236.43,-204.11 -381.33,-204.11l-3269.95 0 -714.1 756.43 191.44 255.38 952.69 0 -494.89 1391.88 174.17 232.09 124.74 107.7 6828.8 350.61 268.66 356.84 7818.1 0 1026.03 -1553.73 1759.52 1939.34 -971.35 -2728.72 1024.82 -843.92 0 0z"/>
   <path class="fil1" d="M9892.22 2913.27l-63.96 180.3 934.68 0 72.27 -203.4c-37.48,14.48 -77.85,23.1 -119.99,23.3l-823 -0.2 0 0zm-1941.42 180.3l114.96 0 64.07 -180.3 -114.96 0.09 -64.07 180.21zm1076.28 -801.47c0,0 88.47,102.84 99.11,121.2l43.03 -121.2 -142.14 0zm-5531.69 801.47l284.93 -801.47 -115.45 0 -284.96 801.47 115.48 0zm8325.58 0l284.84 -801.47 -114.64 0 -284.85 801.47 114.65 0zm2844.35 -133.09c92.13,-47.63 165.93,-128.65 205.91,-230.71 0,0 64.35,-176.91 124.16,-343.15l200.74 0 -367.47 1033.55 -163.34 -459.69 0 0zm263.63 -668.38c-64.77,180.6 -146.58,405.35 -146.58,405.35 -42.26,107.5 -131.02,182.79 -237.14,207.2l283.35 797.97 501.56 -1410.52 -401.2 0 0.01 0z"/>
   <path class="fil1" d="M14779.08 1888.95l0.69 -1.69 -0.08 0.08c-0.22,0.71 -0.42,0.9 -0.61,1.61z"/>
   <path class="fil2" d="M11902.39 3208.81l-529.62 0 421.61 -1185.87 529.63 0 -421.62 1185.87zm6620.51 -1624.05l-1061.21 0 -350.72 -985.45 -347.21 985.45 -1698.43 0 -285.56 302.5 -0.58 1.69c0.19,-0.59 0.28,-1.01 0.5,-1.61l0.08 -0.08c0,0 15.27,-55.95 15.27,-83.42 0,-121.5 -98.48,-219.98 -219.96,-219.98 0.2,0 -3000.67,0.11 -2999.89,0.11 -96.99,0 -177.53,63.68 -206.69,150.74l-524.06 1474.1 -1060.04 0 -155.69 438.18 2491.39 0c91.02,0 169.18,-55.33 202.61,-134.3l0.28 -1.07 529.33 -1488.79 1349.55 -0.09 -64.97 182.88 -1059.72 0 -511.59 1441.06 528.34 0 356.46 -1002.8 290.39 0 356.53 1003.11 528.54 0 -356.45 -1002.99 85.1 0c93.03,-0.19 171.97,-58.14 204.11,-139.64 0,0 107.62,-296.07 173.66,-481.42l816.06 0 -577.32 1624.05 528.22 0 577.41 -1624.05 687.02 0 -254.8 270.06 -480.92 1353.4 1082.84 -896.19 1260.36 1388.99 -668.93 -1878.73 820.69 -675.71 0 0z"/>
   <path class="fil3" d="M14828.67 3702.62l-283.44 -797.97c106.12,-24.41 194.96,-99.59 237.14,-207.2 0,0 81.81,-224.64 146.58,-405.43l401.19 0 -501.47 1410.6zm3542.39 436.7l-1260.37 -1389.11 -1082.75 896.19 480.91 -1353.4 254.81 -270.06 -687.11 0 -577.32 1624.05 -528.33 0 577.31 -1624.05 -815.94 0c-66.04,185.35 -173.66,481.42 -173.66,481.42 -32.14,81.5 -111.19,139.45 -204.11,139.64l-84.99 0 356.23 1002.99 -528.43 0 -356.42 -1002.99 -290.42 -0.19 -356.54 1002.98 -528.33 0 511.47 -1441.08 1059.83 0 65.05 -183.08 -1349.51 0.2 -529.33 1488.79 -0.4 1.07c-33.43,78.86 -111.59,134.3 -202.61,134.3l-2491.5 0 155.8 -438.18 1060.04 0 523.98 -1474.1c29.36,-87.06 109.79,-150.74 206.78,-150.74 -0.78,0 3000.09,-0.2 2999.89,-0.2 121.47,0 219.96,98.48 219.96,220.07 0,27.39 -15.36,83.31 -15.36,83.31l285.65 -302.28 1698.32 0 347.23 -985.56 350.81 985.45 1061.2 0 -820.61 675.71 668.78 1878.85 -0.01 0zm-7535.85 -1249.27l-72.27 203.32 -934.68 0 63.96 -180.1 823.1 0.2c42.05,-0.2 82.31,-8.82 119.89,-23.42zm-2884.41 203.32l63.96 -180.1 114.96 0 -64.07 180.1 -114.85 0zm1076.28 -801.35l142.13 0 -43.03 121.28c-10.64,-18.45 -99.11,-121.28 -99.11,-121.28l0.01 0zm-216.39 1354.97l511.44 -1441.09 1059.83 0 65.09 -182.96 -2408.18 0 -65.07 182.96c0,0 747.04,0.42 746.13,0.42 121.59,0 220.16,98.49 220.16,220.08 0,34.1 -11.78,71.41 -11.78,71.41l-408.63 1149.18 -1289.32 -0.01c-114.77,-7.45 -205.91,-102.05 -205.91,-218.78 0,-37.7 11.22,-69.64 11.22,-69.64l188.84 -531.49 528.53 0 -135.79 381.73 529.8 0 200.76 -564.8 -1058.26 0.19c0,0 328.49,-922.59 331.27,-928.82 33.51,-75.97 108.4,-129.44 196.37,-131.41l3002.96 0.01c121.5,0 219.98,98.57 219.98,220.16 0,29.18 -17.65,86.5 -17.65,86.5l-218.7 614.01c-32.25,81.53 -111.07,139.36 -204.1,139.56l-904.13 0 -356.57 1002.79 -528.3 -0.01 0.01 0.01zm-2165.1 -0.2l-528.32 0 733.32 -2062.93 528.43 0 -733.43 2062.93zm-1348.43 0.2l577.41 -1624.05 -528.91 0 -577.44 1624.05 -2094.26 0c-121.6,0 -220.08,-98.68 -220.08,-220.08 0,-27.86 5.76,-54.06 15.1,-78.66l470.19 -1325.31 -527.83 0 -577.32 1624.05 -528.34 0 577.32 -1624.05 -1105.15 0 413.69 -438.07 3179.27 0c121.6,0 220.19,98.37 220.19,219.96 0,34.81 -16.37,83.22 -16.37,83.22l-469.41 1320.76 290.39 0 577.71 -1624.84 1276.06 0c120.49,1.29 217.88,99.07 217.88,219.87 0,29.86 -16.75,85.39 -19.93,94.02l-621.86 1749.13 -528.31 -0.01 0 0.01zm13662.63 -2023.86l-115.47 -153.81 -1240.51 0 -378.08 -1061.72 -115.35 -153.84 -428.34 1215.56 -1666.62 0 -152.74 162.16c-58.82,-97.69 -165.73,-163.06 -287.6,-163.06 0,0 -2980.54,0.19 -2999.89,2.28l0 -2.09c-142.82,0 -269.87,92.14 -315.49,227.42l-33.82 95.03c-23,-40.18 -144.59,-322.45 -405.74,-322.45l-3005.61 0c-78.67,1.78 -152.95,31.83 -210.78,81.73l-61.37 -81.84 -773.21 0 -115.24 324.32c-23.22,-40.65 -157.21,-324.21 -404.56,-324.21l-1357.55 0 -114.87 323.35c-23.19,-40.29 -153.42,-322.64 -406.14,-322.64l-3229.18 0 -631.37 668.97 115.36 153.73 1039.18 -0.01 -522.66 1470.21 115.35 153.84 773.3 0 577.31 -1624.05 113.17 0 -359.92 1014.88c-45.43,120.92 -11.69,215.24 7.22,257.18 0,0 78.28,182.3 225.95,289.21 0.48,0.28 29.56,19.74 38.07,23.31 46.84,24.88 100.09,39.47 156.71,39.47l2175.69 0 577.31 -1624.05 114.18 0 -522.69 1470.21 115.35 153.84 1593.33 0 113.26 -318.67c22.91,38.79 164.72,318.47 382.63,318.47l4897.05 0.2c82.83,0 160.48,-30.45 220.31,-82.71l61.77 82.51 773.2 0 356.53 -1002.79 66.86 0 301.8 849.15 115.35 153.84 1564.76 0 577.41 -1624.05 113.38 0 -607.68 1710.25 115.35 153.72 1320.28 -1092.87 1573.76 1734.54 -834.99 -2345.79 1006.28 -828.74 0.01 0.01z"/>
   <path class="fil2" d="M3576.8 3208.81l-530.42 0 421.51 -1185.87 530.5 0 -421.58 1185.87 -0.01 0zm2890.46 -1404.97c0,-120.8 -97.39,-218.69 -217.99,-219.87l-1276.03 0 -577.63 1624.84 -290.39 0 469.5 -1320.68c0,0 16.17,-48.49 16.17,-83.19 0,-121.59 -98.56,-220.18 -219.96,-220.18l-3179.5 0 -413.66 438.18 1105.15 0 -577.24 1624.05 528.43 0 577.32 -1624.05 527.83 0 -470.28 1325.43c-9.45,24.28 -15.1,50.68 -15.1,78.43 0,121.59 98.48,220.19 220.08,220.19l2094.27 0 577.32 -1624.05 529.02 0 -577.31 1624.05 528.33 0 621.74 -1749.13c3.18,-8.63 19.93,-64.16 19.93,-94.02zm383.33 -219.98l-733.32 2062.93 528.32 0 733.43 -2062.93 -528.43 0zm3748.38 1060.34l0.71 0c93.04,-0.2 171.86,-58.03 204.11,-139.56l218.7 -614.01c0,0 17.65,-57.32 17.65,-86.5 0,-121.59 -98.48,-220.16 -220.07,-220.16l-3002.86 0c-87.97,1.97 -162.87,55.44 -196.38,131.4 -2.78,6.24 -331.26,928.83 -331.26,928.83l1058.26 -0.2 -200.76 564.81 -529.81 0 135.79 -381.73 -528.53 0 -188.84 531.49c0,0 -11.22,31.94 -11.22,69.64 0,116.73 91.14,211.33 205.91,218.78l1289.32 0 408.63 -1149.18c0,0 11.78,-37.31 11.78,-71.41 0,-121.59 -98.57,-220.08 -220.16,-220.08 0.91,0 -746.14,-0.42 -746.14,-0.42l65.08 -182.96 2408.18 0 -65.09 182.97 -1059.72 0 -511.56 1441.08 528.31 0 356.57 -1002.79 903.41 0.01 -0.01 -0.01z"/>
   <path class="fil4" d="M3780.32 2292.1l-284.93 801.27 -115.48 0 284.96 -801.27 115.45 0 0 0zm-733.94 916.71l530.42 0 421.51 -1185.87 -530.42 0 -421.51 1185.87z"/>
   <path class="fil1" d="M14779.08 1888.95l0.69 -1.69 -0.08 0.08c-0.22,0.71 -0.42,0.9 -0.61,1.61z"/>
   <path class="fil4" d="M12105.9 2292.1l-284.93 801.27 -114.76 0 284.96 -801.27 114.73 0zm-733.13 916.71l529.62 0 421.62 -1185.87 -529.63 0 -421.61 1185.87zm909.17 1042.68l-112.75 0 -40.46 115.15 104.33 0c54.34,-1.6 65.06,-15.57 84.2,-69.83 3.58,-10.21 10.99,-31.43 6.75,-37.67 -2.58,-3.49 -11.81,-7.65 -42.07,-7.65zm-645.74 0l-112.87 0 -40.57 115.15 104.44 0c54.26,-1.6 65.16,-15.57 84.2,-69.83 3.58,-10.21 11.11,-31.43 6.75,-37.67 -2.47,-3.49 -11.8,-7.65 -41.95,-7.65zm3003.54 -2.98c-51.2,0 -68.43,9.42 -91.33,74.08l-43.56 123.59c-9.92,27.86 -12.28,45.71 -7.03,53.05 5.14,7.45 23.31,8.63 42.14,8.83l46.42 -0.01c47.4,-0.39 67.54,-6.55 89.85,-69.81l43.75 -123.47c7.03,-19.94 15.57,-47.62 8.82,-57.24 -5.76,-7.93 -26.99,-9.02 -42.37,-9.02l-46.69 0zm-2134.54 185.57l118.52 0 -2.89 -160.89 -115.63 160.89zm1350.03 0l118.52 0 -2.86 -160.89 -115.66 160.89zm-4864.05 -111.49l-43.44 123.48c-10,27.97 -12.4,45.82 -7.22,52.96 5.25,7.65 23.3,8.83 42.23,9.03l46.61 -0.01c47.42,-0.39 67.36,-6.55 89.68,-69.81l43.63 -123.47c7.15,-19.94 15.57,-47.62 8.83,-57.32 -5.66,-7.85 -26.79,-8.75 -42.37,-8.75l-46.69 0.01c-51.17,0 -68.43,9.22 -91.26,73.88z"/>
   <path class="fil4" d="M14369.68 4505.28l-20.63 58.33 -241.11 0 130.81 -370.43 64.38 0 -110.2 312.1 176.75 0zm411.9 -182.69l-43.66 123.48c-30.45,86.58 -76.36,120.21 -163.66,120.21l-46.69 0c-45.43,0 -73.21,-9.23 -87.29,-28.97 -14.69,-20.82 -13.86,-51.36 2.97,-99.07l43.67 -123.47c32.41,-92.05 74.08,-123.39 164.91,-124.38l46.81 0c47.23,0.6 74.39,9.42 87.97,28.96 14.71,20.83 13.1,51.76 -5.03,103.24l0 0zm341.86 241.02l-81.72 0 -76.67 -287.83 -101.55 287.83 -64.28 0 130.72 -370.43 82.23 0 75.45 289.69 102.25 -289.69 64.27 0 -130.7 370.43zm422.89 -217.91l-19.63 56.03 -175.66 0 -36.6 103.55 183.5 0 -20.56 58.33 -247.93 0 130.82 -370.43 247.85 0 -20.52 58.31 -183.58 0 -33.32 94.21 175.63 0zm-1587.56 -152.52l73.21 0 7.41 370.43 -64.26 0 -1.29 -73.6 -157.58 0 -52.77 73.6 -70.31 0 265.59 -370.43zm-5286.24 0l42.35 151.23 149.06 -151.23 80.23 0 -221.07 220.36 -53.07 150.07 -64.27 0 55.44 -157.02 -59.01 -213.41 70.34 0 0 0zm551.63 129.41l-43.43 123.48c-30.57,86.58 -76.48,120.21 -163.75,120.21l-46.73 0c-45.42,0 -73.2,-9.23 -87.29,-28.97 -14.76,-20.82 -13.77,-51.36 3.09,-99.07l43.55 -123.47c32.52,-92.05 74.08,-123.39 165.03,-124.38l46.81 0c47.21,0.6 74.28,9.42 87.97,28.96 14.6,20.83 13,51.76 -5.25,103.24l0 0zm111.86 175.46c6.36,8.83 37.4,10.01 70.34,10.01 68.83,0 89.65,0 109.88,-57.41l90.94 -257.47 64.37 0 -93.73 265.48c-35.2,99.69 -101.27,107.62 -183.78,107.62 -45.91,0 -93.34,0 -113.95,-28.97 -13.41,-19.02 -13.1,-47.31 0.68,-86.67l91.06 -257.46 64.35 0 -93.7 265.48c-4.98,13.8 -10.91,33.03 -6.46,39.38l0 0.01zm889.44 65.56l-81.7 0 -76.59 -287.83 -101.65 287.83 -64.27 0 130.61 -370.43 82.32 0 75.37 289.69 102.28 -289.69 64.36 0 -130.73 370.43 0 0zm423 -217.91l-19.82 56.03 -175.67 0 -36.49 103.55 183.39 0 -20.44 58.33 -247.94 0 130.82 -370.43 247.85 0 -20.63 58.31 -183.46 0 -33.24 94.21 175.63 0zm375.21 -152.52l71 0 -262.02 370.43 -73.91 0 -1.68 -370.43 65.95 0 -2.47 292.27 203.13 -292.27zm307.64 152.52l-19.83 56.03 -175.65 0 -36.49 103.55 183.47 0 -20.44 58.33 -248.04 0 130.84 -370.43 247.83 0 -20.54 58.31 -183.57 0 -33.31 94.21 175.73 0zm340.49 60.81c9.01,13.89 9.21,32.53 0.51,57.13l-35.44 99.97 -64.26 0 31.55 -89.26c2.85,-8.35 11.79,-33.12 5.45,-42.06 -3.57,-4.86 -13.58,-7.45 -29.67,-7.45l-117.7 -0.01 -49.01 138.77 -64.46 0 130.93 -370.42 168.2 0c46.69,0 72.4,8.01 85.89,26.96 13.38,19.03 12.68,46.42 -2.09,88.67 -13.37,37.58 -28.95,72.79 -66.84,89.85 2.66,2.27 4.96,4.95 6.94,7.85l0 0zm936.95 -213.33l73.17 0 7.57 370.43 -64.38 0 -1.3 -73.6 -157.57 0 -52.78 73.6 -70.23 0 265.52 -370.43zm-291.21 213.33c9.02,13.89 9.26,32.53 0.51,57.13l-35.2 99.97 -64.27 0 31.32 -89.26c2.98,-8.35 11.8,-33.12 5.56,-42.06 -3.37,-4.86 -13.69,-7.45 -29.66,-7.45l-117.82 -0.01 -48.98 138.77 -64.38 0 130.82 -370.42 168.31 0c46.69,0 72.5,8.01 85.78,27.15 13.6,18.84 12.79,46.23 -2.17,88.48 -13.3,37.58 -28.87,72.79 -66.77,89.85 2.78,2.27 4.97,4.95 6.94,7.85l0.01 0zm760.43 -150.46c-2.29,-3.38 -10.01,-7.54 -33.03,-7.54l-22.22 0c-78.75,0 -104.65,8.63 -124.65,65.25l-33.63 95.42c-12.59,35.71 -26.87,76.27 -17.46,89.57 4.25,6.13 15.96,9.31 34.69,9.31l46.72 0c61.41,0 76.87,-8.52 91.86,-50.38l12.59 -35.71 64.35 0 -17.04 48.22c-31.46,88.75 -94.83,96.09 -162.58,96.09l-55.44 0c-41.56,0 -61.68,-16.05 -71.3,-29.54 -15.58,-22.02 -16.36,-55.05 -2.2,-95.31l47.33 -133.99c38.08,-108.12 113.75,-117.04 194.49,-117.04l32.32 0.01c37.7,0 61.09,8.24 73.5,25.58 13.3,18.95 12.51,46.62 -2.88,90.05l-6.75 18.95 -64.35 0 8.92 -25.5c5.56,-15.07 12,-36.1 6.75,-43.44l0.01 0zm374.1 89.65l-19.73 56.03 -175.66 0 -36.68 103.55 183.57 0 -20.54 58.33 -247.94 0 130.72 -370.43 248.03 0 -20.6 58.31 -183.59 0 -33.23 94.21 175.64 0 0.01 0zm2424.93 -43.72l-209.28 -278.1 -1684.86 0 -307.45 -865.14 -307.65 865.14 -12027.94 0 6872.81 352.77 267.11 354.46 7719.89 0 1014.3 -1535.49 -1336.93 1106.36z"/>
   <polygon class="fil5" points="12643.27,4201.59 12640.88,4205.08 12643.36,4205.08 "/>
  </g>
 </g>
</svg>
