<?xml version="1.0" encoding="UTF-8"?>
<!DOCTYPE svg PUBLIC "-//W3C//DTD SVG 1.0//EN" "http://www.w3.org/TR/2001/REC-SVG-20010904/DTD/svg10.dtd">
<!-- Creator: CorelDRAW -->
<svg xmlns="http://www.w3.org/2000/svg" xml:space="preserve" width="100%" height="100%" version="1.0" shape-rendering="geometricPrecision" text-rendering="geometricPrecision" image-rendering="optimizeQuality" fill-rule="evenodd" clip-rule="evenodd"
viewBox="0 0 19476.5 5267.06"
 xmlns:xlink="http://www.w3.org/1999/xlink"
 xmlns:xodm="http://www.corel.com/coreldraw/odm/2003">
 <g id="Layer_x0020_1">
  <metadata id="CorelCorpID_0Corel-Layer"/>
  <rect fill="none" width="19476.5" height="5267.06"/>
  <path fill="red" d="M7751.53 998.68c1582.23,-341.32 3030.59,-473.75 4671.44,-473.75 3295.33,0 6065.14,711.78 6065.14,1842.36 0,1461.15 -4420.43,2419.86 -7960.81,2419.86 -1342.1,0 -2628.77,-108.17 -3649.64,-341.06 721.08,102.96 1593.21,156.7 2525.33,160.8 4109.72,18.1 8244.32,-907.45 8244.32,-2270.27 0,-1014 -2794.96,-1634.24 -6064.49,-1634.24 -1525.86,0 -2709.29,150.81 -3831.29,296.3z"/>
  <path fill="black" d="M6747.43 1710.37c265.66,0 633.18,63.74 736.28,362.01l116.02 -331.3 613.88 0 607.45 0 607.7 0 -142.49 406.87 -607.69 0 -433.11 1236.79 -607.45 0 433.1 -1236.79 -568 0c5.57,31.8 8.53,65.82 8.53,102.21 0,315.35 -317.96,1170.48 -1389.23,1170.48 -314.77,0 -746.79,-90.73 -746.79,-562.52 0,-197.62 90.96,-476.68 300.1,-710.17l-565.33 0 -433.11 1236.79 -607.45 0 433.1 -1236.79 -613.87 0 142.48 -406.87 613.88 0 607.45 0 607.7 0 -118.47 338.3c219.82,-210.44 547.24,-369.01 1005.32,-369.01zm1663.2 1674.37l607.45 0 184.24 -264.08 659.12 0 0.31 264.08 535.86 0 92.18 0 201.36 0 313.91 0 961.28 0 142.48 -406.88 -961.27 0 433.1 -1236.78 -607.45 0 -501.46 1431.97 -122.08 -1431.97 -184.87 0 -304.98 0 -153.27 0 -1295.91 1643.66zm1041.84 -622.65l407.86 -584.59 0.68 584.59 -408.54 0zm2045.24 -153.96l439.8 0 71.25 -203.44 -439.8 0 -71.25 203.44zm-4888.54 -516.65c131.44,0 284.63,73.84 284.63,218.17 0,219.67 -162,733.19 -613.53,733.19 -132.68,0 -298.95,-45.56 -298.95,-261.4 0,-183.46 178.83,-689.96 627.85,-689.96z"/>
  <path fill="red" d="M11871.53 3384.74l607.45 0 233.49 -666.74 67.1 0c87.47,0 146.83,57.52 165.94,123.83l156.4 542.91 682.09 0 -135.83 -496.05c-28.52,-104.19 -106.14,-193.67 -227.93,-230.37 181.38,-21.1 349.38,-101.57 468.59,-216.32 -71.27,147.73 -105.97,296.28 -105.97,422.5 0,319.5 190.47,558.58 781.86,554.52 405.84,-2.79 759.53,-113.05 1077.29,-567.31l-481.87 -142.33c-179.22,261.75 -311.81,333.44 -502.21,333.44 -117.62,0 -264.31,-46.45 -264.31,-233.81 0,-314.01 240.31,-718.47 609.35,-718.47 116.76,0 299.08,75.15 258.14,236.76l580.45 -102.33c-21.67,-256.21 -95.45,-513.25 -708.76,-513.25 -511.49,0 -869.1,216.27 -1087.15,484.14 8.96,-29.1 15.17,-58.95 18.35,-89.33 23.32,-222.7 -52.81,-365.45 -568.31,-365.45l-1048.57 0 -575.59 1643.66zm950.65 -980.05l116.24 -331.95 330.44 0c117.76,0 175.9,45.54 169.09,112.98 -11.7,116.05 -117.99,218.97 -306.81,218.97l-308.96 0z"/>
  <path fill="black" fill-rule="nonzero" d="M6690.96 3879.6l-81.01 0 -29.94 40.42 -43.54 0 138.94 -183.17 47.49 0 9.34 183.17 -39.85 0 -1.43 -40.42zm-1.07 -30.7l-2.61 -73.67 -54.59 73.67 57.2 0zm207.65 -112.05l41.84 0 -37.12 99.64 -9.29 24.39c-0.6,2.09 -1.38,4.78 -2.36,8.02 -0.86,6.65 1.61,12.16 7.47,16.5 5.86,4.31 14.9,6.48 27.12,6.48 10.98,0 20.28,-1.71 27.91,-5.16 7.61,-3.41 13.84,-8.53 18.65,-15.26 4.78,-6.78 10.26,-18.29 16.4,-34.5l36.31 -100.11 41.93 0 -37.59 103.74c-7.71,20.25 -15.61,35.73 -23.6,46.48 -8.05,10.74 -19.25,19.43 -33.57,26.18 -14.32,6.73 -31.83,10.1 -52.41,10.1 -24.63,0 -42.82,-5.25 -54.54,-15.73 -11.77,-10.49 -16.54,-23.97 -14.41,-40.42 0.62,-3.37 1.57,-7.08 2.8,-11.05 0.78,-2.64 3.42,-10.23 7.98,-22.72l36.48 -96.58zm297.72 183.17l-41.97 0 55.3 -152.46 -59.94 0 10.8 -30.71 160.89 0 -10.81 30.71 -58.95 0 -55.32 152.46zm174 -71.88c1.4,-10.83 4.69,-22.26 9.85,-34.28 6.84,-16.12 15.86,-30.06 27.09,-41.91 11.24,-11.86 24.7,-21.2 40.33,-28.1 15.67,-6.87 32.9,-10.31 51.77,-10.31 25.3,0 44.79,7.02 58.5,21.14 13.73,14.11 19.11,32.79 16.1,56.06 -2.5,19.36 -9.96,38.07 -22.4,56.15 -12.48,18.12 -28.07,32.06 -46.69,41.83 -18.6,9.76 -38.87,14.63 -60.82,14.63 -19.03,0 -34.5,-3.88 -46.43,-11.64 -11.88,-7.76 -19.82,-17.36 -23.71,-28.83 -3.89,-11.46 -5.1,-23.06 -3.59,-34.74zm41.74 -0.72c-1.63,12.61 1.28,23.18 8.71,31.67 7.44,8.53 18.1,12.79 32.05,12.79 11.31,0 22.63,-3.37 33.9,-10.06 11.33,-6.73 21.25,-16.93 29.86,-30.57 8.57,-13.68 13.71,-26.95 15.38,-39.9 1.87,-14.47 -0.99,-25.8 -8.53,-34.03 -7.59,-8.24 -18.05,-12.33 -31.41,-12.33 -20.49,0 -38.29,8.62 -53.4,25.8 -15.04,17.23 -23.9,36.07 -26.56,56.63zm242.96 13.59l40.18 -1.87c-0.9,11.38 0.29,19.05 3.59,23.02 5.29,6.48 16.19,9.72 32.73,9.72 13.73,0 24.01,-2.21 30.72,-6.65 6.7,-4.44 10.44,-9.76 11.24,-16.03 0.7,-5.41 -1.21,-10.02 -5.73,-13.77 -3.16,-2.78 -12.29,-7.25 -27.32,-13.39 -15.04,-6.18 -25.92,-11.34 -32.65,-15.48 -6.79,-4.13 -11.8,-9.51 -15.14,-16.12 -3.33,-6.6 -4.42,-14.32 -3.29,-23.14 2.01,-15.48 9.9,-28.32 23.67,-38.51 13.72,-10.19 32.39,-15.25 56.02,-15.25 23.96,0 41.85,5.02 53.67,15.12 11.87,10.11 17.36,23.54 16.48,40.29l-40.44 1.63c0.14,-8.74 -2.58,-15.43 -7.99,-20.13 -5.4,-4.64 -14.03,-6.98 -25.82,-6.98 -11.6,0 -20.11,1.83 -25.52,5.49 -5.48,3.67 -8.55,8.32 -9.27,13.9 -0.69,5.29 1.04,9.59 5.11,13.05 4.12,3.5 13.58,8.27 28.34,14.36 22.3,9.13 36.27,16.5 41.97,22.17 8.47,8.36 11.84,19.07 10.14,32.19 -2.1,16.2 -11,30.02 -26.75,41.49 -15.74,11.47 -36.31,17.23 -61.74,17.23 -17.55,0 -32.42,-2.65 -44.61,-7.93 -12.16,-5.29 -20.29,-12.63 -24.4,-22 -4.07,-9.38 -5.15,-20.21 -3.19,-32.41z"/>
  <path fill="black" fill-rule="nonzero" d="M8434.43 3879.6l-81.02 0 -29.94 40.42 -43.54 0 138.94 -183.17 47.49 0 9.34 183.17 -39.84 0 -1.43 -40.42zm-1.08 -30.7l-2.6 -73.67 -54.6 73.67 57.2 0zm220.46 71.12l-44.88 0 -12.74 -183.17 41.63 0 7.91 138.66 102.48 -138.66 41.65 0 -136.05 183.17zm157.47 0l66.45 -183.17 41.92 0 -66.39 183.17 -41.98 0zm174.71 -71.88c1.4,-10.83 4.69,-22.26 9.85,-34.28 6.84,-16.12 15.86,-30.06 27.09,-41.91 11.24,-11.86 24.7,-21.2 40.33,-28.1 15.67,-6.87 32.9,-10.31 51.77,-10.31 25.3,0 44.79,7.02 58.51,21.14 13.72,14.11 19.1,32.79 16.09,56.06 -2.5,19.36 -9.95,38.07 -22.41,56.15 -12.47,18.12 -28.06,32.06 -46.67,41.83 -18.62,9.76 -38.88,14.63 -60.84,14.63 -19.02,0 -34.49,-3.88 -46.42,-11.64 -11.88,-7.76 -19.81,-17.36 -23.7,-28.83 -3.91,-11.46 -5.11,-23.06 -3.6,-34.74zm41.74 -0.72c-1.63,12.61 1.29,23.18 8.7,31.67 7.45,8.53 18.12,12.79 32.06,12.79 11.31,0 22.63,-3.37 33.89,-10.06 11.34,-6.73 21.26,-16.93 29.87,-30.57 8.57,-13.68 13.71,-26.95 15.39,-39.9 1.86,-14.47 -1,-25.8 -8.55,-34.03 -7.58,-8.24 -18.03,-12.33 -31.39,-12.33 -20.5,0 -38.3,8.62 -53.41,25.8 -15.05,17.23 -23.91,36.07 -26.56,56.63zm392.17 72.6l-39.02 0 -39.31 -123.05 -44.61 123.05 -39.02 0 66.45 -183.17 39.01 0 39.52 122.55 44.4 -122.55 39.04 0 -66.46 183.17zm128.11 -59.01l40.17 -1.87c-0.9,11.38 0.3,19.05 3.6,23.02 5.3,6.48 16.19,9.72 32.73,9.72 13.74,0 24.01,-2.21 30.72,-6.65 6.69,-4.44 10.44,-9.76 11.24,-16.03 0.7,-5.41 -1.22,-10.02 -5.73,-13.77 -3.15,-2.78 -12.28,-7.25 -27.33,-13.39 -15.02,-6.18 -25.91,-11.34 -32.64,-15.48 -6.8,-4.13 -11.8,-9.51 -15.13,-16.12 -3.34,-6.6 -4.43,-14.32 -3.29,-23.14 2,-15.48 9.88,-28.32 23.67,-38.51 13.71,-10.19 32.39,-15.25 56.02,-15.25 23.96,0 41.85,5.02 53.66,15.12 11.86,10.11 17.35,23.54 16.49,40.29l-40.45 1.63c0.14,-8.74 -2.57,-15.43 -8,-20.13 -5.38,-4.64 -14.02,-6.98 -25.8,-6.98 -11.6,0 -20.12,1.83 -25.53,5.49 -5.47,3.67 -8.55,8.32 -9.27,13.9 -0.68,5.29 1.04,9.59 5.11,13.05 4.11,3.5 13.58,8.27 28.34,14.36 22.3,9.13 36.28,16.5 41.96,22.17 8.48,8.36 11.85,19.07 10.15,32.19 -2.09,16.2 -11,30.02 -26.74,41.49 -15.75,11.47 -36.32,17.23 -61.76,17.23 -17.53,0 -32.41,-2.65 -44.6,-7.93 -12.15,-5.29 -20.28,-12.63 -24.41,-22 -4.06,-9.38 -5.13,-20.21 -3.18,-32.41z"/>
  <path fill="black" fill-rule="nonzero" d="M10351.09 3838.16l-79.24 0 -29.69 81.86 -41.99 0 66.47 -183.17 41.91 0 -25.6 70.62 79.29 0 25.62 -70.62 41.93 0 -66.39 183.17 -41.99 0 29.68 -81.86zm126.12 81.86l66.45 -183.17 151.18 0 -11.09 30.71 -109.3 0 -15.38 41.43 105.92 0 -11.1 30.71 -106.26 0 -18.48 49.63 118.61 0 -11.09 30.69 -159.46 0zm262.74 0l66.45 -183.17 41.93 0 -55.3 152.48 104.05 0 -11.09 30.69 -146.04 0zm242.71 0l66.45 -183.17 41.93 0 -66.41 183.17 -41.97 0zm308.56 -65.75l41.45 5.76c-10.86,20.51 -25.3,36.2 -43.19,47.03 -17.86,10.87 -37.9,16.29 -60.05,16.29 -24.92,0 -43.53,-6.74 -55.81,-20.25 -12.29,-13.52 -16.8,-33.13 -13.47,-58.84 2.7,-20.85 9.86,-39.91 21.5,-57.23 11.67,-17.3 26.4,-30.56 44.31,-39.72 17.89,-9.17 36.63,-13.77 56.27,-13.77 22.09,0 39.24,5.32 51.53,15.94 12.25,10.66 18.37,25.11 18.42,43.48l-40.67 3.5c-0.86,-10.7 -4.13,-18.42 -9.83,-23.23 -5.7,-4.82 -13.81,-7.21 -24.36,-7.21 -11.56,0 -22.75,3.16 -33.6,9.51 -10.86,6.35 -20.12,16.29 -27.86,29.8 -7.78,13.47 -12.51,26.94 -14.25,40.42 -1.9,14.71 0.53,26.09 7.28,34.11 6.77,8.01 15.99,12.02 27.59,12.02 10.85,0 21.13,-3.16 30.95,-9.51 9.85,-6.31 17.76,-15.69 23.79,-28.1zm143.47 -6.13c1.4,-10.83 4.68,-22.26 9.85,-34.28 6.84,-16.12 15.86,-30.06 27.09,-41.91 11.24,-11.86 24.7,-21.2 40.33,-28.1 15.67,-6.87 32.9,-10.31 51.77,-10.31 25.3,0 44.79,7.02 58.51,21.14 13.72,14.11 19.1,32.79 16.09,56.06 -2.5,19.36 -9.96,38.07 -22.41,56.15 -12.47,18.12 -28.06,32.06 -46.67,41.83 -18.62,9.76 -38.88,14.63 -60.84,14.63 -19.02,0 -34.49,-3.88 -46.42,-11.64 -11.88,-7.76 -19.81,-17.36 -23.71,-28.83 -3.9,-11.46 -5.11,-23.06 -3.59,-34.74zm41.74 -0.72c-1.63,12.61 1.29,23.18 8.7,31.67 7.45,8.53 18.12,12.79 32.06,12.79 11.31,0 22.63,-3.37 33.89,-10.06 11.34,-6.73 21.26,-16.93 29.87,-30.57 8.57,-13.68 13.71,-26.95 15.38,-39.9 1.87,-14.47 -0.99,-25.8 -8.54,-34.03 -7.58,-8.24 -18.05,-12.33 -31.39,-12.33 -20.5,0 -38.3,8.62 -53.41,25.8 -15.05,17.23 -23.91,36.07 -26.56,56.63zm271.04 72.6l-41.98 0 66.44 -183.17 82.88 0c14.78,0 26.22,1.58 34.37,4.7 8.21,3.11 14.34,8.27 18.4,15.47 4.07,7.21 5.47,15.82 4.18,25.79 -1.19,9.26 -4.35,18.25 -9.47,27 -5.14,8.78 -10.93,15.77 -17.4,21.01 -6.49,5.25 -13.23,9.22 -20.28,11.94 -7.01,2.69 -16.26,4.74 -27.8,6.18 -6.67,0.82 -19.08,1.24 -37.15,1.24l-26.87 0 -25.32 69.84zm36.43 -100.53l12.92 0c22.15,0 37.1,-1.24 44.83,-3.71 7.75,-2.47 14.1,-6.44 19.09,-11.9 4.94,-5.46 7.85,-11.47 8.69,-17.99 0.57,-4.39 -0.05,-7.97 -1.88,-10.79 -1.82,-2.81 -4.61,-4.86 -8.39,-6.14 -3.77,-1.27 -12.48,-1.92 -26.13,-1.92l-30.1 0 -19.03 52.45zm272.04 100.53l-41.99 0 55.3 -152.46 -59.94 0 10.8 -30.71 160.89 0 -10.81 30.71 -58.95 0 -55.3 152.46zm156.7 0l66.44 -183.17 151.19 0 -11.1 30.71 -109.29 0 -15.38 41.43 105.92 0 -11.1 30.71 -106.26 0 -18.48 49.63 118.61 0 -11.09 30.69 -159.46 0zm304.42 0l-41.97 0 66.44 -183.17 90.61 0c15.6,0 27.54,1.46 35.87,4.32 8.28,2.89 14.59,8.14 18.97,15.81 4.33,7.67 5.8,16.93 4.39,27.84 -2.02,15.61 -8.86,28.44 -20.57,38.55 -11.69,10.15 -28.23,16.41 -49.59,18.8 4.8,4.34 9.11,10.06 12.94,17.14 7.52,14.32 15.36,34.58 23.5,60.71l-45.08 0c-2.27,-10.32 -7.33,-26.39 -15.1,-48.26 -4.24,-11.81 -9.34,-19.79 -15.33,-23.84 -3.67,-2.42 -10.51,-3.62 -20.45,-3.62l-17.17 0 -27.46 75.72zm37.38 -103.1l22.29 0c22.59,0 37.72,-1.18 45.39,-3.61 7.74,-2.44 13.98,-6.24 18.83,-11.43 4.86,-5.17 7.66,-10.62 8.39,-16.29 0.86,-6.7 -1.49,-11.68 -7.09,-15.05 -3.45,-2.01 -11.36,-2.98 -23.72,-2.98l-46.22 0 -17.87 49.36zm197.12 103.1l66.44 -183.17 151.18 0 -11.1 30.71 -109.29 0 -15.38 41.43 105.91 0 -11.1 30.71 -106.25 0 -18.48 49.63 118.62 0 -11.1 30.69 -159.45 0zm275.48 -59.01l40.17 -1.87c-0.9,11.38 0.3,19.05 3.59,23.02 5.31,6.48 16.19,9.72 32.73,9.72 13.74,0 24.02,-2.21 30.73,-6.65 6.69,-4.44 10.43,-9.76 11.24,-16.03 0.7,-5.41 -1.22,-10.02 -5.74,-13.77 -3.15,-2.78 -12.28,-7.25 -27.32,-13.39 -15.02,-6.18 -25.91,-11.34 -32.65,-15.48 -6.79,-4.13 -11.8,-9.51 -15.12,-16.12 -3.34,-6.6 -4.44,-14.32 -3.29,-23.14 1.99,-15.48 9.88,-28.32 23.66,-38.51 13.71,-10.19 32.39,-15.25 56.02,-15.25 23.97,0 41.85,5.02 53.66,15.12 11.87,10.11 17.36,23.54 16.49,40.29l-40.45 1.63c0.14,-8.74 -2.56,-15.43 -7.99,-20.13 -5.39,-4.64 -14.03,-6.98 -25.81,-6.98 -11.6,0 -20.11,1.83 -25.53,5.49 -5.47,3.67 -8.54,8.32 -9.26,13.9 -0.68,5.29 1.03,9.59 5.11,13.05 4.11,3.5 13.58,8.27 28.34,14.36 22.29,9.13 36.28,16.5 41.96,22.17 8.47,8.36 11.84,19.07 10.15,32.19 -2.09,16.2 -11.01,30.02 -26.74,41.49 -15.76,11.47 -36.33,17.23 -61.76,17.23 -17.54,0 -32.41,-2.65 -44.61,-7.93 -12.15,-5.29 -20.28,-12.63 -24.4,-22 -4.06,-9.38 -5.13,-20.21 -3.18,-32.41z"/>
  <path fill="#DA241A" d="M8077.2 3817.71c18.9,0 32.29,18.58 29.92,41.51 -2.37,22.92 -19.6,41.5 -38.5,41.5 -18.89,0 -32.28,-18.58 -29.91,-41.5 2.37,-22.93 19.6,-41.51 38.49,-41.51zm-1.84 17.82c10.78,0 18.42,10.6 17.07,23.69 -1.35,13.08 -11.18,23.68 -21.97,23.68 -10.78,0 -18.42,-10.6 -17.07,-23.68 1.36,-13.09 11.19,-23.69 21.97,-23.69z"/>
  <path fill="#DA241A" d="M9972.82 3817.71c18.89,0 32.28,18.58 29.91,41.51 -2.37,22.92 -19.6,41.5 -38.49,41.5 -18.89,0 -32.28,-18.58 -29.91,-41.5 2.37,-22.93 19.6,-41.51 38.49,-41.51zm-1.84 17.82c10.78,0 18.42,10.6 17.07,23.69 -1.35,13.08 -11.19,23.68 -21.97,23.68 -10.78,0 -18.42,-10.6 -17.07,-23.68 1.35,-13.09 11.19,-23.69 21.97,-23.69z"/>
  <polygon fill="black" points="10605.48,3728.39 10621.6,3728.39 10652.54,3699.44 10626.52,3699.44 "/>
  <polygon fill="black" points="12362.28,3728.39 12346.16,3728.39 12325.3,3699.44 12351.33,3699.44 "/>
  <path fill="black" d="M12413.27 4954.09c-707.53,158.1 -2444.74,284.79 -3821.82,284.79 -4320.96,0 -7603.06,-1032.24 -7603.06,-2355.56 0,-1596.13 4505.21,-2855.14 9278.5,-2855.14 1314.18,0 2294.53,74.67 3317.18,221.49 -4258.8,-398.66 -11415.4,661.81 -11415.4,2637.38 0,1023.34 2103.8,1731.49 4502.75,2023.34 1826.68,222.23 3928.98,233.04 5741.85,43.7z"/>
 </g>
</svg>
