<?xml version="1.0" encoding="UTF-8"?>
<!DOCTYPE svg PUBLIC "-//W3C//DTD SVG 1.0//EN" "http://www.w3.org/TR/2001/REC-SVG-20010904/DTD/svg10.dtd">
<!-- Creator: CorelDRAW -->
<svg xmlns="http://www.w3.org/2000/svg" xml:space="preserve" width="100%" height="100%" version="1.0" shape-rendering="geometricPrecision" text-rendering="geometricPrecision" image-rendering="optimizeQuality" fill-rule="evenodd" clip-rule="evenodd"
viewBox="0 0 19476.72 5267.96"
 xmlns:xlink="http://www.w3.org/1999/xlink"
 xmlns:xodm="http://www.corel.com/coreldraw/odm/2003">
 <g id="Layer_x0020_1">
  <metadata id="CorelCorpID_0Corel-Layer"/>
  <rect fill="none" x="0.11" y="0.45" width="19476.5" height="5267.06"/>
  <g id="_2337194315472">
   <path fill="black" fill-rule="nonzero" d="M6333.28 61.16c0,233.67 -80.16,408.24 -240.45,523.7 -141.29,101.9 -327.4,152.84 -558.35,152.84l-52.98 -12.23 0 2066.28c179.32,-54.35 332.84,-134.5 460.54,-240.46 114.11,-95.09 226.86,-228.23 338.26,-399.4l40.75 24.45c-54.34,192.24 -119.55,353.22 -195.62,482.95 -95.1,156.91 -216.01,284.6 -362.72,381.74 -92.38,57.05 -203.78,100.53 -334.19,131.77 -130.42,31.24 -260.83,46.87 -391.24,46.87 -203.79,0 -395.33,-29.89 -574.65,-89.66 -268.98,-100.52 -479.55,-257.44 -631.71,-472.08 -152.14,-213.96 -228.22,-455.77 -228.22,-724.07 0,-258.12 78.79,-511.48 236.37,-760.76 141.29,-222.8 336.91,-429.97 586.88,-622.88 -78.8,-8.15 -150.79,-12.23 -216,-12.23 -163.02,0 -302.95,30.57 -419.78,91.71 -116.83,61.13 -235.02,174.56 -354.57,340.3l-32.6 0c46.19,-312.46 179.32,-542.04 399.39,-688.76 190.2,-127.7 437.44,-191.55 741.75,-191.55 133.13,0 346.41,36.68 639.85,110.04 293.43,73.36 513.51,110.04 660.23,110.04 97.82,0 184.75,-19.02 260.83,-57.06 76.08,-38.04 139.92,-101.89 191.55,-191.55l36.68 0zm-961.82 2742.81l0 -2082.57 -289.35 -57.06 0 951.62c0,217.36 -43.48,398.73 -130.42,545.44 -65.22,110.72 -194.27,253.36 -387.18,427.25 114.12,88.99 235.03,150.12 362.73,182.72 84.22,21.73 187.47,32.6 309.73,32.6 62.5,0 107.33,0 134.49,0zm-770.27 -668.38l0 -1552.77 -61.13 -12.22c-154.87,165.74 -268.98,327.39 -342.34,484.99 -81.51,179.31 -122.26,377.66 -122.26,595.02 0,331.46 124.98,619.47 374.94,864 59.77,-57.06 99.85,-112.75 120.23,-167.1 20.37,-54.34 30.56,-124.97 30.56,-211.92zm4303.72 705.06c-116.83,35.32 -230.94,86.26 -342.34,154.18 -100.52,59.78 -199.7,134.5 -297.51,224.16 -100.53,-58.41 -194.94,-104.61 -283.25,-139.25 -88.3,-34.64 -166.41,-51.62 -234.34,-51.62 -70.63,0 -138.56,13.59 -203.77,41.43 -65.21,27.86 -134.49,77.44 -207.85,149.44 -103.25,-86.94 -230.95,-165.74 -383.1,-235.7 -127.69,-59.78 -266.26,-112.76 -415.7,-158.94 54.34,-53.67 89.66,-107.32 105.96,-160.3 16.31,-52.98 24.46,-123.63 24.46,-213.29l0 -1109.21c-127.7,-167.78 -191.55,-320.61 -191.55,-459.17 0,-108 39.39,-209.89 118.19,-304.31 78.79,-95.1 192.91,-184.07 342.34,-268.3l32.6 52.98c-59.77,59.09 -104.6,116.83 -134.49,172.53 -29.88,55.02 -44.83,103.25 -44.83,144 0,48.91 51.63,146.04 154.87,292.08 103.25,146.72 154.87,295.47 154.87,446.94l595.02 -509.43c97.81,81.51 169.13,158.94 213.96,232.3 44.83,73.36 72.68,169.82 83.55,289.36l595.02 -521.66c100.54,86.95 173.9,165.05 220.08,235.7 65.21,97.81 97.81,198.33 97.81,300.91l0 1395.17zm-403.47 -5.43l0 -1287.18c0,-38.04 -9.51,-73.36 -28.53,-105.96 -5.44,-10.87 -47.54,-62.5 -126.34,-154.19l-342.33 278.49 0 1099.03c24.45,10.86 86.26,33.95 185.43,70.63 99.16,36.68 203.09,69.97 311.77,99.18zm-937.36 0l0 -1288.54c0,-35.32 -8.15,-67.92 -24.46,-97.13 -16.3,-29.89 -57.73,-84.23 -123.62,-163.03l-316.53 276.46 0 1073.21c163.02,76.09 317.89,142.65 464.61,199.03zm2249.68 -2627.34l-358.65 517.59 -32.61 0 110.04 -517.59 281.22 0zm69.28 2636.16l-427.93 374.95c-103.24,-62.49 -177.96,-135.85 -224.15,-220.08 -46.2,-84.22 -69.29,-181.36 -69.29,-292.75l0 -85.59 0 -1244.38 -134.49 -154.19 350.49 -313.13 362.73 326.03 -118.19 142.65 0 1324.54c5.43,27.16 16.3,52.29 33.28,75.39 16.3,23.09 41.43,44.15 74.72,63.17l76.07 -65.2 76.76 68.59zm1805.44 -2041.13c0,67.92 -44.15,170.49 -133.13,306.33l-407.55 586.88 418.42 268.98 0 907.47c-95.1,32.6 -191.56,78.8 -289.37,138.58 -81.51,48.9 -172.53,114.11 -273.05,195.62 -76.07,-48.91 -151.47,-84.23 -226.19,-105.29 -74.72,-21.74 -147.4,-32.6 -218.04,-32.6 -138.57,0 -290.72,38.04 -456.46,114.11l-77.43 -52.98 546.12 -819.18 -432.01 -252.67 0 -762.12c100.54,-46.2 196.99,-103.25 289.36,-171.17 92.38,-67.92 180.68,-144 264.91,-228.23 92.38,54.33 190.19,101.21 293.44,140.61 103.24,39.39 196.98,59.09 281.2,59.09l110.04 -12.23c38.04,0 74.04,-15.62 108,-46.86 33.96,-31.25 50.95,-68.61 50.95,-112.08 0,-27.18 -11.55,-55.02 -34.65,-83.55 -23.09,-28.52 -44.14,-56.38 -63.17,-83.54l-20.38 -57.06c0,-27.18 10.88,-48.9 32.61,-65.21 21.74,-16.31 50.26,-24.46 85.59,-24.46 38.03,0 72.67,16.99 103.93,50.95 31.24,33.96 46.86,80.83 46.86,140.61zm-455.77 575.32c-43.48,5.43 -88.98,10.87 -136.54,17.66 -47.54,6.79 -82.18,10.18 -103.92,10.18 -70.64,0 -141.28,-9.5 -210.56,-28.52 -69.29,-19.02 -143.33,-46.19 -222.12,-81.51l0 538.64 250.64 147.39 422.5 -603.84zm-49.59 1428.46l0 -618.12 -267.62 -150.12 -490.43 675.86c38.04,-8.15 80.84,-17.66 128.39,-28.52 47.54,-10.88 97.13,-16.31 148.75,-16.31 76.08,0 152.16,11.54 228.23,34.65 76.07,22.41 160.3,57.05 252.68,102.56zm1711.71 -1555.48l-456.45 0 0 1389.74 224.15 199.7 130.41 -110.03 65.21 77.43 -419.77 398.72c-108.69,-97.81 -198.35,-171.17 -268.99,-220.09 -92.38,-62.48 -196.99,-115.46 -313.81,-158.94 46.19,-46.18 78.11,-96.45 95.77,-150.79 17.66,-54.34 26.49,-122.26 26.49,-203.77l0 -1221.97 -150.79 0 0 -89.66 611.33 -824.61 0 657.51 456.45 0 0 256.76zm1467.17 301.58c-141.95,105.97 -273.06,207.86 -393.28,305.67 -141.97,116.83 -270.34,226.86 -385.13,330.11l0 480.91 356.6 171.17 299.55 -203.78 69.28 77.44c-119.55,84.23 -232.3,165.06 -338.26,243.85 -141.29,111.39 -247.25,194.27 -317.89,248.61 -108.68,-67.93 -210.57,-122.27 -305.67,-163.02 -95.08,-40.75 -205.13,-74.72 -330.11,-101.9 48.91,-46.18 83.55,-97.81 103.93,-154.18 20.37,-57.05 30.56,-122.26 30.56,-195.63l0 -1293.97c195.62,-99.84 402.12,-228.9 619.48,-386.49l590.94 641.21zm-383.77 155.55l-406.87 -453.73 0 803.55 406.87 -349.82zm2095.48 -656.83c-27.18,54.34 -40.75,120.23 -40.75,199.02l0 1590.12c-133.14,43.47 -253.37,93.74 -360.69,152.15 -107.33,58.41 -211.25,133.81 -311.77,226.19 -111.4,-95.09 -238.42,-176.6 -381.07,-244.53 -142.64,-67.92 -288.67,-118.19 -438.11,-150.79 54.34,-54.34 89.66,-108 105.96,-160.3 16.3,-52.99 24.45,-124.31 24.45,-213.97l0 -1164.23c65.21,-13.59 130.42,-34.64 194.27,-62.49 64.53,-28.53 130.42,-64.53 198.34,-108l-550.19 -378.34 0 -493.14 1363.93 950.95c24.45,-38.04 52.3,-71.32 83.54,-99.85 31.26,-28.53 67.26,-49.58 108.01,-63.17l4.08 20.38zm-472.76 1768.77l0 -1337.45 -352.53 -250.64 -132.45 89.66 0 1302.79 484.98 195.64z"/>
   <path fill="black" fill-rule="nonzero" d="M6461.91 4691.22l-273.08 228.24c-43.48,-27.17 -80.16,-64.88 -110.05,-113.1 -29.89,-48.23 -50.94,-100.2 -63.17,-155.89l-342.02 262.2 -338.62 -178.66c-10.87,-6.79 -26.5,-14.26 -46.88,-22.41 -20.37,-8.15 -37.35,-12.23 -50.94,-12.23 -4.08,0 -10.53,2.04 -19.36,6.11 -8.84,4.08 -17.32,8.15 -25.47,12.23 -9.51,16.3 -14.26,31.24 -14.26,44.83 0,9.51 4.75,24.45 14.26,44.84 9.5,20.38 14.26,35.99 14.26,46.87 0,16.3 -7.13,29.89 -21.06,40.75 -13.92,10.87 -28.87,16.3 -44.15,16.3 -18.34,0 -32.61,-7.13 -42.45,-21.39 -9.86,-14.27 -14.61,-30.22 -14.61,-47.89 0,-21.74 6.46,-49.25 19.36,-82.54 12.91,-33.28 33.62,-70.98 62.15,-113.09l211.6 -310.1c-81.51,-74.72 -138.23,-134.5 -170.84,-179.33 -52.99,-73.37 -79.48,-149.11 -79.48,-227.9l-6.11 -52.98c0,-66.57 14.26,-131.79 42.79,-195.64 28.54,-63.85 69.64,-122.27 123.29,-175.26 53.67,-52.98 116.51,-93.74 188.5,-122.27 72.01,-28.53 145.38,-42.8 220.1,-42.8 78.79,0 159.97,13.94 243.52,41.78 83.55,27.85 159.97,66.23 229.26,115.14 42.12,-48.91 82.87,-86.6 122.28,-113.1 39.39,-26.5 87.62,-45.85 144.69,-58.08l12.22 6.11c-63.85,59.78 -108.68,110.73 -134.5,152.84 -35.33,57.06 -52.99,121.6 -52.99,193.6l20.39 798.84c0,50.26 4.07,94.09 12.22,131.44 8.16,37.37 25.13,69.63 50.95,96.8l77.44 -59.09 40.76 44.83zm-450.37 -476.86l-8.15 -515.59 -45.18 -65.2 -14.26 -0.35 -397.05 581.14 464.64 0zm-120.24 -627.66c-42.12,-19.03 -84.56,-32.6 -127.37,-40.77 -42.79,-8.15 -85.25,-12.22 -127.37,-12.22 -122.26,0 -224.5,38.38 -306.68,115.14 -82.2,76.76 -123.3,168.81 -123.3,276.13 0,62.5 16.98,126.01 50.95,190.54 33.96,64.53 83.89,122.95 150.46,175.94l310.09 -454.11c-10.86,-17.65 -25.12,-31.24 -42.79,-40.75 -17.66,-9.52 -37.36,-14.27 -59.1,-14.27 -2.72,0 -8.15,1.36 -16.3,4.08 -8.16,2.71 -14.94,4.07 -20.38,4.07 -35.32,5.44 -63.51,16.98 -84.57,34.64 -21.06,17.67 -41.09,44.84 -60.12,81.52 0,-85.59 27.18,-151.48 81.52,-197.67 46.19,-39.4 108,-59.1 185.44,-59.1 44.83,0 88.99,5.44 132.46,16.3l57.06 -79.47zm124.31 978.85l0 -182.05 -586.22 0 -84.23 122.28 474.13 215.66 196.32 -155.89zm1228.83 -631.05l-156.91 144.68 -134.5 -146.05 -79.48 71.32 0 615.44 112.08 95.78 65.21 -55.02 36.69 38.72c-35.67,33.97 -71.33,66.91 -106.99,99.52 -60.46,57.05 -96.12,90.34 -106.99,99.84 -45.85,-44.83 -91.37,-81.5 -136.54,-110.03 -45.17,-28.53 -98.15,-55.03 -158.95,-79.48 44.84,-43.47 67.25,-102.58 67.25,-177.3l0 -480.59c0,-20.38 -4.07,-39.06 -12.22,-56.05 -8.16,-16.97 -19.71,-33.62 -34.99,-49.92l-38.72 32.6 -32.94 -39.39 197.67 -188.17c47.88,27.18 81.85,53.33 102.23,79.14 20.72,25.82 33.62,63.52 39.06,113.78l224.17 -192.24 154.87 183.42zm574.67 -13.59l-228.23 0 0 694.9 112.08 99.86 65.21 -55.02 32.6 38.72 -209.89 199.36c-54.34,-48.9 -99.17,-85.58 -134.5,-110.03 -46.19,-31.25 -98.5,-57.74 -156.92,-79.48 23.09,-23.09 39.06,-48.23 47.89,-75.4 8.84,-27.18 13.24,-61.14 13.24,-101.9l0 -611.01 -75.39 0 0 -44.83 305.68 -412.33 0 328.77 228.23 0 0 128.39zm2249.81 350.51c-55.71,91.02 -121.6,136.53 -197.68,136.53 -46.19,0 -95.1,-22.41 -146.73,-67.24l-132.45 103.92c32.6,61.15 56.38,101.9 71.32,122.28 31.25,43.48 64.53,74.37 99.86,92.72 35.32,18.34 70.64,27.51 105.96,27.51 67.93,0 127.03,-25.13 177.29,-75.4l18.35 8.15c-20.38,80.16 -55.36,142.99 -104.95,188.51 -49.59,45.5 -114.46,68.26 -194.61,68.26l-8.15 0c-81.52,0 -152.84,-30.23 -213.99,-90.34 -38.04,-37.7 -83.54,-103.25 -136.53,-197l-395.34 321.65 -287.34 -439.85 419.8 -332.17 -189.53 -322.31c-14.94,-21.74 -22.42,-42.8 -22.42,-63.18 0,-24.45 9.52,-47.89 28.54,-70.3 19.02,-22.42 42.8,-42.46 71.32,-60.12l423.88 -218.39c51.62,37.02 92.04,76.42 121.25,118.54 29.21,42.11 43.82,89.66 43.82,142.65l-8.15 73.36c-13.59,55.7 -47.56,111.06 -101.9,165.41 -32.6,32.6 -84.23,76.08 -154.88,130.42l209.9 368.85 262.89 -220.09c28.52,25.81 59.09,45.85 91.7,60.12 32.61,14.26 65.89,21.39 99.85,21.39l40.77 -6.11 8.15 12.23zm-607.29 -493.16c0,-32.61 -4.76,-63.52 -14.26,-92.73 -9.51,-29.2 -25.81,-56.04 -48.92,-80.49 -13.57,-12.23 -29.54,-21.74 -47.88,-28.53 -18.34,-6.8 -35.66,-10.19 -51.96,-10.19 -31.26,0 -58.42,11.54 -81.52,34.64 -23.09,23.09 -34.64,50.95 -34.64,83.55 0,12.23 1.69,23.78 5.09,34.65 3.4,10.87 9.17,23.09 17.32,36.68l124.31 234.35c32.61,-24.45 57.06,-44.83 73.36,-61.13 27.18,-27.18 44.84,-55.71 52.99,-85.6l6.11 -65.2zm-82.87 762.83l-205.83 -357.64 -224.16 174.58 226.54 351.19 203.45 -168.13zm3484.06 -1195.54c-21.74,95.44 -64.19,169.14 -127.37,221.79 -63.17,52.31 -135.52,78.45 -217.03,78.45 -73.37,0 -149.44,-20.03 -228.25,-59.78l0 224.85 336.26 0 -71.33 220.09 -264.93 0 0 383.12c0,184.77 -35.66,323.67 -106.98,416.74 -71.33,93.06 -196.66,166.76 -375.99,221.11l-311.79 93.74c-12.23,4.08 -26.83,6.79 -43.81,8.15 -16.98,1.36 -34.31,2.04 -51.96,2.04 -36.69,0 -78.12,-6.8 -124.32,-20.38 -100.53,-29.89 -155.55,-44.84 -165.06,-44.84 -25.82,0 -47.56,8.5 -65.22,25.14 -17.65,16.65 -32.6,46.87 -44.83,91.03l-20.38 0c0,-82.53 23.78,-159.63 71.32,-231.98 47.56,-72.34 105.3,-108.35 173.23,-108.35 48.91,0 106.65,19.71 173.22,59.1 93.73,55.7 150.8,86.96 171.18,93.74l12.22 0c9.52,0 18.69,-3.05 27.51,-9.17 8.83,-6.11 17.32,-14.6 25.48,-25.47 31.25,-31.25 50.95,-69.62 59.1,-115.14 8.15,-45.52 12.23,-100.19 12.23,-164.05l0 -674.53c-36.69,-10.87 -68.61,-18.34 -95.79,-22.42 -27.16,-4.08 -55.02,-6.11 -83.54,-6.11 -91.04,0 -174.58,46.87 -250.67,140.61l-18.33 0c0,-114.11 47.54,-200.38 142.65,-258.8 80.15,-48.92 182.04,-73.37 305.68,-73.37l0 -224.16c135.85,0 248.61,-21.74 338.28,-65.22 50.27,-24.78 144.69,-90 283.26,-196.31 95.1,46.53 188.16,69.97 279.18,69.97 78.81,0 160.99,-16.64 246.59,-49.59l10.19 0zm-798.84 1115.39l0 -855.9c-19.03,9.51 -39.06,16.98 -60.12,22.41 -21.06,5.44 -44.49,9.52 -70.31,12.23l0 760.12c0,142.66 -13.59,254.05 -40.75,334.21 -33.97,100.54 -99.86,190.88 -197.67,271.04 134.49,-44.83 229.59,-109.7 285.29,-194.61 55.7,-84.92 83.56,-201.42 83.56,-349.5zm1675.11 254.73l-202.42 183.06c-94.77,-55.69 -141.98,-144 -141.98,-264.58l-293.45 264.58 -18.34 0c-51.63,-51.61 -89.67,-98.49 -114.12,-140.6 -32.61,-55.7 -48.91,-114.81 -48.91,-177.3 0,-81.51 21.06,-160.31 63.17,-236.04 35.33,-63.86 87.63,-129.08 156.92,-195.65l-108 -307.71 34.64 2.03c89.67,0 166.08,-30.9 228.58,-93.06l315.52 111.41 66.92 -50.95 12.56 14.26c-20.37,33.97 -37.02,65.55 -49.92,94.77 -12.91,29.2 -22.76,60.11 -29.56,92.72l0 627.66c5.44,16.31 12.57,30.57 21.07,42.8 8.82,12.22 20.03,21.05 33.62,26.49l38.72 -26.49 34.98 32.6zm-344.4 -452.4l0 -258.82 -309.41 -122.26 91.02 259.82 218.39 121.26zm0 302.28l0 -253.38 -220.08 -122.26c-19.03,36.68 -34.65,74.37 -46.88,113.78 -12.23,39.06 -18.34,76.41 -18.34,111.74 0,109.7 40.08,209.22 120.58,298.55l164.72 -148.43zm1214.57 155.89c-60.11,17.67 -116.49,41.1 -169.82,70.31 -52.99,29.21 -105.97,64.88 -159.29,106.98 -70.99,-54.34 -136.87,-97.81 -198.36,-130.41 -76.07,-40.76 -153.17,-68.61 -230.95,-83.56 29.55,-23.09 49.93,-48.57 61.13,-76.41 11.21,-27.85 16.65,-62.16 16.65,-102.92l0 -584.52 -118.2 0 0 -128.39 114.12 0 4.08 -154.88c0,-42.11 -5.78,-80.15 -17.32,-114.12 -11.89,-33.97 -33.97,-69.28 -66.24,-105.96l5.78 -16.3c28.53,10.86 54.68,22.74 78.11,35.66 23.78,12.9 46.54,28.18 67.93,45.85l24.46 0c31.25,-36.01 63.51,-63.52 97.47,-82.2 39.06,-22.76 80.5,-33.97 123.64,-33.97l8.15 6.12c-70.64,58.08 -105.97,130.09 -105.97,215.33l0 422.52 309.08 -258.8c103.59,69.28 155.55,167.78 155.55,295.49l0 674.18zm-216.01 -24.11l0 -646.68c-2.72,-17.66 -8.83,-33.97 -18.34,-48.91 -13.93,-21.74 -33.63,-41.44 -59.78,-59.44l-170.5 139.94 0 490.78 248.62 124.31z"/>
  </g>
 </g>
</svg>
